<?xml version="1.0" encoding="utf-8" standalone="no"?>
<!DOCTYPE svg PUBLIC "-//W3C//DTD SVG 1.1//EN"
  "http://www.w3.org/Graphics/SVG/1.1/DTD/svg11.dtd">
<svg xmlns:xlink="http://www.w3.org/1999/xlink" width="936pt" height="309.6pt" viewBox="0 0 936 309.6" xmlns="http://www.w3.org/2000/svg" version="1.1">
 <metadata>
  <rdf:RDF xmlns:dc="http://purl.org/dc/elements/1.1/" xmlns:cc="http://creativecommons.org/ns#" xmlns:rdf="http://www.w3.org/1999/02/22-rdf-syntax-ns#">
   <cc:Work>
    <dc:type rdf:resource="http://purl.org/dc/dcmitype/StillImage"/>
    <dc:date>2026-06-19T22:39:25.964708</dc:date>
    <dc:format>image/svg+xml</dc:format>
    <dc:creator>
     <cc:Agent>
      <dc:title>Matplotlib v3.10.9, https://matplotlib.org/</dc:title>
     </cc:Agent>
    </dc:creator>
   </cc:Work>
  </rdf:RDF>
 </metadata>
 <defs>
  <style type="text/css">*{stroke-linejoin: round; stroke-linecap: butt}</style>
 </defs>
 <g id="figure_1">
  <g id="patch_1">
   <path d="M 0 309.6 
L 936 309.6 
L 936 0 
L 0 0 
z
" style="fill: #ffffff"/>
  </g>
  <g id="axes_1">
   <g id="patch_2">
    <path d="M 44.66 267.64 
L 285.826667 267.64 
L 285.826667 73.464 
L 44.66 73.464 
z
" style="fill: #ffffff"/>
   </g>
   <g id="matplotlib.axis_1">
    <g id="xtick_1">
     <g id="line2d_1">
      <defs>
       <path id="m37588d2e22" d="M 0 0 
L 0 3.5 
" style="stroke: #000000; stroke-width: 0.8"/>
      </defs>
      <g>
       <use xlink:href="#m37588d2e22" x="87.706378" y="267.64" style="stroke: #000000; stroke-width: 0.8"/>
      </g>
     </g>
     <g id="text_1">
      <!-- 1990 -->
      <g transform="translate(74.981378 282.238437) scale(0.1 -0.1)">
       <defs>
        <path id="DejaVuSans-31" d="M 794 531 
L 1825 531 
L 1825 4091 
L 703 3866 
L 703 4441 
L 1819 4666 
L 2450 4666 
L 2450 531 
L 3481 531 
L 3481 0 
L 794 0 
L 794 531 
z
" transform="scale(0.015625)"/>
        <path id="DejaVuSans-39" d="M 703 97 
L 703 672 
Q 941 559 1184 500 
Q 1428 441 1663 441 
Q 2288 441 2617 861 
Q 2947 1281 2994 2138 
Q 2813 1869 2534 1725 
Q 2256 1581 1919 1581 
Q 1219 1581 811 2004 
Q 403 2428 403 3163 
Q 403 3881 828 4315 
Q 1253 4750 1959 4750 
Q 2769 4750 3195 4129 
Q 3622 3509 3622 2328 
Q 3622 1225 3098 567 
Q 2575 -91 1691 -91 
Q 1453 -91 1209 -44 
Q 966 3 703 97 
z
M 1959 2075 
Q 2384 2075 2632 2365 
Q 2881 2656 2881 3163 
Q 2881 3666 2632 3958 
Q 2384 4250 1959 4250 
Q 1534 4250 1286 3958 
Q 1038 3666 1038 3163 
Q 1038 2656 1286 2365 
Q 1534 2075 1959 2075 
z
" transform="scale(0.015625)"/>
        <path id="DejaVuSans-30" d="M 2034 4250 
Q 1547 4250 1301 3770 
Q 1056 3291 1056 2328 
Q 1056 1369 1301 889 
Q 1547 409 2034 409 
Q 2525 409 2770 889 
Q 3016 1369 3016 2328 
Q 3016 3291 2770 3770 
Q 2525 4250 2034 4250 
z
M 2034 4750 
Q 2819 4750 3233 4129 
Q 3647 3509 3647 2328 
Q 3647 1150 3233 529 
Q 2819 -91 2034 -91 
Q 1250 -91 836 529 
Q 422 1150 422 2328 
Q 422 3509 836 4129 
Q 1250 4750 2034 4750 
z
" transform="scale(0.015625)"/>
       </defs>
       <use xlink:href="#DejaVuSans-31"/>
       <use xlink:href="#DejaVuSans-39" transform="translate(63.623047 0)"/>
       <use xlink:href="#DejaVuSans-39" transform="translate(127.246094 0)"/>
       <use xlink:href="#DejaVuSans-30" transform="translate(190.869141 0)"/>
      </g>
     </g>
    </g>
    <g id="xtick_2">
     <g id="line2d_2">
      <g>
       <use xlink:href="#m37588d2e22" x="141.18014" y="267.64" style="stroke: #000000; stroke-width: 0.8"/>
      </g>
     </g>
     <g id="text_2">
      <!-- 2000 -->
      <g transform="translate(128.45514 282.238437) scale(0.1 -0.1)">
       <defs>
        <path id="DejaVuSans-32" d="M 1228 531 
L 3431 531 
L 3431 0 
L 469 0 
L 469 531 
Q 828 903 1448 1529 
Q 2069 2156 2228 2338 
Q 2531 2678 2651 2914 
Q 2772 3150 2772 3378 
Q 2772 3750 2511 3984 
Q 2250 4219 1831 4219 
Q 1534 4219 1204 4116 
Q 875 4013 500 3803 
L 500 4441 
Q 881 4594 1212 4672 
Q 1544 4750 1819 4750 
Q 2544 4750 2975 4387 
Q 3406 4025 3406 3419 
Q 3406 3131 3298 2873 
Q 3191 2616 2906 2266 
Q 2828 2175 2409 1742 
Q 1991 1309 1228 531 
z
" transform="scale(0.015625)"/>
       </defs>
       <use xlink:href="#DejaVuSans-32"/>
       <use xlink:href="#DejaVuSans-30" transform="translate(63.623047 0)"/>
       <use xlink:href="#DejaVuSans-30" transform="translate(127.246094 0)"/>
       <use xlink:href="#DejaVuSans-30" transform="translate(190.869141 0)"/>
      </g>
     </g>
    </g>
    <g id="xtick_3">
     <g id="line2d_3">
      <g>
       <use xlink:href="#m37588d2e22" x="194.653902" y="267.64" style="stroke: #000000; stroke-width: 0.8"/>
      </g>
     </g>
     <g id="text_3">
      <!-- 2010 -->
      <g transform="translate(181.928902 282.238437) scale(0.1 -0.1)">
       <use xlink:href="#DejaVuSans-32"/>
       <use xlink:href="#DejaVuSans-30" transform="translate(63.623047 0)"/>
       <use xlink:href="#DejaVuSans-31" transform="translate(127.246094 0)"/>
       <use xlink:href="#DejaVuSans-30" transform="translate(190.869141 0)"/>
      </g>
     </g>
    </g>
    <g id="xtick_4">
     <g id="line2d_4">
      <g>
       <use xlink:href="#m37588d2e22" x="248.127664" y="267.64" style="stroke: #000000; stroke-width: 0.8"/>
      </g>
     </g>
     <g id="text_4">
      <!-- 2020 -->
      <g transform="translate(235.402664 282.238437) scale(0.1 -0.1)">
       <use xlink:href="#DejaVuSans-32"/>
       <use xlink:href="#DejaVuSans-30" transform="translate(63.623047 0)"/>
       <use xlink:href="#DejaVuSans-32" transform="translate(127.246094 0)"/>
       <use xlink:href="#DejaVuSans-30" transform="translate(190.869141 0)"/>
      </g>
     </g>
    </g>
    <g id="text_5">
     <!-- season -->
     <g transform="translate(147.665208 295.916562) scale(0.1 -0.1)">
      <defs>
       <path id="DejaVuSans-73" d="M 2834 3397 
L 2834 2853 
Q 2591 2978 2328 3040 
Q 2066 3103 1784 3103 
Q 1356 3103 1142 2972 
Q 928 2841 928 2578 
Q 928 2378 1081 2264 
Q 1234 2150 1697 2047 
L 1894 2003 
Q 2506 1872 2764 1633 
Q 3022 1394 3022 966 
Q 3022 478 2636 193 
Q 2250 -91 1575 -91 
Q 1294 -91 989 -36 
Q 684 19 347 128 
L 347 722 
Q 666 556 975 473 
Q 1284 391 1588 391 
Q 1994 391 2212 530 
Q 2431 669 2431 922 
Q 2431 1156 2273 1281 
Q 2116 1406 1581 1522 
L 1381 1569 
Q 847 1681 609 1914 
Q 372 2147 372 2553 
Q 372 3047 722 3315 
Q 1072 3584 1716 3584 
Q 2034 3584 2315 3537 
Q 2597 3491 2834 3397 
z
" transform="scale(0.015625)"/>
       <path id="DejaVuSans-65" d="M 3597 1894 
L 3597 1613 
L 953 1613 
Q 991 1019 1311 708 
Q 1631 397 2203 397 
Q 2534 397 2845 478 
Q 3156 559 3463 722 
L 3463 178 
Q 3153 47 2828 -22 
Q 2503 -91 2169 -91 
Q 1331 -91 842 396 
Q 353 884 353 1716 
Q 353 2575 817 3079 
Q 1281 3584 2069 3584 
Q 2775 3584 3186 3129 
Q 3597 2675 3597 1894 
z
M 3022 2063 
Q 3016 2534 2758 2815 
Q 2500 3097 2075 3097 
Q 1594 3097 1305 2825 
Q 1016 2553 972 2059 
L 3022 2063 
z
" transform="scale(0.015625)"/>
       <path id="DejaVuSans-61" d="M 2194 1759 
Q 1497 1759 1228 1600 
Q 959 1441 959 1056 
Q 959 750 1161 570 
Q 1363 391 1709 391 
Q 2188 391 2477 730 
Q 2766 1069 2766 1631 
L 2766 1759 
L 2194 1759 
z
M 3341 1997 
L 3341 0 
L 2766 0 
L 2766 531 
Q 2569 213 2275 61 
Q 1981 -91 1556 -91 
Q 1019 -91 701 211 
Q 384 513 384 1019 
Q 384 1609 779 1909 
Q 1175 2209 1959 2209 
L 2766 2209 
L 2766 2266 
Q 2766 2663 2505 2880 
Q 2244 3097 1772 3097 
Q 1472 3097 1187 3025 
Q 903 2953 641 2809 
L 641 3341 
Q 956 3463 1253 3523 
Q 1550 3584 1831 3584 
Q 2591 3584 2966 3190 
Q 3341 2797 3341 1997 
z
" transform="scale(0.015625)"/>
       <path id="DejaVuSans-6f" d="M 1959 3097 
Q 1497 3097 1228 2736 
Q 959 2375 959 1747 
Q 959 1119 1226 758 
Q 1494 397 1959 397 
Q 2419 397 2687 759 
Q 2956 1122 2956 1747 
Q 2956 2369 2687 2733 
Q 2419 3097 1959 3097 
z
M 1959 3584 
Q 2709 3584 3137 3096 
Q 3566 2609 3566 1747 
Q 3566 888 3137 398 
Q 2709 -91 1959 -91 
Q 1206 -91 779 398 
Q 353 888 353 1747 
Q 353 2609 779 3096 
Q 1206 3584 1959 3584 
z
" transform="scale(0.015625)"/>
       <path id="DejaVuSans-6e" d="M 3513 2113 
L 3513 0 
L 2938 0 
L 2938 2094 
Q 2938 2591 2744 2837 
Q 2550 3084 2163 3084 
Q 1697 3084 1428 2787 
Q 1159 2491 1159 1978 
L 1159 0 
L 581 0 
L 581 3500 
L 1159 3500 
L 1159 2956 
Q 1366 3272 1645 3428 
Q 1925 3584 2291 3584 
Q 2894 3584 3203 3211 
Q 3513 2838 3513 2113 
z
" transform="scale(0.015625)"/>
      </defs>
      <use xlink:href="#DejaVuSans-73"/>
      <use xlink:href="#DejaVuSans-65" transform="translate(52.099609 0)"/>
      <use xlink:href="#DejaVuSans-61" transform="translate(113.623047 0)"/>
      <use xlink:href="#DejaVuSans-73" transform="translate(174.902344 0)"/>
      <use xlink:href="#DejaVuSans-6f" transform="translate(227.001953 0)"/>
      <use xlink:href="#DejaVuSans-6e" transform="translate(288.183594 0)"/>
     </g>
    </g>
   </g>
   <g id="matplotlib.axis_2">
    <g id="ytick_1">
     <g id="line2d_5">
      <defs>
       <path id="m8a1114d9a4" d="M 0 0 
L -3.5 0 
" style="stroke: #000000; stroke-width: 0.8"/>
      </defs>
      <g>
       <use xlink:href="#m8a1114d9a4" x="44.66" y="242.72432" style="stroke: #000000; stroke-width: 0.8"/>
      </g>
     </g>
     <g id="text_6">
      <!-- 10 -->
      <g style="fill: #1f77b4" transform="translate(24.935 246.523539) scale(0.1 -0.1)">
       <use xlink:href="#DejaVuSans-31"/>
       <use xlink:href="#DejaVuSans-30" transform="translate(63.623047 0)"/>
      </g>
     </g>
    </g>
    <g id="ytick_2">
     <g id="line2d_6">
      <g>
       <use xlink:href="#m8a1114d9a4" x="44.66" y="215.891985" style="stroke: #000000; stroke-width: 0.8"/>
      </g>
     </g>
     <g id="text_7">
      <!-- 15 -->
      <g style="fill: #1f77b4" transform="translate(24.935 219.691204) scale(0.1 -0.1)">
       <defs>
        <path id="DejaVuSans-35" d="M 691 4666 
L 3169 4666 
L 3169 4134 
L 1269 4134 
L 1269 2991 
Q 1406 3038 1543 3061 
Q 1681 3084 1819 3084 
Q 2600 3084 3056 2656 
Q 3513 2228 3513 1497 
Q 3513 744 3044 326 
Q 2575 -91 1722 -91 
Q 1428 -91 1123 -41 
Q 819 9 494 109 
L 494 744 
Q 775 591 1075 516 
Q 1375 441 1709 441 
Q 2250 441 2565 725 
Q 2881 1009 2881 1497 
Q 2881 1984 2565 2268 
Q 2250 2553 1709 2553 
Q 1456 2553 1204 2497 
Q 953 2441 691 2322 
L 691 4666 
z
" transform="scale(0.015625)"/>
       </defs>
       <use xlink:href="#DejaVuSans-31"/>
       <use xlink:href="#DejaVuSans-35" transform="translate(63.623047 0)"/>
      </g>
     </g>
    </g>
    <g id="ytick_3">
     <g id="line2d_7">
      <g>
       <use xlink:href="#m8a1114d9a4" x="44.66" y="189.059651" style="stroke: #000000; stroke-width: 0.8"/>
      </g>
     </g>
     <g id="text_8">
      <!-- 20 -->
      <g style="fill: #1f77b4" transform="translate(24.935 192.85887) scale(0.1 -0.1)">
       <use xlink:href="#DejaVuSans-32"/>
       <use xlink:href="#DejaVuSans-30" transform="translate(63.623047 0)"/>
      </g>
     </g>
    </g>
    <g id="ytick_4">
     <g id="line2d_8">
      <g>
       <use xlink:href="#m8a1114d9a4" x="44.66" y="162.227316" style="stroke: #000000; stroke-width: 0.8"/>
      </g>
     </g>
     <g id="text_9">
      <!-- 25 -->
      <g style="fill: #1f77b4" transform="translate(24.935 166.026535) scale(0.1 -0.1)">
       <use xlink:href="#DejaVuSans-32"/>
       <use xlink:href="#DejaVuSans-35" transform="translate(63.623047 0)"/>
      </g>
     </g>
    </g>
    <g id="ytick_5">
     <g id="line2d_9">
      <g>
       <use xlink:href="#m8a1114d9a4" x="44.66" y="135.394982" style="stroke: #000000; stroke-width: 0.8"/>
      </g>
     </g>
     <g id="text_10">
      <!-- 30 -->
      <g style="fill: #1f77b4" transform="translate(24.935 139.1942) scale(0.1 -0.1)">
       <defs>
        <path id="DejaVuSans-33" d="M 2597 2516 
Q 3050 2419 3304 2112 
Q 3559 1806 3559 1356 
Q 3559 666 3084 287 
Q 2609 -91 1734 -91 
Q 1441 -91 1130 -33 
Q 819 25 488 141 
L 488 750 
Q 750 597 1062 519 
Q 1375 441 1716 441 
Q 2309 441 2620 675 
Q 2931 909 2931 1356 
Q 2931 1769 2642 2001 
Q 2353 2234 1838 2234 
L 1294 2234 
L 1294 2753 
L 1863 2753 
Q 2328 2753 2575 2939 
Q 2822 3125 2822 3475 
Q 2822 3834 2567 4026 
Q 2313 4219 1838 4219 
Q 1578 4219 1281 4162 
Q 984 4106 628 3988 
L 628 4550 
Q 988 4650 1302 4700 
Q 1616 4750 1894 4750 
Q 2613 4750 3031 4423 
Q 3450 4097 3450 3541 
Q 3450 3153 3228 2886 
Q 3006 2619 2597 2516 
z
" transform="scale(0.015625)"/>
       </defs>
       <use xlink:href="#DejaVuSans-33"/>
       <use xlink:href="#DejaVuSans-30" transform="translate(63.623047 0)"/>
      </g>
     </g>
    </g>
    <g id="ytick_6">
     <g id="line2d_10">
      <g>
       <use xlink:href="#m8a1114d9a4" x="44.66" y="108.562647" style="stroke: #000000; stroke-width: 0.8"/>
      </g>
     </g>
     <g id="text_11">
      <!-- 35 -->
      <g style="fill: #1f77b4" transform="translate(24.935 112.361866) scale(0.1 -0.1)">
       <use xlink:href="#DejaVuSans-33"/>
       <use xlink:href="#DejaVuSans-35" transform="translate(63.623047 0)"/>
      </g>
     </g>
    </g>
    <g id="ytick_7">
     <g id="line2d_11">
      <g>
       <use xlink:href="#m8a1114d9a4" x="44.66" y="81.730313" style="stroke: #000000; stroke-width: 0.8"/>
      </g>
     </g>
     <g id="text_12">
      <!-- 40 -->
      <g style="fill: #1f77b4" transform="translate(24.935 85.529531) scale(0.1 -0.1)">
       <defs>
        <path id="DejaVuSans-34" d="M 2419 4116 
L 825 1625 
L 2419 1625 
L 2419 4116 
z
M 2253 4666 
L 3047 4666 
L 3047 1625 
L 3713 1625 
L 3713 1100 
L 3047 1100 
L 3047 0 
L 2419 0 
L 2419 1100 
L 313 1100 
L 313 1709 
L 2253 4666 
z
" transform="scale(0.015625)"/>
       </defs>
       <use xlink:href="#DejaVuSans-34"/>
       <use xlink:href="#DejaVuSans-30" transform="translate(63.623047 0)"/>
      </g>
     </g>
    </g>
    <g id="text_13">
     <!-- 3PA rate (%) -->
     <g style="fill: #1f77b4" transform="translate(18.855312 201.836375) rotate(-90) scale(0.1 -0.1)">
      <defs>
       <path id="DejaVuSans-50" d="M 1259 4147 
L 1259 2394 
L 2053 2394 
Q 2494 2394 2734 2622 
Q 2975 2850 2975 3272 
Q 2975 3691 2734 3919 
Q 2494 4147 2053 4147 
L 1259 4147 
z
M 628 4666 
L 2053 4666 
Q 2838 4666 3239 4311 
Q 3641 3956 3641 3272 
Q 3641 2581 3239 2228 
Q 2838 1875 2053 1875 
L 1259 1875 
L 1259 0 
L 628 0 
L 628 4666 
z
" transform="scale(0.015625)"/>
       <path id="DejaVuSans-41" d="M 2188 4044 
L 1331 1722 
L 3047 1722 
L 2188 4044 
z
M 1831 4666 
L 2547 4666 
L 4325 0 
L 3669 0 
L 3244 1197 
L 1141 1197 
L 716 0 
L 50 0 
L 1831 4666 
z
" transform="scale(0.015625)"/>
       <path id="DejaVuSans-20" transform="scale(0.015625)"/>
       <path id="DejaVuSans-72" d="M 2631 2963 
Q 2534 3019 2420 3045 
Q 2306 3072 2169 3072 
Q 1681 3072 1420 2755 
Q 1159 2438 1159 1844 
L 1159 0 
L 581 0 
L 581 3500 
L 1159 3500 
L 1159 2956 
Q 1341 3275 1631 3429 
Q 1922 3584 2338 3584 
Q 2397 3584 2469 3576 
Q 2541 3569 2628 3553 
L 2631 2963 
z
" transform="scale(0.015625)"/>
       <path id="DejaVuSans-74" d="M 1172 4494 
L 1172 3500 
L 2356 3500 
L 2356 3053 
L 1172 3053 
L 1172 1153 
Q 1172 725 1289 603 
Q 1406 481 1766 481 
L 2356 481 
L 2356 0 
L 1766 0 
Q 1100 0 847 248 
Q 594 497 594 1153 
L 594 3053 
L 172 3053 
L 172 3500 
L 594 3500 
L 594 4494 
L 1172 4494 
z
" transform="scale(0.015625)"/>
       <path id="DejaVuSans-28" d="M 1984 4856 
Q 1566 4138 1362 3434 
Q 1159 2731 1159 2009 
Q 1159 1288 1364 580 
Q 1569 -128 1984 -844 
L 1484 -844 
Q 1016 -109 783 600 
Q 550 1309 550 2009 
Q 550 2706 781 3412 
Q 1013 4119 1484 4856 
L 1984 4856 
z
" transform="scale(0.015625)"/>
       <path id="DejaVuSans-25" d="M 4653 2053 
Q 4381 2053 4226 1822 
Q 4072 1591 4072 1178 
Q 4072 772 4226 539 
Q 4381 306 4653 306 
Q 4919 306 5073 539 
Q 5228 772 5228 1178 
Q 5228 1588 5073 1820 
Q 4919 2053 4653 2053 
z
M 4653 2450 
Q 5147 2450 5437 2106 
Q 5728 1763 5728 1178 
Q 5728 594 5436 251 
Q 5144 -91 4653 -91 
Q 4153 -91 3862 251 
Q 3572 594 3572 1178 
Q 3572 1766 3864 2108 
Q 4156 2450 4653 2450 
z
M 1428 4353 
Q 1159 4353 1004 4120 
Q 850 3888 850 3481 
Q 850 3069 1003 2837 
Q 1156 2606 1428 2606 
Q 1700 2606 1854 2837 
Q 2009 3069 2009 3481 
Q 2009 3884 1853 4118 
Q 1697 4353 1428 4353 
z
M 4250 4750 
L 4750 4750 
L 1831 -91 
L 1331 -91 
L 4250 4750 
z
M 1428 4750 
Q 1922 4750 2215 4408 
Q 2509 4066 2509 3481 
Q 2509 2891 2217 2550 
Q 1925 2209 1428 2209 
Q 931 2209 642 2551 
Q 353 2894 353 3481 
Q 353 4063 643 4406 
Q 934 4750 1428 4750 
z
" transform="scale(0.015625)"/>
       <path id="DejaVuSans-29" d="M 513 4856 
L 1013 4856 
Q 1481 4119 1714 3412 
Q 1947 2706 1947 2009 
Q 1947 1309 1714 600 
Q 1481 -109 1013 -844 
L 513 -844 
Q 928 -128 1133 580 
Q 1338 1288 1338 2009 
Q 1338 2731 1133 3434 
Q 928 4138 513 4856 
z
" transform="scale(0.015625)"/>
      </defs>
      <use xlink:href="#DejaVuSans-33"/>
      <use xlink:href="#DejaVuSans-50" transform="translate(63.623047 0)"/>
      <use xlink:href="#DejaVuSans-41" transform="translate(117.550781 0)"/>
      <use xlink:href="#DejaVuSans-20" transform="translate(185.958984 0)"/>
      <use xlink:href="#DejaVuSans-72" transform="translate(217.746094 0)"/>
      <use xlink:href="#DejaVuSans-61" transform="translate(258.859375 0)"/>
      <use xlink:href="#DejaVuSans-74" transform="translate(320.138672 0)"/>
      <use xlink:href="#DejaVuSans-65" transform="translate(359.347656 0)"/>
      <use xlink:href="#DejaVuSans-20" transform="translate(420.871094 0)"/>
      <use xlink:href="#DejaVuSans-28" transform="translate(452.658203 0)"/>
      <use xlink:href="#DejaVuSans-25" transform="translate(491.671875 0)"/>
      <use xlink:href="#DejaVuSans-29" transform="translate(586.691406 0)"/>
     </g>
    </g>
   </g>
   <g id="line2d_12">
    <path d="M 55.622121 258.813818 
L 60.969497 252.125735 
L 66.316874 252.444101 
L 71.66425 253.113197 
L 77.011626 245.31099 
L 82.359002 245.340311 
L 87.706378 232.580541 
L 93.053755 217.983175 
L 98.401131 228.440447 
L 103.748507 225.179796 
L 109.095883 211.948904 
L 114.443259 208.725978 
L 119.790636 206.457085 
L 125.138012 210.502454 
L 130.485388 198.95476 
L 135.832764 188.829135 
L 141.18014 200.953468 
L 146.527517 189.52344 
L 151.874893 196.85087 
L 157.222269 187.633816 
L 162.569645 187.785665 
L 167.917021 170.55949 
L 173.264398 174.576467 
L 178.611774 157.897133 
L 183.95915 154.525757 
L 189.306526 152.99912 
L 194.653902 167.46037 
L 200.001279 147.244352 
L 205.348655 139.00528 
L 210.696031 133.409585 
L 216.043407 142.345649 
L 221.390783 129.581112 
L 226.73816 129.318953 
L 232.085536 123.659892 
L 237.432912 104.315905 
L 242.780288 115.063059 
L 248.127664 104.531264 
L 253.475041 92.857227 
L 258.822417 100.380935 
L 264.169793 92.28912 
L 269.517169 86.207576 
L 274.864545 82.290182 
" clip-path="url(#p3aed1c4364)" style="fill: none; stroke: #1f77b4; stroke-width: 2; stroke-linecap: square"/>
   </g>
   <g id="patch_3">
    <path d="M 44.66 267.64 
L 44.66 73.464 
" style="fill: none; stroke: #000000; stroke-width: 0.8; stroke-linejoin: miter; stroke-linecap: square"/>
   </g>
   <g id="patch_4">
    <path d="M 285.826667 267.64 
L 285.826667 73.464 
" style="fill: none; stroke: #000000; stroke-width: 0.8; stroke-linejoin: miter; stroke-linecap: square"/>
   </g>
   <g id="patch_5">
    <path d="M 44.66 267.64 
L 285.826667 267.64 
" style="fill: none; stroke: #000000; stroke-width: 0.8; stroke-linejoin: miter; stroke-linecap: square"/>
   </g>
   <g id="patch_6">
    <path d="M 44.66 73.464 
L 285.826667 73.464 
" style="fill: none; stroke: #000000; stroke-width: 0.8; stroke-linejoin: miter; stroke-linecap: square"/>
   </g>
   <g id="text_14">
    <!-- Both series just trend over time -->
    <g transform="translate(82.016888 67.464) scale(0.105 -0.105)">
     <defs>
      <path id="DejaVuSans-42" d="M 1259 2228 
L 1259 519 
L 2272 519 
Q 2781 519 3026 730 
Q 3272 941 3272 1375 
Q 3272 1813 3026 2020 
Q 2781 2228 2272 2228 
L 1259 2228 
z
M 1259 4147 
L 1259 2741 
L 2194 2741 
Q 2656 2741 2882 2914 
Q 3109 3088 3109 3444 
Q 3109 3797 2882 3972 
Q 2656 4147 2194 4147 
L 1259 4147 
z
M 628 4666 
L 2241 4666 
Q 2963 4666 3353 4366 
Q 3744 4066 3744 3513 
Q 3744 3084 3544 2831 
Q 3344 2578 2956 2516 
Q 3422 2416 3680 2098 
Q 3938 1781 3938 1306 
Q 3938 681 3513 340 
Q 3088 0 2303 0 
L 628 0 
L 628 4666 
z
" transform="scale(0.015625)"/>
      <path id="DejaVuSans-68" d="M 3513 2113 
L 3513 0 
L 2938 0 
L 2938 2094 
Q 2938 2591 2744 2837 
Q 2550 3084 2163 3084 
Q 1697 3084 1428 2787 
Q 1159 2491 1159 1978 
L 1159 0 
L 581 0 
L 581 4863 
L 1159 4863 
L 1159 2956 
Q 1366 3272 1645 3428 
Q 1925 3584 2291 3584 
Q 2894 3584 3203 3211 
Q 3513 2838 3513 2113 
z
" transform="scale(0.015625)"/>
      <path id="DejaVuSans-69" d="M 603 3500 
L 1178 3500 
L 1178 0 
L 603 0 
L 603 3500 
z
M 603 4863 
L 1178 4863 
L 1178 4134 
L 603 4134 
L 603 4863 
z
" transform="scale(0.015625)"/>
      <path id="DejaVuSans-6a" d="M 603 3500 
L 1178 3500 
L 1178 -63 
Q 1178 -731 923 -1031 
Q 669 -1331 103 -1331 
L -116 -1331 
L -116 -844 
L 38 -844 
Q 366 -844 484 -692 
Q 603 -541 603 -63 
L 603 3500 
z
M 603 4863 
L 1178 4863 
L 1178 4134 
L 603 4134 
L 603 4863 
z
" transform="scale(0.015625)"/>
      <path id="DejaVuSans-75" d="M 544 1381 
L 544 3500 
L 1119 3500 
L 1119 1403 
Q 1119 906 1312 657 
Q 1506 409 1894 409 
Q 2359 409 2629 706 
Q 2900 1003 2900 1516 
L 2900 3500 
L 3475 3500 
L 3475 0 
L 2900 0 
L 2900 538 
Q 2691 219 2414 64 
Q 2138 -91 1772 -91 
Q 1169 -91 856 284 
Q 544 659 544 1381 
z
M 1991 3584 
L 1991 3584 
z
" transform="scale(0.015625)"/>
      <path id="DejaVuSans-64" d="M 2906 2969 
L 2906 4863 
L 3481 4863 
L 3481 0 
L 2906 0 
L 2906 525 
Q 2725 213 2448 61 
Q 2172 -91 1784 -91 
Q 1150 -91 751 415 
Q 353 922 353 1747 
Q 353 2572 751 3078 
Q 1150 3584 1784 3584 
Q 2172 3584 2448 3432 
Q 2725 3281 2906 2969 
z
M 947 1747 
Q 947 1113 1208 752 
Q 1469 391 1925 391 
Q 2381 391 2643 752 
Q 2906 1113 2906 1747 
Q 2906 2381 2643 2742 
Q 2381 3103 1925 3103 
Q 1469 3103 1208 2742 
Q 947 2381 947 1747 
z
" transform="scale(0.015625)"/>
      <path id="DejaVuSans-76" d="M 191 3500 
L 800 3500 
L 1894 563 
L 2988 3500 
L 3597 3500 
L 2284 0 
L 1503 0 
L 191 3500 
z
" transform="scale(0.015625)"/>
      <path id="DejaVuSans-6d" d="M 3328 2828 
Q 3544 3216 3844 3400 
Q 4144 3584 4550 3584 
Q 5097 3584 5394 3201 
Q 5691 2819 5691 2113 
L 5691 0 
L 5113 0 
L 5113 2094 
Q 5113 2597 4934 2840 
Q 4756 3084 4391 3084 
Q 3944 3084 3684 2787 
Q 3425 2491 3425 1978 
L 3425 0 
L 2847 0 
L 2847 2094 
Q 2847 2600 2669 2842 
Q 2491 3084 2119 3084 
Q 1678 3084 1418 2786 
Q 1159 2488 1159 1978 
L 1159 0 
L 581 0 
L 581 3500 
L 1159 3500 
L 1159 2956 
Q 1356 3278 1631 3431 
Q 1906 3584 2284 3584 
Q 2666 3584 2933 3390 
Q 3200 3197 3328 2828 
z
" transform="scale(0.015625)"/>
     </defs>
     <use xlink:href="#DejaVuSans-42"/>
     <use xlink:href="#DejaVuSans-6f" transform="translate(68.603516 0)"/>
     <use xlink:href="#DejaVuSans-74" transform="translate(129.785156 0)"/>
     <use xlink:href="#DejaVuSans-68" transform="translate(168.994141 0)"/>
     <use xlink:href="#DejaVuSans-20" transform="translate(232.373047 0)"/>
     <use xlink:href="#DejaVuSans-73" transform="translate(264.160156 0)"/>
     <use xlink:href="#DejaVuSans-65" transform="translate(316.259766 0)"/>
     <use xlink:href="#DejaVuSans-72" transform="translate(377.783203 0)"/>
     <use xlink:href="#DejaVuSans-69" transform="translate(418.896484 0)"/>
     <use xlink:href="#DejaVuSans-65" transform="translate(446.679688 0)"/>
     <use xlink:href="#DejaVuSans-73" transform="translate(508.203125 0)"/>
     <use xlink:href="#DejaVuSans-20" transform="translate(560.302734 0)"/>
     <use xlink:href="#DejaVuSans-6a" transform="translate(592.089844 0)"/>
     <use xlink:href="#DejaVuSans-75" transform="translate(619.873047 0)"/>
     <use xlink:href="#DejaVuSans-73" transform="translate(683.251953 0)"/>
     <use xlink:href="#DejaVuSans-74" transform="translate(735.351562 0)"/>
     <use xlink:href="#DejaVuSans-20" transform="translate(774.560547 0)"/>
     <use xlink:href="#DejaVuSans-74" transform="translate(806.347656 0)"/>
     <use xlink:href="#DejaVuSans-72" transform="translate(845.556641 0)"/>
     <use xlink:href="#DejaVuSans-65" transform="translate(884.419922 0)"/>
     <use xlink:href="#DejaVuSans-6e" transform="translate(945.943359 0)"/>
     <use xlink:href="#DejaVuSans-64" transform="translate(1009.322266 0)"/>
     <use xlink:href="#DejaVuSans-20" transform="translate(1072.798828 0)"/>
     <use xlink:href="#DejaVuSans-6f" transform="translate(1104.585938 0)"/>
     <use xlink:href="#DejaVuSans-76" transform="translate(1165.767578 0)"/>
     <use xlink:href="#DejaVuSans-65" transform="translate(1224.947266 0)"/>
     <use xlink:href="#DejaVuSans-72" transform="translate(1286.470703 0)"/>
     <use xlink:href="#DejaVuSans-20" transform="translate(1327.583984 0)"/>
     <use xlink:href="#DejaVuSans-74" transform="translate(1359.371094 0)"/>
     <use xlink:href="#DejaVuSans-69" transform="translate(1398.580078 0)"/>
     <use xlink:href="#DejaVuSans-6d" transform="translate(1426.363281 0)"/>
     <use xlink:href="#DejaVuSans-65" transform="translate(1523.775391 0)"/>
    </g>
   </g>
  </g>
  <g id="axes_2">
   <g id="patch_7">
    <path d="M 364.346667 267.64 
L 605.513333 267.64 
L 605.513333 73.464 
L 364.346667 73.464 
z
" style="fill: #ffffff"/>
   </g>
   <g id="PathCollection_1">
    <defs>
     <path id="m30781225c1" d="M 0 2.345208 
C 0.621956 2.345208 1.218523 2.098102 1.658312 1.658312 
C 2.098102 1.218523 2.345208 0.621956 2.345208 0 
C 2.345208 -0.621956 2.098102 -1.218523 1.658312 -1.658312 
C 1.218523 -2.098102 0.621956 -2.345208 0 -2.345208 
C -0.621956 -2.345208 -1.218523 -2.098102 -1.658312 -1.658312 
C -2.098102 -1.218523 -2.345208 -0.621956 -2.345208 0 
C -2.345208 0.621956 -2.098102 1.218523 -1.658312 1.658312 
C -1.218523 2.098102 -0.621956 2.345208 0 2.345208 
z
" style="stroke: #555555"/>
    </defs>
    <g clip-path="url(#p101a0a12cd)">
     <use xlink:href="#m30781225c1" x="375.308788" y="123.833628" style="fill: #555555; stroke: #555555"/>
     <use xlink:href="#m30781225c1" x="383.61539" y="102.885822" style="fill: #555555; stroke: #555555"/>
     <use xlink:href="#m30781225c1" x="383.219979" y="82.290182" style="fill: #555555; stroke: #555555"/>
     <use xlink:href="#m30781225c1" x="382.388961" y="141.374318" style="fill: #555555; stroke: #555555"/>
     <use xlink:href="#m30781225c1" x="392.079306" y="99.400042" style="fill: #555555; stroke: #555555"/>
     <use xlink:href="#m30781225c1" x="392.04289" y="117.281996" style="fill: #555555; stroke: #555555"/>
     <use xlink:href="#m30781225c1" x="407.890528" y="135.559544" style="fill: #555555; stroke: #555555"/>
     <use xlink:href="#m30781225c1" x="426.020463" y="89.108076" style="fill: #555555; stroke: #555555"/>
     <use xlink:href="#m30781225c1" x="413.032526" y="116.465811" style="fill: #555555; stroke: #555555"/>
     <use xlink:href="#m30781225c1" x="417.082257" y="157.584466" style="fill: #555555; stroke: #555555"/>
     <use xlink:href="#m30781225c1" x="433.51503" y="137.157712" style="fill: #555555; stroke: #555555"/>
     <use xlink:href="#m30781225c1" x="437.517904" y="131.409536" style="fill: #555555; stroke: #555555"/>
     <use xlink:href="#m30781225c1" x="440.33587" y="149.775488" style="fill: #555555; stroke: #555555"/>
     <use xlink:href="#m30781225c1" x="435.311521" y="136.998034" style="fill: #555555; stroke: #555555"/>
     <use xlink:href="#m30781225c1" x="449.653762" y="155.058782" style="fill: #555555; stroke: #555555"/>
     <use xlink:href="#m30781225c1" x="462.229791" y="144.905092" style="fill: #555555; stroke: #555555"/>
     <use xlink:href="#m30781225c1" x="447.171364" y="134.037855" style="fill: #555555; stroke: #555555"/>
     <use xlink:href="#m30781225c1" x="461.367464" y="178.060076" style="fill: #555555; stroke: #555555"/>
     <use xlink:href="#m30781225c1" x="452.266793" y="165.147399" style="fill: #555555; stroke: #555555"/>
     <use xlink:href="#m30781225c1" x="463.714378" y="181.629611" style="fill: #555555; stroke: #555555"/>
     <use xlink:href="#m30781225c1" x="463.525781" y="174.199771" style="fill: #555555; stroke: #555555"/>
     <use xlink:href="#m30781225c1" x="484.920698" y="203.00906" style="fill: #555555; stroke: #555555"/>
     <use xlink:href="#m30781225c1" x="479.93161" y="195.249804" style="fill: #555555; stroke: #555555"/>
     <use xlink:href="#m30781225c1" x="500.64735" y="191.766627" style="fill: #555555; stroke: #555555"/>
     <use xlink:href="#m30781225c1" x="504.8346" y="174.742006" style="fill: #555555; stroke: #555555"/>
     <use xlink:href="#m30781225c1" x="506.730683" y="173.858244" style="fill: #555555; stroke: #555555"/>
     <use xlink:href="#m30781225c1" x="488.769805" y="224.625274" style="fill: #555555; stroke: #555555"/>
     <use xlink:href="#m30781225c1" x="513.878108" y="218.36896" style="fill: #555555; stroke: #555555"/>
     <use xlink:href="#m30781225c1" x="524.111038" y="194.751312" style="fill: #555555; stroke: #555555"/>
     <use xlink:href="#m30781225c1" x="531.060894" y="248.763122" style="fill: #555555; stroke: #555555"/>
     <use xlink:href="#m30781225c1" x="519.962299" y="223.477098" style="fill: #555555; stroke: #555555"/>
     <use xlink:href="#m30781225c1" x="535.815859" y="220.321544" style="fill: #555555; stroke: #555555"/>
     <use xlink:href="#m30781225c1" x="536.14146" y="198.363518" style="fill: #555555; stroke: #555555"/>
     <use xlink:href="#m30781225c1" x="543.170017" y="212.965611" style="fill: #555555; stroke: #555555"/>
     <use xlink:href="#m30781225c1" x="567.195256" y="236.10905" style="fill: #555555; stroke: #555555"/>
     <use xlink:href="#m30781225c1" x="553.847286" y="240.700434" style="fill: #555555; stroke: #555555"/>
     <use xlink:href="#m30781225c1" x="566.92778" y="242.253064" style="fill: #555555; stroke: #555555"/>
     <use xlink:href="#m30781225c1" x="581.426938" y="212.31645" style="fill: #555555; stroke: #555555"/>
     <use xlink:href="#m30781225c1" x="572.082489" y="253.244986" style="fill: #555555; stroke: #555555"/>
     <use xlink:href="#m30781225c1" x="582.132527" y="254.684163" style="fill: #555555; stroke: #555555"/>
     <use xlink:href="#m30781225c1" x="589.685807" y="246.004651" style="fill: #555555; stroke: #555555"/>
     <use xlink:href="#m30781225c1" x="594.551212" y="258.813818" style="fill: #555555; stroke: #555555"/>
    </g>
   </g>
   <g id="matplotlib.axis_3">
    <g id="xtick_5">
     <g id="line2d_13">
      <g>
       <use xlink:href="#m37588d2e22" x="395.291951" y="267.64" style="stroke: #000000; stroke-width: 0.8"/>
      </g>
     </g>
     <g id="text_15">
      <!-- 10 -->
      <g transform="translate(388.929451 282.238437) scale(0.1 -0.1)">
       <use xlink:href="#DejaVuSans-31"/>
       <use xlink:href="#DejaVuSans-30" transform="translate(63.623047 0)"/>
      </g>
     </g>
    </g>
    <g id="xtick_6">
     <g id="line2d_14">
      <g>
       <use xlink:href="#m37588d2e22" x="428.617721" y="267.64" style="stroke: #000000; stroke-width: 0.8"/>
      </g>
     </g>
     <g id="text_16">
      <!-- 15 -->
      <g transform="translate(422.255221 282.238437) scale(0.1 -0.1)">
       <use xlink:href="#DejaVuSans-31"/>
       <use xlink:href="#DejaVuSans-35" transform="translate(63.623047 0)"/>
      </g>
     </g>
    </g>
    <g id="xtick_7">
     <g id="line2d_15">
      <g>
       <use xlink:href="#m37588d2e22" x="461.943491" y="267.64" style="stroke: #000000; stroke-width: 0.8"/>
      </g>
     </g>
     <g id="text_17">
      <!-- 20 -->
      <g transform="translate(455.580991 282.238437) scale(0.1 -0.1)">
       <use xlink:href="#DejaVuSans-32"/>
       <use xlink:href="#DejaVuSans-30" transform="translate(63.623047 0)"/>
      </g>
     </g>
    </g>
    <g id="xtick_8">
     <g id="line2d_16">
      <g>
       <use xlink:href="#m37588d2e22" x="495.26926" y="267.64" style="stroke: #000000; stroke-width: 0.8"/>
      </g>
     </g>
     <g id="text_18">
      <!-- 25 -->
      <g transform="translate(488.90676 282.238437) scale(0.1 -0.1)">
       <use xlink:href="#DejaVuSans-32"/>
       <use xlink:href="#DejaVuSans-35" transform="translate(63.623047 0)"/>
      </g>
     </g>
    </g>
    <g id="xtick_9">
     <g id="line2d_17">
      <g>
       <use xlink:href="#m37588d2e22" x="528.59503" y="267.64" style="stroke: #000000; stroke-width: 0.8"/>
      </g>
     </g>
     <g id="text_19">
      <!-- 30 -->
      <g transform="translate(522.23253 282.238437) scale(0.1 -0.1)">
       <use xlink:href="#DejaVuSans-33"/>
       <use xlink:href="#DejaVuSans-30" transform="translate(63.623047 0)"/>
      </g>
     </g>
    </g>
    <g id="xtick_10">
     <g id="line2d_18">
      <g>
       <use xlink:href="#m37588d2e22" x="561.9208" y="267.64" style="stroke: #000000; stroke-width: 0.8"/>
      </g>
     </g>
     <g id="text_20">
      <!-- 35 -->
      <g transform="translate(555.5583 282.238437) scale(0.1 -0.1)">
       <use xlink:href="#DejaVuSans-33"/>
       <use xlink:href="#DejaVuSans-35" transform="translate(63.623047 0)"/>
      </g>
     </g>
    </g>
    <g id="xtick_11">
     <g id="line2d_19">
      <g>
       <use xlink:href="#m37588d2e22" x="595.24657" y="267.64" style="stroke: #000000; stroke-width: 0.8"/>
      </g>
     </g>
     <g id="text_21">
      <!-- 40 -->
      <g transform="translate(588.88407 282.238437) scale(0.1 -0.1)">
       <use xlink:href="#DejaVuSans-34"/>
       <use xlink:href="#DejaVuSans-30" transform="translate(63.623047 0)"/>
      </g>
     </g>
    </g>
    <g id="text_22">
     <!-- 3PA rate (%) -->
     <g transform="translate(453.645625 295.916562) scale(0.1 -0.1)">
      <use xlink:href="#DejaVuSans-33"/>
      <use xlink:href="#DejaVuSans-50" transform="translate(63.623047 0)"/>
      <use xlink:href="#DejaVuSans-41" transform="translate(117.550781 0)"/>
      <use xlink:href="#DejaVuSans-20" transform="translate(185.958984 0)"/>
      <use xlink:href="#DejaVuSans-72" transform="translate(217.746094 0)"/>
      <use xlink:href="#DejaVuSans-61" transform="translate(258.859375 0)"/>
      <use xlink:href="#DejaVuSans-74" transform="translate(320.138672 0)"/>
      <use xlink:href="#DejaVuSans-65" transform="translate(359.347656 0)"/>
      <use xlink:href="#DejaVuSans-20" transform="translate(420.871094 0)"/>
      <use xlink:href="#DejaVuSans-28" transform="translate(452.658203 0)"/>
      <use xlink:href="#DejaVuSans-25" transform="translate(491.671875 0)"/>
      <use xlink:href="#DejaVuSans-29" transform="translate(586.691406 0)"/>
     </g>
    </g>
   </g>
   <g id="matplotlib.axis_4">
    <g id="ytick_8">
     <g id="line2d_20">
      <g>
       <use xlink:href="#m8a1114d9a4" x="364.346667" y="243.200486" style="stroke: #000000; stroke-width: 0.8"/>
      </g>
     </g>
     <g id="text_23">
      <!-- 56 -->
      <g transform="translate(344.621667 246.999705) scale(0.1 -0.1)">
       <defs>
        <path id="DejaVuSans-36" d="M 2113 2584 
Q 1688 2584 1439 2293 
Q 1191 2003 1191 1497 
Q 1191 994 1439 701 
Q 1688 409 2113 409 
Q 2538 409 2786 701 
Q 3034 994 3034 1497 
Q 3034 2003 2786 2293 
Q 2538 2584 2113 2584 
z
M 3366 4563 
L 3366 3988 
Q 3128 4100 2886 4159 
Q 2644 4219 2406 4219 
Q 1781 4219 1451 3797 
Q 1122 3375 1075 2522 
Q 1259 2794 1537 2939 
Q 1816 3084 2150 3084 
Q 2853 3084 3261 2657 
Q 3669 2231 3669 1497 
Q 3669 778 3244 343 
Q 2819 -91 2113 -91 
Q 1303 -91 875 529 
Q 447 1150 447 2328 
Q 447 3434 972 4092 
Q 1497 4750 2381 4750 
Q 2619 4750 2861 4703 
Q 3103 4656 3366 4563 
z
" transform="scale(0.015625)"/>
       </defs>
       <use xlink:href="#DejaVuSans-35"/>
       <use xlink:href="#DejaVuSans-36" transform="translate(63.623047 0)"/>
      </g>
     </g>
    </g>
    <g id="ytick_9">
     <g id="line2d_21">
      <g>
       <use xlink:href="#m8a1114d9a4" x="364.346667" y="211.495859" style="stroke: #000000; stroke-width: 0.8"/>
      </g>
     </g>
     <g id="text_24">
      <!-- 58 -->
      <g transform="translate(344.621667 215.295078) scale(0.1 -0.1)">
       <defs>
        <path id="DejaVuSans-38" d="M 2034 2216 
Q 1584 2216 1326 1975 
Q 1069 1734 1069 1313 
Q 1069 891 1326 650 
Q 1584 409 2034 409 
Q 2484 409 2743 651 
Q 3003 894 3003 1313 
Q 3003 1734 2745 1975 
Q 2488 2216 2034 2216 
z
M 1403 2484 
Q 997 2584 770 2862 
Q 544 3141 544 3541 
Q 544 4100 942 4425 
Q 1341 4750 2034 4750 
Q 2731 4750 3128 4425 
Q 3525 4100 3525 3541 
Q 3525 3141 3298 2862 
Q 3072 2584 2669 2484 
Q 3125 2378 3379 2068 
Q 3634 1759 3634 1313 
Q 3634 634 3220 271 
Q 2806 -91 2034 -91 
Q 1263 -91 848 271 
Q 434 634 434 1313 
Q 434 1759 690 2068 
Q 947 2378 1403 2484 
z
M 1172 3481 
Q 1172 3119 1398 2916 
Q 1625 2713 2034 2713 
Q 2441 2713 2670 2916 
Q 2900 3119 2900 3481 
Q 2900 3844 2670 4047 
Q 2441 4250 2034 4250 
Q 1625 4250 1398 4047 
Q 1172 3844 1172 3481 
z
" transform="scale(0.015625)"/>
       </defs>
       <use xlink:href="#DejaVuSans-35"/>
       <use xlink:href="#DejaVuSans-38" transform="translate(63.623047 0)"/>
      </g>
     </g>
    </g>
    <g id="ytick_10">
     <g id="line2d_22">
      <g>
       <use xlink:href="#m8a1114d9a4" x="364.346667" y="179.791232" style="stroke: #000000; stroke-width: 0.8"/>
      </g>
     </g>
     <g id="text_25">
      <!-- 60 -->
      <g transform="translate(344.621667 183.590451) scale(0.1 -0.1)">
       <use xlink:href="#DejaVuSans-36"/>
       <use xlink:href="#DejaVuSans-30" transform="translate(63.623047 0)"/>
      </g>
     </g>
    </g>
    <g id="ytick_11">
     <g id="line2d_23">
      <g>
       <use xlink:href="#m8a1114d9a4" x="364.346667" y="148.086605" style="stroke: #000000; stroke-width: 0.8"/>
      </g>
     </g>
     <g id="text_26">
      <!-- 62 -->
      <g transform="translate(344.621667 151.885824) scale(0.1 -0.1)">
       <use xlink:href="#DejaVuSans-36"/>
       <use xlink:href="#DejaVuSans-32" transform="translate(63.623047 0)"/>
      </g>
     </g>
    </g>
    <g id="ytick_12">
     <g id="line2d_24">
      <g>
       <use xlink:href="#m8a1114d9a4" x="364.346667" y="116.381978" style="stroke: #000000; stroke-width: 0.8"/>
      </g>
     </g>
     <g id="text_27">
      <!-- 64 -->
      <g transform="translate(344.621667 120.181197) scale(0.1 -0.1)">
       <use xlink:href="#DejaVuSans-36"/>
       <use xlink:href="#DejaVuSans-34" transform="translate(63.623047 0)"/>
      </g>
     </g>
    </g>
    <g id="ytick_13">
     <g id="line2d_25">
      <g>
       <use xlink:href="#m8a1114d9a4" x="364.346667" y="84.677352" style="stroke: #000000; stroke-width: 0.8"/>
      </g>
     </g>
     <g id="text_28">
      <!-- 66 -->
      <g transform="translate(344.621667 88.47657) scale(0.1 -0.1)">
       <use xlink:href="#DejaVuSans-36"/>
       <use xlink:href="#DejaVuSans-36" transform="translate(63.623047 0)"/>
      </g>
     </g>
    </g>
    <g id="text_29">
     <!-- home win % -->
     <g transform="translate(338.541979 201.302781) rotate(-90) scale(0.1 -0.1)">
      <defs>
       <path id="DejaVuSans-77" d="M 269 3500 
L 844 3500 
L 1563 769 
L 2278 3500 
L 2956 3500 
L 3675 769 
L 4391 3500 
L 4966 3500 
L 4050 0 
L 3372 0 
L 2619 2869 
L 1863 0 
L 1184 0 
L 269 3500 
z
" transform="scale(0.015625)"/>
      </defs>
      <use xlink:href="#DejaVuSans-68"/>
      <use xlink:href="#DejaVuSans-6f" transform="translate(63.378906 0)"/>
      <use xlink:href="#DejaVuSans-6d" transform="translate(124.560547 0)"/>
      <use xlink:href="#DejaVuSans-65" transform="translate(221.972656 0)"/>
      <use xlink:href="#DejaVuSans-20" transform="translate(283.496094 0)"/>
      <use xlink:href="#DejaVuSans-77" transform="translate(315.283203 0)"/>
      <use xlink:href="#DejaVuSans-69" transform="translate(397.070312 0)"/>
      <use xlink:href="#DejaVuSans-6e" transform="translate(424.853516 0)"/>
      <use xlink:href="#DejaVuSans-20" transform="translate(488.232422 0)"/>
      <use xlink:href="#DejaVuSans-25" transform="translate(520.019531 0)"/>
     </g>
    </g>
   </g>
   <g id="line2d_26">
    <path d="M 375.308788 103.334609 
L 594.551212 258.51491 
" clip-path="url(#p101a0a12cd)" style="fill: none; stroke: #000000; stroke-width: 1.5; stroke-linecap: square"/>
   </g>
   <g id="patch_8">
    <path d="M 364.346667 267.64 
L 364.346667 73.464 
" style="fill: none; stroke: #000000; stroke-width: 0.8; stroke-linejoin: miter; stroke-linecap: square"/>
   </g>
   <g id="patch_9">
    <path d="M 605.513333 267.64 
L 605.513333 73.464 
" style="fill: none; stroke: #000000; stroke-width: 0.8; stroke-linejoin: miter; stroke-linecap: square"/>
   </g>
   <g id="patch_10">
    <path d="M 364.346667 267.64 
L 605.513333 267.64 
" style="fill: none; stroke: #000000; stroke-width: 0.8; stroke-linejoin: miter; stroke-linecap: square"/>
   </g>
   <g id="patch_11">
    <path d="M 364.346667 73.464 
L 605.513333 73.464 
" style="fill: none; stroke: #000000; stroke-width: 0.8; stroke-linejoin: miter; stroke-linecap: square"/>
   </g>
   <g id="text_30">
    <!-- RAW correlation looks strong -->
    <g transform="translate(409.46125 55.706297) scale(0.105 -0.105)">
     <defs>
      <path id="DejaVuSans-52" d="M 2841 2188 
Q 3044 2119 3236 1894 
Q 3428 1669 3622 1275 
L 4263 0 
L 3584 0 
L 2988 1197 
Q 2756 1666 2539 1819 
Q 2322 1972 1947 1972 
L 1259 1972 
L 1259 0 
L 628 0 
L 628 4666 
L 2053 4666 
Q 2853 4666 3247 4331 
Q 3641 3997 3641 3322 
Q 3641 2881 3436 2590 
Q 3231 2300 2841 2188 
z
M 1259 4147 
L 1259 2491 
L 2053 2491 
Q 2509 2491 2742 2702 
Q 2975 2913 2975 3322 
Q 2975 3731 2742 3939 
Q 2509 4147 2053 4147 
L 1259 4147 
z
" transform="scale(0.015625)"/>
      <path id="DejaVuSans-57" d="M 213 4666 
L 850 4666 
L 1831 722 
L 2809 4666 
L 3519 4666 
L 4500 722 
L 5478 4666 
L 6119 4666 
L 4947 0 
L 4153 0 
L 3169 4050 
L 2175 0 
L 1381 0 
L 213 4666 
z
" transform="scale(0.015625)"/>
      <path id="DejaVuSans-63" d="M 3122 3366 
L 3122 2828 
Q 2878 2963 2633 3030 
Q 2388 3097 2138 3097 
Q 1578 3097 1268 2742 
Q 959 2388 959 1747 
Q 959 1106 1268 751 
Q 1578 397 2138 397 
Q 2388 397 2633 464 
Q 2878 531 3122 666 
L 3122 134 
Q 2881 22 2623 -34 
Q 2366 -91 2075 -91 
Q 1284 -91 818 406 
Q 353 903 353 1747 
Q 353 2603 823 3093 
Q 1294 3584 2113 3584 
Q 2378 3584 2631 3529 
Q 2884 3475 3122 3366 
z
" transform="scale(0.015625)"/>
      <path id="DejaVuSans-6c" d="M 603 4863 
L 1178 4863 
L 1178 0 
L 603 0 
L 603 4863 
z
" transform="scale(0.015625)"/>
      <path id="DejaVuSans-6b" d="M 581 4863 
L 1159 4863 
L 1159 1991 
L 2875 3500 
L 3609 3500 
L 1753 1863 
L 3688 0 
L 2938 0 
L 1159 1709 
L 1159 0 
L 581 0 
L 581 4863 
z
" transform="scale(0.015625)"/>
      <path id="DejaVuSans-67" d="M 2906 1791 
Q 2906 2416 2648 2759 
Q 2391 3103 1925 3103 
Q 1463 3103 1205 2759 
Q 947 2416 947 1791 
Q 947 1169 1205 825 
Q 1463 481 1925 481 
Q 2391 481 2648 825 
Q 2906 1169 2906 1791 
z
M 3481 434 
Q 3481 -459 3084 -895 
Q 2688 -1331 1869 -1331 
Q 1566 -1331 1297 -1286 
Q 1028 -1241 775 -1147 
L 775 -588 
Q 1028 -725 1275 -790 
Q 1522 -856 1778 -856 
Q 2344 -856 2625 -561 
Q 2906 -266 2906 331 
L 2906 616 
Q 2728 306 2450 153 
Q 2172 0 1784 0 
Q 1141 0 747 490 
Q 353 981 353 1791 
Q 353 2603 747 3093 
Q 1141 3584 1784 3584 
Q 2172 3584 2450 3431 
Q 2728 3278 2906 2969 
L 2906 3500 
L 3481 3500 
L 3481 434 
z
" transform="scale(0.015625)"/>
     </defs>
     <use xlink:href="#DejaVuSans-52"/>
     <use xlink:href="#DejaVuSans-41" transform="translate(65.482422 0)"/>
     <use xlink:href="#DejaVuSans-57" transform="translate(128.390625 0)"/>
     <use xlink:href="#DejaVuSans-20" transform="translate(227.267578 0)"/>
     <use xlink:href="#DejaVuSans-63" transform="translate(259.054688 0)"/>
     <use xlink:href="#DejaVuSans-6f" transform="translate(314.035156 0)"/>
     <use xlink:href="#DejaVuSans-72" transform="translate(375.216797 0)"/>
     <use xlink:href="#DejaVuSans-72" transform="translate(414.580078 0)"/>
     <use xlink:href="#DejaVuSans-65" transform="translate(453.443359 0)"/>
     <use xlink:href="#DejaVuSans-6c" transform="translate(514.966797 0)"/>
     <use xlink:href="#DejaVuSans-61" transform="translate(542.75 0)"/>
     <use xlink:href="#DejaVuSans-74" transform="translate(604.029297 0)"/>
     <use xlink:href="#DejaVuSans-69" transform="translate(643.238281 0)"/>
     <use xlink:href="#DejaVuSans-6f" transform="translate(671.021484 0)"/>
     <use xlink:href="#DejaVuSans-6e" transform="translate(732.203125 0)"/>
     <use xlink:href="#DejaVuSans-20" transform="translate(795.582031 0)"/>
     <use xlink:href="#DejaVuSans-6c" transform="translate(827.369141 0)"/>
     <use xlink:href="#DejaVuSans-6f" transform="translate(855.152344 0)"/>
     <use xlink:href="#DejaVuSans-6f" transform="translate(916.333984 0)"/>
     <use xlink:href="#DejaVuSans-6b" transform="translate(977.515625 0)"/>
     <use xlink:href="#DejaVuSans-73" transform="translate(1035.425781 0)"/>
     <use xlink:href="#DejaVuSans-20" transform="translate(1087.525391 0)"/>
     <use xlink:href="#DejaVuSans-73" transform="translate(1119.3125 0)"/>
     <use xlink:href="#DejaVuSans-74" transform="translate(1171.412109 0)"/>
     <use xlink:href="#DejaVuSans-72" transform="translate(1210.621094 0)"/>
     <use xlink:href="#DejaVuSans-6f" transform="translate(1249.484375 0)"/>
     <use xlink:href="#DejaVuSans-6e" transform="translate(1310.666016 0)"/>
     <use xlink:href="#DejaVuSans-67" transform="translate(1374.044922 0)"/>
    </g>
    <!-- r = -0.92 -->
    <g transform="translate(461.451836 67.464) scale(0.105 -0.105)">
     <defs>
      <path id="DejaVuSans-3d" d="M 678 2906 
L 4684 2906 
L 4684 2381 
L 678 2381 
L 678 2906 
z
M 678 1631 
L 4684 1631 
L 4684 1100 
L 678 1100 
L 678 1631 
z
" transform="scale(0.015625)"/>
      <path id="DejaVuSans-2d" d="M 313 2009 
L 1997 2009 
L 1997 1497 
L 313 1497 
L 313 2009 
z
" transform="scale(0.015625)"/>
      <path id="DejaVuSans-2e" d="M 684 794 
L 1344 794 
L 1344 0 
L 684 0 
L 684 794 
z
" transform="scale(0.015625)"/>
     </defs>
     <use xlink:href="#DejaVuSans-72"/>
     <use xlink:href="#DejaVuSans-20" transform="translate(41.113281 0)"/>
     <use xlink:href="#DejaVuSans-3d" transform="translate(72.900391 0)"/>
     <use xlink:href="#DejaVuSans-20" transform="translate(156.689453 0)"/>
     <use xlink:href="#DejaVuSans-2d" transform="translate(188.476562 0)"/>
     <use xlink:href="#DejaVuSans-30" transform="translate(224.560547 0)"/>
     <use xlink:href="#DejaVuSans-2e" transform="translate(288.183594 0)"/>
     <use xlink:href="#DejaVuSans-39" transform="translate(319.970703 0)"/>
     <use xlink:href="#DejaVuSans-32" transform="translate(383.59375 0)"/>
    </g>
   </g>
  </g>
  <g id="axes_3">
   <g id="patch_12">
    <path d="M 684.033333 267.64 
L 925.2 267.64 
L 925.2 73.464 
L 684.033333 73.464 
z
" style="fill: #ffffff"/>
   </g>
   <g id="PathCollection_2">
    <g clip-path="url(#pa9033c8173)">
     <use xlink:href="#m30781225c1" x="836.833352" y="228.254099" style="fill: #555555; stroke: #555555"/>
     <use xlink:href="#m30781225c1" x="853.979434" y="169.618215" style="fill: #555555; stroke: #555555"/>
     <use xlink:href="#m30781225c1" x="821.241752" y="111.814644" style="fill: #555555; stroke: #555555"/>
     <use xlink:href="#m30781225c1" x="786.006979" y="242.327202" style="fill: #555555; stroke: #555555"/>
     <use xlink:href="#m30781225c1" x="811.085282" y="133.997109" style="fill: #555555; stroke: #555555"/>
     <use xlink:href="#m30781225c1" x="780.405516" y="167.131942" style="fill: #555555; stroke: #555555"/>
     <use xlink:href="#m30781225c1" x="840.780133" y="201.201725" style="fill: #555555; stroke: #555555"/>
     <use xlink:href="#m30781225c1" x="914.237879" y="82.290182" style="fill: #555555; stroke: #555555"/>
     <use xlink:href="#m30781225c1" x="809.314303" y="137.820188" style="fill: #555555; stroke: #555555"/>
     <use xlink:href="#m30781225c1" x="802.058126" y="225.872915" style="fill: #555555; stroke: #555555"/>
     <use xlink:href="#m30781225c1" x="865.786994" y="168.46849" style="fill: #555555; stroke: #555555"/>
     <use xlink:href="#m30781225c1" x="858.262217" y="145.755592" style="fill: #555555; stroke: #555555"/>
     <use xlink:href="#m30781225c1" x="843.945026" y="180.034311" style="fill: #555555; stroke: #555555"/>
     <use xlink:href="#m30781225c1" x="784.672234" y="140.708334" style="fill: #555555; stroke: #555555"/>
     <use xlink:href="#m30781225c1" x="836.417249" y="174.26573" style="fill: #555555; stroke: #555555"/>
     <use xlink:href="#m30781225c1" x="878.037565" y="141.140788" style="fill: #555555; stroke: #555555"/>
     <use xlink:href="#m30781225c1" x="761.245032" y="106.329441" style="fill: #555555; stroke: #555555"/>
     <use xlink:href="#m30781225c1" x="812.152301" y="201.244488" style="fill: #555555; stroke: #555555"/>
     <use xlink:href="#m30781225c1" x="729.512241" y="161.598923" style="fill: #555555; stroke: #555555"/>
     <use xlink:href="#m30781225c1" x="764.66382" y="191.425588" style="fill: #555555; stroke: #555555"/>
     <use xlink:href="#m30781225c1" x="733.111687" y="164.738226" style="fill: #555555; stroke: #555555"/>
     <use xlink:href="#m30781225c1" x="825.285743" y="223.698852" style="fill: #555555; stroke: #555555"/>
     <use xlink:href="#m30781225c1" x="766.215085" y="196.232943" style="fill: #555555; stroke: #555555"/>
     <use xlink:href="#m30781225c1" x="854.495803" y="178.87317" style="fill: #555555; stroke: #555555"/>
     <use xlink:href="#m30781225c1" x="848.02795" y="129.509389" style="fill: #555555; stroke: #555555"/>
     <use xlink:href="#m30781225c1" x="828.426117" y="118.293103" style="fill: #555555; stroke: #555555"/>
     <use xlink:href="#m30781225c1" x="694.995455" y="229.148913" style="fill: #555555; stroke: #555555"/>
     <use xlink:href="#m30781225c1" x="808.456274" y="205.235076" style="fill: #555555; stroke: #555555"/>
     <use xlink:href="#m30781225c1" x="836.644917" y="140.289257" style="fill: #555555; stroke: #555555"/>
     <use xlink:href="#m30781225c1" x="846.01353" y="258.813818" style="fill: #555555; stroke: #555555"/>
     <use xlink:href="#m30781225c1" x="751.92049" y="189.924939" style="fill: #555555; stroke: #555555"/>
     <use xlink:href="#m30781225c1" x="812.329054" y="173.339474" style="fill: #555555; stroke: #555555"/>
     <use xlink:href="#m30781225c1" x="783.724532" y="112.316023" style="fill: #555555; stroke: #555555"/>
     <use xlink:href="#m30781225c1" x="793.544295" y="137.699194" style="fill: #555555; stroke: #555555"/>
     <use xlink:href="#m30781225c1" x="900.796517" y="183.269081" style="fill: #555555; stroke: #555555"/>
     <use xlink:href="#m30781225c1" x="793.80907" y="184.992823" style="fill: #555555; stroke: #555555"/>
     <use xlink:href="#m30781225c1" x="838.321202" y="179.534735" style="fill: #555555; stroke: #555555"/>
     <use xlink:href="#m30781225c1" x="890.965739" y="99.654594" style="fill: #555555; stroke: #555555"/>
     <use xlink:href="#m30781225c1" x="806.928237" y="187.257993" style="fill: #555555; stroke: #555555"/>
     <use xlink:href="#m30781225c1" x="834.068456" y="181.531769" style="fill: #555555; stroke: #555555"/>
     <use xlink:href="#m30781225c1" x="846.896165" y="151.890917" style="fill: #555555; stroke: #555555"/>
     <use xlink:href="#m30781225c1" x="844.315795" y="173.036665" style="fill: #555555; stroke: #555555"/>
    </g>
   </g>
   <g id="matplotlib.axis_5">
    <g id="xtick_12">
     <g id="line2d_27">
      <g>
       <use xlink:href="#m37588d2e22" x="702.756496" y="267.64" style="stroke: #000000; stroke-width: 0.8"/>
      </g>
     </g>
     <g id="text_31">
      <!-- −3 -->
      <g transform="translate(695.385402 282.238437) scale(0.1 -0.1)">
       <defs>
        <path id="DejaVuSans-2212" d="M 678 2272 
L 4684 2272 
L 4684 1741 
L 678 1741 
L 678 2272 
z
" transform="scale(0.015625)"/>
       </defs>
       <use xlink:href="#DejaVuSans-2212"/>
       <use xlink:href="#DejaVuSans-33" transform="translate(83.789062 0)"/>
      </g>
     </g>
    </g>
    <g id="xtick_13">
     <g id="line2d_28">
      <g>
       <use xlink:href="#m37588d2e22" x="740.964089" y="267.64" style="stroke: #000000; stroke-width: 0.8"/>
      </g>
     </g>
     <g id="text_32">
      <!-- −2 -->
      <g transform="translate(733.592995 282.238437) scale(0.1 -0.1)">
       <use xlink:href="#DejaVuSans-2212"/>
       <use xlink:href="#DejaVuSans-32" transform="translate(83.789062 0)"/>
      </g>
     </g>
    </g>
    <g id="xtick_14">
     <g id="line2d_29">
      <g>
       <use xlink:href="#m37588d2e22" x="779.171682" y="267.64" style="stroke: #000000; stroke-width: 0.8"/>
      </g>
     </g>
     <g id="text_33">
      <!-- −1 -->
      <g transform="translate(771.800588 282.238437) scale(0.1 -0.1)">
       <use xlink:href="#DejaVuSans-2212"/>
       <use xlink:href="#DejaVuSans-31" transform="translate(83.789062 0)"/>
      </g>
     </g>
    </g>
    <g id="xtick_15">
     <g id="line2d_30">
      <g>
       <use xlink:href="#m37588d2e22" x="817.379275" y="267.64" style="stroke: #000000; stroke-width: 0.8"/>
      </g>
     </g>
     <g id="text_34">
      <!-- 0 -->
      <g transform="translate(814.198025 282.238437) scale(0.1 -0.1)">
       <use xlink:href="#DejaVuSans-30"/>
      </g>
     </g>
    </g>
    <g id="xtick_16">
     <g id="line2d_31">
      <g>
       <use xlink:href="#m37588d2e22" x="855.586868" y="267.64" style="stroke: #000000; stroke-width: 0.8"/>
      </g>
     </g>
     <g id="text_35">
      <!-- 1 -->
      <g transform="translate(852.405618 282.238437) scale(0.1 -0.1)">
       <use xlink:href="#DejaVuSans-31"/>
      </g>
     </g>
    </g>
    <g id="xtick_17">
     <g id="line2d_32">
      <g>
       <use xlink:href="#m37588d2e22" x="893.794461" y="267.64" style="stroke: #000000; stroke-width: 0.8"/>
      </g>
     </g>
     <g id="text_36">
      <!-- 2 -->
      <g transform="translate(890.613211 282.238437) scale(0.1 -0.1)">
       <use xlink:href="#DejaVuSans-32"/>
      </g>
     </g>
    </g>
    <g id="text_37">
     <!-- 3PA rate (detrended) -->
     <g transform="translate(752.258854 295.916562) scale(0.1 -0.1)">
      <use xlink:href="#DejaVuSans-33"/>
      <use xlink:href="#DejaVuSans-50" transform="translate(63.623047 0)"/>
      <use xlink:href="#DejaVuSans-41" transform="translate(117.550781 0)"/>
      <use xlink:href="#DejaVuSans-20" transform="translate(185.958984 0)"/>
      <use xlink:href="#DejaVuSans-72" transform="translate(217.746094 0)"/>
      <use xlink:href="#DejaVuSans-61" transform="translate(258.859375 0)"/>
      <use xlink:href="#DejaVuSans-74" transform="translate(320.138672 0)"/>
      <use xlink:href="#DejaVuSans-65" transform="translate(359.347656 0)"/>
      <use xlink:href="#DejaVuSans-20" transform="translate(420.871094 0)"/>
      <use xlink:href="#DejaVuSans-28" transform="translate(452.658203 0)"/>
      <use xlink:href="#DejaVuSans-64" transform="translate(491.671875 0)"/>
      <use xlink:href="#DejaVuSans-65" transform="translate(555.148438 0)"/>
      <use xlink:href="#DejaVuSans-74" transform="translate(616.671875 0)"/>
      <use xlink:href="#DejaVuSans-72" transform="translate(655.880859 0)"/>
      <use xlink:href="#DejaVuSans-65" transform="translate(694.744141 0)"/>
      <use xlink:href="#DejaVuSans-6e" transform="translate(756.267578 0)"/>
      <use xlink:href="#DejaVuSans-64" transform="translate(819.646484 0)"/>
      <use xlink:href="#DejaVuSans-65" transform="translate(883.123047 0)"/>
      <use xlink:href="#DejaVuSans-64" transform="translate(944.646484 0)"/>
      <use xlink:href="#DejaVuSans-29" transform="translate(1008.123047 0)"/>
     </g>
    </g>
   </g>
   <g id="matplotlib.axis_6">
    <g id="ytick_14">
     <g id="line2d_33">
      <g>
       <use xlink:href="#m8a1114d9a4" x="684.033333" y="244.230636" style="stroke: #000000; stroke-width: 0.8"/>
      </g>
     </g>
     <g id="text_38">
      <!-- −2 -->
      <g transform="translate(662.291146 248.029855) scale(0.1 -0.1)">
       <use xlink:href="#DejaVuSans-2212"/>
       <use xlink:href="#DejaVuSans-32" transform="translate(83.789062 0)"/>
      </g>
     </g>
    </g>
    <g id="ytick_15">
     <g id="line2d_34">
      <g>
       <use xlink:href="#m8a1114d9a4" x="684.033333" y="206.76509" style="stroke: #000000; stroke-width: 0.8"/>
      </g>
     </g>
     <g id="text_39">
      <!-- −1 -->
      <g transform="translate(662.291146 210.564309) scale(0.1 -0.1)">
       <use xlink:href="#DejaVuSans-2212"/>
       <use xlink:href="#DejaVuSans-31" transform="translate(83.789062 0)"/>
      </g>
     </g>
    </g>
    <g id="ytick_16">
     <g id="line2d_35">
      <g>
       <use xlink:href="#m8a1114d9a4" x="684.033333" y="169.299544" style="stroke: #000000; stroke-width: 0.8"/>
      </g>
     </g>
     <g id="text_40">
      <!-- 0 -->
      <g transform="translate(670.670833 173.098763) scale(0.1 -0.1)">
       <use xlink:href="#DejaVuSans-30"/>
      </g>
     </g>
    </g>
    <g id="ytick_17">
     <g id="line2d_36">
      <g>
       <use xlink:href="#m8a1114d9a4" x="684.033333" y="131.833998" style="stroke: #000000; stroke-width: 0.8"/>
      </g>
     </g>
     <g id="text_41">
      <!-- 1 -->
      <g transform="translate(670.670833 135.633217) scale(0.1 -0.1)">
       <use xlink:href="#DejaVuSans-31"/>
      </g>
     </g>
    </g>
    <g id="ytick_18">
     <g id="line2d_37">
      <g>
       <use xlink:href="#m8a1114d9a4" x="684.033333" y="94.368453" style="stroke: #000000; stroke-width: 0.8"/>
      </g>
     </g>
     <g id="text_42">
      <!-- 2 -->
      <g transform="translate(670.670833 98.167671) scale(0.1 -0.1)">
       <use xlink:href="#DejaVuSans-32"/>
      </g>
     </g>
    </g>
    <g id="text_43">
     <!-- home win % (detrended) -->
     <g transform="translate(656.211458 232.617625) rotate(-90) scale(0.1 -0.1)">
      <use xlink:href="#DejaVuSans-68"/>
      <use xlink:href="#DejaVuSans-6f" transform="translate(63.378906 0)"/>
      <use xlink:href="#DejaVuSans-6d" transform="translate(124.560547 0)"/>
      <use xlink:href="#DejaVuSans-65" transform="translate(221.972656 0)"/>
      <use xlink:href="#DejaVuSans-20" transform="translate(283.496094 0)"/>
      <use xlink:href="#DejaVuSans-77" transform="translate(315.283203 0)"/>
      <use xlink:href="#DejaVuSans-69" transform="translate(397.070312 0)"/>
      <use xlink:href="#DejaVuSans-6e" transform="translate(424.853516 0)"/>
      <use xlink:href="#DejaVuSans-20" transform="translate(488.232422 0)"/>
      <use xlink:href="#DejaVuSans-25" transform="translate(520.019531 0)"/>
      <use xlink:href="#DejaVuSans-20" transform="translate(615.039062 0)"/>
      <use xlink:href="#DejaVuSans-28" transform="translate(646.826172 0)"/>
      <use xlink:href="#DejaVuSans-64" transform="translate(685.839844 0)"/>
      <use xlink:href="#DejaVuSans-65" transform="translate(749.316406 0)"/>
      <use xlink:href="#DejaVuSans-74" transform="translate(810.839844 0)"/>
      <use xlink:href="#DejaVuSans-72" transform="translate(850.048828 0)"/>
      <use xlink:href="#DejaVuSans-65" transform="translate(888.912109 0)"/>
      <use xlink:href="#DejaVuSans-6e" transform="translate(950.435547 0)"/>
      <use xlink:href="#DejaVuSans-64" transform="translate(1013.814453 0)"/>
      <use xlink:href="#DejaVuSans-65" transform="translate(1077.291016 0)"/>
      <use xlink:href="#DejaVuSans-64" transform="translate(1138.814453 0)"/>
      <use xlink:href="#DejaVuSans-29" transform="translate(1202.291016 0)"/>
     </g>
    </g>
   </g>
   <g id="line2d_38">
    <path d="M 684.033333 169.299544 
L 925.2 169.299544 
" clip-path="url(#pa9033c8173)" style="fill: none; stroke-dasharray: 1,1.65; stroke-dashoffset: 0; stroke: #808080"/>
   </g>
   <g id="line2d_39">
    <path d="M 817.379275 267.64 
L 817.379275 73.464 
" clip-path="url(#pa9033c8173)" style="fill: none; stroke-dasharray: 1,1.65; stroke-dashoffset: 0; stroke: #808080"/>
   </g>
   <g id="patch_13">
    <path d="M 684.033333 267.64 
L 684.033333 73.464 
" style="fill: none; stroke: #000000; stroke-width: 0.8; stroke-linejoin: miter; stroke-linecap: square"/>
   </g>
   <g id="patch_14">
    <path d="M 925.2 267.64 
L 925.2 73.464 
" style="fill: none; stroke: #000000; stroke-width: 0.8; stroke-linejoin: miter; stroke-linecap: square"/>
   </g>
   <g id="patch_15">
    <path d="M 684.033333 267.64 
L 925.2 267.64 
" style="fill: none; stroke: #000000; stroke-width: 0.8; stroke-linejoin: miter; stroke-linecap: square"/>
   </g>
   <g id="patch_16">
    <path d="M 684.033333 73.464 
L 925.2 73.464 
" style="fill: none; stroke: #000000; stroke-width: 0.8; stroke-linejoin: miter; stroke-linecap: square"/>
   </g>
   <g id="text_44">
    <!-- DETRENDED: the link evaporates -->
    <g transform="translate(717.58151 55.706297) scale(0.105 -0.105)">
     <defs>
      <path id="DejaVuSans-44" d="M 1259 4147 
L 1259 519 
L 2022 519 
Q 2988 519 3436 956 
Q 3884 1394 3884 2338 
Q 3884 3275 3436 3711 
Q 2988 4147 2022 4147 
L 1259 4147 
z
M 628 4666 
L 1925 4666 
Q 3281 4666 3915 4102 
Q 4550 3538 4550 2338 
Q 4550 1131 3912 565 
Q 3275 0 1925 0 
L 628 0 
L 628 4666 
z
" transform="scale(0.015625)"/>
      <path id="DejaVuSans-45" d="M 628 4666 
L 3578 4666 
L 3578 4134 
L 1259 4134 
L 1259 2753 
L 3481 2753 
L 3481 2222 
L 1259 2222 
L 1259 531 
L 3634 531 
L 3634 0 
L 628 0 
L 628 4666 
z
" transform="scale(0.015625)"/>
      <path id="DejaVuSans-54" d="M -19 4666 
L 3928 4666 
L 3928 4134 
L 2272 4134 
L 2272 0 
L 1638 0 
L 1638 4134 
L -19 4134 
L -19 4666 
z
" transform="scale(0.015625)"/>
      <path id="DejaVuSans-4e" d="M 628 4666 
L 1478 4666 
L 3547 763 
L 3547 4666 
L 4159 4666 
L 4159 0 
L 3309 0 
L 1241 3903 
L 1241 0 
L 628 0 
L 628 4666 
z
" transform="scale(0.015625)"/>
      <path id="DejaVuSans-3a" d="M 750 794 
L 1409 794 
L 1409 0 
L 750 0 
L 750 794 
z
M 750 3309 
L 1409 3309 
L 1409 2516 
L 750 2516 
L 750 3309 
z
" transform="scale(0.015625)"/>
      <path id="DejaVuSans-70" d="M 1159 525 
L 1159 -1331 
L 581 -1331 
L 581 3500 
L 1159 3500 
L 1159 2969 
Q 1341 3281 1617 3432 
Q 1894 3584 2278 3584 
Q 2916 3584 3314 3078 
Q 3713 2572 3713 1747 
Q 3713 922 3314 415 
Q 2916 -91 2278 -91 
Q 1894 -91 1617 61 
Q 1341 213 1159 525 
z
M 3116 1747 
Q 3116 2381 2855 2742 
Q 2594 3103 2138 3103 
Q 1681 3103 1420 2742 
Q 1159 2381 1159 1747 
Q 1159 1113 1420 752 
Q 1681 391 2138 391 
Q 2594 391 2855 752 
Q 3116 1113 3116 1747 
z
" transform="scale(0.015625)"/>
     </defs>
     <use xlink:href="#DejaVuSans-44"/>
     <use xlink:href="#DejaVuSans-45" transform="translate(77.001953 0)"/>
     <use xlink:href="#DejaVuSans-54" transform="translate(140.185547 0)"/>
     <use xlink:href="#DejaVuSans-52" transform="translate(201.269531 0)"/>
     <use xlink:href="#DejaVuSans-45" transform="translate(270.751953 0)"/>
     <use xlink:href="#DejaVuSans-4e" transform="translate(333.935547 0)"/>
     <use xlink:href="#DejaVuSans-44" transform="translate(408.740234 0)"/>
     <use xlink:href="#DejaVuSans-45" transform="translate(485.742188 0)"/>
     <use xlink:href="#DejaVuSans-44" transform="translate(548.925781 0)"/>
     <use xlink:href="#DejaVuSans-3a" transform="translate(625.927734 0)"/>
     <use xlink:href="#DejaVuSans-20" transform="translate(659.619141 0)"/>
     <use xlink:href="#DejaVuSans-74" transform="translate(691.40625 0)"/>
     <use xlink:href="#DejaVuSans-68" transform="translate(730.615234 0)"/>
     <use xlink:href="#DejaVuSans-65" transform="translate(793.994141 0)"/>
     <use xlink:href="#DejaVuSans-20" transform="translate(855.517578 0)"/>
     <use xlink:href="#DejaVuSans-6c" transform="translate(887.304688 0)"/>
     <use xlink:href="#DejaVuSans-69" transform="translate(915.087891 0)"/>
     <use xlink:href="#DejaVuSans-6e" transform="translate(942.871094 0)"/>
     <use xlink:href="#DejaVuSans-6b" transform="translate(1006.25 0)"/>
     <use xlink:href="#DejaVuSans-20" transform="translate(1064.160156 0)"/>
     <use xlink:href="#DejaVuSans-65" transform="translate(1095.947266 0)"/>
     <use xlink:href="#DejaVuSans-76" transform="translate(1157.470703 0)"/>
     <use xlink:href="#DejaVuSans-61" transform="translate(1216.650391 0)"/>
     <use xlink:href="#DejaVuSans-70" transform="translate(1277.929688 0)"/>
     <use xlink:href="#DejaVuSans-6f" transform="translate(1341.40625 0)"/>
     <use xlink:href="#DejaVuSans-72" transform="translate(1402.587891 0)"/>
     <use xlink:href="#DejaVuSans-61" transform="translate(1443.701172 0)"/>
     <use xlink:href="#DejaVuSans-74" transform="translate(1504.980469 0)"/>
     <use xlink:href="#DejaVuSans-65" transform="translate(1544.189453 0)"/>
     <use xlink:href="#DejaVuSans-73" transform="translate(1605.712891 0)"/>
    </g>
    <!-- r = +0.24 -->
    <g transform="translate(778.633268 67.464) scale(0.105 -0.105)">
     <defs>
      <path id="DejaVuSans-2b" d="M 2944 4013 
L 2944 2272 
L 4684 2272 
L 4684 1741 
L 2944 1741 
L 2944 0 
L 2419 0 
L 2419 1741 
L 678 1741 
L 678 2272 
L 2419 2272 
L 2419 4013 
L 2944 4013 
z
" transform="scale(0.015625)"/>
     </defs>
     <use xlink:href="#DejaVuSans-72"/>
     <use xlink:href="#DejaVuSans-20" transform="translate(41.113281 0)"/>
     <use xlink:href="#DejaVuSans-3d" transform="translate(72.900391 0)"/>
     <use xlink:href="#DejaVuSans-20" transform="translate(156.689453 0)"/>
     <use xlink:href="#DejaVuSans-2b" transform="translate(188.476562 0)"/>
     <use xlink:href="#DejaVuSans-30" transform="translate(272.265625 0)"/>
     <use xlink:href="#DejaVuSans-2e" transform="translate(335.888672 0)"/>
     <use xlink:href="#DejaVuSans-32" transform="translate(367.675781 0)"/>
     <use xlink:href="#DejaVuSans-34" transform="translate(431.298828 0)"/>
    </g>
   </g>
  </g>
  <g id="axes_4">
   <g id="matplotlib.axis_7">
    <g id="ytick_19">
     <g id="line2d_40">
      <defs>
       <path id="m65a4901a7a" d="M 0 0 
L 3.5 0 
" style="stroke: #000000; stroke-width: 0.8"/>
      </defs>
      <g>
       <use xlink:href="#m65a4901a7a" x="285.826667" y="243.200486" style="stroke: #000000; stroke-width: 0.8"/>
      </g>
     </g>
     <g id="text_45">
      <!-- 56 -->
      <g style="fill: #d62728" transform="translate(292.826667 246.999705) scale(0.1 -0.1)">
       <use xlink:href="#DejaVuSans-35"/>
       <use xlink:href="#DejaVuSans-36" transform="translate(63.623047 0)"/>
      </g>
     </g>
    </g>
    <g id="ytick_20">
     <g id="line2d_41">
      <g>
       <use xlink:href="#m65a4901a7a" x="285.826667" y="211.495859" style="stroke: #000000; stroke-width: 0.8"/>
      </g>
     </g>
     <g id="text_46">
      <!-- 58 -->
      <g style="fill: #d62728" transform="translate(292.826667 215.295078) scale(0.1 -0.1)">
       <use xlink:href="#DejaVuSans-35"/>
       <use xlink:href="#DejaVuSans-38" transform="translate(63.623047 0)"/>
      </g>
     </g>
    </g>
    <g id="ytick_21">
     <g id="line2d_42">
      <g>
       <use xlink:href="#m65a4901a7a" x="285.826667" y="179.791232" style="stroke: #000000; stroke-width: 0.8"/>
      </g>
     </g>
     <g id="text_47">
      <!-- 60 -->
      <g style="fill: #d62728" transform="translate(292.826667 183.590451) scale(0.1 -0.1)">
       <use xlink:href="#DejaVuSans-36"/>
       <use xlink:href="#DejaVuSans-30" transform="translate(63.623047 0)"/>
      </g>
     </g>
    </g>
    <g id="ytick_22">
     <g id="line2d_43">
      <g>
       <use xlink:href="#m65a4901a7a" x="285.826667" y="148.086605" style="stroke: #000000; stroke-width: 0.8"/>
      </g>
     </g>
     <g id="text_48">
      <!-- 62 -->
      <g style="fill: #d62728" transform="translate(292.826667 151.885824) scale(0.1 -0.1)">
       <use xlink:href="#DejaVuSans-36"/>
       <use xlink:href="#DejaVuSans-32" transform="translate(63.623047 0)"/>
      </g>
     </g>
    </g>
    <g id="ytick_23">
     <g id="line2d_44">
      <g>
       <use xlink:href="#m65a4901a7a" x="285.826667" y="116.381978" style="stroke: #000000; stroke-width: 0.8"/>
      </g>
     </g>
     <g id="text_49">
      <!-- 64 -->
      <g style="fill: #d62728" transform="translate(292.826667 120.181197) scale(0.1 -0.1)">
       <use xlink:href="#DejaVuSans-36"/>
       <use xlink:href="#DejaVuSans-34" transform="translate(63.623047 0)"/>
      </g>
     </g>
    </g>
    <g id="ytick_24">
     <g id="line2d_45">
      <g>
       <use xlink:href="#m65a4901a7a" x="285.826667" y="84.677352" style="stroke: #000000; stroke-width: 0.8"/>
      </g>
     </g>
     <g id="text_50">
      <!-- 66 -->
      <g style="fill: #d62728" transform="translate(292.826667 88.47657) scale(0.1 -0.1)">
       <use xlink:href="#DejaVuSans-36"/>
       <use xlink:href="#DejaVuSans-36" transform="translate(63.623047 0)"/>
      </g>
     </g>
    </g>
    <g id="text_51">
     <!-- home win % -->
     <g style="fill: #d62728" transform="translate(317.150104 201.302781) rotate(-90) scale(0.1 -0.1)">
      <use xlink:href="#DejaVuSans-68"/>
      <use xlink:href="#DejaVuSans-6f" transform="translate(63.378906 0)"/>
      <use xlink:href="#DejaVuSans-6d" transform="translate(124.560547 0)"/>
      <use xlink:href="#DejaVuSans-65" transform="translate(221.972656 0)"/>
      <use xlink:href="#DejaVuSans-20" transform="translate(283.496094 0)"/>
      <use xlink:href="#DejaVuSans-77" transform="translate(315.283203 0)"/>
      <use xlink:href="#DejaVuSans-69" transform="translate(397.070312 0)"/>
      <use xlink:href="#DejaVuSans-6e" transform="translate(424.853516 0)"/>
      <use xlink:href="#DejaVuSans-20" transform="translate(488.232422 0)"/>
      <use xlink:href="#DejaVuSans-25" transform="translate(520.019531 0)"/>
     </g>
    </g>
   </g>
   <g id="line2d_46">
    <path d="M 55.622121 123.833628 
L 60.969497 102.885822 
L 66.316874 82.290182 
L 71.66425 141.374318 
L 77.011626 99.400042 
L 82.359002 117.281996 
L 87.706378 135.559544 
L 93.053755 89.108076 
L 98.401131 116.465811 
L 103.748507 157.584466 
L 109.095883 137.157712 
L 114.443259 131.409536 
L 119.790636 149.775488 
L 125.138012 136.998034 
L 130.485388 155.058782 
L 135.832764 144.905092 
L 141.18014 134.037855 
L 146.527517 178.060076 
L 151.874893 165.147399 
L 157.222269 181.629611 
L 162.569645 174.199771 
L 167.917021 203.00906 
L 173.264398 195.249804 
L 178.611774 191.766627 
L 183.95915 174.742006 
L 189.306526 173.858244 
L 194.653902 224.625274 
L 200.001279 218.36896 
L 205.348655 194.751312 
L 210.696031 248.763122 
L 216.043407 223.477098 
L 221.390783 220.321544 
L 226.73816 198.363518 
L 232.085536 212.965611 
L 237.432912 236.10905 
L 242.780288 240.700434 
L 248.127664 242.253064 
L 253.475041 212.31645 
L 258.822417 253.244986 
L 264.169793 254.684163 
L 269.517169 246.004651 
L 274.864545 258.813818 
" clip-path="url(#p3aed1c4364)" style="fill: none; stroke: #d62728; stroke-width: 2; stroke-linecap: square"/>
   </g>
   <g id="patch_17">
    <path d="M 44.66 267.64 
L 44.66 73.464 
" style="fill: none; stroke: #000000; stroke-width: 0.8; stroke-linejoin: miter; stroke-linecap: square"/>
   </g>
   <g id="patch_18">
    <path d="M 285.826667 267.64 
L 285.826667 73.464 
" style="fill: none; stroke: #000000; stroke-width: 0.8; stroke-linejoin: miter; stroke-linecap: square"/>
   </g>
   <g id="patch_19">
    <path d="M 44.66 267.64 
L 285.826667 267.64 
" style="fill: none; stroke: #000000; stroke-width: 0.8; stroke-linejoin: miter; stroke-linecap: square"/>
   </g>
   <g id="patch_20">
    <path d="M 44.66 73.464 
L 285.826667 73.464 
" style="fill: none; stroke: #000000; stroke-width: 0.8; stroke-linejoin: miter; stroke-linecap: square"/>
   </g>
  </g>
  <g id="text_52">
   <!-- Two series that both drift over 40 years will correlate — until you remove the shared trend -->
   <g transform="translate(219.4 14.550281) scale(0.11 -0.11)">
    <defs>
     <path id="DejaVuSans-62" d="M 3116 1747 
Q 3116 2381 2855 2742 
Q 2594 3103 2138 3103 
Q 1681 3103 1420 2742 
Q 1159 2381 1159 1747 
Q 1159 1113 1420 752 
Q 1681 391 2138 391 
Q 2594 391 2855 752 
Q 3116 1113 3116 1747 
z
M 1159 2969 
Q 1341 3281 1617 3432 
Q 1894 3584 2278 3584 
Q 2916 3584 3314 3078 
Q 3713 2572 3713 1747 
Q 3713 922 3314 415 
Q 2916 -91 2278 -91 
Q 1894 -91 1617 61 
Q 1341 213 1159 525 
L 1159 0 
L 581 0 
L 581 4863 
L 1159 4863 
L 1159 2969 
z
" transform="scale(0.015625)"/>
     <path id="DejaVuSans-66" d="M 2375 4863 
L 2375 4384 
L 1825 4384 
Q 1516 4384 1395 4259 
Q 1275 4134 1275 3809 
L 1275 3500 
L 2222 3500 
L 2222 3053 
L 1275 3053 
L 1275 0 
L 697 0 
L 697 3053 
L 147 3053 
L 147 3500 
L 697 3500 
L 697 3744 
Q 697 4328 969 4595 
Q 1241 4863 1831 4863 
L 2375 4863 
z
" transform="scale(0.015625)"/>
     <path id="DejaVuSans-79" d="M 2059 -325 
Q 1816 -950 1584 -1140 
Q 1353 -1331 966 -1331 
L 506 -1331 
L 506 -850 
L 844 -850 
Q 1081 -850 1212 -737 
Q 1344 -625 1503 -206 
L 1606 56 
L 191 3500 
L 800 3500 
L 1894 763 
L 2988 3500 
L 3597 3500 
L 2059 -325 
z
" transform="scale(0.015625)"/>
     <path id="DejaVuSans-2014" d="M 313 1978 
L 6088 1978 
L 6088 1528 
L 313 1528 
L 313 1978 
z
" transform="scale(0.015625)"/>
    </defs>
    <use xlink:href="#DejaVuSans-54"/>
    <use xlink:href="#DejaVuSans-77" transform="translate(44.583984 0)"/>
    <use xlink:href="#DejaVuSans-6f" transform="translate(126.371094 0)"/>
    <use xlink:href="#DejaVuSans-20" transform="translate(187.552734 0)"/>
    <use xlink:href="#DejaVuSans-73" transform="translate(219.339844 0)"/>
    <use xlink:href="#DejaVuSans-65" transform="translate(271.439453 0)"/>
    <use xlink:href="#DejaVuSans-72" transform="translate(332.962891 0)"/>
    <use xlink:href="#DejaVuSans-69" transform="translate(374.076172 0)"/>
    <use xlink:href="#DejaVuSans-65" transform="translate(401.859375 0)"/>
    <use xlink:href="#DejaVuSans-73" transform="translate(463.382812 0)"/>
    <use xlink:href="#DejaVuSans-20" transform="translate(515.482422 0)"/>
    <use xlink:href="#DejaVuSans-74" transform="translate(547.269531 0)"/>
    <use xlink:href="#DejaVuSans-68" transform="translate(586.478516 0)"/>
    <use xlink:href="#DejaVuSans-61" transform="translate(649.857422 0)"/>
    <use xlink:href="#DejaVuSans-74" transform="translate(711.136719 0)"/>
    <use xlink:href="#DejaVuSans-20" transform="translate(750.345703 0)"/>
    <use xlink:href="#DejaVuSans-62" transform="translate(782.132812 0)"/>
    <use xlink:href="#DejaVuSans-6f" transform="translate(845.609375 0)"/>
    <use xlink:href="#DejaVuSans-74" transform="translate(906.791016 0)"/>
    <use xlink:href="#DejaVuSans-68" transform="translate(946 0)"/>
    <use xlink:href="#DejaVuSans-20" transform="translate(1009.378906 0)"/>
    <use xlink:href="#DejaVuSans-64" transform="translate(1041.166016 0)"/>
    <use xlink:href="#DejaVuSans-72" transform="translate(1104.642578 0)"/>
    <use xlink:href="#DejaVuSans-69" transform="translate(1145.755859 0)"/>
    <use xlink:href="#DejaVuSans-66" transform="translate(1173.539062 0)"/>
    <use xlink:href="#DejaVuSans-74" transform="translate(1206.994141 0)"/>
    <use xlink:href="#DejaVuSans-20" transform="translate(1246.203125 0)"/>
    <use xlink:href="#DejaVuSans-6f" transform="translate(1277.990234 0)"/>
    <use xlink:href="#DejaVuSans-76" transform="translate(1339.171875 0)"/>
    <use xlink:href="#DejaVuSans-65" transform="translate(1398.351562 0)"/>
    <use xlink:href="#DejaVuSans-72" transform="translate(1459.875 0)"/>
    <use xlink:href="#DejaVuSans-20" transform="translate(1500.988281 0)"/>
    <use xlink:href="#DejaVuSans-34" transform="translate(1532.775391 0)"/>
    <use xlink:href="#DejaVuSans-30" transform="translate(1596.398438 0)"/>
    <use xlink:href="#DejaVuSans-20" transform="translate(1660.021484 0)"/>
    <use xlink:href="#DejaVuSans-79" transform="translate(1691.808594 0)"/>
    <use xlink:href="#DejaVuSans-65" transform="translate(1750.988281 0)"/>
    <use xlink:href="#DejaVuSans-61" transform="translate(1812.511719 0)"/>
    <use xlink:href="#DejaVuSans-72" transform="translate(1873.791016 0)"/>
    <use xlink:href="#DejaVuSans-73" transform="translate(1914.904297 0)"/>
    <use xlink:href="#DejaVuSans-20" transform="translate(1967.003906 0)"/>
    <use xlink:href="#DejaVuSans-77" transform="translate(1998.791016 0)"/>
    <use xlink:href="#DejaVuSans-69" transform="translate(2080.578125 0)"/>
    <use xlink:href="#DejaVuSans-6c" transform="translate(2108.361328 0)"/>
    <use xlink:href="#DejaVuSans-6c" transform="translate(2136.144531 0)"/>
    <use xlink:href="#DejaVuSans-20" transform="translate(2163.927734 0)"/>
    <use xlink:href="#DejaVuSans-63" transform="translate(2195.714844 0)"/>
    <use xlink:href="#DejaVuSans-6f" transform="translate(2250.695312 0)"/>
    <use xlink:href="#DejaVuSans-72" transform="translate(2311.876953 0)"/>
    <use xlink:href="#DejaVuSans-72" transform="translate(2351.240234 0)"/>
    <use xlink:href="#DejaVuSans-65" transform="translate(2390.103516 0)"/>
    <use xlink:href="#DejaVuSans-6c" transform="translate(2451.626953 0)"/>
    <use xlink:href="#DejaVuSans-61" transform="translate(2479.410156 0)"/>
    <use xlink:href="#DejaVuSans-74" transform="translate(2540.689453 0)"/>
    <use xlink:href="#DejaVuSans-65" transform="translate(2579.898438 0)"/>
    <use xlink:href="#DejaVuSans-20" transform="translate(2641.421875 0)"/>
    <use xlink:href="#DejaVuSans-2014" transform="translate(2673.208984 0)"/>
    <use xlink:href="#DejaVuSans-20" transform="translate(2773.208984 0)"/>
    <use xlink:href="#DejaVuSans-75" transform="translate(2804.996094 0)"/>
    <use xlink:href="#DejaVuSans-6e" transform="translate(2868.375 0)"/>
    <use xlink:href="#DejaVuSans-74" transform="translate(2931.753906 0)"/>
    <use xlink:href="#DejaVuSans-69" transform="translate(2970.962891 0)"/>
    <use xlink:href="#DejaVuSans-6c" transform="translate(2998.746094 0)"/>
    <use xlink:href="#DejaVuSans-20" transform="translate(3026.529297 0)"/>
    <use xlink:href="#DejaVuSans-79" transform="translate(3058.316406 0)"/>
    <use xlink:href="#DejaVuSans-6f" transform="translate(3117.496094 0)"/>
    <use xlink:href="#DejaVuSans-75" transform="translate(3178.677734 0)"/>
    <use xlink:href="#DejaVuSans-20" transform="translate(3242.056641 0)"/>
    <use xlink:href="#DejaVuSans-72" transform="translate(3273.84375 0)"/>
    <use xlink:href="#DejaVuSans-65" transform="translate(3312.707031 0)"/>
    <use xlink:href="#DejaVuSans-6d" transform="translate(3374.230469 0)"/>
    <use xlink:href="#DejaVuSans-6f" transform="translate(3471.642578 0)"/>
    <use xlink:href="#DejaVuSans-76" transform="translate(3532.824219 0)"/>
    <use xlink:href="#DejaVuSans-65" transform="translate(3592.003906 0)"/>
    <use xlink:href="#DejaVuSans-20" transform="translate(3653.527344 0)"/>
    <use xlink:href="#DejaVuSans-74" transform="translate(3685.314453 0)"/>
    <use xlink:href="#DejaVuSans-68" transform="translate(3724.523438 0)"/>
    <use xlink:href="#DejaVuSans-65" transform="translate(3787.902344 0)"/>
    <use xlink:href="#DejaVuSans-20" transform="translate(3849.425781 0)"/>
    <use xlink:href="#DejaVuSans-73" transform="translate(3881.212891 0)"/>
    <use xlink:href="#DejaVuSans-68" transform="translate(3933.3125 0)"/>
    <use xlink:href="#DejaVuSans-61" transform="translate(3996.691406 0)"/>
    <use xlink:href="#DejaVuSans-72" transform="translate(4057.970703 0)"/>
    <use xlink:href="#DejaVuSans-65" transform="translate(4096.833984 0)"/>
    <use xlink:href="#DejaVuSans-64" transform="translate(4158.357422 0)"/>
    <use xlink:href="#DejaVuSans-20" transform="translate(4221.833984 0)"/>
    <use xlink:href="#DejaVuSans-74" transform="translate(4253.621094 0)"/>
    <use xlink:href="#DejaVuSans-72" transform="translate(4292.830078 0)"/>
    <use xlink:href="#DejaVuSans-65" transform="translate(4331.693359 0)"/>
    <use xlink:href="#DejaVuSans-6e" transform="translate(4393.216797 0)"/>
    <use xlink:href="#DejaVuSans-64" transform="translate(4456.595703 0)"/>
   </g>
  </g>
 </g>
 <defs>
  <clipPath id="p3aed1c4364">
   <rect x="44.66" y="73.464" width="241.166667" height="194.176"/>
  </clipPath>
  <clipPath id="p101a0a12cd">
   <rect x="364.346667" y="73.464" width="241.166667" height="194.176"/>
  </clipPath>
  <clipPath id="pa9033c8173">
   <rect x="684.033333" y="73.464" width="241.166667" height="194.176"/>
  </clipPath>
 </defs>
</svg>
