<?xml version="1.0" encoding="utf-8" standalone="no"?>
<!DOCTYPE svg PUBLIC "-//W3C//DTD SVG 1.1//EN"
  "http://www.w3.org/Graphics/SVG/1.1/DTD/svg11.dtd">
<svg xmlns:xlink="http://www.w3.org/1999/xlink" width="792pt" height="345.6pt" viewBox="0 0 792 345.6" xmlns="http://www.w3.org/2000/svg" version="1.1">
 <metadata>
  <rdf:RDF xmlns:dc="http://purl.org/dc/elements/1.1/" xmlns:cc="http://creativecommons.org/ns#" xmlns:rdf="http://www.w3.org/1999/02/22-rdf-syntax-ns#">
   <cc:Work>
    <dc:type rdf:resource="http://purl.org/dc/dcmitype/StillImage"/>
    <dc:date>2026-06-19T22:39:25.810135</dc:date>
    <dc:format>image/svg+xml</dc:format>
    <dc:creator>
     <cc:Agent>
      <dc:title>Matplotlib v3.10.9, https://matplotlib.org/</dc:title>
     </cc:Agent>
    </dc:creator>
   </cc:Work>
  </rdf:RDF>
 </metadata>
 <defs>
  <style type="text/css">*{stroke-linejoin: round; stroke-linecap: butt}</style>
 </defs>
 <g id="figure_1">
  <g id="patch_1">
   <path d="M 0 345.6 
L 792 345.6 
L 792 0 
L 0 0 
z
" style="fill: #ffffff"/>
  </g>
  <g id="axes_1">
   <g id="patch_2">
    <path d="M 53.03 303.64 
L 399.008377 303.64 
L 399.008377 36.384 
L 53.03 36.384 
z
" style="fill: #ffffff"/>
   </g>
   <g id="matplotlib.axis_1">
    <g id="xtick_1">
     <g id="line2d_1">
      <defs>
       <path id="m4fef6888de" d="M 0 0 
L 0 3.5 
" style="stroke: #000000; stroke-width: 0.8"/>
      </defs>
      <g>
       <use xlink:href="#m4fef6888de" x="102.455482" y="303.64" style="stroke: #000000; stroke-width: 0.8"/>
      </g>
     </g>
     <g id="text_1">
      <!-- 2000 -->
      <g transform="translate(89.730482 318.238437) scale(0.1 -0.1)">
       <defs>
        <path id="DejaVuSans-32" d="M 1228 531 
L 3431 531 
L 3431 0 
L 469 0 
L 469 531 
Q 828 903 1448 1529 
Q 2069 2156 2228 2338 
Q 2531 2678 2651 2914 
Q 2772 3150 2772 3378 
Q 2772 3750 2511 3984 
Q 2250 4219 1831 4219 
Q 1534 4219 1204 4116 
Q 875 4013 500 3803 
L 500 4441 
Q 881 4594 1212 4672 
Q 1544 4750 1819 4750 
Q 2544 4750 2975 4387 
Q 3406 4025 3406 3419 
Q 3406 3131 3298 2873 
Q 3191 2616 2906 2266 
Q 2828 2175 2409 1742 
Q 1991 1309 1228 531 
z
" transform="scale(0.015625)"/>
        <path id="DejaVuSans-30" d="M 2034 4250 
Q 1547 4250 1301 3770 
Q 1056 3291 1056 2328 
Q 1056 1369 1301 889 
Q 1547 409 2034 409 
Q 2525 409 2770 889 
Q 3016 1369 3016 2328 
Q 3016 3291 2770 3770 
Q 2525 4250 2034 4250 
z
M 2034 4750 
Q 2819 4750 3233 4129 
Q 3647 3509 3647 2328 
Q 3647 1150 3233 529 
Q 2819 -91 2034 -91 
Q 1250 -91 836 529 
Q 422 1150 422 2328 
Q 422 3509 836 4129 
Q 1250 4750 2034 4750 
z
" transform="scale(0.015625)"/>
       </defs>
       <use xlink:href="#DejaVuSans-32"/>
       <use xlink:href="#DejaVuSans-30" transform="translate(63.623047 0)"/>
       <use xlink:href="#DejaVuSans-30" transform="translate(127.246094 0)"/>
       <use xlink:href="#DejaVuSans-30" transform="translate(190.869141 0)"/>
      </g>
     </g>
    </g>
    <g id="xtick_2">
     <g id="line2d_2">
      <g>
       <use xlink:href="#m4fef6888de" x="158.620803" y="303.64" style="stroke: #000000; stroke-width: 0.8"/>
      </g>
     </g>
     <g id="text_2">
      <!-- 2005 -->
      <g transform="translate(145.895803 318.238437) scale(0.1 -0.1)">
       <defs>
        <path id="DejaVuSans-35" d="M 691 4666 
L 3169 4666 
L 3169 4134 
L 1269 4134 
L 1269 2991 
Q 1406 3038 1543 3061 
Q 1681 3084 1819 3084 
Q 2600 3084 3056 2656 
Q 3513 2228 3513 1497 
Q 3513 744 3044 326 
Q 2575 -91 1722 -91 
Q 1428 -91 1123 -41 
Q 819 9 494 109 
L 494 744 
Q 775 591 1075 516 
Q 1375 441 1709 441 
Q 2250 441 2565 725 
Q 2881 1009 2881 1497 
Q 2881 1984 2565 2268 
Q 2250 2553 1709 2553 
Q 1456 2553 1204 2497 
Q 953 2441 691 2322 
L 691 4666 
z
" transform="scale(0.015625)"/>
       </defs>
       <use xlink:href="#DejaVuSans-32"/>
       <use xlink:href="#DejaVuSans-30" transform="translate(63.623047 0)"/>
       <use xlink:href="#DejaVuSans-30" transform="translate(127.246094 0)"/>
       <use xlink:href="#DejaVuSans-35" transform="translate(190.869141 0)"/>
      </g>
     </g>
    </g>
    <g id="xtick_3">
     <g id="line2d_3">
      <g>
       <use xlink:href="#m4fef6888de" x="214.786124" y="303.64" style="stroke: #000000; stroke-width: 0.8"/>
      </g>
     </g>
     <g id="text_3">
      <!-- 2010 -->
      <g transform="translate(202.061124 318.238437) scale(0.1 -0.1)">
       <defs>
        <path id="DejaVuSans-31" d="M 794 531 
L 1825 531 
L 1825 4091 
L 703 3866 
L 703 4441 
L 1819 4666 
L 2450 4666 
L 2450 531 
L 3481 531 
L 3481 0 
L 794 0 
L 794 531 
z
" transform="scale(0.015625)"/>
       </defs>
       <use xlink:href="#DejaVuSans-32"/>
       <use xlink:href="#DejaVuSans-30" transform="translate(63.623047 0)"/>
       <use xlink:href="#DejaVuSans-31" transform="translate(127.246094 0)"/>
       <use xlink:href="#DejaVuSans-30" transform="translate(190.869141 0)"/>
      </g>
     </g>
    </g>
    <g id="xtick_4">
     <g id="line2d_4">
      <g>
       <use xlink:href="#m4fef6888de" x="270.951445" y="303.64" style="stroke: #000000; stroke-width: 0.8"/>
      </g>
     </g>
     <g id="text_4">
      <!-- 2015 -->
      <g transform="translate(258.226445 318.238437) scale(0.1 -0.1)">
       <use xlink:href="#DejaVuSans-32"/>
       <use xlink:href="#DejaVuSans-30" transform="translate(63.623047 0)"/>
       <use xlink:href="#DejaVuSans-31" transform="translate(127.246094 0)"/>
       <use xlink:href="#DejaVuSans-35" transform="translate(190.869141 0)"/>
      </g>
     </g>
    </g>
    <g id="xtick_5">
     <g id="line2d_5">
      <g>
       <use xlink:href="#m4fef6888de" x="327.116766" y="303.64" style="stroke: #000000; stroke-width: 0.8"/>
      </g>
     </g>
     <g id="text_5">
      <!-- 2020 -->
      <g transform="translate(314.391766 318.238437) scale(0.1 -0.1)">
       <use xlink:href="#DejaVuSans-32"/>
       <use xlink:href="#DejaVuSans-30" transform="translate(63.623047 0)"/>
       <use xlink:href="#DejaVuSans-32" transform="translate(127.246094 0)"/>
       <use xlink:href="#DejaVuSans-30" transform="translate(190.869141 0)"/>
      </g>
     </g>
    </g>
    <g id="xtick_6">
     <g id="line2d_6">
      <g>
       <use xlink:href="#m4fef6888de" x="383.282087" y="303.64" style="stroke: #000000; stroke-width: 0.8"/>
      </g>
     </g>
     <g id="text_6">
      <!-- 2025 -->
      <g transform="translate(370.557087 318.238437) scale(0.1 -0.1)">
       <use xlink:href="#DejaVuSans-32"/>
       <use xlink:href="#DejaVuSans-30" transform="translate(63.623047 0)"/>
       <use xlink:href="#DejaVuSans-32" transform="translate(127.246094 0)"/>
       <use xlink:href="#DejaVuSans-35" transform="translate(190.869141 0)"/>
      </g>
     </g>
    </g>
    <g id="text_7">
     <!-- season -->
     <g transform="translate(208.441063 331.916562) scale(0.1 -0.1)">
      <defs>
       <path id="DejaVuSans-73" d="M 2834 3397 
L 2834 2853 
Q 2591 2978 2328 3040 
Q 2066 3103 1784 3103 
Q 1356 3103 1142 2972 
Q 928 2841 928 2578 
Q 928 2378 1081 2264 
Q 1234 2150 1697 2047 
L 1894 2003 
Q 2506 1872 2764 1633 
Q 3022 1394 3022 966 
Q 3022 478 2636 193 
Q 2250 -91 1575 -91 
Q 1294 -91 989 -36 
Q 684 19 347 128 
L 347 722 
Q 666 556 975 473 
Q 1284 391 1588 391 
Q 1994 391 2212 530 
Q 2431 669 2431 922 
Q 2431 1156 2273 1281 
Q 2116 1406 1581 1522 
L 1381 1569 
Q 847 1681 609 1914 
Q 372 2147 372 2553 
Q 372 3047 722 3315 
Q 1072 3584 1716 3584 
Q 2034 3584 2315 3537 
Q 2597 3491 2834 3397 
z
" transform="scale(0.015625)"/>
       <path id="DejaVuSans-65" d="M 3597 1894 
L 3597 1613 
L 953 1613 
Q 991 1019 1311 708 
Q 1631 397 2203 397 
Q 2534 397 2845 478 
Q 3156 559 3463 722 
L 3463 178 
Q 3153 47 2828 -22 
Q 2503 -91 2169 -91 
Q 1331 -91 842 396 
Q 353 884 353 1716 
Q 353 2575 817 3079 
Q 1281 3584 2069 3584 
Q 2775 3584 3186 3129 
Q 3597 2675 3597 1894 
z
M 3022 2063 
Q 3016 2534 2758 2815 
Q 2500 3097 2075 3097 
Q 1594 3097 1305 2825 
Q 1016 2553 972 2059 
L 3022 2063 
z
" transform="scale(0.015625)"/>
       <path id="DejaVuSans-61" d="M 2194 1759 
Q 1497 1759 1228 1600 
Q 959 1441 959 1056 
Q 959 750 1161 570 
Q 1363 391 1709 391 
Q 2188 391 2477 730 
Q 2766 1069 2766 1631 
L 2766 1759 
L 2194 1759 
z
M 3341 1997 
L 3341 0 
L 2766 0 
L 2766 531 
Q 2569 213 2275 61 
Q 1981 -91 1556 -91 
Q 1019 -91 701 211 
Q 384 513 384 1019 
Q 384 1609 779 1909 
Q 1175 2209 1959 2209 
L 2766 2209 
L 2766 2266 
Q 2766 2663 2505 2880 
Q 2244 3097 1772 3097 
Q 1472 3097 1187 3025 
Q 903 2953 641 2809 
L 641 3341 
Q 956 3463 1253 3523 
Q 1550 3584 1831 3584 
Q 2591 3584 2966 3190 
Q 3341 2797 3341 1997 
z
" transform="scale(0.015625)"/>
       <path id="DejaVuSans-6f" d="M 1959 3097 
Q 1497 3097 1228 2736 
Q 959 2375 959 1747 
Q 959 1119 1226 758 
Q 1494 397 1959 397 
Q 2419 397 2687 759 
Q 2956 1122 2956 1747 
Q 2956 2369 2687 2733 
Q 2419 3097 1959 3097 
z
M 1959 3584 
Q 2709 3584 3137 3096 
Q 3566 2609 3566 1747 
Q 3566 888 3137 398 
Q 2709 -91 1959 -91 
Q 1206 -91 779 398 
Q 353 888 353 1747 
Q 353 2609 779 3096 
Q 1206 3584 1959 3584 
z
" transform="scale(0.015625)"/>
       <path id="DejaVuSans-6e" d="M 3513 2113 
L 3513 0 
L 2938 0 
L 2938 2094 
Q 2938 2591 2744 2837 
Q 2550 3084 2163 3084 
Q 1697 3084 1428 2787 
Q 1159 2491 1159 1978 
L 1159 0 
L 581 0 
L 581 3500 
L 1159 3500 
L 1159 2956 
Q 1366 3272 1645 3428 
Q 1925 3584 2291 3584 
Q 2894 3584 3203 3211 
Q 3513 2838 3513 2113 
z
" transform="scale(0.015625)"/>
      </defs>
      <use xlink:href="#DejaVuSans-73"/>
      <use xlink:href="#DejaVuSans-65" transform="translate(52.099609 0)"/>
      <use xlink:href="#DejaVuSans-61" transform="translate(113.623047 0)"/>
      <use xlink:href="#DejaVuSans-73" transform="translate(174.902344 0)"/>
      <use xlink:href="#DejaVuSans-6f" transform="translate(227.001953 0)"/>
      <use xlink:href="#DejaVuSans-6e" transform="translate(288.183594 0)"/>
     </g>
    </g>
   </g>
   <g id="matplotlib.axis_2">
    <g id="ytick_1">
     <g id="line2d_7">
      <defs>
       <path id="m1fe5dee340" d="M 0 0 
L -3.5 0 
" style="stroke: #000000; stroke-width: 0.8"/>
      </defs>
      <g>
       <use xlink:href="#m1fe5dee340" x="53.03" y="276.929013" style="stroke: #000000; stroke-width: 0.8"/>
      </g>
     </g>
     <g id="text_8">
      <!-- −15 -->
      <g transform="translate(24.925313 280.728232) scale(0.1 -0.1)">
       <defs>
        <path id="DejaVuSans-2212" d="M 678 2272 
L 4684 2272 
L 4684 1741 
L 678 1741 
L 678 2272 
z
" transform="scale(0.015625)"/>
       </defs>
       <use xlink:href="#DejaVuSans-2212"/>
       <use xlink:href="#DejaVuSans-31" transform="translate(83.789062 0)"/>
       <use xlink:href="#DejaVuSans-35" transform="translate(147.412109 0)"/>
      </g>
     </g>
    </g>
    <g id="ytick_2">
     <g id="line2d_8">
      <g>
       <use xlink:href="#m1fe5dee340" x="53.03" y="245.434665" style="stroke: #000000; stroke-width: 0.8"/>
      </g>
     </g>
     <g id="text_9">
      <!-- −10 -->
      <g transform="translate(24.925313 249.233884) scale(0.1 -0.1)">
       <use xlink:href="#DejaVuSans-2212"/>
       <use xlink:href="#DejaVuSans-31" transform="translate(83.789062 0)"/>
       <use xlink:href="#DejaVuSans-30" transform="translate(147.412109 0)"/>
      </g>
     </g>
    </g>
    <g id="ytick_3">
     <g id="line2d_9">
      <g>
       <use xlink:href="#m1fe5dee340" x="53.03" y="213.940317" style="stroke: #000000; stroke-width: 0.8"/>
      </g>
     </g>
     <g id="text_10">
      <!-- −5 -->
      <g transform="translate(31.287813 217.739536) scale(0.1 -0.1)">
       <use xlink:href="#DejaVuSans-2212"/>
       <use xlink:href="#DejaVuSans-35" transform="translate(83.789062 0)"/>
      </g>
     </g>
    </g>
    <g id="ytick_4">
     <g id="line2d_10">
      <g>
       <use xlink:href="#m1fe5dee340" x="53.03" y="182.445969" style="stroke: #000000; stroke-width: 0.8"/>
      </g>
     </g>
     <g id="text_11">
      <!-- 0 -->
      <g transform="translate(39.6675 186.245187) scale(0.1 -0.1)">
       <use xlink:href="#DejaVuSans-30"/>
      </g>
     </g>
    </g>
    <g id="ytick_5">
     <g id="line2d_11">
      <g>
       <use xlink:href="#m1fe5dee340" x="53.03" y="150.95162" style="stroke: #000000; stroke-width: 0.8"/>
      </g>
     </g>
     <g id="text_12">
      <!-- 5 -->
      <g transform="translate(39.6675 154.750839) scale(0.1 -0.1)">
       <use xlink:href="#DejaVuSans-35"/>
      </g>
     </g>
    </g>
    <g id="ytick_6">
     <g id="line2d_12">
      <g>
       <use xlink:href="#m1fe5dee340" x="53.03" y="119.457272" style="stroke: #000000; stroke-width: 0.8"/>
      </g>
     </g>
     <g id="text_13">
      <!-- 10 -->
      <g transform="translate(33.305 123.256491) scale(0.1 -0.1)">
       <use xlink:href="#DejaVuSans-31"/>
       <use xlink:href="#DejaVuSans-30" transform="translate(63.623047 0)"/>
      </g>
     </g>
    </g>
    <g id="ytick_7">
     <g id="line2d_13">
      <g>
       <use xlink:href="#m1fe5dee340" x="53.03" y="87.962924" style="stroke: #000000; stroke-width: 0.8"/>
      </g>
     </g>
     <g id="text_14">
      <!-- 15 -->
      <g transform="translate(33.305 91.762143) scale(0.1 -0.1)">
       <use xlink:href="#DejaVuSans-31"/>
       <use xlink:href="#DejaVuSans-35" transform="translate(63.623047 0)"/>
      </g>
     </g>
    </g>
    <g id="ytick_8">
     <g id="line2d_14">
      <g>
       <use xlink:href="#m1fe5dee340" x="53.03" y="56.468576" style="stroke: #000000; stroke-width: 0.8"/>
      </g>
     </g>
     <g id="text_15">
      <!-- 20 -->
      <g transform="translate(33.305 60.267795) scale(0.1 -0.1)">
       <use xlink:href="#DejaVuSans-32"/>
       <use xlink:href="#DejaVuSans-30" transform="translate(63.623047 0)"/>
      </g>
     </g>
    </g>
    <g id="text_16">
     <!-- home margin (pts) -->
     <g transform="translate(18.845625 216.640125) rotate(-90) scale(0.1 -0.1)">
      <defs>
       <path id="DejaVuSans-68" d="M 3513 2113 
L 3513 0 
L 2938 0 
L 2938 2094 
Q 2938 2591 2744 2837 
Q 2550 3084 2163 3084 
Q 1697 3084 1428 2787 
Q 1159 2491 1159 1978 
L 1159 0 
L 581 0 
L 581 4863 
L 1159 4863 
L 1159 2956 
Q 1366 3272 1645 3428 
Q 1925 3584 2291 3584 
Q 2894 3584 3203 3211 
Q 3513 2838 3513 2113 
z
" transform="scale(0.015625)"/>
       <path id="DejaVuSans-6d" d="M 3328 2828 
Q 3544 3216 3844 3400 
Q 4144 3584 4550 3584 
Q 5097 3584 5394 3201 
Q 5691 2819 5691 2113 
L 5691 0 
L 5113 0 
L 5113 2094 
Q 5113 2597 4934 2840 
Q 4756 3084 4391 3084 
Q 3944 3084 3684 2787 
Q 3425 2491 3425 1978 
L 3425 0 
L 2847 0 
L 2847 2094 
Q 2847 2600 2669 2842 
Q 2491 3084 2119 3084 
Q 1678 3084 1418 2786 
Q 1159 2488 1159 1978 
L 1159 0 
L 581 0 
L 581 3500 
L 1159 3500 
L 1159 2956 
Q 1356 3278 1631 3431 
Q 1906 3584 2284 3584 
Q 2666 3584 2933 3390 
Q 3200 3197 3328 2828 
z
" transform="scale(0.015625)"/>
       <path id="DejaVuSans-20" transform="scale(0.015625)"/>
       <path id="DejaVuSans-72" d="M 2631 2963 
Q 2534 3019 2420 3045 
Q 2306 3072 2169 3072 
Q 1681 3072 1420 2755 
Q 1159 2438 1159 1844 
L 1159 0 
L 581 0 
L 581 3500 
L 1159 3500 
L 1159 2956 
Q 1341 3275 1631 3429 
Q 1922 3584 2338 3584 
Q 2397 3584 2469 3576 
Q 2541 3569 2628 3553 
L 2631 2963 
z
" transform="scale(0.015625)"/>
       <path id="DejaVuSans-67" d="M 2906 1791 
Q 2906 2416 2648 2759 
Q 2391 3103 1925 3103 
Q 1463 3103 1205 2759 
Q 947 2416 947 1791 
Q 947 1169 1205 825 
Q 1463 481 1925 481 
Q 2391 481 2648 825 
Q 2906 1169 2906 1791 
z
M 3481 434 
Q 3481 -459 3084 -895 
Q 2688 -1331 1869 -1331 
Q 1566 -1331 1297 -1286 
Q 1028 -1241 775 -1147 
L 775 -588 
Q 1028 -725 1275 -790 
Q 1522 -856 1778 -856 
Q 2344 -856 2625 -561 
Q 2906 -266 2906 331 
L 2906 616 
Q 2728 306 2450 153 
Q 2172 0 1784 0 
Q 1141 0 747 490 
Q 353 981 353 1791 
Q 353 2603 747 3093 
Q 1141 3584 1784 3584 
Q 2172 3584 2450 3431 
Q 2728 3278 2906 2969 
L 2906 3500 
L 3481 3500 
L 3481 434 
z
" transform="scale(0.015625)"/>
       <path id="DejaVuSans-69" d="M 603 3500 
L 1178 3500 
L 1178 0 
L 603 0 
L 603 3500 
z
M 603 4863 
L 1178 4863 
L 1178 4134 
L 603 4134 
L 603 4863 
z
" transform="scale(0.015625)"/>
       <path id="DejaVuSans-28" d="M 1984 4856 
Q 1566 4138 1362 3434 
Q 1159 2731 1159 2009 
Q 1159 1288 1364 580 
Q 1569 -128 1984 -844 
L 1484 -844 
Q 1016 -109 783 600 
Q 550 1309 550 2009 
Q 550 2706 781 3412 
Q 1013 4119 1484 4856 
L 1984 4856 
z
" transform="scale(0.015625)"/>
       <path id="DejaVuSans-70" d="M 1159 525 
L 1159 -1331 
L 581 -1331 
L 581 3500 
L 1159 3500 
L 1159 2969 
Q 1341 3281 1617 3432 
Q 1894 3584 2278 3584 
Q 2916 3584 3314 3078 
Q 3713 2572 3713 1747 
Q 3713 922 3314 415 
Q 2916 -91 2278 -91 
Q 1894 -91 1617 61 
Q 1341 213 1159 525 
z
M 3116 1747 
Q 3116 2381 2855 2742 
Q 2594 3103 2138 3103 
Q 1681 3103 1420 2742 
Q 1159 2381 1159 1747 
Q 1159 1113 1420 752 
Q 1681 391 2138 391 
Q 2594 391 2855 752 
Q 3116 1113 3116 1747 
z
" transform="scale(0.015625)"/>
       <path id="DejaVuSans-74" d="M 1172 4494 
L 1172 3500 
L 2356 3500 
L 2356 3053 
L 1172 3053 
L 1172 1153 
Q 1172 725 1289 603 
Q 1406 481 1766 481 
L 2356 481 
L 2356 0 
L 1766 0 
Q 1100 0 847 248 
Q 594 497 594 1153 
L 594 3053 
L 172 3053 
L 172 3500 
L 594 3500 
L 594 4494 
L 1172 4494 
z
" transform="scale(0.015625)"/>
       <path id="DejaVuSans-29" d="M 513 4856 
L 1013 4856 
Q 1481 4119 1714 3412 
Q 1947 2706 1947 2009 
Q 1947 1309 1714 600 
Q 1481 -109 1013 -844 
L 513 -844 
Q 928 -128 1133 580 
Q 1338 1288 1338 2009 
Q 1338 2731 1133 3434 
Q 928 4138 513 4856 
z
" transform="scale(0.015625)"/>
      </defs>
      <use xlink:href="#DejaVuSans-68"/>
      <use xlink:href="#DejaVuSans-6f" transform="translate(63.378906 0)"/>
      <use xlink:href="#DejaVuSans-6d" transform="translate(124.560547 0)"/>
      <use xlink:href="#DejaVuSans-65" transform="translate(221.972656 0)"/>
      <use xlink:href="#DejaVuSans-20" transform="translate(283.496094 0)"/>
      <use xlink:href="#DejaVuSans-6d" transform="translate(315.283203 0)"/>
      <use xlink:href="#DejaVuSans-61" transform="translate(412.695312 0)"/>
      <use xlink:href="#DejaVuSans-72" transform="translate(473.974609 0)"/>
      <use xlink:href="#DejaVuSans-67" transform="translate(513.337891 0)"/>
      <use xlink:href="#DejaVuSans-69" transform="translate(576.814453 0)"/>
      <use xlink:href="#DejaVuSans-6e" transform="translate(604.597656 0)"/>
      <use xlink:href="#DejaVuSans-20" transform="translate(667.976562 0)"/>
      <use xlink:href="#DejaVuSans-28" transform="translate(699.763672 0)"/>
      <use xlink:href="#DejaVuSans-70" transform="translate(738.777344 0)"/>
      <use xlink:href="#DejaVuSans-74" transform="translate(802.253906 0)"/>
      <use xlink:href="#DejaVuSans-73" transform="translate(841.462891 0)"/>
      <use xlink:href="#DejaVuSans-29" transform="translate(893.5625 0)"/>
     </g>
    </g>
   </g>
   <g id="line2d_15">
    <path d="M 68.75629 56.468576 
L 79.989354 56.821312 
L 91.222418 57.174049 
L 102.455482 57.526786 
L 113.688547 57.879523 
L 124.921611 58.232259 
L 136.154675 58.584996 
L 147.387739 58.937733 
L 158.620803 59.290469 
L 169.853867 59.643206 
L 181.086932 59.995943 
L 192.319996 60.348679 
L 203.55306 60.701416 
L 214.786124 61.054153 
L 226.019188 61.40689 
L 237.252252 61.759626 
L 248.485317 62.112363 
L 259.718381 62.4651 
L 270.951445 62.817836 
L 282.184509 63.170573 
L 293.417573 63.52331 
L 304.650638 63.876046 
L 315.883702 64.228783 
L 327.116766 64.58152 
L 338.34983 64.934257 
L 349.582894 65.286993 
L 360.815958 65.63973 
L 372.049023 65.992467 
L 383.282087 66.345203 
" clip-path="url(#p946edbc265)" style="fill: none; stroke: #d62728; stroke-width: 2; stroke-linecap: square"/>
   </g>
   <g id="line2d_16">
    <path d="M 68.75629 125.756142 
L 79.989354 126.108879 
L 91.222418 126.461615 
L 102.455482 126.814352 
L 113.688547 127.167089 
L 124.921611 127.519825 
L 136.154675 127.872562 
L 147.387739 128.225299 
L 158.620803 128.578035 
L 169.853867 128.930772 
L 181.086932 129.283509 
L 192.319996 129.636246 
L 203.55306 129.988982 
L 214.786124 130.341719 
L 226.019188 130.694456 
L 237.252252 131.047192 
L 248.485317 131.399929 
L 259.718381 131.752666 
L 270.951445 132.105402 
L 282.184509 132.458139 
L 293.417573 132.810876 
L 304.650638 133.163613 
L 315.883702 133.516349 
L 327.116766 133.869086 
L 338.34983 134.221823 
L 349.582894 134.574559 
L 360.815958 134.927296 
L 372.049023 135.280033 
L 383.282087 135.632769 
" clip-path="url(#p946edbc265)" style="fill: none; stroke: #ff7f0e; stroke-width: 2; stroke-linecap: square"/>
   </g>
   <g id="line2d_17">
    <path d="M 68.75629 166.698795 
L 79.989354 167.051531 
L 91.222418 167.404268 
L 102.455482 167.757005 
L 113.688547 168.109741 
L 124.921611 168.462478 
L 136.154675 168.815215 
L 147.387739 169.167951 
L 158.620803 169.520688 
L 169.853867 169.873425 
L 181.086932 170.226162 
L 192.319996 170.578898 
L 203.55306 170.931635 
L 214.786124 171.284372 
L 226.019188 171.637108 
L 237.252252 171.989845 
L 248.485317 172.342582 
L 259.718381 172.695318 
L 270.951445 173.048055 
L 282.184509 173.400792 
L 293.417573 173.753529 
L 304.650638 174.106265 
L 315.883702 174.459002 
L 327.116766 174.811739 
L 338.34983 175.164475 
L 349.582894 175.517212 
L 360.815958 175.869949 
L 372.049023 176.222685 
L 383.282087 176.575422 
" clip-path="url(#p946edbc265)" style="fill: none; stroke: #2ca02c; stroke-width: 2; stroke-linecap: square"/>
   </g>
   <g id="line2d_18">
    <path d="M 68.75629 207.641447 
L 79.989354 207.994184 
L 91.222418 208.346921 
L 102.455482 208.699657 
L 113.688547 209.052394 
L 124.921611 209.405131 
L 136.154675 209.757867 
L 147.387739 210.110604 
L 158.620803 210.463341 
L 169.853867 210.816078 
L 181.086932 211.168814 
L 192.319996 211.521551 
L 203.55306 211.874288 
L 214.786124 212.227024 
L 226.019188 212.579761 
L 237.252252 212.932498 
L 248.485317 213.285234 
L 259.718381 213.637971 
L 270.951445 213.990708 
L 282.184509 214.343445 
L 293.417573 214.696181 
L 304.650638 215.048918 
L 315.883702 215.401655 
L 327.116766 215.754391 
L 338.34983 216.107128 
L 349.582894 216.459865 
L 360.815958 216.812601 
L 372.049023 217.165338 
L 383.282087 217.518075 
" clip-path="url(#p946edbc265)" style="fill: none; stroke: #1f77b4; stroke-width: 2; stroke-linecap: square"/>
   </g>
   <g id="line2d_19">
    <path d="M 68.75629 264.331274 
L 79.989354 264.684011 
L 91.222418 265.036747 
L 102.455482 265.389484 
L 113.688547 265.742221 
L 124.921611 266.094958 
L 136.154675 266.447694 
L 147.387739 266.800431 
L 158.620803 267.153168 
L 169.853867 267.505904 
L 181.086932 267.858641 
L 192.319996 268.211378 
L 203.55306 268.564114 
L 214.786124 268.916851 
L 226.019188 269.269588 
L 237.252252 269.622325 
L 248.485317 269.975061 
L 259.718381 270.327798 
L 270.951445 270.680535 
L 282.184509 271.033271 
L 293.417573 271.386008 
L 304.650638 271.738745 
L 315.883702 272.091481 
L 327.116766 272.444218 
L 338.34983 272.796955 
L 349.582894 273.149692 
L 360.815958 273.502428 
L 372.049023 273.855165 
L 383.282087 274.207902 
" clip-path="url(#p946edbc265)" style="fill: none; stroke: #9467bd; stroke-width: 2; stroke-linecap: square"/>
   </g>
   <g id="line2d_20">
    <path d="M 53.03 182.445969 
L 399.008377 182.445969 
" clip-path="url(#p946edbc265)" style="fill: none; stroke-dasharray: 1,1.65; stroke-dashoffset: 0; stroke: #808080"/>
   </g>
   <g id="patch_3">
    <path d="M 53.03 303.64 
L 53.03 36.384 
" style="fill: none; stroke: #000000; stroke-width: 0.8; stroke-linejoin: miter; stroke-linecap: square"/>
   </g>
   <g id="patch_4">
    <path d="M 399.008377 303.64 
L 399.008377 36.384 
" style="fill: none; stroke: #000000; stroke-width: 0.8; stroke-linejoin: miter; stroke-linecap: square"/>
   </g>
   <g id="patch_5">
    <path d="M 53.03 303.64 
L 399.008377 303.64 
" style="fill: none; stroke: #000000; stroke-width: 0.8; stroke-linejoin: miter; stroke-linecap: square"/>
   </g>
   <g id="patch_6">
    <path d="M 53.03 36.384 
L 399.008377 36.384 
" style="fill: none; stroke: #000000; stroke-width: 0.8; stroke-linejoin: miter; stroke-linecap: square"/>
   </g>
   <g id="text_17">
    <!-- Q90 -->
    <g style="fill: #d62728" transform="translate(386.652006 68.690672) scale(0.085 -0.085)">
     <defs>
      <path id="DejaVuSans-51" d="M 2522 4238 
Q 1834 4238 1429 3725 
Q 1025 3213 1025 2328 
Q 1025 1447 1429 934 
Q 1834 422 2522 422 
Q 3209 422 3611 934 
Q 4013 1447 4013 2328 
Q 4013 3213 3611 3725 
Q 3209 4238 2522 4238 
z
M 3406 84 
L 4238 -825 
L 3475 -825 
L 2784 -78 
Q 2681 -84 2626 -87 
Q 2572 -91 2522 -91 
Q 1538 -91 948 567 
Q 359 1225 359 2328 
Q 359 3434 948 4092 
Q 1538 4750 2522 4750 
Q 3503 4750 4090 4092 
Q 4678 3434 4678 2328 
Q 4678 1516 4351 937 
Q 4025 359 3406 84 
z
" transform="scale(0.015625)"/>
      <path id="DejaVuSans-39" d="M 703 97 
L 703 672 
Q 941 559 1184 500 
Q 1428 441 1663 441 
Q 2288 441 2617 861 
Q 2947 1281 2994 2138 
Q 2813 1869 2534 1725 
Q 2256 1581 1919 1581 
Q 1219 1581 811 2004 
Q 403 2428 403 3163 
Q 403 3881 828 4315 
Q 1253 4750 1959 4750 
Q 2769 4750 3195 4129 
Q 3622 3509 3622 2328 
Q 3622 1225 3098 567 
Q 2575 -91 1691 -91 
Q 1453 -91 1209 -44 
Q 966 3 703 97 
z
M 1959 2075 
Q 2384 2075 2632 2365 
Q 2881 2656 2881 3163 
Q 2881 3666 2632 3958 
Q 2384 4250 1959 4250 
Q 1534 4250 1286 3958 
Q 1038 3666 1038 3163 
Q 1038 2656 1286 2365 
Q 1534 2075 1959 2075 
z
" transform="scale(0.015625)"/>
     </defs>
     <use xlink:href="#DejaVuSans-51"/>
     <use xlink:href="#DejaVuSans-39" transform="translate(78.710938 0)"/>
     <use xlink:href="#DejaVuSans-30" transform="translate(142.333984 0)"/>
    </g>
   </g>
   <g id="text_18">
    <!-- Q75 -->
    <g style="fill: #ff7f0e" transform="translate(386.652006 137.978238) scale(0.085 -0.085)">
     <defs>
      <path id="DejaVuSans-37" d="M 525 4666 
L 3525 4666 
L 3525 4397 
L 1831 0 
L 1172 0 
L 2766 4134 
L 525 4134 
L 525 4666 
z
" transform="scale(0.015625)"/>
     </defs>
     <use xlink:href="#DejaVuSans-51"/>
     <use xlink:href="#DejaVuSans-37" transform="translate(78.710938 0)"/>
     <use xlink:href="#DejaVuSans-35" transform="translate(142.333984 0)"/>
    </g>
   </g>
   <g id="text_19">
    <!-- Q50 -->
    <g style="fill: #2ca02c" transform="translate(386.652006 178.920891) scale(0.085 -0.085)">
     <use xlink:href="#DejaVuSans-51"/>
     <use xlink:href="#DejaVuSans-35" transform="translate(78.710938 0)"/>
     <use xlink:href="#DejaVuSans-30" transform="translate(142.333984 0)"/>
    </g>
   </g>
   <g id="text_20">
    <!-- Q25 -->
    <g style="fill: #1f77b4" transform="translate(386.652006 219.863544) scale(0.085 -0.085)">
     <use xlink:href="#DejaVuSans-51"/>
     <use xlink:href="#DejaVuSans-32" transform="translate(78.710938 0)"/>
     <use xlink:href="#DejaVuSans-35" transform="translate(142.333984 0)"/>
    </g>
   </g>
   <g id="text_21">
    <!-- Q10 -->
    <g style="fill: #9467bd" transform="translate(386.652006 276.55337) scale(0.085 -0.085)">
     <use xlink:href="#DejaVuSans-51"/>
     <use xlink:href="#DejaVuSans-31" transform="translate(78.710938 0)"/>
     <use xlink:href="#DejaVuSans-30" transform="translate(142.333984 0)"/>
    </g>
   </g>
   <g id="text_22">
    <!-- HYPOTHETICAL: pure level shift -->
    <g transform="translate(143.631102 18.626297) scale(0.105 -0.105)">
     <defs>
      <path id="DejaVuSans-48" d="M 628 4666 
L 1259 4666 
L 1259 2753 
L 3553 2753 
L 3553 4666 
L 4184 4666 
L 4184 0 
L 3553 0 
L 3553 2222 
L 1259 2222 
L 1259 0 
L 628 0 
L 628 4666 
z
" transform="scale(0.015625)"/>
      <path id="DejaVuSans-59" d="M -13 4666 
L 666 4666 
L 1959 2747 
L 3244 4666 
L 3922 4666 
L 2272 2222 
L 2272 0 
L 1638 0 
L 1638 2222 
L -13 4666 
z
" transform="scale(0.015625)"/>
      <path id="DejaVuSans-50" d="M 1259 4147 
L 1259 2394 
L 2053 2394 
Q 2494 2394 2734 2622 
Q 2975 2850 2975 3272 
Q 2975 3691 2734 3919 
Q 2494 4147 2053 4147 
L 1259 4147 
z
M 628 4666 
L 2053 4666 
Q 2838 4666 3239 4311 
Q 3641 3956 3641 3272 
Q 3641 2581 3239 2228 
Q 2838 1875 2053 1875 
L 1259 1875 
L 1259 0 
L 628 0 
L 628 4666 
z
" transform="scale(0.015625)"/>
      <path id="DejaVuSans-4f" d="M 2522 4238 
Q 1834 4238 1429 3725 
Q 1025 3213 1025 2328 
Q 1025 1447 1429 934 
Q 1834 422 2522 422 
Q 3209 422 3611 934 
Q 4013 1447 4013 2328 
Q 4013 3213 3611 3725 
Q 3209 4238 2522 4238 
z
M 2522 4750 
Q 3503 4750 4090 4092 
Q 4678 3434 4678 2328 
Q 4678 1225 4090 567 
Q 3503 -91 2522 -91 
Q 1538 -91 948 565 
Q 359 1222 359 2328 
Q 359 3434 948 4092 
Q 1538 4750 2522 4750 
z
" transform="scale(0.015625)"/>
      <path id="DejaVuSans-54" d="M -19 4666 
L 3928 4666 
L 3928 4134 
L 2272 4134 
L 2272 0 
L 1638 0 
L 1638 4134 
L -19 4134 
L -19 4666 
z
" transform="scale(0.015625)"/>
      <path id="DejaVuSans-45" d="M 628 4666 
L 3578 4666 
L 3578 4134 
L 1259 4134 
L 1259 2753 
L 3481 2753 
L 3481 2222 
L 1259 2222 
L 1259 531 
L 3634 531 
L 3634 0 
L 628 0 
L 628 4666 
z
" transform="scale(0.015625)"/>
      <path id="DejaVuSans-49" d="M 628 4666 
L 1259 4666 
L 1259 0 
L 628 0 
L 628 4666 
z
" transform="scale(0.015625)"/>
      <path id="DejaVuSans-43" d="M 4122 4306 
L 4122 3641 
Q 3803 3938 3442 4084 
Q 3081 4231 2675 4231 
Q 1875 4231 1450 3742 
Q 1025 3253 1025 2328 
Q 1025 1406 1450 917 
Q 1875 428 2675 428 
Q 3081 428 3442 575 
Q 3803 722 4122 1019 
L 4122 359 
Q 3791 134 3420 21 
Q 3050 -91 2638 -91 
Q 1578 -91 968 557 
Q 359 1206 359 2328 
Q 359 3453 968 4101 
Q 1578 4750 2638 4750 
Q 3056 4750 3426 4639 
Q 3797 4528 4122 4306 
z
" transform="scale(0.015625)"/>
      <path id="DejaVuSans-41" d="M 2188 4044 
L 1331 1722 
L 3047 1722 
L 2188 4044 
z
M 1831 4666 
L 2547 4666 
L 4325 0 
L 3669 0 
L 3244 1197 
L 1141 1197 
L 716 0 
L 50 0 
L 1831 4666 
z
" transform="scale(0.015625)"/>
      <path id="DejaVuSans-4c" d="M 628 4666 
L 1259 4666 
L 1259 531 
L 3531 531 
L 3531 0 
L 628 0 
L 628 4666 
z
" transform="scale(0.015625)"/>
      <path id="DejaVuSans-3a" d="M 750 794 
L 1409 794 
L 1409 0 
L 750 0 
L 750 794 
z
M 750 3309 
L 1409 3309 
L 1409 2516 
L 750 2516 
L 750 3309 
z
" transform="scale(0.015625)"/>
      <path id="DejaVuSans-75" d="M 544 1381 
L 544 3500 
L 1119 3500 
L 1119 1403 
Q 1119 906 1312 657 
Q 1506 409 1894 409 
Q 2359 409 2629 706 
Q 2900 1003 2900 1516 
L 2900 3500 
L 3475 3500 
L 3475 0 
L 2900 0 
L 2900 538 
Q 2691 219 2414 64 
Q 2138 -91 1772 -91 
Q 1169 -91 856 284 
Q 544 659 544 1381 
z
M 1991 3584 
L 1991 3584 
z
" transform="scale(0.015625)"/>
      <path id="DejaVuSans-6c" d="M 603 4863 
L 1178 4863 
L 1178 0 
L 603 0 
L 603 4863 
z
" transform="scale(0.015625)"/>
      <path id="DejaVuSans-76" d="M 191 3500 
L 800 3500 
L 1894 563 
L 2988 3500 
L 3597 3500 
L 2284 0 
L 1503 0 
L 191 3500 
z
" transform="scale(0.015625)"/>
      <path id="DejaVuSans-66" d="M 2375 4863 
L 2375 4384 
L 1825 4384 
Q 1516 4384 1395 4259 
Q 1275 4134 1275 3809 
L 1275 3500 
L 2222 3500 
L 2222 3053 
L 1275 3053 
L 1275 0 
L 697 0 
L 697 3053 
L 147 3053 
L 147 3500 
L 697 3500 
L 697 3744 
Q 697 4328 969 4595 
Q 1241 4863 1831 4863 
L 2375 4863 
z
" transform="scale(0.015625)"/>
     </defs>
     <use xlink:href="#DejaVuSans-48"/>
     <use xlink:href="#DejaVuSans-59" transform="translate(75.195312 0)"/>
     <use xlink:href="#DejaVuSans-50" transform="translate(136.279297 0)"/>
     <use xlink:href="#DejaVuSans-4f" transform="translate(196.582031 0)"/>
     <use xlink:href="#DejaVuSans-54" transform="translate(275.292969 0)"/>
     <use xlink:href="#DejaVuSans-48" transform="translate(336.376953 0)"/>
     <use xlink:href="#DejaVuSans-45" transform="translate(411.572266 0)"/>
     <use xlink:href="#DejaVuSans-54" transform="translate(474.755859 0)"/>
     <use xlink:href="#DejaVuSans-49" transform="translate(535.839844 0)"/>
     <use xlink:href="#DejaVuSans-43" transform="translate(565.332031 0)"/>
     <use xlink:href="#DejaVuSans-41" transform="translate(635.15625 0)"/>
     <use xlink:href="#DejaVuSans-4c" transform="translate(703.564453 0)"/>
     <use xlink:href="#DejaVuSans-3a" transform="translate(759.277344 0)"/>
     <use xlink:href="#DejaVuSans-20" transform="translate(792.96875 0)"/>
     <use xlink:href="#DejaVuSans-70" transform="translate(824.755859 0)"/>
     <use xlink:href="#DejaVuSans-75" transform="translate(888.232422 0)"/>
     <use xlink:href="#DejaVuSans-72" transform="translate(951.611328 0)"/>
     <use xlink:href="#DejaVuSans-65" transform="translate(990.474609 0)"/>
     <use xlink:href="#DejaVuSans-20" transform="translate(1051.998047 0)"/>
     <use xlink:href="#DejaVuSans-6c" transform="translate(1083.785156 0)"/>
     <use xlink:href="#DejaVuSans-65" transform="translate(1111.568359 0)"/>
     <use xlink:href="#DejaVuSans-76" transform="translate(1173.091797 0)"/>
     <use xlink:href="#DejaVuSans-65" transform="translate(1232.271484 0)"/>
     <use xlink:href="#DejaVuSans-6c" transform="translate(1293.794922 0)"/>
     <use xlink:href="#DejaVuSans-20" transform="translate(1321.578125 0)"/>
     <use xlink:href="#DejaVuSans-73" transform="translate(1353.365234 0)"/>
     <use xlink:href="#DejaVuSans-68" transform="translate(1405.464844 0)"/>
     <use xlink:href="#DejaVuSans-69" transform="translate(1468.84375 0)"/>
     <use xlink:href="#DejaVuSans-66" transform="translate(1496.626953 0)"/>
     <use xlink:href="#DejaVuSans-74" transform="translate(1530.082031 0)"/>
    </g>
    <!-- all quantiles slide in parallel → shape unchanged -->
    <g transform="translate(97.97661 30.384) scale(0.105 -0.105)">
     <defs>
      <path id="DejaVuSans-71" d="M 947 1747 
Q 947 1113 1208 752 
Q 1469 391 1925 391 
Q 2381 391 2643 752 
Q 2906 1113 2906 1747 
Q 2906 2381 2643 2742 
Q 2381 3103 1925 3103 
Q 1469 3103 1208 2742 
Q 947 2381 947 1747 
z
M 2906 525 
Q 2725 213 2448 61 
Q 2172 -91 1784 -91 
Q 1150 -91 751 415 
Q 353 922 353 1747 
Q 353 2572 751 3078 
Q 1150 3584 1784 3584 
Q 2172 3584 2448 3432 
Q 2725 3281 2906 2969 
L 2906 3500 
L 3481 3500 
L 3481 -1331 
L 2906 -1331 
L 2906 525 
z
" transform="scale(0.015625)"/>
      <path id="DejaVuSans-64" d="M 2906 2969 
L 2906 4863 
L 3481 4863 
L 3481 0 
L 2906 0 
L 2906 525 
Q 2725 213 2448 61 
Q 2172 -91 1784 -91 
Q 1150 -91 751 415 
Q 353 922 353 1747 
Q 353 2572 751 3078 
Q 1150 3584 1784 3584 
Q 2172 3584 2448 3432 
Q 2725 3281 2906 2969 
z
M 947 1747 
Q 947 1113 1208 752 
Q 1469 391 1925 391 
Q 2381 391 2643 752 
Q 2906 1113 2906 1747 
Q 2906 2381 2643 2742 
Q 2381 3103 1925 3103 
Q 1469 3103 1208 2742 
Q 947 2381 947 1747 
z
" transform="scale(0.015625)"/>
      <path id="DejaVuSans-2192" d="M 5050 2147 
L 5050 1866 
L 3822 638 
L 3447 1013 
L 4175 1741 
L 366 1741 
L 366 2272 
L 4175 2272 
L 3447 3000 
L 3822 3375 
L 5050 2147 
z
" transform="scale(0.015625)"/>
      <path id="DejaVuSans-63" d="M 3122 3366 
L 3122 2828 
Q 2878 2963 2633 3030 
Q 2388 3097 2138 3097 
Q 1578 3097 1268 2742 
Q 959 2388 959 1747 
Q 959 1106 1268 751 
Q 1578 397 2138 397 
Q 2388 397 2633 464 
Q 2878 531 3122 666 
L 3122 134 
Q 2881 22 2623 -34 
Q 2366 -91 2075 -91 
Q 1284 -91 818 406 
Q 353 903 353 1747 
Q 353 2603 823 3093 
Q 1294 3584 2113 3584 
Q 2378 3584 2631 3529 
Q 2884 3475 3122 3366 
z
" transform="scale(0.015625)"/>
     </defs>
     <use xlink:href="#DejaVuSans-61"/>
     <use xlink:href="#DejaVuSans-6c" transform="translate(61.279297 0)"/>
     <use xlink:href="#DejaVuSans-6c" transform="translate(89.0625 0)"/>
     <use xlink:href="#DejaVuSans-20" transform="translate(116.845703 0)"/>
     <use xlink:href="#DejaVuSans-71" transform="translate(148.632812 0)"/>
     <use xlink:href="#DejaVuSans-75" transform="translate(212.109375 0)"/>
     <use xlink:href="#DejaVuSans-61" transform="translate(275.488281 0)"/>
     <use xlink:href="#DejaVuSans-6e" transform="translate(336.767578 0)"/>
     <use xlink:href="#DejaVuSans-74" transform="translate(400.146484 0)"/>
     <use xlink:href="#DejaVuSans-69" transform="translate(439.355469 0)"/>
     <use xlink:href="#DejaVuSans-6c" transform="translate(467.138672 0)"/>
     <use xlink:href="#DejaVuSans-65" transform="translate(494.921875 0)"/>
     <use xlink:href="#DejaVuSans-73" transform="translate(556.445312 0)"/>
     <use xlink:href="#DejaVuSans-20" transform="translate(608.544922 0)"/>
     <use xlink:href="#DejaVuSans-73" transform="translate(640.332031 0)"/>
     <use xlink:href="#DejaVuSans-6c" transform="translate(692.431641 0)"/>
     <use xlink:href="#DejaVuSans-69" transform="translate(720.214844 0)"/>
     <use xlink:href="#DejaVuSans-64" transform="translate(747.998047 0)"/>
     <use xlink:href="#DejaVuSans-65" transform="translate(811.474609 0)"/>
     <use xlink:href="#DejaVuSans-20" transform="translate(872.998047 0)"/>
     <use xlink:href="#DejaVuSans-69" transform="translate(904.785156 0)"/>
     <use xlink:href="#DejaVuSans-6e" transform="translate(932.568359 0)"/>
     <use xlink:href="#DejaVuSans-20" transform="translate(995.947266 0)"/>
     <use xlink:href="#DejaVuSans-70" transform="translate(1027.734375 0)"/>
     <use xlink:href="#DejaVuSans-61" transform="translate(1091.210938 0)"/>
     <use xlink:href="#DejaVuSans-72" transform="translate(1152.490234 0)"/>
     <use xlink:href="#DejaVuSans-61" transform="translate(1193.603516 0)"/>
     <use xlink:href="#DejaVuSans-6c" transform="translate(1254.882812 0)"/>
     <use xlink:href="#DejaVuSans-6c" transform="translate(1282.666016 0)"/>
     <use xlink:href="#DejaVuSans-65" transform="translate(1310.449219 0)"/>
     <use xlink:href="#DejaVuSans-6c" transform="translate(1371.972656 0)"/>
     <use xlink:href="#DejaVuSans-20" transform="translate(1399.755859 0)"/>
     <use xlink:href="#DejaVuSans-2192" transform="translate(1431.542969 0)"/>
     <use xlink:href="#DejaVuSans-20" transform="translate(1515.332031 0)"/>
     <use xlink:href="#DejaVuSans-73" transform="translate(1547.119141 0)"/>
     <use xlink:href="#DejaVuSans-68" transform="translate(1599.21875 0)"/>
     <use xlink:href="#DejaVuSans-61" transform="translate(1662.597656 0)"/>
     <use xlink:href="#DejaVuSans-70" transform="translate(1723.876953 0)"/>
     <use xlink:href="#DejaVuSans-65" transform="translate(1787.353516 0)"/>
     <use xlink:href="#DejaVuSans-20" transform="translate(1848.876953 0)"/>
     <use xlink:href="#DejaVuSans-75" transform="translate(1880.664062 0)"/>
     <use xlink:href="#DejaVuSans-6e" transform="translate(1944.042969 0)"/>
     <use xlink:href="#DejaVuSans-63" transform="translate(2007.421875 0)"/>
     <use xlink:href="#DejaVuSans-68" transform="translate(2062.402344 0)"/>
     <use xlink:href="#DejaVuSans-61" transform="translate(2125.78125 0)"/>
     <use xlink:href="#DejaVuSans-6e" transform="translate(2187.060547 0)"/>
     <use xlink:href="#DejaVuSans-67" transform="translate(2250.439453 0)"/>
     <use xlink:href="#DejaVuSans-65" transform="translate(2313.916016 0)"/>
     <use xlink:href="#DejaVuSans-64" transform="translate(2375.439453 0)"/>
    </g>
   </g>
  </g>
  <g id="axes_2">
   <g id="patch_7">
    <path d="M 420.804091 303.64 
L 766.782468 303.64 
L 766.782468 36.384 
L 420.804091 36.384 
z
" style="fill: #ffffff"/>
   </g>
   <g id="matplotlib.axis_3">
    <g id="xtick_7">
     <g id="line2d_21">
      <g>
       <use xlink:href="#m4fef6888de" x="470.229573" y="303.64" style="stroke: #000000; stroke-width: 0.8"/>
      </g>
     </g>
     <g id="text_23">
      <!-- 2000 -->
      <g transform="translate(457.504573 318.238437) scale(0.1 -0.1)">
       <use xlink:href="#DejaVuSans-32"/>
       <use xlink:href="#DejaVuSans-30" transform="translate(63.623047 0)"/>
       <use xlink:href="#DejaVuSans-30" transform="translate(127.246094 0)"/>
       <use xlink:href="#DejaVuSans-30" transform="translate(190.869141 0)"/>
      </g>
     </g>
    </g>
    <g id="xtick_8">
     <g id="line2d_22">
      <g>
       <use xlink:href="#m4fef6888de" x="526.394894" y="303.64" style="stroke: #000000; stroke-width: 0.8"/>
      </g>
     </g>
     <g id="text_24">
      <!-- 2005 -->
      <g transform="translate(513.669894 318.238437) scale(0.1 -0.1)">
       <use xlink:href="#DejaVuSans-32"/>
       <use xlink:href="#DejaVuSans-30" transform="translate(63.623047 0)"/>
       <use xlink:href="#DejaVuSans-30" transform="translate(127.246094 0)"/>
       <use xlink:href="#DejaVuSans-35" transform="translate(190.869141 0)"/>
      </g>
     </g>
    </g>
    <g id="xtick_9">
     <g id="line2d_23">
      <g>
       <use xlink:href="#m4fef6888de" x="582.560215" y="303.64" style="stroke: #000000; stroke-width: 0.8"/>
      </g>
     </g>
     <g id="text_25">
      <!-- 2010 -->
      <g transform="translate(569.835215 318.238437) scale(0.1 -0.1)">
       <use xlink:href="#DejaVuSans-32"/>
       <use xlink:href="#DejaVuSans-30" transform="translate(63.623047 0)"/>
       <use xlink:href="#DejaVuSans-31" transform="translate(127.246094 0)"/>
       <use xlink:href="#DejaVuSans-30" transform="translate(190.869141 0)"/>
      </g>
     </g>
    </g>
    <g id="xtick_10">
     <g id="line2d_24">
      <g>
       <use xlink:href="#m4fef6888de" x="638.725536" y="303.64" style="stroke: #000000; stroke-width: 0.8"/>
      </g>
     </g>
     <g id="text_26">
      <!-- 2015 -->
      <g transform="translate(626.000536 318.238437) scale(0.1 -0.1)">
       <use xlink:href="#DejaVuSans-32"/>
       <use xlink:href="#DejaVuSans-30" transform="translate(63.623047 0)"/>
       <use xlink:href="#DejaVuSans-31" transform="translate(127.246094 0)"/>
       <use xlink:href="#DejaVuSans-35" transform="translate(190.869141 0)"/>
      </g>
     </g>
    </g>
    <g id="xtick_11">
     <g id="line2d_25">
      <g>
       <use xlink:href="#m4fef6888de" x="694.890857" y="303.64" style="stroke: #000000; stroke-width: 0.8"/>
      </g>
     </g>
     <g id="text_27">
      <!-- 2020 -->
      <g transform="translate(682.165857 318.238437) scale(0.1 -0.1)">
       <use xlink:href="#DejaVuSans-32"/>
       <use xlink:href="#DejaVuSans-30" transform="translate(63.623047 0)"/>
       <use xlink:href="#DejaVuSans-32" transform="translate(127.246094 0)"/>
       <use xlink:href="#DejaVuSans-30" transform="translate(190.869141 0)"/>
      </g>
     </g>
    </g>
    <g id="xtick_12">
     <g id="line2d_26">
      <g>
       <use xlink:href="#m4fef6888de" x="751.056178" y="303.64" style="stroke: #000000; stroke-width: 0.8"/>
      </g>
     </g>
     <g id="text_28">
      <!-- 2025 -->
      <g transform="translate(738.331178 318.238437) scale(0.1 -0.1)">
       <use xlink:href="#DejaVuSans-32"/>
       <use xlink:href="#DejaVuSans-30" transform="translate(63.623047 0)"/>
       <use xlink:href="#DejaVuSans-32" transform="translate(127.246094 0)"/>
       <use xlink:href="#DejaVuSans-35" transform="translate(190.869141 0)"/>
      </g>
     </g>
    </g>
    <g id="text_29">
     <!-- season -->
     <g transform="translate(576.215154 331.916562) scale(0.1 -0.1)">
      <use xlink:href="#DejaVuSans-73"/>
      <use xlink:href="#DejaVuSans-65" transform="translate(52.099609 0)"/>
      <use xlink:href="#DejaVuSans-61" transform="translate(113.623047 0)"/>
      <use xlink:href="#DejaVuSans-73" transform="translate(174.902344 0)"/>
      <use xlink:href="#DejaVuSans-6f" transform="translate(227.001953 0)"/>
      <use xlink:href="#DejaVuSans-6e" transform="translate(288.183594 0)"/>
     </g>
    </g>
   </g>
   <g id="matplotlib.axis_4">
    <g id="ytick_9">
     <g id="line2d_27">
      <g>
       <use xlink:href="#m1fe5dee340" x="420.804091" y="276.929013" style="stroke: #000000; stroke-width: 0.8"/>
      </g>
     </g>
    </g>
    <g id="ytick_10">
     <g id="line2d_28">
      <g>
       <use xlink:href="#m1fe5dee340" x="420.804091" y="245.434665" style="stroke: #000000; stroke-width: 0.8"/>
      </g>
     </g>
    </g>
    <g id="ytick_11">
     <g id="line2d_29">
      <g>
       <use xlink:href="#m1fe5dee340" x="420.804091" y="213.940317" style="stroke: #000000; stroke-width: 0.8"/>
      </g>
     </g>
    </g>
    <g id="ytick_12">
     <g id="line2d_30">
      <g>
       <use xlink:href="#m1fe5dee340" x="420.804091" y="182.445969" style="stroke: #000000; stroke-width: 0.8"/>
      </g>
     </g>
    </g>
    <g id="ytick_13">
     <g id="line2d_31">
      <g>
       <use xlink:href="#m1fe5dee340" x="420.804091" y="150.95162" style="stroke: #000000; stroke-width: 0.8"/>
      </g>
     </g>
    </g>
    <g id="ytick_14">
     <g id="line2d_32">
      <g>
       <use xlink:href="#m1fe5dee340" x="420.804091" y="119.457272" style="stroke: #000000; stroke-width: 0.8"/>
      </g>
     </g>
    </g>
    <g id="ytick_15">
     <g id="line2d_33">
      <g>
       <use xlink:href="#m1fe5dee340" x="420.804091" y="87.962924" style="stroke: #000000; stroke-width: 0.8"/>
      </g>
     </g>
    </g>
    <g id="ytick_16">
     <g id="line2d_34">
      <g>
       <use xlink:href="#m1fe5dee340" x="420.804091" y="56.468576" style="stroke: #000000; stroke-width: 0.8"/>
      </g>
     </g>
    </g>
   </g>
   <g id="line2d_35">
    <path d="M 436.530381 56.468576 
L 447.763445 56.185127 
L 458.996509 55.901677 
L 470.229573 55.618228 
L 481.462637 55.334779 
L 492.695702 55.05133 
L 503.928766 54.767881 
L 515.16183 54.484432 
L 526.394894 54.200983 
L 537.627958 53.917534 
L 548.861023 53.634084 
L 560.094087 53.350635 
L 571.327151 53.067186 
L 582.560215 52.783737 
L 593.793279 52.500288 
L 605.026343 52.216839 
L 616.259408 51.93339 
L 627.492472 51.64994 
L 638.725536 51.366491 
L 649.9586 51.083042 
L 661.191664 50.799593 
L 672.424728 50.516144 
L 683.657793 50.232695 
L 694.890857 49.949246 
L 706.123921 49.665797 
L 717.356985 49.382347 
L 728.590049 49.098898 
L 739.823114 48.815449 
L 751.056178 48.532 
" clip-path="url(#p465ddb83e0)" style="fill: none; stroke: #d62728; stroke-width: 2; stroke-linecap: square"/>
   </g>
   <g id="line2d_36">
    <path d="M 436.530381 125.756142 
L 447.763445 125.756142 
L 458.996509 125.756142 
L 470.229573 125.756142 
L 481.462637 125.756142 
L 492.695702 125.756142 
L 503.928766 125.756142 
L 515.16183 125.756142 
L 526.394894 125.756142 
L 537.627958 125.756142 
L 548.861023 125.756142 
L 560.094087 125.756142 
L 571.327151 125.756142 
L 582.560215 125.756142 
L 593.793279 125.756142 
L 605.026343 125.756142 
L 616.259408 125.756142 
L 627.492472 125.756142 
L 638.725536 125.756142 
L 649.9586 125.756142 
L 661.191664 125.756142 
L 672.424728 125.756142 
L 683.657793 125.756142 
L 694.890857 125.756142 
L 706.123921 125.756142 
L 717.356985 125.756142 
L 728.590049 125.756142 
L 739.823114 125.756142 
L 751.056178 125.756142 
" clip-path="url(#p465ddb83e0)" style="fill: none; stroke: #ff7f0e; stroke-width: 2; stroke-linecap: square"/>
   </g>
   <g id="line2d_37">
    <path d="M 436.530381 166.698795 
L 447.763445 167.051531 
L 458.996509 167.404268 
L 470.229573 167.757005 
L 481.462637 168.109741 
L 492.695702 168.462478 
L 503.928766 168.815215 
L 515.16183 169.167951 
L 526.394894 169.520688 
L 537.627958 169.873425 
L 548.861023 170.226162 
L 560.094087 170.578898 
L 571.327151 170.931635 
L 582.560215 171.284372 
L 593.793279 171.637108 
L 605.026343 171.989845 
L 616.259408 172.342582 
L 627.492472 172.695318 
L 638.725536 173.048055 
L 649.9586 173.400792 
L 661.191664 173.753529 
L 672.424728 174.106265 
L 683.657793 174.459002 
L 694.890857 174.811739 
L 706.123921 175.164475 
L 717.356985 175.517212 
L 728.590049 175.869949 
L 739.823114 176.222685 
L 751.056178 176.575422 
" clip-path="url(#p465ddb83e0)" style="fill: none; stroke: #2ca02c; stroke-width: 2; stroke-linecap: square"/>
   </g>
   <g id="line2d_38">
    <path d="M 436.530381 207.641447 
L 447.763445 208.214644 
L 458.996509 208.787842 
L 470.229573 209.361039 
L 481.462637 209.934236 
L 492.695702 210.507433 
L 503.928766 211.08063 
L 515.16183 211.653827 
L 526.394894 212.227024 
L 537.627958 212.800222 
L 548.861023 213.373419 
L 560.094087 213.946616 
L 571.327151 214.519813 
L 582.560215 215.09301 
L 593.793279 215.666207 
L 605.026343 216.239404 
L 616.259408 216.812601 
L 627.492472 217.385799 
L 638.725536 217.958996 
L 649.9586 218.532193 
L 661.191664 219.10539 
L 672.424728 219.678587 
L 683.657793 220.251784 
L 694.890857 220.824981 
L 706.123921 221.398179 
L 717.356985 221.971376 
L 728.590049 222.544573 
L 739.823114 223.11777 
L 751.056178 223.690967 
" clip-path="url(#p465ddb83e0)" style="fill: none; stroke: #1f77b4; stroke-width: 2; stroke-linecap: square"/>
   </g>
   <g id="line2d_39">
    <path d="M 436.530381 264.331274 
L 447.763445 265.3013 
L 458.996509 266.271326 
L 470.229573 267.241352 
L 481.462637 268.211378 
L 492.695702 269.181404 
L 503.928766 270.15143 
L 515.16183 271.121456 
L 526.394894 272.091481 
L 537.627958 273.061507 
L 548.861023 274.031533 
L 560.094087 275.001559 
L 571.327151 275.971585 
L 582.560215 276.941611 
L 593.793279 277.911637 
L 605.026343 278.881663 
L 616.259408 279.851689 
L 627.492472 280.821715 
L 638.725536 281.791741 
L 649.9586 282.761767 
L 661.191664 283.731793 
L 672.424728 284.701819 
L 683.657793 285.671844 
L 694.890857 286.64187 
L 706.123921 287.611896 
L 717.356985 288.581922 
L 728.590049 289.551948 
L 739.823114 290.521974 
L 751.056178 291.492 
" clip-path="url(#p465ddb83e0)" style="fill: none; stroke: #9467bd; stroke-width: 2; stroke-linecap: square"/>
   </g>
   <g id="line2d_40">
    <path d="M 420.804091 182.445969 
L 766.782468 182.445969 
" clip-path="url(#p465ddb83e0)" style="fill: none; stroke-dasharray: 1,1.65; stroke-dashoffset: 0; stroke: #808080"/>
   </g>
   <g id="patch_8">
    <path d="M 420.804091 303.64 
L 420.804091 36.384 
" style="fill: none; stroke: #000000; stroke-width: 0.8; stroke-linejoin: miter; stroke-linecap: square"/>
   </g>
   <g id="patch_9">
    <path d="M 766.782468 303.64 
L 766.782468 36.384 
" style="fill: none; stroke: #000000; stroke-width: 0.8; stroke-linejoin: miter; stroke-linecap: square"/>
   </g>
   <g id="patch_10">
    <path d="M 420.804091 303.64 
L 766.782468 303.64 
" style="fill: none; stroke: #000000; stroke-width: 0.8; stroke-linejoin: miter; stroke-linecap: square"/>
   </g>
   <g id="patch_11">
    <path d="M 420.804091 36.384 
L 766.782468 36.384 
" style="fill: none; stroke: #000000; stroke-width: 0.8; stroke-linejoin: miter; stroke-linecap: square"/>
   </g>
   <g id="patch_12">
    <path d="M 751.056178 288.152138 
Q 751.056178 170.011136 751.056178 51.870135 
" style="fill: none; stroke: #000000; stroke-width: 1.2; stroke-linecap: round"/>
    <path d="M 753.056178 284.152138 
L 751.056178 288.152138 
L 749.056178 284.152138 
" style="fill: none; stroke: #000000; stroke-width: 1.2; stroke-linecap: round"/>
    <path d="M 749.056178 55.870135 
L 751.056178 51.870135 
L 753.056178 55.870135 
" style="fill: none; stroke: #000000; stroke-width: 1.2; stroke-linecap: round"/>
   </g>
   <g id="text_30">
    <!-- Q90−Q10 spread -->
    <g transform="translate(683.657793 147.732349) scale(0.085 -0.085)">
     <use xlink:href="#DejaVuSans-51"/>
     <use xlink:href="#DejaVuSans-39" transform="translate(78.710938 0)"/>
     <use xlink:href="#DejaVuSans-30" transform="translate(142.333984 0)"/>
     <use xlink:href="#DejaVuSans-2212" transform="translate(205.957031 0)"/>
     <use xlink:href="#DejaVuSans-51" transform="translate(289.746094 0)"/>
     <use xlink:href="#DejaVuSans-31" transform="translate(368.457031 0)"/>
     <use xlink:href="#DejaVuSans-30" transform="translate(432.080078 0)"/>
     <use xlink:href="#DejaVuSans-20" transform="translate(495.703125 0)"/>
     <use xlink:href="#DejaVuSans-73" transform="translate(527.490234 0)"/>
     <use xlink:href="#DejaVuSans-70" transform="translate(579.589844 0)"/>
     <use xlink:href="#DejaVuSans-72" transform="translate(643.066406 0)"/>
     <use xlink:href="#DejaVuSans-65" transform="translate(681.929688 0)"/>
     <use xlink:href="#DejaVuSans-61" transform="translate(743.453125 0)"/>
     <use xlink:href="#DejaVuSans-64" transform="translate(804.732422 0)"/>
    </g>
    <!-- grows +0.20 pts/yr -->
    <g transform="translate(683.657793 157.25049) scale(0.085 -0.085)">
     <defs>
      <path id="DejaVuSans-77" d="M 269 3500 
L 844 3500 
L 1563 769 
L 2278 3500 
L 2956 3500 
L 3675 769 
L 4391 3500 
L 4966 3500 
L 4050 0 
L 3372 0 
L 2619 2869 
L 1863 0 
L 1184 0 
L 269 3500 
z
" transform="scale(0.015625)"/>
      <path id="DejaVuSans-2b" d="M 2944 4013 
L 2944 2272 
L 4684 2272 
L 4684 1741 
L 2944 1741 
L 2944 0 
L 2419 0 
L 2419 1741 
L 678 1741 
L 678 2272 
L 2419 2272 
L 2419 4013 
L 2944 4013 
z
" transform="scale(0.015625)"/>
      <path id="DejaVuSans-2e" d="M 684 794 
L 1344 794 
L 1344 0 
L 684 0 
L 684 794 
z
" transform="scale(0.015625)"/>
      <path id="DejaVuSans-2f" d="M 1625 4666 
L 2156 4666 
L 531 -594 
L 0 -594 
L 1625 4666 
z
" transform="scale(0.015625)"/>
      <path id="DejaVuSans-79" d="M 2059 -325 
Q 1816 -950 1584 -1140 
Q 1353 -1331 966 -1331 
L 506 -1331 
L 506 -850 
L 844 -850 
Q 1081 -850 1212 -737 
Q 1344 -625 1503 -206 
L 1606 56 
L 191 3500 
L 800 3500 
L 1894 763 
L 2988 3500 
L 3597 3500 
L 2059 -325 
z
" transform="scale(0.015625)"/>
     </defs>
     <use xlink:href="#DejaVuSans-67"/>
     <use xlink:href="#DejaVuSans-72" transform="translate(63.476562 0)"/>
     <use xlink:href="#DejaVuSans-6f" transform="translate(102.339844 0)"/>
     <use xlink:href="#DejaVuSans-77" transform="translate(163.521484 0)"/>
     <use xlink:href="#DejaVuSans-73" transform="translate(245.308594 0)"/>
     <use xlink:href="#DejaVuSans-20" transform="translate(297.408203 0)"/>
     <use xlink:href="#DejaVuSans-2b" transform="translate(329.195312 0)"/>
     <use xlink:href="#DejaVuSans-30" transform="translate(412.984375 0)"/>
     <use xlink:href="#DejaVuSans-2e" transform="translate(476.607422 0)"/>
     <use xlink:href="#DejaVuSans-32" transform="translate(508.394531 0)"/>
     <use xlink:href="#DejaVuSans-30" transform="translate(572.017578 0)"/>
     <use xlink:href="#DejaVuSans-20" transform="translate(635.640625 0)"/>
     <use xlink:href="#DejaVuSans-70" transform="translate(667.427734 0)"/>
     <use xlink:href="#DejaVuSans-74" transform="translate(730.904297 0)"/>
     <use xlink:href="#DejaVuSans-73" transform="translate(770.113281 0)"/>
     <use xlink:href="#DejaVuSans-2f" transform="translate(822.212891 0)"/>
     <use xlink:href="#DejaVuSans-79" transform="translate(855.904297 0)"/>
     <use xlink:href="#DejaVuSans-72" transform="translate(915.083984 0)"/>
    </g>
   </g>
   <g id="text_31">
    <!-- ACTUAL DATA: polarization -->
    <g transform="translate(523.65574 18.626297) scale(0.105 -0.105)">
     <defs>
      <path id="DejaVuSans-55" d="M 556 4666 
L 1191 4666 
L 1191 1831 
Q 1191 1081 1462 751 
Q 1734 422 2344 422 
Q 2950 422 3222 751 
Q 3494 1081 3494 1831 
L 3494 4666 
L 4128 4666 
L 4128 1753 
Q 4128 841 3676 375 
Q 3225 -91 2344 -91 
Q 1459 -91 1007 375 
Q 556 841 556 1753 
L 556 4666 
z
" transform="scale(0.015625)"/>
      <path id="DejaVuSans-44" d="M 1259 4147 
L 1259 519 
L 2022 519 
Q 2988 519 3436 956 
Q 3884 1394 3884 2338 
Q 3884 3275 3436 3711 
Q 2988 4147 2022 4147 
L 1259 4147 
z
M 628 4666 
L 1925 4666 
Q 3281 4666 3915 4102 
Q 4550 3538 4550 2338 
Q 4550 1131 3912 565 
Q 3275 0 1925 0 
L 628 0 
L 628 4666 
z
" transform="scale(0.015625)"/>
      <path id="DejaVuSans-7a" d="M 353 3500 
L 3084 3500 
L 3084 2975 
L 922 459 
L 3084 459 
L 3084 0 
L 275 0 
L 275 525 
L 2438 3041 
L 353 3041 
L 353 3500 
z
" transform="scale(0.015625)"/>
     </defs>
     <use xlink:href="#DejaVuSans-41"/>
     <use xlink:href="#DejaVuSans-43" transform="translate(66.658203 0)"/>
     <use xlink:href="#DejaVuSans-54" transform="translate(136.482422 0)"/>
     <use xlink:href="#DejaVuSans-55" transform="translate(197.566406 0)"/>
     <use xlink:href="#DejaVuSans-41" transform="translate(270.759766 0)"/>
     <use xlink:href="#DejaVuSans-4c" transform="translate(339.167969 0)"/>
     <use xlink:href="#DejaVuSans-20" transform="translate(394.880859 0)"/>
     <use xlink:href="#DejaVuSans-44" transform="translate(426.667969 0)"/>
     <use xlink:href="#DejaVuSans-41" transform="translate(501.919922 0)"/>
     <use xlink:href="#DejaVuSans-54" transform="translate(562.578125 0)"/>
     <use xlink:href="#DejaVuSans-41" transform="translate(615.912109 0)"/>
     <use xlink:href="#DejaVuSans-3a" transform="translate(682.570312 0)"/>
     <use xlink:href="#DejaVuSans-20" transform="translate(716.261719 0)"/>
     <use xlink:href="#DejaVuSans-70" transform="translate(748.048828 0)"/>
     <use xlink:href="#DejaVuSans-6f" transform="translate(811.525391 0)"/>
     <use xlink:href="#DejaVuSans-6c" transform="translate(872.707031 0)"/>
     <use xlink:href="#DejaVuSans-61" transform="translate(900.490234 0)"/>
     <use xlink:href="#DejaVuSans-72" transform="translate(961.769531 0)"/>
     <use xlink:href="#DejaVuSans-69" transform="translate(1002.882812 0)"/>
     <use xlink:href="#DejaVuSans-7a" transform="translate(1030.666016 0)"/>
     <use xlink:href="#DejaVuSans-61" transform="translate(1083.15625 0)"/>
     <use xlink:href="#DejaVuSans-74" transform="translate(1144.435547 0)"/>
     <use xlink:href="#DejaVuSans-69" transform="translate(1183.644531 0)"/>
     <use xlink:href="#DejaVuSans-6f" transform="translate(1211.427734 0)"/>
     <use xlink:href="#DejaVuSans-6e" transform="translate(1272.609375 0)"/>
    </g>
    <!-- Q10 falls while Q90 rises → distribution widens -->
    <g transform="translate(470.990037 30.384) scale(0.105 -0.105)">
     <defs>
      <path id="DejaVuSans-62" d="M 3116 1747 
Q 3116 2381 2855 2742 
Q 2594 3103 2138 3103 
Q 1681 3103 1420 2742 
Q 1159 2381 1159 1747 
Q 1159 1113 1420 752 
Q 1681 391 2138 391 
Q 2594 391 2855 752 
Q 3116 1113 3116 1747 
z
M 1159 2969 
Q 1341 3281 1617 3432 
Q 1894 3584 2278 3584 
Q 2916 3584 3314 3078 
Q 3713 2572 3713 1747 
Q 3713 922 3314 415 
Q 2916 -91 2278 -91 
Q 1894 -91 1617 61 
Q 1341 213 1159 525 
L 1159 0 
L 581 0 
L 581 4863 
L 1159 4863 
L 1159 2969 
z
" transform="scale(0.015625)"/>
     </defs>
     <use xlink:href="#DejaVuSans-51"/>
     <use xlink:href="#DejaVuSans-31" transform="translate(78.710938 0)"/>
     <use xlink:href="#DejaVuSans-30" transform="translate(142.333984 0)"/>
     <use xlink:href="#DejaVuSans-20" transform="translate(205.957031 0)"/>
     <use xlink:href="#DejaVuSans-66" transform="translate(237.744141 0)"/>
     <use xlink:href="#DejaVuSans-61" transform="translate(272.949219 0)"/>
     <use xlink:href="#DejaVuSans-6c" transform="translate(334.228516 0)"/>
     <use xlink:href="#DejaVuSans-6c" transform="translate(362.011719 0)"/>
     <use xlink:href="#DejaVuSans-73" transform="translate(389.794922 0)"/>
     <use xlink:href="#DejaVuSans-20" transform="translate(441.894531 0)"/>
     <use xlink:href="#DejaVuSans-77" transform="translate(473.681641 0)"/>
     <use xlink:href="#DejaVuSans-68" transform="translate(555.46875 0)"/>
     <use xlink:href="#DejaVuSans-69" transform="translate(618.847656 0)"/>
     <use xlink:href="#DejaVuSans-6c" transform="translate(646.630859 0)"/>
     <use xlink:href="#DejaVuSans-65" transform="translate(674.414062 0)"/>
     <use xlink:href="#DejaVuSans-20" transform="translate(735.9375 0)"/>
     <use xlink:href="#DejaVuSans-51" transform="translate(767.724609 0)"/>
     <use xlink:href="#DejaVuSans-39" transform="translate(846.435547 0)"/>
     <use xlink:href="#DejaVuSans-30" transform="translate(910.058594 0)"/>
     <use xlink:href="#DejaVuSans-20" transform="translate(973.681641 0)"/>
     <use xlink:href="#DejaVuSans-72" transform="translate(1005.46875 0)"/>
     <use xlink:href="#DejaVuSans-69" transform="translate(1046.582031 0)"/>
     <use xlink:href="#DejaVuSans-73" transform="translate(1074.365234 0)"/>
     <use xlink:href="#DejaVuSans-65" transform="translate(1126.464844 0)"/>
     <use xlink:href="#DejaVuSans-73" transform="translate(1187.988281 0)"/>
     <use xlink:href="#DejaVuSans-20" transform="translate(1240.087891 0)"/>
     <use xlink:href="#DejaVuSans-2192" transform="translate(1271.875 0)"/>
     <use xlink:href="#DejaVuSans-20" transform="translate(1355.664062 0)"/>
     <use xlink:href="#DejaVuSans-64" transform="translate(1387.451172 0)"/>
     <use xlink:href="#DejaVuSans-69" transform="translate(1450.927734 0)"/>
     <use xlink:href="#DejaVuSans-73" transform="translate(1478.710938 0)"/>
     <use xlink:href="#DejaVuSans-74" transform="translate(1530.810547 0)"/>
     <use xlink:href="#DejaVuSans-72" transform="translate(1570.019531 0)"/>
     <use xlink:href="#DejaVuSans-69" transform="translate(1611.132812 0)"/>
     <use xlink:href="#DejaVuSans-62" transform="translate(1638.916016 0)"/>
     <use xlink:href="#DejaVuSans-75" transform="translate(1702.392578 0)"/>
     <use xlink:href="#DejaVuSans-74" transform="translate(1765.771484 0)"/>
     <use xlink:href="#DejaVuSans-69" transform="translate(1804.980469 0)"/>
     <use xlink:href="#DejaVuSans-6f" transform="translate(1832.763672 0)"/>
     <use xlink:href="#DejaVuSans-6e" transform="translate(1893.945312 0)"/>
     <use xlink:href="#DejaVuSans-20" transform="translate(1957.324219 0)"/>
     <use xlink:href="#DejaVuSans-77" transform="translate(1989.111328 0)"/>
     <use xlink:href="#DejaVuSans-69" transform="translate(2070.898438 0)"/>
     <use xlink:href="#DejaVuSans-64" transform="translate(2098.681641 0)"/>
     <use xlink:href="#DejaVuSans-65" transform="translate(2162.158203 0)"/>
     <use xlink:href="#DejaVuSans-6e" transform="translate(2223.681641 0)"/>
     <use xlink:href="#DejaVuSans-73" transform="translate(2287.060547 0)"/>
    </g>
   </g>
   <g id="legend_1">
    <g id="patch_13">
     <path d="M 426.404091 206.681453 
L 520.134091 206.681453 
Q 521.734091 206.681453 521.734091 205.081453 
L 521.734091 134.942547 
Q 521.734091 133.342547 520.134091 133.342547 
L 426.404091 133.342547 
Q 424.804091 133.342547 424.804091 134.942547 
L 424.804091 205.081453 
Q 424.804091 206.681453 426.404091 206.681453 
z
" style="fill: #ffffff; opacity: 0.8; stroke: #cccccc; stroke-linejoin: miter"/>
    </g>
    <g id="text_32">
     <!-- real slope -->
     <g transform="translate(452.55831 143.001219) scale(0.085 -0.085)">
      <use xlink:href="#DejaVuSans-72"/>
      <use xlink:href="#DejaVuSans-65" transform="translate(38.863281 0)"/>
      <use xlink:href="#DejaVuSans-61" transform="translate(100.386719 0)"/>
      <use xlink:href="#DejaVuSans-6c" transform="translate(161.666016 0)"/>
      <use xlink:href="#DejaVuSans-20" transform="translate(189.449219 0)"/>
      <use xlink:href="#DejaVuSans-73" transform="translate(221.236328 0)"/>
      <use xlink:href="#DejaVuSans-6c" transform="translate(273.335938 0)"/>
      <use xlink:href="#DejaVuSans-6f" transform="translate(301.119141 0)"/>
      <use xlink:href="#DejaVuSans-70" transform="translate(362.300781 0)"/>
      <use xlink:href="#DejaVuSans-65" transform="translate(425.777344 0)"/>
     </g>
    </g>
    <g id="line2d_41">
     <path d="M 428.004091 152.047703 
L 436.004091 152.047703 
L 444.004091 152.047703 
" style="fill: none; stroke: #d62728; stroke-width: 2; stroke-linecap: square"/>
    </g>
    <g id="text_33">
     <!-- Q90  (+0.045/yr) -->
     <g transform="translate(450.404091 154.847703) scale(0.08 -0.08)">
      <defs>
       <path id="DejaVuSans-34" d="M 2419 4116 
L 825 1625 
L 2419 1625 
L 2419 4116 
z
M 2253 4666 
L 3047 4666 
L 3047 1625 
L 3713 1625 
L 3713 1100 
L 3047 1100 
L 3047 0 
L 2419 0 
L 2419 1100 
L 313 1100 
L 313 1709 
L 2253 4666 
z
" transform="scale(0.015625)"/>
      </defs>
      <use xlink:href="#DejaVuSans-51"/>
      <use xlink:href="#DejaVuSans-39" transform="translate(78.710938 0)"/>
      <use xlink:href="#DejaVuSans-30" transform="translate(142.333984 0)"/>
      <use xlink:href="#DejaVuSans-20" transform="translate(205.957031 0)"/>
      <use xlink:href="#DejaVuSans-20" transform="translate(237.744141 0)"/>
      <use xlink:href="#DejaVuSans-28" transform="translate(269.53125 0)"/>
      <use xlink:href="#DejaVuSans-2b" transform="translate(308.544922 0)"/>
      <use xlink:href="#DejaVuSans-30" transform="translate(392.333984 0)"/>
      <use xlink:href="#DejaVuSans-2e" transform="translate(455.957031 0)"/>
      <use xlink:href="#DejaVuSans-30" transform="translate(487.744141 0)"/>
      <use xlink:href="#DejaVuSans-34" transform="translate(551.367188 0)"/>
      <use xlink:href="#DejaVuSans-35" transform="translate(614.990234 0)"/>
      <use xlink:href="#DejaVuSans-2f" transform="translate(678.613281 0)"/>
      <use xlink:href="#DejaVuSans-79" transform="translate(712.304688 0)"/>
      <use xlink:href="#DejaVuSans-72" transform="translate(771.484375 0)"/>
      <use xlink:href="#DejaVuSans-29" transform="translate(812.597656 0)"/>
     </g>
    </g>
    <g id="line2d_42">
     <path d="M 428.004091 163.790203 
L 436.004091 163.790203 
L 444.004091 163.790203 
" style="fill: none; stroke: #ff7f0e; stroke-width: 2; stroke-linecap: square"/>
    </g>
    <g id="text_34">
     <!-- Q75  (-0.000/yr) -->
     <g transform="translate(450.404091 166.590203) scale(0.08 -0.08)">
      <defs>
       <path id="DejaVuSans-2d" d="M 313 2009 
L 1997 2009 
L 1997 1497 
L 313 1497 
L 313 2009 
z
" transform="scale(0.015625)"/>
      </defs>
      <use xlink:href="#DejaVuSans-51"/>
      <use xlink:href="#DejaVuSans-37" transform="translate(78.710938 0)"/>
      <use xlink:href="#DejaVuSans-35" transform="translate(142.333984 0)"/>
      <use xlink:href="#DejaVuSans-20" transform="translate(205.957031 0)"/>
      <use xlink:href="#DejaVuSans-20" transform="translate(237.744141 0)"/>
      <use xlink:href="#DejaVuSans-28" transform="translate(269.53125 0)"/>
      <use xlink:href="#DejaVuSans-2d" transform="translate(308.544922 0)"/>
      <use xlink:href="#DejaVuSans-30" transform="translate(344.628906 0)"/>
      <use xlink:href="#DejaVuSans-2e" transform="translate(408.251953 0)"/>
      <use xlink:href="#DejaVuSans-30" transform="translate(440.039062 0)"/>
      <use xlink:href="#DejaVuSans-30" transform="translate(503.662109 0)"/>
      <use xlink:href="#DejaVuSans-30" transform="translate(567.285156 0)"/>
      <use xlink:href="#DejaVuSans-2f" transform="translate(630.908203 0)"/>
      <use xlink:href="#DejaVuSans-79" transform="translate(664.599609 0)"/>
      <use xlink:href="#DejaVuSans-72" transform="translate(723.779297 0)"/>
      <use xlink:href="#DejaVuSans-29" transform="translate(764.892578 0)"/>
     </g>
    </g>
    <g id="line2d_43">
     <path d="M 428.004091 175.532703 
L 436.004091 175.532703 
L 444.004091 175.532703 
" style="fill: none; stroke: #2ca02c; stroke-width: 2; stroke-linecap: square"/>
    </g>
    <g id="text_35">
     <!-- Q50  (-0.056/yr) -->
     <g transform="translate(450.404091 178.332703) scale(0.08 -0.08)">
      <defs>
       <path id="DejaVuSans-36" d="M 2113 2584 
Q 1688 2584 1439 2293 
Q 1191 2003 1191 1497 
Q 1191 994 1439 701 
Q 1688 409 2113 409 
Q 2538 409 2786 701 
Q 3034 994 3034 1497 
Q 3034 2003 2786 2293 
Q 2538 2584 2113 2584 
z
M 3366 4563 
L 3366 3988 
Q 3128 4100 2886 4159 
Q 2644 4219 2406 4219 
Q 1781 4219 1451 3797 
Q 1122 3375 1075 2522 
Q 1259 2794 1537 2939 
Q 1816 3084 2150 3084 
Q 2853 3084 3261 2657 
Q 3669 2231 3669 1497 
Q 3669 778 3244 343 
Q 2819 -91 2113 -91 
Q 1303 -91 875 529 
Q 447 1150 447 2328 
Q 447 3434 972 4092 
Q 1497 4750 2381 4750 
Q 2619 4750 2861 4703 
Q 3103 4656 3366 4563 
z
" transform="scale(0.015625)"/>
      </defs>
      <use xlink:href="#DejaVuSans-51"/>
      <use xlink:href="#DejaVuSans-35" transform="translate(78.710938 0)"/>
      <use xlink:href="#DejaVuSans-30" transform="translate(142.333984 0)"/>
      <use xlink:href="#DejaVuSans-20" transform="translate(205.957031 0)"/>
      <use xlink:href="#DejaVuSans-20" transform="translate(237.744141 0)"/>
      <use xlink:href="#DejaVuSans-28" transform="translate(269.53125 0)"/>
      <use xlink:href="#DejaVuSans-2d" transform="translate(308.544922 0)"/>
      <use xlink:href="#DejaVuSans-30" transform="translate(344.628906 0)"/>
      <use xlink:href="#DejaVuSans-2e" transform="translate(408.251953 0)"/>
      <use xlink:href="#DejaVuSans-30" transform="translate(440.039062 0)"/>
      <use xlink:href="#DejaVuSans-35" transform="translate(503.662109 0)"/>
      <use xlink:href="#DejaVuSans-36" transform="translate(567.285156 0)"/>
      <use xlink:href="#DejaVuSans-2f" transform="translate(630.908203 0)"/>
      <use xlink:href="#DejaVuSans-79" transform="translate(664.599609 0)"/>
      <use xlink:href="#DejaVuSans-72" transform="translate(723.779297 0)"/>
      <use xlink:href="#DejaVuSans-29" transform="translate(764.892578 0)"/>
     </g>
    </g>
    <g id="line2d_44">
     <path d="M 428.004091 187.275203 
L 436.004091 187.275203 
L 444.004091 187.275203 
" style="fill: none; stroke: #1f77b4; stroke-width: 2; stroke-linecap: square"/>
    </g>
    <g id="text_36">
     <!-- Q25  (-0.091/yr) -->
     <g transform="translate(450.404091 190.075203) scale(0.08 -0.08)">
      <use xlink:href="#DejaVuSans-51"/>
      <use xlink:href="#DejaVuSans-32" transform="translate(78.710938 0)"/>
      <use xlink:href="#DejaVuSans-35" transform="translate(142.333984 0)"/>
      <use xlink:href="#DejaVuSans-20" transform="translate(205.957031 0)"/>
      <use xlink:href="#DejaVuSans-20" transform="translate(237.744141 0)"/>
      <use xlink:href="#DejaVuSans-28" transform="translate(269.53125 0)"/>
      <use xlink:href="#DejaVuSans-2d" transform="translate(308.544922 0)"/>
      <use xlink:href="#DejaVuSans-30" transform="translate(344.628906 0)"/>
      <use xlink:href="#DejaVuSans-2e" transform="translate(408.251953 0)"/>
      <use xlink:href="#DejaVuSans-30" transform="translate(440.039062 0)"/>
      <use xlink:href="#DejaVuSans-39" transform="translate(503.662109 0)"/>
      <use xlink:href="#DejaVuSans-31" transform="translate(567.285156 0)"/>
      <use xlink:href="#DejaVuSans-2f" transform="translate(630.908203 0)"/>
      <use xlink:href="#DejaVuSans-79" transform="translate(664.599609 0)"/>
      <use xlink:href="#DejaVuSans-72" transform="translate(723.779297 0)"/>
      <use xlink:href="#DejaVuSans-29" transform="translate(764.892578 0)"/>
     </g>
    </g>
    <g id="line2d_45">
     <path d="M 428.004091 199.017703 
L 436.004091 199.017703 
L 444.004091 199.017703 
" style="fill: none; stroke: #9467bd; stroke-width: 2; stroke-linecap: square"/>
    </g>
    <g id="text_37">
     <!-- Q10  (-0.154/yr) -->
     <g transform="translate(450.404091 201.817703) scale(0.08 -0.08)">
      <use xlink:href="#DejaVuSans-51"/>
      <use xlink:href="#DejaVuSans-31" transform="translate(78.710938 0)"/>
      <use xlink:href="#DejaVuSans-30" transform="translate(142.333984 0)"/>
      <use xlink:href="#DejaVuSans-20" transform="translate(205.957031 0)"/>
      <use xlink:href="#DejaVuSans-20" transform="translate(237.744141 0)"/>
      <use xlink:href="#DejaVuSans-28" transform="translate(269.53125 0)"/>
      <use xlink:href="#DejaVuSans-2d" transform="translate(308.544922 0)"/>
      <use xlink:href="#DejaVuSans-30" transform="translate(344.628906 0)"/>
      <use xlink:href="#DejaVuSans-2e" transform="translate(408.251953 0)"/>
      <use xlink:href="#DejaVuSans-31" transform="translate(440.039062 0)"/>
      <use xlink:href="#DejaVuSans-35" transform="translate(503.662109 0)"/>
      <use xlink:href="#DejaVuSans-34" transform="translate(567.285156 0)"/>
      <use xlink:href="#DejaVuSans-2f" transform="translate(630.908203 0)"/>
      <use xlink:href="#DejaVuSans-79" transform="translate(664.599609 0)"/>
      <use xlink:href="#DejaVuSans-72" transform="translate(723.779297 0)"/>
      <use xlink:href="#DejaVuSans-29" transform="translate(764.892578 0)"/>
     </g>
    </g>
   </g>
  </g>
 </g>
 <defs>
  <clipPath id="p946edbc265">
   <rect x="53.03" y="36.384" width="345.978377" height="267.256"/>
  </clipPath>
  <clipPath id="p465ddb83e0">
   <rect x="420.804091" y="36.384" width="345.978377" height="267.256"/>
  </clipPath>
 </defs>
</svg>
