<?xml version="1.0" encoding="utf-8" standalone="no"?>
<!DOCTYPE svg PUBLIC "-//W3C//DTD SVG 1.1//EN"
  "http://www.w3.org/Graphics/SVG/1.1/DTD/svg11.dtd">
<svg xmlns:xlink="http://www.w3.org/1999/xlink" width="568.7775pt" height="672.834531pt" viewBox="0 0 568.7775 672.834531" xmlns="http://www.w3.org/2000/svg" version="1.1">
 <metadata>
  <rdf:RDF xmlns:dc="http://purl.org/dc/elements/1.1/" xmlns:cc="http://creativecommons.org/ns#" xmlns:rdf="http://www.w3.org/1999/02/22-rdf-syntax-ns#">
   <cc:Work>
    <dc:type rdf:resource="http://purl.org/dc/dcmitype/StillImage"/>
    <dc:date>2026-07-01T20:14:18.168425</dc:date>
    <dc:format>image/svg+xml</dc:format>
    <dc:creator>
     <cc:Agent>
      <dc:title>Matplotlib v3.10.9, https://matplotlib.org/</dc:title>
     </cc:Agent>
    </dc:creator>
   </cc:Work>
  </rdf:RDF>
 </metadata>
 <defs>
  <style type="text/css">*{stroke-linejoin: round; stroke-linecap: butt}</style>
 </defs>
 <g id="figure_1">
  <g id="patch_1">
   <path d="M 0 672.834531 
L 568.7775 672.834531 
L 568.7775 0 
L 0 0 
z
" style="fill: #f9f9f7"/>
  </g>
  <g id="axes_1">
   <g id="patch_2">
    <path d="M 37.0375 635.278281 
L 561.5775 635.278281 
L 561.5775 23.558281 
L 37.0375 23.558281 
z
" style="fill: #ffffff"/>
   </g>
   <g id="matplotlib.axis_1">
    <g id="xtick_1">
     <g id="line2d_1">
      <path d="M 37.0375 635.278281 
L 37.0375 23.558281 
" clip-path="url(#pb0a4dee9bc)" style="fill: none; stroke: #e0dfd8; stroke-width: 0.7; stroke-linecap: square"/>
     </g>
     <g id="line2d_2">
      <defs>
       <path id="m0f84530957" d="M 0 0 
L 0 3.5 
" style="stroke: #555555; stroke-width: 0.8"/>
      </defs>
      <g>
       <use xlink:href="#m0f84530957" x="37.0375" y="635.278281" style="fill: #555555; stroke: #555555; stroke-width: 0.8"/>
      </g>
     </g>
     <g id="text_1">
      <!-- 0.0 -->
      <g style="fill: #555555" transform="translate(29.085938 649.876719) scale(0.1 -0.1)">
       <defs>
        <path id="DejaVuSans-30" d="M 2034 4250 
Q 1547 4250 1301 3770 
Q 1056 3291 1056 2328 
Q 1056 1369 1301 889 
Q 1547 409 2034 409 
Q 2525 409 2770 889 
Q 3016 1369 3016 2328 
Q 3016 3291 2770 3770 
Q 2525 4250 2034 4250 
z
M 2034 4750 
Q 2819 4750 3233 4129 
Q 3647 3509 3647 2328 
Q 3647 1150 3233 529 
Q 2819 -91 2034 -91 
Q 1250 -91 836 529 
Q 422 1150 422 2328 
Q 422 3509 836 4129 
Q 1250 4750 2034 4750 
z
" transform="scale(0.015625)"/>
        <path id="DejaVuSans-2e" d="M 684 794 
L 1344 794 
L 1344 0 
L 684 0 
L 684 794 
z
" transform="scale(0.015625)"/>
       </defs>
       <use xlink:href="#DejaVuSans-30"/>
       <use xlink:href="#DejaVuSans-2e" transform="translate(63.623047 0)"/>
       <use xlink:href="#DejaVuSans-30" transform="translate(95.410156 0)"/>
      </g>
     </g>
    </g>
    <g id="xtick_2">
     <g id="line2d_3">
      <path d="M 143.194405 635.278281 
L 143.194405 23.558281 
" clip-path="url(#pb0a4dee9bc)" style="fill: none; stroke: #e0dfd8; stroke-width: 0.7; stroke-linecap: square"/>
     </g>
     <g id="line2d_4">
      <g>
       <use xlink:href="#m0f84530957" x="143.194405" y="635.278281" style="fill: #555555; stroke: #555555; stroke-width: 0.8"/>
      </g>
     </g>
     <g id="text_2">
      <!-- 0.2 -->
      <g style="fill: #555555" transform="translate(135.242842 649.876719) scale(0.1 -0.1)">
       <defs>
        <path id="DejaVuSans-32" d="M 1228 531 
L 3431 531 
L 3431 0 
L 469 0 
L 469 531 
Q 828 903 1448 1529 
Q 2069 2156 2228 2338 
Q 2531 2678 2651 2914 
Q 2772 3150 2772 3378 
Q 2772 3750 2511 3984 
Q 2250 4219 1831 4219 
Q 1534 4219 1204 4116 
Q 875 4013 500 3803 
L 500 4441 
Q 881 4594 1212 4672 
Q 1544 4750 1819 4750 
Q 2544 4750 2975 4387 
Q 3406 4025 3406 3419 
Q 3406 3131 3298 2873 
Q 3191 2616 2906 2266 
Q 2828 2175 2409 1742 
Q 1991 1309 1228 531 
z
" transform="scale(0.015625)"/>
       </defs>
       <use xlink:href="#DejaVuSans-30"/>
       <use xlink:href="#DejaVuSans-2e" transform="translate(63.623047 0)"/>
       <use xlink:href="#DejaVuSans-32" transform="translate(95.410156 0)"/>
      </g>
     </g>
    </g>
    <g id="xtick_3">
     <g id="line2d_5">
      <path d="M 249.35131 635.278281 
L 249.35131 23.558281 
" clip-path="url(#pb0a4dee9bc)" style="fill: none; stroke: #e0dfd8; stroke-width: 0.7; stroke-linecap: square"/>
     </g>
     <g id="line2d_6">
      <g>
       <use xlink:href="#m0f84530957" x="249.35131" y="635.278281" style="fill: #555555; stroke: #555555; stroke-width: 0.8"/>
      </g>
     </g>
     <g id="text_3">
      <!-- 0.4 -->
      <g style="fill: #555555" transform="translate(241.399747 649.876719) scale(0.1 -0.1)">
       <defs>
        <path id="DejaVuSans-34" d="M 2419 4116 
L 825 1625 
L 2419 1625 
L 2419 4116 
z
M 2253 4666 
L 3047 4666 
L 3047 1625 
L 3713 1625 
L 3713 1100 
L 3047 1100 
L 3047 0 
L 2419 0 
L 2419 1100 
L 313 1100 
L 313 1709 
L 2253 4666 
z
" transform="scale(0.015625)"/>
       </defs>
       <use xlink:href="#DejaVuSans-30"/>
       <use xlink:href="#DejaVuSans-2e" transform="translate(63.623047 0)"/>
       <use xlink:href="#DejaVuSans-34" transform="translate(95.410156 0)"/>
      </g>
     </g>
    </g>
    <g id="xtick_4">
     <g id="line2d_7">
      <path d="M 355.508214 635.278281 
L 355.508214 23.558281 
" clip-path="url(#pb0a4dee9bc)" style="fill: none; stroke: #e0dfd8; stroke-width: 0.7; stroke-linecap: square"/>
     </g>
     <g id="line2d_8">
      <g>
       <use xlink:href="#m0f84530957" x="355.508214" y="635.278281" style="fill: #555555; stroke: #555555; stroke-width: 0.8"/>
      </g>
     </g>
     <g id="text_4">
      <!-- 0.6 -->
      <g style="fill: #555555" transform="translate(347.556652 649.876719) scale(0.1 -0.1)">
       <defs>
        <path id="DejaVuSans-36" d="M 2113 2584 
Q 1688 2584 1439 2293 
Q 1191 2003 1191 1497 
Q 1191 994 1439 701 
Q 1688 409 2113 409 
Q 2538 409 2786 701 
Q 3034 994 3034 1497 
Q 3034 2003 2786 2293 
Q 2538 2584 2113 2584 
z
M 3366 4563 
L 3366 3988 
Q 3128 4100 2886 4159 
Q 2644 4219 2406 4219 
Q 1781 4219 1451 3797 
Q 1122 3375 1075 2522 
Q 1259 2794 1537 2939 
Q 1816 3084 2150 3084 
Q 2853 3084 3261 2657 
Q 3669 2231 3669 1497 
Q 3669 778 3244 343 
Q 2819 -91 2113 -91 
Q 1303 -91 875 529 
Q 447 1150 447 2328 
Q 447 3434 972 4092 
Q 1497 4750 2381 4750 
Q 2619 4750 2861 4703 
Q 3103 4656 3366 4563 
z
" transform="scale(0.015625)"/>
       </defs>
       <use xlink:href="#DejaVuSans-30"/>
       <use xlink:href="#DejaVuSans-2e" transform="translate(63.623047 0)"/>
       <use xlink:href="#DejaVuSans-36" transform="translate(95.410156 0)"/>
      </g>
     </g>
    </g>
    <g id="xtick_5">
     <g id="line2d_9">
      <path d="M 461.665119 635.278281 
L 461.665119 23.558281 
" clip-path="url(#pb0a4dee9bc)" style="fill: none; stroke: #e0dfd8; stroke-width: 0.7; stroke-linecap: square"/>
     </g>
     <g id="line2d_10">
      <g>
       <use xlink:href="#m0f84530957" x="461.665119" y="635.278281" style="fill: #555555; stroke: #555555; stroke-width: 0.8"/>
      </g>
     </g>
     <g id="text_5">
      <!-- 0.8 -->
      <g style="fill: #555555" transform="translate(453.713557 649.876719) scale(0.1 -0.1)">
       <defs>
        <path id="DejaVuSans-38" d="M 2034 2216 
Q 1584 2216 1326 1975 
Q 1069 1734 1069 1313 
Q 1069 891 1326 650 
Q 1584 409 2034 409 
Q 2484 409 2743 651 
Q 3003 894 3003 1313 
Q 3003 1734 2745 1975 
Q 2488 2216 2034 2216 
z
M 1403 2484 
Q 997 2584 770 2862 
Q 544 3141 544 3541 
Q 544 4100 942 4425 
Q 1341 4750 2034 4750 
Q 2731 4750 3128 4425 
Q 3525 4100 3525 3541 
Q 3525 3141 3298 2862 
Q 3072 2584 2669 2484 
Q 3125 2378 3379 2068 
Q 3634 1759 3634 1313 
Q 3634 634 3220 271 
Q 2806 -91 2034 -91 
Q 1263 -91 848 271 
Q 434 634 434 1313 
Q 434 1759 690 2068 
Q 947 2378 1403 2484 
z
M 1172 3481 
Q 1172 3119 1398 2916 
Q 1625 2713 2034 2713 
Q 2441 2713 2670 2916 
Q 2900 3119 2900 3481 
Q 2900 3844 2670 4047 
Q 2441 4250 2034 4250 
Q 1625 4250 1398 4047 
Q 1172 3844 1172 3481 
z
" transform="scale(0.015625)"/>
       </defs>
       <use xlink:href="#DejaVuSans-30"/>
       <use xlink:href="#DejaVuSans-2e" transform="translate(63.623047 0)"/>
       <use xlink:href="#DejaVuSans-38" transform="translate(95.410156 0)"/>
      </g>
     </g>
    </g>
    <g id="text_6">
     <!-- Playoff win rate -->
     <g transform="translate(260.319219 663.554844) scale(0.1 -0.1)">
      <defs>
       <path id="DejaVuSans-50" d="M 1259 4147 
L 1259 2394 
L 2053 2394 
Q 2494 2394 2734 2622 
Q 2975 2850 2975 3272 
Q 2975 3691 2734 3919 
Q 2494 4147 2053 4147 
L 1259 4147 
z
M 628 4666 
L 2053 4666 
Q 2838 4666 3239 4311 
Q 3641 3956 3641 3272 
Q 3641 2581 3239 2228 
Q 2838 1875 2053 1875 
L 1259 1875 
L 1259 0 
L 628 0 
L 628 4666 
z
" transform="scale(0.015625)"/>
       <path id="DejaVuSans-6c" d="M 603 4863 
L 1178 4863 
L 1178 0 
L 603 0 
L 603 4863 
z
" transform="scale(0.015625)"/>
       <path id="DejaVuSans-61" d="M 2194 1759 
Q 1497 1759 1228 1600 
Q 959 1441 959 1056 
Q 959 750 1161 570 
Q 1363 391 1709 391 
Q 2188 391 2477 730 
Q 2766 1069 2766 1631 
L 2766 1759 
L 2194 1759 
z
M 3341 1997 
L 3341 0 
L 2766 0 
L 2766 531 
Q 2569 213 2275 61 
Q 1981 -91 1556 -91 
Q 1019 -91 701 211 
Q 384 513 384 1019 
Q 384 1609 779 1909 
Q 1175 2209 1959 2209 
L 2766 2209 
L 2766 2266 
Q 2766 2663 2505 2880 
Q 2244 3097 1772 3097 
Q 1472 3097 1187 3025 
Q 903 2953 641 2809 
L 641 3341 
Q 956 3463 1253 3523 
Q 1550 3584 1831 3584 
Q 2591 3584 2966 3190 
Q 3341 2797 3341 1997 
z
" transform="scale(0.015625)"/>
       <path id="DejaVuSans-79" d="M 2059 -325 
Q 1816 -950 1584 -1140 
Q 1353 -1331 966 -1331 
L 506 -1331 
L 506 -850 
L 844 -850 
Q 1081 -850 1212 -737 
Q 1344 -625 1503 -206 
L 1606 56 
L 191 3500 
L 800 3500 
L 1894 763 
L 2988 3500 
L 3597 3500 
L 2059 -325 
z
" transform="scale(0.015625)"/>
       <path id="DejaVuSans-6f" d="M 1959 3097 
Q 1497 3097 1228 2736 
Q 959 2375 959 1747 
Q 959 1119 1226 758 
Q 1494 397 1959 397 
Q 2419 397 2687 759 
Q 2956 1122 2956 1747 
Q 2956 2369 2687 2733 
Q 2419 3097 1959 3097 
z
M 1959 3584 
Q 2709 3584 3137 3096 
Q 3566 2609 3566 1747 
Q 3566 888 3137 398 
Q 2709 -91 1959 -91 
Q 1206 -91 779 398 
Q 353 888 353 1747 
Q 353 2609 779 3096 
Q 1206 3584 1959 3584 
z
" transform="scale(0.015625)"/>
       <path id="DejaVuSans-66" d="M 2375 4863 
L 2375 4384 
L 1825 4384 
Q 1516 4384 1395 4259 
Q 1275 4134 1275 3809 
L 1275 3500 
L 2222 3500 
L 2222 3053 
L 1275 3053 
L 1275 0 
L 697 0 
L 697 3053 
L 147 3053 
L 147 3500 
L 697 3500 
L 697 3744 
Q 697 4328 969 4595 
Q 1241 4863 1831 4863 
L 2375 4863 
z
" transform="scale(0.015625)"/>
       <path id="DejaVuSans-20" transform="scale(0.015625)"/>
       <path id="DejaVuSans-77" d="M 269 3500 
L 844 3500 
L 1563 769 
L 2278 3500 
L 2956 3500 
L 3675 769 
L 4391 3500 
L 4966 3500 
L 4050 0 
L 3372 0 
L 2619 2869 
L 1863 0 
L 1184 0 
L 269 3500 
z
" transform="scale(0.015625)"/>
       <path id="DejaVuSans-69" d="M 603 3500 
L 1178 3500 
L 1178 0 
L 603 0 
L 603 3500 
z
M 603 4863 
L 1178 4863 
L 1178 4134 
L 603 4134 
L 603 4863 
z
" transform="scale(0.015625)"/>
       <path id="DejaVuSans-6e" d="M 3513 2113 
L 3513 0 
L 2938 0 
L 2938 2094 
Q 2938 2591 2744 2837 
Q 2550 3084 2163 3084 
Q 1697 3084 1428 2787 
Q 1159 2491 1159 1978 
L 1159 0 
L 581 0 
L 581 3500 
L 1159 3500 
L 1159 2956 
Q 1366 3272 1645 3428 
Q 1925 3584 2291 3584 
Q 2894 3584 3203 3211 
Q 3513 2838 3513 2113 
z
" transform="scale(0.015625)"/>
       <path id="DejaVuSans-72" d="M 2631 2963 
Q 2534 3019 2420 3045 
Q 2306 3072 2169 3072 
Q 1681 3072 1420 2755 
Q 1159 2438 1159 1844 
L 1159 0 
L 581 0 
L 581 3500 
L 1159 3500 
L 1159 2956 
Q 1341 3275 1631 3429 
Q 1922 3584 2338 3584 
Q 2397 3584 2469 3576 
Q 2541 3569 2628 3553 
L 2631 2963 
z
" transform="scale(0.015625)"/>
       <path id="DejaVuSans-74" d="M 1172 4494 
L 1172 3500 
L 2356 3500 
L 2356 3053 
L 1172 3053 
L 1172 1153 
Q 1172 725 1289 603 
Q 1406 481 1766 481 
L 2356 481 
L 2356 0 
L 1766 0 
Q 1100 0 847 248 
Q 594 497 594 1153 
L 594 3053 
L 172 3053 
L 172 3500 
L 594 3500 
L 594 4494 
L 1172 4494 
z
" transform="scale(0.015625)"/>
       <path id="DejaVuSans-65" d="M 3597 1894 
L 3597 1613 
L 953 1613 
Q 991 1019 1311 708 
Q 1631 397 2203 397 
Q 2534 397 2845 478 
Q 3156 559 3463 722 
L 3463 178 
Q 3153 47 2828 -22 
Q 2503 -91 2169 -91 
Q 1331 -91 842 396 
Q 353 884 353 1716 
Q 353 2575 817 3079 
Q 1281 3584 2069 3584 
Q 2775 3584 3186 3129 
Q 3597 2675 3597 1894 
z
M 3022 2063 
Q 3016 2534 2758 2815 
Q 2500 3097 2075 3097 
Q 1594 3097 1305 2825 
Q 1016 2553 972 2059 
L 3022 2063 
z
" transform="scale(0.015625)"/>
      </defs>
      <use xlink:href="#DejaVuSans-50"/>
      <use xlink:href="#DejaVuSans-6c" transform="translate(60.302734 0)"/>
      <use xlink:href="#DejaVuSans-61" transform="translate(88.085938 0)"/>
      <use xlink:href="#DejaVuSans-79" transform="translate(149.365234 0)"/>
      <use xlink:href="#DejaVuSans-6f" transform="translate(208.544922 0)"/>
      <use xlink:href="#DejaVuSans-66" transform="translate(269.726562 0)"/>
      <use xlink:href="#DejaVuSans-66" transform="translate(304.931641 0)"/>
      <use xlink:href="#DejaVuSans-20" transform="translate(340.136719 0)"/>
      <use xlink:href="#DejaVuSans-77" transform="translate(371.923828 0)"/>
      <use xlink:href="#DejaVuSans-69" transform="translate(453.710938 0)"/>
      <use xlink:href="#DejaVuSans-6e" transform="translate(481.494141 0)"/>
      <use xlink:href="#DejaVuSans-20" transform="translate(544.873047 0)"/>
      <use xlink:href="#DejaVuSans-72" transform="translate(576.660156 0)"/>
      <use xlink:href="#DejaVuSans-61" transform="translate(617.773438 0)"/>
      <use xlink:href="#DejaVuSans-74" transform="translate(679.052734 0)"/>
      <use xlink:href="#DejaVuSans-65" transform="translate(718.261719 0)"/>
     </g>
    </g>
   </g>
   <g id="matplotlib.axis_2">
    <g id="ytick_1">
     <g id="line2d_11">
      <defs>
       <path id="meafcd5d8ba" d="M 0 0 
L -3.5 0 
" style="stroke: #555555; stroke-width: 0.8"/>
      </defs>
      <g>
       <use xlink:href="#meafcd5d8ba" x="37.0375" y="602.275545" style="fill: #555555; stroke: #555555; stroke-width: 0.8"/>
      </g>
     </g>
     <g id="text_7">
      <!-- 07–08 -->
      <g style="fill: #555555" transform="translate(7.2 605.12496) scale(0.075 -0.075)">
       <defs>
        <path id="DejaVuSans-37" d="M 525 4666 
L 3525 4666 
L 3525 4397 
L 1831 0 
L 1172 0 
L 2766 4134 
L 525 4134 
L 525 4666 
z
" transform="scale(0.015625)"/>
        <path id="DejaVuSans-2013" d="M 313 1978 
L 2888 1978 
L 2888 1528 
L 313 1528 
L 313 1978 
z
" transform="scale(0.015625)"/>
       </defs>
       <use xlink:href="#DejaVuSans-30"/>
       <use xlink:href="#DejaVuSans-37" transform="translate(63.623047 0)"/>
       <use xlink:href="#DejaVuSans-2013" transform="translate(127.246094 0)"/>
       <use xlink:href="#DejaVuSans-30" transform="translate(177.246094 0)"/>
       <use xlink:href="#DejaVuSans-38" transform="translate(240.869141 0)"/>
      </g>
     </g>
    </g>
    <g id="ytick_2">
     <g id="line2d_12">
      <g>
       <use xlink:href="#meafcd5d8ba" x="37.0375" y="589.282342" style="fill: #555555; stroke: #555555; stroke-width: 0.8"/>
      </g>
     </g>
     <g id="text_8">
      <!-- 87–88 -->
      <g style="fill: #555555" transform="translate(7.2 592.131756) scale(0.075 -0.075)">
       <use xlink:href="#DejaVuSans-38"/>
       <use xlink:href="#DejaVuSans-37" transform="translate(63.623047 0)"/>
       <use xlink:href="#DejaVuSans-2013" transform="translate(127.246094 0)"/>
       <use xlink:href="#DejaVuSans-38" transform="translate(177.246094 0)"/>
       <use xlink:href="#DejaVuSans-38" transform="translate(240.869141 0)"/>
      </g>
     </g>
    </g>
    <g id="ytick_3">
     <g id="line2d_13">
      <g>
       <use xlink:href="#meafcd5d8ba" x="37.0375" y="576.289139" style="fill: #555555; stroke: #555555; stroke-width: 0.8"/>
      </g>
     </g>
     <g id="text_9">
      <!-- 83–84 -->
      <g style="fill: #555555" transform="translate(7.2 579.138553) scale(0.075 -0.075)">
       <defs>
        <path id="DejaVuSans-33" d="M 2597 2516 
Q 3050 2419 3304 2112 
Q 3559 1806 3559 1356 
Q 3559 666 3084 287 
Q 2609 -91 1734 -91 
Q 1441 -91 1130 -33 
Q 819 25 488 141 
L 488 750 
Q 750 597 1062 519 
Q 1375 441 1716 441 
Q 2309 441 2620 675 
Q 2931 909 2931 1356 
Q 2931 1769 2642 2001 
Q 2353 2234 1838 2234 
L 1294 2234 
L 1294 2753 
L 1863 2753 
Q 2328 2753 2575 2939 
Q 2822 3125 2822 3475 
Q 2822 3834 2567 4026 
Q 2313 4219 1838 4219 
Q 1578 4219 1281 4162 
Q 984 4106 628 3988 
L 628 4550 
Q 988 4650 1302 4700 
Q 1616 4750 1894 4750 
Q 2613 4750 3031 4423 
Q 3450 4097 3450 3541 
Q 3450 3153 3228 2886 
Q 3006 2619 2597 2516 
z
" transform="scale(0.015625)"/>
       </defs>
       <use xlink:href="#DejaVuSans-38"/>
       <use xlink:href="#DejaVuSans-33" transform="translate(63.623047 0)"/>
       <use xlink:href="#DejaVuSans-2013" transform="translate(127.246094 0)"/>
       <use xlink:href="#DejaVuSans-38" transform="translate(177.246094 0)"/>
       <use xlink:href="#DejaVuSans-34" transform="translate(240.869141 0)"/>
      </g>
     </g>
    </g>
    <g id="ytick_4">
     <g id="line2d_14">
      <g>
       <use xlink:href="#meafcd5d8ba" x="37.0375" y="563.295936" style="fill: #555555; stroke: #555555; stroke-width: 0.8"/>
      </g>
     </g>
     <g id="text_10">
      <!-- 93–94 -->
      <g style="fill: #555555" transform="translate(7.2 566.14535) scale(0.075 -0.075)">
       <defs>
        <path id="DejaVuSans-39" d="M 703 97 
L 703 672 
Q 941 559 1184 500 
Q 1428 441 1663 441 
Q 2288 441 2617 861 
Q 2947 1281 2994 2138 
Q 2813 1869 2534 1725 
Q 2256 1581 1919 1581 
Q 1219 1581 811 2004 
Q 403 2428 403 3163 
Q 403 3881 828 4315 
Q 1253 4750 1959 4750 
Q 2769 4750 3195 4129 
Q 3622 3509 3622 2328 
Q 3622 1225 3098 567 
Q 2575 -91 1691 -91 
Q 1453 -91 1209 -44 
Q 966 3 703 97 
z
M 1959 2075 
Q 2384 2075 2632 2365 
Q 2881 2656 2881 3163 
Q 2881 3666 2632 3958 
Q 2384 4250 1959 4250 
Q 1534 4250 1286 3958 
Q 1038 3666 1038 3163 
Q 1038 2656 1286 2365 
Q 1534 2075 1959 2075 
z
" transform="scale(0.015625)"/>
       </defs>
       <use xlink:href="#DejaVuSans-39"/>
       <use xlink:href="#DejaVuSans-33" transform="translate(63.623047 0)"/>
       <use xlink:href="#DejaVuSans-2013" transform="translate(127.246094 0)"/>
       <use xlink:href="#DejaVuSans-39" transform="translate(177.246094 0)"/>
       <use xlink:href="#DejaVuSans-34" transform="translate(240.869141 0)"/>
      </g>
     </g>
    </g>
    <g id="ytick_5">
     <g id="line2d_15">
      <g>
       <use xlink:href="#meafcd5d8ba" x="37.0375" y="550.302733" style="fill: #555555; stroke: #555555; stroke-width: 0.8"/>
      </g>
     </g>
     <g id="text_11">
      <!-- 99–00 -->
      <g style="fill: #555555" transform="translate(7.2 553.152147) scale(0.075 -0.075)">
       <use xlink:href="#DejaVuSans-39"/>
       <use xlink:href="#DejaVuSans-39" transform="translate(63.623047 0)"/>
       <use xlink:href="#DejaVuSans-2013" transform="translate(127.246094 0)"/>
       <use xlink:href="#DejaVuSans-30" transform="translate(177.246094 0)"/>
       <use xlink:href="#DejaVuSans-30" transform="translate(240.869141 0)"/>
      </g>
     </g>
    </g>
    <g id="ytick_6">
     <g id="line2d_16">
      <g>
       <use xlink:href="#meafcd5d8ba" x="37.0375" y="537.30953" style="fill: #555555; stroke: #555555; stroke-width: 0.8"/>
      </g>
     </g>
     <g id="text_12">
      <!-- 02–03 -->
      <g style="fill: #555555" transform="translate(7.2 540.158944) scale(0.075 -0.075)">
       <use xlink:href="#DejaVuSans-30"/>
       <use xlink:href="#DejaVuSans-32" transform="translate(63.623047 0)"/>
       <use xlink:href="#DejaVuSans-2013" transform="translate(127.246094 0)"/>
       <use xlink:href="#DejaVuSans-30" transform="translate(177.246094 0)"/>
       <use xlink:href="#DejaVuSans-33" transform="translate(240.869141 0)"/>
      </g>
     </g>
    </g>
    <g id="ytick_7">
     <g id="line2d_17">
      <g>
       <use xlink:href="#meafcd5d8ba" x="37.0375" y="524.316327" style="fill: #555555; stroke: #555555; stroke-width: 0.8"/>
      </g>
     </g>
     <g id="text_13">
      <!-- 18–19 -->
      <g style="fill: #555555" transform="translate(7.2 527.165741) scale(0.075 -0.075)">
       <defs>
        <path id="DejaVuSans-31" d="M 794 531 
L 1825 531 
L 1825 4091 
L 703 3866 
L 703 4441 
L 1819 4666 
L 2450 4666 
L 2450 531 
L 3481 531 
L 3481 0 
L 794 0 
L 794 531 
z
" transform="scale(0.015625)"/>
       </defs>
       <use xlink:href="#DejaVuSans-31"/>
       <use xlink:href="#DejaVuSans-38" transform="translate(63.623047 0)"/>
       <use xlink:href="#DejaVuSans-2013" transform="translate(127.246094 0)"/>
       <use xlink:href="#DejaVuSans-31" transform="translate(177.246094 0)"/>
       <use xlink:href="#DejaVuSans-39" transform="translate(240.869141 0)"/>
      </g>
     </g>
    </g>
    <g id="ytick_8">
     <g id="line2d_18">
      <g>
       <use xlink:href="#meafcd5d8ba" x="37.0375" y="511.323124" style="fill: #555555; stroke: #555555; stroke-width: 0.8"/>
      </g>
     </g>
     <g id="text_14">
      <!-- 94–95 -->
      <g style="fill: #555555" transform="translate(7.2 514.172538) scale(0.075 -0.075)">
       <defs>
        <path id="DejaVuSans-35" d="M 691 4666 
L 3169 4666 
L 3169 4134 
L 1269 4134 
L 1269 2991 
Q 1406 3038 1543 3061 
Q 1681 3084 1819 3084 
Q 2600 3084 3056 2656 
Q 3513 2228 3513 1497 
Q 3513 744 3044 326 
Q 2575 -91 1722 -91 
Q 1428 -91 1123 -41 
Q 819 9 494 109 
L 494 744 
Q 775 591 1075 516 
Q 1375 441 1709 441 
Q 2250 441 2565 725 
Q 2881 1009 2881 1497 
Q 2881 1984 2565 2268 
Q 2250 2553 1709 2553 
Q 1456 2553 1204 2497 
Q 953 2441 691 2322 
L 691 4666 
z
" transform="scale(0.015625)"/>
       </defs>
       <use xlink:href="#DejaVuSans-39"/>
       <use xlink:href="#DejaVuSans-34" transform="translate(63.623047 0)"/>
       <use xlink:href="#DejaVuSans-2013" transform="translate(127.246094 0)"/>
       <use xlink:href="#DejaVuSans-39" transform="translate(177.246094 0)"/>
       <use xlink:href="#DejaVuSans-35" transform="translate(240.869141 0)"/>
      </g>
     </g>
    </g>
    <g id="ytick_9">
     <g id="line2d_19">
      <g>
       <use xlink:href="#meafcd5d8ba" x="37.0375" y="498.329921" style="fill: #555555; stroke: #555555; stroke-width: 0.8"/>
      </g>
     </g>
     <g id="text_15">
      <!-- 91–92 -->
      <g style="fill: #555555" transform="translate(7.2 501.179335) scale(0.075 -0.075)">
       <use xlink:href="#DejaVuSans-39"/>
       <use xlink:href="#DejaVuSans-31" transform="translate(63.623047 0)"/>
       <use xlink:href="#DejaVuSans-2013" transform="translate(127.246094 0)"/>
       <use xlink:href="#DejaVuSans-39" transform="translate(177.246094 0)"/>
       <use xlink:href="#DejaVuSans-32" transform="translate(240.869141 0)"/>
      </g>
     </g>
    </g>
    <g id="ytick_10">
     <g id="line2d_20">
      <g>
       <use xlink:href="#meafcd5d8ba" x="37.0375" y="485.336718" style="fill: #555555; stroke: #555555; stroke-width: 0.8"/>
      </g>
     </g>
     <g id="text_16">
      <!-- 11–12 -->
      <g style="fill: #555555" transform="translate(7.2 488.186132) scale(0.075 -0.075)">
       <use xlink:href="#DejaVuSans-31"/>
       <use xlink:href="#DejaVuSans-31" transform="translate(63.623047 0)"/>
       <use xlink:href="#DejaVuSans-2013" transform="translate(127.246094 0)"/>
       <use xlink:href="#DejaVuSans-31" transform="translate(177.246094 0)"/>
       <use xlink:href="#DejaVuSans-32" transform="translate(240.869141 0)"/>
      </g>
     </g>
    </g>
    <g id="ytick_11">
     <g id="line2d_21">
      <g>
       <use xlink:href="#meafcd5d8ba" x="37.0375" y="472.343515" style="fill: #555555; stroke: #555555; stroke-width: 0.8"/>
      </g>
     </g>
     <g id="text_17">
      <!-- 09–10 -->
      <g style="fill: #555555" transform="translate(7.2 475.192929) scale(0.075 -0.075)">
       <use xlink:href="#DejaVuSans-30"/>
       <use xlink:href="#DejaVuSans-39" transform="translate(63.623047 0)"/>
       <use xlink:href="#DejaVuSans-2013" transform="translate(127.246094 0)"/>
       <use xlink:href="#DejaVuSans-31" transform="translate(177.246094 0)"/>
       <use xlink:href="#DejaVuSans-30" transform="translate(240.869141 0)"/>
      </g>
     </g>
    </g>
    <g id="ytick_12">
     <g id="line2d_22">
      <g>
       <use xlink:href="#meafcd5d8ba" x="37.0375" y="459.350312" style="fill: #555555; stroke: #555555; stroke-width: 0.8"/>
      </g>
     </g>
     <g id="text_18">
      <!-- 13–14 -->
      <g style="fill: #555555" transform="translate(7.2 462.199726) scale(0.075 -0.075)">
       <use xlink:href="#DejaVuSans-31"/>
       <use xlink:href="#DejaVuSans-33" transform="translate(63.623047 0)"/>
       <use xlink:href="#DejaVuSans-2013" transform="translate(127.246094 0)"/>
       <use xlink:href="#DejaVuSans-31" transform="translate(177.246094 0)"/>
       <use xlink:href="#DejaVuSans-34" transform="translate(240.869141 0)"/>
      </g>
     </g>
    </g>
    <g id="ytick_13">
     <g id="line2d_23">
      <g>
       <use xlink:href="#meafcd5d8ba" x="37.0375" y="446.357109" style="fill: #555555; stroke: #555555; stroke-width: 0.8"/>
      </g>
     </g>
     <g id="text_19">
      <!-- 08–09 -->
      <g style="fill: #555555" transform="translate(7.2 449.206523) scale(0.075 -0.075)">
       <use xlink:href="#DejaVuSans-30"/>
       <use xlink:href="#DejaVuSans-38" transform="translate(63.623047 0)"/>
       <use xlink:href="#DejaVuSans-2013" transform="translate(127.246094 0)"/>
       <use xlink:href="#DejaVuSans-30" transform="translate(177.246094 0)"/>
       <use xlink:href="#DejaVuSans-39" transform="translate(240.869141 0)"/>
      </g>
     </g>
    </g>
    <g id="ytick_14">
     <g id="line2d_24">
      <g>
       <use xlink:href="#meafcd5d8ba" x="37.0375" y="433.363906" style="fill: #555555; stroke: #555555; stroke-width: 0.8"/>
      </g>
     </g>
     <g id="text_20">
      <!-- 20–21 -->
      <g style="fill: #555555" transform="translate(7.2 436.21332) scale(0.075 -0.075)">
       <use xlink:href="#DejaVuSans-32"/>
       <use xlink:href="#DejaVuSans-30" transform="translate(63.623047 0)"/>
       <use xlink:href="#DejaVuSans-2013" transform="translate(127.246094 0)"/>
       <use xlink:href="#DejaVuSans-32" transform="translate(177.246094 0)"/>
       <use xlink:href="#DejaVuSans-31" transform="translate(240.869141 0)"/>
      </g>
     </g>
    </g>
    <g id="ytick_15">
     <g id="line2d_25">
      <g>
       <use xlink:href="#meafcd5d8ba" x="37.0375" y="420.370703" style="fill: #555555; stroke: #555555; stroke-width: 0.8"/>
      </g>
     </g>
     <g id="text_21">
      <!-- 05–06 -->
      <g style="fill: #555555" transform="translate(7.2 423.220117) scale(0.075 -0.075)">
       <use xlink:href="#DejaVuSans-30"/>
       <use xlink:href="#DejaVuSans-35" transform="translate(63.623047 0)"/>
       <use xlink:href="#DejaVuSans-2013" transform="translate(127.246094 0)"/>
       <use xlink:href="#DejaVuSans-30" transform="translate(177.246094 0)"/>
       <use xlink:href="#DejaVuSans-36" transform="translate(240.869141 0)"/>
      </g>
     </g>
    </g>
    <g id="ytick_16">
     <g id="line2d_26">
      <g>
       <use xlink:href="#meafcd5d8ba" x="37.0375" y="407.3775" style="fill: #555555; stroke: #555555; stroke-width: 0.8"/>
      </g>
     </g>
     <g id="text_22">
      <!-- 24–25 -->
      <g style="fill: #555555" transform="translate(7.2 410.226914) scale(0.075 -0.075)">
       <use xlink:href="#DejaVuSans-32"/>
       <use xlink:href="#DejaVuSans-34" transform="translate(63.623047 0)"/>
       <use xlink:href="#DejaVuSans-2013" transform="translate(127.246094 0)"/>
       <use xlink:href="#DejaVuSans-32" transform="translate(177.246094 0)"/>
       <use xlink:href="#DejaVuSans-35" transform="translate(240.869141 0)"/>
      </g>
     </g>
    </g>
    <g id="ytick_17">
     <g id="line2d_27">
      <g>
       <use xlink:href="#meafcd5d8ba" x="37.0375" y="394.384297" style="fill: #555555; stroke: #555555; stroke-width: 0.8"/>
      </g>
     </g>
     <g id="text_23">
      <!-- 03–04 -->
      <g style="fill: #555555" transform="translate(7.2 397.233711) scale(0.075 -0.075)">
       <use xlink:href="#DejaVuSans-30"/>
       <use xlink:href="#DejaVuSans-33" transform="translate(63.623047 0)"/>
       <use xlink:href="#DejaVuSans-2013" transform="translate(127.246094 0)"/>
       <use xlink:href="#DejaVuSans-30" transform="translate(177.246094 0)"/>
       <use xlink:href="#DejaVuSans-34" transform="translate(240.869141 0)"/>
      </g>
     </g>
    </g>
    <g id="ytick_18">
     <g id="line2d_28">
      <g>
       <use xlink:href="#meafcd5d8ba" x="37.0375" y="381.391093" style="fill: #555555; stroke: #555555; stroke-width: 0.8"/>
      </g>
     </g>
     <g id="text_24">
      <!-- 12–13 -->
      <g style="fill: #555555" transform="translate(7.2 384.240508) scale(0.075 -0.075)">
       <use xlink:href="#DejaVuSans-31"/>
       <use xlink:href="#DejaVuSans-32" transform="translate(63.623047 0)"/>
       <use xlink:href="#DejaVuSans-2013" transform="translate(127.246094 0)"/>
       <use xlink:href="#DejaVuSans-31" transform="translate(177.246094 0)"/>
       <use xlink:href="#DejaVuSans-33" transform="translate(240.869141 0)"/>
      </g>
     </g>
    </g>
    <g id="ytick_19">
     <g id="line2d_29">
      <g>
       <use xlink:href="#meafcd5d8ba" x="37.0375" y="368.39789" style="fill: #555555; stroke: #555555; stroke-width: 0.8"/>
      </g>
     </g>
     <g id="text_25">
      <!-- 04–05 -->
      <g style="fill: #555555" transform="translate(7.2 371.247304) scale(0.075 -0.075)">
       <use xlink:href="#DejaVuSans-30"/>
       <use xlink:href="#DejaVuSans-34" transform="translate(63.623047 0)"/>
       <use xlink:href="#DejaVuSans-2013" transform="translate(127.246094 0)"/>
       <use xlink:href="#DejaVuSans-30" transform="translate(177.246094 0)"/>
       <use xlink:href="#DejaVuSans-35" transform="translate(240.869141 0)"/>
      </g>
     </g>
    </g>
    <g id="ytick_20">
     <g id="line2d_30">
      <g>
       <use xlink:href="#meafcd5d8ba" x="37.0375" y="355.404687" style="fill: #555555; stroke: #555555; stroke-width: 0.8"/>
      </g>
     </g>
     <g id="text_26">
      <!-- 97–98 -->
      <g style="fill: #555555" transform="translate(7.2 358.254101) scale(0.075 -0.075)">
       <use xlink:href="#DejaVuSans-39"/>
       <use xlink:href="#DejaVuSans-37" transform="translate(63.623047 0)"/>
       <use xlink:href="#DejaVuSans-2013" transform="translate(127.246094 0)"/>
       <use xlink:href="#DejaVuSans-39" transform="translate(177.246094 0)"/>
       <use xlink:href="#DejaVuSans-38" transform="translate(240.869141 0)"/>
      </g>
     </g>
    </g>
    <g id="ytick_21">
     <g id="line2d_31">
      <g>
       <use xlink:href="#meafcd5d8ba" x="37.0375" y="342.411484" style="fill: #555555; stroke: #555555; stroke-width: 0.8"/>
      </g>
     </g>
     <g id="text_27">
      <!-- 21–22 -->
      <g style="fill: #555555" transform="translate(7.2 345.260898) scale(0.075 -0.075)">
       <use xlink:href="#DejaVuSans-32"/>
       <use xlink:href="#DejaVuSans-31" transform="translate(63.623047 0)"/>
       <use xlink:href="#DejaVuSans-2013" transform="translate(127.246094 0)"/>
       <use xlink:href="#DejaVuSans-32" transform="translate(177.246094 0)"/>
       <use xlink:href="#DejaVuSans-32" transform="translate(240.869141 0)"/>
      </g>
     </g>
    </g>
    <g id="ytick_22">
     <g id="line2d_32">
      <g>
       <use xlink:href="#meafcd5d8ba" x="37.0375" y="329.418281" style="fill: #555555; stroke: #555555; stroke-width: 0.8"/>
      </g>
     </g>
     <g id="text_28">
      <!-- 89–90 -->
      <g style="fill: #555555" transform="translate(7.2 332.267695) scale(0.075 -0.075)">
       <use xlink:href="#DejaVuSans-38"/>
       <use xlink:href="#DejaVuSans-39" transform="translate(63.623047 0)"/>
       <use xlink:href="#DejaVuSans-2013" transform="translate(127.246094 0)"/>
       <use xlink:href="#DejaVuSans-39" transform="translate(177.246094 0)"/>
       <use xlink:href="#DejaVuSans-30" transform="translate(240.869141 0)"/>
      </g>
     </g>
    </g>
    <g id="ytick_23">
     <g id="line2d_33">
      <g>
       <use xlink:href="#meafcd5d8ba" x="37.0375" y="316.425078" style="fill: #555555; stroke: #555555; stroke-width: 0.8"/>
      </g>
     </g>
     <g id="text_29">
      <!-- 10–11 -->
      <g style="fill: #555555" transform="translate(7.2 319.274492) scale(0.075 -0.075)">
       <use xlink:href="#DejaVuSans-31"/>
       <use xlink:href="#DejaVuSans-30" transform="translate(63.623047 0)"/>
       <use xlink:href="#DejaVuSans-2013" transform="translate(127.246094 0)"/>
       <use xlink:href="#DejaVuSans-31" transform="translate(177.246094 0)"/>
       <use xlink:href="#DejaVuSans-31" transform="translate(240.869141 0)"/>
      </g>
     </g>
    </g>
    <g id="ytick_24">
     <g id="line2d_34">
      <g>
       <use xlink:href="#meafcd5d8ba" x="37.0375" y="303.431875" style="fill: #555555; stroke: #555555; stroke-width: 0.8"/>
      </g>
     </g>
     <g id="text_30">
      <!-- 17–18 -->
      <g style="fill: #555555" transform="translate(7.2 306.281289) scale(0.075 -0.075)">
       <use xlink:href="#DejaVuSans-31"/>
       <use xlink:href="#DejaVuSans-37" transform="translate(63.623047 0)"/>
       <use xlink:href="#DejaVuSans-2013" transform="translate(127.246094 0)"/>
       <use xlink:href="#DejaVuSans-31" transform="translate(177.246094 0)"/>
       <use xlink:href="#DejaVuSans-38" transform="translate(240.869141 0)"/>
      </g>
     </g>
    </g>
    <g id="ytick_25">
     <g id="line2d_35">
      <g>
       <use xlink:href="#meafcd5d8ba" x="37.0375" y="290.438672" style="fill: #555555; stroke: #555555; stroke-width: 0.8"/>
      </g>
     </g>
     <g id="text_31">
      <!-- 15–16 -->
      <g style="fill: #555555" transform="translate(7.2 293.288086) scale(0.075 -0.075)">
       <use xlink:href="#DejaVuSans-31"/>
       <use xlink:href="#DejaVuSans-35" transform="translate(63.623047 0)"/>
       <use xlink:href="#DejaVuSans-2013" transform="translate(127.246094 0)"/>
       <use xlink:href="#DejaVuSans-31" transform="translate(177.246094 0)"/>
       <use xlink:href="#DejaVuSans-36" transform="translate(240.869141 0)"/>
      </g>
     </g>
    </g>
    <g id="ytick_26">
     <g id="line2d_36">
      <g>
       <use xlink:href="#meafcd5d8ba" x="37.0375" y="277.445469" style="fill: #555555; stroke: #555555; stroke-width: 0.8"/>
      </g>
     </g>
     <g id="text_32">
      <!-- 14–15 -->
      <g style="fill: #555555" transform="translate(7.2 280.294883) scale(0.075 -0.075)">
       <use xlink:href="#DejaVuSans-31"/>
       <use xlink:href="#DejaVuSans-34" transform="translate(63.623047 0)"/>
       <use xlink:href="#DejaVuSans-2013" transform="translate(127.246094 0)"/>
       <use xlink:href="#DejaVuSans-31" transform="translate(177.246094 0)"/>
       <use xlink:href="#DejaVuSans-35" transform="translate(240.869141 0)"/>
      </g>
     </g>
    </g>
    <g id="ytick_27">
     <g id="line2d_37">
      <g>
       <use xlink:href="#meafcd5d8ba" x="37.0375" y="264.452266" style="fill: #555555; stroke: #555555; stroke-width: 0.8"/>
      </g>
     </g>
     <g id="text_33">
      <!-- 19–20 -->
      <g style="fill: #555555" transform="translate(7.2 267.30168) scale(0.075 -0.075)">
       <use xlink:href="#DejaVuSans-31"/>
       <use xlink:href="#DejaVuSans-39" transform="translate(63.623047 0)"/>
       <use xlink:href="#DejaVuSans-2013" transform="translate(127.246094 0)"/>
       <use xlink:href="#DejaVuSans-32" transform="translate(177.246094 0)"/>
       <use xlink:href="#DejaVuSans-30" transform="translate(240.869141 0)"/>
      </g>
     </g>
    </g>
    <g id="ytick_28">
     <g id="line2d_38">
      <g>
       <use xlink:href="#meafcd5d8ba" x="37.0375" y="251.459063" style="fill: #555555; stroke: #555555; stroke-width: 0.8"/>
      </g>
     </g>
     <g id="text_34">
      <!-- 92–93 -->
      <g style="fill: #555555" transform="translate(7.2 254.308477) scale(0.075 -0.075)">
       <use xlink:href="#DejaVuSans-39"/>
       <use xlink:href="#DejaVuSans-32" transform="translate(63.623047 0)"/>
       <use xlink:href="#DejaVuSans-2013" transform="translate(127.246094 0)"/>
       <use xlink:href="#DejaVuSans-39" transform="translate(177.246094 0)"/>
       <use xlink:href="#DejaVuSans-33" transform="translate(240.869141 0)"/>
      </g>
     </g>
    </g>
    <g id="ytick_29">
     <g id="line2d_39">
      <g>
       <use xlink:href="#meafcd5d8ba" x="37.0375" y="238.46586" style="fill: #555555; stroke: #555555; stroke-width: 0.8"/>
      </g>
     </g>
     <g id="text_35">
      <!-- 01–02 -->
      <g style="fill: #555555" transform="translate(7.2 241.315274) scale(0.075 -0.075)">
       <use xlink:href="#DejaVuSans-30"/>
       <use xlink:href="#DejaVuSans-31" transform="translate(63.623047 0)"/>
       <use xlink:href="#DejaVuSans-2013" transform="translate(127.246094 0)"/>
       <use xlink:href="#DejaVuSans-30" transform="translate(177.246094 0)"/>
       <use xlink:href="#DejaVuSans-32" transform="translate(240.869141 0)"/>
      </g>
     </g>
    </g>
    <g id="ytick_30">
     <g id="line2d_40">
      <g>
       <use xlink:href="#meafcd5d8ba" x="37.0375" y="225.472657" style="fill: #555555; stroke: #555555; stroke-width: 0.8"/>
      </g>
     </g>
     <g id="text_36">
      <!-- 96–97 -->
      <g style="fill: #555555" transform="translate(7.2 228.322071) scale(0.075 -0.075)">
       <use xlink:href="#DejaVuSans-39"/>
       <use xlink:href="#DejaVuSans-36" transform="translate(63.623047 0)"/>
       <use xlink:href="#DejaVuSans-2013" transform="translate(127.246094 0)"/>
       <use xlink:href="#DejaVuSans-39" transform="translate(177.246094 0)"/>
       <use xlink:href="#DejaVuSans-37" transform="translate(240.869141 0)"/>
      </g>
     </g>
    </g>
    <g id="ytick_31">
     <g id="line2d_41">
      <g>
       <use xlink:href="#meafcd5d8ba" x="37.0375" y="212.479454" style="fill: #555555; stroke: #555555; stroke-width: 0.8"/>
      </g>
     </g>
     <g id="text_37">
      <!-- 84–85 -->
      <g style="fill: #555555" transform="translate(7.2 215.328868) scale(0.075 -0.075)">
       <use xlink:href="#DejaVuSans-38"/>
       <use xlink:href="#DejaVuSans-34" transform="translate(63.623047 0)"/>
       <use xlink:href="#DejaVuSans-2013" transform="translate(127.246094 0)"/>
       <use xlink:href="#DejaVuSans-38" transform="translate(177.246094 0)"/>
       <use xlink:href="#DejaVuSans-35" transform="translate(240.869141 0)"/>
      </g>
     </g>
    </g>
    <g id="ytick_32">
     <g id="line2d_42">
      <g>
       <use xlink:href="#meafcd5d8ba" x="37.0375" y="199.486251" style="fill: #555555; stroke: #555555; stroke-width: 0.8"/>
      </g>
     </g>
     <g id="text_38">
      <!-- 06–07 -->
      <g style="fill: #555555" transform="translate(7.2 202.335665) scale(0.075 -0.075)">
       <use xlink:href="#DejaVuSans-30"/>
       <use xlink:href="#DejaVuSans-36" transform="translate(63.623047 0)"/>
       <use xlink:href="#DejaVuSans-2013" transform="translate(127.246094 0)"/>
       <use xlink:href="#DejaVuSans-30" transform="translate(177.246094 0)"/>
       <use xlink:href="#DejaVuSans-37" transform="translate(240.869141 0)"/>
      </g>
     </g>
    </g>
    <g id="ytick_33">
     <g id="line2d_43">
      <g>
       <use xlink:href="#meafcd5d8ba" x="37.0375" y="186.493048" style="fill: #555555; stroke: #555555; stroke-width: 0.8"/>
      </g>
     </g>
     <g id="text_39">
      <!-- 22–23 -->
      <g style="fill: #555555" transform="translate(7.2 189.342462) scale(0.075 -0.075)">
       <use xlink:href="#DejaVuSans-32"/>
       <use xlink:href="#DejaVuSans-32" transform="translate(63.623047 0)"/>
       <use xlink:href="#DejaVuSans-2013" transform="translate(127.246094 0)"/>
       <use xlink:href="#DejaVuSans-32" transform="translate(177.246094 0)"/>
       <use xlink:href="#DejaVuSans-33" transform="translate(240.869141 0)"/>
      </g>
     </g>
    </g>
    <g id="ytick_34">
     <g id="line2d_44">
      <g>
       <use xlink:href="#meafcd5d8ba" x="37.0375" y="173.499845" style="fill: #555555; stroke: #555555; stroke-width: 0.8"/>
      </g>
     </g>
     <g id="text_40">
      <!-- 85–86 -->
      <g style="fill: #555555" transform="translate(7.2 176.349259) scale(0.075 -0.075)">
       <use xlink:href="#DejaVuSans-38"/>
       <use xlink:href="#DejaVuSans-35" transform="translate(63.623047 0)"/>
       <use xlink:href="#DejaVuSans-2013" transform="translate(127.246094 0)"/>
       <use xlink:href="#DejaVuSans-38" transform="translate(177.246094 0)"/>
       <use xlink:href="#DejaVuSans-36" transform="translate(240.869141 0)"/>
      </g>
     </g>
    </g>
    <g id="ytick_35">
     <g id="line2d_45">
      <g>
       <use xlink:href="#meafcd5d8ba" x="37.0375" y="160.506641" style="fill: #555555; stroke: #555555; stroke-width: 0.8"/>
      </g>
     </g>
     <g id="text_41">
      <!-- 95–96 -->
      <g style="fill: #555555" transform="translate(7.2 163.356056) scale(0.075 -0.075)">
       <use xlink:href="#DejaVuSans-39"/>
       <use xlink:href="#DejaVuSans-35" transform="translate(63.623047 0)"/>
       <use xlink:href="#DejaVuSans-2013" transform="translate(127.246094 0)"/>
       <use xlink:href="#DejaVuSans-39" transform="translate(177.246094 0)"/>
       <use xlink:href="#DejaVuSans-36" transform="translate(240.869141 0)"/>
      </g>
     </g>
    </g>
    <g id="ytick_36">
     <g id="line2d_46">
      <g>
       <use xlink:href="#meafcd5d8ba" x="37.0375" y="147.513438" style="fill: #555555; stroke: #555555; stroke-width: 0.8"/>
      </g>
     </g>
     <g id="text_42">
      <!-- 86–87 -->
      <g style="fill: #555555" transform="translate(7.2 150.362852) scale(0.075 -0.075)">
       <use xlink:href="#DejaVuSans-38"/>
       <use xlink:href="#DejaVuSans-36" transform="translate(63.623047 0)"/>
       <use xlink:href="#DejaVuSans-2013" transform="translate(127.246094 0)"/>
       <use xlink:href="#DejaVuSans-38" transform="translate(177.246094 0)"/>
       <use xlink:href="#DejaVuSans-37" transform="translate(240.869141 0)"/>
      </g>
     </g>
    </g>
    <g id="ytick_37">
     <g id="line2d_47">
      <g>
       <use xlink:href="#meafcd5d8ba" x="37.0375" y="134.520235" style="fill: #555555; stroke: #555555; stroke-width: 0.8"/>
      </g>
     </g>
     <g id="text_43">
      <!-- 23–24 -->
      <g style="fill: #555555" transform="translate(7.2 137.369649) scale(0.075 -0.075)">
       <use xlink:href="#DejaVuSans-32"/>
       <use xlink:href="#DejaVuSans-33" transform="translate(63.623047 0)"/>
       <use xlink:href="#DejaVuSans-2013" transform="translate(127.246094 0)"/>
       <use xlink:href="#DejaVuSans-32" transform="translate(177.246094 0)"/>
       <use xlink:href="#DejaVuSans-34" transform="translate(240.869141 0)"/>
      </g>
     </g>
    </g>
    <g id="ytick_38">
     <g id="line2d_48">
      <g>
       <use xlink:href="#meafcd5d8ba" x="37.0375" y="121.527032" style="fill: #555555; stroke: #555555; stroke-width: 0.8"/>
      </g>
     </g>
     <g id="text_44">
      <!-- 25–26 -->
      <g style="fill: #555555" transform="translate(7.2 124.376446) scale(0.075 -0.075)">
       <use xlink:href="#DejaVuSans-32"/>
       <use xlink:href="#DejaVuSans-35" transform="translate(63.623047 0)"/>
       <use xlink:href="#DejaVuSans-2013" transform="translate(127.246094 0)"/>
       <use xlink:href="#DejaVuSans-32" transform="translate(177.246094 0)"/>
       <use xlink:href="#DejaVuSans-36" transform="translate(240.869141 0)"/>
      </g>
     </g>
    </g>
    <g id="ytick_39">
     <g id="line2d_49">
      <g>
       <use xlink:href="#meafcd5d8ba" x="37.0375" y="108.533829" style="fill: #555555; stroke: #555555; stroke-width: 0.8"/>
      </g>
     </g>
     <g id="text_45">
      <!-- 88–89 -->
      <g style="fill: #555555" transform="translate(7.2 111.383243) scale(0.075 -0.075)">
       <use xlink:href="#DejaVuSans-38"/>
       <use xlink:href="#DejaVuSans-38" transform="translate(63.623047 0)"/>
       <use xlink:href="#DejaVuSans-2013" transform="translate(127.246094 0)"/>
       <use xlink:href="#DejaVuSans-38" transform="translate(177.246094 0)"/>
       <use xlink:href="#DejaVuSans-39" transform="translate(240.869141 0)"/>
      </g>
     </g>
    </g>
    <g id="ytick_40">
     <g id="line2d_50">
      <g>
       <use xlink:href="#meafcd5d8ba" x="37.0375" y="95.540626" style="fill: #555555; stroke: #555555; stroke-width: 0.8"/>
      </g>
     </g>
     <g id="text_46">
      <!-- 90–91 -->
      <g style="fill: #555555" transform="translate(7.2 98.39004) scale(0.075 -0.075)">
       <use xlink:href="#DejaVuSans-39"/>
       <use xlink:href="#DejaVuSans-30" transform="translate(63.623047 0)"/>
       <use xlink:href="#DejaVuSans-2013" transform="translate(127.246094 0)"/>
       <use xlink:href="#DejaVuSans-39" transform="translate(177.246094 0)"/>
       <use xlink:href="#DejaVuSans-31" transform="translate(240.869141 0)"/>
      </g>
     </g>
    </g>
    <g id="ytick_41">
     <g id="line2d_51">
      <g>
       <use xlink:href="#meafcd5d8ba" x="37.0375" y="82.547423" style="fill: #555555; stroke: #555555; stroke-width: 0.8"/>
      </g>
     </g>
     <g id="text_47">
      <!-- 98–99 -->
      <g style="fill: #555555" transform="translate(7.2 85.396837) scale(0.075 -0.075)">
       <use xlink:href="#DejaVuSans-39"/>
       <use xlink:href="#DejaVuSans-38" transform="translate(63.623047 0)"/>
       <use xlink:href="#DejaVuSans-2013" transform="translate(127.246094 0)"/>
       <use xlink:href="#DejaVuSans-39" transform="translate(177.246094 0)"/>
       <use xlink:href="#DejaVuSans-39" transform="translate(240.869141 0)"/>
      </g>
     </g>
    </g>
    <g id="ytick_42">
     <g id="line2d_52">
      <g>
       <use xlink:href="#meafcd5d8ba" x="37.0375" y="69.55422" style="fill: #555555; stroke: #555555; stroke-width: 0.8"/>
      </g>
     </g>
     <g id="text_48">
      <!-- 00–01 -->
      <g style="fill: #555555" transform="translate(7.2 72.403634) scale(0.075 -0.075)">
       <use xlink:href="#DejaVuSans-30"/>
       <use xlink:href="#DejaVuSans-30" transform="translate(63.623047 0)"/>
       <use xlink:href="#DejaVuSans-2013" transform="translate(127.246094 0)"/>
       <use xlink:href="#DejaVuSans-30" transform="translate(177.246094 0)"/>
       <use xlink:href="#DejaVuSans-31" transform="translate(240.869141 0)"/>
      </g>
     </g>
    </g>
    <g id="ytick_43">
     <g id="line2d_53">
      <g>
       <use xlink:href="#meafcd5d8ba" x="37.0375" y="56.561017" style="fill: #555555; stroke: #555555; stroke-width: 0.8"/>
      </g>
     </g>
     <g id="text_49">
      <!-- 16–17 -->
      <g style="fill: #555555" transform="translate(7.2 59.410431) scale(0.075 -0.075)">
       <use xlink:href="#DejaVuSans-31"/>
       <use xlink:href="#DejaVuSans-36" transform="translate(63.623047 0)"/>
       <use xlink:href="#DejaVuSans-2013" transform="translate(127.246094 0)"/>
       <use xlink:href="#DejaVuSans-31" transform="translate(177.246094 0)"/>
       <use xlink:href="#DejaVuSans-37" transform="translate(240.869141 0)"/>
      </g>
     </g>
    </g>
   </g>
   <g id="patch_3">
    <path d="M 37.0375 607.472827 
L 363.67413 607.472827 
L 363.67413 597.078264 
L 37.0375 597.078264 
z
" clip-path="url(#pb0a4dee9bc)" style="fill: #378add"/>
   </g>
   <g id="patch_4">
    <path d="M 37.0375 594.479624 
L 368.777827 594.479624 
L 368.777827 584.085061 
L 37.0375 584.085061 
z
" clip-path="url(#pb0a4dee9bc)" style="fill: #378add"/>
   </g>
   <g id="patch_5">
    <path d="M 37.0375 581.486421 
L 383.20132 581.486421 
L 383.20132 571.091858 
L 37.0375 571.091858 
z
" clip-path="url(#pb0a4dee9bc)" style="fill: #378add"/>
   </g>
   <g id="patch_6">
    <path d="M 37.0375 568.493218 
L 383.20132 568.493218 
L 383.20132 558.098655 
L 37.0375 558.098655 
z
" clip-path="url(#pb0a4dee9bc)" style="fill: #378add"/>
   </g>
   <g id="patch_7">
    <path d="M 37.0375 555.500014 
L 383.20132 555.500014 
L 383.20132 545.105452 
L 37.0375 545.105452 
z
" clip-path="url(#pb0a4dee9bc)" style="fill: #378add"/>
   </g>
   <g id="patch_8">
    <path d="M 37.0375 542.506811 
L 390.893849 542.506811 
L 390.893849 532.112249 
L 37.0375 532.112249 
z
" clip-path="url(#pb0a4dee9bc)" style="fill: #378add"/>
   </g>
   <g id="patch_9">
    <path d="M 37.0375 529.513608 
L 390.893849 529.513608 
L 390.893849 519.119046 
L 37.0375 519.119046 
z
" clip-path="url(#pb0a4dee9bc)" style="fill: #378add"/>
   </g>
   <g id="patch_10">
    <path d="M 37.0375 516.520405 
L 398.936039 516.520405 
L 398.936039 506.125843 
L 37.0375 506.125843 
z
" clip-path="url(#pb0a4dee9bc)" style="fill: #378add"/>
   </g>
   <g id="patch_11">
    <path d="M 37.0375 503.527202 
L 398.936039 503.527202 
L 398.936039 493.13264 
L 37.0375 493.13264 
z
" clip-path="url(#pb0a4dee9bc)" style="fill: #378add"/>
   </g>
   <g id="patch_12">
    <path d="M 37.0375 490.533999 
L 406.278908 490.533999 
L 406.278908 480.139437 
L 37.0375 480.139437 
z
" clip-path="url(#pb0a4dee9bc)" style="fill: #378add"/>
   </g>
   <g id="patch_13">
    <path d="M 37.0375 477.540796 
L 406.278908 477.540796 
L 406.278908 467.146234 
L 37.0375 467.146234 
z
" clip-path="url(#pb0a4dee9bc)" style="fill: #378add"/>
   </g>
   <g id="patch_14">
    <path d="M 37.0375 464.547593 
L 406.278908 464.547593 
L 406.278908 454.153031 
L 37.0375 454.153031 
z
" clip-path="url(#pb0a4dee9bc)" style="fill: #378add"/>
   </g>
   <g id="patch_15">
    <path d="M 37.0375 451.55439 
L 406.278908 451.55439 
L 406.278908 441.159828 
L 37.0375 441.159828 
z
" clip-path="url(#pb0a4dee9bc)" style="fill: #378add"/>
   </g>
   <g id="patch_16">
    <path d="M 37.0375 438.561187 
L 406.278908 438.561187 
L 406.278908 428.166624 
L 37.0375 428.166624 
z
" clip-path="url(#pb0a4dee9bc)" style="fill: #378add"/>
   </g>
   <g id="patch_17">
    <path d="M 37.0375 425.567984 
L 406.278908 425.567984 
L 406.278908 415.173421 
L 37.0375 415.173421 
z
" clip-path="url(#pb0a4dee9bc)" style="fill: #378add"/>
   </g>
   <g id="patch_18">
    <path d="M 37.0375 412.574781 
L 406.278908 412.574781 
L 406.278908 402.180218 
L 37.0375 402.180218 
z
" clip-path="url(#pb0a4dee9bc)" style="fill: #378add"/>
   </g>
   <g id="patch_19">
    <path d="M 37.0375 399.581578 
L 406.278908 399.581578 
L 406.278908 389.187015 
L 37.0375 389.187015 
z
" clip-path="url(#pb0a4dee9bc)" style="fill: #378add"/>
   </g>
   <g id="patch_20">
    <path d="M 37.0375 386.588375 
L 406.278908 386.588375 
L 406.278908 376.193812 
L 37.0375 376.193812 
z
" clip-path="url(#pb0a4dee9bc)" style="fill: #378add"/>
   </g>
   <g id="patch_21">
    <path d="M 37.0375 373.595172 
L 406.278908 373.595172 
L 406.278908 363.200609 
L 37.0375 363.200609 
z
" clip-path="url(#pb0a4dee9bc)" style="fill: #378add"/>
   </g>
   <g id="patch_22">
    <path d="M 37.0375 360.601969 
L 416.169303 360.601969 
L 416.169303 350.207406 
L 37.0375 350.207406 
z
" clip-path="url(#pb0a4dee9bc)" style="fill: #378add"/>
   </g>
   <g id="patch_23">
    <path d="M 37.0375 347.608766 
L 423.062608 347.608766 
L 423.062608 337.214203 
L 37.0375 337.214203 
z
" clip-path="url(#pb0a4dee9bc)" style="fill: #378add"/>
   </g>
   <g id="patch_24">
    <path d="M 37.0375 334.615562 
L 435.125893 334.615562 
L 435.125893 324.221 
L 37.0375 324.221 
z
" clip-path="url(#pb0a4dee9bc)" style="fill: #378add"/>
   </g>
   <g id="patch_25">
    <path d="M 37.0375 321.622359 
L 441.444756 321.622359 
L 441.444756 311.227797 
L 37.0375 311.227797 
z
" clip-path="url(#pb0a4dee9bc)" style="fill: #378add"/>
   </g>
   <g id="patch_26">
    <path d="M 37.0375 308.629156 
L 441.444756 308.629156 
L 441.444756 298.234594 
L 37.0375 298.234594 
z
" clip-path="url(#pb0a4dee9bc)" style="fill: #378add"/>
   </g>
   <g id="patch_27">
    <path d="M 37.0375 295.635953 
L 441.444756 295.635953 
L 441.444756 285.241391 
L 37.0375 285.241391 
z
" clip-path="url(#pb0a4dee9bc)" style="fill: #378add"/>
   </g>
   <g id="patch_28">
    <path d="M 37.0375 282.64275 
L 441.444756 282.64275 
L 441.444756 272.248188 
L 37.0375 272.248188 
z
" clip-path="url(#pb0a4dee9bc)" style="fill: #378add"/>
   </g>
   <g id="patch_29">
    <path d="M 37.0375 269.649547 
L 441.444756 269.649547 
L 441.444756 259.254985 
L 37.0375 259.254985 
z
" clip-path="url(#pb0a4dee9bc)" style="fill: #378add"/>
   </g>
   <g id="patch_30">
    <path d="M 37.0375 256.656344 
L 456.077914 256.656344 
L 456.077914 246.261782 
L 37.0375 246.261782 
z
" clip-path="url(#pb0a4dee9bc)" style="fill: #378add"/>
   </g>
   <g id="patch_31">
    <path d="M 37.0375 243.663141 
L 456.077914 243.663141 
L 456.077914 233.268579 
L 37.0375 233.268579 
z
" clip-path="url(#pb0a4dee9bc)" style="fill: #378add"/>
   </g>
   <g id="patch_32">
    <path d="M 37.0375 230.669938 
L 456.077914 230.669938 
L 456.077914 220.275376 
L 37.0375 220.275376 
z
" clip-path="url(#pb0a4dee9bc)" style="fill: #378add"/>
   </g>
   <g id="patch_33">
    <path d="M 37.0375 217.676735 
L 456.077914 217.676735 
L 456.077914 207.282172 
L 37.0375 207.282172 
z
" clip-path="url(#pb0a4dee9bc)" style="fill: #378add"/>
   </g>
   <g id="patch_34">
    <path d="M 37.0375 204.683532 
L 461.665119 204.683532 
L 461.665119 194.288969 
L 37.0375 194.288969 
z
" clip-path="url(#pb0a4dee9bc)" style="fill: #378add"/>
   </g>
   <g id="patch_35">
    <path d="M 37.0375 191.690329 
L 461.665119 191.690329 
L 461.665119 181.295766 
L 37.0375 181.295766 
z
" clip-path="url(#pb0a4dee9bc)" style="fill: #378add"/>
   </g>
   <g id="patch_36">
    <path d="M 37.0375 178.697126 
L 479.357937 178.697126 
L 479.357937 168.302563 
L 37.0375 168.302563 
z
" clip-path="url(#pb0a4dee9bc)" style="fill: #378add"/>
   </g>
   <g id="patch_37">
    <path d="M 37.0375 165.703923 
L 479.357937 165.703923 
L 479.357937 155.30936 
L 37.0375 155.30936 
z
" clip-path="url(#pb0a4dee9bc)" style="fill: #378add"/>
   </g>
   <g id="patch_38">
    <path d="M 37.0375 152.71072 
L 479.357937 152.71072 
L 479.357937 142.316157 
L 37.0375 142.316157 
z
" clip-path="url(#pb0a4dee9bc)" style="fill: #378add"/>
   </g>
   <g id="patch_39">
    <path d="M 37.0375 139.717517 
L 484.013941 139.717517 
L 484.013941 129.322954 
L 37.0375 129.322954 
z
" clip-path="url(#pb0a4dee9bc)" style="fill: #378add"/>
   </g>
   <g id="patch_40">
    <path d="M 37.0375 126.724314 
L 484.013941 126.724314 
L 484.013941 116.329751 
L 37.0375 116.329751 
z
" clip-path="url(#pb0a4dee9bc)" style="fill: #006bb6"/>
   </g>
   <g id="patch_41">
    <path d="M 37.0375 113.73111 
L 505.376786 113.73111 
L 505.376786 103.336548 
L 37.0375 103.336548 
z
" clip-path="url(#pb0a4dee9bc)" style="fill: #378add"/>
   </g>
   <g id="patch_42">
    <path d="M 37.0375 100.737907 
L 505.376786 100.737907 
L 505.376786 90.343345 
L 37.0375 90.343345 
z
" clip-path="url(#pb0a4dee9bc)" style="fill: #378add"/>
   </g>
   <g id="patch_43">
    <path d="M 37.0375 87.744704 
L 505.376786 87.744704 
L 505.376786 77.350142 
L 37.0375 77.350142 
z
" clip-path="url(#pb0a4dee9bc)" style="fill: #378add"/>
   </g>
   <g id="patch_44">
    <path d="M 37.0375 74.751501 
L 534.647991 74.751501 
L 534.647991 64.356939 
L 37.0375 64.356939 
z
" clip-path="url(#pb0a4dee9bc)" style="fill: #378add"/>
   </g>
   <g id="patch_45">
    <path d="M 37.0375 61.758298 
L 536.599405 61.758298 
L 536.599405 51.363736 
L 37.0375 51.363736 
z
" clip-path="url(#pb0a4dee9bc)" style="fill: #378add"/>
   </g>
   <g id="patch_46">
    <path d="M 37.0375 635.278281 
L 37.0375 23.558281 
" style="fill: none; stroke: #dddddd; stroke-width: 0.8; stroke-linejoin: miter; stroke-linecap: square"/>
   </g>
   <g id="patch_47">
    <path d="M 37.0375 635.278281 
L 561.5775 635.278281 
" style="fill: none; stroke: #dddddd; stroke-width: 0.8; stroke-linejoin: miter; stroke-linecap: square"/>
   </g>
   <g id="text_50">
    <!-- 0.842 -->
    <g style="fill: #006bb6" transform="translate(486.667864 123.734532) scale(0.08 -0.08)">
     <defs>
      <path id="DejaVuSans-Bold-30" d="M 2944 2338 
Q 2944 3213 2780 3570 
Q 2616 3928 2228 3928 
Q 1841 3928 1675 3570 
Q 1509 3213 1509 2338 
Q 1509 1453 1675 1090 
Q 1841 728 2228 728 
Q 2613 728 2778 1090 
Q 2944 1453 2944 2338 
z
M 4147 2328 
Q 4147 1169 3647 539 
Q 3147 -91 2228 -91 
Q 1306 -91 806 539 
Q 306 1169 306 2328 
Q 306 3491 806 4120 
Q 1306 4750 2228 4750 
Q 3147 4750 3647 4120 
Q 4147 3491 4147 2328 
z
" transform="scale(0.015625)"/>
      <path id="DejaVuSans-Bold-2e" d="M 653 1209 
L 1778 1209 
L 1778 0 
L 653 0 
L 653 1209 
z
" transform="scale(0.015625)"/>
      <path id="DejaVuSans-Bold-38" d="M 2228 2088 
Q 1891 2088 1709 1903 
Q 1528 1719 1528 1375 
Q 1528 1031 1709 848 
Q 1891 666 2228 666 
Q 2563 666 2741 848 
Q 2919 1031 2919 1375 
Q 2919 1722 2741 1905 
Q 2563 2088 2228 2088 
z
M 1350 2484 
Q 925 2613 709 2878 
Q 494 3144 494 3541 
Q 494 4131 934 4440 
Q 1375 4750 2228 4750 
Q 3075 4750 3515 4442 
Q 3956 4134 3956 3541 
Q 3956 3144 3739 2878 
Q 3522 2613 3097 2484 
Q 3572 2353 3814 2058 
Q 4056 1763 4056 1313 
Q 4056 619 3595 264 
Q 3134 -91 2228 -91 
Q 1319 -91 855 264 
Q 391 619 391 1313 
Q 391 1763 633 2058 
Q 875 2353 1350 2484 
z
M 1631 3419 
Q 1631 3141 1786 2991 
Q 1941 2841 2228 2841 
Q 2509 2841 2662 2991 
Q 2816 3141 2816 3419 
Q 2816 3697 2662 3845 
Q 2509 3994 2228 3994 
Q 1941 3994 1786 3844 
Q 1631 3694 1631 3419 
z
" transform="scale(0.015625)"/>
      <path id="DejaVuSans-Bold-34" d="M 2356 3675 
L 1038 1722 
L 2356 1722 
L 2356 3675 
z
M 2156 4666 
L 3494 4666 
L 3494 1722 
L 4159 1722 
L 4159 850 
L 3494 850 
L 3494 0 
L 2356 0 
L 2356 850 
L 288 850 
L 288 1881 
L 2156 4666 
z
" transform="scale(0.015625)"/>
      <path id="DejaVuSans-Bold-32" d="M 1844 884 
L 3897 884 
L 3897 0 
L 506 0 
L 506 884 
L 2209 2388 
Q 2438 2594 2547 2791 
Q 2656 2988 2656 3200 
Q 2656 3528 2436 3728 
Q 2216 3928 1850 3928 
Q 1569 3928 1234 3808 
Q 900 3688 519 3450 
L 519 4475 
Q 925 4609 1322 4679 
Q 1719 4750 2100 4750 
Q 2938 4750 3402 4381 
Q 3866 4013 3866 3353 
Q 3866 2972 3669 2642 
Q 3472 2313 2841 1759 
L 1844 884 
z
" transform="scale(0.015625)"/>
     </defs>
     <use xlink:href="#DejaVuSans-Bold-30"/>
     <use xlink:href="#DejaVuSans-Bold-2e" transform="translate(69.580078 0)"/>
     <use xlink:href="#DejaVuSans-Bold-38" transform="translate(107.568359 0)"/>
     <use xlink:href="#DejaVuSans-Bold-34" transform="translate(177.148438 0)"/>
     <use xlink:href="#DejaVuSans-Bold-32" transform="translate(246.728516 0)"/>
    </g>
   </g>
   <g id="text_51">
    <!-- NBA Champions: Playoff Win Rate  (1983–84 through 2025–26) -->
    <g style="fill: #2c2c2a" transform="translate(105.525312 15.558281) scale(0.11 -0.11)">
     <defs>
      <path id="DejaVuSans-Bold-4e" d="M 588 4666 
L 1931 4666 
L 3628 1466 
L 3628 4666 
L 4769 4666 
L 4769 0 
L 3425 0 
L 1728 3200 
L 1728 0 
L 588 0 
L 588 4666 
z
" transform="scale(0.015625)"/>
      <path id="DejaVuSans-Bold-42" d="M 2456 2859 
Q 2741 2859 2887 2984 
Q 3034 3109 3034 3353 
Q 3034 3594 2887 3720 
Q 2741 3847 2456 3847 
L 1791 3847 
L 1791 2859 
L 2456 2859 
z
M 2497 819 
Q 2859 819 3042 972 
Q 3225 1125 3225 1434 
Q 3225 1738 3044 1889 
Q 2863 2041 2497 2041 
L 1791 2041 
L 1791 819 
L 2497 819 
z
M 3616 2497 
Q 4003 2384 4215 2081 
Q 4428 1778 4428 1338 
Q 4428 663 3972 331 
Q 3516 0 2584 0 
L 588 0 
L 588 4666 
L 2394 4666 
Q 3366 4666 3802 4372 
Q 4238 4078 4238 3431 
Q 4238 3091 4078 2852 
Q 3919 2613 3616 2497 
z
" transform="scale(0.015625)"/>
      <path id="DejaVuSans-Bold-41" d="M 3419 850 
L 1538 850 
L 1241 0 
L 31 0 
L 1759 4666 
L 3194 4666 
L 4922 0 
L 3713 0 
L 3419 850 
z
M 1838 1716 
L 3116 1716 
L 2478 3572 
L 1838 1716 
z
" transform="scale(0.015625)"/>
      <path id="DejaVuSans-Bold-20" transform="scale(0.015625)"/>
      <path id="DejaVuSans-Bold-43" d="M 4288 256 
Q 3956 84 3597 -3 
Q 3238 -91 2847 -91 
Q 1681 -91 1000 561 
Q 319 1213 319 2328 
Q 319 3447 1000 4098 
Q 1681 4750 2847 4750 
Q 3238 4750 3597 4662 
Q 3956 4575 4288 4403 
L 4288 3438 
Q 3953 3666 3628 3772 
Q 3303 3878 2944 3878 
Q 2300 3878 1931 3465 
Q 1563 3053 1563 2328 
Q 1563 1606 1931 1193 
Q 2300 781 2944 781 
Q 3303 781 3628 887 
Q 3953 994 4288 1222 
L 4288 256 
z
" transform="scale(0.015625)"/>
      <path id="DejaVuSans-Bold-68" d="M 4056 2131 
L 4056 0 
L 2931 0 
L 2931 347 
L 2931 1625 
Q 2931 2084 2911 2256 
Q 2891 2428 2841 2509 
Q 2775 2619 2662 2680 
Q 2550 2741 2406 2741 
Q 2056 2741 1856 2470 
Q 1656 2200 1656 1722 
L 1656 0 
L 538 0 
L 538 4863 
L 1656 4863 
L 1656 2988 
Q 1909 3294 2193 3439 
Q 2478 3584 2822 3584 
Q 3428 3584 3742 3212 
Q 4056 2841 4056 2131 
z
" transform="scale(0.015625)"/>
      <path id="DejaVuSans-Bold-61" d="M 2106 1575 
Q 1756 1575 1579 1456 
Q 1403 1338 1403 1106 
Q 1403 894 1545 773 
Q 1688 653 1941 653 
Q 2256 653 2472 879 
Q 2688 1106 2688 1447 
L 2688 1575 
L 2106 1575 
z
M 3816 1997 
L 3816 0 
L 2688 0 
L 2688 519 
Q 2463 200 2181 54 
Q 1900 -91 1497 -91 
Q 953 -91 614 226 
Q 275 544 275 1050 
Q 275 1666 698 1953 
Q 1122 2241 2028 2241 
L 2688 2241 
L 2688 2328 
Q 2688 2594 2478 2717 
Q 2269 2841 1825 2841 
Q 1466 2841 1156 2769 
Q 847 2697 581 2553 
L 581 3406 
Q 941 3494 1303 3539 
Q 1666 3584 2028 3584 
Q 2975 3584 3395 3211 
Q 3816 2838 3816 1997 
z
" transform="scale(0.015625)"/>
      <path id="DejaVuSans-Bold-6d" d="M 3781 2919 
Q 3994 3244 4286 3414 
Q 4578 3584 4928 3584 
Q 5531 3584 5847 3212 
Q 6163 2841 6163 2131 
L 6163 0 
L 5038 0 
L 5038 1825 
Q 5041 1866 5042 1909 
Q 5044 1953 5044 2034 
Q 5044 2406 4934 2573 
Q 4825 2741 4581 2741 
Q 4263 2741 4089 2478 
Q 3916 2216 3909 1719 
L 3909 0 
L 2784 0 
L 2784 1825 
Q 2784 2406 2684 2573 
Q 2584 2741 2328 2741 
Q 2006 2741 1831 2477 
Q 1656 2213 1656 1722 
L 1656 0 
L 531 0 
L 531 3500 
L 1656 3500 
L 1656 2988 
Q 1863 3284 2130 3434 
Q 2397 3584 2719 3584 
Q 3081 3584 3359 3409 
Q 3638 3234 3781 2919 
z
" transform="scale(0.015625)"/>
      <path id="DejaVuSans-Bold-70" d="M 1656 506 
L 1656 -1331 
L 538 -1331 
L 538 3500 
L 1656 3500 
L 1656 2988 
Q 1888 3294 2169 3439 
Q 2450 3584 2816 3584 
Q 3463 3584 3878 3070 
Q 4294 2556 4294 1747 
Q 4294 938 3878 423 
Q 3463 -91 2816 -91 
Q 2450 -91 2169 54 
Q 1888 200 1656 506 
z
M 2400 2772 
Q 2041 2772 1848 2508 
Q 1656 2244 1656 1747 
Q 1656 1250 1848 986 
Q 2041 722 2400 722 
Q 2759 722 2948 984 
Q 3138 1247 3138 1747 
Q 3138 2247 2948 2509 
Q 2759 2772 2400 2772 
z
" transform="scale(0.015625)"/>
      <path id="DejaVuSans-Bold-69" d="M 538 3500 
L 1656 3500 
L 1656 0 
L 538 0 
L 538 3500 
z
M 538 4863 
L 1656 4863 
L 1656 3950 
L 538 3950 
L 538 4863 
z
" transform="scale(0.015625)"/>
      <path id="DejaVuSans-Bold-6f" d="M 2203 2784 
Q 1831 2784 1636 2517 
Q 1441 2250 1441 1747 
Q 1441 1244 1636 976 
Q 1831 709 2203 709 
Q 2569 709 2762 976 
Q 2956 1244 2956 1747 
Q 2956 2250 2762 2517 
Q 2569 2784 2203 2784 
z
M 2203 3584 
Q 3106 3584 3614 3096 
Q 4122 2609 4122 1747 
Q 4122 884 3614 396 
Q 3106 -91 2203 -91 
Q 1297 -91 786 396 
Q 275 884 275 1747 
Q 275 2609 786 3096 
Q 1297 3584 2203 3584 
z
" transform="scale(0.015625)"/>
      <path id="DejaVuSans-Bold-6e" d="M 4056 2131 
L 4056 0 
L 2931 0 
L 2931 347 
L 2931 1631 
Q 2931 2084 2911 2256 
Q 2891 2428 2841 2509 
Q 2775 2619 2662 2680 
Q 2550 2741 2406 2741 
Q 2056 2741 1856 2470 
Q 1656 2200 1656 1722 
L 1656 0 
L 538 0 
L 538 3500 
L 1656 3500 
L 1656 2988 
Q 1909 3294 2193 3439 
Q 2478 3584 2822 3584 
Q 3428 3584 3742 3212 
Q 4056 2841 4056 2131 
z
" transform="scale(0.015625)"/>
      <path id="DejaVuSans-Bold-73" d="M 3272 3391 
L 3272 2541 
Q 2913 2691 2578 2766 
Q 2244 2841 1947 2841 
Q 1628 2841 1473 2761 
Q 1319 2681 1319 2516 
Q 1319 2381 1436 2309 
Q 1553 2238 1856 2203 
L 2053 2175 
Q 2913 2066 3209 1816 
Q 3506 1566 3506 1031 
Q 3506 472 3093 190 
Q 2681 -91 1863 -91 
Q 1516 -91 1145 -36 
Q 775 19 384 128 
L 384 978 
Q 719 816 1070 734 
Q 1422 653 1784 653 
Q 2113 653 2278 743 
Q 2444 834 2444 1013 
Q 2444 1163 2330 1236 
Q 2216 1309 1875 1350 
L 1678 1375 
Q 931 1469 631 1722 
Q 331 1975 331 2491 
Q 331 3047 712 3315 
Q 1094 3584 1881 3584 
Q 2191 3584 2531 3537 
Q 2872 3491 3272 3391 
z
" transform="scale(0.015625)"/>
      <path id="DejaVuSans-Bold-3a" d="M 716 3500 
L 1844 3500 
L 1844 2291 
L 716 2291 
L 716 3500 
z
M 716 1209 
L 1844 1209 
L 1844 0 
L 716 0 
L 716 1209 
z
" transform="scale(0.015625)"/>
      <path id="DejaVuSans-Bold-50" d="M 588 4666 
L 2584 4666 
Q 3475 4666 3951 4270 
Q 4428 3875 4428 3144 
Q 4428 2409 3951 2014 
Q 3475 1619 2584 1619 
L 1791 1619 
L 1791 0 
L 588 0 
L 588 4666 
z
M 1791 3794 
L 1791 2491 
L 2456 2491 
Q 2806 2491 2997 2661 
Q 3188 2831 3188 3144 
Q 3188 3456 2997 3625 
Q 2806 3794 2456 3794 
L 1791 3794 
z
" transform="scale(0.015625)"/>
      <path id="DejaVuSans-Bold-6c" d="M 538 4863 
L 1656 4863 
L 1656 0 
L 538 0 
L 538 4863 
z
" transform="scale(0.015625)"/>
      <path id="DejaVuSans-Bold-79" d="M 78 3500 
L 1197 3500 
L 2138 1125 
L 2938 3500 
L 4056 3500 
L 2584 -331 
Q 2363 -916 2067 -1148 
Q 1772 -1381 1288 -1381 
L 641 -1381 
L 641 -647 
L 991 -647 
Q 1275 -647 1404 -556 
Q 1534 -466 1606 -231 
L 1638 -134 
L 78 3500 
z
" transform="scale(0.015625)"/>
      <path id="DejaVuSans-Bold-66" d="M 2841 4863 
L 2841 4128 
L 2222 4128 
Q 1984 4128 1890 4042 
Q 1797 3956 1797 3744 
L 1797 3500 
L 2753 3500 
L 2753 2700 
L 1797 2700 
L 1797 0 
L 678 0 
L 678 2700 
L 122 2700 
L 122 3500 
L 678 3500 
L 678 3744 
Q 678 4316 997 4589 
Q 1316 4863 1984 4863 
L 2841 4863 
z
" transform="scale(0.015625)"/>
      <path id="DejaVuSans-Bold-57" d="M 191 4666 
L 1344 4666 
L 2150 1275 
L 2950 4666 
L 4109 4666 
L 4909 1275 
L 5716 4666 
L 6859 4666 
L 5759 0 
L 4372 0 
L 3525 3547 
L 2688 0 
L 1300 0 
L 191 4666 
z
" transform="scale(0.015625)"/>
      <path id="DejaVuSans-Bold-52" d="M 2297 2597 
Q 2675 2597 2839 2737 
Q 3003 2878 3003 3200 
Q 3003 3519 2839 3656 
Q 2675 3794 2297 3794 
L 1791 3794 
L 1791 2597 
L 2297 2597 
z
M 1791 1766 
L 1791 0 
L 588 0 
L 588 4666 
L 2425 4666 
Q 3347 4666 3776 4356 
Q 4206 4047 4206 3378 
Q 4206 2916 3982 2619 
Q 3759 2322 3309 2181 
Q 3556 2125 3751 1926 
Q 3947 1728 4147 1325 
L 4800 0 
L 3519 0 
L 2950 1159 
Q 2778 1509 2601 1637 
Q 2425 1766 2131 1766 
L 1791 1766 
z
" transform="scale(0.015625)"/>
      <path id="DejaVuSans-Bold-74" d="M 1759 4494 
L 1759 3500 
L 2913 3500 
L 2913 2700 
L 1759 2700 
L 1759 1216 
Q 1759 972 1856 886 
Q 1953 800 2241 800 
L 2816 800 
L 2816 0 
L 1856 0 
Q 1194 0 917 276 
Q 641 553 641 1216 
L 641 2700 
L 84 2700 
L 84 3500 
L 641 3500 
L 641 4494 
L 1759 4494 
z
" transform="scale(0.015625)"/>
      <path id="DejaVuSans-Bold-65" d="M 4031 1759 
L 4031 1441 
L 1416 1441 
Q 1456 1047 1700 850 
Q 1944 653 2381 653 
Q 2734 653 3104 758 
Q 3475 863 3866 1075 
L 3866 213 
Q 3469 63 3072 -14 
Q 2675 -91 2278 -91 
Q 1328 -91 801 392 
Q 275 875 275 1747 
Q 275 2603 792 3093 
Q 1309 3584 2216 3584 
Q 3041 3584 3536 3087 
Q 4031 2591 4031 1759 
z
M 2881 2131 
Q 2881 2450 2695 2645 
Q 2509 2841 2209 2841 
Q 1884 2841 1681 2658 
Q 1478 2475 1428 2131 
L 2881 2131 
z
" transform="scale(0.015625)"/>
      <path id="DejaVuSans-Bold-28" d="M 2413 -844 
L 1484 -844 
Q 1006 -72 778 623 
Q 550 1319 550 2003 
Q 550 2688 779 3389 
Q 1009 4091 1484 4856 
L 2413 4856 
Q 2013 4116 1813 3408 
Q 1613 2700 1613 2009 
Q 1613 1319 1811 609 
Q 2009 -100 2413 -844 
z
" transform="scale(0.015625)"/>
      <path id="DejaVuSans-Bold-31" d="M 750 831 
L 1813 831 
L 1813 3847 
L 722 3622 
L 722 4441 
L 1806 4666 
L 2950 4666 
L 2950 831 
L 4013 831 
L 4013 0 
L 750 0 
L 750 831 
z
" transform="scale(0.015625)"/>
      <path id="DejaVuSans-Bold-39" d="M 641 103 
L 641 966 
Q 928 831 1190 764 
Q 1453 697 1709 697 
Q 2247 697 2547 995 
Q 2847 1294 2900 1881 
Q 2688 1725 2447 1647 
Q 2206 1569 1925 1569 
Q 1209 1569 770 1986 
Q 331 2403 331 3084 
Q 331 3838 820 4291 
Q 1309 4744 2131 4744 
Q 3044 4744 3544 4128 
Q 4044 3513 4044 2388 
Q 4044 1231 3459 570 
Q 2875 -91 1856 -91 
Q 1528 -91 1228 -42 
Q 928 6 641 103 
z
M 2125 2350 
Q 2441 2350 2600 2554 
Q 2759 2759 2759 3169 
Q 2759 3575 2600 3781 
Q 2441 3988 2125 3988 
Q 1809 3988 1650 3781 
Q 1491 3575 1491 3169 
Q 1491 2759 1650 2554 
Q 1809 2350 2125 2350 
z
" transform="scale(0.015625)"/>
      <path id="DejaVuSans-Bold-33" d="M 2981 2516 
Q 3453 2394 3698 2092 
Q 3944 1791 3944 1325 
Q 3944 631 3412 270 
Q 2881 -91 1863 -91 
Q 1503 -91 1142 -33 
Q 781 25 428 141 
L 428 1069 
Q 766 900 1098 814 
Q 1431 728 1753 728 
Q 2231 728 2486 893 
Q 2741 1059 2741 1369 
Q 2741 1688 2480 1852 
Q 2219 2016 1709 2016 
L 1228 2016 
L 1228 2791 
L 1734 2791 
Q 2188 2791 2409 2933 
Q 2631 3075 2631 3366 
Q 2631 3634 2415 3781 
Q 2200 3928 1806 3928 
Q 1516 3928 1219 3862 
Q 922 3797 628 3669 
L 628 4550 
Q 984 4650 1334 4700 
Q 1684 4750 2022 4750 
Q 2931 4750 3382 4451 
Q 3834 4153 3834 3553 
Q 3834 3144 3618 2883 
Q 3403 2622 2981 2516 
z
" transform="scale(0.015625)"/>
      <path id="DejaVuSans-Bold-2013" d="M 344 2156 
L 2856 2156 
L 2856 1350 
L 344 1350 
L 344 2156 
z
" transform="scale(0.015625)"/>
      <path id="DejaVuSans-Bold-72" d="M 3138 2547 
Q 2991 2616 2845 2648 
Q 2700 2681 2553 2681 
Q 2122 2681 1889 2404 
Q 1656 2128 1656 1613 
L 1656 0 
L 538 0 
L 538 3500 
L 1656 3500 
L 1656 2925 
Q 1872 3269 2151 3426 
Q 2431 3584 2822 3584 
Q 2878 3584 2943 3579 
Q 3009 3575 3134 3559 
L 3138 2547 
z
" transform="scale(0.015625)"/>
      <path id="DejaVuSans-Bold-75" d="M 500 1363 
L 500 3500 
L 1625 3500 
L 1625 3150 
Q 1625 2866 1622 2436 
Q 1619 2006 1619 1863 
Q 1619 1441 1641 1255 
Q 1663 1069 1716 984 
Q 1784 875 1895 815 
Q 2006 756 2150 756 
Q 2500 756 2700 1025 
Q 2900 1294 2900 1772 
L 2900 3500 
L 4019 3500 
L 4019 0 
L 2900 0 
L 2900 506 
Q 2647 200 2364 54 
Q 2081 -91 1741 -91 
Q 1134 -91 817 281 
Q 500 653 500 1363 
z
" transform="scale(0.015625)"/>
      <path id="DejaVuSans-Bold-67" d="M 2919 594 
Q 2688 288 2409 144 
Q 2131 0 1766 0 
Q 1125 0 706 504 
Q 288 1009 288 1791 
Q 288 2575 706 3076 
Q 1125 3578 1766 3578 
Q 2131 3578 2409 3434 
Q 2688 3291 2919 2981 
L 2919 3500 
L 4044 3500 
L 4044 353 
Q 4044 -491 3511 -936 
Q 2978 -1381 1966 -1381 
Q 1638 -1381 1331 -1331 
Q 1025 -1281 716 -1178 
L 716 -306 
Q 1009 -475 1290 -558 
Q 1572 -641 1856 -641 
Q 2406 -641 2662 -400 
Q 2919 -159 2919 353 
L 2919 594 
z
M 2181 2772 
Q 1834 2772 1640 2515 
Q 1447 2259 1447 1791 
Q 1447 1309 1634 1061 
Q 1822 813 2181 813 
Q 2531 813 2725 1069 
Q 2919 1325 2919 1791 
Q 2919 2259 2725 2515 
Q 2531 2772 2181 2772 
z
" transform="scale(0.015625)"/>
      <path id="DejaVuSans-Bold-35" d="M 678 4666 
L 3669 4666 
L 3669 3781 
L 1638 3781 
L 1638 3059 
Q 1775 3097 1914 3117 
Q 2053 3138 2203 3138 
Q 3056 3138 3531 2711 
Q 4006 2284 4006 1522 
Q 4006 766 3489 337 
Q 2972 -91 2053 -91 
Q 1656 -91 1267 -14 
Q 878 63 494 219 
L 494 1166 
Q 875 947 1217 837 
Q 1559 728 1863 728 
Q 2300 728 2551 942 
Q 2803 1156 2803 1522 
Q 2803 1891 2551 2103 
Q 2300 2316 1863 2316 
Q 1603 2316 1309 2248 
Q 1016 2181 678 2041 
L 678 4666 
z
" transform="scale(0.015625)"/>
      <path id="DejaVuSans-Bold-36" d="M 2316 2303 
Q 2000 2303 1842 2098 
Q 1684 1894 1684 1484 
Q 1684 1075 1842 870 
Q 2000 666 2316 666 
Q 2634 666 2792 870 
Q 2950 1075 2950 1484 
Q 2950 1894 2792 2098 
Q 2634 2303 2316 2303 
z
M 3803 4544 
L 3803 3681 
Q 3506 3822 3243 3889 
Q 2981 3956 2731 3956 
Q 2194 3956 1894 3657 
Q 1594 3359 1544 2772 
Q 1750 2925 1990 3001 
Q 2231 3078 2516 3078 
Q 3231 3078 3670 2659 
Q 4109 2241 4109 1563 
Q 4109 813 3618 361 
Q 3128 -91 2303 -91 
Q 1394 -91 895 523 
Q 397 1138 397 2266 
Q 397 3422 980 4083 
Q 1563 4744 2578 4744 
Q 2900 4744 3203 4694 
Q 3506 4644 3803 4544 
z
" transform="scale(0.015625)"/>
      <path id="DejaVuSans-Bold-29" d="M 513 -844 
Q 913 -100 1113 609 
Q 1313 1319 1313 2009 
Q 1313 2700 1113 3408 
Q 913 4116 513 4856 
L 1441 4856 
Q 1916 4091 2145 3389 
Q 2375 2688 2375 2003 
Q 2375 1319 2147 623 
Q 1919 -72 1441 -844 
L 513 -844 
z
" transform="scale(0.015625)"/>
     </defs>
     <use xlink:href="#DejaVuSans-Bold-4e"/>
     <use xlink:href="#DejaVuSans-Bold-42" transform="translate(83.691406 0)"/>
     <use xlink:href="#DejaVuSans-Bold-41" transform="translate(159.912109 0)"/>
     <use xlink:href="#DejaVuSans-Bold-20" transform="translate(237.304688 0)"/>
     <use xlink:href="#DejaVuSans-Bold-43" transform="translate(272.119141 0)"/>
     <use xlink:href="#DejaVuSans-Bold-68" transform="translate(345.507812 0)"/>
     <use xlink:href="#DejaVuSans-Bold-61" transform="translate(416.699219 0)"/>
     <use xlink:href="#DejaVuSans-Bold-6d" transform="translate(484.179688 0)"/>
     <use xlink:href="#DejaVuSans-Bold-70" transform="translate(588.378906 0)"/>
     <use xlink:href="#DejaVuSans-Bold-69" transform="translate(659.960938 0)"/>
     <use xlink:href="#DejaVuSans-Bold-6f" transform="translate(694.238281 0)"/>
     <use xlink:href="#DejaVuSans-Bold-6e" transform="translate(762.939453 0)"/>
     <use xlink:href="#DejaVuSans-Bold-73" transform="translate(834.130859 0)"/>
     <use xlink:href="#DejaVuSans-Bold-3a" transform="translate(893.652344 0)"/>
     <use xlink:href="#DejaVuSans-Bold-20" transform="translate(933.642578 0)"/>
     <use xlink:href="#DejaVuSans-Bold-50" transform="translate(968.457031 0)"/>
     <use xlink:href="#DejaVuSans-Bold-6c" transform="translate(1041.748047 0)"/>
     <use xlink:href="#DejaVuSans-Bold-61" transform="translate(1076.025391 0)"/>
     <use xlink:href="#DejaVuSans-Bold-79" transform="translate(1140.380859 0)"/>
     <use xlink:href="#DejaVuSans-Bold-6f" transform="translate(1205.566406 0)"/>
     <use xlink:href="#DejaVuSans-Bold-66" transform="translate(1274.267578 0)"/>
     <use xlink:href="#DejaVuSans-Bold-66" transform="translate(1317.773438 0)"/>
     <use xlink:href="#DejaVuSans-Bold-20" transform="translate(1361.279297 0)"/>
     <use xlink:href="#DejaVuSans-Bold-57" transform="translate(1396.09375 0)"/>
     <use xlink:href="#DejaVuSans-Bold-69" transform="translate(1506.396484 0)"/>
     <use xlink:href="#DejaVuSans-Bold-6e" transform="translate(1540.673828 0)"/>
     <use xlink:href="#DejaVuSans-Bold-20" transform="translate(1611.865234 0)"/>
     <use xlink:href="#DejaVuSans-Bold-52" transform="translate(1646.679688 0)"/>
     <use xlink:href="#DejaVuSans-Bold-61" transform="translate(1723.681641 0)"/>
     <use xlink:href="#DejaVuSans-Bold-74" transform="translate(1791.162109 0)"/>
     <use xlink:href="#DejaVuSans-Bold-65" transform="translate(1838.964844 0)"/>
     <use xlink:href="#DejaVuSans-Bold-20" transform="translate(1906.787109 0)"/>
     <use xlink:href="#DejaVuSans-Bold-20" transform="translate(1941.601562 0)"/>
     <use xlink:href="#DejaVuSans-Bold-28" transform="translate(1976.416016 0)"/>
     <use xlink:href="#DejaVuSans-Bold-31" transform="translate(2022.119141 0)"/>
     <use xlink:href="#DejaVuSans-Bold-39" transform="translate(2091.699219 0)"/>
     <use xlink:href="#DejaVuSans-Bold-38" transform="translate(2161.279297 0)"/>
     <use xlink:href="#DejaVuSans-Bold-33" transform="translate(2230.859375 0)"/>
     <use xlink:href="#DejaVuSans-Bold-2013" transform="translate(2300.439453 0)"/>
     <use xlink:href="#DejaVuSans-Bold-38" transform="translate(2350.439453 0)"/>
     <use xlink:href="#DejaVuSans-Bold-34" transform="translate(2420.019531 0)"/>
     <use xlink:href="#DejaVuSans-Bold-20" transform="translate(2489.599609 0)"/>
     <use xlink:href="#DejaVuSans-Bold-74" transform="translate(2524.414062 0)"/>
     <use xlink:href="#DejaVuSans-Bold-68" transform="translate(2572.216797 0)"/>
     <use xlink:href="#DejaVuSans-Bold-72" transform="translate(2643.408203 0)"/>
     <use xlink:href="#DejaVuSans-Bold-6f" transform="translate(2692.724609 0)"/>
     <use xlink:href="#DejaVuSans-Bold-75" transform="translate(2761.425781 0)"/>
     <use xlink:href="#DejaVuSans-Bold-67" transform="translate(2832.617188 0)"/>
     <use xlink:href="#DejaVuSans-Bold-68" transform="translate(2904.199219 0)"/>
     <use xlink:href="#DejaVuSans-Bold-20" transform="translate(2975.390625 0)"/>
     <use xlink:href="#DejaVuSans-Bold-32" transform="translate(3010.205078 0)"/>
     <use xlink:href="#DejaVuSans-Bold-30" transform="translate(3079.785156 0)"/>
     <use xlink:href="#DejaVuSans-Bold-32" transform="translate(3149.365234 0)"/>
     <use xlink:href="#DejaVuSans-Bold-35" transform="translate(3218.945312 0)"/>
     <use xlink:href="#DejaVuSans-Bold-2013" transform="translate(3288.525391 0)"/>
     <use xlink:href="#DejaVuSans-Bold-32" transform="translate(3338.525391 0)"/>
     <use xlink:href="#DejaVuSans-Bold-36" transform="translate(3408.105469 0)"/>
     <use xlink:href="#DejaVuSans-Bold-29" transform="translate(3477.685547 0)"/>
    </g>
   </g>
   <g id="legend_1">
    <g id="patch_48">
     <path d="M 449.015625 630.778281 
L 555.2775 630.778281 
Q 557.0775 630.778281 557.0775 628.978281 
L 557.0775 603.457656 
Q 557.0775 601.657656 555.2775 601.657656 
L 449.015625 601.657656 
Q 447.215625 601.657656 447.215625 603.457656 
L 447.215625 628.978281 
Q 447.215625 630.778281 449.015625 630.778281 
z
" style="fill: #ffffff; opacity: 0.85; stroke: #dddddd; stroke-linejoin: miter"/>
    </g>
    <g id="patch_49">
     <path d="M 450.815625 612.09625 
L 468.815625 612.09625 
L 468.815625 605.79625 
L 450.815625 605.79625 
z
" style="fill: #006bb6; stroke: #006bb6; stroke-linejoin: miter"/>
    </g>
    <g id="text_52">
     <!-- 2025-26 Knicks -->
     <g transform="translate(476.015625 612.09625) scale(0.09 -0.09)">
      <defs>
       <path id="DejaVuSans-2d" d="M 313 2009 
L 1997 2009 
L 1997 1497 
L 313 1497 
L 313 2009 
z
" transform="scale(0.015625)"/>
       <path id="DejaVuSans-4b" d="M 628 4666 
L 1259 4666 
L 1259 2694 
L 3353 4666 
L 4166 4666 
L 1850 2491 
L 4331 0 
L 3500 0 
L 1259 2247 
L 1259 0 
L 628 0 
L 628 4666 
z
" transform="scale(0.015625)"/>
       <path id="DejaVuSans-63" d="M 3122 3366 
L 3122 2828 
Q 2878 2963 2633 3030 
Q 2388 3097 2138 3097 
Q 1578 3097 1268 2742 
Q 959 2388 959 1747 
Q 959 1106 1268 751 
Q 1578 397 2138 397 
Q 2388 397 2633 464 
Q 2878 531 3122 666 
L 3122 134 
Q 2881 22 2623 -34 
Q 2366 -91 2075 -91 
Q 1284 -91 818 406 
Q 353 903 353 1747 
Q 353 2603 823 3093 
Q 1294 3584 2113 3584 
Q 2378 3584 2631 3529 
Q 2884 3475 3122 3366 
z
" transform="scale(0.015625)"/>
       <path id="DejaVuSans-6b" d="M 581 4863 
L 1159 4863 
L 1159 1991 
L 2875 3500 
L 3609 3500 
L 1753 1863 
L 3688 0 
L 2938 0 
L 1159 1709 
L 1159 0 
L 581 0 
L 581 4863 
z
" transform="scale(0.015625)"/>
       <path id="DejaVuSans-73" d="M 2834 3397 
L 2834 2853 
Q 2591 2978 2328 3040 
Q 2066 3103 1784 3103 
Q 1356 3103 1142 2972 
Q 928 2841 928 2578 
Q 928 2378 1081 2264 
Q 1234 2150 1697 2047 
L 1894 2003 
Q 2506 1872 2764 1633 
Q 3022 1394 3022 966 
Q 3022 478 2636 193 
Q 2250 -91 1575 -91 
Q 1294 -91 989 -36 
Q 684 19 347 128 
L 347 722 
Q 666 556 975 473 
Q 1284 391 1588 391 
Q 1994 391 2212 530 
Q 2431 669 2431 922 
Q 2431 1156 2273 1281 
Q 2116 1406 1581 1522 
L 1381 1569 
Q 847 1681 609 1914 
Q 372 2147 372 2553 
Q 372 3047 722 3315 
Q 1072 3584 1716 3584 
Q 2034 3584 2315 3537 
Q 2597 3491 2834 3397 
z
" transform="scale(0.015625)"/>
      </defs>
      <use xlink:href="#DejaVuSans-32"/>
      <use xlink:href="#DejaVuSans-30" transform="translate(63.623047 0)"/>
      <use xlink:href="#DejaVuSans-32" transform="translate(127.246094 0)"/>
      <use xlink:href="#DejaVuSans-35" transform="translate(190.869141 0)"/>
      <use xlink:href="#DejaVuSans-2d" transform="translate(254.492188 0)"/>
      <use xlink:href="#DejaVuSans-32" transform="translate(290.576172 0)"/>
      <use xlink:href="#DejaVuSans-36" transform="translate(354.199219 0)"/>
      <use xlink:href="#DejaVuSans-20" transform="translate(417.822266 0)"/>
      <use xlink:href="#DejaVuSans-4b" transform="translate(449.609375 0)"/>
      <use xlink:href="#DejaVuSans-6e" transform="translate(515.185547 0)"/>
      <use xlink:href="#DejaVuSans-69" transform="translate(578.564453 0)"/>
      <use xlink:href="#DejaVuSans-63" transform="translate(606.347656 0)"/>
      <use xlink:href="#DejaVuSans-6b" transform="translate(661.328125 0)"/>
      <use xlink:href="#DejaVuSans-73" transform="translate(719.238281 0)"/>
     </g>
    </g>
    <g id="patch_50">
     <path d="M 450.815625 625.306563 
L 468.815625 625.306563 
L 468.815625 619.006563 
L 450.815625 619.006563 
z
" style="fill: #378add; stroke: #378add; stroke-linejoin: miter"/>
    </g>
    <g id="text_53">
     <!-- Other champions -->
     <g transform="translate(476.015625 625.306563) scale(0.09 -0.09)">
      <defs>
       <path id="DejaVuSans-4f" d="M 2522 4238 
Q 1834 4238 1429 3725 
Q 1025 3213 1025 2328 
Q 1025 1447 1429 934 
Q 1834 422 2522 422 
Q 3209 422 3611 934 
Q 4013 1447 4013 2328 
Q 4013 3213 3611 3725 
Q 3209 4238 2522 4238 
z
M 2522 4750 
Q 3503 4750 4090 4092 
Q 4678 3434 4678 2328 
Q 4678 1225 4090 567 
Q 3503 -91 2522 -91 
Q 1538 -91 948 565 
Q 359 1222 359 2328 
Q 359 3434 948 4092 
Q 1538 4750 2522 4750 
z
" transform="scale(0.015625)"/>
       <path id="DejaVuSans-68" d="M 3513 2113 
L 3513 0 
L 2938 0 
L 2938 2094 
Q 2938 2591 2744 2837 
Q 2550 3084 2163 3084 
Q 1697 3084 1428 2787 
Q 1159 2491 1159 1978 
L 1159 0 
L 581 0 
L 581 4863 
L 1159 4863 
L 1159 2956 
Q 1366 3272 1645 3428 
Q 1925 3584 2291 3584 
Q 2894 3584 3203 3211 
Q 3513 2838 3513 2113 
z
" transform="scale(0.015625)"/>
       <path id="DejaVuSans-6d" d="M 3328 2828 
Q 3544 3216 3844 3400 
Q 4144 3584 4550 3584 
Q 5097 3584 5394 3201 
Q 5691 2819 5691 2113 
L 5691 0 
L 5113 0 
L 5113 2094 
Q 5113 2597 4934 2840 
Q 4756 3084 4391 3084 
Q 3944 3084 3684 2787 
Q 3425 2491 3425 1978 
L 3425 0 
L 2847 0 
L 2847 2094 
Q 2847 2600 2669 2842 
Q 2491 3084 2119 3084 
Q 1678 3084 1418 2786 
Q 1159 2488 1159 1978 
L 1159 0 
L 581 0 
L 581 3500 
L 1159 3500 
L 1159 2956 
Q 1356 3278 1631 3431 
Q 1906 3584 2284 3584 
Q 2666 3584 2933 3390 
Q 3200 3197 3328 2828 
z
" transform="scale(0.015625)"/>
       <path id="DejaVuSans-70" d="M 1159 525 
L 1159 -1331 
L 581 -1331 
L 581 3500 
L 1159 3500 
L 1159 2969 
Q 1341 3281 1617 3432 
Q 1894 3584 2278 3584 
Q 2916 3584 3314 3078 
Q 3713 2572 3713 1747 
Q 3713 922 3314 415 
Q 2916 -91 2278 -91 
Q 1894 -91 1617 61 
Q 1341 213 1159 525 
z
M 3116 1747 
Q 3116 2381 2855 2742 
Q 2594 3103 2138 3103 
Q 1681 3103 1420 2742 
Q 1159 2381 1159 1747 
Q 1159 1113 1420 752 
Q 1681 391 2138 391 
Q 2594 391 2855 752 
Q 3116 1113 3116 1747 
z
" transform="scale(0.015625)"/>
      </defs>
      <use xlink:href="#DejaVuSans-4f"/>
      <use xlink:href="#DejaVuSans-74" transform="translate(78.710938 0)"/>
      <use xlink:href="#DejaVuSans-68" transform="translate(117.919922 0)"/>
      <use xlink:href="#DejaVuSans-65" transform="translate(181.298828 0)"/>
      <use xlink:href="#DejaVuSans-72" transform="translate(242.822266 0)"/>
      <use xlink:href="#DejaVuSans-20" transform="translate(283.935547 0)"/>
      <use xlink:href="#DejaVuSans-63" transform="translate(315.722656 0)"/>
      <use xlink:href="#DejaVuSans-68" transform="translate(370.703125 0)"/>
      <use xlink:href="#DejaVuSans-61" transform="translate(434.082031 0)"/>
      <use xlink:href="#DejaVuSans-6d" transform="translate(495.361328 0)"/>
      <use xlink:href="#DejaVuSans-70" transform="translate(592.773438 0)"/>
      <use xlink:href="#DejaVuSans-69" transform="translate(656.25 0)"/>
      <use xlink:href="#DejaVuSans-6f" transform="translate(684.033203 0)"/>
      <use xlink:href="#DejaVuSans-6e" transform="translate(745.214844 0)"/>
      <use xlink:href="#DejaVuSans-73" transform="translate(808.59375 0)"/>
     </g>
    </g>
   </g>
  </g>
 </g>
 <defs>
  <clipPath id="pb0a4dee9bc">
   <rect x="37.0375" y="23.558281" width="524.54" height="611.72"/>
  </clipPath>
 </defs>
</svg>
