<?xml version="1.0" encoding="utf-8" standalone="no"?>
<!DOCTYPE svg PUBLIC "-//W3C//DTD SVG 1.1//EN"
  "http://www.w3.org/Graphics/SVG/1.1/DTD/svg11.dtd">
<svg xmlns:xlink="http://www.w3.org/1999/xlink" width="784.1325pt" height="423.466719pt" viewBox="0 0 784.1325 423.466719" xmlns="http://www.w3.org/2000/svg" version="1.1">
 <metadata>
  <rdf:RDF xmlns:dc="http://purl.org/dc/elements/1.1/" xmlns:cc="http://creativecommons.org/ns#" xmlns:rdf="http://www.w3.org/1999/02/22-rdf-syntax-ns#">
   <cc:Work>
    <dc:type rdf:resource="http://purl.org/dc/dcmitype/StillImage"/>
    <dc:date>2026-07-02T10:25:47.332060</dc:date>
    <dc:format>image/svg+xml</dc:format>
    <dc:creator>
     <cc:Agent>
      <dc:title>Matplotlib v3.10.9, https://matplotlib.org/</dc:title>
     </cc:Agent>
    </dc:creator>
   </cc:Work>
  </rdf:RDF>
 </metadata>
 <defs>
  <style type="text/css">*{stroke-linejoin: round; stroke-linecap: butt}</style>
 </defs>
 <g id="figure_1">
  <g id="patch_1">
   <path d="M 0 423.466719 
L 784.1325 423.466719 
L 784.1325 0 
L 0 0 
z
" style="fill: #f9f9f7"/>
  </g>
  <g id="axes_1">
   <g id="patch_2">
    <path d="M 41.6525 386.878281 
L 776.9325 386.878281 
L 776.9325 21.558281 
L 41.6525 21.558281 
z
" style="fill: #ffffff"/>
   </g>
   <g id="matplotlib.axis_1">
    <g id="xtick_1">
     <g id="line2d_1">
      <defs>
       <path id="m84d7ca19d8" d="M 0 0 
L 0 3.5 
" style="stroke: #000000; stroke-width: 0.8"/>
      </defs>
      <g>
       <use xlink:href="#m84d7ca19d8" x="61.43276" y="386.878281" style="stroke: #000000; stroke-width: 0.8"/>
      </g>
     </g>
     <g id="text_1">
      <!-- 0 -->
      <g transform="translate(58.25151 401.476719) scale(0.1 -0.1)">
       <defs>
        <path id="DejaVuSans-30" d="M 2034 4250 
Q 1547 4250 1301 3770 
Q 1056 3291 1056 2328 
Q 1056 1369 1301 889 
Q 1547 409 2034 409 
Q 2525 409 2770 889 
Q 3016 1369 3016 2328 
Q 3016 3291 2770 3770 
Q 2525 4250 2034 4250 
z
M 2034 4750 
Q 2819 4750 3233 4129 
Q 3647 3509 3647 2328 
Q 3647 1150 3233 529 
Q 2819 -91 2034 -91 
Q 1250 -91 836 529 
Q 422 1150 422 2328 
Q 422 3509 836 4129 
Q 1250 4750 2034 4750 
z
" transform="scale(0.015625)"/>
       </defs>
       <use xlink:href="#DejaVuSans-30"/>
      </g>
     </g>
    </g>
    <g id="xtick_2">
     <g id="line2d_2">
      <g>
       <use xlink:href="#m84d7ca19d8" x="197.848344" y="386.878281" style="stroke: #000000; stroke-width: 0.8"/>
      </g>
     </g>
     <g id="text_2">
      <!-- 10 -->
      <g transform="translate(191.485844 401.476719) scale(0.1 -0.1)">
       <defs>
        <path id="DejaVuSans-31" d="M 794 531 
L 1825 531 
L 1825 4091 
L 703 3866 
L 703 4441 
L 1819 4666 
L 2450 4666 
L 2450 531 
L 3481 531 
L 3481 0 
L 794 0 
L 794 531 
z
" transform="scale(0.015625)"/>
       </defs>
       <use xlink:href="#DejaVuSans-31"/>
       <use xlink:href="#DejaVuSans-30" transform="translate(63.623047 0)"/>
      </g>
     </g>
    </g>
    <g id="xtick_3">
     <g id="line2d_3">
      <g>
       <use xlink:href="#m84d7ca19d8" x="334.263929" y="386.878281" style="stroke: #000000; stroke-width: 0.8"/>
      </g>
     </g>
     <g id="text_3">
      <!-- 20 -->
      <g transform="translate(327.901429 401.476719) scale(0.1 -0.1)">
       <defs>
        <path id="DejaVuSans-32" d="M 1228 531 
L 3431 531 
L 3431 0 
L 469 0 
L 469 531 
Q 828 903 1448 1529 
Q 2069 2156 2228 2338 
Q 2531 2678 2651 2914 
Q 2772 3150 2772 3378 
Q 2772 3750 2511 3984 
Q 2250 4219 1831 4219 
Q 1534 4219 1204 4116 
Q 875 4013 500 3803 
L 500 4441 
Q 881 4594 1212 4672 
Q 1544 4750 1819 4750 
Q 2544 4750 2975 4387 
Q 3406 4025 3406 3419 
Q 3406 3131 3298 2873 
Q 3191 2616 2906 2266 
Q 2828 2175 2409 1742 
Q 1991 1309 1228 531 
z
" transform="scale(0.015625)"/>
       </defs>
       <use xlink:href="#DejaVuSans-32"/>
       <use xlink:href="#DejaVuSans-30" transform="translate(63.623047 0)"/>
      </g>
     </g>
    </g>
    <g id="xtick_4">
     <g id="line2d_4">
      <g>
       <use xlink:href="#m84d7ca19d8" x="470.679513" y="386.878281" style="stroke: #000000; stroke-width: 0.8"/>
      </g>
     </g>
     <g id="text_4">
      <!-- 30 -->
      <g transform="translate(464.317013 401.476719) scale(0.1 -0.1)">
       <defs>
        <path id="DejaVuSans-33" d="M 2597 2516 
Q 3050 2419 3304 2112 
Q 3559 1806 3559 1356 
Q 3559 666 3084 287 
Q 2609 -91 1734 -91 
Q 1441 -91 1130 -33 
Q 819 25 488 141 
L 488 750 
Q 750 597 1062 519 
Q 1375 441 1716 441 
Q 2309 441 2620 675 
Q 2931 909 2931 1356 
Q 2931 1769 2642 2001 
Q 2353 2234 1838 2234 
L 1294 2234 
L 1294 2753 
L 1863 2753 
Q 2328 2753 2575 2939 
Q 2822 3125 2822 3475 
Q 2822 3834 2567 4026 
Q 2313 4219 1838 4219 
Q 1578 4219 1281 4162 
Q 984 4106 628 3988 
L 628 4550 
Q 988 4650 1302 4700 
Q 1616 4750 1894 4750 
Q 2613 4750 3031 4423 
Q 3450 4097 3450 3541 
Q 3450 3153 3228 2886 
Q 3006 2619 2597 2516 
z
" transform="scale(0.015625)"/>
       </defs>
       <use xlink:href="#DejaVuSans-33"/>
       <use xlink:href="#DejaVuSans-30" transform="translate(63.623047 0)"/>
      </g>
     </g>
    </g>
    <g id="xtick_5">
     <g id="line2d_5">
      <g>
       <use xlink:href="#m84d7ca19d8" x="607.095097" y="386.878281" style="stroke: #000000; stroke-width: 0.8"/>
      </g>
     </g>
     <g id="text_5">
      <!-- 40 -->
      <g transform="translate(600.732597 401.476719) scale(0.1 -0.1)">
       <defs>
        <path id="DejaVuSans-34" d="M 2419 4116 
L 825 1625 
L 2419 1625 
L 2419 4116 
z
M 2253 4666 
L 3047 4666 
L 3047 1625 
L 3713 1625 
L 3713 1100 
L 3047 1100 
L 3047 0 
L 2419 0 
L 2419 1100 
L 313 1100 
L 313 1709 
L 2253 4666 
z
" transform="scale(0.015625)"/>
       </defs>
       <use xlink:href="#DejaVuSans-34"/>
       <use xlink:href="#DejaVuSans-30" transform="translate(63.623047 0)"/>
      </g>
     </g>
    </g>
    <g id="xtick_6">
     <g id="line2d_6">
      <g>
       <use xlink:href="#m84d7ca19d8" x="743.510682" y="386.878281" style="stroke: #000000; stroke-width: 0.8"/>
      </g>
     </g>
     <g id="text_6">
      <!-- 50 -->
      <g transform="translate(737.148182 401.476719) scale(0.1 -0.1)">
       <defs>
        <path id="DejaVuSans-35" d="M 691 4666 
L 3169 4666 
L 3169 4134 
L 1269 4134 
L 1269 2991 
Q 1406 3038 1543 3061 
Q 1681 3084 1819 3084 
Q 2600 3084 3056 2656 
Q 3513 2228 3513 1497 
Q 3513 744 3044 326 
Q 2575 -91 1722 -91 
Q 1428 -91 1123 -41 
Q 819 9 494 109 
L 494 744 
Q 775 591 1075 516 
Q 1375 441 1709 441 
Q 2250 441 2565 725 
Q 2881 1009 2881 1497 
Q 2881 1984 2565 2268 
Q 2250 2553 1709 2553 
Q 1456 2553 1204 2497 
Q 953 2441 691 2322 
L 691 4666 
z
" transform="scale(0.015625)"/>
       </defs>
       <use xlink:href="#DejaVuSans-35"/>
       <use xlink:href="#DejaVuSans-30" transform="translate(63.623047 0)"/>
      </g>
     </g>
    </g>
    <g id="text_7">
     <!-- Player rank (top 50 by each system) -->
     <g style="fill: #888780" transform="translate(327.389687 414.395) scale(0.09 -0.09)">
      <defs>
       <path id="DejaVuSans-50" d="M 1259 4147 
L 1259 2394 
L 2053 2394 
Q 2494 2394 2734 2622 
Q 2975 2850 2975 3272 
Q 2975 3691 2734 3919 
Q 2494 4147 2053 4147 
L 1259 4147 
z
M 628 4666 
L 2053 4666 
Q 2838 4666 3239 4311 
Q 3641 3956 3641 3272 
Q 3641 2581 3239 2228 
Q 2838 1875 2053 1875 
L 1259 1875 
L 1259 0 
L 628 0 
L 628 4666 
z
" transform="scale(0.015625)"/>
       <path id="DejaVuSans-6c" d="M 603 4863 
L 1178 4863 
L 1178 0 
L 603 0 
L 603 4863 
z
" transform="scale(0.015625)"/>
       <path id="DejaVuSans-61" d="M 2194 1759 
Q 1497 1759 1228 1600 
Q 959 1441 959 1056 
Q 959 750 1161 570 
Q 1363 391 1709 391 
Q 2188 391 2477 730 
Q 2766 1069 2766 1631 
L 2766 1759 
L 2194 1759 
z
M 3341 1997 
L 3341 0 
L 2766 0 
L 2766 531 
Q 2569 213 2275 61 
Q 1981 -91 1556 -91 
Q 1019 -91 701 211 
Q 384 513 384 1019 
Q 384 1609 779 1909 
Q 1175 2209 1959 2209 
L 2766 2209 
L 2766 2266 
Q 2766 2663 2505 2880 
Q 2244 3097 1772 3097 
Q 1472 3097 1187 3025 
Q 903 2953 641 2809 
L 641 3341 
Q 956 3463 1253 3523 
Q 1550 3584 1831 3584 
Q 2591 3584 2966 3190 
Q 3341 2797 3341 1997 
z
" transform="scale(0.015625)"/>
       <path id="DejaVuSans-79" d="M 2059 -325 
Q 1816 -950 1584 -1140 
Q 1353 -1331 966 -1331 
L 506 -1331 
L 506 -850 
L 844 -850 
Q 1081 -850 1212 -737 
Q 1344 -625 1503 -206 
L 1606 56 
L 191 3500 
L 800 3500 
L 1894 763 
L 2988 3500 
L 3597 3500 
L 2059 -325 
z
" transform="scale(0.015625)"/>
       <path id="DejaVuSans-65" d="M 3597 1894 
L 3597 1613 
L 953 1613 
Q 991 1019 1311 708 
Q 1631 397 2203 397 
Q 2534 397 2845 478 
Q 3156 559 3463 722 
L 3463 178 
Q 3153 47 2828 -22 
Q 2503 -91 2169 -91 
Q 1331 -91 842 396 
Q 353 884 353 1716 
Q 353 2575 817 3079 
Q 1281 3584 2069 3584 
Q 2775 3584 3186 3129 
Q 3597 2675 3597 1894 
z
M 3022 2063 
Q 3016 2534 2758 2815 
Q 2500 3097 2075 3097 
Q 1594 3097 1305 2825 
Q 1016 2553 972 2059 
L 3022 2063 
z
" transform="scale(0.015625)"/>
       <path id="DejaVuSans-72" d="M 2631 2963 
Q 2534 3019 2420 3045 
Q 2306 3072 2169 3072 
Q 1681 3072 1420 2755 
Q 1159 2438 1159 1844 
L 1159 0 
L 581 0 
L 581 3500 
L 1159 3500 
L 1159 2956 
Q 1341 3275 1631 3429 
Q 1922 3584 2338 3584 
Q 2397 3584 2469 3576 
Q 2541 3569 2628 3553 
L 2631 2963 
z
" transform="scale(0.015625)"/>
       <path id="DejaVuSans-20" transform="scale(0.015625)"/>
       <path id="DejaVuSans-6e" d="M 3513 2113 
L 3513 0 
L 2938 0 
L 2938 2094 
Q 2938 2591 2744 2837 
Q 2550 3084 2163 3084 
Q 1697 3084 1428 2787 
Q 1159 2491 1159 1978 
L 1159 0 
L 581 0 
L 581 3500 
L 1159 3500 
L 1159 2956 
Q 1366 3272 1645 3428 
Q 1925 3584 2291 3584 
Q 2894 3584 3203 3211 
Q 3513 2838 3513 2113 
z
" transform="scale(0.015625)"/>
       <path id="DejaVuSans-6b" d="M 581 4863 
L 1159 4863 
L 1159 1991 
L 2875 3500 
L 3609 3500 
L 1753 1863 
L 3688 0 
L 2938 0 
L 1159 1709 
L 1159 0 
L 581 0 
L 581 4863 
z
" transform="scale(0.015625)"/>
       <path id="DejaVuSans-28" d="M 1984 4856 
Q 1566 4138 1362 3434 
Q 1159 2731 1159 2009 
Q 1159 1288 1364 580 
Q 1569 -128 1984 -844 
L 1484 -844 
Q 1016 -109 783 600 
Q 550 1309 550 2009 
Q 550 2706 781 3412 
Q 1013 4119 1484 4856 
L 1984 4856 
z
" transform="scale(0.015625)"/>
       <path id="DejaVuSans-74" d="M 1172 4494 
L 1172 3500 
L 2356 3500 
L 2356 3053 
L 1172 3053 
L 1172 1153 
Q 1172 725 1289 603 
Q 1406 481 1766 481 
L 2356 481 
L 2356 0 
L 1766 0 
Q 1100 0 847 248 
Q 594 497 594 1153 
L 594 3053 
L 172 3053 
L 172 3500 
L 594 3500 
L 594 4494 
L 1172 4494 
z
" transform="scale(0.015625)"/>
       <path id="DejaVuSans-6f" d="M 1959 3097 
Q 1497 3097 1228 2736 
Q 959 2375 959 1747 
Q 959 1119 1226 758 
Q 1494 397 1959 397 
Q 2419 397 2687 759 
Q 2956 1122 2956 1747 
Q 2956 2369 2687 2733 
Q 2419 3097 1959 3097 
z
M 1959 3584 
Q 2709 3584 3137 3096 
Q 3566 2609 3566 1747 
Q 3566 888 3137 398 
Q 2709 -91 1959 -91 
Q 1206 -91 779 398 
Q 353 888 353 1747 
Q 353 2609 779 3096 
Q 1206 3584 1959 3584 
z
" transform="scale(0.015625)"/>
       <path id="DejaVuSans-70" d="M 1159 525 
L 1159 -1331 
L 581 -1331 
L 581 3500 
L 1159 3500 
L 1159 2969 
Q 1341 3281 1617 3432 
Q 1894 3584 2278 3584 
Q 2916 3584 3314 3078 
Q 3713 2572 3713 1747 
Q 3713 922 3314 415 
Q 2916 -91 2278 -91 
Q 1894 -91 1617 61 
Q 1341 213 1159 525 
z
M 3116 1747 
Q 3116 2381 2855 2742 
Q 2594 3103 2138 3103 
Q 1681 3103 1420 2742 
Q 1159 2381 1159 1747 
Q 1159 1113 1420 752 
Q 1681 391 2138 391 
Q 2594 391 2855 752 
Q 3116 1113 3116 1747 
z
" transform="scale(0.015625)"/>
       <path id="DejaVuSans-62" d="M 3116 1747 
Q 3116 2381 2855 2742 
Q 2594 3103 2138 3103 
Q 1681 3103 1420 2742 
Q 1159 2381 1159 1747 
Q 1159 1113 1420 752 
Q 1681 391 2138 391 
Q 2594 391 2855 752 
Q 3116 1113 3116 1747 
z
M 1159 2969 
Q 1341 3281 1617 3432 
Q 1894 3584 2278 3584 
Q 2916 3584 3314 3078 
Q 3713 2572 3713 1747 
Q 3713 922 3314 415 
Q 2916 -91 2278 -91 
Q 1894 -91 1617 61 
Q 1341 213 1159 525 
L 1159 0 
L 581 0 
L 581 4863 
L 1159 4863 
L 1159 2969 
z
" transform="scale(0.015625)"/>
       <path id="DejaVuSans-63" d="M 3122 3366 
L 3122 2828 
Q 2878 2963 2633 3030 
Q 2388 3097 2138 3097 
Q 1578 3097 1268 2742 
Q 959 2388 959 1747 
Q 959 1106 1268 751 
Q 1578 397 2138 397 
Q 2388 397 2633 464 
Q 2878 531 3122 666 
L 3122 134 
Q 2881 22 2623 -34 
Q 2366 -91 2075 -91 
Q 1284 -91 818 406 
Q 353 903 353 1747 
Q 353 2603 823 3093 
Q 1294 3584 2113 3584 
Q 2378 3584 2631 3529 
Q 2884 3475 3122 3366 
z
" transform="scale(0.015625)"/>
       <path id="DejaVuSans-68" d="M 3513 2113 
L 3513 0 
L 2938 0 
L 2938 2094 
Q 2938 2591 2744 2837 
Q 2550 3084 2163 3084 
Q 1697 3084 1428 2787 
Q 1159 2491 1159 1978 
L 1159 0 
L 581 0 
L 581 4863 
L 1159 4863 
L 1159 2956 
Q 1366 3272 1645 3428 
Q 1925 3584 2291 3584 
Q 2894 3584 3203 3211 
Q 3513 2838 3513 2113 
z
" transform="scale(0.015625)"/>
       <path id="DejaVuSans-73" d="M 2834 3397 
L 2834 2853 
Q 2591 2978 2328 3040 
Q 2066 3103 1784 3103 
Q 1356 3103 1142 2972 
Q 928 2841 928 2578 
Q 928 2378 1081 2264 
Q 1234 2150 1697 2047 
L 1894 2003 
Q 2506 1872 2764 1633 
Q 3022 1394 3022 966 
Q 3022 478 2636 193 
Q 2250 -91 1575 -91 
Q 1294 -91 989 -36 
Q 684 19 347 128 
L 347 722 
Q 666 556 975 473 
Q 1284 391 1588 391 
Q 1994 391 2212 530 
Q 2431 669 2431 922 
Q 2431 1156 2273 1281 
Q 2116 1406 1581 1522 
L 1381 1569 
Q 847 1681 609 1914 
Q 372 2147 372 2553 
Q 372 3047 722 3315 
Q 1072 3584 1716 3584 
Q 2034 3584 2315 3537 
Q 2597 3491 2834 3397 
z
" transform="scale(0.015625)"/>
       <path id="DejaVuSans-6d" d="M 3328 2828 
Q 3544 3216 3844 3400 
Q 4144 3584 4550 3584 
Q 5097 3584 5394 3201 
Q 5691 2819 5691 2113 
L 5691 0 
L 5113 0 
L 5113 2094 
Q 5113 2597 4934 2840 
Q 4756 3084 4391 3084 
Q 3944 3084 3684 2787 
Q 3425 2491 3425 1978 
L 3425 0 
L 2847 0 
L 2847 2094 
Q 2847 2600 2669 2842 
Q 2491 3084 2119 3084 
Q 1678 3084 1418 2786 
Q 1159 2488 1159 1978 
L 1159 0 
L 581 0 
L 581 3500 
L 1159 3500 
L 1159 2956 
Q 1356 3278 1631 3431 
Q 1906 3584 2284 3584 
Q 2666 3584 2933 3390 
Q 3200 3197 3328 2828 
z
" transform="scale(0.015625)"/>
       <path id="DejaVuSans-29" d="M 513 4856 
L 1013 4856 
Q 1481 4119 1714 3412 
Q 1947 2706 1947 2009 
Q 1947 1309 1714 600 
Q 1481 -109 1013 -844 
L 513 -844 
Q 928 -128 1133 580 
Q 1338 1288 1338 2009 
Q 1338 2731 1133 3434 
Q 928 4138 513 4856 
z
" transform="scale(0.015625)"/>
      </defs>
      <use xlink:href="#DejaVuSans-50"/>
      <use xlink:href="#DejaVuSans-6c" transform="translate(60.302734 0)"/>
      <use xlink:href="#DejaVuSans-61" transform="translate(88.085938 0)"/>
      <use xlink:href="#DejaVuSans-79" transform="translate(149.365234 0)"/>
      <use xlink:href="#DejaVuSans-65" transform="translate(208.544922 0)"/>
      <use xlink:href="#DejaVuSans-72" transform="translate(270.068359 0)"/>
      <use xlink:href="#DejaVuSans-20" transform="translate(311.181641 0)"/>
      <use xlink:href="#DejaVuSans-72" transform="translate(342.96875 0)"/>
      <use xlink:href="#DejaVuSans-61" transform="translate(384.082031 0)"/>
      <use xlink:href="#DejaVuSans-6e" transform="translate(445.361328 0)"/>
      <use xlink:href="#DejaVuSans-6b" transform="translate(508.740234 0)"/>
      <use xlink:href="#DejaVuSans-20" transform="translate(566.650391 0)"/>
      <use xlink:href="#DejaVuSans-28" transform="translate(598.4375 0)"/>
      <use xlink:href="#DejaVuSans-74" transform="translate(637.451172 0)"/>
      <use xlink:href="#DejaVuSans-6f" transform="translate(676.660156 0)"/>
      <use xlink:href="#DejaVuSans-70" transform="translate(737.841797 0)"/>
      <use xlink:href="#DejaVuSans-20" transform="translate(801.318359 0)"/>
      <use xlink:href="#DejaVuSans-35" transform="translate(833.105469 0)"/>
      <use xlink:href="#DejaVuSans-30" transform="translate(896.728516 0)"/>
      <use xlink:href="#DejaVuSans-20" transform="translate(960.351562 0)"/>
      <use xlink:href="#DejaVuSans-62" transform="translate(992.138672 0)"/>
      <use xlink:href="#DejaVuSans-79" transform="translate(1055.615234 0)"/>
      <use xlink:href="#DejaVuSans-20" transform="translate(1114.794922 0)"/>
      <use xlink:href="#DejaVuSans-65" transform="translate(1146.582031 0)"/>
      <use xlink:href="#DejaVuSans-61" transform="translate(1208.105469 0)"/>
      <use xlink:href="#DejaVuSans-63" transform="translate(1269.384766 0)"/>
      <use xlink:href="#DejaVuSans-68" transform="translate(1324.365234 0)"/>
      <use xlink:href="#DejaVuSans-20" transform="translate(1387.744141 0)"/>
      <use xlink:href="#DejaVuSans-73" transform="translate(1419.53125 0)"/>
      <use xlink:href="#DejaVuSans-79" transform="translate(1471.630859 0)"/>
      <use xlink:href="#DejaVuSans-73" transform="translate(1530.810547 0)"/>
      <use xlink:href="#DejaVuSans-74" transform="translate(1582.910156 0)"/>
      <use xlink:href="#DejaVuSans-65" transform="translate(1622.119141 0)"/>
      <use xlink:href="#DejaVuSans-6d" transform="translate(1683.642578 0)"/>
      <use xlink:href="#DejaVuSans-29" transform="translate(1781.054688 0)"/>
     </g>
    </g>
   </g>
   <g id="matplotlib.axis_2">
    <g id="ytick_1">
     <g id="line2d_7">
      <path d="M 41.6525 356.586099 
L 776.9325 356.586099 
" clip-path="url(#p06f68bfcd1)" style="fill: none; stroke: #e0dfd8; stroke-width: 0.7; stroke-linecap: square"/>
     </g>
     <g id="line2d_8">
      <defs>
       <path id="m4053b629c8" d="M 0 0 
L -3.5 0 
" style="stroke: #000000; stroke-width: 0.8"/>
      </defs>
      <g>
       <use xlink:href="#m4053b629c8" x="41.6525" y="356.586099" style="stroke: #000000; stroke-width: 0.8"/>
      </g>
     </g>
     <g id="text_8">
      <!-- −1 -->
      <g transform="translate(19.910313 360.385318) scale(0.1 -0.1)">
       <defs>
        <path id="DejaVuSans-2212" d="M 678 2272 
L 4684 2272 
L 4684 1741 
L 678 1741 
L 678 2272 
z
" transform="scale(0.015625)"/>
       </defs>
       <use xlink:href="#DejaVuSans-2212"/>
       <use xlink:href="#DejaVuSans-31" transform="translate(83.789062 0)"/>
      </g>
     </g>
    </g>
    <g id="ytick_2">
     <g id="line2d_9">
      <path d="M 41.6525 295.420131 
L 776.9325 295.420131 
" clip-path="url(#p06f68bfcd1)" style="fill: none; stroke: #e0dfd8; stroke-width: 0.7; stroke-linecap: square"/>
     </g>
     <g id="line2d_10">
      <g>
       <use xlink:href="#m4053b629c8" x="41.6525" y="295.420131" style="stroke: #000000; stroke-width: 0.8"/>
      </g>
     </g>
     <g id="text_9">
      <!-- 0 -->
      <g transform="translate(28.29 299.21935) scale(0.1 -0.1)">
       <use xlink:href="#DejaVuSans-30"/>
      </g>
     </g>
    </g>
    <g id="ytick_3">
     <g id="line2d_11">
      <path d="M 41.6525 234.254164 
L 776.9325 234.254164 
" clip-path="url(#p06f68bfcd1)" style="fill: none; stroke: #e0dfd8; stroke-width: 0.7; stroke-linecap: square"/>
     </g>
     <g id="line2d_12">
      <g>
       <use xlink:href="#m4053b629c8" x="41.6525" y="234.254164" style="stroke: #000000; stroke-width: 0.8"/>
      </g>
     </g>
     <g id="text_10">
      <!-- 1 -->
      <g transform="translate(28.29 238.053382) scale(0.1 -0.1)">
       <use xlink:href="#DejaVuSans-31"/>
      </g>
     </g>
    </g>
    <g id="ytick_4">
     <g id="line2d_13">
      <path d="M 41.6525 173.088196 
L 776.9325 173.088196 
" clip-path="url(#p06f68bfcd1)" style="fill: none; stroke: #e0dfd8; stroke-width: 0.7; stroke-linecap: square"/>
     </g>
     <g id="line2d_14">
      <g>
       <use xlink:href="#m4053b629c8" x="41.6525" y="173.088196" style="stroke: #000000; stroke-width: 0.8"/>
      </g>
     </g>
     <g id="text_11">
      <!-- 2 -->
      <g transform="translate(28.29 176.887415) scale(0.1 -0.1)">
       <use xlink:href="#DejaVuSans-32"/>
      </g>
     </g>
    </g>
    <g id="ytick_5">
     <g id="line2d_15">
      <path d="M 41.6525 111.922228 
L 776.9325 111.922228 
" clip-path="url(#p06f68bfcd1)" style="fill: none; stroke: #e0dfd8; stroke-width: 0.7; stroke-linecap: square"/>
     </g>
     <g id="line2d_16">
      <g>
       <use xlink:href="#m4053b629c8" x="41.6525" y="111.922228" style="stroke: #000000; stroke-width: 0.8"/>
      </g>
     </g>
     <g id="text_12">
      <!-- 3 -->
      <g transform="translate(28.29 115.721447) scale(0.1 -0.1)">
       <use xlink:href="#DejaVuSans-33"/>
      </g>
     </g>
    </g>
    <g id="ytick_6">
     <g id="line2d_17">
      <path d="M 41.6525 50.756261 
L 776.9325 50.756261 
" clip-path="url(#p06f68bfcd1)" style="fill: none; stroke: #e0dfd8; stroke-width: 0.7; stroke-linecap: square"/>
     </g>
     <g id="line2d_18">
      <g>
       <use xlink:href="#m4053b629c8" x="41.6525" y="50.756261" style="stroke: #000000; stroke-width: 0.8"/>
      </g>
     </g>
     <g id="text_13">
      <!-- 4 -->
      <g transform="translate(28.29 54.555479) scale(0.1 -0.1)">
       <use xlink:href="#DejaVuSans-34"/>
      </g>
     </g>
    </g>
    <g id="text_14">
     <!-- Standard deviations above/below the qualified-player mean -->
     <g style="fill: #888780" transform="translate(14.038594 339.072031) rotate(-90) scale(0.09 -0.09)">
      <defs>
       <path id="DejaVuSans-53" d="M 3425 4513 
L 3425 3897 
Q 3066 4069 2747 4153 
Q 2428 4238 2131 4238 
Q 1616 4238 1336 4038 
Q 1056 3838 1056 3469 
Q 1056 3159 1242 3001 
Q 1428 2844 1947 2747 
L 2328 2669 
Q 3034 2534 3370 2195 
Q 3706 1856 3706 1288 
Q 3706 609 3251 259 
Q 2797 -91 1919 -91 
Q 1588 -91 1214 -16 
Q 841 59 441 206 
L 441 856 
Q 825 641 1194 531 
Q 1563 422 1919 422 
Q 2459 422 2753 634 
Q 3047 847 3047 1241 
Q 3047 1584 2836 1778 
Q 2625 1972 2144 2069 
L 1759 2144 
Q 1053 2284 737 2584 
Q 422 2884 422 3419 
Q 422 4038 858 4394 
Q 1294 4750 2059 4750 
Q 2388 4750 2728 4690 
Q 3069 4631 3425 4513 
z
" transform="scale(0.015625)"/>
       <path id="DejaVuSans-64" d="M 2906 2969 
L 2906 4863 
L 3481 4863 
L 3481 0 
L 2906 0 
L 2906 525 
Q 2725 213 2448 61 
Q 2172 -91 1784 -91 
Q 1150 -91 751 415 
Q 353 922 353 1747 
Q 353 2572 751 3078 
Q 1150 3584 1784 3584 
Q 2172 3584 2448 3432 
Q 2725 3281 2906 2969 
z
M 947 1747 
Q 947 1113 1208 752 
Q 1469 391 1925 391 
Q 2381 391 2643 752 
Q 2906 1113 2906 1747 
Q 2906 2381 2643 2742 
Q 2381 3103 1925 3103 
Q 1469 3103 1208 2742 
Q 947 2381 947 1747 
z
" transform="scale(0.015625)"/>
       <path id="DejaVuSans-76" d="M 191 3500 
L 800 3500 
L 1894 563 
L 2988 3500 
L 3597 3500 
L 2284 0 
L 1503 0 
L 191 3500 
z
" transform="scale(0.015625)"/>
       <path id="DejaVuSans-69" d="M 603 3500 
L 1178 3500 
L 1178 0 
L 603 0 
L 603 3500 
z
M 603 4863 
L 1178 4863 
L 1178 4134 
L 603 4134 
L 603 4863 
z
" transform="scale(0.015625)"/>
       <path id="DejaVuSans-2f" d="M 1625 4666 
L 2156 4666 
L 531 -594 
L 0 -594 
L 1625 4666 
z
" transform="scale(0.015625)"/>
       <path id="DejaVuSans-77" d="M 269 3500 
L 844 3500 
L 1563 769 
L 2278 3500 
L 2956 3500 
L 3675 769 
L 4391 3500 
L 4966 3500 
L 4050 0 
L 3372 0 
L 2619 2869 
L 1863 0 
L 1184 0 
L 269 3500 
z
" transform="scale(0.015625)"/>
       <path id="DejaVuSans-71" d="M 947 1747 
Q 947 1113 1208 752 
Q 1469 391 1925 391 
Q 2381 391 2643 752 
Q 2906 1113 2906 1747 
Q 2906 2381 2643 2742 
Q 2381 3103 1925 3103 
Q 1469 3103 1208 2742 
Q 947 2381 947 1747 
z
M 2906 525 
Q 2725 213 2448 61 
Q 2172 -91 1784 -91 
Q 1150 -91 751 415 
Q 353 922 353 1747 
Q 353 2572 751 3078 
Q 1150 3584 1784 3584 
Q 2172 3584 2448 3432 
Q 2725 3281 2906 2969 
L 2906 3500 
L 3481 3500 
L 3481 -1331 
L 2906 -1331 
L 2906 525 
z
" transform="scale(0.015625)"/>
       <path id="DejaVuSans-75" d="M 544 1381 
L 544 3500 
L 1119 3500 
L 1119 1403 
Q 1119 906 1312 657 
Q 1506 409 1894 409 
Q 2359 409 2629 706 
Q 2900 1003 2900 1516 
L 2900 3500 
L 3475 3500 
L 3475 0 
L 2900 0 
L 2900 538 
Q 2691 219 2414 64 
Q 2138 -91 1772 -91 
Q 1169 -91 856 284 
Q 544 659 544 1381 
z
M 1991 3584 
L 1991 3584 
z
" transform="scale(0.015625)"/>
       <path id="DejaVuSans-66" d="M 2375 4863 
L 2375 4384 
L 1825 4384 
Q 1516 4384 1395 4259 
Q 1275 4134 1275 3809 
L 1275 3500 
L 2222 3500 
L 2222 3053 
L 1275 3053 
L 1275 0 
L 697 0 
L 697 3053 
L 147 3053 
L 147 3500 
L 697 3500 
L 697 3744 
Q 697 4328 969 4595 
Q 1241 4863 1831 4863 
L 2375 4863 
z
" transform="scale(0.015625)"/>
       <path id="DejaVuSans-2d" d="M 313 2009 
L 1997 2009 
L 1997 1497 
L 313 1497 
L 313 2009 
z
" transform="scale(0.015625)"/>
      </defs>
      <use xlink:href="#DejaVuSans-53"/>
      <use xlink:href="#DejaVuSans-74" transform="translate(63.476562 0)"/>
      <use xlink:href="#DejaVuSans-61" transform="translate(102.685547 0)"/>
      <use xlink:href="#DejaVuSans-6e" transform="translate(163.964844 0)"/>
      <use xlink:href="#DejaVuSans-64" transform="translate(227.34375 0)"/>
      <use xlink:href="#DejaVuSans-61" transform="translate(290.820312 0)"/>
      <use xlink:href="#DejaVuSans-72" transform="translate(352.099609 0)"/>
      <use xlink:href="#DejaVuSans-64" transform="translate(391.462891 0)"/>
      <use xlink:href="#DejaVuSans-20" transform="translate(454.939453 0)"/>
      <use xlink:href="#DejaVuSans-64" transform="translate(486.726562 0)"/>
      <use xlink:href="#DejaVuSans-65" transform="translate(550.203125 0)"/>
      <use xlink:href="#DejaVuSans-76" transform="translate(611.726562 0)"/>
      <use xlink:href="#DejaVuSans-69" transform="translate(670.90625 0)"/>
      <use xlink:href="#DejaVuSans-61" transform="translate(698.689453 0)"/>
      <use xlink:href="#DejaVuSans-74" transform="translate(759.96875 0)"/>
      <use xlink:href="#DejaVuSans-69" transform="translate(799.177734 0)"/>
      <use xlink:href="#DejaVuSans-6f" transform="translate(826.960938 0)"/>
      <use xlink:href="#DejaVuSans-6e" transform="translate(888.142578 0)"/>
      <use xlink:href="#DejaVuSans-73" transform="translate(951.521484 0)"/>
      <use xlink:href="#DejaVuSans-20" transform="translate(1003.621094 0)"/>
      <use xlink:href="#DejaVuSans-61" transform="translate(1035.408203 0)"/>
      <use xlink:href="#DejaVuSans-62" transform="translate(1096.6875 0)"/>
      <use xlink:href="#DejaVuSans-6f" transform="translate(1160.164062 0)"/>
      <use xlink:href="#DejaVuSans-76" transform="translate(1221.345703 0)"/>
      <use xlink:href="#DejaVuSans-65" transform="translate(1280.525391 0)"/>
      <use xlink:href="#DejaVuSans-2f" transform="translate(1342.048828 0)"/>
      <use xlink:href="#DejaVuSans-62" transform="translate(1375.740234 0)"/>
      <use xlink:href="#DejaVuSans-65" transform="translate(1439.216797 0)"/>
      <use xlink:href="#DejaVuSans-6c" transform="translate(1500.740234 0)"/>
      <use xlink:href="#DejaVuSans-6f" transform="translate(1528.523438 0)"/>
      <use xlink:href="#DejaVuSans-77" transform="translate(1589.705078 0)"/>
      <use xlink:href="#DejaVuSans-20" transform="translate(1671.492188 0)"/>
      <use xlink:href="#DejaVuSans-74" transform="translate(1703.279297 0)"/>
      <use xlink:href="#DejaVuSans-68" transform="translate(1742.488281 0)"/>
      <use xlink:href="#DejaVuSans-65" transform="translate(1805.867188 0)"/>
      <use xlink:href="#DejaVuSans-20" transform="translate(1867.390625 0)"/>
      <use xlink:href="#DejaVuSans-71" transform="translate(1899.177734 0)"/>
      <use xlink:href="#DejaVuSans-75" transform="translate(1962.654297 0)"/>
      <use xlink:href="#DejaVuSans-61" transform="translate(2026.033203 0)"/>
      <use xlink:href="#DejaVuSans-6c" transform="translate(2087.3125 0)"/>
      <use xlink:href="#DejaVuSans-69" transform="translate(2115.095703 0)"/>
      <use xlink:href="#DejaVuSans-66" transform="translate(2142.878906 0)"/>
      <use xlink:href="#DejaVuSans-69" transform="translate(2178.083984 0)"/>
      <use xlink:href="#DejaVuSans-65" transform="translate(2205.867188 0)"/>
      <use xlink:href="#DejaVuSans-64" transform="translate(2267.390625 0)"/>
      <use xlink:href="#DejaVuSans-2d" transform="translate(2330.867188 0)"/>
      <use xlink:href="#DejaVuSans-70" transform="translate(2366.951172 0)"/>
      <use xlink:href="#DejaVuSans-6c" transform="translate(2430.427734 0)"/>
      <use xlink:href="#DejaVuSans-61" transform="translate(2458.210938 0)"/>
      <use xlink:href="#DejaVuSans-79" transform="translate(2519.490234 0)"/>
      <use xlink:href="#DejaVuSans-65" transform="translate(2578.669922 0)"/>
      <use xlink:href="#DejaVuSans-72" transform="translate(2640.193359 0)"/>
      <use xlink:href="#DejaVuSans-20" transform="translate(2681.306641 0)"/>
      <use xlink:href="#DejaVuSans-6d" transform="translate(2713.09375 0)"/>
      <use xlink:href="#DejaVuSans-65" transform="translate(2810.505859 0)"/>
      <use xlink:href="#DejaVuSans-61" transform="translate(2872.029297 0)"/>
      <use xlink:href="#DejaVuSans-6e" transform="translate(2933.308594 0)"/>
     </g>
    </g>
   </g>
   <g id="line2d_19">
    <path d="M 75.074318 94.121846 
L 88.715877 139.395927 
L 102.357435 139.82643 
L 115.998994 192.532544 
L 129.640552 219.294332 
L 143.28211 221.224915 
L 156.923669 227.456501 
L 170.565227 250.299037 
L 184.206786 256.190759 
L 197.848344 256.50605 
L 211.489903 256.603808 
L 225.131461 265.806197 
L 238.773019 270.246599 
L 252.414578 271.073792 
L 266.056136 274.772972 
L 279.697695 275.448494 
L 293.339253 283.213995 
L 306.980812 286.149129 
L 320.62237 286.789716 
L 334.263929 290.780153 
L 347.905487 294.966789 
L 361.547045 300.719538 
L 375.188604 301.111692 
L 388.830162 303.367556 
L 402.471721 308.866686 
L 416.113279 315.050535 
L 429.754838 316.218887 
L 443.396396 320.239885 
L 457.037955 323.255226 
L 470.679513 324.20615 
L 484.321071 324.80573 
L 497.96263 325.534642 
L 511.604188 326.727319 
L 525.245747 327.280837 
L 538.887305 328.921202 
L 552.528864 329.173566 
L 566.170422 334.521606 
L 579.811981 335.053644 
L 593.453539 341.354116 
L 607.095097 342.975929 
L 620.736656 343.313154 
L 634.378214 346.829691 
L 648.019773 349.429088 
L 661.661331 358.432931 
L 675.30289 360.975073 
L 688.944448 363.501525 
L 702.586006 364.61922 
L 716.227565 365.720444 
L 729.869123 365.827881 
L 743.510682 370.272827 
" clip-path="url(#p06f68bfcd1)" style="fill: none; stroke: #2196f3; stroke-opacity: 0.65; stroke-width: 1.5; stroke-linecap: square"/>
   </g>
   <g id="line2d_20">
    <path d="M 75.074318 111.134705 
L 88.715877 130.837388 
L 102.357435 132.995936 
L 115.998994 150.491716 
L 129.640552 177.410792 
L 143.28211 193.524942 
L 156.923669 218.42459 
L 170.565227 264.376533 
L 184.206786 268.472429 
L 197.848344 279.058556 
L 211.489903 281.562009 
L 225.131461 282.037348 
L 238.773019 286.004616 
L 252.414578 294.702587 
L 266.056136 295.604118 
L 279.697695 296.112855 
L 293.339253 296.901914 
L 306.980812 297.190962 
L 320.62237 298.412489 
L 334.263929 301.645023 
L 347.905487 307.847297 
L 361.547045 309.533647 
L 375.188604 311.081179 
L 388.830162 312.993286 
L 402.471721 314.767588 
L 416.113279 315.404154 
L 429.754838 317.793537 
L 443.396396 318.051297 
L 457.037955 321.682179 
L 470.679513 323.682487 
L 484.321071 323.927731 
L 497.96263 328.509589 
L 511.604188 329.439617 
L 525.245747 330.492663 
L 538.887305 330.610367 
L 552.528864 331.445387 
L 566.170422 331.7649 
L 579.811981 332.511259 
L 593.453539 332.682821 
L 607.095097 332.930687 
L 620.736656 334.678156 
L 634.378214 336.76549 
L 648.019773 342.178624 
L 661.661331 343.31432 
L 675.30289 344.539316 
L 688.944448 347.441496 
L 702.586006 350.061508 
L 716.227565 350.228567 
L 729.869123 353.33839 
L 743.510682 354.407517 
" clip-path="url(#p06f68bfcd1)" style="fill: none; stroke: #f44336; stroke-opacity: 0.65; stroke-width: 1.5; stroke-linecap: square"/>
   </g>
   <g id="line2d_21">
    <path d="M 75.074318 71.389769 
L 88.715877 151.748051 
L 102.357435 159.975227 
L 115.998994 200.85373 
L 129.640552 205.855962 
L 143.28211 217.500917 
L 156.923669 227.341854 
L 170.565227 231.758586 
L 184.206786 236.627148 
L 197.848344 237.866387 
L 211.489903 242.028336 
L 225.131461 244.260238 
L 238.773019 270.449913 
L 252.414578 273.378997 
L 266.056136 292.493183 
L 279.697695 293.200684 
L 293.339253 297.613625 
L 306.980812 304.456769 
L 320.62237 306.825533 
L 334.263929 308.936608 
L 347.905487 309.165694 
L 361.547045 309.915557 
L 375.188604 310.958655 
L 388.830162 313.913212 
L 402.471721 315.275187 
L 416.113279 318.06081 
L 429.754838 318.270137 
L 443.396396 321.093067 
L 457.037955 322.935343 
L 470.679513 323.006458 
L 484.321071 329.878765 
L 497.96263 332.814898 
L 511.604188 333.02213 
L 525.245747 333.131722 
L 538.887305 333.575546 
L 552.528864 334.002292 
L 566.170422 334.078197 
L 579.811981 335.512088 
L 593.453539 340.949306 
L 607.095097 341.443175 
L 620.736656 341.471504 
L 634.378214 342.934744 
L 648.019773 344.489516 
L 661.661331 346.105316 
L 675.30289 348.052573 
L 688.944448 349.356598 
L 702.586006 353.018964 
L 716.227565 353.123634 
L 729.869123 353.23118 
L 743.510682 353.658777 
" clip-path="url(#p06f68bfcd1)" style="fill: none; stroke: #4caf50; stroke-opacity: 0.65; stroke-width: 1.5; stroke-linecap: square"/>
   </g>
   <g id="line2d_22">
    <path d="M 75.074318 121.252991 
L 88.715877 150.748795 
L 102.357435 195.15931 
L 115.998994 206.415636 
L 129.640552 207.878581 
L 143.28211 220.094235 
L 156.923669 221.278794 
L 170.565227 224.10181 
L 184.206786 234.791491 
L 197.848344 234.966521 
L 211.489903 236.292098 
L 225.131461 240.774619 
L 238.773019 241.615702 
L 252.414578 243.955144 
L 266.056136 248.692417 
L 279.697695 258.612853 
L 293.339253 267.971974 
L 306.980812 268.807717 
L 320.62237 282.68631 
L 334.263929 287.177669 
L 347.905487 306.84831 
L 361.547045 307.079026 
L 375.188604 316.694019 
L 388.830162 319.793915 
L 402.471721 320.62828 
L 416.113279 322.849725 
L 429.754838 326.76203 
L 443.396396 327.144522 
L 457.037955 328.781468 
L 470.679513 329.543753 
L 484.321071 332.495276 
L 497.96263 335.690432 
L 511.604188 335.887003 
L 525.245747 336.243938 
L 538.887305 336.760682 
L 552.528864 337.736941 
L 566.170422 338.189137 
L 579.811981 344.772827 
L 593.453539 347.602065 
L 607.095097 351.701427 
L 620.736656 352.575569 
L 634.378214 352.813623 
L 648.019773 354.618307 
L 661.661331 354.748553 
L 675.30289 354.880474 
L 688.944448 356.872129 
L 702.586006 357.942944 
L 716.227565 362.257514 
L 729.869123 363.874685 
L 743.510682 363.943322 
" clip-path="url(#p06f68bfcd1)" style="fill: none; stroke: #ff9800; stroke-opacity: 0.65; stroke-width: 1.5; stroke-linecap: square"/>
   </g>
   <g id="line2d_23">
    <path d="M 75.074318 92.752568 
L 88.715877 121.021952 
L 102.357435 135.107944 
L 115.998994 166.549542 
L 129.640552 192.50631 
L 143.28211 199.665068 
L 156.923669 221.231835 
L 170.565227 252.488541 
L 184.206786 268.965549 
L 197.848344 269.297854 
L 211.489903 272.79491 
L 225.131461 277.228013 
L 238.773019 289.638672 
L 252.414578 294.972346 
L 266.056136 298.460111 
L 279.697695 301.903914 
L 293.339253 305.057025 
L 306.980812 305.060167 
L 320.62237 306.126728 
L 334.263929 306.258661 
L 347.905487 306.367467 
L 361.547045 309.13823 
L 375.188604 310.077201 
L 388.830162 312.981036 
L 402.471721 317.214428 
L 416.113279 317.800819 
L 429.754838 318.895515 
L 443.396396 319.820075 
L 457.037955 323.276953 
L 470.679513 324.139121 
L 484.321071 325.197098 
L 497.96263 325.567737 
L 511.604188 326.913185 
L 525.245747 328.428013 
L 538.887305 329.066477 
L 552.528864 329.57008 
L 566.170422 332.641446 
L 579.811981 334.405823 
L 593.453539 335.436736 
L 607.095097 337.446226 
L 620.736656 337.962111 
L 634.378214 338.559094 
L 648.019773 339.641128 
L 661.661331 342.306103 
L 675.30289 342.838089 
L 688.944448 344.696869 
L 702.586006 344.970947 
L 716.227565 345.95039 
L 729.869123 346.186317 
L 743.510682 346.42414 
" clip-path="url(#p06f68bfcd1)" style="fill: none; stroke: #9c27b0; stroke-opacity: 0.65; stroke-width: 1.5; stroke-linecap: square"/>
   </g>
   <g id="line2d_24">
    <path d="M 75.074318 88.621453 
L 88.715877 99.62076 
L 102.357435 125.75711 
L 115.998994 180.805176 
L 129.640552 206.106752 
L 143.28211 243.171862 
L 156.923669 254.385256 
L 170.565227 256.39994 
L 184.206786 257.862151 
L 197.848344 262.4087 
L 211.489903 271.111284 
L 225.131461 281.089982 
L 238.773019 286.530418 
L 252.414578 287.271647 
L 266.056136 289.007304 
L 279.697695 289.970032 
L 293.339253 291.162546 
L 306.980812 297.489853 
L 320.62237 300.046528 
L 334.263929 301.808245 
L 347.905487 302.357431 
L 361.547045 302.818288 
L 375.188604 304.805968 
L 388.830162 309.708735 
L 402.471721 312.771546 
L 416.113279 315.322531 
L 429.754838 317.856962 
L 443.396396 318.89711 
L 457.037955 320.034511 
L 470.679513 321.588983 
L 484.321071 323.105499 
L 497.96263 326.4343 
L 511.604188 326.711262 
L 525.245747 327.434872 
L 538.887305 328.791073 
L 552.528864 329.870298 
L 566.170422 330.167278 
L 579.811981 332.543199 
L 593.453539 332.954928 
L 607.095097 339.385392 
L 620.736656 343.237162 
L 634.378214 343.808263 
L 648.019773 345.642291 
L 661.661331 346.225903 
L 675.30289 346.991857 
L 688.944448 348.61709 
L 702.586006 350.409354 
L 716.227565 350.551544 
L 729.869123 350.600525 
L 743.510682 350.735407 
" clip-path="url(#p06f68bfcd1)" style="fill: none; stroke: #00bcd4; stroke-opacity: 0.65; stroke-width: 1.5; stroke-linecap: square"/>
   </g>
   <g id="line2d_25">
    <path d="M 75.074318 115.540995 
L 88.715877 135.090192 
L 102.357435 145.948247 
L 115.998994 190.692961 
L 129.640552 198.704989 
L 143.28211 199.196282 
L 156.923669 210.392203 
L 170.565227 222.435657 
L 184.206786 231.099733 
L 197.848344 250.250036 
L 211.489903 259.61209 
L 225.131461 261.323125 
L 238.773019 272.667387 
L 252.414578 274.000617 
L 266.056136 284.188906 
L 279.697695 289.79057 
L 293.339253 292.924971 
L 306.980812 293.286495 
L 320.62237 298.335388 
L 334.263929 299.894013 
L 347.905487 308.812219 
L 361.547045 311.254615 
L 375.188604 316.716898 
L 388.830162 316.962127 
L 402.471721 319.2921 
L 416.113279 321.672788 
L 429.754838 325.809498 
L 443.396396 326.630508 
L 457.037955 326.795687 
L 470.679513 327.462682 
L 484.321071 331.413875 
L 497.96263 334.823125 
L 511.604188 335.138733 
L 525.245747 336.44785 
L 538.887305 336.551297 
L 552.528864 337.148784 
L 566.170422 337.548917 
L 579.811981 339.03796 
L 593.453539 341.646366 
L 607.095097 342.805264 
L 620.736656 343.458502 
L 634.378214 343.530302 
L 648.019773 344.567327 
L 661.661331 344.81803 
L 675.30289 344.943495 
L 688.944448 348.489803 
L 702.586006 349.240395 
L 716.227565 350.502263 
L 729.869123 350.631658 
L 743.510682 351.478642 
" clip-path="url(#p06f68bfcd1)" style="fill: none; stroke: #795548; stroke-opacity: 0.65; stroke-width: 1.5; stroke-linecap: square"/>
   </g>
   <g id="line2d_26">
    <path d="M 75.074318 75.145666 
L 88.715877 103.533363 
L 102.357435 169.206873 
L 115.998994 200.30305 
L 129.640552 200.620988 
L 143.28211 240.550695 
L 156.923669 243.361065 
L 170.565227 245.246682 
L 184.206786 254.820793 
L 197.848344 256.776878 
L 211.489903 258.440654 
L 225.131461 268.965302 
L 238.773019 269.560063 
L 252.414578 275.856987 
L 266.056136 277.625607 
L 279.697695 282.304384 
L 293.339253 282.4354 
L 306.980812 290.402444 
L 320.62237 292.052341 
L 334.263929 296.858843 
L 347.905487 298.552478 
L 361.547045 298.727919 
L 375.188604 311.424758 
L 388.830162 315.0637 
L 402.471721 316.638946 
L 416.113279 321.457532 
L 429.754838 321.566768 
L 443.396396 323.366272 
L 457.037955 324.371855 
L 470.679513 325.147763 
L 484.321071 326.288142 
L 497.96263 330.134596 
L 511.604188 330.930125 
L 525.245747 331.004042 
L 538.887305 332.485195 
L 552.528864 332.732573 
L 566.170422 335.26955 
L 579.811981 340.342391 
L 593.453539 343.158754 
L 607.095097 344.37053 
L 620.736656 344.980333 
L 634.378214 345.257781 
L 648.019773 345.492538 
L 661.661331 347.034172 
L 675.30289 349.260954 
L 688.944448 349.420332 
L 702.586006 349.964677 
L 716.227565 350.467585 
L 729.869123 350.568456 
L 743.510682 351.45777 
" clip-path="url(#p06f68bfcd1)" style="fill: none; stroke: #607d8b; stroke-opacity: 0.65; stroke-width: 1.5; stroke-linecap: square"/>
   </g>
   <g id="line2d_27">
    <path d="M 75.074318 114.970823 
L 88.715877 147.869267 
L 102.357435 161.606665 
L 115.998994 164.762304 
L 129.640552 184.790561 
L 143.28211 199.033627 
L 156.923669 226.675744 
L 170.565227 243.226427 
L 184.206786 244.104302 
L 197.848344 251.915217 
L 211.489903 256.967676 
L 225.131461 260.239228 
L 238.773019 270.51546 
L 252.414578 279.837914 
L 266.056136 281.108466 
L 279.697695 281.836898 
L 293.339253 287.50876 
L 306.980812 290.379514 
L 320.62237 295.371557 
L 334.263929 297.062793 
L 347.905487 301.226128 
L 361.547045 301.429749 
L 375.188604 304.600681 
L 388.830162 307.417041 
L 402.471721 308.864354 
L 416.113279 309.915509 
L 429.754838 314.815461 
L 443.396396 323.743771 
L 457.037955 323.800194 
L 470.679513 325.760424 
L 484.321071 328.45899 
L 497.96263 329.14961 
L 511.604188 329.371211 
L 525.245747 333.203817 
L 538.887305 334.347433 
L 552.528864 336.815351 
L 566.170422 337.95936 
L 579.811981 338.461984 
L 593.453539 342.145589 
L 607.095097 344.852658 
L 620.736656 344.879743 
L 634.378214 347.237641 
L 648.019773 351.410241 
L 661.661331 352.372764 
L 675.30289 353.288969 
L 688.944448 353.578174 
L 702.586006 362.301991 
L 716.227565 362.544647 
L 729.869123 363.402848 
L 743.510682 363.867028 
" clip-path="url(#p06f68bfcd1)" style="fill: none; stroke: #2196f3; stroke-opacity: 0.65; stroke-width: 1.5; stroke-linecap: square"/>
   </g>
   <g id="line2d_28">
    <path d="M 75.074318 104.585133 
L 88.715877 151.524664 
L 102.357435 159.896259 
L 115.998994 180.840474 
L 129.640552 202.125849 
L 143.28211 207.011039 
L 156.923669 214.235491 
L 170.565227 224.688152 
L 184.206786 248.079437 
L 197.848344 251.128485 
L 211.489903 252.736681 
L 225.131461 255.796748 
L 238.773019 266.940804 
L 252.414578 269.462176 
L 266.056136 274.367355 
L 279.697695 281.394254 
L 293.339253 286.200369 
L 306.980812 286.720139 
L 320.62237 286.792128 
L 334.263929 297.875439 
L 347.905487 307.565065 
L 361.547045 307.668081 
L 375.188604 308.535116 
L 388.830162 312.230768 
L 402.471721 314.895789 
L 416.113279 317.281603 
L 429.754838 320.478078 
L 443.396396 321.309937 
L 457.037955 323.838038 
L 470.679513 325.341467 
L 484.321071 326.014931 
L 497.96263 327.54989 
L 511.604188 329.160995 
L 525.245747 334.491068 
L 538.887305 336.629387 
L 552.528864 342.37003 
L 566.170422 343.095801 
L 579.811981 343.991477 
L 593.453539 345.145215 
L 607.095097 347.059674 
L 620.736656 348.398964 
L 634.378214 348.462094 
L 648.019773 350.038157 
L 661.661331 352.301518 
L 675.30289 355.034719 
L 688.944448 355.135451 
L 702.586006 355.40998 
L 716.227565 355.73279 
L 729.869123 356.111236 
L 743.510682 357.328166 
" clip-path="url(#p06f68bfcd1)" style="fill: none; stroke: #f44336; stroke-opacity: 0.65; stroke-width: 1.5; stroke-linecap: square"/>
   </g>
   <g id="line2d_29">
    <path d="M 75.074318 65.191026 
L 88.715877 88.47897 
L 102.357435 168.306835 
L 115.998994 201.097667 
L 129.640552 211.003363 
L 143.28211 227.684864 
L 156.923669 252.813745 
L 170.565227 252.863163 
L 184.206786 260.507135 
L 197.848344 265.025265 
L 211.489903 268.710411 
L 225.131461 273.439141 
L 238.773019 277.461682 
L 252.414578 277.754118 
L 266.056136 282.861295 
L 279.697695 285.955963 
L 293.339253 288.049021 
L 306.980812 296.720396 
L 320.62237 296.828866 
L 334.263929 299.682111 
L 347.905487 301.768255 
L 361.547045 307.3291 
L 375.188604 311.743005 
L 388.830162 318.870329 
L 402.471721 319.81343 
L 416.113279 321.333775 
L 429.754838 322.615325 
L 443.396396 323.908421 
L 457.037955 324.601835 
L 470.679513 324.611459 
L 484.321071 325.049419 
L 497.96263 325.677389 
L 511.604188 325.88 
L 525.245747 326.664897 
L 538.887305 329.374562 
L 552.528864 329.441243 
L 566.170422 330.393344 
L 579.811981 333.29344 
L 593.453539 337.658347 
L 607.095097 337.981353 
L 620.736656 338.697431 
L 634.378214 342.074462 
L 648.019773 342.49933 
L 661.661331 342.552931 
L 675.30289 343.121747 
L 688.944448 344.33679 
L 702.586006 346.794426 
L 716.227565 348.085569 
L 729.869123 351.082905 
L 743.510682 353.317006 
" clip-path="url(#p06f68bfcd1)" style="fill: none; stroke: #4caf50; stroke-opacity: 0.65; stroke-width: 1.5; stroke-linecap: square"/>
   </g>
   <g id="line2d_30">
    <path d="M 75.074318 105.959258 
L 88.715877 110.087774 
L 102.357435 132.472526 
L 115.998994 156.584978 
L 129.640552 189.587651 
L 143.28211 190.985544 
L 156.923669 242.367615 
L 170.565227 260.506593 
L 184.206786 265.235043 
L 197.848344 266.884428 
L 211.489903 275.833719 
L 225.131461 281.964197 
L 238.773019 289.745187 
L 252.414578 290.539035 
L 266.056136 294.259043 
L 279.697695 295.177512 
L 293.339253 300.712727 
L 306.980812 303.223914 
L 320.62237 308.174355 
L 334.263929 308.880985 
L 347.905487 312.248158 
L 361.547045 313.25201 
L 375.188604 317.892199 
L 388.830162 318.446178 
L 402.471721 320.815177 
L 416.113279 322.393877 
L 429.754838 322.845542 
L 443.396396 323.321783 
L 457.037955 323.693116 
L 470.679513 323.812954 
L 484.321071 327.007917 
L 497.96263 327.26868 
L 511.604188 327.623513 
L 525.245747 329.669941 
L 538.887305 330.518298 
L 552.528864 331.116108 
L 566.170422 331.389298 
L 579.811981 332.735778 
L 593.453539 333.078314 
L 607.095097 334.273475 
L 620.736656 334.830396 
L 634.378214 335.667704 
L 648.019773 335.939061 
L 661.661331 337.36933 
L 675.30289 340.959734 
L 688.944448 341.509563 
L 702.586006 341.941805 
L 716.227565 343.229621 
L 729.869123 343.332522 
L 743.510682 343.642429 
" clip-path="url(#p06f68bfcd1)" style="fill: none; stroke: #ff9800; stroke-opacity: 0.65; stroke-width: 1.5; stroke-linecap: square"/>
   </g>
   <g id="line2d_31">
    <path d="M 75.074318 72.743384 
L 88.715877 121.428411 
L 102.357435 125.21459 
L 115.998994 174.210062 
L 129.640552 192.089301 
L 143.28211 199.424494 
L 156.923669 259.059267 
L 170.565227 260.768958 
L 184.206786 276.576917 
L 197.848344 279.457605 
L 211.489903 286.676916 
L 225.131461 287.547479 
L 238.773019 292.260419 
L 252.414578 293.559038 
L 266.056136 293.735985 
L 279.697695 297.803585 
L 293.339253 298.571603 
L 306.980812 299.248668 
L 320.62237 305.205196 
L 334.263929 308.500956 
L 347.905487 309.664814 
L 361.547045 310.779219 
L 375.188604 313.104866 
L 388.830162 314.024246 
L 402.471721 314.044282 
L 416.113279 315.173004 
L 429.754838 318.142209 
L 443.396396 318.253758 
L 457.037955 320.073291 
L 470.679513 320.954647 
L 484.321071 321.646889 
L 497.96263 322.057373 
L 511.604188 324.064467 
L 525.245747 324.733735 
L 538.887305 325.971134 
L 552.528864 328.112724 
L 566.170422 329.775378 
L 579.811981 330.891977 
L 593.453539 334.155872 
L 607.095097 335.52723 
L 620.736656 336.384694 
L 634.378214 336.470659 
L 648.019773 336.788845 
L 661.661331 338.068876 
L 675.30289 338.729296 
L 688.944448 339.365295 
L 702.586006 345.497645 
L 716.227565 346.059464 
L 729.869123 347.11281 
L 743.510682 351.295031 
" clip-path="url(#p06f68bfcd1)" style="fill: none; stroke: #9c27b0; stroke-opacity: 0.65; stroke-width: 1.5; stroke-linecap: square"/>
   </g>
   <g id="line2d_32">
    <path d="M 75.074318 38.163736 
L 88.715877 173.213268 
L 102.357435 179.805187 
L 115.998994 211.981194 
L 129.640552 215.890103 
L 143.28211 236.097329 
L 156.923669 244.06631 
L 170.565227 246.251757 
L 184.206786 251.417642 
L 197.848344 251.818183 
L 211.489903 257.220378 
L 225.131461 258.972319 
L 238.773019 263.243961 
L 252.414578 273.542364 
L 266.056136 274.876281 
L 279.697695 281.602562 
L 293.339253 282.385845 
L 306.980812 283.280782 
L 320.62237 286.068952 
L 334.263929 287.081729 
L 347.905487 288.3608 
L 361.547045 289.296897 
L 375.188604 291.482573 
L 388.830162 294.311847 
L 402.471721 300.701585 
L 416.113279 302.11766 
L 429.754838 311.250242 
L 443.396396 311.729266 
L 457.037955 316.041913 
L 470.679513 321.017632 
L 484.321071 328.050614 
L 497.96263 329.088579 
L 511.604188 333.113814 
L 525.245747 338.105331 
L 538.887305 338.616831 
L 552.528864 340.36272 
L 566.170422 343.835478 
L 579.811981 343.99326 
L 593.453539 347.401709 
L 607.095097 348.96865 
L 620.736656 351.240103 
L 634.378214 351.535805 
L 648.019773 352.260574 
L 661.661331 352.323297 
L 675.30289 352.534965 
L 688.944448 357.349245 
L 702.586006 358.442483 
L 716.227565 359.306712 
L 729.869123 360.375337 
L 743.510682 360.810762 
" clip-path="url(#p06f68bfcd1)" style="fill: none; stroke: #00bcd4; stroke-opacity: 0.65; stroke-width: 1.5; stroke-linecap: square"/>
   </g>
   <g id="line2d_33">
    <path d="M 41.6525 295.420131 
L 776.9325 295.420131 
" clip-path="url(#p06f68bfcd1)" style="fill: none; stroke-dasharray: 2.96,1.28; stroke-dashoffset: 0; stroke: #888780; stroke-opacity: 0.5; stroke-width: 0.8"/>
   </g>
   <g id="patch_3">
    <path d="M 41.6525 386.878281 
L 41.6525 21.558281 
" style="fill: none; stroke: #000000; stroke-width: 0.8; stroke-linejoin: miter; stroke-linecap: square"/>
   </g>
   <g id="patch_4">
    <path d="M 41.6525 386.878281 
L 776.9325 386.878281 
" style="fill: none; stroke: #000000; stroke-width: 0.8; stroke-linejoin: miter; stroke-linecap: square"/>
   </g>
   <g id="line2d_34">
    <path d="M 75.074318 56.473331 
L 88.715877 116.92531 
L 102.357435 169.966838 
L 115.998994 181.615076 
L 129.640552 191.776656 
L 143.28211 216.09384 
L 156.923669 225.982626 
L 170.565227 266.430053 
L 184.206786 270.150302 
L 197.848344 272.476872 
L 211.489903 276.877064 
L 225.131461 282.490094 
L 238.773019 282.57108 
L 252.414578 291.170268 
L 266.056136 294.166962 
L 279.697695 295.594656 
L 293.339253 295.727677 
L 306.980812 296.978023 
L 320.62237 298.069693 
L 334.263929 298.157962 
L 347.905487 299.225425 
L 361.547045 301.833298 
L 375.188604 306.479651 
L 388.830162 308.038889 
L 402.471721 310.910618 
L 416.113279 317.493557 
L 429.754838 322.591027 
L 443.396396 322.946439 
L 457.037955 323.168265 
L 470.679513 324.293179 
L 484.321071 324.756611 
L 497.96263 324.911695 
L 511.604188 328.013679 
L 525.245747 328.356746 
L 538.887305 329.30307 
L 552.528864 330.646217 
L 566.170422 334.17125 
L 579.811981 336.112702 
L 593.453539 337.69178 
L 607.095097 338.5691 
L 620.736656 338.795677 
L 634.378214 340.536465 
L 648.019773 342.13949 
L 661.661331 342.75181 
L 675.30289 343.001999 
L 688.944448 346.070113 
L 702.586006 346.555186 
L 716.227565 346.602103 
L 729.869123 347.01505 
L 743.510682 348.331092 
" clip-path="url(#p06f68bfcd1)" style="fill: none; stroke: #111111; stroke-width: 2.5; stroke-linecap: square"/>
   </g>
   <g id="line2d_35">
    <path d="M 75.074318 89.235129 
L 88.715877 115.36221 
L 102.357435 157.556327 
L 115.998994 162.956808 
L 129.640552 176.550298 
L 143.28211 193.2807 
L 156.923669 247.948814 
L 170.565227 257.706732 
L 184.206786 267.56641 
L 197.848344 272.210077 
L 211.489903 279.725443 
L 225.131461 284.959761 
L 238.773019 285.372502 
L 252.414578 288.356065 
L 266.056136 294.435759 
L 279.697695 294.554025 
L 293.339253 296.731211 
L 306.980812 297.00685 
L 320.62237 297.977456 
L 334.263929 298.638549 
L 347.905487 299.853238 
L 361.547045 300.012921 
L 375.188604 307.449971 
L 388.830162 311.486218 
L 402.471721 321.423413 
L 416.113279 323.53695 
L 429.754838 324.074145 
L 443.396396 324.104537 
L 457.037955 325.152214 
L 470.679513 325.839883 
L 484.321071 326.998755 
L 497.96263 328.320646 
L 511.604188 329.184 
L 525.245747 329.718645 
L 538.887305 329.808877 
L 552.528864 330.516239 
L 566.170422 334.041962 
L 579.811981 334.055208 
L 593.453539 334.962066 
L 607.095097 336.79028 
L 620.736656 337.165835 
L 634.378214 339.15324 
L 648.019773 339.516773 
L 661.661331 341.457389 
L 675.30289 342.691661 
L 688.944448 345.246781 
L 702.586006 346.495037 
L 716.227565 347.547663 
L 729.869123 347.581599 
L 743.510682 348.689293 
" clip-path="url(#p06f68bfcd1)" style="fill: none; stroke: #e67e22; stroke-width: 2.5; stroke-linecap: square"/>
   </g>
   <g id="text_15">
    <!-- Every system's value falls off steeply in the top tier -->
    <g style="fill: #222222" transform="translate(267.733672 15.558281) scale(0.11 -0.11)">
     <defs>
      <path id="DejaVuSans-45" d="M 628 4666 
L 3578 4666 
L 3578 4134 
L 1259 4134 
L 1259 2753 
L 3481 2753 
L 3481 2222 
L 1259 2222 
L 1259 531 
L 3634 531 
L 3634 0 
L 628 0 
L 628 4666 
z
" transform="scale(0.015625)"/>
      <path id="DejaVuSans-27" d="M 1147 4666 
L 1147 2931 
L 616 2931 
L 616 4666 
L 1147 4666 
z
" transform="scale(0.015625)"/>
     </defs>
     <use xlink:href="#DejaVuSans-45"/>
     <use xlink:href="#DejaVuSans-76" transform="translate(63.183594 0)"/>
     <use xlink:href="#DejaVuSans-65" transform="translate(122.363281 0)"/>
     <use xlink:href="#DejaVuSans-72" transform="translate(183.886719 0)"/>
     <use xlink:href="#DejaVuSans-79" transform="translate(225 0)"/>
     <use xlink:href="#DejaVuSans-20" transform="translate(284.179688 0)"/>
     <use xlink:href="#DejaVuSans-73" transform="translate(315.966797 0)"/>
     <use xlink:href="#DejaVuSans-79" transform="translate(368.066406 0)"/>
     <use xlink:href="#DejaVuSans-73" transform="translate(427.246094 0)"/>
     <use xlink:href="#DejaVuSans-74" transform="translate(479.345703 0)"/>
     <use xlink:href="#DejaVuSans-65" transform="translate(518.554688 0)"/>
     <use xlink:href="#DejaVuSans-6d" transform="translate(580.078125 0)"/>
     <use xlink:href="#DejaVuSans-27" transform="translate(677.490234 0)"/>
     <use xlink:href="#DejaVuSans-73" transform="translate(704.980469 0)"/>
     <use xlink:href="#DejaVuSans-20" transform="translate(757.080078 0)"/>
     <use xlink:href="#DejaVuSans-76" transform="translate(788.867188 0)"/>
     <use xlink:href="#DejaVuSans-61" transform="translate(848.046875 0)"/>
     <use xlink:href="#DejaVuSans-6c" transform="translate(909.326172 0)"/>
     <use xlink:href="#DejaVuSans-75" transform="translate(937.109375 0)"/>
     <use xlink:href="#DejaVuSans-65" transform="translate(1000.488281 0)"/>
     <use xlink:href="#DejaVuSans-20" transform="translate(1062.011719 0)"/>
     <use xlink:href="#DejaVuSans-66" transform="translate(1093.798828 0)"/>
     <use xlink:href="#DejaVuSans-61" transform="translate(1129.003906 0)"/>
     <use xlink:href="#DejaVuSans-6c" transform="translate(1190.283203 0)"/>
     <use xlink:href="#DejaVuSans-6c" transform="translate(1218.066406 0)"/>
     <use xlink:href="#DejaVuSans-73" transform="translate(1245.849609 0)"/>
     <use xlink:href="#DejaVuSans-20" transform="translate(1297.949219 0)"/>
     <use xlink:href="#DejaVuSans-6f" transform="translate(1329.736328 0)"/>
     <use xlink:href="#DejaVuSans-66" transform="translate(1390.917969 0)"/>
     <use xlink:href="#DejaVuSans-66" transform="translate(1426.123047 0)"/>
     <use xlink:href="#DejaVuSans-20" transform="translate(1461.328125 0)"/>
     <use xlink:href="#DejaVuSans-73" transform="translate(1493.115234 0)"/>
     <use xlink:href="#DejaVuSans-74" transform="translate(1545.214844 0)"/>
     <use xlink:href="#DejaVuSans-65" transform="translate(1584.423828 0)"/>
     <use xlink:href="#DejaVuSans-65" transform="translate(1645.947266 0)"/>
     <use xlink:href="#DejaVuSans-70" transform="translate(1707.470703 0)"/>
     <use xlink:href="#DejaVuSans-6c" transform="translate(1770.947266 0)"/>
     <use xlink:href="#DejaVuSans-79" transform="translate(1798.730469 0)"/>
     <use xlink:href="#DejaVuSans-20" transform="translate(1857.910156 0)"/>
     <use xlink:href="#DejaVuSans-69" transform="translate(1889.697266 0)"/>
     <use xlink:href="#DejaVuSans-6e" transform="translate(1917.480469 0)"/>
     <use xlink:href="#DejaVuSans-20" transform="translate(1980.859375 0)"/>
     <use xlink:href="#DejaVuSans-74" transform="translate(2012.646484 0)"/>
     <use xlink:href="#DejaVuSans-68" transform="translate(2051.855469 0)"/>
     <use xlink:href="#DejaVuSans-65" transform="translate(2115.234375 0)"/>
     <use xlink:href="#DejaVuSans-20" transform="translate(2176.757812 0)"/>
     <use xlink:href="#DejaVuSans-74" transform="translate(2208.544922 0)"/>
     <use xlink:href="#DejaVuSans-6f" transform="translate(2247.753906 0)"/>
     <use xlink:href="#DejaVuSans-70" transform="translate(2308.935547 0)"/>
     <use xlink:href="#DejaVuSans-20" transform="translate(2372.412109 0)"/>
     <use xlink:href="#DejaVuSans-74" transform="translate(2404.199219 0)"/>
     <use xlink:href="#DejaVuSans-69" transform="translate(2443.408203 0)"/>
     <use xlink:href="#DejaVuSans-65" transform="translate(2471.191406 0)"/>
     <use xlink:href="#DejaVuSans-72" transform="translate(2532.714844 0)"/>
    </g>
   </g>
   <g id="legend_1">
    <g id="line2d_36">
     <path d="M 588.7225 32.037031 
L 596.7225 32.037031 
L 604.7225 32.037031 
" style="fill: none; stroke: #2196f3; stroke-opacity: 0.65; stroke-width: 1.5; stroke-linecap: square"/>
    </g>
    <g id="text_16">
     <!-- Game Score -->
     <g transform="translate(611.1225 34.837031) scale(0.08 -0.08)">
      <defs>
       <path id="DejaVuSans-47" d="M 3809 666 
L 3809 1919 
L 2778 1919 
L 2778 2438 
L 4434 2438 
L 4434 434 
Q 4069 175 3628 42 
Q 3188 -91 2688 -91 
Q 1594 -91 976 548 
Q 359 1188 359 2328 
Q 359 3472 976 4111 
Q 1594 4750 2688 4750 
Q 3144 4750 3555 4637 
Q 3966 4525 4313 4306 
L 4313 3634 
Q 3963 3931 3569 4081 
Q 3175 4231 2741 4231 
Q 1884 4231 1454 3753 
Q 1025 3275 1025 2328 
Q 1025 1384 1454 906 
Q 1884 428 2741 428 
Q 3075 428 3337 486 
Q 3600 544 3809 666 
z
" transform="scale(0.015625)"/>
      </defs>
      <use xlink:href="#DejaVuSans-47"/>
      <use xlink:href="#DejaVuSans-61" transform="translate(77.490234 0)"/>
      <use xlink:href="#DejaVuSans-6d" transform="translate(138.769531 0)"/>
      <use xlink:href="#DejaVuSans-65" transform="translate(236.181641 0)"/>
      <use xlink:href="#DejaVuSans-20" transform="translate(297.705078 0)"/>
      <use xlink:href="#DejaVuSans-53" transform="translate(329.492188 0)"/>
      <use xlink:href="#DejaVuSans-63" transform="translate(392.96875 0)"/>
      <use xlink:href="#DejaVuSans-6f" transform="translate(447.949219 0)"/>
      <use xlink:href="#DejaVuSans-72" transform="translate(509.130859 0)"/>
      <use xlink:href="#DejaVuSans-65" transform="translate(547.994141 0)"/>
     </g>
    </g>
    <g id="line2d_37">
     <path d="M 588.7225 43.779531 
L 596.7225 43.779531 
L 604.7225 43.779531 
" style="fill: none; stroke: #f44336; stroke-opacity: 0.65; stroke-width: 1.5; stroke-linecap: square"/>
    </g>
    <g id="text_17">
     <!-- PER -->
     <g transform="translate(611.1225 46.579531) scale(0.08 -0.08)">
      <defs>
       <path id="DejaVuSans-52" d="M 2841 2188 
Q 3044 2119 3236 1894 
Q 3428 1669 3622 1275 
L 4263 0 
L 3584 0 
L 2988 1197 
Q 2756 1666 2539 1819 
Q 2322 1972 1947 1972 
L 1259 1972 
L 1259 0 
L 628 0 
L 628 4666 
L 2053 4666 
Q 2853 4666 3247 4331 
Q 3641 3997 3641 3322 
Q 3641 2881 3436 2590 
Q 3231 2300 2841 2188 
z
M 1259 4147 
L 1259 2491 
L 2053 2491 
Q 2509 2491 2742 2702 
Q 2975 2913 2975 3322 
Q 2975 3731 2742 3939 
Q 2509 4147 2053 4147 
L 1259 4147 
z
" transform="scale(0.015625)"/>
      </defs>
      <use xlink:href="#DejaVuSans-50"/>
      <use xlink:href="#DejaVuSans-45" transform="translate(60.302734 0)"/>
      <use xlink:href="#DejaVuSans-52" transform="translate(123.486328 0)"/>
     </g>
    </g>
    <g id="line2d_38">
     <path d="M 588.7225 55.522031 
L 596.7225 55.522031 
L 604.7225 55.522031 
" style="fill: none; stroke: #4caf50; stroke-opacity: 0.65; stroke-width: 1.5; stroke-linecap: square"/>
    </g>
    <g id="text_18">
     <!-- Win Shares -->
     <g transform="translate(611.1225 58.322031) scale(0.08 -0.08)">
      <defs>
       <path id="DejaVuSans-57" d="M 213 4666 
L 850 4666 
L 1831 722 
L 2809 4666 
L 3519 4666 
L 4500 722 
L 5478 4666 
L 6119 4666 
L 4947 0 
L 4153 0 
L 3169 4050 
L 2175 0 
L 1381 0 
L 213 4666 
z
" transform="scale(0.015625)"/>
      </defs>
      <use xlink:href="#DejaVuSans-57"/>
      <use xlink:href="#DejaVuSans-69" transform="translate(96.626953 0)"/>
      <use xlink:href="#DejaVuSans-6e" transform="translate(124.410156 0)"/>
      <use xlink:href="#DejaVuSans-20" transform="translate(187.789062 0)"/>
      <use xlink:href="#DejaVuSans-53" transform="translate(219.576172 0)"/>
      <use xlink:href="#DejaVuSans-68" transform="translate(283.052734 0)"/>
      <use xlink:href="#DejaVuSans-61" transform="translate(346.431641 0)"/>
      <use xlink:href="#DejaVuSans-72" transform="translate(407.710938 0)"/>
      <use xlink:href="#DejaVuSans-65" transform="translate(446.574219 0)"/>
      <use xlink:href="#DejaVuSans-73" transform="translate(508.097656 0)"/>
     </g>
    </g>
    <g id="line2d_39">
     <path d="M 588.7225 67.264531 
L 596.7225 67.264531 
L 604.7225 67.264531 
" style="fill: none; stroke: #ff9800; stroke-opacity: 0.65; stroke-width: 1.5; stroke-linecap: square"/>
    </g>
    <g id="text_19">
     <!-- WS/48 -->
     <g transform="translate(611.1225 70.064531) scale(0.08 -0.08)">
      <defs>
       <path id="DejaVuSans-38" d="M 2034 2216 
Q 1584 2216 1326 1975 
Q 1069 1734 1069 1313 
Q 1069 891 1326 650 
Q 1584 409 2034 409 
Q 2484 409 2743 651 
Q 3003 894 3003 1313 
Q 3003 1734 2745 1975 
Q 2488 2216 2034 2216 
z
M 1403 2484 
Q 997 2584 770 2862 
Q 544 3141 544 3541 
Q 544 4100 942 4425 
Q 1341 4750 2034 4750 
Q 2731 4750 3128 4425 
Q 3525 4100 3525 3541 
Q 3525 3141 3298 2862 
Q 3072 2584 2669 2484 
Q 3125 2378 3379 2068 
Q 3634 1759 3634 1313 
Q 3634 634 3220 271 
Q 2806 -91 2034 -91 
Q 1263 -91 848 271 
Q 434 634 434 1313 
Q 434 1759 690 2068 
Q 947 2378 1403 2484 
z
M 1172 3481 
Q 1172 3119 1398 2916 
Q 1625 2713 2034 2713 
Q 2441 2713 2670 2916 
Q 2900 3119 2900 3481 
Q 2900 3844 2670 4047 
Q 2441 4250 2034 4250 
Q 1625 4250 1398 4047 
Q 1172 3844 1172 3481 
z
" transform="scale(0.015625)"/>
      </defs>
      <use xlink:href="#DejaVuSans-57"/>
      <use xlink:href="#DejaVuSans-53" transform="translate(98.876953 0)"/>
      <use xlink:href="#DejaVuSans-2f" transform="translate(162.353516 0)"/>
      <use xlink:href="#DejaVuSans-34" transform="translate(196.044922 0)"/>
      <use xlink:href="#DejaVuSans-38" transform="translate(259.667969 0)"/>
     </g>
    </g>
    <g id="line2d_40">
     <path d="M 588.7225 79.007031 
L 596.7225 79.007031 
L 604.7225 79.007031 
" style="fill: none; stroke: #9c27b0; stroke-opacity: 0.65; stroke-width: 1.5; stroke-linecap: square"/>
    </g>
    <g id="text_20">
     <!-- BPM -->
     <g transform="translate(611.1225 81.807031) scale(0.08 -0.08)">
      <defs>
       <path id="DejaVuSans-42" d="M 1259 2228 
L 1259 519 
L 2272 519 
Q 2781 519 3026 730 
Q 3272 941 3272 1375 
Q 3272 1813 3026 2020 
Q 2781 2228 2272 2228 
L 1259 2228 
z
M 1259 4147 
L 1259 2741 
L 2194 2741 
Q 2656 2741 2882 2914 
Q 3109 3088 3109 3444 
Q 3109 3797 2882 3972 
Q 2656 4147 2194 4147 
L 1259 4147 
z
M 628 4666 
L 2241 4666 
Q 2963 4666 3353 4366 
Q 3744 4066 3744 3513 
Q 3744 3084 3544 2831 
Q 3344 2578 2956 2516 
Q 3422 2416 3680 2098 
Q 3938 1781 3938 1306 
Q 3938 681 3513 340 
Q 3088 0 2303 0 
L 628 0 
L 628 4666 
z
" transform="scale(0.015625)"/>
       <path id="DejaVuSans-4d" d="M 628 4666 
L 1569 4666 
L 2759 1491 
L 3956 4666 
L 4897 4666 
L 4897 0 
L 4281 0 
L 4281 4097 
L 3078 897 
L 2444 897 
L 1241 4097 
L 1241 0 
L 628 0 
L 628 4666 
z
" transform="scale(0.015625)"/>
      </defs>
      <use xlink:href="#DejaVuSans-42"/>
      <use xlink:href="#DejaVuSans-50" transform="translate(68.603516 0)"/>
      <use xlink:href="#DejaVuSans-4d" transform="translate(128.90625 0)"/>
     </g>
    </g>
    <g id="line2d_41">
     <path d="M 588.7225 90.749531 
L 596.7225 90.749531 
L 604.7225 90.749531 
" style="fill: none; stroke: #00bcd4; stroke-opacity: 0.65; stroke-width: 1.5; stroke-linecap: square"/>
    </g>
    <g id="text_21">
     <!-- Off BPM -->
     <g transform="translate(611.1225 93.549531) scale(0.08 -0.08)">
      <defs>
       <path id="DejaVuSans-4f" d="M 2522 4238 
Q 1834 4238 1429 3725 
Q 1025 3213 1025 2328 
Q 1025 1447 1429 934 
Q 1834 422 2522 422 
Q 3209 422 3611 934 
Q 4013 1447 4013 2328 
Q 4013 3213 3611 3725 
Q 3209 4238 2522 4238 
z
M 2522 4750 
Q 3503 4750 4090 4092 
Q 4678 3434 4678 2328 
Q 4678 1225 4090 567 
Q 3503 -91 2522 -91 
Q 1538 -91 948 565 
Q 359 1222 359 2328 
Q 359 3434 948 4092 
Q 1538 4750 2522 4750 
z
" transform="scale(0.015625)"/>
      </defs>
      <use xlink:href="#DejaVuSans-4f"/>
      <use xlink:href="#DejaVuSans-66" transform="translate(78.710938 0)"/>
      <use xlink:href="#DejaVuSans-66" transform="translate(113.916016 0)"/>
      <use xlink:href="#DejaVuSans-20" transform="translate(149.121094 0)"/>
      <use xlink:href="#DejaVuSans-42" transform="translate(180.908203 0)"/>
      <use xlink:href="#DejaVuSans-50" transform="translate(249.511719 0)"/>
      <use xlink:href="#DejaVuSans-4d" transform="translate(309.814453 0)"/>
     </g>
    </g>
    <g id="line2d_42">
     <path d="M 588.7225 102.492031 
L 596.7225 102.492031 
L 604.7225 102.492031 
" style="fill: none; stroke: #795548; stroke-opacity: 0.65; stroke-width: 1.5; stroke-linecap: square"/>
    </g>
    <g id="text_22">
     <!-- Def BPM -->
     <g transform="translate(611.1225 105.292031) scale(0.08 -0.08)">
      <defs>
       <path id="DejaVuSans-44" d="M 1259 4147 
L 1259 519 
L 2022 519 
Q 2988 519 3436 956 
Q 3884 1394 3884 2338 
Q 3884 3275 3436 3711 
Q 2988 4147 2022 4147 
L 1259 4147 
z
M 628 4666 
L 1925 4666 
Q 3281 4666 3915 4102 
Q 4550 3538 4550 2338 
Q 4550 1131 3912 565 
Q 3275 0 1925 0 
L 628 0 
L 628 4666 
z
" transform="scale(0.015625)"/>
      </defs>
      <use xlink:href="#DejaVuSans-44"/>
      <use xlink:href="#DejaVuSans-65" transform="translate(77.001953 0)"/>
      <use xlink:href="#DejaVuSans-66" transform="translate(138.525391 0)"/>
      <use xlink:href="#DejaVuSans-20" transform="translate(173.730469 0)"/>
      <use xlink:href="#DejaVuSans-42" transform="translate(205.517578 0)"/>
      <use xlink:href="#DejaVuSans-50" transform="translate(274.121094 0)"/>
      <use xlink:href="#DejaVuSans-4d" transform="translate(334.423828 0)"/>
     </g>
    </g>
    <g id="line2d_43">
     <path d="M 588.7225 114.234531 
L 596.7225 114.234531 
L 604.7225 114.234531 
" style="fill: none; stroke: #607d8b; stroke-opacity: 0.65; stroke-width: 1.5; stroke-linecap: square"/>
    </g>
    <g id="text_23">
     <!-- VORP -->
     <g transform="translate(611.1225 117.034531) scale(0.08 -0.08)">
      <defs>
       <path id="DejaVuSans-56" d="M 1831 0 
L 50 4666 
L 709 4666 
L 2188 738 
L 3669 4666 
L 4325 4666 
L 2547 0 
L 1831 0 
z
" transform="scale(0.015625)"/>
      </defs>
      <use xlink:href="#DejaVuSans-56"/>
      <use xlink:href="#DejaVuSans-4f" transform="translate(66.658203 0)"/>
      <use xlink:href="#DejaVuSans-52" transform="translate(145.369141 0)"/>
      <use xlink:href="#DejaVuSans-50" transform="translate(214.851562 0)"/>
     </g>
    </g>
    <g id="line2d_44">
     <path d="M 675.885 32.037031 
L 683.885 32.037031 
L 691.885 32.037031 
" style="fill: none; stroke: #2196f3; stroke-opacity: 0.65; stroke-width: 1.5; stroke-linecap: square"/>
    </g>
    <g id="text_24">
     <!-- RAPM -->
     <g transform="translate(698.285 34.837031) scale(0.08 -0.08)">
      <defs>
       <path id="DejaVuSans-41" d="M 2188 4044 
L 1331 1722 
L 3047 1722 
L 2188 4044 
z
M 1831 4666 
L 2547 4666 
L 4325 0 
L 3669 0 
L 3244 1197 
L 1141 1197 
L 716 0 
L 50 0 
L 1831 4666 
z
" transform="scale(0.015625)"/>
      </defs>
      <use xlink:href="#DejaVuSans-52"/>
      <use xlink:href="#DejaVuSans-41" transform="translate(65.482422 0)"/>
      <use xlink:href="#DejaVuSans-50" transform="translate(133.890625 0)"/>
      <use xlink:href="#DejaVuSans-4d" transform="translate(194.193359 0)"/>
     </g>
    </g>
    <g id="line2d_45">
     <path d="M 675.885 43.779531 
L 683.885 43.779531 
L 691.885 43.779531 
" style="fill: none; stroke: #f44336; stroke-opacity: 0.65; stroke-width: 1.5; stroke-linecap: square"/>
    </g>
    <g id="text_25">
     <!-- O-RAPM -->
     <g transform="translate(698.285 46.579531) scale(0.08 -0.08)">
      <use xlink:href="#DejaVuSans-4f"/>
      <use xlink:href="#DejaVuSans-2d" transform="translate(81.460938 0)"/>
      <use xlink:href="#DejaVuSans-52" transform="translate(117.544922 0)"/>
      <use xlink:href="#DejaVuSans-41" transform="translate(183.027344 0)"/>
      <use xlink:href="#DejaVuSans-50" transform="translate(251.435547 0)"/>
      <use xlink:href="#DejaVuSans-4d" transform="translate(311.738281 0)"/>
     </g>
    </g>
    <g id="line2d_46">
     <path d="M 675.885 55.522031 
L 683.885 55.522031 
L 691.885 55.522031 
" style="fill: none; stroke: #4caf50; stroke-opacity: 0.65; stroke-width: 1.5; stroke-linecap: square"/>
    </g>
    <g id="text_26">
     <!-- D-RAPM -->
     <g transform="translate(698.285 58.322031) scale(0.08 -0.08)">
      <use xlink:href="#DejaVuSans-44"/>
      <use xlink:href="#DejaVuSans-2d" transform="translate(77.001953 0)"/>
      <use xlink:href="#DejaVuSans-52" transform="translate(113.085938 0)"/>
      <use xlink:href="#DejaVuSans-41" transform="translate(178.568359 0)"/>
      <use xlink:href="#DejaVuSans-50" transform="translate(246.976562 0)"/>
      <use xlink:href="#DejaVuSans-4d" transform="translate(307.279297 0)"/>
     </g>
    </g>
    <g id="line2d_47">
     <path d="M 675.885 67.264531 
L 683.885 67.264531 
L 691.885 67.264531 
" style="fill: none; stroke: #ff9800; stroke-opacity: 0.65; stroke-width: 1.5; stroke-linecap: square"/>
    </g>
    <g id="text_27">
     <!-- RAPM+prior -->
     <g transform="translate(698.285 70.064531) scale(0.08 -0.08)">
      <defs>
       <path id="DejaVuSans-2b" d="M 2944 4013 
L 2944 2272 
L 4684 2272 
L 4684 1741 
L 2944 1741 
L 2944 0 
L 2419 0 
L 2419 1741 
L 678 1741 
L 678 2272 
L 2419 2272 
L 2419 4013 
L 2944 4013 
z
" transform="scale(0.015625)"/>
      </defs>
      <use xlink:href="#DejaVuSans-52"/>
      <use xlink:href="#DejaVuSans-41" transform="translate(65.482422 0)"/>
      <use xlink:href="#DejaVuSans-50" transform="translate(133.890625 0)"/>
      <use xlink:href="#DejaVuSans-4d" transform="translate(194.193359 0)"/>
      <use xlink:href="#DejaVuSans-2b" transform="translate(280.472656 0)"/>
      <use xlink:href="#DejaVuSans-70" transform="translate(364.261719 0)"/>
      <use xlink:href="#DejaVuSans-72" transform="translate(427.738281 0)"/>
      <use xlink:href="#DejaVuSans-69" transform="translate(468.851562 0)"/>
      <use xlink:href="#DejaVuSans-6f" transform="translate(496.634766 0)"/>
      <use xlink:href="#DejaVuSans-72" transform="translate(557.816406 0)"/>
     </g>
    </g>
    <g id="line2d_48">
     <path d="M 675.885 79.007031 
L 683.885 79.007031 
L 691.885 79.007031 
" style="fill: none; stroke: #9c27b0; stroke-opacity: 0.65; stroke-width: 1.5; stroke-linecap: square"/>
    </g>
    <g id="text_28">
     <!-- O-RAPM+prior -->
     <g transform="translate(698.285 81.807031) scale(0.08 -0.08)">
      <use xlink:href="#DejaVuSans-4f"/>
      <use xlink:href="#DejaVuSans-2d" transform="translate(81.460938 0)"/>
      <use xlink:href="#DejaVuSans-52" transform="translate(117.544922 0)"/>
      <use xlink:href="#DejaVuSans-41" transform="translate(183.027344 0)"/>
      <use xlink:href="#DejaVuSans-50" transform="translate(251.435547 0)"/>
      <use xlink:href="#DejaVuSans-4d" transform="translate(311.738281 0)"/>
      <use xlink:href="#DejaVuSans-2b" transform="translate(398.017578 0)"/>
      <use xlink:href="#DejaVuSans-70" transform="translate(481.806641 0)"/>
      <use xlink:href="#DejaVuSans-72" transform="translate(545.283203 0)"/>
      <use xlink:href="#DejaVuSans-69" transform="translate(586.396484 0)"/>
      <use xlink:href="#DejaVuSans-6f" transform="translate(614.179688 0)"/>
      <use xlink:href="#DejaVuSans-72" transform="translate(675.361328 0)"/>
     </g>
    </g>
    <g id="line2d_49">
     <path d="M 675.885 90.749531 
L 683.885 90.749531 
L 691.885 90.749531 
" style="fill: none; stroke: #00bcd4; stroke-opacity: 0.65; stroke-width: 1.5; stroke-linecap: square"/>
    </g>
    <g id="text_29">
     <!-- D-RAPM+prior -->
     <g transform="translate(698.285 93.549531) scale(0.08 -0.08)">
      <use xlink:href="#DejaVuSans-44"/>
      <use xlink:href="#DejaVuSans-2d" transform="translate(77.001953 0)"/>
      <use xlink:href="#DejaVuSans-52" transform="translate(113.085938 0)"/>
      <use xlink:href="#DejaVuSans-41" transform="translate(178.568359 0)"/>
      <use xlink:href="#DejaVuSans-50" transform="translate(246.976562 0)"/>
      <use xlink:href="#DejaVuSans-4d" transform="translate(307.279297 0)"/>
      <use xlink:href="#DejaVuSans-2b" transform="translate(393.558594 0)"/>
      <use xlink:href="#DejaVuSans-70" transform="translate(477.347656 0)"/>
      <use xlink:href="#DejaVuSans-72" transform="translate(540.824219 0)"/>
      <use xlink:href="#DejaVuSans-69" transform="translate(581.9375 0)"/>
      <use xlink:href="#DejaVuSans-6f" transform="translate(609.720703 0)"/>
      <use xlink:href="#DejaVuSans-72" transform="translate(670.902344 0)"/>
     </g>
    </g>
    <g id="line2d_50">
     <path d="M 675.885 102.492031 
L 683.885 102.492031 
L 691.885 102.492031 
" style="fill: none; stroke: #111111; stroke-width: 2.5; stroke-linecap: square"/>
    </g>
    <g id="text_30">
     <!-- Consensus Rating -->
     <g transform="translate(698.285 105.292031) scale(0.08 -0.08)">
      <defs>
       <path id="DejaVuSans-43" d="M 4122 4306 
L 4122 3641 
Q 3803 3938 3442 4084 
Q 3081 4231 2675 4231 
Q 1875 4231 1450 3742 
Q 1025 3253 1025 2328 
Q 1025 1406 1450 917 
Q 1875 428 2675 428 
Q 3081 428 3442 575 
Q 3803 722 4122 1019 
L 4122 359 
Q 3791 134 3420 21 
Q 3050 -91 2638 -91 
Q 1578 -91 968 557 
Q 359 1206 359 2328 
Q 359 3453 968 4101 
Q 1578 4750 2638 4750 
Q 3056 4750 3426 4639 
Q 3797 4528 4122 4306 
z
" transform="scale(0.015625)"/>
       <path id="DejaVuSans-67" d="M 2906 1791 
Q 2906 2416 2648 2759 
Q 2391 3103 1925 3103 
Q 1463 3103 1205 2759 
Q 947 2416 947 1791 
Q 947 1169 1205 825 
Q 1463 481 1925 481 
Q 2391 481 2648 825 
Q 2906 1169 2906 1791 
z
M 3481 434 
Q 3481 -459 3084 -895 
Q 2688 -1331 1869 -1331 
Q 1566 -1331 1297 -1286 
Q 1028 -1241 775 -1147 
L 775 -588 
Q 1028 -725 1275 -790 
Q 1522 -856 1778 -856 
Q 2344 -856 2625 -561 
Q 2906 -266 2906 331 
L 2906 616 
Q 2728 306 2450 153 
Q 2172 0 1784 0 
Q 1141 0 747 490 
Q 353 981 353 1791 
Q 353 2603 747 3093 
Q 1141 3584 1784 3584 
Q 2172 3584 2450 3431 
Q 2728 3278 2906 2969 
L 2906 3500 
L 3481 3500 
L 3481 434 
z
" transform="scale(0.015625)"/>
      </defs>
      <use xlink:href="#DejaVuSans-43"/>
      <use xlink:href="#DejaVuSans-6f" transform="translate(69.824219 0)"/>
      <use xlink:href="#DejaVuSans-6e" transform="translate(131.005859 0)"/>
      <use xlink:href="#DejaVuSans-73" transform="translate(194.384766 0)"/>
      <use xlink:href="#DejaVuSans-65" transform="translate(246.484375 0)"/>
      <use xlink:href="#DejaVuSans-6e" transform="translate(308.007812 0)"/>
      <use xlink:href="#DejaVuSans-73" transform="translate(371.386719 0)"/>
      <use xlink:href="#DejaVuSans-75" transform="translate(423.486328 0)"/>
      <use xlink:href="#DejaVuSans-73" transform="translate(486.865234 0)"/>
      <use xlink:href="#DejaVuSans-20" transform="translate(538.964844 0)"/>
      <use xlink:href="#DejaVuSans-52" transform="translate(570.751953 0)"/>
      <use xlink:href="#DejaVuSans-61" transform="translate(637.984375 0)"/>
      <use xlink:href="#DejaVuSans-74" transform="translate(699.263672 0)"/>
      <use xlink:href="#DejaVuSans-69" transform="translate(738.472656 0)"/>
      <use xlink:href="#DejaVuSans-6e" transform="translate(766.255859 0)"/>
      <use xlink:href="#DejaVuSans-67" transform="translate(829.634766 0)"/>
     </g>
    </g>
    <g id="line2d_51">
     <path d="M 675.885 114.234531 
L 683.885 114.234531 
L 691.885 114.234531 
" style="fill: none; stroke: #e67e22; stroke-width: 2.5; stroke-linecap: square"/>
    </g>
    <g id="text_31">
     <!-- Wins-Predictive -->
     <g transform="translate(698.285 117.034531) scale(0.08 -0.08)">
      <use xlink:href="#DejaVuSans-57"/>
      <use xlink:href="#DejaVuSans-69" transform="translate(96.626953 0)"/>
      <use xlink:href="#DejaVuSans-6e" transform="translate(124.410156 0)"/>
      <use xlink:href="#DejaVuSans-73" transform="translate(187.789062 0)"/>
      <use xlink:href="#DejaVuSans-2d" transform="translate(239.888672 0)"/>
      <use xlink:href="#DejaVuSans-50" transform="translate(275.972656 0)"/>
      <use xlink:href="#DejaVuSans-72" transform="translate(334.525391 0)"/>
      <use xlink:href="#DejaVuSans-65" transform="translate(373.388672 0)"/>
      <use xlink:href="#DejaVuSans-64" transform="translate(434.912109 0)"/>
      <use xlink:href="#DejaVuSans-69" transform="translate(498.388672 0)"/>
      <use xlink:href="#DejaVuSans-63" transform="translate(526.171875 0)"/>
      <use xlink:href="#DejaVuSans-74" transform="translate(581.152344 0)"/>
      <use xlink:href="#DejaVuSans-69" transform="translate(620.361328 0)"/>
      <use xlink:href="#DejaVuSans-76" transform="translate(648.144531 0)"/>
      <use xlink:href="#DejaVuSans-65" transform="translate(707.324219 0)"/>
     </g>
    </g>
   </g>
  </g>
 </g>
 <defs>
  <clipPath id="p06f68bfcd1">
   <rect x="41.6525" y="21.558281" width="735.28" height="365.32"/>
  </clipPath>
 </defs>
</svg>
