<?xml version="1.0" encoding="utf-8" standalone="no"?>
<!DOCTYPE svg PUBLIC "-//W3C//DTD SVG 1.1//EN"
  "http://www.w3.org/Graphics/SVG/1.1/DTD/svg11.dtd">
<svg xmlns:xlink="http://www.w3.org/1999/xlink" width="784.1325pt" height="423.466719pt" viewBox="0 0 784.1325 423.466719" xmlns="http://www.w3.org/2000/svg" version="1.1">
 <metadata>
  <rdf:RDF xmlns:dc="http://purl.org/dc/elements/1.1/" xmlns:cc="http://creativecommons.org/ns#" xmlns:rdf="http://www.w3.org/1999/02/22-rdf-syntax-ns#">
   <cc:Work>
    <dc:type rdf:resource="http://purl.org/dc/dcmitype/StillImage"/>
    <dc:date>2026-07-01T13:26:30.520557</dc:date>
    <dc:format>image/svg+xml</dc:format>
    <dc:creator>
     <cc:Agent>
      <dc:title>Matplotlib v3.10.9, https://matplotlib.org/</dc:title>
     </cc:Agent>
    </dc:creator>
   </cc:Work>
  </rdf:RDF>
 </metadata>
 <defs>
  <style type="text/css">*{stroke-linejoin: round; stroke-linecap: butt}</style>
 </defs>
 <g id="figure_1">
  <g id="patch_1">
   <path d="M 0 423.466719 
L 784.1325 423.466719 
L 784.1325 0 
L 0 0 
z
" style="fill: #f9f9f7"/>
  </g>
  <g id="axes_1">
   <g id="patch_2">
    <path d="M 41.6525 386.878281 
L 776.9325 386.878281 
L 776.9325 21.558281 
L 41.6525 21.558281 
z
" style="fill: #ffffff"/>
   </g>
   <g id="matplotlib.axis_1">
    <g id="xtick_1">
     <g id="line2d_1">
      <defs>
       <path id="md6b6043068" d="M 0 0 
L 0 3.5 
" style="stroke: #000000; stroke-width: 0.8"/>
      </defs>
      <g>
       <use xlink:href="#md6b6043068" x="61.43276" y="386.878281" style="stroke: #000000; stroke-width: 0.8"/>
      </g>
     </g>
     <g id="text_1">
      <!-- 0 -->
      <g transform="translate(58.25151 401.476719) scale(0.1 -0.1)">
       <defs>
        <path id="DejaVuSans-30" d="M 2034 4250 
Q 1547 4250 1301 3770 
Q 1056 3291 1056 2328 
Q 1056 1369 1301 889 
Q 1547 409 2034 409 
Q 2525 409 2770 889 
Q 3016 1369 3016 2328 
Q 3016 3291 2770 3770 
Q 2525 4250 2034 4250 
z
M 2034 4750 
Q 2819 4750 3233 4129 
Q 3647 3509 3647 2328 
Q 3647 1150 3233 529 
Q 2819 -91 2034 -91 
Q 1250 -91 836 529 
Q 422 1150 422 2328 
Q 422 3509 836 4129 
Q 1250 4750 2034 4750 
z
" transform="scale(0.015625)"/>
       </defs>
       <use xlink:href="#DejaVuSans-30"/>
      </g>
     </g>
    </g>
    <g id="xtick_2">
     <g id="line2d_2">
      <g>
       <use xlink:href="#md6b6043068" x="197.848344" y="386.878281" style="stroke: #000000; stroke-width: 0.8"/>
      </g>
     </g>
     <g id="text_2">
      <!-- 10 -->
      <g transform="translate(191.485844 401.476719) scale(0.1 -0.1)">
       <defs>
        <path id="DejaVuSans-31" d="M 794 531 
L 1825 531 
L 1825 4091 
L 703 3866 
L 703 4441 
L 1819 4666 
L 2450 4666 
L 2450 531 
L 3481 531 
L 3481 0 
L 794 0 
L 794 531 
z
" transform="scale(0.015625)"/>
       </defs>
       <use xlink:href="#DejaVuSans-31"/>
       <use xlink:href="#DejaVuSans-30" transform="translate(63.623047 0)"/>
      </g>
     </g>
    </g>
    <g id="xtick_3">
     <g id="line2d_3">
      <g>
       <use xlink:href="#md6b6043068" x="334.263929" y="386.878281" style="stroke: #000000; stroke-width: 0.8"/>
      </g>
     </g>
     <g id="text_3">
      <!-- 20 -->
      <g transform="translate(327.901429 401.476719) scale(0.1 -0.1)">
       <defs>
        <path id="DejaVuSans-32" d="M 1228 531 
L 3431 531 
L 3431 0 
L 469 0 
L 469 531 
Q 828 903 1448 1529 
Q 2069 2156 2228 2338 
Q 2531 2678 2651 2914 
Q 2772 3150 2772 3378 
Q 2772 3750 2511 3984 
Q 2250 4219 1831 4219 
Q 1534 4219 1204 4116 
Q 875 4013 500 3803 
L 500 4441 
Q 881 4594 1212 4672 
Q 1544 4750 1819 4750 
Q 2544 4750 2975 4387 
Q 3406 4025 3406 3419 
Q 3406 3131 3298 2873 
Q 3191 2616 2906 2266 
Q 2828 2175 2409 1742 
Q 1991 1309 1228 531 
z
" transform="scale(0.015625)"/>
       </defs>
       <use xlink:href="#DejaVuSans-32"/>
       <use xlink:href="#DejaVuSans-30" transform="translate(63.623047 0)"/>
      </g>
     </g>
    </g>
    <g id="xtick_4">
     <g id="line2d_4">
      <g>
       <use xlink:href="#md6b6043068" x="470.679513" y="386.878281" style="stroke: #000000; stroke-width: 0.8"/>
      </g>
     </g>
     <g id="text_4">
      <!-- 30 -->
      <g transform="translate(464.317013 401.476719) scale(0.1 -0.1)">
       <defs>
        <path id="DejaVuSans-33" d="M 2597 2516 
Q 3050 2419 3304 2112 
Q 3559 1806 3559 1356 
Q 3559 666 3084 287 
Q 2609 -91 1734 -91 
Q 1441 -91 1130 -33 
Q 819 25 488 141 
L 488 750 
Q 750 597 1062 519 
Q 1375 441 1716 441 
Q 2309 441 2620 675 
Q 2931 909 2931 1356 
Q 2931 1769 2642 2001 
Q 2353 2234 1838 2234 
L 1294 2234 
L 1294 2753 
L 1863 2753 
Q 2328 2753 2575 2939 
Q 2822 3125 2822 3475 
Q 2822 3834 2567 4026 
Q 2313 4219 1838 4219 
Q 1578 4219 1281 4162 
Q 984 4106 628 3988 
L 628 4550 
Q 988 4650 1302 4700 
Q 1616 4750 1894 4750 
Q 2613 4750 3031 4423 
Q 3450 4097 3450 3541 
Q 3450 3153 3228 2886 
Q 3006 2619 2597 2516 
z
" transform="scale(0.015625)"/>
       </defs>
       <use xlink:href="#DejaVuSans-33"/>
       <use xlink:href="#DejaVuSans-30" transform="translate(63.623047 0)"/>
      </g>
     </g>
    </g>
    <g id="xtick_5">
     <g id="line2d_5">
      <g>
       <use xlink:href="#md6b6043068" x="607.095097" y="386.878281" style="stroke: #000000; stroke-width: 0.8"/>
      </g>
     </g>
     <g id="text_5">
      <!-- 40 -->
      <g transform="translate(600.732597 401.476719) scale(0.1 -0.1)">
       <defs>
        <path id="DejaVuSans-34" d="M 2419 4116 
L 825 1625 
L 2419 1625 
L 2419 4116 
z
M 2253 4666 
L 3047 4666 
L 3047 1625 
L 3713 1625 
L 3713 1100 
L 3047 1100 
L 3047 0 
L 2419 0 
L 2419 1100 
L 313 1100 
L 313 1709 
L 2253 4666 
z
" transform="scale(0.015625)"/>
       </defs>
       <use xlink:href="#DejaVuSans-34"/>
       <use xlink:href="#DejaVuSans-30" transform="translate(63.623047 0)"/>
      </g>
     </g>
    </g>
    <g id="xtick_6">
     <g id="line2d_6">
      <g>
       <use xlink:href="#md6b6043068" x="743.510682" y="386.878281" style="stroke: #000000; stroke-width: 0.8"/>
      </g>
     </g>
     <g id="text_6">
      <!-- 50 -->
      <g transform="translate(737.148182 401.476719) scale(0.1 -0.1)">
       <defs>
        <path id="DejaVuSans-35" d="M 691 4666 
L 3169 4666 
L 3169 4134 
L 1269 4134 
L 1269 2991 
Q 1406 3038 1543 3061 
Q 1681 3084 1819 3084 
Q 2600 3084 3056 2656 
Q 3513 2228 3513 1497 
Q 3513 744 3044 326 
Q 2575 -91 1722 -91 
Q 1428 -91 1123 -41 
Q 819 9 494 109 
L 494 744 
Q 775 591 1075 516 
Q 1375 441 1709 441 
Q 2250 441 2565 725 
Q 2881 1009 2881 1497 
Q 2881 1984 2565 2268 
Q 2250 2553 1709 2553 
Q 1456 2553 1204 2497 
Q 953 2441 691 2322 
L 691 4666 
z
" transform="scale(0.015625)"/>
       </defs>
       <use xlink:href="#DejaVuSans-35"/>
       <use xlink:href="#DejaVuSans-30" transform="translate(63.623047 0)"/>
      </g>
     </g>
    </g>
    <g id="text_7">
     <!-- Player rank (top 50 by each system) -->
     <g style="fill: #888780" transform="translate(327.389687 414.395) scale(0.09 -0.09)">
      <defs>
       <path id="DejaVuSans-50" d="M 1259 4147 
L 1259 2394 
L 2053 2394 
Q 2494 2394 2734 2622 
Q 2975 2850 2975 3272 
Q 2975 3691 2734 3919 
Q 2494 4147 2053 4147 
L 1259 4147 
z
M 628 4666 
L 2053 4666 
Q 2838 4666 3239 4311 
Q 3641 3956 3641 3272 
Q 3641 2581 3239 2228 
Q 2838 1875 2053 1875 
L 1259 1875 
L 1259 0 
L 628 0 
L 628 4666 
z
" transform="scale(0.015625)"/>
       <path id="DejaVuSans-6c" d="M 603 4863 
L 1178 4863 
L 1178 0 
L 603 0 
L 603 4863 
z
" transform="scale(0.015625)"/>
       <path id="DejaVuSans-61" d="M 2194 1759 
Q 1497 1759 1228 1600 
Q 959 1441 959 1056 
Q 959 750 1161 570 
Q 1363 391 1709 391 
Q 2188 391 2477 730 
Q 2766 1069 2766 1631 
L 2766 1759 
L 2194 1759 
z
M 3341 1997 
L 3341 0 
L 2766 0 
L 2766 531 
Q 2569 213 2275 61 
Q 1981 -91 1556 -91 
Q 1019 -91 701 211 
Q 384 513 384 1019 
Q 384 1609 779 1909 
Q 1175 2209 1959 2209 
L 2766 2209 
L 2766 2266 
Q 2766 2663 2505 2880 
Q 2244 3097 1772 3097 
Q 1472 3097 1187 3025 
Q 903 2953 641 2809 
L 641 3341 
Q 956 3463 1253 3523 
Q 1550 3584 1831 3584 
Q 2591 3584 2966 3190 
Q 3341 2797 3341 1997 
z
" transform="scale(0.015625)"/>
       <path id="DejaVuSans-79" d="M 2059 -325 
Q 1816 -950 1584 -1140 
Q 1353 -1331 966 -1331 
L 506 -1331 
L 506 -850 
L 844 -850 
Q 1081 -850 1212 -737 
Q 1344 -625 1503 -206 
L 1606 56 
L 191 3500 
L 800 3500 
L 1894 763 
L 2988 3500 
L 3597 3500 
L 2059 -325 
z
" transform="scale(0.015625)"/>
       <path id="DejaVuSans-65" d="M 3597 1894 
L 3597 1613 
L 953 1613 
Q 991 1019 1311 708 
Q 1631 397 2203 397 
Q 2534 397 2845 478 
Q 3156 559 3463 722 
L 3463 178 
Q 3153 47 2828 -22 
Q 2503 -91 2169 -91 
Q 1331 -91 842 396 
Q 353 884 353 1716 
Q 353 2575 817 3079 
Q 1281 3584 2069 3584 
Q 2775 3584 3186 3129 
Q 3597 2675 3597 1894 
z
M 3022 2063 
Q 3016 2534 2758 2815 
Q 2500 3097 2075 3097 
Q 1594 3097 1305 2825 
Q 1016 2553 972 2059 
L 3022 2063 
z
" transform="scale(0.015625)"/>
       <path id="DejaVuSans-72" d="M 2631 2963 
Q 2534 3019 2420 3045 
Q 2306 3072 2169 3072 
Q 1681 3072 1420 2755 
Q 1159 2438 1159 1844 
L 1159 0 
L 581 0 
L 581 3500 
L 1159 3500 
L 1159 2956 
Q 1341 3275 1631 3429 
Q 1922 3584 2338 3584 
Q 2397 3584 2469 3576 
Q 2541 3569 2628 3553 
L 2631 2963 
z
" transform="scale(0.015625)"/>
       <path id="DejaVuSans-20" transform="scale(0.015625)"/>
       <path id="DejaVuSans-6e" d="M 3513 2113 
L 3513 0 
L 2938 0 
L 2938 2094 
Q 2938 2591 2744 2837 
Q 2550 3084 2163 3084 
Q 1697 3084 1428 2787 
Q 1159 2491 1159 1978 
L 1159 0 
L 581 0 
L 581 3500 
L 1159 3500 
L 1159 2956 
Q 1366 3272 1645 3428 
Q 1925 3584 2291 3584 
Q 2894 3584 3203 3211 
Q 3513 2838 3513 2113 
z
" transform="scale(0.015625)"/>
       <path id="DejaVuSans-6b" d="M 581 4863 
L 1159 4863 
L 1159 1991 
L 2875 3500 
L 3609 3500 
L 1753 1863 
L 3688 0 
L 2938 0 
L 1159 1709 
L 1159 0 
L 581 0 
L 581 4863 
z
" transform="scale(0.015625)"/>
       <path id="DejaVuSans-28" d="M 1984 4856 
Q 1566 4138 1362 3434 
Q 1159 2731 1159 2009 
Q 1159 1288 1364 580 
Q 1569 -128 1984 -844 
L 1484 -844 
Q 1016 -109 783 600 
Q 550 1309 550 2009 
Q 550 2706 781 3412 
Q 1013 4119 1484 4856 
L 1984 4856 
z
" transform="scale(0.015625)"/>
       <path id="DejaVuSans-74" d="M 1172 4494 
L 1172 3500 
L 2356 3500 
L 2356 3053 
L 1172 3053 
L 1172 1153 
Q 1172 725 1289 603 
Q 1406 481 1766 481 
L 2356 481 
L 2356 0 
L 1766 0 
Q 1100 0 847 248 
Q 594 497 594 1153 
L 594 3053 
L 172 3053 
L 172 3500 
L 594 3500 
L 594 4494 
L 1172 4494 
z
" transform="scale(0.015625)"/>
       <path id="DejaVuSans-6f" d="M 1959 3097 
Q 1497 3097 1228 2736 
Q 959 2375 959 1747 
Q 959 1119 1226 758 
Q 1494 397 1959 397 
Q 2419 397 2687 759 
Q 2956 1122 2956 1747 
Q 2956 2369 2687 2733 
Q 2419 3097 1959 3097 
z
M 1959 3584 
Q 2709 3584 3137 3096 
Q 3566 2609 3566 1747 
Q 3566 888 3137 398 
Q 2709 -91 1959 -91 
Q 1206 -91 779 398 
Q 353 888 353 1747 
Q 353 2609 779 3096 
Q 1206 3584 1959 3584 
z
" transform="scale(0.015625)"/>
       <path id="DejaVuSans-70" d="M 1159 525 
L 1159 -1331 
L 581 -1331 
L 581 3500 
L 1159 3500 
L 1159 2969 
Q 1341 3281 1617 3432 
Q 1894 3584 2278 3584 
Q 2916 3584 3314 3078 
Q 3713 2572 3713 1747 
Q 3713 922 3314 415 
Q 2916 -91 2278 -91 
Q 1894 -91 1617 61 
Q 1341 213 1159 525 
z
M 3116 1747 
Q 3116 2381 2855 2742 
Q 2594 3103 2138 3103 
Q 1681 3103 1420 2742 
Q 1159 2381 1159 1747 
Q 1159 1113 1420 752 
Q 1681 391 2138 391 
Q 2594 391 2855 752 
Q 3116 1113 3116 1747 
z
" transform="scale(0.015625)"/>
       <path id="DejaVuSans-62" d="M 3116 1747 
Q 3116 2381 2855 2742 
Q 2594 3103 2138 3103 
Q 1681 3103 1420 2742 
Q 1159 2381 1159 1747 
Q 1159 1113 1420 752 
Q 1681 391 2138 391 
Q 2594 391 2855 752 
Q 3116 1113 3116 1747 
z
M 1159 2969 
Q 1341 3281 1617 3432 
Q 1894 3584 2278 3584 
Q 2916 3584 3314 3078 
Q 3713 2572 3713 1747 
Q 3713 922 3314 415 
Q 2916 -91 2278 -91 
Q 1894 -91 1617 61 
Q 1341 213 1159 525 
L 1159 0 
L 581 0 
L 581 4863 
L 1159 4863 
L 1159 2969 
z
" transform="scale(0.015625)"/>
       <path id="DejaVuSans-63" d="M 3122 3366 
L 3122 2828 
Q 2878 2963 2633 3030 
Q 2388 3097 2138 3097 
Q 1578 3097 1268 2742 
Q 959 2388 959 1747 
Q 959 1106 1268 751 
Q 1578 397 2138 397 
Q 2388 397 2633 464 
Q 2878 531 3122 666 
L 3122 134 
Q 2881 22 2623 -34 
Q 2366 -91 2075 -91 
Q 1284 -91 818 406 
Q 353 903 353 1747 
Q 353 2603 823 3093 
Q 1294 3584 2113 3584 
Q 2378 3584 2631 3529 
Q 2884 3475 3122 3366 
z
" transform="scale(0.015625)"/>
       <path id="DejaVuSans-68" d="M 3513 2113 
L 3513 0 
L 2938 0 
L 2938 2094 
Q 2938 2591 2744 2837 
Q 2550 3084 2163 3084 
Q 1697 3084 1428 2787 
Q 1159 2491 1159 1978 
L 1159 0 
L 581 0 
L 581 4863 
L 1159 4863 
L 1159 2956 
Q 1366 3272 1645 3428 
Q 1925 3584 2291 3584 
Q 2894 3584 3203 3211 
Q 3513 2838 3513 2113 
z
" transform="scale(0.015625)"/>
       <path id="DejaVuSans-73" d="M 2834 3397 
L 2834 2853 
Q 2591 2978 2328 3040 
Q 2066 3103 1784 3103 
Q 1356 3103 1142 2972 
Q 928 2841 928 2578 
Q 928 2378 1081 2264 
Q 1234 2150 1697 2047 
L 1894 2003 
Q 2506 1872 2764 1633 
Q 3022 1394 3022 966 
Q 3022 478 2636 193 
Q 2250 -91 1575 -91 
Q 1294 -91 989 -36 
Q 684 19 347 128 
L 347 722 
Q 666 556 975 473 
Q 1284 391 1588 391 
Q 1994 391 2212 530 
Q 2431 669 2431 922 
Q 2431 1156 2273 1281 
Q 2116 1406 1581 1522 
L 1381 1569 
Q 847 1681 609 1914 
Q 372 2147 372 2553 
Q 372 3047 722 3315 
Q 1072 3584 1716 3584 
Q 2034 3584 2315 3537 
Q 2597 3491 2834 3397 
z
" transform="scale(0.015625)"/>
       <path id="DejaVuSans-6d" d="M 3328 2828 
Q 3544 3216 3844 3400 
Q 4144 3584 4550 3584 
Q 5097 3584 5394 3201 
Q 5691 2819 5691 2113 
L 5691 0 
L 5113 0 
L 5113 2094 
Q 5113 2597 4934 2840 
Q 4756 3084 4391 3084 
Q 3944 3084 3684 2787 
Q 3425 2491 3425 1978 
L 3425 0 
L 2847 0 
L 2847 2094 
Q 2847 2600 2669 2842 
Q 2491 3084 2119 3084 
Q 1678 3084 1418 2786 
Q 1159 2488 1159 1978 
L 1159 0 
L 581 0 
L 581 3500 
L 1159 3500 
L 1159 2956 
Q 1356 3278 1631 3431 
Q 1906 3584 2284 3584 
Q 2666 3584 2933 3390 
Q 3200 3197 3328 2828 
z
" transform="scale(0.015625)"/>
       <path id="DejaVuSans-29" d="M 513 4856 
L 1013 4856 
Q 1481 4119 1714 3412 
Q 1947 2706 1947 2009 
Q 1947 1309 1714 600 
Q 1481 -109 1013 -844 
L 513 -844 
Q 928 -128 1133 580 
Q 1338 1288 1338 2009 
Q 1338 2731 1133 3434 
Q 928 4138 513 4856 
z
" transform="scale(0.015625)"/>
      </defs>
      <use xlink:href="#DejaVuSans-50"/>
      <use xlink:href="#DejaVuSans-6c" transform="translate(60.302734 0)"/>
      <use xlink:href="#DejaVuSans-61" transform="translate(88.085938 0)"/>
      <use xlink:href="#DejaVuSans-79" transform="translate(149.365234 0)"/>
      <use xlink:href="#DejaVuSans-65" transform="translate(208.544922 0)"/>
      <use xlink:href="#DejaVuSans-72" transform="translate(270.068359 0)"/>
      <use xlink:href="#DejaVuSans-20" transform="translate(311.181641 0)"/>
      <use xlink:href="#DejaVuSans-72" transform="translate(342.96875 0)"/>
      <use xlink:href="#DejaVuSans-61" transform="translate(384.082031 0)"/>
      <use xlink:href="#DejaVuSans-6e" transform="translate(445.361328 0)"/>
      <use xlink:href="#DejaVuSans-6b" transform="translate(508.740234 0)"/>
      <use xlink:href="#DejaVuSans-20" transform="translate(566.650391 0)"/>
      <use xlink:href="#DejaVuSans-28" transform="translate(598.4375 0)"/>
      <use xlink:href="#DejaVuSans-74" transform="translate(637.451172 0)"/>
      <use xlink:href="#DejaVuSans-6f" transform="translate(676.660156 0)"/>
      <use xlink:href="#DejaVuSans-70" transform="translate(737.841797 0)"/>
      <use xlink:href="#DejaVuSans-20" transform="translate(801.318359 0)"/>
      <use xlink:href="#DejaVuSans-35" transform="translate(833.105469 0)"/>
      <use xlink:href="#DejaVuSans-30" transform="translate(896.728516 0)"/>
      <use xlink:href="#DejaVuSans-20" transform="translate(960.351562 0)"/>
      <use xlink:href="#DejaVuSans-62" transform="translate(992.138672 0)"/>
      <use xlink:href="#DejaVuSans-79" transform="translate(1055.615234 0)"/>
      <use xlink:href="#DejaVuSans-20" transform="translate(1114.794922 0)"/>
      <use xlink:href="#DejaVuSans-65" transform="translate(1146.582031 0)"/>
      <use xlink:href="#DejaVuSans-61" transform="translate(1208.105469 0)"/>
      <use xlink:href="#DejaVuSans-63" transform="translate(1269.384766 0)"/>
      <use xlink:href="#DejaVuSans-68" transform="translate(1324.365234 0)"/>
      <use xlink:href="#DejaVuSans-20" transform="translate(1387.744141 0)"/>
      <use xlink:href="#DejaVuSans-73" transform="translate(1419.53125 0)"/>
      <use xlink:href="#DejaVuSans-79" transform="translate(1471.630859 0)"/>
      <use xlink:href="#DejaVuSans-73" transform="translate(1530.810547 0)"/>
      <use xlink:href="#DejaVuSans-74" transform="translate(1582.910156 0)"/>
      <use xlink:href="#DejaVuSans-65" transform="translate(1622.119141 0)"/>
      <use xlink:href="#DejaVuSans-6d" transform="translate(1683.642578 0)"/>
      <use xlink:href="#DejaVuSans-29" transform="translate(1781.054688 0)"/>
     </g>
    </g>
   </g>
   <g id="matplotlib.axis_2">
    <g id="ytick_1">
     <g id="line2d_7">
      <path d="M 41.6525 356.63557 
L 776.9325 356.63557 
" clip-path="url(#p5bd4b19d01)" style="fill: none; stroke: #e0dfd8; stroke-width: 0.7; stroke-linecap: square"/>
     </g>
     <g id="line2d_8">
      <defs>
       <path id="ma598bebcae" d="M 0 0 
L -3.5 0 
" style="stroke: #000000; stroke-width: 0.8"/>
      </defs>
      <g>
       <use xlink:href="#ma598bebcae" x="41.6525" y="356.63557" style="stroke: #000000; stroke-width: 0.8"/>
      </g>
     </g>
     <g id="text_8">
      <!-- −1 -->
      <g transform="translate(19.910313 360.434789) scale(0.1 -0.1)">
       <defs>
        <path id="DejaVuSans-2212" d="M 678 2272 
L 4684 2272 
L 4684 1741 
L 678 1741 
L 678 2272 
z
" transform="scale(0.015625)"/>
       </defs>
       <use xlink:href="#DejaVuSans-2212"/>
       <use xlink:href="#DejaVuSans-31" transform="translate(83.789062 0)"/>
      </g>
     </g>
    </g>
    <g id="ytick_2">
     <g id="line2d_9">
      <path d="M 41.6525 295.690688 
L 776.9325 295.690688 
" clip-path="url(#p5bd4b19d01)" style="fill: none; stroke: #e0dfd8; stroke-width: 0.7; stroke-linecap: square"/>
     </g>
     <g id="line2d_10">
      <g>
       <use xlink:href="#ma598bebcae" x="41.6525" y="295.690688" style="stroke: #000000; stroke-width: 0.8"/>
      </g>
     </g>
     <g id="text_9">
      <!-- 0 -->
      <g transform="translate(28.29 299.489906) scale(0.1 -0.1)">
       <use xlink:href="#DejaVuSans-30"/>
      </g>
     </g>
    </g>
    <g id="ytick_3">
     <g id="line2d_11">
      <path d="M 41.6525 234.745805 
L 776.9325 234.745805 
" clip-path="url(#p5bd4b19d01)" style="fill: none; stroke: #e0dfd8; stroke-width: 0.7; stroke-linecap: square"/>
     </g>
     <g id="line2d_12">
      <g>
       <use xlink:href="#ma598bebcae" x="41.6525" y="234.745805" style="stroke: #000000; stroke-width: 0.8"/>
      </g>
     </g>
     <g id="text_10">
      <!-- 1 -->
      <g transform="translate(28.29 238.545024) scale(0.1 -0.1)">
       <use xlink:href="#DejaVuSans-31"/>
      </g>
     </g>
    </g>
    <g id="ytick_4">
     <g id="line2d_13">
      <path d="M 41.6525 173.800923 
L 776.9325 173.800923 
" clip-path="url(#p5bd4b19d01)" style="fill: none; stroke: #e0dfd8; stroke-width: 0.7; stroke-linecap: square"/>
     </g>
     <g id="line2d_14">
      <g>
       <use xlink:href="#ma598bebcae" x="41.6525" y="173.800923" style="stroke: #000000; stroke-width: 0.8"/>
      </g>
     </g>
     <g id="text_11">
      <!-- 2 -->
      <g transform="translate(28.29 177.600142) scale(0.1 -0.1)">
       <use xlink:href="#DejaVuSans-32"/>
      </g>
     </g>
    </g>
    <g id="ytick_5">
     <g id="line2d_15">
      <path d="M 41.6525 112.856041 
L 776.9325 112.856041 
" clip-path="url(#p5bd4b19d01)" style="fill: none; stroke: #e0dfd8; stroke-width: 0.7; stroke-linecap: square"/>
     </g>
     <g id="line2d_16">
      <g>
       <use xlink:href="#ma598bebcae" x="41.6525" y="112.856041" style="stroke: #000000; stroke-width: 0.8"/>
      </g>
     </g>
     <g id="text_12">
      <!-- 3 -->
      <g transform="translate(28.29 116.65526) scale(0.1 -0.1)">
       <use xlink:href="#DejaVuSans-33"/>
      </g>
     </g>
    </g>
    <g id="ytick_6">
     <g id="line2d_17">
      <path d="M 41.6525 51.911159 
L 776.9325 51.911159 
" clip-path="url(#p5bd4b19d01)" style="fill: none; stroke: #e0dfd8; stroke-width: 0.7; stroke-linecap: square"/>
     </g>
     <g id="line2d_18">
      <g>
       <use xlink:href="#ma598bebcae" x="41.6525" y="51.911159" style="stroke: #000000; stroke-width: 0.8"/>
      </g>
     </g>
     <g id="text_13">
      <!-- 4 -->
      <g transform="translate(28.29 55.710378) scale(0.1 -0.1)">
       <use xlink:href="#DejaVuSans-34"/>
      </g>
     </g>
    </g>
    <g id="text_14">
     <!-- Standard deviations above/below the qualified-player mean -->
     <g style="fill: #888780" transform="translate(14.038594 339.072031) rotate(-90) scale(0.09 -0.09)">
      <defs>
       <path id="DejaVuSans-53" d="M 3425 4513 
L 3425 3897 
Q 3066 4069 2747 4153 
Q 2428 4238 2131 4238 
Q 1616 4238 1336 4038 
Q 1056 3838 1056 3469 
Q 1056 3159 1242 3001 
Q 1428 2844 1947 2747 
L 2328 2669 
Q 3034 2534 3370 2195 
Q 3706 1856 3706 1288 
Q 3706 609 3251 259 
Q 2797 -91 1919 -91 
Q 1588 -91 1214 -16 
Q 841 59 441 206 
L 441 856 
Q 825 641 1194 531 
Q 1563 422 1919 422 
Q 2459 422 2753 634 
Q 3047 847 3047 1241 
Q 3047 1584 2836 1778 
Q 2625 1972 2144 2069 
L 1759 2144 
Q 1053 2284 737 2584 
Q 422 2884 422 3419 
Q 422 4038 858 4394 
Q 1294 4750 2059 4750 
Q 2388 4750 2728 4690 
Q 3069 4631 3425 4513 
z
" transform="scale(0.015625)"/>
       <path id="DejaVuSans-64" d="M 2906 2969 
L 2906 4863 
L 3481 4863 
L 3481 0 
L 2906 0 
L 2906 525 
Q 2725 213 2448 61 
Q 2172 -91 1784 -91 
Q 1150 -91 751 415 
Q 353 922 353 1747 
Q 353 2572 751 3078 
Q 1150 3584 1784 3584 
Q 2172 3584 2448 3432 
Q 2725 3281 2906 2969 
z
M 947 1747 
Q 947 1113 1208 752 
Q 1469 391 1925 391 
Q 2381 391 2643 752 
Q 2906 1113 2906 1747 
Q 2906 2381 2643 2742 
Q 2381 3103 1925 3103 
Q 1469 3103 1208 2742 
Q 947 2381 947 1747 
z
" transform="scale(0.015625)"/>
       <path id="DejaVuSans-76" d="M 191 3500 
L 800 3500 
L 1894 563 
L 2988 3500 
L 3597 3500 
L 2284 0 
L 1503 0 
L 191 3500 
z
" transform="scale(0.015625)"/>
       <path id="DejaVuSans-69" d="M 603 3500 
L 1178 3500 
L 1178 0 
L 603 0 
L 603 3500 
z
M 603 4863 
L 1178 4863 
L 1178 4134 
L 603 4134 
L 603 4863 
z
" transform="scale(0.015625)"/>
       <path id="DejaVuSans-2f" d="M 1625 4666 
L 2156 4666 
L 531 -594 
L 0 -594 
L 1625 4666 
z
" transform="scale(0.015625)"/>
       <path id="DejaVuSans-77" d="M 269 3500 
L 844 3500 
L 1563 769 
L 2278 3500 
L 2956 3500 
L 3675 769 
L 4391 3500 
L 4966 3500 
L 4050 0 
L 3372 0 
L 2619 2869 
L 1863 0 
L 1184 0 
L 269 3500 
z
" transform="scale(0.015625)"/>
       <path id="DejaVuSans-71" d="M 947 1747 
Q 947 1113 1208 752 
Q 1469 391 1925 391 
Q 2381 391 2643 752 
Q 2906 1113 2906 1747 
Q 2906 2381 2643 2742 
Q 2381 3103 1925 3103 
Q 1469 3103 1208 2742 
Q 947 2381 947 1747 
z
M 2906 525 
Q 2725 213 2448 61 
Q 2172 -91 1784 -91 
Q 1150 -91 751 415 
Q 353 922 353 1747 
Q 353 2572 751 3078 
Q 1150 3584 1784 3584 
Q 2172 3584 2448 3432 
Q 2725 3281 2906 2969 
L 2906 3500 
L 3481 3500 
L 3481 -1331 
L 2906 -1331 
L 2906 525 
z
" transform="scale(0.015625)"/>
       <path id="DejaVuSans-75" d="M 544 1381 
L 544 3500 
L 1119 3500 
L 1119 1403 
Q 1119 906 1312 657 
Q 1506 409 1894 409 
Q 2359 409 2629 706 
Q 2900 1003 2900 1516 
L 2900 3500 
L 3475 3500 
L 3475 0 
L 2900 0 
L 2900 538 
Q 2691 219 2414 64 
Q 2138 -91 1772 -91 
Q 1169 -91 856 284 
Q 544 659 544 1381 
z
M 1991 3584 
L 1991 3584 
z
" transform="scale(0.015625)"/>
       <path id="DejaVuSans-66" d="M 2375 4863 
L 2375 4384 
L 1825 4384 
Q 1516 4384 1395 4259 
Q 1275 4134 1275 3809 
L 1275 3500 
L 2222 3500 
L 2222 3053 
L 1275 3053 
L 1275 0 
L 697 0 
L 697 3053 
L 147 3053 
L 147 3500 
L 697 3500 
L 697 3744 
Q 697 4328 969 4595 
Q 1241 4863 1831 4863 
L 2375 4863 
z
" transform="scale(0.015625)"/>
       <path id="DejaVuSans-2d" d="M 313 2009 
L 1997 2009 
L 1997 1497 
L 313 1497 
L 313 2009 
z
" transform="scale(0.015625)"/>
      </defs>
      <use xlink:href="#DejaVuSans-53"/>
      <use xlink:href="#DejaVuSans-74" transform="translate(63.476562 0)"/>
      <use xlink:href="#DejaVuSans-61" transform="translate(102.685547 0)"/>
      <use xlink:href="#DejaVuSans-6e" transform="translate(163.964844 0)"/>
      <use xlink:href="#DejaVuSans-64" transform="translate(227.34375 0)"/>
      <use xlink:href="#DejaVuSans-61" transform="translate(290.820312 0)"/>
      <use xlink:href="#DejaVuSans-72" transform="translate(352.099609 0)"/>
      <use xlink:href="#DejaVuSans-64" transform="translate(391.462891 0)"/>
      <use xlink:href="#DejaVuSans-20" transform="translate(454.939453 0)"/>
      <use xlink:href="#DejaVuSans-64" transform="translate(486.726562 0)"/>
      <use xlink:href="#DejaVuSans-65" transform="translate(550.203125 0)"/>
      <use xlink:href="#DejaVuSans-76" transform="translate(611.726562 0)"/>
      <use xlink:href="#DejaVuSans-69" transform="translate(670.90625 0)"/>
      <use xlink:href="#DejaVuSans-61" transform="translate(698.689453 0)"/>
      <use xlink:href="#DejaVuSans-74" transform="translate(759.96875 0)"/>
      <use xlink:href="#DejaVuSans-69" transform="translate(799.177734 0)"/>
      <use xlink:href="#DejaVuSans-6f" transform="translate(826.960938 0)"/>
      <use xlink:href="#DejaVuSans-6e" transform="translate(888.142578 0)"/>
      <use xlink:href="#DejaVuSans-73" transform="translate(951.521484 0)"/>
      <use xlink:href="#DejaVuSans-20" transform="translate(1003.621094 0)"/>
      <use xlink:href="#DejaVuSans-61" transform="translate(1035.408203 0)"/>
      <use xlink:href="#DejaVuSans-62" transform="translate(1096.6875 0)"/>
      <use xlink:href="#DejaVuSans-6f" transform="translate(1160.164062 0)"/>
      <use xlink:href="#DejaVuSans-76" transform="translate(1221.345703 0)"/>
      <use xlink:href="#DejaVuSans-65" transform="translate(1280.525391 0)"/>
      <use xlink:href="#DejaVuSans-2f" transform="translate(1342.048828 0)"/>
      <use xlink:href="#DejaVuSans-62" transform="translate(1375.740234 0)"/>
      <use xlink:href="#DejaVuSans-65" transform="translate(1439.216797 0)"/>
      <use xlink:href="#DejaVuSans-6c" transform="translate(1500.740234 0)"/>
      <use xlink:href="#DejaVuSans-6f" transform="translate(1528.523438 0)"/>
      <use xlink:href="#DejaVuSans-77" transform="translate(1589.705078 0)"/>
      <use xlink:href="#DejaVuSans-20" transform="translate(1671.492188 0)"/>
      <use xlink:href="#DejaVuSans-74" transform="translate(1703.279297 0)"/>
      <use xlink:href="#DejaVuSans-68" transform="translate(1742.488281 0)"/>
      <use xlink:href="#DejaVuSans-65" transform="translate(1805.867188 0)"/>
      <use xlink:href="#DejaVuSans-20" transform="translate(1867.390625 0)"/>
      <use xlink:href="#DejaVuSans-71" transform="translate(1899.177734 0)"/>
      <use xlink:href="#DejaVuSans-75" transform="translate(1962.654297 0)"/>
      <use xlink:href="#DejaVuSans-61" transform="translate(2026.033203 0)"/>
      <use xlink:href="#DejaVuSans-6c" transform="translate(2087.3125 0)"/>
      <use xlink:href="#DejaVuSans-69" transform="translate(2115.095703 0)"/>
      <use xlink:href="#DejaVuSans-66" transform="translate(2142.878906 0)"/>
      <use xlink:href="#DejaVuSans-69" transform="translate(2178.083984 0)"/>
      <use xlink:href="#DejaVuSans-65" transform="translate(2205.867188 0)"/>
      <use xlink:href="#DejaVuSans-64" transform="translate(2267.390625 0)"/>
      <use xlink:href="#DejaVuSans-2d" transform="translate(2330.867188 0)"/>
      <use xlink:href="#DejaVuSans-70" transform="translate(2366.951172 0)"/>
      <use xlink:href="#DejaVuSans-6c" transform="translate(2430.427734 0)"/>
      <use xlink:href="#DejaVuSans-61" transform="translate(2458.210938 0)"/>
      <use xlink:href="#DejaVuSans-79" transform="translate(2519.490234 0)"/>
      <use xlink:href="#DejaVuSans-65" transform="translate(2578.669922 0)"/>
      <use xlink:href="#DejaVuSans-72" transform="translate(2640.193359 0)"/>
      <use xlink:href="#DejaVuSans-20" transform="translate(2681.306641 0)"/>
      <use xlink:href="#DejaVuSans-6d" transform="translate(2713.09375 0)"/>
      <use xlink:href="#DejaVuSans-65" transform="translate(2810.505859 0)"/>
      <use xlink:href="#DejaVuSans-61" transform="translate(2872.029297 0)"/>
      <use xlink:href="#DejaVuSans-6e" transform="translate(2933.308594 0)"/>
     </g>
    </g>
   </g>
   <g id="line2d_19">
    <path d="M 75.074318 95.119999 
L 88.715877 140.230435 
L 102.357435 140.659382 
L 115.998994 193.174989 
L 129.640552 219.840046 
L 143.28211 221.763652 
L 156.923669 227.972713 
L 170.565227 250.732685 
L 184.206786 256.60311 
L 197.848344 256.917262 
L 211.489903 257.014667 
L 225.131461 266.183793 
L 238.773019 270.608146 
L 252.414578 271.432349 
L 266.056136 275.118158 
L 279.697695 275.791239 
L 293.339253 283.52867 
L 306.980812 286.453196 
L 320.62237 287.091467 
L 334.263929 291.06748 
L 347.905487 295.238984 
L 361.547045 300.97094 
L 375.188604 301.361676 
L 388.830162 303.609387 
L 402.471721 309.088639 
L 416.113279 315.250137 
L 429.754838 316.414266 
L 443.396396 320.420729 
L 457.037955 323.425172 
L 470.679513 324.372659 
L 484.321071 324.970071 
L 497.96263 325.696349 
L 511.604188 326.884715 
L 525.245747 327.436232 
L 538.887305 329.070668 
L 552.528864 329.32212 
L 566.170422 334.650829 
L 579.811981 335.180945 
L 593.453539 341.458644 
L 607.095097 343.074594 
L 620.736656 343.4106 
L 634.378214 346.914426 
L 648.019773 349.504428 
L 661.661331 358.475727 
L 675.30289 361.008679 
L 688.944448 363.526 
L 702.586006 364.639655 
L 716.227565 365.736899 
L 729.869123 365.843947 
L 743.510682 370.272827 
" clip-path="url(#p5bd4b19d01)" style="fill: none; stroke: #2196f3; stroke-opacity: 0.65; stroke-width: 1.5; stroke-linecap: square"/>
   </g>
   <g id="line2d_20">
    <path d="M 75.074318 112.071364 
L 88.715877 131.702831 
L 102.357435 133.853578 
L 115.998994 151.286119 
L 129.640552 178.107895 
L 143.28211 194.1638 
L 156.923669 218.973448 
L 170.565227 264.759297 
L 184.206786 268.840388 
L 197.848344 279.388251 
L 211.489903 281.882656 
L 225.131461 282.356277 
L 238.773019 286.309205 
L 252.414578 294.975737 
L 266.056136 295.874009 
L 279.697695 296.380907 
L 293.339253 297.167115 
L 306.980812 297.455118 
L 320.62237 298.67223 
L 334.263929 301.893079 
L 347.905487 308.072935 
L 361.547045 309.75319 
L 375.188604 311.295128 
L 388.830162 313.200324 
L 402.471721 314.968213 
L 416.113279 315.602478 
L 429.754838 317.983224 
L 443.396396 318.240052 
L 457.037955 321.85781 
L 470.679513 323.850889 
L 484.321071 324.095246 
L 497.96263 328.660543 
L 511.604188 329.587209 
L 525.245747 330.636449 
L 538.887305 330.753728 
L 552.528864 331.58573 
L 566.170422 331.904087 
L 579.811981 332.647749 
L 593.453539 332.81869 
L 607.095097 333.065661 
L 620.736656 334.806814 
L 634.378214 336.886603 
L 648.019773 342.280171 
L 661.661331 343.411762 
L 675.30289 344.632331 
L 688.944448 347.52402 
L 702.586006 350.134562 
L 716.227565 350.301018 
L 729.869123 353.3996 
L 743.510682 354.464862 
" clip-path="url(#p5bd4b19d01)" style="fill: none; stroke: #f44336; stroke-opacity: 0.65; stroke-width: 1.5; stroke-linecap: square"/>
   </g>
   <g id="line2d_21">
    <path d="M 75.074318 53.096953 
L 88.715877 154.749336 
L 102.357435 157.441617 
L 115.998994 208.141633 
L 129.640552 210.587441 
L 143.28211 221.990007 
L 156.923669 225.369905 
L 170.565227 235.285782 
L 184.206786 243.870093 
L 197.848344 253.156654 
L 211.489903 255.221058 
L 225.131461 264.732047 
L 238.773019 272.087604 
L 252.414578 278.308465 
L 266.056136 284.099621 
L 279.697695 292.318034 
L 293.339253 293.850323 
L 306.980812 295.902778 
L 320.62237 298.186752 
L 334.263929 305.497614 
L 347.905487 306.715914 
L 361.547045 307.812577 
L 375.188604 309.393655 
L 388.830162 309.550656 
L 402.471721 310.408163 
L 416.113279 312.119303 
L 429.754838 318.428433 
L 443.396396 326.851468 
L 457.037955 328.453308 
L 470.679513 328.649311 
L 484.321071 328.758556 
L 497.96263 329.46392 
L 511.604188 331.4493 
L 525.245747 332.891236 
L 538.887305 333.669662 
L 552.528864 335.195003 
L 566.170422 335.454312 
L 579.811981 339.813917 
L 593.453539 341.525417 
L 607.095097 343.328806 
L 620.736656 344.188433 
L 634.378214 344.261328 
L 648.019773 344.654882 
L 661.661331 345.659214 
L 675.30289 347.062074 
L 688.944448 347.06898 
L 702.586006 347.72915 
L 716.227565 348.077 
L 729.869123 350.690129 
L 743.510682 351.316558 
" clip-path="url(#p5bd4b19d01)" style="fill: none; stroke: #4caf50; stroke-opacity: 0.65; stroke-width: 1.5; stroke-linecap: square"/>
   </g>
   <g id="line2d_22">
    <path d="M 75.074318 128.160553 
L 88.715877 134.16601 
L 102.357435 188.282402 
L 115.998994 196.15314 
L 129.640552 207.105753 
L 143.28211 215.909337 
L 156.923669 225.161159 
L 170.565227 235.838407 
L 184.206786 238.147632 
L 197.848344 247.505779 
L 211.489903 248.689625 
L 225.131461 249.193759 
L 238.773019 249.255477 
L 252.414578 250.502566 
L 266.056136 254.632675 
L 279.697695 258.959817 
L 293.339253 265.072978 
L 306.980812 278.643495 
L 320.62237 284.140645 
L 334.263929 289.506551 
L 347.905487 292.302877 
L 361.547045 305.826472 
L 375.188604 306.988163 
L 388.830162 312.242858 
L 402.471721 312.871496 
L 416.113279 313.982446 
L 429.754838 318.899356 
L 443.396396 321.834736 
L 457.037955 330.281673 
L 470.679513 334.687966 
L 484.321071 335.466455 
L 497.96263 335.756497 
L 511.604188 336.453818 
L 525.245747 336.569297 
L 538.887305 336.742864 
L 552.528864 340.630787 
L 566.170422 340.858494 
L 579.811981 343.208071 
L 593.453539 347.901245 
L 607.095097 349.978681 
L 620.736656 352.1056 
L 634.378214 354.044469 
L 648.019773 355.979823 
L 661.661331 356.395528 
L 675.30289 358.041798 
L 688.944448 360.974379 
L 702.586006 361.120191 
L 716.227565 361.601305 
L 729.869123 362.390978 
L 743.510682 363.368302 
" clip-path="url(#p5bd4b19d01)" style="fill: none; stroke: #ff9800; stroke-opacity: 0.65; stroke-width: 1.5; stroke-linecap: square"/>
   </g>
   <g id="line2d_23">
    <path d="M 75.074318 93.75567 
L 88.715877 121.922874 
L 102.357435 135.957951 
L 115.998994 167.285904 
L 129.640552 193.14885 
L 143.28211 200.281733 
L 156.923669 221.770547 
L 170.565227 252.914274 
L 184.206786 269.331726 
L 197.848344 269.66283 
L 211.489903 273.147246 
L 225.131461 277.564326 
L 238.773019 289.930126 
L 252.414578 295.244521 
L 266.056136 298.719679 
L 279.697695 302.151034 
L 293.339253 305.292748 
L 306.980812 305.295879 
L 320.62237 306.358585 
L 334.263929 306.490041 
L 347.905487 306.598454 
L 361.547045 309.359203 
L 375.188604 310.29478 
L 388.830162 313.188119 
L 402.471721 317.406208 
L 416.113279 317.99048 
L 429.754838 319.08122 
L 443.396396 320.002437 
L 457.037955 323.44682 
L 470.679513 324.305872 
L 484.321071 325.360025 
L 497.96263 325.729325 
L 511.604188 327.069909 
L 525.245747 328.579261 
L 538.887305 329.215418 
L 552.528864 329.717201 
L 566.170422 332.777465 
L 579.811981 334.535465 
L 593.453539 335.562652 
L 607.095097 337.564878 
L 620.736656 338.078898 
L 634.378214 338.673724 
L 648.019773 339.751847 
L 661.661331 342.407189 
L 675.30289 342.937252 
L 688.944448 344.789313 
L 702.586006 345.062401 
L 716.227565 346.038304 
L 729.869123 346.273378 
L 743.510682 346.510342 
" clip-path="url(#p5bd4b19d01)" style="fill: none; stroke: #9c27b0; stroke-opacity: 0.65; stroke-width: 1.5; stroke-linecap: square"/>
   </g>
   <g id="line2d_24">
    <path d="M 75.074318 89.639487 
L 88.715877 100.599037 
L 102.357435 126.640916 
L 115.998994 181.490011 
L 129.640552 206.700133 
L 143.28211 243.631271 
L 156.923669 254.804134 
L 170.565227 256.811536 
L 184.206786 258.268461 
L 197.848344 262.798577 
L 211.489903 271.469705 
L 225.131461 281.412335 
L 238.773019 286.833107 
L 252.414578 287.571656 
L 266.056136 289.30104 
L 279.697695 290.260288 
L 293.339253 291.448491 
L 306.980812 297.752928 
L 320.62237 300.300362 
L 334.263929 302.055711 
L 347.905487 302.602913 
L 361.547045 303.062103 
L 375.188604 305.042599 
L 388.830162 309.927645 
L 402.471721 312.979385 
L 416.113279 315.52115 
L 429.754838 318.04642 
L 443.396396 319.082808 
L 457.037955 320.216099 
L 470.679513 321.764952 
L 484.321071 323.275986 
L 497.96263 326.592756 
L 511.604188 326.868716 
L 525.245747 327.589711 
L 538.887305 328.941009 
L 552.528864 330.016333 
L 566.170422 330.312241 
L 579.811981 332.679574 
L 593.453539 333.089814 
L 607.095097 339.497035 
L 620.736656 343.334883 
L 634.378214 343.90392 
L 648.019773 345.731319 
L 661.661331 346.312821 
L 675.30289 347.076006 
L 688.944448 348.695365 
L 702.586006 350.481151 
L 716.227565 350.622827 
L 729.869123 350.671631 
L 743.510682 350.806026 
" clip-path="url(#p5bd4b19d01)" style="fill: none; stroke: #00bcd4; stroke-opacity: 0.65; stroke-width: 1.5; stroke-linecap: square"/>
   </g>
   <g id="line2d_25">
    <path d="M 75.074318 116.461728 
L 88.715877 135.940264 
L 102.357435 146.759072 
L 115.998994 191.342056 
L 129.640552 199.325124 
L 143.28211 199.814641 
L 156.923669 210.970095 
L 170.565227 222.970017 
L 184.206786 231.602776 
L 197.848344 250.68386 
L 211.489903 260.012075 
L 225.131461 261.716925 
L 238.773019 273.020184 
L 252.414578 274.348595 
L 266.056136 284.500058 
L 279.697695 290.081474 
L 293.339253 293.204546 
L 306.980812 293.564763 
L 320.62237 298.595407 
L 334.263929 300.148398 
L 347.905487 309.034369 
L 361.547045 311.467938 
L 375.188604 316.910476 
L 388.830162 317.15482 
L 402.471721 319.476371 
L 416.113279 321.848453 
L 429.754838 325.970211 
L 443.396396 326.788254 
L 457.037955 326.952836 
L 470.679513 327.61742 
L 484.321071 331.554332 
L 497.96263 334.951259 
L 511.604188 335.265725 
L 525.245747 336.570111 
L 538.887305 336.673184 
L 552.528864 337.268512 
L 566.170422 337.667198 
L 579.811981 339.150859 
L 593.453539 341.749837 
L 607.095097 342.904546 
L 620.736656 343.555423 
L 634.378214 343.626963 
L 648.019773 344.66024 
L 661.661331 344.910036 
L 675.30289 345.035048 
L 688.944448 348.568539 
L 702.586006 349.316417 
L 716.227565 350.573724 
L 729.869123 350.702651 
L 743.510682 351.546574 
" clip-path="url(#p5bd4b19d01)" style="fill: none; stroke: #795548; stroke-opacity: 0.65; stroke-width: 1.5; stroke-linecap: square"/>
   </g>
   <g id="line2d_26">
    <path d="M 75.074318 76.212408 
L 88.715877 104.497498 
L 102.357435 169.933629 
L 115.998994 200.917409 
L 129.640552 201.234198 
L 143.28211 241.019578 
L 156.923669 243.81979 
L 170.565227 245.698591 
L 184.206786 255.238097 
L 197.848344 257.187111 
L 211.489903 258.844874 
L 225.131461 269.33148 
L 238.773019 269.924091 
L 252.414578 276.198255 
L 266.056136 277.960482 
L 279.697695 282.622348 
L 293.339253 282.75289 
L 306.980812 290.691137 
L 320.62237 292.33507 
L 334.263929 297.124199 
L 347.905487 298.811713 
L 361.547045 298.986519 
L 375.188604 311.637466 
L 388.830162 315.263254 
L 402.471721 316.832807 
L 416.113279 321.633975 
L 429.754838 321.742817 
L 443.396396 323.535816 
L 457.037955 324.537765 
L 470.679513 325.310869 
L 484.321071 326.447125 
L 497.96263 330.279676 
L 511.604188 331.07233 
L 525.245747 331.145979 
L 538.887305 332.621779 
L 552.528864 332.868263 
L 566.170422 335.39607 
L 579.811981 340.450575 
L 593.453539 343.256758 
L 607.095097 344.464154 
L 620.736656 345.071753 
L 634.378214 345.348198 
L 648.019773 345.582107 
L 661.661331 347.118168 
L 675.30289 349.336902 
L 688.944448 349.495703 
L 702.586006 350.038081 
L 716.227565 350.539172 
L 729.869123 350.639677 
L 743.510682 351.525777 
" clip-path="url(#p5bd4b19d01)" style="fill: none; stroke: #607d8b; stroke-opacity: 0.65; stroke-width: 1.5; stroke-linecap: square"/>
   </g>
   <g id="line2d_27">
    <path d="M 75.074318 117.925528 
L 88.715877 153.924331 
L 102.357435 155.908132 
L 115.998994 163.160072 
L 129.640552 180.480309 
L 143.28211 211.60449 
L 156.923669 225.119785 
L 170.565227 236.670173 
L 184.206786 247.090504 
L 197.848344 255.142322 
L 211.489903 260.591197 
L 225.131461 262.457379 
L 238.773019 274.025852 
L 252.414578 280.583777 
L 266.056136 283.938657 
L 279.697695 286.121462 
L 293.339253 289.717656 
L 306.980812 291.815685 
L 320.62237 293.264076 
L 334.263929 297.46692 
L 347.905487 298.585088 
L 361.547045 299.233441 
L 375.188604 304.046809 
L 388.830162 308.458355 
L 402.471721 309.309077 
L 416.113279 310.762226 
L 429.754838 314.678335 
L 443.396396 318.994991 
L 457.037955 320.026991 
L 470.679513 322.740113 
L 484.321071 324.057825 
L 497.96263 325.957444 
L 511.604188 327.907136 
L 525.245747 329.544912 
L 538.887305 330.498432 
L 552.528864 330.816265 
L 566.170422 332.954667 
L 579.811981 333.499457 
L 593.453539 339.400622 
L 607.095097 340.329363 
L 620.736656 346.909002 
L 634.378214 353.053427 
L 648.019773 359.445229 
L 661.661331 359.998277 
L 675.30289 360.254172 
L 688.944448 361.534713 
L 702.586006 362.020506 
L 716.227565 362.161375 
L 729.869123 363.792178 
L 743.510682 366.555646 
" clip-path="url(#p5bd4b19d01)" style="fill: none; stroke: #2196f3; stroke-opacity: 0.65; stroke-width: 1.5; stroke-linecap: square"/>
   </g>
   <g id="line2d_28">
    <path d="M 75.074318 117.976419 
L 88.715877 161.446366 
L 102.357435 168.605634 
L 115.998994 174.243754 
L 129.640552 184.058022 
L 143.28211 202.754231 
L 156.923669 213.178354 
L 170.565227 221.777207 
L 184.206786 250.338982 
L 197.848344 252.369405 
L 211.489903 255.926684 
L 225.131461 261.038981 
L 238.773019 265.973965 
L 252.414578 272.999298 
L 266.056136 275.997184 
L 279.697695 279.287324 
L 293.339253 284.179551 
L 306.980812 289.435742 
L 320.62237 290.23083 
L 334.263929 292.328391 
L 347.905487 294.462913 
L 361.547045 303.562841 
L 375.188604 303.973983 
L 388.830162 306.976656 
L 402.471721 309.791037 
L 416.113279 311.731664 
L 429.754838 315.712405 
L 443.396396 315.918115 
L 457.037955 321.461333 
L 470.679513 328.763872 
L 484.321071 332.586038 
L 497.96263 333.698126 
L 511.604188 337.027341 
L 525.245747 337.763811 
L 538.887305 340.566483 
L 552.528864 342.402302 
L 566.170422 343.992875 
L 579.811981 344.9212 
L 593.453539 347.214534 
L 607.095097 349.69441 
L 620.736656 352.162568 
L 634.378214 352.307782 
L 648.019773 352.574535 
L 661.661331 352.714147 
L 675.30289 352.890656 
L 688.944448 353.595917 
L 702.586006 353.874819 
L 716.227565 358.522541 
L 729.869123 359.751361 
L 743.510682 359.771794 
" clip-path="url(#p5bd4b19d01)" style="fill: none; stroke: #f44336; stroke-opacity: 0.65; stroke-width: 1.5; stroke-linecap: square"/>
   </g>
   <g id="line2d_29">
    <path d="M 75.074318 74.95147 
L 88.715877 97.389203 
L 102.357435 194.523113 
L 115.998994 195.951387 
L 129.640552 196.319166 
L 143.28211 217.49362 
L 156.923669 243.457645 
L 170.565227 247.571988 
L 184.206786 249.052018 
L 197.848344 252.098242 
L 211.489903 263.463421 
L 225.131461 267.677848 
L 238.773019 275.20466 
L 252.414578 278.043654 
L 266.056136 286.984976 
L 279.697695 287.874497 
L 293.339253 300.822847 
L 306.980812 302.45623 
L 320.62237 302.96343 
L 334.263929 303.079612 
L 347.905487 304.401766 
L 361.547045 304.852798 
L 375.188604 304.944512 
L 388.830162 306.654063 
L 402.471721 312.756392 
L 416.113279 316.347922 
L 429.754838 320.686202 
L 443.396396 321.825312 
L 457.037955 322.623153 
L 470.679513 324.054393 
L 484.321071 324.870363 
L 497.96263 325.333229 
L 511.604188 327.522421 
L 525.245747 329.832871 
L 538.887305 329.952775 
L 552.528864 329.999929 
L 566.170422 332.502256 
L 579.811981 334.775163 
L 593.453539 339.950305 
L 607.095097 343.911758 
L 620.736656 345.454826 
L 634.378214 345.728985 
L 648.019773 346.146987 
L 661.661331 346.847124 
L 675.30289 347.518111 
L 688.944448 348.383209 
L 702.586006 351.362785 
L 716.227565 351.613931 
L 729.869123 351.747271 
L 743.510682 354.554543 
" clip-path="url(#p5bd4b19d01)" style="fill: none; stroke: #4caf50; stroke-opacity: 0.65; stroke-width: 1.5; stroke-linecap: square"/>
   </g>
   <g id="line2d_30">
    <path d="M 75.074318 108.113026 
L 88.715877 120.781037 
L 102.357435 128.362876 
L 115.998994 149.953383 
L 129.640552 186.927565 
L 143.28211 194.98611 
L 156.923669 236.125418 
L 170.565227 265.445068 
L 184.206786 270.670541 
L 197.848344 270.833848 
L 211.489903 274.109668 
L 225.131461 281.814131 
L 238.773019 283.365935 
L 252.414578 287.209644 
L 266.056136 290.689148 
L 279.697695 296.210823 
L 293.339253 305.203685 
L 306.980812 306.028088 
L 320.62237 312.538563 
L 334.263929 313.430562 
L 347.905487 315.157857 
L 361.547045 316.136762 
L 375.188604 316.159424 
L 388.830162 316.260968 
L 402.471721 318.419669 
L 416.113279 323.258563 
L 429.754838 323.778514 
L 443.396396 325.955177 
L 457.037955 326.153334 
L 470.679513 326.282343 
L 484.321071 326.74162 
L 497.96263 327.257179 
L 511.604188 328.003392 
L 525.245747 328.473289 
L 538.887305 329.61824 
L 552.528864 330.373433 
L 566.170422 331.19424 
L 579.811981 331.450721 
L 593.453539 331.594002 
L 607.095097 332.148387 
L 620.736656 332.794488 
L 634.378214 335.914576 
L 648.019773 337.62952 
L 661.661331 337.985887 
L 675.30289 339.639232 
L 688.944448 339.954635 
L 702.586006 341.730377 
L 716.227565 342.248591 
L 729.869123 344.224014 
L 743.510682 345.196832 
" clip-path="url(#p5bd4b19d01)" style="fill: none; stroke: #ff9800; stroke-opacity: 0.65; stroke-width: 1.5; stroke-linecap: square"/>
   </g>
   <g id="line2d_31">
    <path d="M 75.074318 71.840455 
L 88.715877 117.148155 
L 102.357435 130.650929 
L 115.998994 170.35733 
L 129.640552 194.645234 
L 143.28211 200.413916 
L 156.923669 263.491062 
L 170.565227 267.428803 
L 184.206786 268.296237 
L 197.848344 282.449691 
L 211.489903 282.916 
L 225.131461 290.57184 
L 238.773019 292.922068 
L 252.414578 296.713652 
L 266.056136 297.829704 
L 279.697695 305.188259 
L 293.339253 305.20472 
L 306.980812 305.346174 
L 320.62237 306.480449 
L 334.263929 306.56421 
L 347.905487 310.282676 
L 361.547045 312.307952 
L 375.188604 312.433653 
L 388.830162 313.608029 
L 402.471721 314.512802 
L 416.113279 314.748701 
L 429.754838 316.859701 
L 443.396396 318.717253 
L 457.037955 318.825346 
L 470.679513 319.018286 
L 484.321071 321.7194 
L 497.96263 322.712631 
L 511.604188 324.02868 
L 525.245747 324.133661 
L 538.887305 326.16543 
L 552.528864 326.783915 
L 566.170422 328.262712 
L 579.811981 329.615544 
L 593.453539 329.747482 
L 607.095097 330.73852 
L 620.736656 335.017316 
L 634.378214 336.814449 
L 648.019773 337.462202 
L 661.661331 340.409127 
L 675.30289 341.196585 
L 688.944448 342.276072 
L 702.586006 342.627279 
L 716.227565 345.073602 
L 729.869123 345.432826 
L 743.510682 346.543663 
" clip-path="url(#p5bd4b19d01)" style="fill: none; stroke: #9c27b0; stroke-opacity: 0.65; stroke-width: 1.5; stroke-linecap: square"/>
   </g>
   <g id="line2d_32">
    <path d="M 75.074318 38.163736 
L 88.715877 177.96527 
L 102.357435 198.714186 
L 115.998994 201.583273 
L 129.640552 205.887828 
L 143.28211 234.37677 
L 156.923669 241.812348 
L 170.565227 241.968343 
L 184.206786 256.696077 
L 197.848344 258.354993 
L 211.489903 261.705321 
L 225.131461 265.877773 
L 238.773019 268.483815 
L 252.414578 271.390399 
L 266.056136 273.525509 
L 279.697695 278.988702 
L 293.339253 279.618003 
L 306.980812 283.019533 
L 320.62237 285.79136 
L 334.263929 286.687506 
L 347.905487 289.242862 
L 361.547045 291.276321 
L 375.188604 291.329864 
L 388.830162 292.733508 
L 402.471721 293.420503 
L 416.113279 307.435452 
L 429.754838 310.06217 
L 443.396396 311.476262 
L 457.037955 312.605717 
L 470.679513 316.372619 
L 484.321071 326.857595 
L 497.96263 328.380533 
L 511.604188 336.092474 
L 525.245747 337.067346 
L 538.887305 337.109784 
L 552.528864 342.126391 
L 566.170422 342.740734 
L 579.811981 343.082993 
L 593.453539 346.744698 
L 607.095097 346.861976 
L 620.736656 347.201579 
L 634.378214 351.930188 
L 648.019773 352.716575 
L 661.661331 355.396557 
L 675.30289 358.171482 
L 688.944448 359.15 
L 702.586006 359.486259 
L 716.227565 359.870829 
L 729.869123 362.949467 
L 743.510682 364.030902 
" clip-path="url(#p5bd4b19d01)" style="fill: none; stroke: #00bcd4; stroke-opacity: 0.65; stroke-width: 1.5; stroke-linecap: square"/>
   </g>
   <g id="line2d_33">
    <path d="M 41.6525 295.690688 
L 776.9325 295.690688 
" clip-path="url(#p5bd4b19d01)" style="fill: none; stroke-dasharray: 2.96,1.28; stroke-dashoffset: 0; stroke: #888780; stroke-opacity: 0.5; stroke-width: 0.8"/>
   </g>
   <g id="patch_3">
    <path d="M 41.6525 386.878281 
L 41.6525 21.558281 
" style="fill: none; stroke: #000000; stroke-width: 0.8; stroke-linejoin: miter; stroke-linecap: square"/>
   </g>
   <g id="patch_4">
    <path d="M 41.6525 386.878281 
L 776.9325 386.878281 
" style="fill: none; stroke: #000000; stroke-width: 0.8; stroke-linejoin: miter; stroke-linecap: square"/>
   </g>
   <g id="line2d_34">
    <path d="M 75.074318 52.484184 
L 88.715877 119.557591 
L 102.357435 175.055737 
L 115.998994 180.047477 
L 129.640552 191.039291 
L 143.28211 218.387881 
L 156.923669 227.555863 
L 170.565227 267.766357 
L 184.206786 272.531172 
L 197.848344 274.441653 
L 211.489903 276.344343 
L 225.131461 279.970099 
L 238.773019 286.581861 
L 252.414578 290.933878 
L 266.056136 293.591386 
L 279.697695 294.217188 
L 293.339253 295.830947 
L 306.980812 296.69304 
L 320.62237 297.147751 
L 334.263929 300.002343 
L 347.905487 301.291754 
L 361.547045 308.717794 
L 375.188604 310.139241 
L 388.830162 311.747036 
L 402.471721 314.983372 
L 416.113279 319.771232 
L 429.754838 320.6533 
L 443.396396 322.217405 
L 457.037955 322.29265 
L 470.679513 323.733572 
L 484.321071 323.789928 
L 497.96263 324.334225 
L 511.604188 326.071258 
L 525.245747 326.686987 
L 538.887305 328.406761 
L 552.528864 328.870947 
L 566.170422 330.331982 
L 579.811981 335.07691 
L 593.453539 336.060693 
L 607.095097 337.457154 
L 620.736656 340.369358 
L 634.378214 341.96189 
L 648.019773 342.666111 
L 661.661331 343.517534 
L 675.30289 343.685538 
L 688.944448 343.725163 
L 702.586006 343.884687 
L 716.227565 343.98468 
L 729.869123 347.500158 
L 743.510682 350.425021 
" clip-path="url(#p5bd4b19d01)" style="fill: none; stroke: #111111; stroke-width: 2.5; stroke-linecap: square"/>
   </g>
   <g id="line2d_35">
    <path d="M 75.074318 102.881278 
L 88.715877 114.89711 
L 102.357435 133.640022 
L 115.998994 178.825923 
L 129.640552 182.454253 
L 143.28211 189.149297 
L 156.923669 248.09809 
L 170.565227 257.739502 
L 184.206786 259.885178 
L 197.848344 269.006925 
L 211.489903 279.096116 
L 225.131461 279.473936 
L 238.773019 280.083241 
L 252.414578 289.14629 
L 266.056136 292.342965 
L 279.697695 295.587555 
L 293.339253 298.828018 
L 306.980812 299.05022 
L 320.62237 300.983048 
L 334.263929 301.062967 
L 347.905487 306.208781 
L 361.547045 311.606537 
L 375.188604 313.625048 
L 388.830162 314.038316 
L 402.471721 316.364073 
L 416.113279 316.591966 
L 429.754838 321.880588 
L 443.396396 322.974413 
L 457.037955 324.905582 
L 470.679513 325.197489 
L 484.321071 327.183637 
L 497.96263 330.478738 
L 511.604188 331.214317 
L 525.245747 331.738751 
L 538.887305 332.352414 
L 552.528864 332.480888 
L 566.170422 333.789919 
L 579.811981 334.342281 
L 593.453539 337.328046 
L 607.095097 337.784715 
L 620.736656 338.587669 
L 634.378214 339.082713 
L 648.019773 340.755932 
L 661.661331 341.839784 
L 675.30289 342.055862 
L 688.944448 344.443304 
L 702.586006 345.18693 
L 716.227565 345.6215 
L 729.869123 346.154446 
L 743.510682 346.487811 
" clip-path="url(#p5bd4b19d01)" style="fill: none; stroke: #e67e22; stroke-width: 2.5; stroke-linecap: square"/>
   </g>
   <g id="text_15">
    <!-- Every system's value falls off steeply in the top tier -->
    <g style="fill: #222222" transform="translate(267.733672 15.558281) scale(0.11 -0.11)">
     <defs>
      <path id="DejaVuSans-45" d="M 628 4666 
L 3578 4666 
L 3578 4134 
L 1259 4134 
L 1259 2753 
L 3481 2753 
L 3481 2222 
L 1259 2222 
L 1259 531 
L 3634 531 
L 3634 0 
L 628 0 
L 628 4666 
z
" transform="scale(0.015625)"/>
      <path id="DejaVuSans-27" d="M 1147 4666 
L 1147 2931 
L 616 2931 
L 616 4666 
L 1147 4666 
z
" transform="scale(0.015625)"/>
     </defs>
     <use xlink:href="#DejaVuSans-45"/>
     <use xlink:href="#DejaVuSans-76" transform="translate(63.183594 0)"/>
     <use xlink:href="#DejaVuSans-65" transform="translate(122.363281 0)"/>
     <use xlink:href="#DejaVuSans-72" transform="translate(183.886719 0)"/>
     <use xlink:href="#DejaVuSans-79" transform="translate(225 0)"/>
     <use xlink:href="#DejaVuSans-20" transform="translate(284.179688 0)"/>
     <use xlink:href="#DejaVuSans-73" transform="translate(315.966797 0)"/>
     <use xlink:href="#DejaVuSans-79" transform="translate(368.066406 0)"/>
     <use xlink:href="#DejaVuSans-73" transform="translate(427.246094 0)"/>
     <use xlink:href="#DejaVuSans-74" transform="translate(479.345703 0)"/>
     <use xlink:href="#DejaVuSans-65" transform="translate(518.554688 0)"/>
     <use xlink:href="#DejaVuSans-6d" transform="translate(580.078125 0)"/>
     <use xlink:href="#DejaVuSans-27" transform="translate(677.490234 0)"/>
     <use xlink:href="#DejaVuSans-73" transform="translate(704.980469 0)"/>
     <use xlink:href="#DejaVuSans-20" transform="translate(757.080078 0)"/>
     <use xlink:href="#DejaVuSans-76" transform="translate(788.867188 0)"/>
     <use xlink:href="#DejaVuSans-61" transform="translate(848.046875 0)"/>
     <use xlink:href="#DejaVuSans-6c" transform="translate(909.326172 0)"/>
     <use xlink:href="#DejaVuSans-75" transform="translate(937.109375 0)"/>
     <use xlink:href="#DejaVuSans-65" transform="translate(1000.488281 0)"/>
     <use xlink:href="#DejaVuSans-20" transform="translate(1062.011719 0)"/>
     <use xlink:href="#DejaVuSans-66" transform="translate(1093.798828 0)"/>
     <use xlink:href="#DejaVuSans-61" transform="translate(1129.003906 0)"/>
     <use xlink:href="#DejaVuSans-6c" transform="translate(1190.283203 0)"/>
     <use xlink:href="#DejaVuSans-6c" transform="translate(1218.066406 0)"/>
     <use xlink:href="#DejaVuSans-73" transform="translate(1245.849609 0)"/>
     <use xlink:href="#DejaVuSans-20" transform="translate(1297.949219 0)"/>
     <use xlink:href="#DejaVuSans-6f" transform="translate(1329.736328 0)"/>
     <use xlink:href="#DejaVuSans-66" transform="translate(1390.917969 0)"/>
     <use xlink:href="#DejaVuSans-66" transform="translate(1426.123047 0)"/>
     <use xlink:href="#DejaVuSans-20" transform="translate(1461.328125 0)"/>
     <use xlink:href="#DejaVuSans-73" transform="translate(1493.115234 0)"/>
     <use xlink:href="#DejaVuSans-74" transform="translate(1545.214844 0)"/>
     <use xlink:href="#DejaVuSans-65" transform="translate(1584.423828 0)"/>
     <use xlink:href="#DejaVuSans-65" transform="translate(1645.947266 0)"/>
     <use xlink:href="#DejaVuSans-70" transform="translate(1707.470703 0)"/>
     <use xlink:href="#DejaVuSans-6c" transform="translate(1770.947266 0)"/>
     <use xlink:href="#DejaVuSans-79" transform="translate(1798.730469 0)"/>
     <use xlink:href="#DejaVuSans-20" transform="translate(1857.910156 0)"/>
     <use xlink:href="#DejaVuSans-69" transform="translate(1889.697266 0)"/>
     <use xlink:href="#DejaVuSans-6e" transform="translate(1917.480469 0)"/>
     <use xlink:href="#DejaVuSans-20" transform="translate(1980.859375 0)"/>
     <use xlink:href="#DejaVuSans-74" transform="translate(2012.646484 0)"/>
     <use xlink:href="#DejaVuSans-68" transform="translate(2051.855469 0)"/>
     <use xlink:href="#DejaVuSans-65" transform="translate(2115.234375 0)"/>
     <use xlink:href="#DejaVuSans-20" transform="translate(2176.757812 0)"/>
     <use xlink:href="#DejaVuSans-74" transform="translate(2208.544922 0)"/>
     <use xlink:href="#DejaVuSans-6f" transform="translate(2247.753906 0)"/>
     <use xlink:href="#DejaVuSans-70" transform="translate(2308.935547 0)"/>
     <use xlink:href="#DejaVuSans-20" transform="translate(2372.412109 0)"/>
     <use xlink:href="#DejaVuSans-74" transform="translate(2404.199219 0)"/>
     <use xlink:href="#DejaVuSans-69" transform="translate(2443.408203 0)"/>
     <use xlink:href="#DejaVuSans-65" transform="translate(2471.191406 0)"/>
     <use xlink:href="#DejaVuSans-72" transform="translate(2532.714844 0)"/>
    </g>
   </g>
   <g id="legend_1">
    <g id="line2d_36">
     <path d="M 588.7225 32.037031 
L 596.7225 32.037031 
L 604.7225 32.037031 
" style="fill: none; stroke: #2196f3; stroke-opacity: 0.65; stroke-width: 1.5; stroke-linecap: square"/>
    </g>
    <g id="text_16">
     <!-- Game Score -->
     <g transform="translate(611.1225 34.837031) scale(0.08 -0.08)">
      <defs>
       <path id="DejaVuSans-47" d="M 3809 666 
L 3809 1919 
L 2778 1919 
L 2778 2438 
L 4434 2438 
L 4434 434 
Q 4069 175 3628 42 
Q 3188 -91 2688 -91 
Q 1594 -91 976 548 
Q 359 1188 359 2328 
Q 359 3472 976 4111 
Q 1594 4750 2688 4750 
Q 3144 4750 3555 4637 
Q 3966 4525 4313 4306 
L 4313 3634 
Q 3963 3931 3569 4081 
Q 3175 4231 2741 4231 
Q 1884 4231 1454 3753 
Q 1025 3275 1025 2328 
Q 1025 1384 1454 906 
Q 1884 428 2741 428 
Q 3075 428 3337 486 
Q 3600 544 3809 666 
z
" transform="scale(0.015625)"/>
      </defs>
      <use xlink:href="#DejaVuSans-47"/>
      <use xlink:href="#DejaVuSans-61" transform="translate(77.490234 0)"/>
      <use xlink:href="#DejaVuSans-6d" transform="translate(138.769531 0)"/>
      <use xlink:href="#DejaVuSans-65" transform="translate(236.181641 0)"/>
      <use xlink:href="#DejaVuSans-20" transform="translate(297.705078 0)"/>
      <use xlink:href="#DejaVuSans-53" transform="translate(329.492188 0)"/>
      <use xlink:href="#DejaVuSans-63" transform="translate(392.96875 0)"/>
      <use xlink:href="#DejaVuSans-6f" transform="translate(447.949219 0)"/>
      <use xlink:href="#DejaVuSans-72" transform="translate(509.130859 0)"/>
      <use xlink:href="#DejaVuSans-65" transform="translate(547.994141 0)"/>
     </g>
    </g>
    <g id="line2d_37">
     <path d="M 588.7225 43.779531 
L 596.7225 43.779531 
L 604.7225 43.779531 
" style="fill: none; stroke: #f44336; stroke-opacity: 0.65; stroke-width: 1.5; stroke-linecap: square"/>
    </g>
    <g id="text_17">
     <!-- PER -->
     <g transform="translate(611.1225 46.579531) scale(0.08 -0.08)">
      <defs>
       <path id="DejaVuSans-52" d="M 2841 2188 
Q 3044 2119 3236 1894 
Q 3428 1669 3622 1275 
L 4263 0 
L 3584 0 
L 2988 1197 
Q 2756 1666 2539 1819 
Q 2322 1972 1947 1972 
L 1259 1972 
L 1259 0 
L 628 0 
L 628 4666 
L 2053 4666 
Q 2853 4666 3247 4331 
Q 3641 3997 3641 3322 
Q 3641 2881 3436 2590 
Q 3231 2300 2841 2188 
z
M 1259 4147 
L 1259 2491 
L 2053 2491 
Q 2509 2491 2742 2702 
Q 2975 2913 2975 3322 
Q 2975 3731 2742 3939 
Q 2509 4147 2053 4147 
L 1259 4147 
z
" transform="scale(0.015625)"/>
      </defs>
      <use xlink:href="#DejaVuSans-50"/>
      <use xlink:href="#DejaVuSans-45" transform="translate(60.302734 0)"/>
      <use xlink:href="#DejaVuSans-52" transform="translate(123.486328 0)"/>
     </g>
    </g>
    <g id="line2d_38">
     <path d="M 588.7225 55.522031 
L 596.7225 55.522031 
L 604.7225 55.522031 
" style="fill: none; stroke: #4caf50; stroke-opacity: 0.65; stroke-width: 1.5; stroke-linecap: square"/>
    </g>
    <g id="text_18">
     <!-- Win Shares -->
     <g transform="translate(611.1225 58.322031) scale(0.08 -0.08)">
      <defs>
       <path id="DejaVuSans-57" d="M 213 4666 
L 850 4666 
L 1831 722 
L 2809 4666 
L 3519 4666 
L 4500 722 
L 5478 4666 
L 6119 4666 
L 4947 0 
L 4153 0 
L 3169 4050 
L 2175 0 
L 1381 0 
L 213 4666 
z
" transform="scale(0.015625)"/>
      </defs>
      <use xlink:href="#DejaVuSans-57"/>
      <use xlink:href="#DejaVuSans-69" transform="translate(96.626953 0)"/>
      <use xlink:href="#DejaVuSans-6e" transform="translate(124.410156 0)"/>
      <use xlink:href="#DejaVuSans-20" transform="translate(187.789062 0)"/>
      <use xlink:href="#DejaVuSans-53" transform="translate(219.576172 0)"/>
      <use xlink:href="#DejaVuSans-68" transform="translate(283.052734 0)"/>
      <use xlink:href="#DejaVuSans-61" transform="translate(346.431641 0)"/>
      <use xlink:href="#DejaVuSans-72" transform="translate(407.710938 0)"/>
      <use xlink:href="#DejaVuSans-65" transform="translate(446.574219 0)"/>
      <use xlink:href="#DejaVuSans-73" transform="translate(508.097656 0)"/>
     </g>
    </g>
    <g id="line2d_39">
     <path d="M 588.7225 67.264531 
L 596.7225 67.264531 
L 604.7225 67.264531 
" style="fill: none; stroke: #ff9800; stroke-opacity: 0.65; stroke-width: 1.5; stroke-linecap: square"/>
    </g>
    <g id="text_19">
     <!-- WS/48 -->
     <g transform="translate(611.1225 70.064531) scale(0.08 -0.08)">
      <defs>
       <path id="DejaVuSans-38" d="M 2034 2216 
Q 1584 2216 1326 1975 
Q 1069 1734 1069 1313 
Q 1069 891 1326 650 
Q 1584 409 2034 409 
Q 2484 409 2743 651 
Q 3003 894 3003 1313 
Q 3003 1734 2745 1975 
Q 2488 2216 2034 2216 
z
M 1403 2484 
Q 997 2584 770 2862 
Q 544 3141 544 3541 
Q 544 4100 942 4425 
Q 1341 4750 2034 4750 
Q 2731 4750 3128 4425 
Q 3525 4100 3525 3541 
Q 3525 3141 3298 2862 
Q 3072 2584 2669 2484 
Q 3125 2378 3379 2068 
Q 3634 1759 3634 1313 
Q 3634 634 3220 271 
Q 2806 -91 2034 -91 
Q 1263 -91 848 271 
Q 434 634 434 1313 
Q 434 1759 690 2068 
Q 947 2378 1403 2484 
z
M 1172 3481 
Q 1172 3119 1398 2916 
Q 1625 2713 2034 2713 
Q 2441 2713 2670 2916 
Q 2900 3119 2900 3481 
Q 2900 3844 2670 4047 
Q 2441 4250 2034 4250 
Q 1625 4250 1398 4047 
Q 1172 3844 1172 3481 
z
" transform="scale(0.015625)"/>
      </defs>
      <use xlink:href="#DejaVuSans-57"/>
      <use xlink:href="#DejaVuSans-53" transform="translate(98.876953 0)"/>
      <use xlink:href="#DejaVuSans-2f" transform="translate(162.353516 0)"/>
      <use xlink:href="#DejaVuSans-34" transform="translate(196.044922 0)"/>
      <use xlink:href="#DejaVuSans-38" transform="translate(259.667969 0)"/>
     </g>
    </g>
    <g id="line2d_40">
     <path d="M 588.7225 79.007031 
L 596.7225 79.007031 
L 604.7225 79.007031 
" style="fill: none; stroke: #9c27b0; stroke-opacity: 0.65; stroke-width: 1.5; stroke-linecap: square"/>
    </g>
    <g id="text_20">
     <!-- BPM -->
     <g transform="translate(611.1225 81.807031) scale(0.08 -0.08)">
      <defs>
       <path id="DejaVuSans-42" d="M 1259 2228 
L 1259 519 
L 2272 519 
Q 2781 519 3026 730 
Q 3272 941 3272 1375 
Q 3272 1813 3026 2020 
Q 2781 2228 2272 2228 
L 1259 2228 
z
M 1259 4147 
L 1259 2741 
L 2194 2741 
Q 2656 2741 2882 2914 
Q 3109 3088 3109 3444 
Q 3109 3797 2882 3972 
Q 2656 4147 2194 4147 
L 1259 4147 
z
M 628 4666 
L 2241 4666 
Q 2963 4666 3353 4366 
Q 3744 4066 3744 3513 
Q 3744 3084 3544 2831 
Q 3344 2578 2956 2516 
Q 3422 2416 3680 2098 
Q 3938 1781 3938 1306 
Q 3938 681 3513 340 
Q 3088 0 2303 0 
L 628 0 
L 628 4666 
z
" transform="scale(0.015625)"/>
       <path id="DejaVuSans-4d" d="M 628 4666 
L 1569 4666 
L 2759 1491 
L 3956 4666 
L 4897 4666 
L 4897 0 
L 4281 0 
L 4281 4097 
L 3078 897 
L 2444 897 
L 1241 4097 
L 1241 0 
L 628 0 
L 628 4666 
z
" transform="scale(0.015625)"/>
      </defs>
      <use xlink:href="#DejaVuSans-42"/>
      <use xlink:href="#DejaVuSans-50" transform="translate(68.603516 0)"/>
      <use xlink:href="#DejaVuSans-4d" transform="translate(128.90625 0)"/>
     </g>
    </g>
    <g id="line2d_41">
     <path d="M 588.7225 90.749531 
L 596.7225 90.749531 
L 604.7225 90.749531 
" style="fill: none; stroke: #00bcd4; stroke-opacity: 0.65; stroke-width: 1.5; stroke-linecap: square"/>
    </g>
    <g id="text_21">
     <!-- Off BPM -->
     <g transform="translate(611.1225 93.549531) scale(0.08 -0.08)">
      <defs>
       <path id="DejaVuSans-4f" d="M 2522 4238 
Q 1834 4238 1429 3725 
Q 1025 3213 1025 2328 
Q 1025 1447 1429 934 
Q 1834 422 2522 422 
Q 3209 422 3611 934 
Q 4013 1447 4013 2328 
Q 4013 3213 3611 3725 
Q 3209 4238 2522 4238 
z
M 2522 4750 
Q 3503 4750 4090 4092 
Q 4678 3434 4678 2328 
Q 4678 1225 4090 567 
Q 3503 -91 2522 -91 
Q 1538 -91 948 565 
Q 359 1222 359 2328 
Q 359 3434 948 4092 
Q 1538 4750 2522 4750 
z
" transform="scale(0.015625)"/>
      </defs>
      <use xlink:href="#DejaVuSans-4f"/>
      <use xlink:href="#DejaVuSans-66" transform="translate(78.710938 0)"/>
      <use xlink:href="#DejaVuSans-66" transform="translate(113.916016 0)"/>
      <use xlink:href="#DejaVuSans-20" transform="translate(149.121094 0)"/>
      <use xlink:href="#DejaVuSans-42" transform="translate(180.908203 0)"/>
      <use xlink:href="#DejaVuSans-50" transform="translate(249.511719 0)"/>
      <use xlink:href="#DejaVuSans-4d" transform="translate(309.814453 0)"/>
     </g>
    </g>
    <g id="line2d_42">
     <path d="M 588.7225 102.492031 
L 596.7225 102.492031 
L 604.7225 102.492031 
" style="fill: none; stroke: #795548; stroke-opacity: 0.65; stroke-width: 1.5; stroke-linecap: square"/>
    </g>
    <g id="text_22">
     <!-- Def BPM -->
     <g transform="translate(611.1225 105.292031) scale(0.08 -0.08)">
      <defs>
       <path id="DejaVuSans-44" d="M 1259 4147 
L 1259 519 
L 2022 519 
Q 2988 519 3436 956 
Q 3884 1394 3884 2338 
Q 3884 3275 3436 3711 
Q 2988 4147 2022 4147 
L 1259 4147 
z
M 628 4666 
L 1925 4666 
Q 3281 4666 3915 4102 
Q 4550 3538 4550 2338 
Q 4550 1131 3912 565 
Q 3275 0 1925 0 
L 628 0 
L 628 4666 
z
" transform="scale(0.015625)"/>
      </defs>
      <use xlink:href="#DejaVuSans-44"/>
      <use xlink:href="#DejaVuSans-65" transform="translate(77.001953 0)"/>
      <use xlink:href="#DejaVuSans-66" transform="translate(138.525391 0)"/>
      <use xlink:href="#DejaVuSans-20" transform="translate(173.730469 0)"/>
      <use xlink:href="#DejaVuSans-42" transform="translate(205.517578 0)"/>
      <use xlink:href="#DejaVuSans-50" transform="translate(274.121094 0)"/>
      <use xlink:href="#DejaVuSans-4d" transform="translate(334.423828 0)"/>
     </g>
    </g>
    <g id="line2d_43">
     <path d="M 588.7225 114.234531 
L 596.7225 114.234531 
L 604.7225 114.234531 
" style="fill: none; stroke: #607d8b; stroke-opacity: 0.65; stroke-width: 1.5; stroke-linecap: square"/>
    </g>
    <g id="text_23">
     <!-- VORP -->
     <g transform="translate(611.1225 117.034531) scale(0.08 -0.08)">
      <defs>
       <path id="DejaVuSans-56" d="M 1831 0 
L 50 4666 
L 709 4666 
L 2188 738 
L 3669 4666 
L 4325 4666 
L 2547 0 
L 1831 0 
z
" transform="scale(0.015625)"/>
      </defs>
      <use xlink:href="#DejaVuSans-56"/>
      <use xlink:href="#DejaVuSans-4f" transform="translate(66.658203 0)"/>
      <use xlink:href="#DejaVuSans-52" transform="translate(145.369141 0)"/>
      <use xlink:href="#DejaVuSans-50" transform="translate(214.851562 0)"/>
     </g>
    </g>
    <g id="line2d_44">
     <path d="M 675.885 32.037031 
L 683.885 32.037031 
L 691.885 32.037031 
" style="fill: none; stroke: #2196f3; stroke-opacity: 0.65; stroke-width: 1.5; stroke-linecap: square"/>
    </g>
    <g id="text_24">
     <!-- RAPM -->
     <g transform="translate(698.285 34.837031) scale(0.08 -0.08)">
      <defs>
       <path id="DejaVuSans-41" d="M 2188 4044 
L 1331 1722 
L 3047 1722 
L 2188 4044 
z
M 1831 4666 
L 2547 4666 
L 4325 0 
L 3669 0 
L 3244 1197 
L 1141 1197 
L 716 0 
L 50 0 
L 1831 4666 
z
" transform="scale(0.015625)"/>
      </defs>
      <use xlink:href="#DejaVuSans-52"/>
      <use xlink:href="#DejaVuSans-41" transform="translate(65.482422 0)"/>
      <use xlink:href="#DejaVuSans-50" transform="translate(133.890625 0)"/>
      <use xlink:href="#DejaVuSans-4d" transform="translate(194.193359 0)"/>
     </g>
    </g>
    <g id="line2d_45">
     <path d="M 675.885 43.779531 
L 683.885 43.779531 
L 691.885 43.779531 
" style="fill: none; stroke: #f44336; stroke-opacity: 0.65; stroke-width: 1.5; stroke-linecap: square"/>
    </g>
    <g id="text_25">
     <!-- O-RAPM -->
     <g transform="translate(698.285 46.579531) scale(0.08 -0.08)">
      <use xlink:href="#DejaVuSans-4f"/>
      <use xlink:href="#DejaVuSans-2d" transform="translate(81.460938 0)"/>
      <use xlink:href="#DejaVuSans-52" transform="translate(117.544922 0)"/>
      <use xlink:href="#DejaVuSans-41" transform="translate(183.027344 0)"/>
      <use xlink:href="#DejaVuSans-50" transform="translate(251.435547 0)"/>
      <use xlink:href="#DejaVuSans-4d" transform="translate(311.738281 0)"/>
     </g>
    </g>
    <g id="line2d_46">
     <path d="M 675.885 55.522031 
L 683.885 55.522031 
L 691.885 55.522031 
" style="fill: none; stroke: #4caf50; stroke-opacity: 0.65; stroke-width: 1.5; stroke-linecap: square"/>
    </g>
    <g id="text_26">
     <!-- D-RAPM -->
     <g transform="translate(698.285 58.322031) scale(0.08 -0.08)">
      <use xlink:href="#DejaVuSans-44"/>
      <use xlink:href="#DejaVuSans-2d" transform="translate(77.001953 0)"/>
      <use xlink:href="#DejaVuSans-52" transform="translate(113.085938 0)"/>
      <use xlink:href="#DejaVuSans-41" transform="translate(178.568359 0)"/>
      <use xlink:href="#DejaVuSans-50" transform="translate(246.976562 0)"/>
      <use xlink:href="#DejaVuSans-4d" transform="translate(307.279297 0)"/>
     </g>
    </g>
    <g id="line2d_47">
     <path d="M 675.885 67.264531 
L 683.885 67.264531 
L 691.885 67.264531 
" style="fill: none; stroke: #ff9800; stroke-opacity: 0.65; stroke-width: 1.5; stroke-linecap: square"/>
    </g>
    <g id="text_27">
     <!-- RAPM+prior -->
     <g transform="translate(698.285 70.064531) scale(0.08 -0.08)">
      <defs>
       <path id="DejaVuSans-2b" d="M 2944 4013 
L 2944 2272 
L 4684 2272 
L 4684 1741 
L 2944 1741 
L 2944 0 
L 2419 0 
L 2419 1741 
L 678 1741 
L 678 2272 
L 2419 2272 
L 2419 4013 
L 2944 4013 
z
" transform="scale(0.015625)"/>
      </defs>
      <use xlink:href="#DejaVuSans-52"/>
      <use xlink:href="#DejaVuSans-41" transform="translate(65.482422 0)"/>
      <use xlink:href="#DejaVuSans-50" transform="translate(133.890625 0)"/>
      <use xlink:href="#DejaVuSans-4d" transform="translate(194.193359 0)"/>
      <use xlink:href="#DejaVuSans-2b" transform="translate(280.472656 0)"/>
      <use xlink:href="#DejaVuSans-70" transform="translate(364.261719 0)"/>
      <use xlink:href="#DejaVuSans-72" transform="translate(427.738281 0)"/>
      <use xlink:href="#DejaVuSans-69" transform="translate(468.851562 0)"/>
      <use xlink:href="#DejaVuSans-6f" transform="translate(496.634766 0)"/>
      <use xlink:href="#DejaVuSans-72" transform="translate(557.816406 0)"/>
     </g>
    </g>
    <g id="line2d_48">
     <path d="M 675.885 79.007031 
L 683.885 79.007031 
L 691.885 79.007031 
" style="fill: none; stroke: #9c27b0; stroke-opacity: 0.65; stroke-width: 1.5; stroke-linecap: square"/>
    </g>
    <g id="text_28">
     <!-- O-RAPM+prior -->
     <g transform="translate(698.285 81.807031) scale(0.08 -0.08)">
      <use xlink:href="#DejaVuSans-4f"/>
      <use xlink:href="#DejaVuSans-2d" transform="translate(81.460938 0)"/>
      <use xlink:href="#DejaVuSans-52" transform="translate(117.544922 0)"/>
      <use xlink:href="#DejaVuSans-41" transform="translate(183.027344 0)"/>
      <use xlink:href="#DejaVuSans-50" transform="translate(251.435547 0)"/>
      <use xlink:href="#DejaVuSans-4d" transform="translate(311.738281 0)"/>
      <use xlink:href="#DejaVuSans-2b" transform="translate(398.017578 0)"/>
      <use xlink:href="#DejaVuSans-70" transform="translate(481.806641 0)"/>
      <use xlink:href="#DejaVuSans-72" transform="translate(545.283203 0)"/>
      <use xlink:href="#DejaVuSans-69" transform="translate(586.396484 0)"/>
      <use xlink:href="#DejaVuSans-6f" transform="translate(614.179688 0)"/>
      <use xlink:href="#DejaVuSans-72" transform="translate(675.361328 0)"/>
     </g>
    </g>
    <g id="line2d_49">
     <path d="M 675.885 90.749531 
L 683.885 90.749531 
L 691.885 90.749531 
" style="fill: none; stroke: #00bcd4; stroke-opacity: 0.65; stroke-width: 1.5; stroke-linecap: square"/>
    </g>
    <g id="text_29">
     <!-- D-RAPM+prior -->
     <g transform="translate(698.285 93.549531) scale(0.08 -0.08)">
      <use xlink:href="#DejaVuSans-44"/>
      <use xlink:href="#DejaVuSans-2d" transform="translate(77.001953 0)"/>
      <use xlink:href="#DejaVuSans-52" transform="translate(113.085938 0)"/>
      <use xlink:href="#DejaVuSans-41" transform="translate(178.568359 0)"/>
      <use xlink:href="#DejaVuSans-50" transform="translate(246.976562 0)"/>
      <use xlink:href="#DejaVuSans-4d" transform="translate(307.279297 0)"/>
      <use xlink:href="#DejaVuSans-2b" transform="translate(393.558594 0)"/>
      <use xlink:href="#DejaVuSans-70" transform="translate(477.347656 0)"/>
      <use xlink:href="#DejaVuSans-72" transform="translate(540.824219 0)"/>
      <use xlink:href="#DejaVuSans-69" transform="translate(581.9375 0)"/>
      <use xlink:href="#DejaVuSans-6f" transform="translate(609.720703 0)"/>
      <use xlink:href="#DejaVuSans-72" transform="translate(670.902344 0)"/>
     </g>
    </g>
    <g id="line2d_50">
     <path d="M 675.885 102.492031 
L 683.885 102.492031 
L 691.885 102.492031 
" style="fill: none; stroke: #111111; stroke-width: 2.5; stroke-linecap: square"/>
    </g>
    <g id="text_30">
     <!-- Consensus Rating -->
     <g transform="translate(698.285 105.292031) scale(0.08 -0.08)">
      <defs>
       <path id="DejaVuSans-43" d="M 4122 4306 
L 4122 3641 
Q 3803 3938 3442 4084 
Q 3081 4231 2675 4231 
Q 1875 4231 1450 3742 
Q 1025 3253 1025 2328 
Q 1025 1406 1450 917 
Q 1875 428 2675 428 
Q 3081 428 3442 575 
Q 3803 722 4122 1019 
L 4122 359 
Q 3791 134 3420 21 
Q 3050 -91 2638 -91 
Q 1578 -91 968 557 
Q 359 1206 359 2328 
Q 359 3453 968 4101 
Q 1578 4750 2638 4750 
Q 3056 4750 3426 4639 
Q 3797 4528 4122 4306 
z
" transform="scale(0.015625)"/>
       <path id="DejaVuSans-67" d="M 2906 1791 
Q 2906 2416 2648 2759 
Q 2391 3103 1925 3103 
Q 1463 3103 1205 2759 
Q 947 2416 947 1791 
Q 947 1169 1205 825 
Q 1463 481 1925 481 
Q 2391 481 2648 825 
Q 2906 1169 2906 1791 
z
M 3481 434 
Q 3481 -459 3084 -895 
Q 2688 -1331 1869 -1331 
Q 1566 -1331 1297 -1286 
Q 1028 -1241 775 -1147 
L 775 -588 
Q 1028 -725 1275 -790 
Q 1522 -856 1778 -856 
Q 2344 -856 2625 -561 
Q 2906 -266 2906 331 
L 2906 616 
Q 2728 306 2450 153 
Q 2172 0 1784 0 
Q 1141 0 747 490 
Q 353 981 353 1791 
Q 353 2603 747 3093 
Q 1141 3584 1784 3584 
Q 2172 3584 2450 3431 
Q 2728 3278 2906 2969 
L 2906 3500 
L 3481 3500 
L 3481 434 
z
" transform="scale(0.015625)"/>
      </defs>
      <use xlink:href="#DejaVuSans-43"/>
      <use xlink:href="#DejaVuSans-6f" transform="translate(69.824219 0)"/>
      <use xlink:href="#DejaVuSans-6e" transform="translate(131.005859 0)"/>
      <use xlink:href="#DejaVuSans-73" transform="translate(194.384766 0)"/>
      <use xlink:href="#DejaVuSans-65" transform="translate(246.484375 0)"/>
      <use xlink:href="#DejaVuSans-6e" transform="translate(308.007812 0)"/>
      <use xlink:href="#DejaVuSans-73" transform="translate(371.386719 0)"/>
      <use xlink:href="#DejaVuSans-75" transform="translate(423.486328 0)"/>
      <use xlink:href="#DejaVuSans-73" transform="translate(486.865234 0)"/>
      <use xlink:href="#DejaVuSans-20" transform="translate(538.964844 0)"/>
      <use xlink:href="#DejaVuSans-52" transform="translate(570.751953 0)"/>
      <use xlink:href="#DejaVuSans-61" transform="translate(637.984375 0)"/>
      <use xlink:href="#DejaVuSans-74" transform="translate(699.263672 0)"/>
      <use xlink:href="#DejaVuSans-69" transform="translate(738.472656 0)"/>
      <use xlink:href="#DejaVuSans-6e" transform="translate(766.255859 0)"/>
      <use xlink:href="#DejaVuSans-67" transform="translate(829.634766 0)"/>
     </g>
    </g>
    <g id="line2d_51">
     <path d="M 675.885 114.234531 
L 683.885 114.234531 
L 691.885 114.234531 
" style="fill: none; stroke: #e67e22; stroke-width: 2.5; stroke-linecap: square"/>
    </g>
    <g id="text_31">
     <!-- Wins-Predictive -->
     <g transform="translate(698.285 117.034531) scale(0.08 -0.08)">
      <use xlink:href="#DejaVuSans-57"/>
      <use xlink:href="#DejaVuSans-69" transform="translate(96.626953 0)"/>
      <use xlink:href="#DejaVuSans-6e" transform="translate(124.410156 0)"/>
      <use xlink:href="#DejaVuSans-73" transform="translate(187.789062 0)"/>
      <use xlink:href="#DejaVuSans-2d" transform="translate(239.888672 0)"/>
      <use xlink:href="#DejaVuSans-50" transform="translate(275.972656 0)"/>
      <use xlink:href="#DejaVuSans-72" transform="translate(334.525391 0)"/>
      <use xlink:href="#DejaVuSans-65" transform="translate(373.388672 0)"/>
      <use xlink:href="#DejaVuSans-64" transform="translate(434.912109 0)"/>
      <use xlink:href="#DejaVuSans-69" transform="translate(498.388672 0)"/>
      <use xlink:href="#DejaVuSans-63" transform="translate(526.171875 0)"/>
      <use xlink:href="#DejaVuSans-74" transform="translate(581.152344 0)"/>
      <use xlink:href="#DejaVuSans-69" transform="translate(620.361328 0)"/>
      <use xlink:href="#DejaVuSans-76" transform="translate(648.144531 0)"/>
      <use xlink:href="#DejaVuSans-65" transform="translate(707.324219 0)"/>
     </g>
    </g>
   </g>
  </g>
 </g>
 <defs>
  <clipPath id="p5bd4b19d01">
   <rect x="41.6525" y="21.558281" width="735.28" height="365.32"/>
  </clipPath>
 </defs>
</svg>
