<?xml version="1.0" encoding="utf-8" standalone="no"?>
<!DOCTYPE svg PUBLIC "-//W3C//DTD SVG 1.1//EN"
  "http://www.w3.org/Graphics/SVG/1.1/DTD/svg11.dtd">
<svg xmlns:xlink="http://www.w3.org/1999/xlink" width="784.052812pt" height="320.292813pt" viewBox="0 0 784.052812 320.292813" xmlns="http://www.w3.org/2000/svg" version="1.1">
 <metadata>
  <rdf:RDF xmlns:dc="http://purl.org/dc/elements/1.1/" xmlns:cc="http://creativecommons.org/ns#" xmlns:rdf="http://www.w3.org/1999/02/22-rdf-syntax-ns#">
   <cc:Work>
    <dc:type rdf:resource="http://purl.org/dc/dcmitype/StillImage"/>
    <dc:date>2026-07-01T13:26:29.919237</dc:date>
    <dc:format>image/svg+xml</dc:format>
    <dc:creator>
     <cc:Agent>
      <dc:title>Matplotlib v3.10.9, https://matplotlib.org/</dc:title>
     </cc:Agent>
    </dc:creator>
   </cc:Work>
  </rdf:RDF>
 </metadata>
 <defs>
  <style type="text/css">*{stroke-linejoin: round; stroke-linecap: butt}</style>
 </defs>
 <g id="figure_1">
  <g id="patch_1">
   <path d="M 0 320.292813 
L 784.052812 320.292813 
L 784.052812 0 
L 0 0 
z
" style="fill: #f9f9f7"/>
  </g>
  <g id="axes_1">
   <g id="patch_2">
    <path d="M 44.722813 285.64 
L 395.497813 285.64 
L 395.497813 53.52 
L 44.722813 53.52 
z
" style="fill: #ffffff"/>
   </g>
   <g id="matplotlib.axis_1">
    <g id="xtick_1">
     <g id="line2d_1">
      <defs>
       <path id="m3c201d2859" d="M 0 0 
L 0 3.5 
" style="stroke: #888780; stroke-width: 0.8"/>
      </defs>
      <g>
       <use xlink:href="#m3c201d2859" x="103.567457" y="285.64" style="fill: #888780; stroke: #888780; stroke-width: 0.8"/>
      </g>
     </g>
     <g id="text_1">
      <!-- −10 -->
      <g style="fill: #888780" transform="translate(95.125582 298.71875) scale(0.08 -0.08)">
       <defs>
        <path id="DejaVuSans-2212" d="M 678 2272 
L 4684 2272 
L 4684 1741 
L 678 1741 
L 678 2272 
z
" transform="scale(0.015625)"/>
        <path id="DejaVuSans-31" d="M 794 531 
L 1825 531 
L 1825 4091 
L 703 3866 
L 703 4441 
L 1819 4666 
L 2450 4666 
L 2450 531 
L 3481 531 
L 3481 0 
L 794 0 
L 794 531 
z
" transform="scale(0.015625)"/>
        <path id="DejaVuSans-30" d="M 2034 4250 
Q 1547 4250 1301 3770 
Q 1056 3291 1056 2328 
Q 1056 1369 1301 889 
Q 1547 409 2034 409 
Q 2525 409 2770 889 
Q 3016 1369 3016 2328 
Q 3016 3291 2770 3770 
Q 2525 4250 2034 4250 
z
M 2034 4750 
Q 2819 4750 3233 4129 
Q 3647 3509 3647 2328 
Q 3647 1150 3233 529 
Q 2819 -91 2034 -91 
Q 1250 -91 836 529 
Q 422 1150 422 2328 
Q 422 3509 836 4129 
Q 1250 4750 2034 4750 
z
" transform="scale(0.015625)"/>
       </defs>
       <use xlink:href="#DejaVuSans-2212"/>
       <use xlink:href="#DejaVuSans-31" transform="translate(83.789062 0)"/>
       <use xlink:href="#DejaVuSans-30" transform="translate(147.412109 0)"/>
      </g>
     </g>
    </g>
    <g id="xtick_2">
     <g id="line2d_2">
      <g>
       <use xlink:href="#m3c201d2859" x="164.355575" y="285.64" style="fill: #888780; stroke: #888780; stroke-width: 0.8"/>
      </g>
     </g>
     <g id="text_2">
      <!-- −5 -->
      <g style="fill: #888780" transform="translate(158.4587 298.71875) scale(0.08 -0.08)">
       <defs>
        <path id="DejaVuSans-35" d="M 691 4666 
L 3169 4666 
L 3169 4134 
L 1269 4134 
L 1269 2991 
Q 1406 3038 1543 3061 
Q 1681 3084 1819 3084 
Q 2600 3084 3056 2656 
Q 3513 2228 3513 1497 
Q 3513 744 3044 326 
Q 2575 -91 1722 -91 
Q 1428 -91 1123 -41 
Q 819 9 494 109 
L 494 744 
Q 775 591 1075 516 
Q 1375 441 1709 441 
Q 2250 441 2565 725 
Q 2881 1009 2881 1497 
Q 2881 1984 2565 2268 
Q 2250 2553 1709 2553 
Q 1456 2553 1204 2497 
Q 953 2441 691 2322 
L 691 4666 
z
" transform="scale(0.015625)"/>
       </defs>
       <use xlink:href="#DejaVuSans-2212"/>
       <use xlink:href="#DejaVuSans-35" transform="translate(83.789062 0)"/>
      </g>
     </g>
    </g>
    <g id="xtick_3">
     <g id="line2d_3">
      <g>
       <use xlink:href="#m3c201d2859" x="225.143692" y="285.64" style="fill: #888780; stroke: #888780; stroke-width: 0.8"/>
      </g>
     </g>
     <g id="text_3">
      <!-- 0 -->
      <g style="fill: #888780" transform="translate(222.598692 298.71875) scale(0.08 -0.08)">
       <use xlink:href="#DejaVuSans-30"/>
      </g>
     </g>
    </g>
    <g id="xtick_4">
     <g id="line2d_4">
      <g>
       <use xlink:href="#m3c201d2859" x="285.93181" y="285.64" style="fill: #888780; stroke: #888780; stroke-width: 0.8"/>
      </g>
     </g>
     <g id="text_4">
      <!-- 5 -->
      <g style="fill: #888780" transform="translate(283.38681 298.71875) scale(0.08 -0.08)">
       <use xlink:href="#DejaVuSans-35"/>
      </g>
     </g>
    </g>
    <g id="xtick_5">
     <g id="line2d_5">
      <g>
       <use xlink:href="#m3c201d2859" x="346.719927" y="285.64" style="fill: #888780; stroke: #888780; stroke-width: 0.8"/>
      </g>
     </g>
     <g id="text_5">
      <!-- 10 -->
      <g style="fill: #888780" transform="translate(341.629927 298.71875) scale(0.08 -0.08)">
       <use xlink:href="#DejaVuSans-31"/>
       <use xlink:href="#DejaVuSans-30" transform="translate(63.623047 0)"/>
      </g>
     </g>
    </g>
    <g id="text_6">
     <!-- Value -->
     <g style="fill: #888780" transform="translate(207.752187 311.221094) scale(0.09 -0.09)">
      <defs>
       <path id="DejaVuSans-56" d="M 1831 0 
L 50 4666 
L 709 4666 
L 2188 738 
L 3669 4666 
L 4325 4666 
L 2547 0 
L 1831 0 
z
" transform="scale(0.015625)"/>
       <path id="DejaVuSans-61" d="M 2194 1759 
Q 1497 1759 1228 1600 
Q 959 1441 959 1056 
Q 959 750 1161 570 
Q 1363 391 1709 391 
Q 2188 391 2477 730 
Q 2766 1069 2766 1631 
L 2766 1759 
L 2194 1759 
z
M 3341 1997 
L 3341 0 
L 2766 0 
L 2766 531 
Q 2569 213 2275 61 
Q 1981 -91 1556 -91 
Q 1019 -91 701 211 
Q 384 513 384 1019 
Q 384 1609 779 1909 
Q 1175 2209 1959 2209 
L 2766 2209 
L 2766 2266 
Q 2766 2663 2505 2880 
Q 2244 3097 1772 3097 
Q 1472 3097 1187 3025 
Q 903 2953 641 2809 
L 641 3341 
Q 956 3463 1253 3523 
Q 1550 3584 1831 3584 
Q 2591 3584 2966 3190 
Q 3341 2797 3341 1997 
z
" transform="scale(0.015625)"/>
       <path id="DejaVuSans-6c" d="M 603 4863 
L 1178 4863 
L 1178 0 
L 603 0 
L 603 4863 
z
" transform="scale(0.015625)"/>
       <path id="DejaVuSans-75" d="M 544 1381 
L 544 3500 
L 1119 3500 
L 1119 1403 
Q 1119 906 1312 657 
Q 1506 409 1894 409 
Q 2359 409 2629 706 
Q 2900 1003 2900 1516 
L 2900 3500 
L 3475 3500 
L 3475 0 
L 2900 0 
L 2900 538 
Q 2691 219 2414 64 
Q 2138 -91 1772 -91 
Q 1169 -91 856 284 
Q 544 659 544 1381 
z
M 1991 3584 
L 1991 3584 
z
" transform="scale(0.015625)"/>
       <path id="DejaVuSans-65" d="M 3597 1894 
L 3597 1613 
L 953 1613 
Q 991 1019 1311 708 
Q 1631 397 2203 397 
Q 2534 397 2845 478 
Q 3156 559 3463 722 
L 3463 178 
Q 3153 47 2828 -22 
Q 2503 -91 2169 -91 
Q 1331 -91 842 396 
Q 353 884 353 1716 
Q 353 2575 817 3079 
Q 1281 3584 2069 3584 
Q 2775 3584 3186 3129 
Q 3597 2675 3597 1894 
z
M 3022 2063 
Q 3016 2534 2758 2815 
Q 2500 3097 2075 3097 
Q 1594 3097 1305 2825 
Q 1016 2553 972 2059 
L 3022 2063 
z
" transform="scale(0.015625)"/>
      </defs>
      <use xlink:href="#DejaVuSans-56"/>
      <use xlink:href="#DejaVuSans-61" transform="translate(60.658203 0)"/>
      <use xlink:href="#DejaVuSans-6c" transform="translate(121.9375 0)"/>
      <use xlink:href="#DejaVuSans-75" transform="translate(149.720703 0)"/>
      <use xlink:href="#DejaVuSans-65" transform="translate(213.099609 0)"/>
     </g>
    </g>
   </g>
   <g id="matplotlib.axis_2">
    <g id="ytick_1">
     <g id="line2d_6">
      <path d="M 44.722813 285.64 
L 395.497813 285.64 
" clip-path="url(#p11c769504a)" style="fill: none; stroke: #e0dfd8; stroke-width: 0.6; stroke-linecap: square"/>
     </g>
     <g id="line2d_7">
      <defs>
       <path id="mfedbaed450" d="M 0 0 
L -3.5 0 
" style="stroke: #888780; stroke-width: 0.8"/>
      </defs>
      <g>
       <use xlink:href="#mfedbaed450" x="44.722813" y="285.64" style="fill: #888780; stroke: #888780; stroke-width: 0.8"/>
      </g>
     </g>
     <g id="text_7">
      <!-- 0.00 -->
      <g style="fill: #888780" transform="translate(19.910313 288.679375) scale(0.08 -0.08)">
       <defs>
        <path id="DejaVuSans-2e" d="M 684 794 
L 1344 794 
L 1344 0 
L 684 0 
L 684 794 
z
" transform="scale(0.015625)"/>
       </defs>
       <use xlink:href="#DejaVuSans-30"/>
       <use xlink:href="#DejaVuSans-2e" transform="translate(63.623047 0)"/>
       <use xlink:href="#DejaVuSans-30" transform="translate(95.410156 0)"/>
       <use xlink:href="#DejaVuSans-30" transform="translate(159.033203 0)"/>
      </g>
     </g>
    </g>
    <g id="ytick_2">
     <g id="line2d_8">
      <path d="M 44.722813 250.389757 
L 395.497813 250.389757 
" clip-path="url(#p11c769504a)" style="fill: none; stroke: #e0dfd8; stroke-width: 0.6; stroke-linecap: square"/>
     </g>
     <g id="line2d_9">
      <g>
       <use xlink:href="#mfedbaed450" x="44.722813" y="250.389757" style="fill: #888780; stroke: #888780; stroke-width: 0.8"/>
      </g>
     </g>
     <g id="text_8">
      <!-- 0.02 -->
      <g style="fill: #888780" transform="translate(19.910313 253.429132) scale(0.08 -0.08)">
       <defs>
        <path id="DejaVuSans-32" d="M 1228 531 
L 3431 531 
L 3431 0 
L 469 0 
L 469 531 
Q 828 903 1448 1529 
Q 2069 2156 2228 2338 
Q 2531 2678 2651 2914 
Q 2772 3150 2772 3378 
Q 2772 3750 2511 3984 
Q 2250 4219 1831 4219 
Q 1534 4219 1204 4116 
Q 875 4013 500 3803 
L 500 4441 
Q 881 4594 1212 4672 
Q 1544 4750 1819 4750 
Q 2544 4750 2975 4387 
Q 3406 4025 3406 3419 
Q 3406 3131 3298 2873 
Q 3191 2616 2906 2266 
Q 2828 2175 2409 1742 
Q 1991 1309 1228 531 
z
" transform="scale(0.015625)"/>
       </defs>
       <use xlink:href="#DejaVuSans-30"/>
       <use xlink:href="#DejaVuSans-2e" transform="translate(63.623047 0)"/>
       <use xlink:href="#DejaVuSans-30" transform="translate(95.410156 0)"/>
       <use xlink:href="#DejaVuSans-32" transform="translate(159.033203 0)"/>
      </g>
     </g>
    </g>
    <g id="ytick_3">
     <g id="line2d_10">
      <path d="M 44.722813 215.139514 
L 395.497813 215.139514 
" clip-path="url(#p11c769504a)" style="fill: none; stroke: #e0dfd8; stroke-width: 0.6; stroke-linecap: square"/>
     </g>
     <g id="line2d_11">
      <g>
       <use xlink:href="#mfedbaed450" x="44.722813" y="215.139514" style="fill: #888780; stroke: #888780; stroke-width: 0.8"/>
      </g>
     </g>
     <g id="text_9">
      <!-- 0.04 -->
      <g style="fill: #888780" transform="translate(19.910313 218.178889) scale(0.08 -0.08)">
       <defs>
        <path id="DejaVuSans-34" d="M 2419 4116 
L 825 1625 
L 2419 1625 
L 2419 4116 
z
M 2253 4666 
L 3047 4666 
L 3047 1625 
L 3713 1625 
L 3713 1100 
L 3047 1100 
L 3047 0 
L 2419 0 
L 2419 1100 
L 313 1100 
L 313 1709 
L 2253 4666 
z
" transform="scale(0.015625)"/>
       </defs>
       <use xlink:href="#DejaVuSans-30"/>
       <use xlink:href="#DejaVuSans-2e" transform="translate(63.623047 0)"/>
       <use xlink:href="#DejaVuSans-30" transform="translate(95.410156 0)"/>
       <use xlink:href="#DejaVuSans-34" transform="translate(159.033203 0)"/>
      </g>
     </g>
    </g>
    <g id="ytick_4">
     <g id="line2d_12">
      <path d="M 44.722813 179.889271 
L 395.497813 179.889271 
" clip-path="url(#p11c769504a)" style="fill: none; stroke: #e0dfd8; stroke-width: 0.6; stroke-linecap: square"/>
     </g>
     <g id="line2d_13">
      <g>
       <use xlink:href="#mfedbaed450" x="44.722813" y="179.889271" style="fill: #888780; stroke: #888780; stroke-width: 0.8"/>
      </g>
     </g>
     <g id="text_10">
      <!-- 0.06 -->
      <g style="fill: #888780" transform="translate(19.910313 182.928646) scale(0.08 -0.08)">
       <defs>
        <path id="DejaVuSans-36" d="M 2113 2584 
Q 1688 2584 1439 2293 
Q 1191 2003 1191 1497 
Q 1191 994 1439 701 
Q 1688 409 2113 409 
Q 2538 409 2786 701 
Q 3034 994 3034 1497 
Q 3034 2003 2786 2293 
Q 2538 2584 2113 2584 
z
M 3366 4563 
L 3366 3988 
Q 3128 4100 2886 4159 
Q 2644 4219 2406 4219 
Q 1781 4219 1451 3797 
Q 1122 3375 1075 2522 
Q 1259 2794 1537 2939 
Q 1816 3084 2150 3084 
Q 2853 3084 3261 2657 
Q 3669 2231 3669 1497 
Q 3669 778 3244 343 
Q 2819 -91 2113 -91 
Q 1303 -91 875 529 
Q 447 1150 447 2328 
Q 447 3434 972 4092 
Q 1497 4750 2381 4750 
Q 2619 4750 2861 4703 
Q 3103 4656 3366 4563 
z
" transform="scale(0.015625)"/>
       </defs>
       <use xlink:href="#DejaVuSans-30"/>
       <use xlink:href="#DejaVuSans-2e" transform="translate(63.623047 0)"/>
       <use xlink:href="#DejaVuSans-30" transform="translate(95.410156 0)"/>
       <use xlink:href="#DejaVuSans-36" transform="translate(159.033203 0)"/>
      </g>
     </g>
    </g>
    <g id="ytick_5">
     <g id="line2d_14">
      <path d="M 44.722813 144.639029 
L 395.497813 144.639029 
" clip-path="url(#p11c769504a)" style="fill: none; stroke: #e0dfd8; stroke-width: 0.6; stroke-linecap: square"/>
     </g>
     <g id="line2d_15">
      <g>
       <use xlink:href="#mfedbaed450" x="44.722813" y="144.639029" style="fill: #888780; stroke: #888780; stroke-width: 0.8"/>
      </g>
     </g>
     <g id="text_11">
      <!-- 0.08 -->
      <g style="fill: #888780" transform="translate(19.910313 147.678404) scale(0.08 -0.08)">
       <defs>
        <path id="DejaVuSans-38" d="M 2034 2216 
Q 1584 2216 1326 1975 
Q 1069 1734 1069 1313 
Q 1069 891 1326 650 
Q 1584 409 2034 409 
Q 2484 409 2743 651 
Q 3003 894 3003 1313 
Q 3003 1734 2745 1975 
Q 2488 2216 2034 2216 
z
M 1403 2484 
Q 997 2584 770 2862 
Q 544 3141 544 3541 
Q 544 4100 942 4425 
Q 1341 4750 2034 4750 
Q 2731 4750 3128 4425 
Q 3525 4100 3525 3541 
Q 3525 3141 3298 2862 
Q 3072 2584 2669 2484 
Q 3125 2378 3379 2068 
Q 3634 1759 3634 1313 
Q 3634 634 3220 271 
Q 2806 -91 2034 -91 
Q 1263 -91 848 271 
Q 434 634 434 1313 
Q 434 1759 690 2068 
Q 947 2378 1403 2484 
z
M 1172 3481 
Q 1172 3119 1398 2916 
Q 1625 2713 2034 2713 
Q 2441 2713 2670 2916 
Q 2900 3119 2900 3481 
Q 2900 3844 2670 4047 
Q 2441 4250 2034 4250 
Q 1625 4250 1398 4047 
Q 1172 3844 1172 3481 
z
" transform="scale(0.015625)"/>
       </defs>
       <use xlink:href="#DejaVuSans-30"/>
       <use xlink:href="#DejaVuSans-2e" transform="translate(63.623047 0)"/>
       <use xlink:href="#DejaVuSans-30" transform="translate(95.410156 0)"/>
       <use xlink:href="#DejaVuSans-38" transform="translate(159.033203 0)"/>
      </g>
     </g>
    </g>
    <g id="ytick_6">
     <g id="line2d_16">
      <path d="M 44.722813 109.388786 
L 395.497813 109.388786 
" clip-path="url(#p11c769504a)" style="fill: none; stroke: #e0dfd8; stroke-width: 0.6; stroke-linecap: square"/>
     </g>
     <g id="line2d_17">
      <g>
       <use xlink:href="#mfedbaed450" x="44.722813" y="109.388786" style="fill: #888780; stroke: #888780; stroke-width: 0.8"/>
      </g>
     </g>
     <g id="text_12">
      <!-- 0.10 -->
      <g style="fill: #888780" transform="translate(19.910313 112.428161) scale(0.08 -0.08)">
       <use xlink:href="#DejaVuSans-30"/>
       <use xlink:href="#DejaVuSans-2e" transform="translate(63.623047 0)"/>
       <use xlink:href="#DejaVuSans-31" transform="translate(95.410156 0)"/>
       <use xlink:href="#DejaVuSans-30" transform="translate(159.033203 0)"/>
      </g>
     </g>
    </g>
    <g id="ytick_7">
     <g id="line2d_18">
      <path d="M 44.722813 74.138543 
L 395.497813 74.138543 
" clip-path="url(#p11c769504a)" style="fill: none; stroke: #e0dfd8; stroke-width: 0.6; stroke-linecap: square"/>
     </g>
     <g id="line2d_19">
      <g>
       <use xlink:href="#mfedbaed450" x="44.722813" y="74.138543" style="fill: #888780; stroke: #888780; stroke-width: 0.8"/>
      </g>
     </g>
     <g id="text_13">
      <!-- 0.12 -->
      <g style="fill: #888780" transform="translate(19.910313 77.177918) scale(0.08 -0.08)">
       <use xlink:href="#DejaVuSans-30"/>
       <use xlink:href="#DejaVuSans-2e" transform="translate(63.623047 0)"/>
       <use xlink:href="#DejaVuSans-31" transform="translate(95.410156 0)"/>
       <use xlink:href="#DejaVuSans-32" transform="translate(159.033203 0)"/>
      </g>
     </g>
    </g>
    <g id="text_14">
     <!-- Share of qualified player-seasons -->
     <g style="fill: #888780" transform="translate(14.038594 244.266641) rotate(-90) scale(0.09 -0.09)">
      <defs>
       <path id="DejaVuSans-53" d="M 3425 4513 
L 3425 3897 
Q 3066 4069 2747 4153 
Q 2428 4238 2131 4238 
Q 1616 4238 1336 4038 
Q 1056 3838 1056 3469 
Q 1056 3159 1242 3001 
Q 1428 2844 1947 2747 
L 2328 2669 
Q 3034 2534 3370 2195 
Q 3706 1856 3706 1288 
Q 3706 609 3251 259 
Q 2797 -91 1919 -91 
Q 1588 -91 1214 -16 
Q 841 59 441 206 
L 441 856 
Q 825 641 1194 531 
Q 1563 422 1919 422 
Q 2459 422 2753 634 
Q 3047 847 3047 1241 
Q 3047 1584 2836 1778 
Q 2625 1972 2144 2069 
L 1759 2144 
Q 1053 2284 737 2584 
Q 422 2884 422 3419 
Q 422 4038 858 4394 
Q 1294 4750 2059 4750 
Q 2388 4750 2728 4690 
Q 3069 4631 3425 4513 
z
" transform="scale(0.015625)"/>
       <path id="DejaVuSans-68" d="M 3513 2113 
L 3513 0 
L 2938 0 
L 2938 2094 
Q 2938 2591 2744 2837 
Q 2550 3084 2163 3084 
Q 1697 3084 1428 2787 
Q 1159 2491 1159 1978 
L 1159 0 
L 581 0 
L 581 4863 
L 1159 4863 
L 1159 2956 
Q 1366 3272 1645 3428 
Q 1925 3584 2291 3584 
Q 2894 3584 3203 3211 
Q 3513 2838 3513 2113 
z
" transform="scale(0.015625)"/>
       <path id="DejaVuSans-72" d="M 2631 2963 
Q 2534 3019 2420 3045 
Q 2306 3072 2169 3072 
Q 1681 3072 1420 2755 
Q 1159 2438 1159 1844 
L 1159 0 
L 581 0 
L 581 3500 
L 1159 3500 
L 1159 2956 
Q 1341 3275 1631 3429 
Q 1922 3584 2338 3584 
Q 2397 3584 2469 3576 
Q 2541 3569 2628 3553 
L 2631 2963 
z
" transform="scale(0.015625)"/>
       <path id="DejaVuSans-20" transform="scale(0.015625)"/>
       <path id="DejaVuSans-6f" d="M 1959 3097 
Q 1497 3097 1228 2736 
Q 959 2375 959 1747 
Q 959 1119 1226 758 
Q 1494 397 1959 397 
Q 2419 397 2687 759 
Q 2956 1122 2956 1747 
Q 2956 2369 2687 2733 
Q 2419 3097 1959 3097 
z
M 1959 3584 
Q 2709 3584 3137 3096 
Q 3566 2609 3566 1747 
Q 3566 888 3137 398 
Q 2709 -91 1959 -91 
Q 1206 -91 779 398 
Q 353 888 353 1747 
Q 353 2609 779 3096 
Q 1206 3584 1959 3584 
z
" transform="scale(0.015625)"/>
       <path id="DejaVuSans-66" d="M 2375 4863 
L 2375 4384 
L 1825 4384 
Q 1516 4384 1395 4259 
Q 1275 4134 1275 3809 
L 1275 3500 
L 2222 3500 
L 2222 3053 
L 1275 3053 
L 1275 0 
L 697 0 
L 697 3053 
L 147 3053 
L 147 3500 
L 697 3500 
L 697 3744 
Q 697 4328 969 4595 
Q 1241 4863 1831 4863 
L 2375 4863 
z
" transform="scale(0.015625)"/>
       <path id="DejaVuSans-71" d="M 947 1747 
Q 947 1113 1208 752 
Q 1469 391 1925 391 
Q 2381 391 2643 752 
Q 2906 1113 2906 1747 
Q 2906 2381 2643 2742 
Q 2381 3103 1925 3103 
Q 1469 3103 1208 2742 
Q 947 2381 947 1747 
z
M 2906 525 
Q 2725 213 2448 61 
Q 2172 -91 1784 -91 
Q 1150 -91 751 415 
Q 353 922 353 1747 
Q 353 2572 751 3078 
Q 1150 3584 1784 3584 
Q 2172 3584 2448 3432 
Q 2725 3281 2906 2969 
L 2906 3500 
L 3481 3500 
L 3481 -1331 
L 2906 -1331 
L 2906 525 
z
" transform="scale(0.015625)"/>
       <path id="DejaVuSans-69" d="M 603 3500 
L 1178 3500 
L 1178 0 
L 603 0 
L 603 3500 
z
M 603 4863 
L 1178 4863 
L 1178 4134 
L 603 4134 
L 603 4863 
z
" transform="scale(0.015625)"/>
       <path id="DejaVuSans-64" d="M 2906 2969 
L 2906 4863 
L 3481 4863 
L 3481 0 
L 2906 0 
L 2906 525 
Q 2725 213 2448 61 
Q 2172 -91 1784 -91 
Q 1150 -91 751 415 
Q 353 922 353 1747 
Q 353 2572 751 3078 
Q 1150 3584 1784 3584 
Q 2172 3584 2448 3432 
Q 2725 3281 2906 2969 
z
M 947 1747 
Q 947 1113 1208 752 
Q 1469 391 1925 391 
Q 2381 391 2643 752 
Q 2906 1113 2906 1747 
Q 2906 2381 2643 2742 
Q 2381 3103 1925 3103 
Q 1469 3103 1208 2742 
Q 947 2381 947 1747 
z
" transform="scale(0.015625)"/>
       <path id="DejaVuSans-70" d="M 1159 525 
L 1159 -1331 
L 581 -1331 
L 581 3500 
L 1159 3500 
L 1159 2969 
Q 1341 3281 1617 3432 
Q 1894 3584 2278 3584 
Q 2916 3584 3314 3078 
Q 3713 2572 3713 1747 
Q 3713 922 3314 415 
Q 2916 -91 2278 -91 
Q 1894 -91 1617 61 
Q 1341 213 1159 525 
z
M 3116 1747 
Q 3116 2381 2855 2742 
Q 2594 3103 2138 3103 
Q 1681 3103 1420 2742 
Q 1159 2381 1159 1747 
Q 1159 1113 1420 752 
Q 1681 391 2138 391 
Q 2594 391 2855 752 
Q 3116 1113 3116 1747 
z
" transform="scale(0.015625)"/>
       <path id="DejaVuSans-79" d="M 2059 -325 
Q 1816 -950 1584 -1140 
Q 1353 -1331 966 -1331 
L 506 -1331 
L 506 -850 
L 844 -850 
Q 1081 -850 1212 -737 
Q 1344 -625 1503 -206 
L 1606 56 
L 191 3500 
L 800 3500 
L 1894 763 
L 2988 3500 
L 3597 3500 
L 2059 -325 
z
" transform="scale(0.015625)"/>
       <path id="DejaVuSans-2d" d="M 313 2009 
L 1997 2009 
L 1997 1497 
L 313 1497 
L 313 2009 
z
" transform="scale(0.015625)"/>
       <path id="DejaVuSans-73" d="M 2834 3397 
L 2834 2853 
Q 2591 2978 2328 3040 
Q 2066 3103 1784 3103 
Q 1356 3103 1142 2972 
Q 928 2841 928 2578 
Q 928 2378 1081 2264 
Q 1234 2150 1697 2047 
L 1894 2003 
Q 2506 1872 2764 1633 
Q 3022 1394 3022 966 
Q 3022 478 2636 193 
Q 2250 -91 1575 -91 
Q 1294 -91 989 -36 
Q 684 19 347 128 
L 347 722 
Q 666 556 975 473 
Q 1284 391 1588 391 
Q 1994 391 2212 530 
Q 2431 669 2431 922 
Q 2431 1156 2273 1281 
Q 2116 1406 1581 1522 
L 1381 1569 
Q 847 1681 609 1914 
Q 372 2147 372 2553 
Q 372 3047 722 3315 
Q 1072 3584 1716 3584 
Q 2034 3584 2315 3537 
Q 2597 3491 2834 3397 
z
" transform="scale(0.015625)"/>
       <path id="DejaVuSans-6e" d="M 3513 2113 
L 3513 0 
L 2938 0 
L 2938 2094 
Q 2938 2591 2744 2837 
Q 2550 3084 2163 3084 
Q 1697 3084 1428 2787 
Q 1159 2491 1159 1978 
L 1159 0 
L 581 0 
L 581 3500 
L 1159 3500 
L 1159 2956 
Q 1366 3272 1645 3428 
Q 1925 3584 2291 3584 
Q 2894 3584 3203 3211 
Q 3513 2838 3513 2113 
z
" transform="scale(0.015625)"/>
      </defs>
      <use xlink:href="#DejaVuSans-53"/>
      <use xlink:href="#DejaVuSans-68" transform="translate(63.476562 0)"/>
      <use xlink:href="#DejaVuSans-61" transform="translate(126.855469 0)"/>
      <use xlink:href="#DejaVuSans-72" transform="translate(188.134766 0)"/>
      <use xlink:href="#DejaVuSans-65" transform="translate(226.998047 0)"/>
      <use xlink:href="#DejaVuSans-20" transform="translate(288.521484 0)"/>
      <use xlink:href="#DejaVuSans-6f" transform="translate(320.308594 0)"/>
      <use xlink:href="#DejaVuSans-66" transform="translate(381.490234 0)"/>
      <use xlink:href="#DejaVuSans-20" transform="translate(416.695312 0)"/>
      <use xlink:href="#DejaVuSans-71" transform="translate(448.482422 0)"/>
      <use xlink:href="#DejaVuSans-75" transform="translate(511.958984 0)"/>
      <use xlink:href="#DejaVuSans-61" transform="translate(575.337891 0)"/>
      <use xlink:href="#DejaVuSans-6c" transform="translate(636.617188 0)"/>
      <use xlink:href="#DejaVuSans-69" transform="translate(664.400391 0)"/>
      <use xlink:href="#DejaVuSans-66" transform="translate(692.183594 0)"/>
      <use xlink:href="#DejaVuSans-69" transform="translate(727.388672 0)"/>
      <use xlink:href="#DejaVuSans-65" transform="translate(755.171875 0)"/>
      <use xlink:href="#DejaVuSans-64" transform="translate(816.695312 0)"/>
      <use xlink:href="#DejaVuSans-20" transform="translate(880.171875 0)"/>
      <use xlink:href="#DejaVuSans-70" transform="translate(911.958984 0)"/>
      <use xlink:href="#DejaVuSans-6c" transform="translate(975.435547 0)"/>
      <use xlink:href="#DejaVuSans-61" transform="translate(1003.21875 0)"/>
      <use xlink:href="#DejaVuSans-79" transform="translate(1064.498047 0)"/>
      <use xlink:href="#DejaVuSans-65" transform="translate(1123.677734 0)"/>
      <use xlink:href="#DejaVuSans-72" transform="translate(1185.201172 0)"/>
      <use xlink:href="#DejaVuSans-2d" transform="translate(1219.939453 0)"/>
      <use xlink:href="#DejaVuSans-73" transform="translate(1256.023438 0)"/>
      <use xlink:href="#DejaVuSans-65" transform="translate(1308.123047 0)"/>
      <use xlink:href="#DejaVuSans-61" transform="translate(1369.646484 0)"/>
      <use xlink:href="#DejaVuSans-73" transform="translate(1430.925781 0)"/>
      <use xlink:href="#DejaVuSans-6f" transform="translate(1483.025391 0)"/>
      <use xlink:href="#DejaVuSans-6e" transform="translate(1544.207031 0)"/>
      <use xlink:href="#DejaVuSans-73" transform="translate(1607.585938 0)"/>
     </g>
    </g>
   </g>
   <g id="patch_3">
    <path d="M 60.667131 285.64 
L 71.296676 285.64 
L 71.296676 285.209071 
L 60.667131 285.209071 
z
" clip-path="url(#p11c769504a)" style="fill: #378add; opacity: 0.55; stroke: #ffffff; stroke-width: 0.4; stroke-linejoin: miter"/>
   </g>
   <g id="patch_4">
    <path d="M 71.296676 285.64 
L 81.926222 285.64 
L 81.926222 285.64 
L 71.296676 285.64 
z
" clip-path="url(#p11c769504a)" style="fill: #378add; opacity: 0.55; stroke: #ffffff; stroke-width: 0.4; stroke-linejoin: miter"/>
   </g>
   <g id="patch_5">
    <path d="M 81.926222 285.64 
L 92.555767 285.64 
L 92.555767 285.209071 
L 81.926222 285.209071 
z
" clip-path="url(#p11c769504a)" style="fill: #378add; opacity: 0.55; stroke: #ffffff; stroke-width: 0.4; stroke-linejoin: miter"/>
   </g>
   <g id="patch_6">
    <path d="M 92.555767 285.64 
L 103.185313 285.64 
L 103.185313 285.64 
L 92.555767 285.64 
z
" clip-path="url(#p11c769504a)" style="fill: #378add; opacity: 0.55; stroke: #ffffff; stroke-width: 0.4; stroke-linejoin: miter"/>
   </g>
   <g id="patch_7">
    <path d="M 103.185312 285.64 
L 113.814858 285.64 
L 113.814858 283.485354 
L 103.185312 283.485354 
z
" clip-path="url(#p11c769504a)" style="fill: #378add; opacity: 0.55; stroke: #ffffff; stroke-width: 0.4; stroke-linejoin: miter"/>
   </g>
   <g id="patch_8">
    <path d="M 113.814858 285.64 
L 124.444403 285.64 
L 124.444403 283.054425 
L 113.814858 283.054425 
z
" clip-path="url(#p11c769504a)" style="fill: #378add; opacity: 0.55; stroke: #ffffff; stroke-width: 0.4; stroke-linejoin: miter"/>
   </g>
   <g id="patch_9">
    <path d="M 124.444403 285.64 
L 135.073949 285.64 
L 135.073949 277.452346 
L 124.444403 277.452346 
z
" clip-path="url(#p11c769504a)" style="fill: #378add; opacity: 0.55; stroke: #ffffff; stroke-width: 0.4; stroke-linejoin: miter"/>
   </g>
   <g id="patch_10">
    <path d="M 135.073949 285.64 
L 145.703494 285.64 
L 145.703494 266.248187 
L 135.073949 266.248187 
z
" clip-path="url(#p11c769504a)" style="fill: #378add; opacity: 0.55; stroke: #ffffff; stroke-width: 0.4; stroke-linejoin: miter"/>
   </g>
   <g id="patch_11">
    <path d="M 145.703494 285.64 
L 156.33304 285.64 
L 156.33304 257.629604 
L 145.703494 257.629604 
z
" clip-path="url(#p11c769504a)" style="fill: #378add; opacity: 0.55; stroke: #ffffff; stroke-width: 0.4; stroke-linejoin: miter"/>
   </g>
   <g id="patch_12">
    <path d="M 156.33304 285.64 
L 166.962585 285.64 
L 166.962585 242.116153 
L 156.33304 242.116153 
z
" clip-path="url(#p11c769504a)" style="fill: #378add; opacity: 0.55; stroke: #ffffff; stroke-width: 0.4; stroke-linejoin: miter"/>
   </g>
   <g id="patch_13">
    <path d="M 166.962585 285.64 
L 177.592131 285.64 
L 177.592131 204.194386 
L 166.962585 204.194386 
z
" clip-path="url(#p11c769504a)" style="fill: #378add; opacity: 0.55; stroke: #ffffff; stroke-width: 0.4; stroke-linejoin: miter"/>
   </g>
   <g id="patch_14">
    <path d="M 177.592131 285.64 
L 188.221676 285.64 
L 188.221676 173.598415 
L 177.592131 173.598415 
z
" clip-path="url(#p11c769504a)" style="fill: #378add; opacity: 0.55; stroke: #ffffff; stroke-width: 0.4; stroke-linejoin: miter"/>
   </g>
   <g id="patch_15">
    <path d="M 188.221676 285.64 
L 198.851222 285.64 
L 198.851222 133.091072 
L 188.221676 133.091072 
z
" clip-path="url(#p11c769504a)" style="fill: #378add; opacity: 0.55; stroke: #ffffff; stroke-width: 0.4; stroke-linejoin: miter"/>
   </g>
   <g id="patch_16">
    <path d="M 198.851222 285.64 
L 209.480767 285.64 
L 209.480767 110.682755 
L 198.851222 110.682755 
z
" clip-path="url(#p11c769504a)" style="fill: #378add; opacity: 0.55; stroke: #ffffff; stroke-width: 0.4; stroke-linejoin: miter"/>
   </g>
   <g id="patch_17">
    <path d="M 209.480767 285.64 
L 220.110312 285.64 
L 220.110312 80.086784 
L 209.480767 80.086784 
z
" clip-path="url(#p11c769504a)" style="fill: #378add; opacity: 0.55; stroke: #ffffff; stroke-width: 0.4; stroke-linejoin: miter"/>
   </g>
   <g id="patch_18">
    <path d="M 220.110312 285.64 
L 230.739858 285.64 
L 230.739858 64.573333 
L 220.110312 64.573333 
z
" clip-path="url(#p11c769504a)" style="fill: #378add; opacity: 0.55; stroke: #ffffff; stroke-width: 0.4; stroke-linejoin: miter"/>
   </g>
   <g id="patch_19">
    <path d="M 230.739858 285.64 
L 241.369403 285.64 
L 241.369403 69.744483 
L 230.739858 69.744483 
z
" clip-path="url(#p11c769504a)" style="fill: #378add; opacity: 0.55; stroke: #ffffff; stroke-width: 0.4; stroke-linejoin: miter"/>
   </g>
   <g id="patch_20">
    <path d="M 241.369403 285.64 
L 251.998949 285.64 
L 251.998949 88.274438 
L 241.369403 88.274438 
z
" clip-path="url(#p11c769504a)" style="fill: #378add; opacity: 0.55; stroke: #ffffff; stroke-width: 0.4; stroke-linejoin: miter"/>
   </g>
   <g id="patch_21">
    <path d="M 251.998949 285.64 
L 262.628494 285.64 
L 262.628494 126.627135 
L 251.998949 126.627135 
z
" clip-path="url(#p11c769504a)" style="fill: #378add; opacity: 0.55; stroke: #ffffff; stroke-width: 0.4; stroke-linejoin: miter"/>
   </g>
   <g id="patch_22">
    <path d="M 262.628494 285.64 
L 273.25804 285.64 
L 273.25804 150.328239 
L 262.628494 150.328239 
z
" clip-path="url(#p11c769504a)" style="fill: #378add; opacity: 0.55; stroke: #ffffff; stroke-width: 0.4; stroke-linejoin: miter"/>
   </g>
   <g id="patch_23">
    <path d="M 273.25804 285.64 
L 283.887585 285.64 
L 283.887585 195.575802 
L 273.25804 195.575802 
z
" clip-path="url(#p11c769504a)" style="fill: #378add; opacity: 0.55; stroke: #ffffff; stroke-width: 0.4; stroke-linejoin: miter"/>
   </g>
   <g id="patch_24">
    <path d="M 283.887585 285.64 
L 294.517131 285.64 
L 294.517131 219.276907 
L 283.887585 219.276907 
z
" clip-path="url(#p11c769504a)" style="fill: #378add; opacity: 0.55; stroke: #ffffff; stroke-width: 0.4; stroke-linejoin: miter"/>
   </g>
   <g id="patch_25">
    <path d="M 294.517131 285.64 
L 305.146676 285.64 
L 305.146676 244.270799 
L 294.517131 244.270799 
z
" clip-path="url(#p11c769504a)" style="fill: #378add; opacity: 0.55; stroke: #ffffff; stroke-width: 0.4; stroke-linejoin: miter"/>
   </g>
   <g id="patch_26">
    <path d="M 305.146676 285.64 
L 315.776222 285.64 
L 315.776222 258.922391 
L 305.146676 258.922391 
z
" clip-path="url(#p11c769504a)" style="fill: #378add; opacity: 0.55; stroke: #ffffff; stroke-width: 0.4; stroke-linejoin: miter"/>
   </g>
   <g id="patch_27">
    <path d="M 315.776222 285.64 
L 326.405767 285.64 
L 326.405767 270.12655 
L 315.776222 270.12655 
z
" clip-path="url(#p11c769504a)" style="fill: #378add; opacity: 0.55; stroke: #ffffff; stroke-width: 0.4; stroke-linejoin: miter"/>
   </g>
   <g id="patch_28">
    <path d="M 326.405767 285.64 
L 337.035312 285.64 
L 337.035312 276.159558 
L 326.405767 276.159558 
z
" clip-path="url(#p11c769504a)" style="fill: #378add; opacity: 0.55; stroke: #ffffff; stroke-width: 0.4; stroke-linejoin: miter"/>
   </g>
   <g id="patch_29">
    <path d="M 337.035312 285.64 
L 347.664858 285.64 
L 347.664858 281.330708 
L 337.035312 281.330708 
z
" clip-path="url(#p11c769504a)" style="fill: #378add; opacity: 0.55; stroke: #ffffff; stroke-width: 0.4; stroke-linejoin: miter"/>
   </g>
   <g id="patch_30">
    <path d="M 347.664858 285.64 
L 358.294403 285.64 
L 358.294403 284.778142 
L 347.664858 284.778142 
z
" clip-path="url(#p11c769504a)" style="fill: #378add; opacity: 0.55; stroke: #ffffff; stroke-width: 0.4; stroke-linejoin: miter"/>
   </g>
   <g id="patch_31">
    <path d="M 358.294403 285.64 
L 368.923949 285.64 
L 368.923949 285.209071 
L 358.294403 285.209071 
z
" clip-path="url(#p11c769504a)" style="fill: #378add; opacity: 0.55; stroke: #ffffff; stroke-width: 0.4; stroke-linejoin: miter"/>
   </g>
   <g id="patch_32">
    <path d="M 368.923949 285.64 
L 379.553494 285.64 
L 379.553494 284.778142 
L 368.923949 284.778142 
z
" clip-path="url(#p11c769504a)" style="fill: #378add; opacity: 0.55; stroke: #ffffff; stroke-width: 0.4; stroke-linejoin: miter"/>
   </g>
   <g id="patch_33">
    <path d="M 44.722813 285.64 
L 44.722813 53.52 
" style="fill: none; stroke: #000000; stroke-width: 0.8; stroke-linejoin: miter; stroke-linecap: square"/>
   </g>
   <g id="patch_34">
    <path d="M 44.722813 285.64 
L 395.497813 285.64 
" style="fill: none; stroke: #000000; stroke-width: 0.8; stroke-linejoin: miter; stroke-linecap: square"/>
   </g>
   <g id="line2d_20">
    <path d="M 60.667131 285.619387 
L 81.498903 285.462704 
L 91.113567 285.20503 
L 99.125788 284.762591 
L 105.535564 284.147662 
L 110.342896 283.456223 
L 115.150228 282.492361 
L 118.355116 281.657193 
L 121.560004 280.634169 
L 124.764892 279.390495 
L 127.96978 277.890071 
L 131.174668 276.093759 
L 134.379556 273.959817 
L 137.584445 271.44454 
L 140.789333 268.503116 
L 143.994221 265.090709 
L 147.199109 261.163777 
L 150.403997 256.681601 
L 153.608885 251.608016 
L 156.813773 245.913293 
L 160.018661 239.576127 
L 163.223549 232.585661 
L 166.428437 224.943458 
L 169.633325 216.66534 
L 172.838213 207.782982 
L 176.043101 198.345166 
L 180.850434 183.297848 
L 185.657766 167.456634 
L 198.477318 124.524909 
L 201.682206 114.446356 
L 204.887094 104.955195 
L 208.091982 96.214603 
L 211.29687 88.380758 
L 212.899314 84.849619 
L 214.501758 81.598224 
L 216.104202 78.642105 
L 217.706646 75.995532 
L 219.30909 73.6714 
L 220.911535 71.681127 
L 222.513979 70.03456 
L 224.116423 68.739889 
L 225.718867 67.803587 
L 227.321311 67.230348 
L 228.923755 67.023055 
L 230.526199 67.182752 
L 232.128643 67.708633 
L 233.731087 68.598056 
L 235.333531 69.846557 
L 236.935975 71.447893 
L 238.538419 73.394092 
L 240.140863 75.675518 
L 241.743307 78.280954 
L 243.345751 81.197687 
L 244.948195 84.411622 
L 248.153083 91.668445 
L 251.357971 99.915393 
L 254.562859 109.002289 
L 257.767747 118.769339 
L 262.57508 134.334518 
L 278.59952 187.759653 
L 283.406852 202.516211 
L 286.61174 211.719464 
L 289.816628 220.343867 
L 293.021516 228.348209 
L 296.226404 235.707891 
L 299.431292 242.413507 
L 302.63618 248.469134 
L 305.841069 253.890424 
L 309.045957 258.702594 
L 312.250845 262.938415 
L 315.455733 266.636256 
L 318.660621 269.838266 
L 321.865509 272.588726 
L 325.070397 274.93261 
L 328.275285 276.914367 
L 331.480173 278.576941 
L 334.685061 279.961007 
L 337.889949 281.104425 
L 341.094837 282.041877 
L 344.299725 282.804679 
L 349.107058 283.68151 
L 353.91439 284.307472 
L 360.324166 284.861118 
L 368.336386 285.256685 
L 377.95105 285.485123 
L 379.553494 285.507614 
L 379.553494 285.507614 
" clip-path="url(#p11c769504a)" style="fill: none; stroke: #222222; stroke-opacity: 0.8; stroke-width: 1.3; stroke-linecap: square"/>
   </g>
   <g id="text_15">
    <g id="patch_35">
     <path d="M 297.009562 84.22675 
L 384.974562 84.22675 
Q 387.374562 84.22675 387.374562 81.82675 
L 387.374562 65.126 
Q 387.374562 62.726 384.974562 62.726 
L 297.009562 62.726 
Q 294.609562 62.726 294.609562 65.126 
L 294.609562 81.82675 
Q 294.609562 84.22675 297.009562 84.22675 
z
" style="fill: #ffffff; opacity: 0.85; stroke: #dddddd; stroke-linejoin: miter"/>
    </g>
    <!-- skew +0.06 -->
    <g style="fill: #888780" transform="translate(337.940812 71.20475) scale(0.08 -0.08)">
     <defs>
      <path id="DejaVuSans-6b" d="M 581 4863 
L 1159 4863 
L 1159 1991 
L 2875 3500 
L 3609 3500 
L 1753 1863 
L 3688 0 
L 2938 0 
L 1159 1709 
L 1159 0 
L 581 0 
L 581 4863 
z
" transform="scale(0.015625)"/>
      <path id="DejaVuSans-77" d="M 269 3500 
L 844 3500 
L 1563 769 
L 2278 3500 
L 2956 3500 
L 3675 769 
L 4391 3500 
L 4966 3500 
L 4050 0 
L 3372 0 
L 2619 2869 
L 1863 0 
L 1184 0 
L 269 3500 
z
" transform="scale(0.015625)"/>
      <path id="DejaVuSans-2b" d="M 2944 4013 
L 2944 2272 
L 4684 2272 
L 4684 1741 
L 2944 1741 
L 2944 0 
L 2419 0 
L 2419 1741 
L 678 1741 
L 678 2272 
L 2419 2272 
L 2419 4013 
L 2944 4013 
z
" transform="scale(0.015625)"/>
     </defs>
     <use xlink:href="#DejaVuSans-73"/>
     <use xlink:href="#DejaVuSans-6b" transform="translate(52.099609 0)"/>
     <use xlink:href="#DejaVuSans-65" transform="translate(106.384766 0)"/>
     <use xlink:href="#DejaVuSans-77" transform="translate(167.908203 0)"/>
     <use xlink:href="#DejaVuSans-20" transform="translate(249.695312 0)"/>
     <use xlink:href="#DejaVuSans-2b" transform="translate(281.482422 0)"/>
     <use xlink:href="#DejaVuSans-30" transform="translate(365.271484 0)"/>
     <use xlink:href="#DejaVuSans-2e" transform="translate(428.894531 0)"/>
     <use xlink:href="#DejaVuSans-30" transform="translate(460.681641 0)"/>
     <use xlink:href="#DejaVuSans-36" transform="translate(524.304688 0)"/>
    </g>
    <!-- excess kurtosis +0.06 -->
    <g style="fill: #888780" transform="translate(297.009562 80.163) scale(0.08 -0.08)">
     <defs>
      <path id="DejaVuSans-78" d="M 3513 3500 
L 2247 1797 
L 3578 0 
L 2900 0 
L 1881 1375 
L 863 0 
L 184 0 
L 1544 1831 
L 300 3500 
L 978 3500 
L 1906 2253 
L 2834 3500 
L 3513 3500 
z
" transform="scale(0.015625)"/>
      <path id="DejaVuSans-63" d="M 3122 3366 
L 3122 2828 
Q 2878 2963 2633 3030 
Q 2388 3097 2138 3097 
Q 1578 3097 1268 2742 
Q 959 2388 959 1747 
Q 959 1106 1268 751 
Q 1578 397 2138 397 
Q 2388 397 2633 464 
Q 2878 531 3122 666 
L 3122 134 
Q 2881 22 2623 -34 
Q 2366 -91 2075 -91 
Q 1284 -91 818 406 
Q 353 903 353 1747 
Q 353 2603 823 3093 
Q 1294 3584 2113 3584 
Q 2378 3584 2631 3529 
Q 2884 3475 3122 3366 
z
" transform="scale(0.015625)"/>
      <path id="DejaVuSans-74" d="M 1172 4494 
L 1172 3500 
L 2356 3500 
L 2356 3053 
L 1172 3053 
L 1172 1153 
Q 1172 725 1289 603 
Q 1406 481 1766 481 
L 2356 481 
L 2356 0 
L 1766 0 
Q 1100 0 847 248 
Q 594 497 594 1153 
L 594 3053 
L 172 3053 
L 172 3500 
L 594 3500 
L 594 4494 
L 1172 4494 
z
" transform="scale(0.015625)"/>
     </defs>
     <use xlink:href="#DejaVuSans-65"/>
     <use xlink:href="#DejaVuSans-78" transform="translate(59.773438 0)"/>
     <use xlink:href="#DejaVuSans-63" transform="translate(117.203125 0)"/>
     <use xlink:href="#DejaVuSans-65" transform="translate(172.183594 0)"/>
     <use xlink:href="#DejaVuSans-73" transform="translate(233.707031 0)"/>
     <use xlink:href="#DejaVuSans-73" transform="translate(285.806641 0)"/>
     <use xlink:href="#DejaVuSans-20" transform="translate(337.90625 0)"/>
     <use xlink:href="#DejaVuSans-6b" transform="translate(369.693359 0)"/>
     <use xlink:href="#DejaVuSans-75" transform="translate(424.478516 0)"/>
     <use xlink:href="#DejaVuSans-72" transform="translate(487.857422 0)"/>
     <use xlink:href="#DejaVuSans-74" transform="translate(528.970703 0)"/>
     <use xlink:href="#DejaVuSans-6f" transform="translate(568.179688 0)"/>
     <use xlink:href="#DejaVuSans-73" transform="translate(629.361328 0)"/>
     <use xlink:href="#DejaVuSans-69" transform="translate(681.460938 0)"/>
     <use xlink:href="#DejaVuSans-73" transform="translate(709.244141 0)"/>
     <use xlink:href="#DejaVuSans-20" transform="translate(761.34375 0)"/>
     <use xlink:href="#DejaVuSans-2b" transform="translate(793.130859 0)"/>
     <use xlink:href="#DejaVuSans-30" transform="translate(876.919922 0)"/>
     <use xlink:href="#DejaVuSans-2e" transform="translate(940.542969 0)"/>
     <use xlink:href="#DejaVuSans-30" transform="translate(972.330078 0)"/>
     <use xlink:href="#DejaVuSans-36" transform="translate(1035.953125 0)"/>
    </g>
   </g>
   <g id="text_16">
    <!-- RAPM: near-symmetric bell, no heavy tail -->
    <g style="fill: #222222" transform="translate(117.195469 47.52) scale(0.1 -0.1)">
     <defs>
      <path id="DejaVuSans-52" d="M 2841 2188 
Q 3044 2119 3236 1894 
Q 3428 1669 3622 1275 
L 4263 0 
L 3584 0 
L 2988 1197 
Q 2756 1666 2539 1819 
Q 2322 1972 1947 1972 
L 1259 1972 
L 1259 0 
L 628 0 
L 628 4666 
L 2053 4666 
Q 2853 4666 3247 4331 
Q 3641 3997 3641 3322 
Q 3641 2881 3436 2590 
Q 3231 2300 2841 2188 
z
M 1259 4147 
L 1259 2491 
L 2053 2491 
Q 2509 2491 2742 2702 
Q 2975 2913 2975 3322 
Q 2975 3731 2742 3939 
Q 2509 4147 2053 4147 
L 1259 4147 
z
" transform="scale(0.015625)"/>
      <path id="DejaVuSans-41" d="M 2188 4044 
L 1331 1722 
L 3047 1722 
L 2188 4044 
z
M 1831 4666 
L 2547 4666 
L 4325 0 
L 3669 0 
L 3244 1197 
L 1141 1197 
L 716 0 
L 50 0 
L 1831 4666 
z
" transform="scale(0.015625)"/>
      <path id="DejaVuSans-50" d="M 1259 4147 
L 1259 2394 
L 2053 2394 
Q 2494 2394 2734 2622 
Q 2975 2850 2975 3272 
Q 2975 3691 2734 3919 
Q 2494 4147 2053 4147 
L 1259 4147 
z
M 628 4666 
L 2053 4666 
Q 2838 4666 3239 4311 
Q 3641 3956 3641 3272 
Q 3641 2581 3239 2228 
Q 2838 1875 2053 1875 
L 1259 1875 
L 1259 0 
L 628 0 
L 628 4666 
z
" transform="scale(0.015625)"/>
      <path id="DejaVuSans-4d" d="M 628 4666 
L 1569 4666 
L 2759 1491 
L 3956 4666 
L 4897 4666 
L 4897 0 
L 4281 0 
L 4281 4097 
L 3078 897 
L 2444 897 
L 1241 4097 
L 1241 0 
L 628 0 
L 628 4666 
z
" transform="scale(0.015625)"/>
      <path id="DejaVuSans-3a" d="M 750 794 
L 1409 794 
L 1409 0 
L 750 0 
L 750 794 
z
M 750 3309 
L 1409 3309 
L 1409 2516 
L 750 2516 
L 750 3309 
z
" transform="scale(0.015625)"/>
      <path id="DejaVuSans-6d" d="M 3328 2828 
Q 3544 3216 3844 3400 
Q 4144 3584 4550 3584 
Q 5097 3584 5394 3201 
Q 5691 2819 5691 2113 
L 5691 0 
L 5113 0 
L 5113 2094 
Q 5113 2597 4934 2840 
Q 4756 3084 4391 3084 
Q 3944 3084 3684 2787 
Q 3425 2491 3425 1978 
L 3425 0 
L 2847 0 
L 2847 2094 
Q 2847 2600 2669 2842 
Q 2491 3084 2119 3084 
Q 1678 3084 1418 2786 
Q 1159 2488 1159 1978 
L 1159 0 
L 581 0 
L 581 3500 
L 1159 3500 
L 1159 2956 
Q 1356 3278 1631 3431 
Q 1906 3584 2284 3584 
Q 2666 3584 2933 3390 
Q 3200 3197 3328 2828 
z
" transform="scale(0.015625)"/>
      <path id="DejaVuSans-62" d="M 3116 1747 
Q 3116 2381 2855 2742 
Q 2594 3103 2138 3103 
Q 1681 3103 1420 2742 
Q 1159 2381 1159 1747 
Q 1159 1113 1420 752 
Q 1681 391 2138 391 
Q 2594 391 2855 752 
Q 3116 1113 3116 1747 
z
M 1159 2969 
Q 1341 3281 1617 3432 
Q 1894 3584 2278 3584 
Q 2916 3584 3314 3078 
Q 3713 2572 3713 1747 
Q 3713 922 3314 415 
Q 2916 -91 2278 -91 
Q 1894 -91 1617 61 
Q 1341 213 1159 525 
L 1159 0 
L 581 0 
L 581 4863 
L 1159 4863 
L 1159 2969 
z
" transform="scale(0.015625)"/>
      <path id="DejaVuSans-2c" d="M 750 794 
L 1409 794 
L 1409 256 
L 897 -744 
L 494 -744 
L 750 256 
L 750 794 
z
" transform="scale(0.015625)"/>
      <path id="DejaVuSans-76" d="M 191 3500 
L 800 3500 
L 1894 563 
L 2988 3500 
L 3597 3500 
L 2284 0 
L 1503 0 
L 191 3500 
z
" transform="scale(0.015625)"/>
     </defs>
     <use xlink:href="#DejaVuSans-52"/>
     <use xlink:href="#DejaVuSans-41" transform="translate(65.482422 0)"/>
     <use xlink:href="#DejaVuSans-50" transform="translate(133.890625 0)"/>
     <use xlink:href="#DejaVuSans-4d" transform="translate(194.193359 0)"/>
     <use xlink:href="#DejaVuSans-3a" transform="translate(280.472656 0)"/>
     <use xlink:href="#DejaVuSans-20" transform="translate(314.164062 0)"/>
     <use xlink:href="#DejaVuSans-6e" transform="translate(345.951172 0)"/>
     <use xlink:href="#DejaVuSans-65" transform="translate(409.330078 0)"/>
     <use xlink:href="#DejaVuSans-61" transform="translate(470.853516 0)"/>
     <use xlink:href="#DejaVuSans-72" transform="translate(532.132812 0)"/>
     <use xlink:href="#DejaVuSans-2d" transform="translate(566.871094 0)"/>
     <use xlink:href="#DejaVuSans-73" transform="translate(602.955078 0)"/>
     <use xlink:href="#DejaVuSans-79" transform="translate(655.054688 0)"/>
     <use xlink:href="#DejaVuSans-6d" transform="translate(714.234375 0)"/>
     <use xlink:href="#DejaVuSans-6d" transform="translate(811.646484 0)"/>
     <use xlink:href="#DejaVuSans-65" transform="translate(909.058594 0)"/>
     <use xlink:href="#DejaVuSans-74" transform="translate(970.582031 0)"/>
     <use xlink:href="#DejaVuSans-72" transform="translate(1009.791016 0)"/>
     <use xlink:href="#DejaVuSans-69" transform="translate(1050.904297 0)"/>
     <use xlink:href="#DejaVuSans-63" transform="translate(1078.6875 0)"/>
     <use xlink:href="#DejaVuSans-20" transform="translate(1133.667969 0)"/>
     <use xlink:href="#DejaVuSans-62" transform="translate(1165.455078 0)"/>
     <use xlink:href="#DejaVuSans-65" transform="translate(1228.931641 0)"/>
     <use xlink:href="#DejaVuSans-6c" transform="translate(1290.455078 0)"/>
     <use xlink:href="#DejaVuSans-6c" transform="translate(1318.238281 0)"/>
     <use xlink:href="#DejaVuSans-2c" transform="translate(1346.021484 0)"/>
     <use xlink:href="#DejaVuSans-20" transform="translate(1377.808594 0)"/>
     <use xlink:href="#DejaVuSans-6e" transform="translate(1409.595703 0)"/>
     <use xlink:href="#DejaVuSans-6f" transform="translate(1472.974609 0)"/>
     <use xlink:href="#DejaVuSans-20" transform="translate(1534.15625 0)"/>
     <use xlink:href="#DejaVuSans-68" transform="translate(1565.943359 0)"/>
     <use xlink:href="#DejaVuSans-65" transform="translate(1629.322266 0)"/>
     <use xlink:href="#DejaVuSans-61" transform="translate(1690.845703 0)"/>
     <use xlink:href="#DejaVuSans-76" transform="translate(1752.125 0)"/>
     <use xlink:href="#DejaVuSans-79" transform="translate(1811.304688 0)"/>
     <use xlink:href="#DejaVuSans-20" transform="translate(1870.484375 0)"/>
     <use xlink:href="#DejaVuSans-74" transform="translate(1902.271484 0)"/>
     <use xlink:href="#DejaVuSans-61" transform="translate(1941.480469 0)"/>
     <use xlink:href="#DejaVuSans-69" transform="translate(2002.759766 0)"/>
     <use xlink:href="#DejaVuSans-6c" transform="translate(2030.542969 0)"/>
    </g>
   </g>
   <g id="legend_1">
    <g id="line2d_21">
     <path d="M 51.472813 63.343828 
L 58.972813 63.343828 
L 66.472813 63.343828 
" style="fill: none; stroke: #222222; stroke-opacity: 0.8; stroke-width: 1.3; stroke-linecap: square"/>
    </g>
    <g id="text_17">
     <!-- normal curve -->
     <g transform="translate(72.472813 65.968828) scale(0.075 -0.075)">
      <use xlink:href="#DejaVuSans-6e"/>
      <use xlink:href="#DejaVuSans-6f" transform="translate(63.378906 0)"/>
      <use xlink:href="#DejaVuSans-72" transform="translate(124.560547 0)"/>
      <use xlink:href="#DejaVuSans-6d" transform="translate(163.923828 0)"/>
      <use xlink:href="#DejaVuSans-61" transform="translate(261.335938 0)"/>
      <use xlink:href="#DejaVuSans-6c" transform="translate(322.615234 0)"/>
      <use xlink:href="#DejaVuSans-20" transform="translate(350.398438 0)"/>
      <use xlink:href="#DejaVuSans-63" transform="translate(382.185547 0)"/>
      <use xlink:href="#DejaVuSans-75" transform="translate(437.166016 0)"/>
      <use xlink:href="#DejaVuSans-72" transform="translate(500.544922 0)"/>
      <use xlink:href="#DejaVuSans-76" transform="translate(541.658203 0)"/>
      <use xlink:href="#DejaVuSans-65" transform="translate(600.837891 0)"/>
     </g>
    </g>
   </g>
  </g>
  <g id="axes_2">
   <g id="patch_36">
    <path d="M 426.077812 285.64 
L 776.852812 285.64 
L 776.852812 53.52 
L 426.077812 53.52 
z
" style="fill: #ffffff"/>
   </g>
   <g id="matplotlib.axis_3">
    <g id="xtick_6">
     <g id="line2d_22">
      <g>
       <use xlink:href="#m3c201d2859" x="429.168176" y="285.64" style="fill: #888780; stroke: #888780; stroke-width: 0.8"/>
      </g>
     </g>
     <g id="text_18">
      <!-- −4 -->
      <g style="fill: #888780" transform="translate(423.271301 298.71875) scale(0.08 -0.08)">
       <use xlink:href="#DejaVuSans-2212"/>
       <use xlink:href="#DejaVuSans-34" transform="translate(83.789062 0)"/>
      </g>
     </g>
    </g>
    <g id="xtick_7">
     <g id="line2d_23">
      <g>
       <use xlink:href="#m3c201d2859" x="477.202515" y="285.64" style="fill: #888780; stroke: #888780; stroke-width: 0.8"/>
      </g>
     </g>
     <g id="text_19">
      <!-- −2 -->
      <g style="fill: #888780" transform="translate(471.30564 298.71875) scale(0.08 -0.08)">
       <use xlink:href="#DejaVuSans-2212"/>
       <use xlink:href="#DejaVuSans-32" transform="translate(83.789062 0)"/>
      </g>
     </g>
    </g>
    <g id="xtick_8">
     <g id="line2d_24">
      <g>
       <use xlink:href="#m3c201d2859" x="525.236853" y="285.64" style="fill: #888780; stroke: #888780; stroke-width: 0.8"/>
      </g>
     </g>
     <g id="text_20">
      <!-- 0 -->
      <g style="fill: #888780" transform="translate(522.691853 298.71875) scale(0.08 -0.08)">
       <use xlink:href="#DejaVuSans-30"/>
      </g>
     </g>
    </g>
    <g id="xtick_9">
     <g id="line2d_25">
      <g>
       <use xlink:href="#m3c201d2859" x="573.271192" y="285.64" style="fill: #888780; stroke: #888780; stroke-width: 0.8"/>
      </g>
     </g>
     <g id="text_21">
      <!-- 2 -->
      <g style="fill: #888780" transform="translate(570.726192 298.71875) scale(0.08 -0.08)">
       <use xlink:href="#DejaVuSans-32"/>
      </g>
     </g>
    </g>
    <g id="xtick_10">
     <g id="line2d_26">
      <g>
       <use xlink:href="#m3c201d2859" x="621.30553" y="285.64" style="fill: #888780; stroke: #888780; stroke-width: 0.8"/>
      </g>
     </g>
     <g id="text_22">
      <!-- 4 -->
      <g style="fill: #888780" transform="translate(618.76053 298.71875) scale(0.08 -0.08)">
       <use xlink:href="#DejaVuSans-34"/>
      </g>
     </g>
    </g>
    <g id="xtick_11">
     <g id="line2d_27">
      <g>
       <use xlink:href="#m3c201d2859" x="669.339869" y="285.64" style="fill: #888780; stroke: #888780; stroke-width: 0.8"/>
      </g>
     </g>
     <g id="text_23">
      <!-- 6 -->
      <g style="fill: #888780" transform="translate(666.794869 298.71875) scale(0.08 -0.08)">
       <use xlink:href="#DejaVuSans-36"/>
      </g>
     </g>
    </g>
    <g id="xtick_12">
     <g id="line2d_28">
      <g>
       <use xlink:href="#m3c201d2859" x="717.374207" y="285.64" style="fill: #888780; stroke: #888780; stroke-width: 0.8"/>
      </g>
     </g>
     <g id="text_24">
      <!-- 8 -->
      <g style="fill: #888780" transform="translate(714.829207 298.71875) scale(0.08 -0.08)">
       <use xlink:href="#DejaVuSans-38"/>
      </g>
     </g>
    </g>
    <g id="xtick_13">
     <g id="line2d_29">
      <g>
       <use xlink:href="#m3c201d2859" x="765.408546" y="285.64" style="fill: #888780; stroke: #888780; stroke-width: 0.8"/>
      </g>
     </g>
     <g id="text_25">
      <!-- 10 -->
      <g style="fill: #888780" transform="translate(760.318546 298.71875) scale(0.08 -0.08)">
       <use xlink:href="#DejaVuSans-31"/>
       <use xlink:href="#DejaVuSans-30" transform="translate(63.623047 0)"/>
      </g>
     </g>
    </g>
    <g id="text_26">
     <!-- Value -->
     <g style="fill: #888780" transform="translate(589.107187 311.221094) scale(0.09 -0.09)">
      <use xlink:href="#DejaVuSans-56"/>
      <use xlink:href="#DejaVuSans-61" transform="translate(60.658203 0)"/>
      <use xlink:href="#DejaVuSans-6c" transform="translate(121.9375 0)"/>
      <use xlink:href="#DejaVuSans-75" transform="translate(149.720703 0)"/>
      <use xlink:href="#DejaVuSans-65" transform="translate(213.099609 0)"/>
     </g>
    </g>
   </g>
   <g id="matplotlib.axis_4">
    <g id="ytick_8">
     <g id="line2d_30">
      <path d="M 426.077812 285.64 
L 776.852812 285.64 
" clip-path="url(#p25c95c0187)" style="fill: none; stroke: #e0dfd8; stroke-width: 0.6; stroke-linecap: square"/>
     </g>
     <g id="line2d_31">
      <g>
       <use xlink:href="#mfedbaed450" x="426.077812" y="285.64" style="fill: #888780; stroke: #888780; stroke-width: 0.8"/>
      </g>
     </g>
     <g id="text_27">
      <!-- 0.0 -->
      <g style="fill: #888780" transform="translate(406.355312 288.679375) scale(0.08 -0.08)">
       <use xlink:href="#DejaVuSans-30"/>
       <use xlink:href="#DejaVuSans-2e" transform="translate(63.623047 0)"/>
       <use xlink:href="#DejaVuSans-30" transform="translate(95.410156 0)"/>
      </g>
     </g>
    </g>
    <g id="ytick_9">
     <g id="line2d_32">
      <path d="M 426.077812 239.135251 
L 776.852812 239.135251 
" clip-path="url(#p25c95c0187)" style="fill: none; stroke: #e0dfd8; stroke-width: 0.6; stroke-linecap: square"/>
     </g>
     <g id="line2d_33">
      <g>
       <use xlink:href="#mfedbaed450" x="426.077812" y="239.135251" style="fill: #888780; stroke: #888780; stroke-width: 0.8"/>
      </g>
     </g>
     <g id="text_28">
      <!-- 0.1 -->
      <g style="fill: #888780" transform="translate(406.355312 242.174626) scale(0.08 -0.08)">
       <use xlink:href="#DejaVuSans-30"/>
       <use xlink:href="#DejaVuSans-2e" transform="translate(63.623047 0)"/>
       <use xlink:href="#DejaVuSans-31" transform="translate(95.410156 0)"/>
      </g>
     </g>
    </g>
    <g id="ytick_10">
     <g id="line2d_34">
      <path d="M 426.077812 192.630501 
L 776.852812 192.630501 
" clip-path="url(#p25c95c0187)" style="fill: none; stroke: #e0dfd8; stroke-width: 0.6; stroke-linecap: square"/>
     </g>
     <g id="line2d_35">
      <g>
       <use xlink:href="#mfedbaed450" x="426.077812" y="192.630501" style="fill: #888780; stroke: #888780; stroke-width: 0.8"/>
      </g>
     </g>
     <g id="text_29">
      <!-- 0.2 -->
      <g style="fill: #888780" transform="translate(406.355312 195.669876) scale(0.08 -0.08)">
       <use xlink:href="#DejaVuSans-30"/>
       <use xlink:href="#DejaVuSans-2e" transform="translate(63.623047 0)"/>
       <use xlink:href="#DejaVuSans-32" transform="translate(95.410156 0)"/>
      </g>
     </g>
    </g>
    <g id="ytick_11">
     <g id="line2d_36">
      <path d="M 426.077812 146.125752 
L 776.852812 146.125752 
" clip-path="url(#p25c95c0187)" style="fill: none; stroke: #e0dfd8; stroke-width: 0.6; stroke-linecap: square"/>
     </g>
     <g id="line2d_37">
      <g>
       <use xlink:href="#mfedbaed450" x="426.077812" y="146.125752" style="fill: #888780; stroke: #888780; stroke-width: 0.8"/>
      </g>
     </g>
     <g id="text_30">
      <!-- 0.3 -->
      <g style="fill: #888780" transform="translate(406.355312 149.165127) scale(0.08 -0.08)">
       <defs>
        <path id="DejaVuSans-33" d="M 2597 2516 
Q 3050 2419 3304 2112 
Q 3559 1806 3559 1356 
Q 3559 666 3084 287 
Q 2609 -91 1734 -91 
Q 1441 -91 1130 -33 
Q 819 25 488 141 
L 488 750 
Q 750 597 1062 519 
Q 1375 441 1716 441 
Q 2309 441 2620 675 
Q 2931 909 2931 1356 
Q 2931 1769 2642 2001 
Q 2353 2234 1838 2234 
L 1294 2234 
L 1294 2753 
L 1863 2753 
Q 2328 2753 2575 2939 
Q 2822 3125 2822 3475 
Q 2822 3834 2567 4026 
Q 2313 4219 1838 4219 
Q 1578 4219 1281 4162 
Q 984 4106 628 3988 
L 628 4550 
Q 988 4650 1302 4700 
Q 1616 4750 1894 4750 
Q 2613 4750 3031 4423 
Q 3450 4097 3450 3541 
Q 3450 3153 3228 2886 
Q 3006 2619 2597 2516 
z
" transform="scale(0.015625)"/>
       </defs>
       <use xlink:href="#DejaVuSans-30"/>
       <use xlink:href="#DejaVuSans-2e" transform="translate(63.623047 0)"/>
       <use xlink:href="#DejaVuSans-33" transform="translate(95.410156 0)"/>
      </g>
     </g>
    </g>
    <g id="ytick_12">
     <g id="line2d_38">
      <path d="M 426.077812 99.621003 
L 776.852812 99.621003 
" clip-path="url(#p25c95c0187)" style="fill: none; stroke: #e0dfd8; stroke-width: 0.6; stroke-linecap: square"/>
     </g>
     <g id="line2d_39">
      <g>
       <use xlink:href="#mfedbaed450" x="426.077812" y="99.621003" style="fill: #888780; stroke: #888780; stroke-width: 0.8"/>
      </g>
     </g>
     <g id="text_31">
      <!-- 0.4 -->
      <g style="fill: #888780" transform="translate(406.355312 102.660378) scale(0.08 -0.08)">
       <use xlink:href="#DejaVuSans-30"/>
       <use xlink:href="#DejaVuSans-2e" transform="translate(63.623047 0)"/>
       <use xlink:href="#DejaVuSans-34" transform="translate(95.410156 0)"/>
      </g>
     </g>
    </g>
   </g>
   <g id="patch_37">
    <path d="M 442.022131 285.64 
L 452.651676 285.64 
L 452.651676 285.532998 
L 442.022131 285.532998 
z
" clip-path="url(#p25c95c0187)" style="fill: #888780; opacity: 0.55; stroke: #ffffff; stroke-width: 0.4; stroke-linejoin: miter"/>
   </g>
   <g id="patch_38">
    <path d="M 452.651676 285.64 
L 463.281222 285.64 
L 463.281222 285.64 
L 452.651676 285.64 
z
" clip-path="url(#p25c95c0187)" style="fill: #888780; opacity: 0.55; stroke: #ffffff; stroke-width: 0.4; stroke-linejoin: miter"/>
   </g>
   <g id="patch_39">
    <path d="M 463.281222 285.64 
L 473.910767 285.64 
L 473.910767 285.532998 
L 463.281222 285.532998 
z
" clip-path="url(#p25c95c0187)" style="fill: #888780; opacity: 0.55; stroke: #ffffff; stroke-width: 0.4; stroke-linejoin: miter"/>
   </g>
   <g id="patch_40">
    <path d="M 473.910767 285.64 
L 484.540312 285.64 
L 484.540312 284.783982 
L 473.910767 284.783982 
z
" clip-path="url(#p25c95c0187)" style="fill: #888780; opacity: 0.55; stroke: #ffffff; stroke-width: 0.4; stroke-linejoin: miter"/>
   </g>
   <g id="patch_41">
    <path d="M 484.540312 285.64 
L 495.169858 285.64 
L 495.169858 280.824898 
L 484.540312 280.824898 
z
" clip-path="url(#p25c95c0187)" style="fill: #888780; opacity: 0.55; stroke: #ffffff; stroke-width: 0.4; stroke-linejoin: miter"/>
   </g>
   <g id="patch_42">
    <path d="M 495.169858 285.64 
L 505.799403 285.64 
L 505.799403 270.231675 
L 495.169858 270.231675 
z
" clip-path="url(#p25c95c0187)" style="fill: #888780; opacity: 0.55; stroke: #ffffff; stroke-width: 0.4; stroke-linejoin: miter"/>
   </g>
   <g id="patch_43">
    <path d="M 505.799403 285.64 
L 516.428949 285.64 
L 516.428949 209.240387 
L 505.799403 209.240387 
z
" clip-path="url(#p25c95c0187)" style="fill: #888780; opacity: 0.55; stroke: #ffffff; stroke-width: 0.4; stroke-linejoin: miter"/>
   </g>
   <g id="patch_44">
    <path d="M 516.428949 285.64 
L 527.058494 285.64 
L 527.058494 81.800697 
L 516.428949 81.800697 
z
" clip-path="url(#p25c95c0187)" style="fill: #888780; opacity: 0.55; stroke: #ffffff; stroke-width: 0.4; stroke-linejoin: miter"/>
   </g>
   <g id="patch_45">
    <path d="M 527.058494 285.64 
L 537.68804 285.64 
L 537.68804 64.573333 
L 527.058494 64.573333 
z
" clip-path="url(#p25c95c0187)" style="fill: #888780; opacity: 0.55; stroke: #ffffff; stroke-width: 0.4; stroke-linejoin: miter"/>
   </g>
   <g id="patch_46">
    <path d="M 537.68804 285.64 
L 548.317585 285.64 
L 548.317585 120.642517 
L 537.68804 120.642517 
z
" clip-path="url(#p25c95c0187)" style="fill: #888780; opacity: 0.55; stroke: #ffffff; stroke-width: 0.4; stroke-linejoin: miter"/>
   </g>
   <g id="patch_47">
    <path d="M 548.317585 285.64 
L 558.947131 285.64 
L 558.947131 179.493759 
L 548.317585 179.493759 
z
" clip-path="url(#p25c95c0187)" style="fill: #888780; opacity: 0.55; stroke: #ffffff; stroke-width: 0.4; stroke-linejoin: miter"/>
   </g>
   <g id="patch_48">
    <path d="M 558.947131 285.64 
L 569.576676 285.64 
L 569.576676 214.376496 
L 558.947131 214.376496 
z
" clip-path="url(#p25c95c0187)" style="fill: #888780; opacity: 0.55; stroke: #ffffff; stroke-width: 0.4; stroke-linejoin: miter"/>
   </g>
   <g id="patch_49">
    <path d="M 569.576676 285.64 
L 580.206222 285.64 
L 580.206222 232.887886 
L 569.576676 232.887886 
z
" clip-path="url(#p25c95c0187)" style="fill: #888780; opacity: 0.55; stroke: #ffffff; stroke-width: 0.4; stroke-linejoin: miter"/>
   </g>
   <g id="patch_50">
    <path d="M 580.206222 285.64 
L 590.835767 285.64 
L 590.835767 250.329255 
L 580.206222 250.329255 
z
" clip-path="url(#p25c95c0187)" style="fill: #888780; opacity: 0.55; stroke: #ffffff; stroke-width: 0.4; stroke-linejoin: miter"/>
   </g>
   <g id="patch_51">
    <path d="M 590.835767 285.64 
L 601.465312 285.64 
L 601.465312 259.745453 
L 590.835767 259.745453 
z
" clip-path="url(#p25c95c0187)" style="fill: #888780; opacity: 0.55; stroke: #ffffff; stroke-width: 0.4; stroke-linejoin: miter"/>
   </g>
   <g id="patch_52">
    <path d="M 601.465312 285.64 
L 612.094858 285.64 
L 612.094858 264.346551 
L 601.465312 264.346551 
z
" clip-path="url(#p25c95c0187)" style="fill: #888780; opacity: 0.55; stroke: #ffffff; stroke-width: 0.4; stroke-linejoin: miter"/>
   </g>
   <g id="patch_53">
    <path d="M 612.094858 285.64 
L 622.724403 285.64 
L 622.724403 273.120736 
L 612.094858 273.120736 
z
" clip-path="url(#p25c95c0187)" style="fill: #888780; opacity: 0.55; stroke: #ffffff; stroke-width: 0.4; stroke-linejoin: miter"/>
   </g>
   <g id="patch_54">
    <path d="M 622.724403 285.64 
L 633.353949 285.64 
L 633.353949 275.046776 
L 622.724403 275.046776 
z
" clip-path="url(#p25c95c0187)" style="fill: #888780; opacity: 0.55; stroke: #ffffff; stroke-width: 0.4; stroke-linejoin: miter"/>
   </g>
   <g id="patch_55">
    <path d="M 633.353949 285.64 
L 643.983494 285.64 
L 643.983494 278.577851 
L 633.353949 278.577851 
z
" clip-path="url(#p25c95c0187)" style="fill: #888780; opacity: 0.55; stroke: #ffffff; stroke-width: 0.4; stroke-linejoin: miter"/>
   </g>
   <g id="patch_56">
    <path d="M 643.983494 285.64 
L 654.61304 285.64 
L 654.61304 279.433869 
L 643.983494 279.433869 
z
" clip-path="url(#p25c95c0187)" style="fill: #888780; opacity: 0.55; stroke: #ffffff; stroke-width: 0.4; stroke-linejoin: miter"/>
   </g>
   <g id="patch_57">
    <path d="M 654.61304 285.64 
L 665.242585 285.64 
L 665.242585 281.680916 
L 654.61304 281.680916 
z
" clip-path="url(#p25c95c0187)" style="fill: #888780; opacity: 0.55; stroke: #ffffff; stroke-width: 0.4; stroke-linejoin: miter"/>
   </g>
   <g id="patch_58">
    <path d="M 665.242585 285.64 
L 675.872131 285.64 
L 675.872131 283.071946 
L 665.242585 283.071946 
z
" clip-path="url(#p25c95c0187)" style="fill: #888780; opacity: 0.55; stroke: #ffffff; stroke-width: 0.4; stroke-linejoin: miter"/>
   </g>
   <g id="patch_59">
    <path d="M 675.872131 285.64 
L 686.501676 285.64 
L 686.501676 283.606957 
L 675.872131 283.606957 
z
" clip-path="url(#p25c95c0187)" style="fill: #888780; opacity: 0.55; stroke: #ffffff; stroke-width: 0.4; stroke-linejoin: miter"/>
   </g>
   <g id="patch_60">
    <path d="M 686.501676 285.64 
L 697.131222 285.64 
L 697.131222 284.141968 
L 686.501676 284.141968 
z
" clip-path="url(#p25c95c0187)" style="fill: #888780; opacity: 0.55; stroke: #ffffff; stroke-width: 0.4; stroke-linejoin: miter"/>
   </g>
   <g id="patch_61">
    <path d="M 697.131222 285.64 
L 707.760767 285.64 
L 707.760767 284.355973 
L 697.131222 284.355973 
z
" clip-path="url(#p25c95c0187)" style="fill: #888780; opacity: 0.55; stroke: #ffffff; stroke-width: 0.4; stroke-linejoin: miter"/>
   </g>
   <g id="patch_62">
    <path d="M 707.760767 285.64 
L 718.390312 285.64 
L 718.390312 284.569977 
L 707.760767 284.569977 
z
" clip-path="url(#p25c95c0187)" style="fill: #888780; opacity: 0.55; stroke: #ffffff; stroke-width: 0.4; stroke-linejoin: miter"/>
   </g>
   <g id="patch_63">
    <path d="M 718.390312 285.64 
L 729.019858 285.64 
L 729.019858 284.997986 
L 718.390312 284.997986 
z
" clip-path="url(#p25c95c0187)" style="fill: #888780; opacity: 0.55; stroke: #ffffff; stroke-width: 0.4; stroke-linejoin: miter"/>
   </g>
   <g id="patch_64">
    <path d="M 729.019858 285.64 
L 739.649403 285.64 
L 739.649403 285.318993 
L 729.019858 285.318993 
z
" clip-path="url(#p25c95c0187)" style="fill: #888780; opacity: 0.55; stroke: #ffffff; stroke-width: 0.4; stroke-linejoin: miter"/>
   </g>
   <g id="patch_65">
    <path d="M 739.649403 285.64 
L 750.278949 285.64 
L 750.278949 285.211991 
L 739.649403 285.211991 
z
" clip-path="url(#p25c95c0187)" style="fill: #888780; opacity: 0.55; stroke: #ffffff; stroke-width: 0.4; stroke-linejoin: miter"/>
   </g>
   <g id="patch_66">
    <path d="M 750.278949 285.64 
L 760.908494 285.64 
L 760.908494 285.318993 
L 750.278949 285.318993 
z
" clip-path="url(#p25c95c0187)" style="fill: #888780; opacity: 0.55; stroke: #ffffff; stroke-width: 0.4; stroke-linejoin: miter"/>
   </g>
   <g id="patch_67">
    <path d="M 426.077812 285.64 
L 426.077812 53.52 
" style="fill: none; stroke: #000000; stroke-width: 0.8; stroke-linejoin: miter; stroke-linecap: square"/>
   </g>
   <g id="patch_68">
    <path d="M 426.077812 285.64 
L 776.852812 285.64 
" style="fill: none; stroke: #000000; stroke-width: 0.8; stroke-linejoin: miter; stroke-linecap: square"/>
   </g>
   <g id="line2d_40">
    <path d="M 442.022131 284.813019 
L 446.829463 284.331054 
L 451.636795 283.612544 
L 454.841683 282.958253 
L 458.046571 282.126761 
L 461.251459 281.081507 
L 464.456347 279.781874 
L 467.661235 278.183761 
L 470.866123 276.240502 
L 474.071011 273.904187 
L 477.2759 271.127391 
L 480.480788 267.865332 
L 483.685676 264.078387 
L 486.890564 259.734934 
L 490.095452 254.814374 
L 493.30034 249.310215 
L 496.505228 243.233007 
L 499.710116 236.61294 
L 502.915004 229.501869 
L 507.722336 218.084519 
L 514.132112 202.03213 
L 520.541889 186.069972 
L 523.746777 178.536181 
L 526.951665 171.534912 
L 530.156553 165.239362 
L 531.758997 162.407693 
L 533.361441 159.812289 
L 534.963885 157.470719 
L 536.566329 155.399058 
L 538.168773 153.611696 
L 539.771217 152.121178 
L 541.373661 150.938054 
L 542.976105 150.070755 
L 544.578549 149.525492 
L 546.180993 149.306184 
L 547.783437 149.41441 
L 549.385881 149.849392 
L 550.988325 150.608 
L 552.590769 151.684793 
L 554.193213 153.072083 
L 555.795657 154.760027 
L 557.398101 156.736743 
L 559.000545 158.988448 
L 560.60299 161.499619 
L 562.205434 164.253171 
L 565.410322 170.412447 
L 568.61521 177.305984 
L 571.820098 184.761859 
L 576.62743 196.614402 
L 586.242094 220.662841 
L 591.049426 231.901108 
L 594.254314 238.857113 
L 597.459202 245.302492 
L 600.66409 251.192728 
L 603.868979 256.504375 
L 607.073867 261.232823 
L 610.278755 265.389558 
L 613.483643 268.999162 
L 616.688531 272.096229 
L 619.893419 274.722386 
L 623.098307 276.923551 
L 626.303195 278.747526 
L 629.508083 280.24198 
L 632.712971 281.45286 
L 635.917859 282.423198 
L 639.122747 283.192319 
L 643.93008 284.044415 
L 648.737412 284.622139 
L 655.147188 285.099541 
L 663.159408 285.407932 
L 674.376516 285.575767 
L 698.413177 285.637245 
L 760.908494 285.64 
L 760.908494 285.64 
" clip-path="url(#p25c95c0187)" style="fill: none; stroke: #222222; stroke-opacity: 0.8; stroke-width: 1.3; stroke-linecap: square"/>
   </g>
   <g id="text_32">
    <g id="patch_69">
     <path d="M 678.364562 84.22675 
L 766.329562 84.22675 
Q 768.729562 84.22675 768.729562 81.82675 
L 768.729562 65.126 
Q 768.729562 62.726 766.329562 62.726 
L 678.364562 62.726 
Q 675.964562 62.726 675.964562 65.126 
L 675.964562 81.82675 
Q 675.964562 84.22675 678.364562 84.22675 
z
" style="fill: #ffffff; opacity: 0.85; stroke: #dddddd; stroke-linejoin: miter"/>
    </g>
    <!-- skew +1.82 -->
    <g style="fill: #888780" transform="translate(719.295812 71.20475) scale(0.08 -0.08)">
     <use xlink:href="#DejaVuSans-73"/>
     <use xlink:href="#DejaVuSans-6b" transform="translate(52.099609 0)"/>
     <use xlink:href="#DejaVuSans-65" transform="translate(106.384766 0)"/>
     <use xlink:href="#DejaVuSans-77" transform="translate(167.908203 0)"/>
     <use xlink:href="#DejaVuSans-20" transform="translate(249.695312 0)"/>
     <use xlink:href="#DejaVuSans-2b" transform="translate(281.482422 0)"/>
     <use xlink:href="#DejaVuSans-31" transform="translate(365.271484 0)"/>
     <use xlink:href="#DejaVuSans-2e" transform="translate(428.894531 0)"/>
     <use xlink:href="#DejaVuSans-38" transform="translate(460.681641 0)"/>
     <use xlink:href="#DejaVuSans-32" transform="translate(524.304688 0)"/>
    </g>
    <!-- excess kurtosis +4.87 -->
    <g style="fill: #888780" transform="translate(678.364562 80.163) scale(0.08 -0.08)">
     <defs>
      <path id="DejaVuSans-37" d="M 525 4666 
L 3525 4666 
L 3525 4397 
L 1831 0 
L 1172 0 
L 2766 4134 
L 525 4134 
L 525 4666 
z
" transform="scale(0.015625)"/>
     </defs>
     <use xlink:href="#DejaVuSans-65"/>
     <use xlink:href="#DejaVuSans-78" transform="translate(59.773438 0)"/>
     <use xlink:href="#DejaVuSans-63" transform="translate(117.203125 0)"/>
     <use xlink:href="#DejaVuSans-65" transform="translate(172.183594 0)"/>
     <use xlink:href="#DejaVuSans-73" transform="translate(233.707031 0)"/>
     <use xlink:href="#DejaVuSans-73" transform="translate(285.806641 0)"/>
     <use xlink:href="#DejaVuSans-20" transform="translate(337.90625 0)"/>
     <use xlink:href="#DejaVuSans-6b" transform="translate(369.693359 0)"/>
     <use xlink:href="#DejaVuSans-75" transform="translate(424.478516 0)"/>
     <use xlink:href="#DejaVuSans-72" transform="translate(487.857422 0)"/>
     <use xlink:href="#DejaVuSans-74" transform="translate(528.970703 0)"/>
     <use xlink:href="#DejaVuSans-6f" transform="translate(568.179688 0)"/>
     <use xlink:href="#DejaVuSans-73" transform="translate(629.361328 0)"/>
     <use xlink:href="#DejaVuSans-69" transform="translate(681.460938 0)"/>
     <use xlink:href="#DejaVuSans-73" transform="translate(709.244141 0)"/>
     <use xlink:href="#DejaVuSans-20" transform="translate(761.34375 0)"/>
     <use xlink:href="#DejaVuSans-2b" transform="translate(793.130859 0)"/>
     <use xlink:href="#DejaVuSans-34" transform="translate(876.919922 0)"/>
     <use xlink:href="#DejaVuSans-2e" transform="translate(940.542969 0)"/>
     <use xlink:href="#DejaVuSans-38" transform="translate(972.330078 0)"/>
     <use xlink:href="#DejaVuSans-37" transform="translate(1035.953125 0)"/>
    </g>
   </g>
   <g id="text_33">
    <!-- VORP: right-skewed, a long tail of stars -->
    <g style="fill: #222222" transform="translate(503.846562 47.52) scale(0.1 -0.1)">
     <defs>
      <path id="DejaVuSans-4f" d="M 2522 4238 
Q 1834 4238 1429 3725 
Q 1025 3213 1025 2328 
Q 1025 1447 1429 934 
Q 1834 422 2522 422 
Q 3209 422 3611 934 
Q 4013 1447 4013 2328 
Q 4013 3213 3611 3725 
Q 3209 4238 2522 4238 
z
M 2522 4750 
Q 3503 4750 4090 4092 
Q 4678 3434 4678 2328 
Q 4678 1225 4090 567 
Q 3503 -91 2522 -91 
Q 1538 -91 948 565 
Q 359 1222 359 2328 
Q 359 3434 948 4092 
Q 1538 4750 2522 4750 
z
" transform="scale(0.015625)"/>
      <path id="DejaVuSans-67" d="M 2906 1791 
Q 2906 2416 2648 2759 
Q 2391 3103 1925 3103 
Q 1463 3103 1205 2759 
Q 947 2416 947 1791 
Q 947 1169 1205 825 
Q 1463 481 1925 481 
Q 2391 481 2648 825 
Q 2906 1169 2906 1791 
z
M 3481 434 
Q 3481 -459 3084 -895 
Q 2688 -1331 1869 -1331 
Q 1566 -1331 1297 -1286 
Q 1028 -1241 775 -1147 
L 775 -588 
Q 1028 -725 1275 -790 
Q 1522 -856 1778 -856 
Q 2344 -856 2625 -561 
Q 2906 -266 2906 331 
L 2906 616 
Q 2728 306 2450 153 
Q 2172 0 1784 0 
Q 1141 0 747 490 
Q 353 981 353 1791 
Q 353 2603 747 3093 
Q 1141 3584 1784 3584 
Q 2172 3584 2450 3431 
Q 2728 3278 2906 2969 
L 2906 3500 
L 3481 3500 
L 3481 434 
z
" transform="scale(0.015625)"/>
     </defs>
     <use xlink:href="#DejaVuSans-56"/>
     <use xlink:href="#DejaVuSans-4f" transform="translate(66.658203 0)"/>
     <use xlink:href="#DejaVuSans-52" transform="translate(145.369141 0)"/>
     <use xlink:href="#DejaVuSans-50" transform="translate(214.851562 0)"/>
     <use xlink:href="#DejaVuSans-3a" transform="translate(275.154297 0)"/>
     <use xlink:href="#DejaVuSans-20" transform="translate(308.845703 0)"/>
     <use xlink:href="#DejaVuSans-72" transform="translate(340.632812 0)"/>
     <use xlink:href="#DejaVuSans-69" transform="translate(381.746094 0)"/>
     <use xlink:href="#DejaVuSans-67" transform="translate(409.529297 0)"/>
     <use xlink:href="#DejaVuSans-68" transform="translate(473.005859 0)"/>
     <use xlink:href="#DejaVuSans-74" transform="translate(536.384766 0)"/>
     <use xlink:href="#DejaVuSans-2d" transform="translate(575.59375 0)"/>
     <use xlink:href="#DejaVuSans-73" transform="translate(611.677734 0)"/>
     <use xlink:href="#DejaVuSans-6b" transform="translate(663.777344 0)"/>
     <use xlink:href="#DejaVuSans-65" transform="translate(718.0625 0)"/>
     <use xlink:href="#DejaVuSans-77" transform="translate(779.585938 0)"/>
     <use xlink:href="#DejaVuSans-65" transform="translate(861.373047 0)"/>
     <use xlink:href="#DejaVuSans-64" transform="translate(922.896484 0)"/>
     <use xlink:href="#DejaVuSans-2c" transform="translate(986.373047 0)"/>
     <use xlink:href="#DejaVuSans-20" transform="translate(1018.160156 0)"/>
     <use xlink:href="#DejaVuSans-61" transform="translate(1049.947266 0)"/>
     <use xlink:href="#DejaVuSans-20" transform="translate(1111.226562 0)"/>
     <use xlink:href="#DejaVuSans-6c" transform="translate(1143.013672 0)"/>
     <use xlink:href="#DejaVuSans-6f" transform="translate(1170.796875 0)"/>
     <use xlink:href="#DejaVuSans-6e" transform="translate(1231.978516 0)"/>
     <use xlink:href="#DejaVuSans-67" transform="translate(1295.357422 0)"/>
     <use xlink:href="#DejaVuSans-20" transform="translate(1358.833984 0)"/>
     <use xlink:href="#DejaVuSans-74" transform="translate(1390.621094 0)"/>
     <use xlink:href="#DejaVuSans-61" transform="translate(1429.830078 0)"/>
     <use xlink:href="#DejaVuSans-69" transform="translate(1491.109375 0)"/>
     <use xlink:href="#DejaVuSans-6c" transform="translate(1518.892578 0)"/>
     <use xlink:href="#DejaVuSans-20" transform="translate(1546.675781 0)"/>
     <use xlink:href="#DejaVuSans-6f" transform="translate(1578.462891 0)"/>
     <use xlink:href="#DejaVuSans-66" transform="translate(1639.644531 0)"/>
     <use xlink:href="#DejaVuSans-20" transform="translate(1674.849609 0)"/>
     <use xlink:href="#DejaVuSans-73" transform="translate(1706.636719 0)"/>
     <use xlink:href="#DejaVuSans-74" transform="translate(1758.736328 0)"/>
     <use xlink:href="#DejaVuSans-61" transform="translate(1797.945312 0)"/>
     <use xlink:href="#DejaVuSans-72" transform="translate(1859.224609 0)"/>
     <use xlink:href="#DejaVuSans-73" transform="translate(1900.337891 0)"/>
    </g>
   </g>
   <g id="legend_2">
    <g id="line2d_41">
     <path d="M 432.827812 63.343828 
L 440.327812 63.343828 
L 447.827812 63.343828 
" style="fill: none; stroke: #222222; stroke-opacity: 0.8; stroke-width: 1.3; stroke-linecap: square"/>
    </g>
    <g id="text_34">
     <!-- normal curve -->
     <g transform="translate(453.827812 65.968828) scale(0.075 -0.075)">
      <use xlink:href="#DejaVuSans-6e"/>
      <use xlink:href="#DejaVuSans-6f" transform="translate(63.378906 0)"/>
      <use xlink:href="#DejaVuSans-72" transform="translate(124.560547 0)"/>
      <use xlink:href="#DejaVuSans-6d" transform="translate(163.923828 0)"/>
      <use xlink:href="#DejaVuSans-61" transform="translate(261.335938 0)"/>
      <use xlink:href="#DejaVuSans-6c" transform="translate(322.615234 0)"/>
      <use xlink:href="#DejaVuSans-20" transform="translate(350.398438 0)"/>
      <use xlink:href="#DejaVuSans-63" transform="translate(382.185547 0)"/>
      <use xlink:href="#DejaVuSans-75" transform="translate(437.166016 0)"/>
      <use xlink:href="#DejaVuSans-72" transform="translate(500.544922 0)"/>
      <use xlink:href="#DejaVuSans-76" transform="translate(541.658203 0)"/>
      <use xlink:href="#DejaVuSans-65" transform="translate(600.837891 0)"/>
     </g>
    </g>
   </g>
  </g>
  <g id="text_35">
   <!-- RAPM is symmetric, so it has no heavy tail to be a power law; VORP is right-skewed -->
   <g style="fill: #222222" transform="translate(162.050156 15.558281) scale(0.11 -0.11)">
    <defs>
     <path id="DejaVuSans-3b" d="M 750 3309 
L 1409 3309 
L 1409 2516 
L 750 2516 
L 750 3309 
z
M 750 794 
L 1409 794 
L 1409 256 
L 897 -744 
L 494 -744 
L 750 256 
L 750 794 
z
" transform="scale(0.015625)"/>
    </defs>
    <use xlink:href="#DejaVuSans-52"/>
    <use xlink:href="#DejaVuSans-41" transform="translate(65.482422 0)"/>
    <use xlink:href="#DejaVuSans-50" transform="translate(133.890625 0)"/>
    <use xlink:href="#DejaVuSans-4d" transform="translate(194.193359 0)"/>
    <use xlink:href="#DejaVuSans-20" transform="translate(280.472656 0)"/>
    <use xlink:href="#DejaVuSans-69" transform="translate(312.259766 0)"/>
    <use xlink:href="#DejaVuSans-73" transform="translate(340.042969 0)"/>
    <use xlink:href="#DejaVuSans-20" transform="translate(392.142578 0)"/>
    <use xlink:href="#DejaVuSans-73" transform="translate(423.929688 0)"/>
    <use xlink:href="#DejaVuSans-79" transform="translate(476.029297 0)"/>
    <use xlink:href="#DejaVuSans-6d" transform="translate(535.208984 0)"/>
    <use xlink:href="#DejaVuSans-6d" transform="translate(632.621094 0)"/>
    <use xlink:href="#DejaVuSans-65" transform="translate(730.033203 0)"/>
    <use xlink:href="#DejaVuSans-74" transform="translate(791.556641 0)"/>
    <use xlink:href="#DejaVuSans-72" transform="translate(830.765625 0)"/>
    <use xlink:href="#DejaVuSans-69" transform="translate(871.878906 0)"/>
    <use xlink:href="#DejaVuSans-63" transform="translate(899.662109 0)"/>
    <use xlink:href="#DejaVuSans-2c" transform="translate(954.642578 0)"/>
    <use xlink:href="#DejaVuSans-20" transform="translate(986.429688 0)"/>
    <use xlink:href="#DejaVuSans-73" transform="translate(1018.216797 0)"/>
    <use xlink:href="#DejaVuSans-6f" transform="translate(1070.316406 0)"/>
    <use xlink:href="#DejaVuSans-20" transform="translate(1131.498047 0)"/>
    <use xlink:href="#DejaVuSans-69" transform="translate(1163.285156 0)"/>
    <use xlink:href="#DejaVuSans-74" transform="translate(1191.068359 0)"/>
    <use xlink:href="#DejaVuSans-20" transform="translate(1230.277344 0)"/>
    <use xlink:href="#DejaVuSans-68" transform="translate(1262.064453 0)"/>
    <use xlink:href="#DejaVuSans-61" transform="translate(1325.443359 0)"/>
    <use xlink:href="#DejaVuSans-73" transform="translate(1386.722656 0)"/>
    <use xlink:href="#DejaVuSans-20" transform="translate(1438.822266 0)"/>
    <use xlink:href="#DejaVuSans-6e" transform="translate(1470.609375 0)"/>
    <use xlink:href="#DejaVuSans-6f" transform="translate(1533.988281 0)"/>
    <use xlink:href="#DejaVuSans-20" transform="translate(1595.169922 0)"/>
    <use xlink:href="#DejaVuSans-68" transform="translate(1626.957031 0)"/>
    <use xlink:href="#DejaVuSans-65" transform="translate(1690.335938 0)"/>
    <use xlink:href="#DejaVuSans-61" transform="translate(1751.859375 0)"/>
    <use xlink:href="#DejaVuSans-76" transform="translate(1813.138672 0)"/>
    <use xlink:href="#DejaVuSans-79" transform="translate(1872.318359 0)"/>
    <use xlink:href="#DejaVuSans-20" transform="translate(1931.498047 0)"/>
    <use xlink:href="#DejaVuSans-74" transform="translate(1963.285156 0)"/>
    <use xlink:href="#DejaVuSans-61" transform="translate(2002.494141 0)"/>
    <use xlink:href="#DejaVuSans-69" transform="translate(2063.773438 0)"/>
    <use xlink:href="#DejaVuSans-6c" transform="translate(2091.556641 0)"/>
    <use xlink:href="#DejaVuSans-20" transform="translate(2119.339844 0)"/>
    <use xlink:href="#DejaVuSans-74" transform="translate(2151.126953 0)"/>
    <use xlink:href="#DejaVuSans-6f" transform="translate(2190.335938 0)"/>
    <use xlink:href="#DejaVuSans-20" transform="translate(2251.517578 0)"/>
    <use xlink:href="#DejaVuSans-62" transform="translate(2283.304688 0)"/>
    <use xlink:href="#DejaVuSans-65" transform="translate(2346.78125 0)"/>
    <use xlink:href="#DejaVuSans-20" transform="translate(2408.304688 0)"/>
    <use xlink:href="#DejaVuSans-61" transform="translate(2440.091797 0)"/>
    <use xlink:href="#DejaVuSans-20" transform="translate(2501.371094 0)"/>
    <use xlink:href="#DejaVuSans-70" transform="translate(2533.158203 0)"/>
    <use xlink:href="#DejaVuSans-6f" transform="translate(2596.634766 0)"/>
    <use xlink:href="#DejaVuSans-77" transform="translate(2657.816406 0)"/>
    <use xlink:href="#DejaVuSans-65" transform="translate(2739.603516 0)"/>
    <use xlink:href="#DejaVuSans-72" transform="translate(2801.126953 0)"/>
    <use xlink:href="#DejaVuSans-20" transform="translate(2842.240234 0)"/>
    <use xlink:href="#DejaVuSans-6c" transform="translate(2874.027344 0)"/>
    <use xlink:href="#DejaVuSans-61" transform="translate(2901.810547 0)"/>
    <use xlink:href="#DejaVuSans-77" transform="translate(2963.089844 0)"/>
    <use xlink:href="#DejaVuSans-3b" transform="translate(3044.876953 0)"/>
    <use xlink:href="#DejaVuSans-20" transform="translate(3078.568359 0)"/>
    <use xlink:href="#DejaVuSans-56" transform="translate(3110.355469 0)"/>
    <use xlink:href="#DejaVuSans-4f" transform="translate(3177.013672 0)"/>
    <use xlink:href="#DejaVuSans-52" transform="translate(3255.724609 0)"/>
    <use xlink:href="#DejaVuSans-50" transform="translate(3325.207031 0)"/>
    <use xlink:href="#DejaVuSans-20" transform="translate(3385.509766 0)"/>
    <use xlink:href="#DejaVuSans-69" transform="translate(3417.296875 0)"/>
    <use xlink:href="#DejaVuSans-73" transform="translate(3445.080078 0)"/>
    <use xlink:href="#DejaVuSans-20" transform="translate(3497.179688 0)"/>
    <use xlink:href="#DejaVuSans-72" transform="translate(3528.966797 0)"/>
    <use xlink:href="#DejaVuSans-69" transform="translate(3570.080078 0)"/>
    <use xlink:href="#DejaVuSans-67" transform="translate(3597.863281 0)"/>
    <use xlink:href="#DejaVuSans-68" transform="translate(3661.339844 0)"/>
    <use xlink:href="#DejaVuSans-74" transform="translate(3724.71875 0)"/>
    <use xlink:href="#DejaVuSans-2d" transform="translate(3763.927734 0)"/>
    <use xlink:href="#DejaVuSans-73" transform="translate(3800.011719 0)"/>
    <use xlink:href="#DejaVuSans-6b" transform="translate(3852.111328 0)"/>
    <use xlink:href="#DejaVuSans-65" transform="translate(3906.396484 0)"/>
    <use xlink:href="#DejaVuSans-77" transform="translate(3967.919922 0)"/>
    <use xlink:href="#DejaVuSans-65" transform="translate(4049.707031 0)"/>
    <use xlink:href="#DejaVuSans-64" transform="translate(4111.230469 0)"/>
   </g>
  </g>
 </g>
 <defs>
  <clipPath id="p11c769504a">
   <rect x="44.722813" y="53.52" width="350.775" height="232.12"/>
  </clipPath>
  <clipPath id="p25c95c0187">
   <rect x="426.077812" y="53.52" width="350.775" height="232.12"/>
  </clipPath>
 </defs>
</svg>
