<?xml version="1.0" encoding="utf-8" standalone="no"?>
<!DOCTYPE svg PUBLIC "-//W3C//DTD SVG 1.1//EN"
  "http://www.w3.org/Graphics/SVG/1.1/DTD/svg11.dtd">
<svg xmlns:xlink="http://www.w3.org/1999/xlink" width="1000.123438pt" height="352.370684pt" viewBox="0 0 1000.123438 352.370684" xmlns="http://www.w3.org/2000/svg" version="1.1">
 <metadata>
  <rdf:RDF xmlns:dc="http://purl.org/dc/elements/1.1/" xmlns:cc="http://creativecommons.org/ns#" xmlns:rdf="http://www.w3.org/1999/02/22-rdf-syntax-ns#">
   <cc:Work>
    <dc:type rdf:resource="http://purl.org/dc/dcmitype/StillImage"/>
    <dc:date>2026-07-02T10:25:48.759413</dc:date>
    <dc:format>image/svg+xml</dc:format>
    <dc:creator>
     <cc:Agent>
      <dc:title>Matplotlib v3.10.9, https://matplotlib.org/</dc:title>
     </cc:Agent>
    </dc:creator>
   </cc:Work>
  </rdf:RDF>
 </metadata>
 <defs>
  <style type="text/css">*{stroke-linejoin: round; stroke-linecap: butt}</style>
 </defs>
 <g id="figure_1">
  <g id="patch_1">
   <path d="M 0 352.370684 
L 1000.123438 352.370684 
L 1000.123438 0 
L 0 0 
z
" style="fill: #f9f9f7"/>
  </g>
  <g id="axes_1">
   <g id="patch_2">
    <path d="M 42.813438 290.048943 
L 992.923437 290.048943 
L 992.923437 41.938203 
L 42.813438 41.938203 
z
" style="fill: #ffffff"/>
   </g>
   <g id="matplotlib.axis_1">
    <g id="xtick_1">
     <g id="line2d_1">
      <defs>
       <path id="m6162f6f941" d="M 0 0 
L 0 3.5 
" style="stroke: #000000; stroke-width: 0.8"/>
      </defs>
      <g>
       <use xlink:href="#m6162f6f941" x="111.036092" y="290.048943" style="stroke: #000000; stroke-width: 0.8"/>
      </g>
     </g>
     <g id="text_1">
      <!-- RAPM+prior -->
      <g transform="translate(68.539828 336.936674) rotate(-40) scale(0.09 -0.09)">
       <defs>
        <path id="DejaVuSans-52" d="M 2841 2188 
Q 3044 2119 3236 1894 
Q 3428 1669 3622 1275 
L 4263 0 
L 3584 0 
L 2988 1197 
Q 2756 1666 2539 1819 
Q 2322 1972 1947 1972 
L 1259 1972 
L 1259 0 
L 628 0 
L 628 4666 
L 2053 4666 
Q 2853 4666 3247 4331 
Q 3641 3997 3641 3322 
Q 3641 2881 3436 2590 
Q 3231 2300 2841 2188 
z
M 1259 4147 
L 1259 2491 
L 2053 2491 
Q 2509 2491 2742 2702 
Q 2975 2913 2975 3322 
Q 2975 3731 2742 3939 
Q 2509 4147 2053 4147 
L 1259 4147 
z
" transform="scale(0.015625)"/>
        <path id="DejaVuSans-41" d="M 2188 4044 
L 1331 1722 
L 3047 1722 
L 2188 4044 
z
M 1831 4666 
L 2547 4666 
L 4325 0 
L 3669 0 
L 3244 1197 
L 1141 1197 
L 716 0 
L 50 0 
L 1831 4666 
z
" transform="scale(0.015625)"/>
        <path id="DejaVuSans-50" d="M 1259 4147 
L 1259 2394 
L 2053 2394 
Q 2494 2394 2734 2622 
Q 2975 2850 2975 3272 
Q 2975 3691 2734 3919 
Q 2494 4147 2053 4147 
L 1259 4147 
z
M 628 4666 
L 2053 4666 
Q 2838 4666 3239 4311 
Q 3641 3956 3641 3272 
Q 3641 2581 3239 2228 
Q 2838 1875 2053 1875 
L 1259 1875 
L 1259 0 
L 628 0 
L 628 4666 
z
" transform="scale(0.015625)"/>
        <path id="DejaVuSans-4d" d="M 628 4666 
L 1569 4666 
L 2759 1491 
L 3956 4666 
L 4897 4666 
L 4897 0 
L 4281 0 
L 4281 4097 
L 3078 897 
L 2444 897 
L 1241 4097 
L 1241 0 
L 628 0 
L 628 4666 
z
" transform="scale(0.015625)"/>
        <path id="DejaVuSans-2b" d="M 2944 4013 
L 2944 2272 
L 4684 2272 
L 4684 1741 
L 2944 1741 
L 2944 0 
L 2419 0 
L 2419 1741 
L 678 1741 
L 678 2272 
L 2419 2272 
L 2419 4013 
L 2944 4013 
z
" transform="scale(0.015625)"/>
        <path id="DejaVuSans-70" d="M 1159 525 
L 1159 -1331 
L 581 -1331 
L 581 3500 
L 1159 3500 
L 1159 2969 
Q 1341 3281 1617 3432 
Q 1894 3584 2278 3584 
Q 2916 3584 3314 3078 
Q 3713 2572 3713 1747 
Q 3713 922 3314 415 
Q 2916 -91 2278 -91 
Q 1894 -91 1617 61 
Q 1341 213 1159 525 
z
M 3116 1747 
Q 3116 2381 2855 2742 
Q 2594 3103 2138 3103 
Q 1681 3103 1420 2742 
Q 1159 2381 1159 1747 
Q 1159 1113 1420 752 
Q 1681 391 2138 391 
Q 2594 391 2855 752 
Q 3116 1113 3116 1747 
z
" transform="scale(0.015625)"/>
        <path id="DejaVuSans-72" d="M 2631 2963 
Q 2534 3019 2420 3045 
Q 2306 3072 2169 3072 
Q 1681 3072 1420 2755 
Q 1159 2438 1159 1844 
L 1159 0 
L 581 0 
L 581 3500 
L 1159 3500 
L 1159 2956 
Q 1341 3275 1631 3429 
Q 1922 3584 2338 3584 
Q 2397 3584 2469 3576 
Q 2541 3569 2628 3553 
L 2631 2963 
z
" transform="scale(0.015625)"/>
        <path id="DejaVuSans-69" d="M 603 3500 
L 1178 3500 
L 1178 0 
L 603 0 
L 603 3500 
z
M 603 4863 
L 1178 4863 
L 1178 4134 
L 603 4134 
L 603 4863 
z
" transform="scale(0.015625)"/>
        <path id="DejaVuSans-6f" d="M 1959 3097 
Q 1497 3097 1228 2736 
Q 959 2375 959 1747 
Q 959 1119 1226 758 
Q 1494 397 1959 397 
Q 2419 397 2687 759 
Q 2956 1122 2956 1747 
Q 2956 2369 2687 2733 
Q 2419 3097 1959 3097 
z
M 1959 3584 
Q 2709 3584 3137 3096 
Q 3566 2609 3566 1747 
Q 3566 888 3137 398 
Q 2709 -91 1959 -91 
Q 1206 -91 779 398 
Q 353 888 353 1747 
Q 353 2609 779 3096 
Q 1206 3584 1959 3584 
z
" transform="scale(0.015625)"/>
       </defs>
       <use xlink:href="#DejaVuSans-52"/>
       <use xlink:href="#DejaVuSans-41" transform="translate(65.482422 0)"/>
       <use xlink:href="#DejaVuSans-50" transform="translate(133.890625 0)"/>
       <use xlink:href="#DejaVuSans-4d" transform="translate(194.193359 0)"/>
       <use xlink:href="#DejaVuSans-2b" transform="translate(280.472656 0)"/>
       <use xlink:href="#DejaVuSans-70" transform="translate(364.261719 0)"/>
       <use xlink:href="#DejaVuSans-72" transform="translate(427.738281 0)"/>
       <use xlink:href="#DejaVuSans-69" transform="translate(468.851562 0)"/>
       <use xlink:href="#DejaVuSans-6f" transform="translate(496.634766 0)"/>
       <use xlink:href="#DejaVuSans-72" transform="translate(557.816406 0)"/>
      </g>
     </g>
    </g>
    <g id="xtick_2">
     <g id="line2d_2">
      <g>
       <use xlink:href="#m6162f6f941" x="173.625684" y="290.048943" style="stroke: #000000; stroke-width: 0.8"/>
      </g>
     </g>
     <g id="text_2">
      <!-- VORP -->
      <g transform="translate(153.452194 318.205642) rotate(-40) scale(0.09 -0.09)">
       <defs>
        <path id="DejaVuSans-56" d="M 1831 0 
L 50 4666 
L 709 4666 
L 2188 738 
L 3669 4666 
L 4325 4666 
L 2547 0 
L 1831 0 
z
" transform="scale(0.015625)"/>
        <path id="DejaVuSans-4f" d="M 2522 4238 
Q 1834 4238 1429 3725 
Q 1025 3213 1025 2328 
Q 1025 1447 1429 934 
Q 1834 422 2522 422 
Q 3209 422 3611 934 
Q 4013 1447 4013 2328 
Q 4013 3213 3611 3725 
Q 3209 4238 2522 4238 
z
M 2522 4750 
Q 3503 4750 4090 4092 
Q 4678 3434 4678 2328 
Q 4678 1225 4090 567 
Q 3503 -91 2522 -91 
Q 1538 -91 948 565 
Q 359 1222 359 2328 
Q 359 3434 948 4092 
Q 1538 4750 2522 4750 
z
" transform="scale(0.015625)"/>
       </defs>
       <use xlink:href="#DejaVuSans-56"/>
       <use xlink:href="#DejaVuSans-4f" transform="translate(66.658203 0)"/>
       <use xlink:href="#DejaVuSans-52" transform="translate(145.369141 0)"/>
       <use xlink:href="#DejaVuSans-50" transform="translate(214.851562 0)"/>
      </g>
     </g>
    </g>
    <g id="xtick_3">
     <g id="line2d_3">
      <g>
       <use xlink:href="#m6162f6f941" x="236.215275" y="290.048943" style="stroke: #000000; stroke-width: 0.8"/>
      </g>
     </g>
     <g id="text_3">
      <!-- BPM -->
      <g transform="translate(220.176271 314.736397) rotate(-40) scale(0.09 -0.09)">
       <defs>
        <path id="DejaVuSans-42" d="M 1259 2228 
L 1259 519 
L 2272 519 
Q 2781 519 3026 730 
Q 3272 941 3272 1375 
Q 3272 1813 3026 2020 
Q 2781 2228 2272 2228 
L 1259 2228 
z
M 1259 4147 
L 1259 2741 
L 2194 2741 
Q 2656 2741 2882 2914 
Q 3109 3088 3109 3444 
Q 3109 3797 2882 3972 
Q 2656 4147 2194 4147 
L 1259 4147 
z
M 628 4666 
L 2241 4666 
Q 2963 4666 3353 4366 
Q 3744 4066 3744 3513 
Q 3744 3084 3544 2831 
Q 3344 2578 2956 2516 
Q 3422 2416 3680 2098 
Q 3938 1781 3938 1306 
Q 3938 681 3513 340 
Q 3088 0 2303 0 
L 628 0 
L 628 4666 
z
" transform="scale(0.015625)"/>
       </defs>
       <use xlink:href="#DejaVuSans-42"/>
       <use xlink:href="#DejaVuSans-50" transform="translate(68.603516 0)"/>
       <use xlink:href="#DejaVuSans-4d" transform="translate(128.90625 0)"/>
      </g>
     </g>
    </g>
    <g id="xtick_4">
     <g id="line2d_4">
      <g>
       <use xlink:href="#m6162f6f941" x="298.804867" y="290.048943" style="stroke: #000000; stroke-width: 0.8"/>
      </g>
     </g>
     <g id="text_4">
      <!-- O-RAPM+prior -->
      <g transform="translate(248.204451 343.736865) rotate(-40) scale(0.09 -0.09)">
       <defs>
        <path id="DejaVuSans-2d" d="M 313 2009 
L 1997 2009 
L 1997 1497 
L 313 1497 
L 313 2009 
z
" transform="scale(0.015625)"/>
       </defs>
       <use xlink:href="#DejaVuSans-4f"/>
       <use xlink:href="#DejaVuSans-2d" transform="translate(81.460938 0)"/>
       <use xlink:href="#DejaVuSans-52" transform="translate(117.544922 0)"/>
       <use xlink:href="#DejaVuSans-41" transform="translate(183.027344 0)"/>
       <use xlink:href="#DejaVuSans-50" transform="translate(251.435547 0)"/>
       <use xlink:href="#DejaVuSans-4d" transform="translate(311.738281 0)"/>
       <use xlink:href="#DejaVuSans-2b" transform="translate(398.017578 0)"/>
       <use xlink:href="#DejaVuSans-70" transform="translate(481.806641 0)"/>
       <use xlink:href="#DejaVuSans-72" transform="translate(545.283203 0)"/>
       <use xlink:href="#DejaVuSans-69" transform="translate(586.396484 0)"/>
       <use xlink:href="#DejaVuSans-6f" transform="translate(614.179688 0)"/>
       <use xlink:href="#DejaVuSans-72" transform="translate(675.361328 0)"/>
      </g>
     </g>
    </g>
    <g id="xtick_5">
     <g id="line2d_5">
      <g>
       <use xlink:href="#m6162f6f941" x="361.394459" y="290.048943" style="stroke: #000000; stroke-width: 0.8"/>
      </g>
     </g>
     <g id="text_5">
      <!-- O-RAPM -->
      <g transform="translate(332.750552 325.313166) rotate(-40) scale(0.09 -0.09)">
       <use xlink:href="#DejaVuSans-4f"/>
       <use xlink:href="#DejaVuSans-2d" transform="translate(81.460938 0)"/>
       <use xlink:href="#DejaVuSans-52" transform="translate(117.544922 0)"/>
       <use xlink:href="#DejaVuSans-41" transform="translate(183.027344 0)"/>
       <use xlink:href="#DejaVuSans-50" transform="translate(251.435547 0)"/>
       <use xlink:href="#DejaVuSans-4d" transform="translate(311.738281 0)"/>
      </g>
     </g>
    </g>
    <g id="xtick_6">
     <g id="line2d_6">
      <g>
       <use xlink:href="#m6162f6f941" x="423.98405" y="290.048943" style="stroke: #000000; stroke-width: 0.8"/>
      </g>
     </g>
     <g id="text_6">
      <!-- Win Shares -->
      <g transform="translate(384.159366 334.694952) rotate(-40) scale(0.09 -0.09)">
       <defs>
        <path id="DejaVuSans-57" d="M 213 4666 
L 850 4666 
L 1831 722 
L 2809 4666 
L 3519 4666 
L 4500 722 
L 5478 4666 
L 6119 4666 
L 4947 0 
L 4153 0 
L 3169 4050 
L 2175 0 
L 1381 0 
L 213 4666 
z
" transform="scale(0.015625)"/>
        <path id="DejaVuSans-6e" d="M 3513 2113 
L 3513 0 
L 2938 0 
L 2938 2094 
Q 2938 2591 2744 2837 
Q 2550 3084 2163 3084 
Q 1697 3084 1428 2787 
Q 1159 2491 1159 1978 
L 1159 0 
L 581 0 
L 581 3500 
L 1159 3500 
L 1159 2956 
Q 1366 3272 1645 3428 
Q 1925 3584 2291 3584 
Q 2894 3584 3203 3211 
Q 3513 2838 3513 2113 
z
" transform="scale(0.015625)"/>
        <path id="DejaVuSans-20" transform="scale(0.015625)"/>
        <path id="DejaVuSans-53" d="M 3425 4513 
L 3425 3897 
Q 3066 4069 2747 4153 
Q 2428 4238 2131 4238 
Q 1616 4238 1336 4038 
Q 1056 3838 1056 3469 
Q 1056 3159 1242 3001 
Q 1428 2844 1947 2747 
L 2328 2669 
Q 3034 2534 3370 2195 
Q 3706 1856 3706 1288 
Q 3706 609 3251 259 
Q 2797 -91 1919 -91 
Q 1588 -91 1214 -16 
Q 841 59 441 206 
L 441 856 
Q 825 641 1194 531 
Q 1563 422 1919 422 
Q 2459 422 2753 634 
Q 3047 847 3047 1241 
Q 3047 1584 2836 1778 
Q 2625 1972 2144 2069 
L 1759 2144 
Q 1053 2284 737 2584 
Q 422 2884 422 3419 
Q 422 4038 858 4394 
Q 1294 4750 2059 4750 
Q 2388 4750 2728 4690 
Q 3069 4631 3425 4513 
z
" transform="scale(0.015625)"/>
        <path id="DejaVuSans-68" d="M 3513 2113 
L 3513 0 
L 2938 0 
L 2938 2094 
Q 2938 2591 2744 2837 
Q 2550 3084 2163 3084 
Q 1697 3084 1428 2787 
Q 1159 2491 1159 1978 
L 1159 0 
L 581 0 
L 581 4863 
L 1159 4863 
L 1159 2956 
Q 1366 3272 1645 3428 
Q 1925 3584 2291 3584 
Q 2894 3584 3203 3211 
Q 3513 2838 3513 2113 
z
" transform="scale(0.015625)"/>
        <path id="DejaVuSans-61" d="M 2194 1759 
Q 1497 1759 1228 1600 
Q 959 1441 959 1056 
Q 959 750 1161 570 
Q 1363 391 1709 391 
Q 2188 391 2477 730 
Q 2766 1069 2766 1631 
L 2766 1759 
L 2194 1759 
z
M 3341 1997 
L 3341 0 
L 2766 0 
L 2766 531 
Q 2569 213 2275 61 
Q 1981 -91 1556 -91 
Q 1019 -91 701 211 
Q 384 513 384 1019 
Q 384 1609 779 1909 
Q 1175 2209 1959 2209 
L 2766 2209 
L 2766 2266 
Q 2766 2663 2505 2880 
Q 2244 3097 1772 3097 
Q 1472 3097 1187 3025 
Q 903 2953 641 2809 
L 641 3341 
Q 956 3463 1253 3523 
Q 1550 3584 1831 3584 
Q 2591 3584 2966 3190 
Q 3341 2797 3341 1997 
z
" transform="scale(0.015625)"/>
        <path id="DejaVuSans-65" d="M 3597 1894 
L 3597 1613 
L 953 1613 
Q 991 1019 1311 708 
Q 1631 397 2203 397 
Q 2534 397 2845 478 
Q 3156 559 3463 722 
L 3463 178 
Q 3153 47 2828 -22 
Q 2503 -91 2169 -91 
Q 1331 -91 842 396 
Q 353 884 353 1716 
Q 353 2575 817 3079 
Q 1281 3584 2069 3584 
Q 2775 3584 3186 3129 
Q 3597 2675 3597 1894 
z
M 3022 2063 
Q 3016 2534 2758 2815 
Q 2500 3097 2075 3097 
Q 1594 3097 1305 2825 
Q 1016 2553 972 2059 
L 3022 2063 
z
" transform="scale(0.015625)"/>
        <path id="DejaVuSans-73" d="M 2834 3397 
L 2834 2853 
Q 2591 2978 2328 3040 
Q 2066 3103 1784 3103 
Q 1356 3103 1142 2972 
Q 928 2841 928 2578 
Q 928 2378 1081 2264 
Q 1234 2150 1697 2047 
L 1894 2003 
Q 2506 1872 2764 1633 
Q 3022 1394 3022 966 
Q 3022 478 2636 193 
Q 2250 -91 1575 -91 
Q 1294 -91 989 -36 
Q 684 19 347 128 
L 347 722 
Q 666 556 975 473 
Q 1284 391 1588 391 
Q 1994 391 2212 530 
Q 2431 669 2431 922 
Q 2431 1156 2273 1281 
Q 2116 1406 1581 1522 
L 1381 1569 
Q 847 1681 609 1914 
Q 372 2147 372 2553 
Q 372 3047 722 3315 
Q 1072 3584 1716 3584 
Q 2034 3584 2315 3537 
Q 2597 3491 2834 3397 
z
" transform="scale(0.015625)"/>
       </defs>
       <use xlink:href="#DejaVuSans-57"/>
       <use xlink:href="#DejaVuSans-69" transform="translate(96.626953 0)"/>
       <use xlink:href="#DejaVuSans-6e" transform="translate(124.410156 0)"/>
       <use xlink:href="#DejaVuSans-20" transform="translate(187.789062 0)"/>
       <use xlink:href="#DejaVuSans-53" transform="translate(219.576172 0)"/>
       <use xlink:href="#DejaVuSans-68" transform="translate(283.052734 0)"/>
       <use xlink:href="#DejaVuSans-61" transform="translate(346.431641 0)"/>
       <use xlink:href="#DejaVuSans-72" transform="translate(407.710938 0)"/>
       <use xlink:href="#DejaVuSans-65" transform="translate(446.574219 0)"/>
       <use xlink:href="#DejaVuSans-73" transform="translate(508.097656 0)"/>
      </g>
     </g>
    </g>
    <g id="xtick_7">
     <g id="line2d_7">
      <g>
       <use xlink:href="#m6162f6f941" x="486.573642" y="290.048943" style="stroke: #000000; stroke-width: 0.8"/>
      </g>
     </g>
     <g id="text_7">
      <!-- Off BPM -->
      <g transform="translate(458.062237 325.201983) rotate(-40) scale(0.09 -0.09)">
       <defs>
        <path id="DejaVuSans-66" d="M 2375 4863 
L 2375 4384 
L 1825 4384 
Q 1516 4384 1395 4259 
Q 1275 4134 1275 3809 
L 1275 3500 
L 2222 3500 
L 2222 3053 
L 1275 3053 
L 1275 0 
L 697 0 
L 697 3053 
L 147 3053 
L 147 3500 
L 697 3500 
L 697 3744 
Q 697 4328 969 4595 
Q 1241 4863 1831 4863 
L 2375 4863 
z
" transform="scale(0.015625)"/>
       </defs>
       <use xlink:href="#DejaVuSans-4f"/>
       <use xlink:href="#DejaVuSans-66" transform="translate(78.710938 0)"/>
       <use xlink:href="#DejaVuSans-66" transform="translate(113.916016 0)"/>
       <use xlink:href="#DejaVuSans-20" transform="translate(149.121094 0)"/>
       <use xlink:href="#DejaVuSans-42" transform="translate(180.908203 0)"/>
       <use xlink:href="#DejaVuSans-50" transform="translate(249.511719 0)"/>
       <use xlink:href="#DejaVuSans-4d" transform="translate(309.814453 0)"/>
      </g>
     </g>
    </g>
    <g id="xtick_8">
     <g id="line2d_8">
      <g>
       <use xlink:href="#m6162f6f941" x="549.163233" y="290.048943" style="stroke: #000000; stroke-width: 0.8"/>
      </g>
     </g>
     <g id="text_8">
      <!-- WS/48 -->
      <g transform="translate(525.670736 320.99062) rotate(-40) scale(0.09 -0.09)">
       <defs>
        <path id="DejaVuSans-2f" d="M 1625 4666 
L 2156 4666 
L 531 -594 
L 0 -594 
L 1625 4666 
z
" transform="scale(0.015625)"/>
        <path id="DejaVuSans-34" d="M 2419 4116 
L 825 1625 
L 2419 1625 
L 2419 4116 
z
M 2253 4666 
L 3047 4666 
L 3047 1625 
L 3713 1625 
L 3713 1100 
L 3047 1100 
L 3047 0 
L 2419 0 
L 2419 1100 
L 313 1100 
L 313 1709 
L 2253 4666 
z
" transform="scale(0.015625)"/>
        <path id="DejaVuSans-38" d="M 2034 2216 
Q 1584 2216 1326 1975 
Q 1069 1734 1069 1313 
Q 1069 891 1326 650 
Q 1584 409 2034 409 
Q 2484 409 2743 651 
Q 3003 894 3003 1313 
Q 3003 1734 2745 1975 
Q 2488 2216 2034 2216 
z
M 1403 2484 
Q 997 2584 770 2862 
Q 544 3141 544 3541 
Q 544 4100 942 4425 
Q 1341 4750 2034 4750 
Q 2731 4750 3128 4425 
Q 3525 4100 3525 3541 
Q 3525 3141 3298 2862 
Q 3072 2584 2669 2484 
Q 3125 2378 3379 2068 
Q 3634 1759 3634 1313 
Q 3634 634 3220 271 
Q 2806 -91 2034 -91 
Q 1263 -91 848 271 
Q 434 634 434 1313 
Q 434 1759 690 2068 
Q 947 2378 1403 2484 
z
M 1172 3481 
Q 1172 3119 1398 2916 
Q 1625 2713 2034 2713 
Q 2441 2713 2670 2916 
Q 2900 3119 2900 3481 
Q 2900 3844 2670 4047 
Q 2441 4250 2034 4250 
Q 1625 4250 1398 4047 
Q 1172 3844 1172 3481 
z
" transform="scale(0.015625)"/>
       </defs>
       <use xlink:href="#DejaVuSans-57"/>
       <use xlink:href="#DejaVuSans-53" transform="translate(98.876953 0)"/>
       <use xlink:href="#DejaVuSans-2f" transform="translate(162.353516 0)"/>
       <use xlink:href="#DejaVuSans-34" transform="translate(196.044922 0)"/>
       <use xlink:href="#DejaVuSans-38" transform="translate(259.667969 0)"/>
      </g>
     </g>
    </g>
    <g id="xtick_9">
     <g id="line2d_9">
      <g>
       <use xlink:href="#m6162f6f941" x="611.752825" y="290.048943" style="stroke: #000000; stroke-width: 0.8"/>
      </g>
     </g>
     <g id="text_9">
      <!-- Game Score -->
      <g transform="translate(568.526185 337.549532) rotate(-40) scale(0.09 -0.09)">
       <defs>
        <path id="DejaVuSans-47" d="M 3809 666 
L 3809 1919 
L 2778 1919 
L 2778 2438 
L 4434 2438 
L 4434 434 
Q 4069 175 3628 42 
Q 3188 -91 2688 -91 
Q 1594 -91 976 548 
Q 359 1188 359 2328 
Q 359 3472 976 4111 
Q 1594 4750 2688 4750 
Q 3144 4750 3555 4637 
Q 3966 4525 4313 4306 
L 4313 3634 
Q 3963 3931 3569 4081 
Q 3175 4231 2741 4231 
Q 1884 4231 1454 3753 
Q 1025 3275 1025 2328 
Q 1025 1384 1454 906 
Q 1884 428 2741 428 
Q 3075 428 3337 486 
Q 3600 544 3809 666 
z
" transform="scale(0.015625)"/>
        <path id="DejaVuSans-6d" d="M 3328 2828 
Q 3544 3216 3844 3400 
Q 4144 3584 4550 3584 
Q 5097 3584 5394 3201 
Q 5691 2819 5691 2113 
L 5691 0 
L 5113 0 
L 5113 2094 
Q 5113 2597 4934 2840 
Q 4756 3084 4391 3084 
Q 3944 3084 3684 2787 
Q 3425 2491 3425 1978 
L 3425 0 
L 2847 0 
L 2847 2094 
Q 2847 2600 2669 2842 
Q 2491 3084 2119 3084 
Q 1678 3084 1418 2786 
Q 1159 2488 1159 1978 
L 1159 0 
L 581 0 
L 581 3500 
L 1159 3500 
L 1159 2956 
Q 1356 3278 1631 3431 
Q 1906 3584 2284 3584 
Q 2666 3584 2933 3390 
Q 3200 3197 3328 2828 
z
" transform="scale(0.015625)"/>
        <path id="DejaVuSans-63" d="M 3122 3366 
L 3122 2828 
Q 2878 2963 2633 3030 
Q 2388 3097 2138 3097 
Q 1578 3097 1268 2742 
Q 959 2388 959 1747 
Q 959 1106 1268 751 
Q 1578 397 2138 397 
Q 2388 397 2633 464 
Q 2878 531 3122 666 
L 3122 134 
Q 2881 22 2623 -34 
Q 2366 -91 2075 -91 
Q 1284 -91 818 406 
Q 353 903 353 1747 
Q 353 2603 823 3093 
Q 1294 3584 2113 3584 
Q 2378 3584 2631 3529 
Q 2884 3475 3122 3366 
z
" transform="scale(0.015625)"/>
       </defs>
       <use xlink:href="#DejaVuSans-47"/>
       <use xlink:href="#DejaVuSans-61" transform="translate(77.490234 0)"/>
       <use xlink:href="#DejaVuSans-6d" transform="translate(138.769531 0)"/>
       <use xlink:href="#DejaVuSans-65" transform="translate(236.181641 0)"/>
       <use xlink:href="#DejaVuSans-20" transform="translate(297.705078 0)"/>
       <use xlink:href="#DejaVuSans-53" transform="translate(329.492188 0)"/>
       <use xlink:href="#DejaVuSans-63" transform="translate(392.96875 0)"/>
       <use xlink:href="#DejaVuSans-6f" transform="translate(447.949219 0)"/>
       <use xlink:href="#DejaVuSans-72" transform="translate(509.130859 0)"/>
       <use xlink:href="#DejaVuSans-65" transform="translate(547.994141 0)"/>
      </g>
     </g>
    </g>
    <g id="xtick_10">
     <g id="line2d_10">
      <g>
       <use xlink:href="#m6162f6f941" x="674.342416" y="290.048943" style="stroke: #000000; stroke-width: 0.8"/>
      </g>
     </g>
     <g id="text_10">
      <!-- RAPM -->
      <g transform="translate(653.802661 318.512975) rotate(-40) scale(0.09 -0.09)">
       <use xlink:href="#DejaVuSans-52"/>
       <use xlink:href="#DejaVuSans-41" transform="translate(65.482422 0)"/>
       <use xlink:href="#DejaVuSans-50" transform="translate(133.890625 0)"/>
       <use xlink:href="#DejaVuSans-4d" transform="translate(194.193359 0)"/>
      </g>
     </g>
    </g>
    <g id="xtick_11">
     <g id="line2d_11">
      <g>
       <use xlink:href="#m6162f6f941" x="736.932008" y="290.048943" style="stroke: #000000; stroke-width: 0.8"/>
      </g>
     </g>
     <g id="text_11">
      <!-- PER -->
      <g transform="translate(722.424853 313.451022) rotate(-40) scale(0.09 -0.09)">
       <defs>
        <path id="DejaVuSans-45" d="M 628 4666 
L 3578 4666 
L 3578 4134 
L 1259 4134 
L 1259 2753 
L 3481 2753 
L 3481 2222 
L 1259 2222 
L 1259 531 
L 3634 531 
L 3634 0 
L 628 0 
L 628 4666 
z
" transform="scale(0.015625)"/>
       </defs>
       <use xlink:href="#DejaVuSans-50"/>
       <use xlink:href="#DejaVuSans-45" transform="translate(60.302734 0)"/>
       <use xlink:href="#DejaVuSans-52" transform="translate(123.486328 0)"/>
      </g>
     </g>
    </g>
    <g id="xtick_12">
     <g id="line2d_12">
      <g>
       <use xlink:href="#m6162f6f941" x="799.5216" y="290.048943" style="stroke: #000000; stroke-width: 0.8"/>
      </g>
     </g>
     <g id="text_12">
      <!-- Def BPM -->
      <g transform="translate(769.313526 326.625657) rotate(-40) scale(0.09 -0.09)">
       <defs>
        <path id="DejaVuSans-44" d="M 1259 4147 
L 1259 519 
L 2022 519 
Q 2988 519 3436 956 
Q 3884 1394 3884 2338 
Q 3884 3275 3436 3711 
Q 2988 4147 2022 4147 
L 1259 4147 
z
M 628 4666 
L 1925 4666 
Q 3281 4666 3915 4102 
Q 4550 3538 4550 2338 
Q 4550 1131 3912 565 
Q 3275 0 1925 0 
L 628 0 
L 628 4666 
z
" transform="scale(0.015625)"/>
       </defs>
       <use xlink:href="#DejaVuSans-44"/>
       <use xlink:href="#DejaVuSans-65" transform="translate(77.001953 0)"/>
       <use xlink:href="#DejaVuSans-66" transform="translate(138.525391 0)"/>
       <use xlink:href="#DejaVuSans-20" transform="translate(173.730469 0)"/>
       <use xlink:href="#DejaVuSans-42" transform="translate(205.517578 0)"/>
       <use xlink:href="#DejaVuSans-50" transform="translate(274.121094 0)"/>
       <use xlink:href="#DejaVuSans-4d" transform="translate(334.423828 0)"/>
      </g>
     </g>
    </g>
    <g id="xtick_13">
     <g id="line2d_13">
      <g>
       <use xlink:href="#m6162f6f941" x="862.111191" y="290.048943" style="stroke: #000000; stroke-width: 0.8"/>
      </g>
     </g>
     <g id="text_13">
      <!-- D-RAPM+prior -->
      <g transform="translate(811.818868 343.478343) rotate(-40) scale(0.09 -0.09)">
       <use xlink:href="#DejaVuSans-44"/>
       <use xlink:href="#DejaVuSans-2d" transform="translate(77.001953 0)"/>
       <use xlink:href="#DejaVuSans-52" transform="translate(113.085938 0)"/>
       <use xlink:href="#DejaVuSans-41" transform="translate(178.568359 0)"/>
       <use xlink:href="#DejaVuSans-50" transform="translate(246.976562 0)"/>
       <use xlink:href="#DejaVuSans-4d" transform="translate(307.279297 0)"/>
       <use xlink:href="#DejaVuSans-2b" transform="translate(393.558594 0)"/>
       <use xlink:href="#DejaVuSans-70" transform="translate(477.347656 0)"/>
       <use xlink:href="#DejaVuSans-72" transform="translate(540.824219 0)"/>
       <use xlink:href="#DejaVuSans-69" transform="translate(581.9375 0)"/>
       <use xlink:href="#DejaVuSans-6f" transform="translate(609.720703 0)"/>
       <use xlink:href="#DejaVuSans-72" transform="translate(670.902344 0)"/>
      </g>
     </g>
    </g>
    <g id="xtick_14">
     <g id="line2d_14">
      <g>
       <use xlink:href="#m6162f6f941" x="924.700783" y="290.048943" style="stroke: #000000; stroke-width: 0.8"/>
      </g>
     </g>
     <g id="text_14">
      <!-- D-RAPM -->
      <g transform="translate(896.364969 325.054644) rotate(-40) scale(0.09 -0.09)">
       <use xlink:href="#DejaVuSans-44"/>
       <use xlink:href="#DejaVuSans-2d" transform="translate(77.001953 0)"/>
       <use xlink:href="#DejaVuSans-52" transform="translate(113.085938 0)"/>
       <use xlink:href="#DejaVuSans-41" transform="translate(178.568359 0)"/>
       <use xlink:href="#DejaVuSans-50" transform="translate(246.976562 0)"/>
       <use xlink:href="#DejaVuSans-4d" transform="translate(307.279297 0)"/>
      </g>
     </g>
    </g>
   </g>
   <g id="matplotlib.axis_2">
    <g id="ytick_1">
     <g id="line2d_15">
      <path d="M 42.813438 290.048943 
L 992.923437 290.048943 
" clip-path="url(#paef9ce91b2)" style="fill: none; stroke: #e0dfd8; stroke-width: 0.7; stroke-linecap: square"/>
     </g>
     <g id="line2d_16">
      <defs>
       <path id="m89d5de51c7" d="M 0 0 
L -3.5 0 
" style="stroke: #000000; stroke-width: 0.8"/>
      </defs>
      <g>
       <use xlink:href="#m89d5de51c7" x="42.813438" y="290.048943" style="stroke: #000000; stroke-width: 0.8"/>
      </g>
     </g>
     <g id="text_15">
      <!-- 0.0 -->
      <g transform="translate(19.910313 293.848161) scale(0.1 -0.1)">
       <defs>
        <path id="DejaVuSans-30" d="M 2034 4250 
Q 1547 4250 1301 3770 
Q 1056 3291 1056 2328 
Q 1056 1369 1301 889 
Q 1547 409 2034 409 
Q 2525 409 2770 889 
Q 3016 1369 3016 2328 
Q 3016 3291 2770 3770 
Q 2525 4250 2034 4250 
z
M 2034 4750 
Q 2819 4750 3233 4129 
Q 3647 3509 3647 2328 
Q 3647 1150 3233 529 
Q 2819 -91 2034 -91 
Q 1250 -91 836 529 
Q 422 1150 422 2328 
Q 422 3509 836 4129 
Q 1250 4750 2034 4750 
z
" transform="scale(0.015625)"/>
        <path id="DejaVuSans-2e" d="M 684 794 
L 1344 794 
L 1344 0 
L 684 0 
L 684 794 
z
" transform="scale(0.015625)"/>
       </defs>
       <use xlink:href="#DejaVuSans-30"/>
       <use xlink:href="#DejaVuSans-2e" transform="translate(63.623047 0)"/>
       <use xlink:href="#DejaVuSans-30" transform="translate(95.410156 0)"/>
      </g>
     </g>
    </g>
    <g id="ytick_2">
     <g id="line2d_17">
      <path d="M 42.813438 240.426795 
L 992.923437 240.426795 
" clip-path="url(#paef9ce91b2)" style="fill: none; stroke: #e0dfd8; stroke-width: 0.7; stroke-linecap: square"/>
     </g>
     <g id="line2d_18">
      <g>
       <use xlink:href="#m89d5de51c7" x="42.813438" y="240.426795" style="stroke: #000000; stroke-width: 0.8"/>
      </g>
     </g>
     <g id="text_16">
      <!-- 0.2 -->
      <g transform="translate(19.910313 244.226014) scale(0.1 -0.1)">
       <defs>
        <path id="DejaVuSans-32" d="M 1228 531 
L 3431 531 
L 3431 0 
L 469 0 
L 469 531 
Q 828 903 1448 1529 
Q 2069 2156 2228 2338 
Q 2531 2678 2651 2914 
Q 2772 3150 2772 3378 
Q 2772 3750 2511 3984 
Q 2250 4219 1831 4219 
Q 1534 4219 1204 4116 
Q 875 4013 500 3803 
L 500 4441 
Q 881 4594 1212 4672 
Q 1544 4750 1819 4750 
Q 2544 4750 2975 4387 
Q 3406 4025 3406 3419 
Q 3406 3131 3298 2873 
Q 3191 2616 2906 2266 
Q 2828 2175 2409 1742 
Q 1991 1309 1228 531 
z
" transform="scale(0.015625)"/>
       </defs>
       <use xlink:href="#DejaVuSans-30"/>
       <use xlink:href="#DejaVuSans-2e" transform="translate(63.623047 0)"/>
       <use xlink:href="#DejaVuSans-32" transform="translate(95.410156 0)"/>
      </g>
     </g>
    </g>
    <g id="ytick_3">
     <g id="line2d_19">
      <path d="M 42.813438 190.804647 
L 992.923437 190.804647 
" clip-path="url(#paef9ce91b2)" style="fill: none; stroke: #e0dfd8; stroke-width: 0.7; stroke-linecap: square"/>
     </g>
     <g id="line2d_20">
      <g>
       <use xlink:href="#m89d5de51c7" x="42.813438" y="190.804647" style="stroke: #000000; stroke-width: 0.8"/>
      </g>
     </g>
     <g id="text_17">
      <!-- 0.4 -->
      <g transform="translate(19.910313 194.603866) scale(0.1 -0.1)">
       <use xlink:href="#DejaVuSans-30"/>
       <use xlink:href="#DejaVuSans-2e" transform="translate(63.623047 0)"/>
       <use xlink:href="#DejaVuSans-34" transform="translate(95.410156 0)"/>
      </g>
     </g>
    </g>
    <g id="ytick_4">
     <g id="line2d_21">
      <path d="M 42.813438 141.182499 
L 992.923437 141.182499 
" clip-path="url(#paef9ce91b2)" style="fill: none; stroke: #e0dfd8; stroke-width: 0.7; stroke-linecap: square"/>
     </g>
     <g id="line2d_22">
      <g>
       <use xlink:href="#m89d5de51c7" x="42.813438" y="141.182499" style="stroke: #000000; stroke-width: 0.8"/>
      </g>
     </g>
     <g id="text_18">
      <!-- 0.6 -->
      <g transform="translate(19.910313 144.981718) scale(0.1 -0.1)">
       <defs>
        <path id="DejaVuSans-36" d="M 2113 2584 
Q 1688 2584 1439 2293 
Q 1191 2003 1191 1497 
Q 1191 994 1439 701 
Q 1688 409 2113 409 
Q 2538 409 2786 701 
Q 3034 994 3034 1497 
Q 3034 2003 2786 2293 
Q 2538 2584 2113 2584 
z
M 3366 4563 
L 3366 3988 
Q 3128 4100 2886 4159 
Q 2644 4219 2406 4219 
Q 1781 4219 1451 3797 
Q 1122 3375 1075 2522 
Q 1259 2794 1537 2939 
Q 1816 3084 2150 3084 
Q 2853 3084 3261 2657 
Q 3669 2231 3669 1497 
Q 3669 778 3244 343 
Q 2819 -91 2113 -91 
Q 1303 -91 875 529 
Q 447 1150 447 2328 
Q 447 3434 972 4092 
Q 1497 4750 2381 4750 
Q 2619 4750 2861 4703 
Q 3103 4656 3366 4563 
z
" transform="scale(0.015625)"/>
       </defs>
       <use xlink:href="#DejaVuSans-30"/>
       <use xlink:href="#DejaVuSans-2e" transform="translate(63.623047 0)"/>
       <use xlink:href="#DejaVuSans-36" transform="translate(95.410156 0)"/>
      </g>
     </g>
    </g>
    <g id="ytick_5">
     <g id="line2d_23">
      <path d="M 42.813438 91.560351 
L 992.923437 91.560351 
" clip-path="url(#paef9ce91b2)" style="fill: none; stroke: #e0dfd8; stroke-width: 0.7; stroke-linecap: square"/>
     </g>
     <g id="line2d_24">
      <g>
       <use xlink:href="#m89d5de51c7" x="42.813438" y="91.560351" style="stroke: #000000; stroke-width: 0.8"/>
      </g>
     </g>
     <g id="text_19">
      <!-- 0.8 -->
      <g transform="translate(19.910313 95.35957) scale(0.1 -0.1)">
       <use xlink:href="#DejaVuSans-30"/>
       <use xlink:href="#DejaVuSans-2e" transform="translate(63.623047 0)"/>
       <use xlink:href="#DejaVuSans-38" transform="translate(95.410156 0)"/>
      </g>
     </g>
    </g>
    <g id="ytick_6">
     <g id="line2d_25">
      <path d="M 42.813438 41.938203 
L 992.923437 41.938203 
" clip-path="url(#paef9ce91b2)" style="fill: none; stroke: #e0dfd8; stroke-width: 0.7; stroke-linecap: square"/>
     </g>
     <g id="line2d_26">
      <g>
       <use xlink:href="#m89d5de51c7" x="42.813438" y="41.938203" style="stroke: #000000; stroke-width: 0.8"/>
      </g>
     </g>
     <g id="text_20">
      <!-- 1.0 -->
      <g transform="translate(19.910313 45.737422) scale(0.1 -0.1)">
       <defs>
        <path id="DejaVuSans-31" d="M 794 531 
L 1825 531 
L 1825 4091 
L 703 3866 
L 703 4441 
L 1819 4666 
L 2450 4666 
L 2450 531 
L 3481 531 
L 3481 0 
L 794 0 
L 794 531 
z
" transform="scale(0.015625)"/>
       </defs>
       <use xlink:href="#DejaVuSans-31"/>
       <use xlink:href="#DejaVuSans-2e" transform="translate(63.623047 0)"/>
       <use xlink:href="#DejaVuSans-30" transform="translate(95.410156 0)"/>
      </g>
     </g>
    </g>
    <g id="text_21">
     <!-- R² for team point differential -->
     <g style="fill: #888780" transform="translate(14.038594 230.418807) rotate(-90) scale(0.09 -0.09)">
      <defs>
       <path id="DejaVuSans-b2" d="M 838 2444 
L 2163 2444 
L 2163 2088 
L 294 2088 
L 294 2431 
Q 400 2528 597 2703 
Q 1672 3656 1672 3950 
Q 1672 4156 1509 4282 
Q 1347 4409 1081 4409 
Q 919 4409 728 4354 
Q 538 4300 313 4191 
L 313 4575 
Q 553 4663 761 4706 
Q 969 4750 1147 4750 
Q 1600 4750 1872 4544 
Q 2144 4338 2144 4000 
Q 2144 3566 1109 2678 
Q 934 2528 838 2444 
z
" transform="scale(0.015625)"/>
       <path id="DejaVuSans-74" d="M 1172 4494 
L 1172 3500 
L 2356 3500 
L 2356 3053 
L 1172 3053 
L 1172 1153 
Q 1172 725 1289 603 
Q 1406 481 1766 481 
L 2356 481 
L 2356 0 
L 1766 0 
Q 1100 0 847 248 
Q 594 497 594 1153 
L 594 3053 
L 172 3053 
L 172 3500 
L 594 3500 
L 594 4494 
L 1172 4494 
z
" transform="scale(0.015625)"/>
       <path id="DejaVuSans-64" d="M 2906 2969 
L 2906 4863 
L 3481 4863 
L 3481 0 
L 2906 0 
L 2906 525 
Q 2725 213 2448 61 
Q 2172 -91 1784 -91 
Q 1150 -91 751 415 
Q 353 922 353 1747 
Q 353 2572 751 3078 
Q 1150 3584 1784 3584 
Q 2172 3584 2448 3432 
Q 2725 3281 2906 2969 
z
M 947 1747 
Q 947 1113 1208 752 
Q 1469 391 1925 391 
Q 2381 391 2643 752 
Q 2906 1113 2906 1747 
Q 2906 2381 2643 2742 
Q 2381 3103 1925 3103 
Q 1469 3103 1208 2742 
Q 947 2381 947 1747 
z
" transform="scale(0.015625)"/>
       <path id="DejaVuSans-6c" d="M 603 4863 
L 1178 4863 
L 1178 0 
L 603 0 
L 603 4863 
z
" transform="scale(0.015625)"/>
      </defs>
      <use xlink:href="#DejaVuSans-52"/>
      <use xlink:href="#DejaVuSans-b2" transform="translate(69.482422 0)"/>
      <use xlink:href="#DejaVuSans-20" transform="translate(109.570312 0)"/>
      <use xlink:href="#DejaVuSans-66" transform="translate(141.357422 0)"/>
      <use xlink:href="#DejaVuSans-6f" transform="translate(176.5625 0)"/>
      <use xlink:href="#DejaVuSans-72" transform="translate(237.744141 0)"/>
      <use xlink:href="#DejaVuSans-20" transform="translate(278.857422 0)"/>
      <use xlink:href="#DejaVuSans-74" transform="translate(310.644531 0)"/>
      <use xlink:href="#DejaVuSans-65" transform="translate(349.853516 0)"/>
      <use xlink:href="#DejaVuSans-61" transform="translate(411.376953 0)"/>
      <use xlink:href="#DejaVuSans-6d" transform="translate(472.65625 0)"/>
      <use xlink:href="#DejaVuSans-20" transform="translate(570.068359 0)"/>
      <use xlink:href="#DejaVuSans-70" transform="translate(601.855469 0)"/>
      <use xlink:href="#DejaVuSans-6f" transform="translate(665.332031 0)"/>
      <use xlink:href="#DejaVuSans-69" transform="translate(726.513672 0)"/>
      <use xlink:href="#DejaVuSans-6e" transform="translate(754.296875 0)"/>
      <use xlink:href="#DejaVuSans-74" transform="translate(817.675781 0)"/>
      <use xlink:href="#DejaVuSans-20" transform="translate(856.884766 0)"/>
      <use xlink:href="#DejaVuSans-64" transform="translate(888.671875 0)"/>
      <use xlink:href="#DejaVuSans-69" transform="translate(952.148438 0)"/>
      <use xlink:href="#DejaVuSans-66" transform="translate(979.931641 0)"/>
      <use xlink:href="#DejaVuSans-66" transform="translate(1015.136719 0)"/>
      <use xlink:href="#DejaVuSans-65" transform="translate(1050.341797 0)"/>
      <use xlink:href="#DejaVuSans-72" transform="translate(1111.865234 0)"/>
      <use xlink:href="#DejaVuSans-65" transform="translate(1150.728516 0)"/>
      <use xlink:href="#DejaVuSans-6e" transform="translate(1212.251953 0)"/>
      <use xlink:href="#DejaVuSans-74" transform="translate(1275.630859 0)"/>
      <use xlink:href="#DejaVuSans-69" transform="translate(1314.839844 0)"/>
      <use xlink:href="#DejaVuSans-61" transform="translate(1342.623047 0)"/>
      <use xlink:href="#DejaVuSans-6c" transform="translate(1403.902344 0)"/>
     </g>
    </g>
   </g>
   <g id="patch_3">
    <path d="M 42.813438 290.048943 
L 42.813438 41.938203 
" style="fill: none; stroke: #000000; stroke-width: 0.8; stroke-linejoin: miter; stroke-linecap: square"/>
   </g>
   <g id="patch_4">
    <path d="M 42.813438 290.048943 
L 992.923438 290.048943 
" style="fill: none; stroke: #000000; stroke-width: 0.8; stroke-linejoin: miter; stroke-linecap: square"/>
   </g>
   <g id="patch_5">
    <path d="M 86.000256 290.048943 
L 111.036092 290.048943 
L 111.036092 57.746146 
L 86.000256 57.746146 
z
" clip-path="url(#paef9ce91b2)" style="fill: #cccccc; opacity: 0.95"/>
   </g>
   <g id="patch_6">
    <path d="M 148.589847 290.048943 
L 173.625684 290.048943 
L 173.625684 57.129177 
L 148.589847 57.129177 
z
" clip-path="url(#paef9ce91b2)" style="fill: #cccccc; opacity: 0.95"/>
   </g>
   <g id="patch_7">
    <path d="M 211.179439 290.048943 
L 236.215275 290.048943 
L 236.215275 42.041375 
L 211.179439 42.041375 
z
" clip-path="url(#paef9ce91b2)" style="fill: #cccccc; opacity: 0.95"/>
   </g>
   <g id="patch_8">
    <path d="M 273.76903 290.048943 
L 298.804867 290.048943 
L 298.804867 87.02242 
L 273.76903 87.02242 
z
" clip-path="url(#paef9ce91b2)" style="fill: #cccccc; opacity: 0.95"/>
   </g>
   <g id="patch_9">
    <path d="M 336.358622 290.048943 
L 361.394459 290.048943 
L 361.394459 105.57842 
L 336.358622 105.57842 
z
" clip-path="url(#paef9ce91b2)" style="fill: #cccccc; opacity: 0.95"/>
   </g>
   <g id="patch_10">
    <path d="M 398.948214 290.048943 
L 423.98405 290.048943 
L 423.98405 118.861304 
L 398.948214 118.861304 
z
" clip-path="url(#paef9ce91b2)" style="fill: #cccccc; opacity: 0.95"/>
   </g>
   <g id="patch_11">
    <path d="M 461.537805 290.048943 
L 486.573642 290.048943 
L 486.573642 106.103826 
L 461.537805 106.103826 
z
" clip-path="url(#paef9ce91b2)" style="fill: #cccccc; opacity: 0.95"/>
   </g>
   <g id="patch_12">
    <path d="M 524.127397 290.048943 
L 549.163233 290.048943 
L 549.163233 105.663517 
L 524.127397 105.663517 
z
" clip-path="url(#paef9ce91b2)" style="fill: #cccccc; opacity: 0.95"/>
   </g>
   <g id="patch_13">
    <path d="M 586.716988 290.048943 
L 611.752825 290.048943 
L 611.752825 173.177193 
L 586.716988 173.177193 
z
" clip-path="url(#paef9ce91b2)" style="fill: #cccccc; opacity: 0.95"/>
   </g>
   <g id="patch_14">
    <path d="M 649.30658 290.048943 
L 674.342416 290.048943 
L 674.342416 69.936748 
L 649.30658 69.936748 
z
" clip-path="url(#paef9ce91b2)" style="fill: #cccccc; opacity: 0.95"/>
   </g>
   <g id="patch_15">
    <path d="M 711.896171 290.048943 
L 736.932008 290.048943 
L 736.932008 109.575036 
L 711.896171 109.575036 
z
" clip-path="url(#paef9ce91b2)" style="fill: #cccccc; opacity: 0.95"/>
   </g>
   <g id="patch_16">
    <path d="M 774.485763 290.048943 
L 799.5216 290.048943 
L 799.5216 87.726404 
L 774.485763 87.726404 
z
" clip-path="url(#paef9ce91b2)" style="fill: #cccccc; opacity: 0.95"/>
   </g>
   <g id="patch_17">
    <path d="M 837.075354 290.048943 
L 862.111191 290.048943 
L 862.111191 106.597733 
L 837.075354 106.597733 
z
" clip-path="url(#paef9ce91b2)" style="fill: #cccccc; opacity: 0.95"/>
   </g>
   <g id="patch_18">
    <path d="M 899.664946 290.048943 
L 924.700783 290.048943 
L 924.700783 123.91956 
L 899.664946 123.91956 
z
" clip-path="url(#paef9ce91b2)" style="fill: #cccccc; opacity: 0.95"/>
   </g>
   <g id="patch_19">
    <path d="M 111.036092 290.048943 
L 136.071929 290.048943 
L 136.071929 154.57753 
L 111.036092 154.57753 
z
" clip-path="url(#paef9ce91b2)" style="fill: #378add; opacity: 0.9"/>
   </g>
   <g id="patch_20">
    <path d="M 173.625684 290.048943 
L 198.661521 290.048943 
L 198.661521 161.240635 
L 173.625684 161.240635 
z
" clip-path="url(#paef9ce91b2)" style="fill: #378add; opacity: 0.9"/>
   </g>
   <g id="patch_21">
    <path d="M 236.215275 290.048943 
L 261.251112 290.048943 
L 261.251112 161.384969 
L 236.215275 161.384969 
z
" clip-path="url(#paef9ce91b2)" style="fill: #378add; opacity: 0.9"/>
   </g>
   <g id="patch_22">
    <path d="M 298.804867 290.048943 
L 323.840704 290.048943 
L 323.840704 170.547437 
L 298.804867 170.547437 
z
" clip-path="url(#paef9ce91b2)" style="fill: #378add; opacity: 0.9"/>
   </g>
   <g id="patch_23">
    <path d="M 361.394459 290.048943 
L 386.430295 290.048943 
L 386.430295 185.570108 
L 361.394459 185.570108 
z
" clip-path="url(#paef9ce91b2)" style="fill: #378add; opacity: 0.9"/>
   </g>
   <g id="patch_24">
    <path d="M 423.98405 290.048943 
L 449.019887 290.048943 
L 449.019887 197.885995 
L 423.98405 197.885995 
z
" clip-path="url(#paef9ce91b2)" style="fill: #378add; opacity: 0.9"/>
   </g>
   <g id="patch_25">
    <path d="M 486.573642 290.048943 
L 511.609478 290.048943 
L 511.609478 204.489134 
L 486.573642 204.489134 
z
" clip-path="url(#paef9ce91b2)" style="fill: #378add; opacity: 0.9"/>
   </g>
   <g id="patch_26">
    <path d="M 549.163233 290.048943 
L 574.19907 290.048943 
L 574.19907 211.107622 
L 549.163233 211.107622 
z
" clip-path="url(#paef9ce91b2)" style="fill: #378add; opacity: 0.9"/>
   </g>
   <g id="patch_27">
    <path d="M 611.752825 290.048943 
L 636.788661 290.048943 
L 636.788661 211.221263 
L 611.752825 211.221263 
z
" clip-path="url(#paef9ce91b2)" style="fill: #378add; opacity: 0.9"/>
   </g>
   <g id="patch_28">
    <path d="M 674.342416 290.048943 
L 699.378253 290.048943 
L 699.378253 230.147076 
L 674.342416 230.147076 
z
" clip-path="url(#paef9ce91b2)" style="fill: #378add; opacity: 0.9"/>
   </g>
   <g id="patch_29">
    <path d="M 736.932008 290.048943 
L 761.967845 290.048943 
L 761.967845 234.874439 
L 736.932008 234.874439 
z
" clip-path="url(#paef9ce91b2)" style="fill: #378add; opacity: 0.9"/>
   </g>
   <g id="patch_30">
    <path d="M 799.5216 290.048943 
L 824.557436 290.048943 
L 824.557436 251.438265 
L 799.5216 251.438265 
z
" clip-path="url(#paef9ce91b2)" style="fill: #378add; opacity: 0.9"/>
   </g>
   <g id="patch_31">
    <path d="M 862.111191 290.048943 
L 887.147028 290.048943 
L 887.147028 267.322104 
L 862.111191 267.322104 
z
" clip-path="url(#paef9ce91b2)" style="fill: #378add; opacity: 0.9"/>
   </g>
   <g id="patch_32">
    <path d="M 924.700783 290.048943 
L 949.736619 290.048943 
L 949.736619 312.77703 
L 924.700783 312.77703 
z
" clip-path="url(#paef9ce91b2)" style="fill: #378add; opacity: 0.9"/>
   </g>
   <g id="text_22">
    <!-- Grey: how well each system rebuilds the same season. Blue: how well last season's version predicts this one (2024-25 to 2025-26) -->
    <g style="fill: #888780" transform="translate(272.34832 36.656776) scale(0.075 -0.075)">
     <defs>
      <path id="DejaVuSans-79" d="M 2059 -325 
Q 1816 -950 1584 -1140 
Q 1353 -1331 966 -1331 
L 506 -1331 
L 506 -850 
L 844 -850 
Q 1081 -850 1212 -737 
Q 1344 -625 1503 -206 
L 1606 56 
L 191 3500 
L 800 3500 
L 1894 763 
L 2988 3500 
L 3597 3500 
L 2059 -325 
z
" transform="scale(0.015625)"/>
      <path id="DejaVuSans-3a" d="M 750 794 
L 1409 794 
L 1409 0 
L 750 0 
L 750 794 
z
M 750 3309 
L 1409 3309 
L 1409 2516 
L 750 2516 
L 750 3309 
z
" transform="scale(0.015625)"/>
      <path id="DejaVuSans-77" d="M 269 3500 
L 844 3500 
L 1563 769 
L 2278 3500 
L 2956 3500 
L 3675 769 
L 4391 3500 
L 4966 3500 
L 4050 0 
L 3372 0 
L 2619 2869 
L 1863 0 
L 1184 0 
L 269 3500 
z
" transform="scale(0.015625)"/>
      <path id="DejaVuSans-62" d="M 3116 1747 
Q 3116 2381 2855 2742 
Q 2594 3103 2138 3103 
Q 1681 3103 1420 2742 
Q 1159 2381 1159 1747 
Q 1159 1113 1420 752 
Q 1681 391 2138 391 
Q 2594 391 2855 752 
Q 3116 1113 3116 1747 
z
M 1159 2969 
Q 1341 3281 1617 3432 
Q 1894 3584 2278 3584 
Q 2916 3584 3314 3078 
Q 3713 2572 3713 1747 
Q 3713 922 3314 415 
Q 2916 -91 2278 -91 
Q 1894 -91 1617 61 
Q 1341 213 1159 525 
L 1159 0 
L 581 0 
L 581 4863 
L 1159 4863 
L 1159 2969 
z
" transform="scale(0.015625)"/>
      <path id="DejaVuSans-75" d="M 544 1381 
L 544 3500 
L 1119 3500 
L 1119 1403 
Q 1119 906 1312 657 
Q 1506 409 1894 409 
Q 2359 409 2629 706 
Q 2900 1003 2900 1516 
L 2900 3500 
L 3475 3500 
L 3475 0 
L 2900 0 
L 2900 538 
Q 2691 219 2414 64 
Q 2138 -91 1772 -91 
Q 1169 -91 856 284 
Q 544 659 544 1381 
z
M 1991 3584 
L 1991 3584 
z
" transform="scale(0.015625)"/>
      <path id="DejaVuSans-27" d="M 1147 4666 
L 1147 2931 
L 616 2931 
L 616 4666 
L 1147 4666 
z
" transform="scale(0.015625)"/>
      <path id="DejaVuSans-76" d="M 191 3500 
L 800 3500 
L 1894 563 
L 2988 3500 
L 3597 3500 
L 2284 0 
L 1503 0 
L 191 3500 
z
" transform="scale(0.015625)"/>
      <path id="DejaVuSans-28" d="M 1984 4856 
Q 1566 4138 1362 3434 
Q 1159 2731 1159 2009 
Q 1159 1288 1364 580 
Q 1569 -128 1984 -844 
L 1484 -844 
Q 1016 -109 783 600 
Q 550 1309 550 2009 
Q 550 2706 781 3412 
Q 1013 4119 1484 4856 
L 1984 4856 
z
" transform="scale(0.015625)"/>
      <path id="DejaVuSans-35" d="M 691 4666 
L 3169 4666 
L 3169 4134 
L 1269 4134 
L 1269 2991 
Q 1406 3038 1543 3061 
Q 1681 3084 1819 3084 
Q 2600 3084 3056 2656 
Q 3513 2228 3513 1497 
Q 3513 744 3044 326 
Q 2575 -91 1722 -91 
Q 1428 -91 1123 -41 
Q 819 9 494 109 
L 494 744 
Q 775 591 1075 516 
Q 1375 441 1709 441 
Q 2250 441 2565 725 
Q 2881 1009 2881 1497 
Q 2881 1984 2565 2268 
Q 2250 2553 1709 2553 
Q 1456 2553 1204 2497 
Q 953 2441 691 2322 
L 691 4666 
z
" transform="scale(0.015625)"/>
      <path id="DejaVuSans-29" d="M 513 4856 
L 1013 4856 
Q 1481 4119 1714 3412 
Q 1947 2706 1947 2009 
Q 1947 1309 1714 600 
Q 1481 -109 1013 -844 
L 513 -844 
Q 928 -128 1133 580 
Q 1338 1288 1338 2009 
Q 1338 2731 1133 3434 
Q 928 4138 513 4856 
z
" transform="scale(0.015625)"/>
     </defs>
     <use xlink:href="#DejaVuSans-47"/>
     <use xlink:href="#DejaVuSans-72" transform="translate(77.490234 0)"/>
     <use xlink:href="#DejaVuSans-65" transform="translate(116.353516 0)"/>
     <use xlink:href="#DejaVuSans-79" transform="translate(177.876953 0)"/>
     <use xlink:href="#DejaVuSans-3a" transform="translate(229.806641 0)"/>
     <use xlink:href="#DejaVuSans-20" transform="translate(263.498047 0)"/>
     <use xlink:href="#DejaVuSans-68" transform="translate(295.285156 0)"/>
     <use xlink:href="#DejaVuSans-6f" transform="translate(358.664062 0)"/>
     <use xlink:href="#DejaVuSans-77" transform="translate(419.845703 0)"/>
     <use xlink:href="#DejaVuSans-20" transform="translate(501.632812 0)"/>
     <use xlink:href="#DejaVuSans-77" transform="translate(533.419922 0)"/>
     <use xlink:href="#DejaVuSans-65" transform="translate(615.207031 0)"/>
     <use xlink:href="#DejaVuSans-6c" transform="translate(676.730469 0)"/>
     <use xlink:href="#DejaVuSans-6c" transform="translate(704.513672 0)"/>
     <use xlink:href="#DejaVuSans-20" transform="translate(732.296875 0)"/>
     <use xlink:href="#DejaVuSans-65" transform="translate(764.083984 0)"/>
     <use xlink:href="#DejaVuSans-61" transform="translate(825.607422 0)"/>
     <use xlink:href="#DejaVuSans-63" transform="translate(886.886719 0)"/>
     <use xlink:href="#DejaVuSans-68" transform="translate(941.867188 0)"/>
     <use xlink:href="#DejaVuSans-20" transform="translate(1005.246094 0)"/>
     <use xlink:href="#DejaVuSans-73" transform="translate(1037.033203 0)"/>
     <use xlink:href="#DejaVuSans-79" transform="translate(1089.132812 0)"/>
     <use xlink:href="#DejaVuSans-73" transform="translate(1148.3125 0)"/>
     <use xlink:href="#DejaVuSans-74" transform="translate(1200.412109 0)"/>
     <use xlink:href="#DejaVuSans-65" transform="translate(1239.621094 0)"/>
     <use xlink:href="#DejaVuSans-6d" transform="translate(1301.144531 0)"/>
     <use xlink:href="#DejaVuSans-20" transform="translate(1398.556641 0)"/>
     <use xlink:href="#DejaVuSans-72" transform="translate(1430.34375 0)"/>
     <use xlink:href="#DejaVuSans-65" transform="translate(1469.207031 0)"/>
     <use xlink:href="#DejaVuSans-62" transform="translate(1530.730469 0)"/>
     <use xlink:href="#DejaVuSans-75" transform="translate(1594.207031 0)"/>
     <use xlink:href="#DejaVuSans-69" transform="translate(1657.585938 0)"/>
     <use xlink:href="#DejaVuSans-6c" transform="translate(1685.369141 0)"/>
     <use xlink:href="#DejaVuSans-64" transform="translate(1713.152344 0)"/>
     <use xlink:href="#DejaVuSans-73" transform="translate(1776.628906 0)"/>
     <use xlink:href="#DejaVuSans-20" transform="translate(1828.728516 0)"/>
     <use xlink:href="#DejaVuSans-74" transform="translate(1860.515625 0)"/>
     <use xlink:href="#DejaVuSans-68" transform="translate(1899.724609 0)"/>
     <use xlink:href="#DejaVuSans-65" transform="translate(1963.103516 0)"/>
     <use xlink:href="#DejaVuSans-20" transform="translate(2024.626953 0)"/>
     <use xlink:href="#DejaVuSans-73" transform="translate(2056.414062 0)"/>
     <use xlink:href="#DejaVuSans-61" transform="translate(2108.513672 0)"/>
     <use xlink:href="#DejaVuSans-6d" transform="translate(2169.792969 0)"/>
     <use xlink:href="#DejaVuSans-65" transform="translate(2267.205078 0)"/>
     <use xlink:href="#DejaVuSans-20" transform="translate(2328.728516 0)"/>
     <use xlink:href="#DejaVuSans-73" transform="translate(2360.515625 0)"/>
     <use xlink:href="#DejaVuSans-65" transform="translate(2412.615234 0)"/>
     <use xlink:href="#DejaVuSans-61" transform="translate(2474.138672 0)"/>
     <use xlink:href="#DejaVuSans-73" transform="translate(2535.417969 0)"/>
     <use xlink:href="#DejaVuSans-6f" transform="translate(2587.517578 0)"/>
     <use xlink:href="#DejaVuSans-6e" transform="translate(2648.699219 0)"/>
     <use xlink:href="#DejaVuSans-2e" transform="translate(2712.078125 0)"/>
     <use xlink:href="#DejaVuSans-20" transform="translate(2743.865234 0)"/>
     <use xlink:href="#DejaVuSans-42" transform="translate(2775.652344 0)"/>
     <use xlink:href="#DejaVuSans-6c" transform="translate(2844.255859 0)"/>
     <use xlink:href="#DejaVuSans-75" transform="translate(2872.039062 0)"/>
     <use xlink:href="#DejaVuSans-65" transform="translate(2935.417969 0)"/>
     <use xlink:href="#DejaVuSans-3a" transform="translate(2996.941406 0)"/>
     <use xlink:href="#DejaVuSans-20" transform="translate(3030.632812 0)"/>
     <use xlink:href="#DejaVuSans-68" transform="translate(3062.419922 0)"/>
     <use xlink:href="#DejaVuSans-6f" transform="translate(3125.798828 0)"/>
     <use xlink:href="#DejaVuSans-77" transform="translate(3186.980469 0)"/>
     <use xlink:href="#DejaVuSans-20" transform="translate(3268.767578 0)"/>
     <use xlink:href="#DejaVuSans-77" transform="translate(3300.554688 0)"/>
     <use xlink:href="#DejaVuSans-65" transform="translate(3382.341797 0)"/>
     <use xlink:href="#DejaVuSans-6c" transform="translate(3443.865234 0)"/>
     <use xlink:href="#DejaVuSans-6c" transform="translate(3471.648438 0)"/>
     <use xlink:href="#DejaVuSans-20" transform="translate(3499.431641 0)"/>
     <use xlink:href="#DejaVuSans-6c" transform="translate(3531.21875 0)"/>
     <use xlink:href="#DejaVuSans-61" transform="translate(3559.001953 0)"/>
     <use xlink:href="#DejaVuSans-73" transform="translate(3620.28125 0)"/>
     <use xlink:href="#DejaVuSans-74" transform="translate(3672.380859 0)"/>
     <use xlink:href="#DejaVuSans-20" transform="translate(3711.589844 0)"/>
     <use xlink:href="#DejaVuSans-73" transform="translate(3743.376953 0)"/>
     <use xlink:href="#DejaVuSans-65" transform="translate(3795.476562 0)"/>
     <use xlink:href="#DejaVuSans-61" transform="translate(3857 0)"/>
     <use xlink:href="#DejaVuSans-73" transform="translate(3918.279297 0)"/>
     <use xlink:href="#DejaVuSans-6f" transform="translate(3970.378906 0)"/>
     <use xlink:href="#DejaVuSans-6e" transform="translate(4031.560547 0)"/>
     <use xlink:href="#DejaVuSans-27" transform="translate(4094.939453 0)"/>
     <use xlink:href="#DejaVuSans-73" transform="translate(4122.429688 0)"/>
     <use xlink:href="#DejaVuSans-20" transform="translate(4174.529297 0)"/>
     <use xlink:href="#DejaVuSans-76" transform="translate(4206.316406 0)"/>
     <use xlink:href="#DejaVuSans-65" transform="translate(4265.496094 0)"/>
     <use xlink:href="#DejaVuSans-72" transform="translate(4327.019531 0)"/>
     <use xlink:href="#DejaVuSans-73" transform="translate(4368.132812 0)"/>
     <use xlink:href="#DejaVuSans-69" transform="translate(4420.232422 0)"/>
     <use xlink:href="#DejaVuSans-6f" transform="translate(4448.015625 0)"/>
     <use xlink:href="#DejaVuSans-6e" transform="translate(4509.197266 0)"/>
     <use xlink:href="#DejaVuSans-20" transform="translate(4572.576172 0)"/>
     <use xlink:href="#DejaVuSans-70" transform="translate(4604.363281 0)"/>
     <use xlink:href="#DejaVuSans-72" transform="translate(4667.839844 0)"/>
     <use xlink:href="#DejaVuSans-65" transform="translate(4706.703125 0)"/>
     <use xlink:href="#DejaVuSans-64" transform="translate(4768.226562 0)"/>
     <use xlink:href="#DejaVuSans-69" transform="translate(4831.703125 0)"/>
     <use xlink:href="#DejaVuSans-63" transform="translate(4859.486328 0)"/>
     <use xlink:href="#DejaVuSans-74" transform="translate(4914.466797 0)"/>
     <use xlink:href="#DejaVuSans-73" transform="translate(4953.675781 0)"/>
     <use xlink:href="#DejaVuSans-20" transform="translate(5005.775391 0)"/>
     <use xlink:href="#DejaVuSans-74" transform="translate(5037.5625 0)"/>
     <use xlink:href="#DejaVuSans-68" transform="translate(5076.771484 0)"/>
     <use xlink:href="#DejaVuSans-69" transform="translate(5140.150391 0)"/>
     <use xlink:href="#DejaVuSans-73" transform="translate(5167.933594 0)"/>
     <use xlink:href="#DejaVuSans-20" transform="translate(5220.033203 0)"/>
     <use xlink:href="#DejaVuSans-6f" transform="translate(5251.820312 0)"/>
     <use xlink:href="#DejaVuSans-6e" transform="translate(5313.001953 0)"/>
     <use xlink:href="#DejaVuSans-65" transform="translate(5376.380859 0)"/>
     <use xlink:href="#DejaVuSans-20" transform="translate(5437.904297 0)"/>
     <use xlink:href="#DejaVuSans-28" transform="translate(5469.691406 0)"/>
     <use xlink:href="#DejaVuSans-32" transform="translate(5508.705078 0)"/>
     <use xlink:href="#DejaVuSans-30" transform="translate(5572.328125 0)"/>
     <use xlink:href="#DejaVuSans-32" transform="translate(5635.951172 0)"/>
     <use xlink:href="#DejaVuSans-34" transform="translate(5699.574219 0)"/>
     <use xlink:href="#DejaVuSans-2d" transform="translate(5763.197266 0)"/>
     <use xlink:href="#DejaVuSans-32" transform="translate(5799.28125 0)"/>
     <use xlink:href="#DejaVuSans-35" transform="translate(5862.904297 0)"/>
     <use xlink:href="#DejaVuSans-20" transform="translate(5926.527344 0)"/>
     <use xlink:href="#DejaVuSans-74" transform="translate(5958.314453 0)"/>
     <use xlink:href="#DejaVuSans-6f" transform="translate(5997.523438 0)"/>
     <use xlink:href="#DejaVuSans-20" transform="translate(6058.705078 0)"/>
     <use xlink:href="#DejaVuSans-32" transform="translate(6090.492188 0)"/>
     <use xlink:href="#DejaVuSans-30" transform="translate(6154.115234 0)"/>
     <use xlink:href="#DejaVuSans-32" transform="translate(6217.738281 0)"/>
     <use xlink:href="#DejaVuSans-35" transform="translate(6281.361328 0)"/>
     <use xlink:href="#DejaVuSans-2d" transform="translate(6344.984375 0)"/>
     <use xlink:href="#DejaVuSans-32" transform="translate(6381.068359 0)"/>
     <use xlink:href="#DejaVuSans-36" transform="translate(6444.691406 0)"/>
     <use xlink:href="#DejaVuSans-29" transform="translate(6508.314453 0)"/>
    </g>
   </g>
   <g id="text_23">
    <!-- The best description of a season is not the best forecast of the next -->
    <g style="fill: #222222" transform="translate(322.876953 15.938203) scale(0.115 -0.115)">
     <defs>
      <path id="DejaVuSans-54" d="M -19 4666 
L 3928 4666 
L 3928 4134 
L 2272 4134 
L 2272 0 
L 1638 0 
L 1638 4134 
L -19 4134 
L -19 4666 
z
" transform="scale(0.015625)"/>
      <path id="DejaVuSans-78" d="M 3513 3500 
L 2247 1797 
L 3578 0 
L 2900 0 
L 1881 1375 
L 863 0 
L 184 0 
L 1544 1831 
L 300 3500 
L 978 3500 
L 1906 2253 
L 2834 3500 
L 3513 3500 
z
" transform="scale(0.015625)"/>
     </defs>
     <use xlink:href="#DejaVuSans-54"/>
     <use xlink:href="#DejaVuSans-68" transform="translate(61.083984 0)"/>
     <use xlink:href="#DejaVuSans-65" transform="translate(124.462891 0)"/>
     <use xlink:href="#DejaVuSans-20" transform="translate(185.986328 0)"/>
     <use xlink:href="#DejaVuSans-62" transform="translate(217.773438 0)"/>
     <use xlink:href="#DejaVuSans-65" transform="translate(281.25 0)"/>
     <use xlink:href="#DejaVuSans-73" transform="translate(342.773438 0)"/>
     <use xlink:href="#DejaVuSans-74" transform="translate(394.873047 0)"/>
     <use xlink:href="#DejaVuSans-20" transform="translate(434.082031 0)"/>
     <use xlink:href="#DejaVuSans-64" transform="translate(465.869141 0)"/>
     <use xlink:href="#DejaVuSans-65" transform="translate(529.345703 0)"/>
     <use xlink:href="#DejaVuSans-73" transform="translate(590.869141 0)"/>
     <use xlink:href="#DejaVuSans-63" transform="translate(642.96875 0)"/>
     <use xlink:href="#DejaVuSans-72" transform="translate(697.949219 0)"/>
     <use xlink:href="#DejaVuSans-69" transform="translate(739.0625 0)"/>
     <use xlink:href="#DejaVuSans-70" transform="translate(766.845703 0)"/>
     <use xlink:href="#DejaVuSans-74" transform="translate(830.322266 0)"/>
     <use xlink:href="#DejaVuSans-69" transform="translate(869.53125 0)"/>
     <use xlink:href="#DejaVuSans-6f" transform="translate(897.314453 0)"/>
     <use xlink:href="#DejaVuSans-6e" transform="translate(958.496094 0)"/>
     <use xlink:href="#DejaVuSans-20" transform="translate(1021.875 0)"/>
     <use xlink:href="#DejaVuSans-6f" transform="translate(1053.662109 0)"/>
     <use xlink:href="#DejaVuSans-66" transform="translate(1114.84375 0)"/>
     <use xlink:href="#DejaVuSans-20" transform="translate(1150.048828 0)"/>
     <use xlink:href="#DejaVuSans-61" transform="translate(1181.835938 0)"/>
     <use xlink:href="#DejaVuSans-20" transform="translate(1243.115234 0)"/>
     <use xlink:href="#DejaVuSans-73" transform="translate(1274.902344 0)"/>
     <use xlink:href="#DejaVuSans-65" transform="translate(1327.001953 0)"/>
     <use xlink:href="#DejaVuSans-61" transform="translate(1388.525391 0)"/>
     <use xlink:href="#DejaVuSans-73" transform="translate(1449.804688 0)"/>
     <use xlink:href="#DejaVuSans-6f" transform="translate(1501.904297 0)"/>
     <use xlink:href="#DejaVuSans-6e" transform="translate(1563.085938 0)"/>
     <use xlink:href="#DejaVuSans-20" transform="translate(1626.464844 0)"/>
     <use xlink:href="#DejaVuSans-69" transform="translate(1658.251953 0)"/>
     <use xlink:href="#DejaVuSans-73" transform="translate(1686.035156 0)"/>
     <use xlink:href="#DejaVuSans-20" transform="translate(1738.134766 0)"/>
     <use xlink:href="#DejaVuSans-6e" transform="translate(1769.921875 0)"/>
     <use xlink:href="#DejaVuSans-6f" transform="translate(1833.300781 0)"/>
     <use xlink:href="#DejaVuSans-74" transform="translate(1894.482422 0)"/>
     <use xlink:href="#DejaVuSans-20" transform="translate(1933.691406 0)"/>
     <use xlink:href="#DejaVuSans-74" transform="translate(1965.478516 0)"/>
     <use xlink:href="#DejaVuSans-68" transform="translate(2004.6875 0)"/>
     <use xlink:href="#DejaVuSans-65" transform="translate(2068.066406 0)"/>
     <use xlink:href="#DejaVuSans-20" transform="translate(2129.589844 0)"/>
     <use xlink:href="#DejaVuSans-62" transform="translate(2161.376953 0)"/>
     <use xlink:href="#DejaVuSans-65" transform="translate(2224.853516 0)"/>
     <use xlink:href="#DejaVuSans-73" transform="translate(2286.376953 0)"/>
     <use xlink:href="#DejaVuSans-74" transform="translate(2338.476562 0)"/>
     <use xlink:href="#DejaVuSans-20" transform="translate(2377.685547 0)"/>
     <use xlink:href="#DejaVuSans-66" transform="translate(2409.472656 0)"/>
     <use xlink:href="#DejaVuSans-6f" transform="translate(2444.677734 0)"/>
     <use xlink:href="#DejaVuSans-72" transform="translate(2505.859375 0)"/>
     <use xlink:href="#DejaVuSans-65" transform="translate(2544.722656 0)"/>
     <use xlink:href="#DejaVuSans-63" transform="translate(2606.246094 0)"/>
     <use xlink:href="#DejaVuSans-61" transform="translate(2661.226562 0)"/>
     <use xlink:href="#DejaVuSans-73" transform="translate(2722.505859 0)"/>
     <use xlink:href="#DejaVuSans-74" transform="translate(2774.605469 0)"/>
     <use xlink:href="#DejaVuSans-20" transform="translate(2813.814453 0)"/>
     <use xlink:href="#DejaVuSans-6f" transform="translate(2845.601562 0)"/>
     <use xlink:href="#DejaVuSans-66" transform="translate(2906.783203 0)"/>
     <use xlink:href="#DejaVuSans-20" transform="translate(2941.988281 0)"/>
     <use xlink:href="#DejaVuSans-74" transform="translate(2973.775391 0)"/>
     <use xlink:href="#DejaVuSans-68" transform="translate(3012.984375 0)"/>
     <use xlink:href="#DejaVuSans-65" transform="translate(3076.363281 0)"/>
     <use xlink:href="#DejaVuSans-20" transform="translate(3137.886719 0)"/>
     <use xlink:href="#DejaVuSans-6e" transform="translate(3169.673828 0)"/>
     <use xlink:href="#DejaVuSans-65" transform="translate(3233.052734 0)"/>
     <use xlink:href="#DejaVuSans-78" transform="translate(3292.826172 0)"/>
     <use xlink:href="#DejaVuSans-74" transform="translate(3352.005859 0)"/>
    </g>
   </g>
   <g id="legend_1">
    <g id="patch_33">
     <path d="M 827.775938 55.216953 
L 843.775938 55.216953 
L 843.775938 49.616953 
L 827.775938 49.616953 
z
" style="fill: #cccccc; opacity: 0.95"/>
    </g>
    <g id="text_24">
     <!-- describes the season (same year) -->
     <g transform="translate(850.175938 55.216953) scale(0.08 -0.08)">
      <use xlink:href="#DejaVuSans-64"/>
      <use xlink:href="#DejaVuSans-65" transform="translate(63.476562 0)"/>
      <use xlink:href="#DejaVuSans-73" transform="translate(125 0)"/>
      <use xlink:href="#DejaVuSans-63" transform="translate(177.099609 0)"/>
      <use xlink:href="#DejaVuSans-72" transform="translate(232.080078 0)"/>
      <use xlink:href="#DejaVuSans-69" transform="translate(273.193359 0)"/>
      <use xlink:href="#DejaVuSans-62" transform="translate(300.976562 0)"/>
      <use xlink:href="#DejaVuSans-65" transform="translate(364.453125 0)"/>
      <use xlink:href="#DejaVuSans-73" transform="translate(425.976562 0)"/>
      <use xlink:href="#DejaVuSans-20" transform="translate(478.076172 0)"/>
      <use xlink:href="#DejaVuSans-74" transform="translate(509.863281 0)"/>
      <use xlink:href="#DejaVuSans-68" transform="translate(549.072266 0)"/>
      <use xlink:href="#DejaVuSans-65" transform="translate(612.451172 0)"/>
      <use xlink:href="#DejaVuSans-20" transform="translate(673.974609 0)"/>
      <use xlink:href="#DejaVuSans-73" transform="translate(705.761719 0)"/>
      <use xlink:href="#DejaVuSans-65" transform="translate(757.861328 0)"/>
      <use xlink:href="#DejaVuSans-61" transform="translate(819.384766 0)"/>
      <use xlink:href="#DejaVuSans-73" transform="translate(880.664062 0)"/>
      <use xlink:href="#DejaVuSans-6f" transform="translate(932.763672 0)"/>
      <use xlink:href="#DejaVuSans-6e" transform="translate(993.945312 0)"/>
      <use xlink:href="#DejaVuSans-20" transform="translate(1057.324219 0)"/>
      <use xlink:href="#DejaVuSans-28" transform="translate(1089.111328 0)"/>
      <use xlink:href="#DejaVuSans-73" transform="translate(1128.125 0)"/>
      <use xlink:href="#DejaVuSans-61" transform="translate(1180.224609 0)"/>
      <use xlink:href="#DejaVuSans-6d" transform="translate(1241.503906 0)"/>
      <use xlink:href="#DejaVuSans-65" transform="translate(1338.916016 0)"/>
      <use xlink:href="#DejaVuSans-20" transform="translate(1400.439453 0)"/>
      <use xlink:href="#DejaVuSans-79" transform="translate(1432.226562 0)"/>
      <use xlink:href="#DejaVuSans-65" transform="translate(1491.40625 0)"/>
      <use xlink:href="#DejaVuSans-61" transform="translate(1552.929688 0)"/>
      <use xlink:href="#DejaVuSans-72" transform="translate(1614.208984 0)"/>
      <use xlink:href="#DejaVuSans-29" transform="translate(1655.322266 0)"/>
     </g>
    </g>
    <g id="patch_34">
     <path d="M 827.775938 66.959453 
L 843.775938 66.959453 
L 843.775938 61.359453 
L 827.775938 61.359453 
z
" style="fill: #378add; opacity: 0.9"/>
    </g>
    <g id="text_25">
     <!-- forecasts the next season -->
     <g transform="translate(850.175938 66.959453) scale(0.08 -0.08)">
      <use xlink:href="#DejaVuSans-66"/>
      <use xlink:href="#DejaVuSans-6f" transform="translate(35.205078 0)"/>
      <use xlink:href="#DejaVuSans-72" transform="translate(96.386719 0)"/>
      <use xlink:href="#DejaVuSans-65" transform="translate(135.25 0)"/>
      <use xlink:href="#DejaVuSans-63" transform="translate(196.773438 0)"/>
      <use xlink:href="#DejaVuSans-61" transform="translate(251.753906 0)"/>
      <use xlink:href="#DejaVuSans-73" transform="translate(313.033203 0)"/>
      <use xlink:href="#DejaVuSans-74" transform="translate(365.132812 0)"/>
      <use xlink:href="#DejaVuSans-73" transform="translate(404.341797 0)"/>
      <use xlink:href="#DejaVuSans-20" transform="translate(456.441406 0)"/>
      <use xlink:href="#DejaVuSans-74" transform="translate(488.228516 0)"/>
      <use xlink:href="#DejaVuSans-68" transform="translate(527.4375 0)"/>
      <use xlink:href="#DejaVuSans-65" transform="translate(590.816406 0)"/>
      <use xlink:href="#DejaVuSans-20" transform="translate(652.339844 0)"/>
      <use xlink:href="#DejaVuSans-6e" transform="translate(684.126953 0)"/>
      <use xlink:href="#DejaVuSans-65" transform="translate(747.505859 0)"/>
      <use xlink:href="#DejaVuSans-78" transform="translate(807.279297 0)"/>
      <use xlink:href="#DejaVuSans-74" transform="translate(866.458984 0)"/>
      <use xlink:href="#DejaVuSans-20" transform="translate(905.667969 0)"/>
      <use xlink:href="#DejaVuSans-73" transform="translate(937.455078 0)"/>
      <use xlink:href="#DejaVuSans-65" transform="translate(989.554688 0)"/>
      <use xlink:href="#DejaVuSans-61" transform="translate(1051.078125 0)"/>
      <use xlink:href="#DejaVuSans-73" transform="translate(1112.357422 0)"/>
      <use xlink:href="#DejaVuSans-6f" transform="translate(1164.457031 0)"/>
      <use xlink:href="#DejaVuSans-6e" transform="translate(1225.638672 0)"/>
     </g>
    </g>
   </g>
  </g>
 </g>
 <defs>
  <clipPath id="paef9ce91b2">
   <rect x="42.813438" y="41.938203" width="950.11" height="248.11074"/>
  </clipPath>
 </defs>
</svg>
