<?xml version="1.0" encoding="utf-8" standalone="no"?>
<!DOCTYPE svg PUBLIC "-//W3C//DTD SVG 1.1//EN"
  "http://www.w3.org/Graphics/SVG/1.1/DTD/svg11.dtd">
<svg xmlns:xlink="http://www.w3.org/1999/xlink" width="555.332188pt" height="352.226562pt" viewBox="0 0 555.332188 352.226562" xmlns="http://www.w3.org/2000/svg" version="1.1">
 <metadata>
  <rdf:RDF xmlns:dc="http://purl.org/dc/elements/1.1/" xmlns:cc="http://creativecommons.org/ns#" xmlns:rdf="http://www.w3.org/1999/02/22-rdf-syntax-ns#">
   <cc:Work>
    <dc:type rdf:resource="http://purl.org/dc/dcmitype/StillImage"/>
    <dc:date>2026-07-02T10:25:55.009763</dc:date>
    <dc:format>image/svg+xml</dc:format>
    <dc:creator>
     <cc:Agent>
      <dc:title>Matplotlib v3.10.9, https://matplotlib.org/</dc:title>
     </cc:Agent>
    </dc:creator>
   </cc:Work>
  </rdf:RDF>
 </metadata>
 <defs>
  <style type="text/css">*{stroke-linejoin: round; stroke-linecap: butt}</style>
 </defs>
 <g id="figure_1">
  <g id="patch_1">
   <path d="M 0 352.226562 
L 555.332188 352.226562 
L 555.332188 0 
L 0 0 
z
" style="fill: #f9f9f7"/>
  </g>
  <g id="axes_1">
   <g id="patch_2">
    <path d="M 118.085938 315.638125 
L 489.400938 315.638125 
L 489.400938 42.318125 
L 118.085938 42.318125 
z
" style="fill: #ffffff"/>
   </g>
   <g id="line2d_1">
    <path d="M 180.813574 315.638125 
L 180.813574 42.318125 
" clip-path="url(#pf77d786231)" style="fill: none; stroke: #cccccc; stroke-width: 0.8; stroke-linecap: square"/>
   </g>
   <g id="matplotlib.axis_1">
    <g id="xtick_1">
     <g id="line2d_2">
      <path d="M 129.783477 315.638125 
L 129.783477 42.318125 
" clip-path="url(#pf77d786231)" style="fill: none; stroke: #e0dfd8; stroke-width: 0.7; stroke-linecap: square"/>
     </g>
     <g id="line2d_3">
      <defs>
       <path id="mc4ba296305" d="M 0 0 
L 0 3.5 
" style="stroke: #000000; stroke-width: 0.8"/>
      </defs>
      <g>
       <use xlink:href="#mc4ba296305" x="129.783477" y="315.638125" style="stroke: #000000; stroke-width: 0.8"/>
      </g>
     </g>
     <g id="text_1">
      <!-- −2 -->
      <g transform="translate(122.412384 330.236562) scale(0.1 -0.1)">
       <defs>
        <path id="DejaVuSans-2212" d="M 678 2272 
L 4684 2272 
L 4684 1741 
L 678 1741 
L 678 2272 
z
" transform="scale(0.015625)"/>
        <path id="DejaVuSans-32" d="M 1228 531 
L 3431 531 
L 3431 0 
L 469 0 
L 469 531 
Q 828 903 1448 1529 
Q 2069 2156 2228 2338 
Q 2531 2678 2651 2914 
Q 2772 3150 2772 3378 
Q 2772 3750 2511 3984 
Q 2250 4219 1831 4219 
Q 1534 4219 1204 4116 
Q 875 4013 500 3803 
L 500 4441 
Q 881 4594 1212 4672 
Q 1544 4750 1819 4750 
Q 2544 4750 2975 4387 
Q 3406 4025 3406 3419 
Q 3406 3131 3298 2873 
Q 3191 2616 2906 2266 
Q 2828 2175 2409 1742 
Q 1991 1309 1228 531 
z
" transform="scale(0.015625)"/>
       </defs>
       <use xlink:href="#DejaVuSans-2212"/>
       <use xlink:href="#DejaVuSans-32" transform="translate(83.789062 0)"/>
      </g>
     </g>
    </g>
    <g id="xtick_2">
     <g id="line2d_4">
      <path d="M 180.813574 315.638125 
L 180.813574 42.318125 
" clip-path="url(#pf77d786231)" style="fill: none; stroke: #e0dfd8; stroke-width: 0.7; stroke-linecap: square"/>
     </g>
     <g id="line2d_5">
      <g>
       <use xlink:href="#mc4ba296305" x="180.813574" y="315.638125" style="stroke: #000000; stroke-width: 0.8"/>
      </g>
     </g>
     <g id="text_2">
      <!-- 0 -->
      <g transform="translate(177.632324 330.236562) scale(0.1 -0.1)">
       <defs>
        <path id="DejaVuSans-30" d="M 2034 4250 
Q 1547 4250 1301 3770 
Q 1056 3291 1056 2328 
Q 1056 1369 1301 889 
Q 1547 409 2034 409 
Q 2525 409 2770 889 
Q 3016 1369 3016 2328 
Q 3016 3291 2770 3770 
Q 2525 4250 2034 4250 
z
M 2034 4750 
Q 2819 4750 3233 4129 
Q 3647 3509 3647 2328 
Q 3647 1150 3233 529 
Q 2819 -91 2034 -91 
Q 1250 -91 836 529 
Q 422 1150 422 2328 
Q 422 3509 836 4129 
Q 1250 4750 2034 4750 
z
" transform="scale(0.015625)"/>
       </defs>
       <use xlink:href="#DejaVuSans-30"/>
      </g>
     </g>
    </g>
    <g id="xtick_3">
     <g id="line2d_6">
      <path d="M 231.843671 315.638125 
L 231.843671 42.318125 
" clip-path="url(#pf77d786231)" style="fill: none; stroke: #e0dfd8; stroke-width: 0.7; stroke-linecap: square"/>
     </g>
     <g id="line2d_7">
      <g>
       <use xlink:href="#mc4ba296305" x="231.843671" y="315.638125" style="stroke: #000000; stroke-width: 0.8"/>
      </g>
     </g>
     <g id="text_3">
      <!-- 2 -->
      <g transform="translate(228.662421 330.236562) scale(0.1 -0.1)">
       <use xlink:href="#DejaVuSans-32"/>
      </g>
     </g>
    </g>
    <g id="xtick_4">
     <g id="line2d_8">
      <path d="M 282.873768 315.638125 
L 282.873768 42.318125 
" clip-path="url(#pf77d786231)" style="fill: none; stroke: #e0dfd8; stroke-width: 0.7; stroke-linecap: square"/>
     </g>
     <g id="line2d_9">
      <g>
       <use xlink:href="#mc4ba296305" x="282.873768" y="315.638125" style="stroke: #000000; stroke-width: 0.8"/>
      </g>
     </g>
     <g id="text_4">
      <!-- 4 -->
      <g transform="translate(279.692518 330.236562) scale(0.1 -0.1)">
       <defs>
        <path id="DejaVuSans-34" d="M 2419 4116 
L 825 1625 
L 2419 1625 
L 2419 4116 
z
M 2253 4666 
L 3047 4666 
L 3047 1625 
L 3713 1625 
L 3713 1100 
L 3047 1100 
L 3047 0 
L 2419 0 
L 2419 1100 
L 313 1100 
L 313 1709 
L 2253 4666 
z
" transform="scale(0.015625)"/>
       </defs>
       <use xlink:href="#DejaVuSans-34"/>
      </g>
     </g>
    </g>
    <g id="xtick_5">
     <g id="line2d_10">
      <path d="M 333.903865 315.638125 
L 333.903865 42.318125 
" clip-path="url(#pf77d786231)" style="fill: none; stroke: #e0dfd8; stroke-width: 0.7; stroke-linecap: square"/>
     </g>
     <g id="line2d_11">
      <g>
       <use xlink:href="#mc4ba296305" x="333.903865" y="315.638125" style="stroke: #000000; stroke-width: 0.8"/>
      </g>
     </g>
     <g id="text_5">
      <!-- 6 -->
      <g transform="translate(330.722615 330.236562) scale(0.1 -0.1)">
       <defs>
        <path id="DejaVuSans-36" d="M 2113 2584 
Q 1688 2584 1439 2293 
Q 1191 2003 1191 1497 
Q 1191 994 1439 701 
Q 1688 409 2113 409 
Q 2538 409 2786 701 
Q 3034 994 3034 1497 
Q 3034 2003 2786 2293 
Q 2538 2584 2113 2584 
z
M 3366 4563 
L 3366 3988 
Q 3128 4100 2886 4159 
Q 2644 4219 2406 4219 
Q 1781 4219 1451 3797 
Q 1122 3375 1075 2522 
Q 1259 2794 1537 2939 
Q 1816 3084 2150 3084 
Q 2853 3084 3261 2657 
Q 3669 2231 3669 1497 
Q 3669 778 3244 343 
Q 2819 -91 2113 -91 
Q 1303 -91 875 529 
Q 447 1150 447 2328 
Q 447 3434 972 4092 
Q 1497 4750 2381 4750 
Q 2619 4750 2861 4703 
Q 3103 4656 3366 4563 
z
" transform="scale(0.015625)"/>
       </defs>
       <use xlink:href="#DejaVuSans-36"/>
      </g>
     </g>
    </g>
    <g id="xtick_6">
     <g id="line2d_12">
      <path d="M 384.933962 315.638125 
L 384.933962 42.318125 
" clip-path="url(#pf77d786231)" style="fill: none; stroke: #e0dfd8; stroke-width: 0.7; stroke-linecap: square"/>
     </g>
     <g id="line2d_13">
      <g>
       <use xlink:href="#mc4ba296305" x="384.933962" y="315.638125" style="stroke: #000000; stroke-width: 0.8"/>
      </g>
     </g>
     <g id="text_6">
      <!-- 8 -->
      <g transform="translate(381.752712 330.236562) scale(0.1 -0.1)">
       <defs>
        <path id="DejaVuSans-38" d="M 2034 2216 
Q 1584 2216 1326 1975 
Q 1069 1734 1069 1313 
Q 1069 891 1326 650 
Q 1584 409 2034 409 
Q 2484 409 2743 651 
Q 3003 894 3003 1313 
Q 3003 1734 2745 1975 
Q 2488 2216 2034 2216 
z
M 1403 2484 
Q 997 2584 770 2862 
Q 544 3141 544 3541 
Q 544 4100 942 4425 
Q 1341 4750 2034 4750 
Q 2731 4750 3128 4425 
Q 3525 4100 3525 3541 
Q 3525 3141 3298 2862 
Q 3072 2584 2669 2484 
Q 3125 2378 3379 2068 
Q 3634 1759 3634 1313 
Q 3634 634 3220 271 
Q 2806 -91 2034 -91 
Q 1263 -91 848 271 
Q 434 634 434 1313 
Q 434 1759 690 2068 
Q 947 2378 1403 2484 
z
M 1172 3481 
Q 1172 3119 1398 2916 
Q 1625 2713 2034 2713 
Q 2441 2713 2670 2916 
Q 2900 3119 2900 3481 
Q 2900 3844 2670 4047 
Q 2441 4250 2034 4250 
Q 1625 4250 1398 4047 
Q 1172 3844 1172 3481 
z
" transform="scale(0.015625)"/>
       </defs>
       <use xlink:href="#DejaVuSans-38"/>
      </g>
     </g>
    </g>
    <g id="xtick_7">
     <g id="line2d_14">
      <path d="M 435.964059 315.638125 
L 435.964059 42.318125 
" clip-path="url(#pf77d786231)" style="fill: none; stroke: #e0dfd8; stroke-width: 0.7; stroke-linecap: square"/>
     </g>
     <g id="line2d_15">
      <g>
       <use xlink:href="#mc4ba296305" x="435.964059" y="315.638125" style="stroke: #000000; stroke-width: 0.8"/>
      </g>
     </g>
     <g id="text_7">
      <!-- 10 -->
      <g transform="translate(429.601559 330.236562) scale(0.1 -0.1)">
       <defs>
        <path id="DejaVuSans-31" d="M 794 531 
L 1825 531 
L 1825 4091 
L 703 3866 
L 703 4441 
L 1819 4666 
L 2450 4666 
L 2450 531 
L 3481 531 
L 3481 0 
L 794 0 
L 794 531 
z
" transform="scale(0.015625)"/>
       </defs>
       <use xlink:href="#DejaVuSans-31"/>
       <use xlink:href="#DejaVuSans-30" transform="translate(63.623047 0)"/>
      </g>
     </g>
    </g>
    <g id="xtick_8">
     <g id="line2d_16">
      <path d="M 486.994156 315.638125 
L 486.994156 42.318125 
" clip-path="url(#pf77d786231)" style="fill: none; stroke: #e0dfd8; stroke-width: 0.7; stroke-linecap: square"/>
     </g>
     <g id="line2d_17">
      <g>
       <use xlink:href="#mc4ba296305" x="486.994156" y="315.638125" style="stroke: #000000; stroke-width: 0.8"/>
      </g>
     </g>
     <g id="text_8">
      <!-- 12 -->
      <g transform="translate(480.631656 330.236562) scale(0.1 -0.1)">
       <use xlink:href="#DejaVuSans-31"/>
       <use xlink:href="#DejaVuSans-32" transform="translate(63.623047 0)"/>
      </g>
     </g>
    </g>
    <g id="text_9">
     <!-- BPM (points per 100 possessions vs. an average player) -->
     <g style="fill: #888780" transform="translate(177.648516 343.154844) scale(0.09 -0.09)">
      <defs>
       <path id="DejaVuSans-42" d="M 1259 2228 
L 1259 519 
L 2272 519 
Q 2781 519 3026 730 
Q 3272 941 3272 1375 
Q 3272 1813 3026 2020 
Q 2781 2228 2272 2228 
L 1259 2228 
z
M 1259 4147 
L 1259 2741 
L 2194 2741 
Q 2656 2741 2882 2914 
Q 3109 3088 3109 3444 
Q 3109 3797 2882 3972 
Q 2656 4147 2194 4147 
L 1259 4147 
z
M 628 4666 
L 2241 4666 
Q 2963 4666 3353 4366 
Q 3744 4066 3744 3513 
Q 3744 3084 3544 2831 
Q 3344 2578 2956 2516 
Q 3422 2416 3680 2098 
Q 3938 1781 3938 1306 
Q 3938 681 3513 340 
Q 3088 0 2303 0 
L 628 0 
L 628 4666 
z
" transform="scale(0.015625)"/>
       <path id="DejaVuSans-50" d="M 1259 4147 
L 1259 2394 
L 2053 2394 
Q 2494 2394 2734 2622 
Q 2975 2850 2975 3272 
Q 2975 3691 2734 3919 
Q 2494 4147 2053 4147 
L 1259 4147 
z
M 628 4666 
L 2053 4666 
Q 2838 4666 3239 4311 
Q 3641 3956 3641 3272 
Q 3641 2581 3239 2228 
Q 2838 1875 2053 1875 
L 1259 1875 
L 1259 0 
L 628 0 
L 628 4666 
z
" transform="scale(0.015625)"/>
       <path id="DejaVuSans-4d" d="M 628 4666 
L 1569 4666 
L 2759 1491 
L 3956 4666 
L 4897 4666 
L 4897 0 
L 4281 0 
L 4281 4097 
L 3078 897 
L 2444 897 
L 1241 4097 
L 1241 0 
L 628 0 
L 628 4666 
z
" transform="scale(0.015625)"/>
       <path id="DejaVuSans-20" transform="scale(0.015625)"/>
       <path id="DejaVuSans-28" d="M 1984 4856 
Q 1566 4138 1362 3434 
Q 1159 2731 1159 2009 
Q 1159 1288 1364 580 
Q 1569 -128 1984 -844 
L 1484 -844 
Q 1016 -109 783 600 
Q 550 1309 550 2009 
Q 550 2706 781 3412 
Q 1013 4119 1484 4856 
L 1984 4856 
z
" transform="scale(0.015625)"/>
       <path id="DejaVuSans-70" d="M 1159 525 
L 1159 -1331 
L 581 -1331 
L 581 3500 
L 1159 3500 
L 1159 2969 
Q 1341 3281 1617 3432 
Q 1894 3584 2278 3584 
Q 2916 3584 3314 3078 
Q 3713 2572 3713 1747 
Q 3713 922 3314 415 
Q 2916 -91 2278 -91 
Q 1894 -91 1617 61 
Q 1341 213 1159 525 
z
M 3116 1747 
Q 3116 2381 2855 2742 
Q 2594 3103 2138 3103 
Q 1681 3103 1420 2742 
Q 1159 2381 1159 1747 
Q 1159 1113 1420 752 
Q 1681 391 2138 391 
Q 2594 391 2855 752 
Q 3116 1113 3116 1747 
z
" transform="scale(0.015625)"/>
       <path id="DejaVuSans-6f" d="M 1959 3097 
Q 1497 3097 1228 2736 
Q 959 2375 959 1747 
Q 959 1119 1226 758 
Q 1494 397 1959 397 
Q 2419 397 2687 759 
Q 2956 1122 2956 1747 
Q 2956 2369 2687 2733 
Q 2419 3097 1959 3097 
z
M 1959 3584 
Q 2709 3584 3137 3096 
Q 3566 2609 3566 1747 
Q 3566 888 3137 398 
Q 2709 -91 1959 -91 
Q 1206 -91 779 398 
Q 353 888 353 1747 
Q 353 2609 779 3096 
Q 1206 3584 1959 3584 
z
" transform="scale(0.015625)"/>
       <path id="DejaVuSans-69" d="M 603 3500 
L 1178 3500 
L 1178 0 
L 603 0 
L 603 3500 
z
M 603 4863 
L 1178 4863 
L 1178 4134 
L 603 4134 
L 603 4863 
z
" transform="scale(0.015625)"/>
       <path id="DejaVuSans-6e" d="M 3513 2113 
L 3513 0 
L 2938 0 
L 2938 2094 
Q 2938 2591 2744 2837 
Q 2550 3084 2163 3084 
Q 1697 3084 1428 2787 
Q 1159 2491 1159 1978 
L 1159 0 
L 581 0 
L 581 3500 
L 1159 3500 
L 1159 2956 
Q 1366 3272 1645 3428 
Q 1925 3584 2291 3584 
Q 2894 3584 3203 3211 
Q 3513 2838 3513 2113 
z
" transform="scale(0.015625)"/>
       <path id="DejaVuSans-74" d="M 1172 4494 
L 1172 3500 
L 2356 3500 
L 2356 3053 
L 1172 3053 
L 1172 1153 
Q 1172 725 1289 603 
Q 1406 481 1766 481 
L 2356 481 
L 2356 0 
L 1766 0 
Q 1100 0 847 248 
Q 594 497 594 1153 
L 594 3053 
L 172 3053 
L 172 3500 
L 594 3500 
L 594 4494 
L 1172 4494 
z
" transform="scale(0.015625)"/>
       <path id="DejaVuSans-73" d="M 2834 3397 
L 2834 2853 
Q 2591 2978 2328 3040 
Q 2066 3103 1784 3103 
Q 1356 3103 1142 2972 
Q 928 2841 928 2578 
Q 928 2378 1081 2264 
Q 1234 2150 1697 2047 
L 1894 2003 
Q 2506 1872 2764 1633 
Q 3022 1394 3022 966 
Q 3022 478 2636 193 
Q 2250 -91 1575 -91 
Q 1294 -91 989 -36 
Q 684 19 347 128 
L 347 722 
Q 666 556 975 473 
Q 1284 391 1588 391 
Q 1994 391 2212 530 
Q 2431 669 2431 922 
Q 2431 1156 2273 1281 
Q 2116 1406 1581 1522 
L 1381 1569 
Q 847 1681 609 1914 
Q 372 2147 372 2553 
Q 372 3047 722 3315 
Q 1072 3584 1716 3584 
Q 2034 3584 2315 3537 
Q 2597 3491 2834 3397 
z
" transform="scale(0.015625)"/>
       <path id="DejaVuSans-65" d="M 3597 1894 
L 3597 1613 
L 953 1613 
Q 991 1019 1311 708 
Q 1631 397 2203 397 
Q 2534 397 2845 478 
Q 3156 559 3463 722 
L 3463 178 
Q 3153 47 2828 -22 
Q 2503 -91 2169 -91 
Q 1331 -91 842 396 
Q 353 884 353 1716 
Q 353 2575 817 3079 
Q 1281 3584 2069 3584 
Q 2775 3584 3186 3129 
Q 3597 2675 3597 1894 
z
M 3022 2063 
Q 3016 2534 2758 2815 
Q 2500 3097 2075 3097 
Q 1594 3097 1305 2825 
Q 1016 2553 972 2059 
L 3022 2063 
z
" transform="scale(0.015625)"/>
       <path id="DejaVuSans-72" d="M 2631 2963 
Q 2534 3019 2420 3045 
Q 2306 3072 2169 3072 
Q 1681 3072 1420 2755 
Q 1159 2438 1159 1844 
L 1159 0 
L 581 0 
L 581 3500 
L 1159 3500 
L 1159 2956 
Q 1341 3275 1631 3429 
Q 1922 3584 2338 3584 
Q 2397 3584 2469 3576 
Q 2541 3569 2628 3553 
L 2631 2963 
z
" transform="scale(0.015625)"/>
       <path id="DejaVuSans-76" d="M 191 3500 
L 800 3500 
L 1894 563 
L 2988 3500 
L 3597 3500 
L 2284 0 
L 1503 0 
L 191 3500 
z
" transform="scale(0.015625)"/>
       <path id="DejaVuSans-2e" d="M 684 794 
L 1344 794 
L 1344 0 
L 684 0 
L 684 794 
z
" transform="scale(0.015625)"/>
       <path id="DejaVuSans-61" d="M 2194 1759 
Q 1497 1759 1228 1600 
Q 959 1441 959 1056 
Q 959 750 1161 570 
Q 1363 391 1709 391 
Q 2188 391 2477 730 
Q 2766 1069 2766 1631 
L 2766 1759 
L 2194 1759 
z
M 3341 1997 
L 3341 0 
L 2766 0 
L 2766 531 
Q 2569 213 2275 61 
Q 1981 -91 1556 -91 
Q 1019 -91 701 211 
Q 384 513 384 1019 
Q 384 1609 779 1909 
Q 1175 2209 1959 2209 
L 2766 2209 
L 2766 2266 
Q 2766 2663 2505 2880 
Q 2244 3097 1772 3097 
Q 1472 3097 1187 3025 
Q 903 2953 641 2809 
L 641 3341 
Q 956 3463 1253 3523 
Q 1550 3584 1831 3584 
Q 2591 3584 2966 3190 
Q 3341 2797 3341 1997 
z
" transform="scale(0.015625)"/>
       <path id="DejaVuSans-67" d="M 2906 1791 
Q 2906 2416 2648 2759 
Q 2391 3103 1925 3103 
Q 1463 3103 1205 2759 
Q 947 2416 947 1791 
Q 947 1169 1205 825 
Q 1463 481 1925 481 
Q 2391 481 2648 825 
Q 2906 1169 2906 1791 
z
M 3481 434 
Q 3481 -459 3084 -895 
Q 2688 -1331 1869 -1331 
Q 1566 -1331 1297 -1286 
Q 1028 -1241 775 -1147 
L 775 -588 
Q 1028 -725 1275 -790 
Q 1522 -856 1778 -856 
Q 2344 -856 2625 -561 
Q 2906 -266 2906 331 
L 2906 616 
Q 2728 306 2450 153 
Q 2172 0 1784 0 
Q 1141 0 747 490 
Q 353 981 353 1791 
Q 353 2603 747 3093 
Q 1141 3584 1784 3584 
Q 2172 3584 2450 3431 
Q 2728 3278 2906 2969 
L 2906 3500 
L 3481 3500 
L 3481 434 
z
" transform="scale(0.015625)"/>
       <path id="DejaVuSans-6c" d="M 603 4863 
L 1178 4863 
L 1178 0 
L 603 0 
L 603 4863 
z
" transform="scale(0.015625)"/>
       <path id="DejaVuSans-79" d="M 2059 -325 
Q 1816 -950 1584 -1140 
Q 1353 -1331 966 -1331 
L 506 -1331 
L 506 -850 
L 844 -850 
Q 1081 -850 1212 -737 
Q 1344 -625 1503 -206 
L 1606 56 
L 191 3500 
L 800 3500 
L 1894 763 
L 2988 3500 
L 3597 3500 
L 2059 -325 
z
" transform="scale(0.015625)"/>
       <path id="DejaVuSans-29" d="M 513 4856 
L 1013 4856 
Q 1481 4119 1714 3412 
Q 1947 2706 1947 2009 
Q 1947 1309 1714 600 
Q 1481 -109 1013 -844 
L 513 -844 
Q 928 -128 1133 580 
Q 1338 1288 1338 2009 
Q 1338 2731 1133 3434 
Q 928 4138 513 4856 
z
" transform="scale(0.015625)"/>
      </defs>
      <use xlink:href="#DejaVuSans-42"/>
      <use xlink:href="#DejaVuSans-50" transform="translate(68.603516 0)"/>
      <use xlink:href="#DejaVuSans-4d" transform="translate(128.90625 0)"/>
      <use xlink:href="#DejaVuSans-20" transform="translate(215.185547 0)"/>
      <use xlink:href="#DejaVuSans-28" transform="translate(246.972656 0)"/>
      <use xlink:href="#DejaVuSans-70" transform="translate(285.986328 0)"/>
      <use xlink:href="#DejaVuSans-6f" transform="translate(349.462891 0)"/>
      <use xlink:href="#DejaVuSans-69" transform="translate(410.644531 0)"/>
      <use xlink:href="#DejaVuSans-6e" transform="translate(438.427734 0)"/>
      <use xlink:href="#DejaVuSans-74" transform="translate(501.806641 0)"/>
      <use xlink:href="#DejaVuSans-73" transform="translate(541.015625 0)"/>
      <use xlink:href="#DejaVuSans-20" transform="translate(593.115234 0)"/>
      <use xlink:href="#DejaVuSans-70" transform="translate(624.902344 0)"/>
      <use xlink:href="#DejaVuSans-65" transform="translate(688.378906 0)"/>
      <use xlink:href="#DejaVuSans-72" transform="translate(749.902344 0)"/>
      <use xlink:href="#DejaVuSans-20" transform="translate(791.015625 0)"/>
      <use xlink:href="#DejaVuSans-31" transform="translate(822.802734 0)"/>
      <use xlink:href="#DejaVuSans-30" transform="translate(886.425781 0)"/>
      <use xlink:href="#DejaVuSans-30" transform="translate(950.048828 0)"/>
      <use xlink:href="#DejaVuSans-20" transform="translate(1013.671875 0)"/>
      <use xlink:href="#DejaVuSans-70" transform="translate(1045.458984 0)"/>
      <use xlink:href="#DejaVuSans-6f" transform="translate(1108.935547 0)"/>
      <use xlink:href="#DejaVuSans-73" transform="translate(1170.117188 0)"/>
      <use xlink:href="#DejaVuSans-73" transform="translate(1222.216797 0)"/>
      <use xlink:href="#DejaVuSans-65" transform="translate(1274.316406 0)"/>
      <use xlink:href="#DejaVuSans-73" transform="translate(1335.839844 0)"/>
      <use xlink:href="#DejaVuSans-73" transform="translate(1387.939453 0)"/>
      <use xlink:href="#DejaVuSans-69" transform="translate(1440.039062 0)"/>
      <use xlink:href="#DejaVuSans-6f" transform="translate(1467.822266 0)"/>
      <use xlink:href="#DejaVuSans-6e" transform="translate(1529.003906 0)"/>
      <use xlink:href="#DejaVuSans-73" transform="translate(1592.382812 0)"/>
      <use xlink:href="#DejaVuSans-20" transform="translate(1644.482422 0)"/>
      <use xlink:href="#DejaVuSans-76" transform="translate(1676.269531 0)"/>
      <use xlink:href="#DejaVuSans-73" transform="translate(1735.449219 0)"/>
      <use xlink:href="#DejaVuSans-2e" transform="translate(1787.548828 0)"/>
      <use xlink:href="#DejaVuSans-20" transform="translate(1819.335938 0)"/>
      <use xlink:href="#DejaVuSans-61" transform="translate(1851.123047 0)"/>
      <use xlink:href="#DejaVuSans-6e" transform="translate(1912.402344 0)"/>
      <use xlink:href="#DejaVuSans-20" transform="translate(1975.78125 0)"/>
      <use xlink:href="#DejaVuSans-61" transform="translate(2007.568359 0)"/>
      <use xlink:href="#DejaVuSans-76" transform="translate(2068.847656 0)"/>
      <use xlink:href="#DejaVuSans-65" transform="translate(2128.027344 0)"/>
      <use xlink:href="#DejaVuSans-72" transform="translate(2189.550781 0)"/>
      <use xlink:href="#DejaVuSans-61" transform="translate(2230.664062 0)"/>
      <use xlink:href="#DejaVuSans-67" transform="translate(2291.943359 0)"/>
      <use xlink:href="#DejaVuSans-65" transform="translate(2355.419922 0)"/>
      <use xlink:href="#DejaVuSans-20" transform="translate(2416.943359 0)"/>
      <use xlink:href="#DejaVuSans-70" transform="translate(2448.730469 0)"/>
      <use xlink:href="#DejaVuSans-6c" transform="translate(2512.207031 0)"/>
      <use xlink:href="#DejaVuSans-61" transform="translate(2539.990234 0)"/>
      <use xlink:href="#DejaVuSans-79" transform="translate(2601.269531 0)"/>
      <use xlink:href="#DejaVuSans-65" transform="translate(2660.449219 0)"/>
      <use xlink:href="#DejaVuSans-72" transform="translate(2721.972656 0)"/>
      <use xlink:href="#DejaVuSans-29" transform="translate(2763.085938 0)"/>
     </g>
    </g>
   </g>
   <g id="matplotlib.axis_2">
    <g id="ytick_1">
     <g id="line2d_18">
      <defs>
       <path id="m494a4f49f6" d="M 0 0 
L -3.5 0 
" style="stroke: #000000; stroke-width: 0.8"/>
      </defs>
      <g>
       <use xlink:href="#m494a4f49f6" x="118.085938" y="303.214489" style="stroke: #000000; stroke-width: 0.8"/>
      </g>
     </g>
     <g id="text_10">
      <!-- Mitchell Robinson -->
      <g style="fill: #888780" transform="translate(36.458594 306.443825) scale(0.085 -0.085)">
       <defs>
        <path id="DejaVuSans-63" d="M 3122 3366 
L 3122 2828 
Q 2878 2963 2633 3030 
Q 2388 3097 2138 3097 
Q 1578 3097 1268 2742 
Q 959 2388 959 1747 
Q 959 1106 1268 751 
Q 1578 397 2138 397 
Q 2388 397 2633 464 
Q 2878 531 3122 666 
L 3122 134 
Q 2881 22 2623 -34 
Q 2366 -91 2075 -91 
Q 1284 -91 818 406 
Q 353 903 353 1747 
Q 353 2603 823 3093 
Q 1294 3584 2113 3584 
Q 2378 3584 2631 3529 
Q 2884 3475 3122 3366 
z
" transform="scale(0.015625)"/>
        <path id="DejaVuSans-68" d="M 3513 2113 
L 3513 0 
L 2938 0 
L 2938 2094 
Q 2938 2591 2744 2837 
Q 2550 3084 2163 3084 
Q 1697 3084 1428 2787 
Q 1159 2491 1159 1978 
L 1159 0 
L 581 0 
L 581 4863 
L 1159 4863 
L 1159 2956 
Q 1366 3272 1645 3428 
Q 1925 3584 2291 3584 
Q 2894 3584 3203 3211 
Q 3513 2838 3513 2113 
z
" transform="scale(0.015625)"/>
        <path id="DejaVuSans-52" d="M 2841 2188 
Q 3044 2119 3236 1894 
Q 3428 1669 3622 1275 
L 4263 0 
L 3584 0 
L 2988 1197 
Q 2756 1666 2539 1819 
Q 2322 1972 1947 1972 
L 1259 1972 
L 1259 0 
L 628 0 
L 628 4666 
L 2053 4666 
Q 2853 4666 3247 4331 
Q 3641 3997 3641 3322 
Q 3641 2881 3436 2590 
Q 3231 2300 2841 2188 
z
M 1259 4147 
L 1259 2491 
L 2053 2491 
Q 2509 2491 2742 2702 
Q 2975 2913 2975 3322 
Q 2975 3731 2742 3939 
Q 2509 4147 2053 4147 
L 1259 4147 
z
" transform="scale(0.015625)"/>
        <path id="DejaVuSans-62" d="M 3116 1747 
Q 3116 2381 2855 2742 
Q 2594 3103 2138 3103 
Q 1681 3103 1420 2742 
Q 1159 2381 1159 1747 
Q 1159 1113 1420 752 
Q 1681 391 2138 391 
Q 2594 391 2855 752 
Q 3116 1113 3116 1747 
z
M 1159 2969 
Q 1341 3281 1617 3432 
Q 1894 3584 2278 3584 
Q 2916 3584 3314 3078 
Q 3713 2572 3713 1747 
Q 3713 922 3314 415 
Q 2916 -91 2278 -91 
Q 1894 -91 1617 61 
Q 1341 213 1159 525 
L 1159 0 
L 581 0 
L 581 4863 
L 1159 4863 
L 1159 2969 
z
" transform="scale(0.015625)"/>
       </defs>
       <use xlink:href="#DejaVuSans-4d"/>
       <use xlink:href="#DejaVuSans-69" transform="translate(86.279297 0)"/>
       <use xlink:href="#DejaVuSans-74" transform="translate(114.0625 0)"/>
       <use xlink:href="#DejaVuSans-63" transform="translate(153.271484 0)"/>
       <use xlink:href="#DejaVuSans-68" transform="translate(208.251953 0)"/>
       <use xlink:href="#DejaVuSans-65" transform="translate(271.630859 0)"/>
       <use xlink:href="#DejaVuSans-6c" transform="translate(333.154297 0)"/>
       <use xlink:href="#DejaVuSans-6c" transform="translate(360.9375 0)"/>
       <use xlink:href="#DejaVuSans-20" transform="translate(388.720703 0)"/>
       <use xlink:href="#DejaVuSans-52" transform="translate(420.507812 0)"/>
       <use xlink:href="#DejaVuSans-6f" transform="translate(485.490234 0)"/>
       <use xlink:href="#DejaVuSans-62" transform="translate(546.671875 0)"/>
       <use xlink:href="#DejaVuSans-69" transform="translate(610.148438 0)"/>
       <use xlink:href="#DejaVuSans-6e" transform="translate(637.931641 0)"/>
       <use xlink:href="#DejaVuSans-73" transform="translate(701.310547 0)"/>
       <use xlink:href="#DejaVuSans-6f" transform="translate(753.410156 0)"/>
       <use xlink:href="#DejaVuSans-6e" transform="translate(814.591797 0)"/>
      </g>
     </g>
    </g>
    <g id="ytick_2">
     <g id="line2d_19">
      <g>
       <use xlink:href="#m494a4f49f6" x="118.085938" y="280.626059" style="stroke: #000000; stroke-width: 0.8"/>
      </g>
     </g>
     <g id="text_11">
      <!-- Jalen Duren -->
      <g style="fill: #888780" transform="translate(61.837734 283.855395) scale(0.085 -0.085)">
       <defs>
        <path id="DejaVuSans-4a" d="M 628 4666 
L 1259 4666 
L 1259 325 
Q 1259 -519 939 -900 
Q 619 -1281 -91 -1281 
L -331 -1281 
L -331 -750 
L -134 -750 
Q 284 -750 456 -515 
Q 628 -281 628 325 
L 628 4666 
z
" transform="scale(0.015625)"/>
        <path id="DejaVuSans-44" d="M 1259 4147 
L 1259 519 
L 2022 519 
Q 2988 519 3436 956 
Q 3884 1394 3884 2338 
Q 3884 3275 3436 3711 
Q 2988 4147 2022 4147 
L 1259 4147 
z
M 628 4666 
L 1925 4666 
Q 3281 4666 3915 4102 
Q 4550 3538 4550 2338 
Q 4550 1131 3912 565 
Q 3275 0 1925 0 
L 628 0 
L 628 4666 
z
" transform="scale(0.015625)"/>
        <path id="DejaVuSans-75" d="M 544 1381 
L 544 3500 
L 1119 3500 
L 1119 1403 
Q 1119 906 1312 657 
Q 1506 409 1894 409 
Q 2359 409 2629 706 
Q 2900 1003 2900 1516 
L 2900 3500 
L 3475 3500 
L 3475 0 
L 2900 0 
L 2900 538 
Q 2691 219 2414 64 
Q 2138 -91 1772 -91 
Q 1169 -91 856 284 
Q 544 659 544 1381 
z
M 1991 3584 
L 1991 3584 
z
" transform="scale(0.015625)"/>
       </defs>
       <use xlink:href="#DejaVuSans-4a"/>
       <use xlink:href="#DejaVuSans-61" transform="translate(29.492188 0)"/>
       <use xlink:href="#DejaVuSans-6c" transform="translate(90.771484 0)"/>
       <use xlink:href="#DejaVuSans-65" transform="translate(118.554688 0)"/>
       <use xlink:href="#DejaVuSans-6e" transform="translate(180.078125 0)"/>
       <use xlink:href="#DejaVuSans-20" transform="translate(243.457031 0)"/>
       <use xlink:href="#DejaVuSans-44" transform="translate(275.244141 0)"/>
       <use xlink:href="#DejaVuSans-75" transform="translate(352.246094 0)"/>
       <use xlink:href="#DejaVuSans-72" transform="translate(415.625 0)"/>
       <use xlink:href="#DejaVuSans-65" transform="translate(454.488281 0)"/>
       <use xlink:href="#DejaVuSans-6e" transform="translate(516.011719 0)"/>
      </g>
     </g>
    </g>
    <g id="ytick_3">
     <g id="line2d_20">
      <g>
       <use xlink:href="#m494a4f49f6" x="118.085938" y="258.037629" style="stroke: #000000; stroke-width: 0.8"/>
      </g>
     </g>
     <g id="text_12">
      <!-- Jaylen Brown -->
      <g style="fill: #888780" transform="translate(55.984688 261.266965) scale(0.085 -0.085)">
       <defs>
        <path id="DejaVuSans-77" d="M 269 3500 
L 844 3500 
L 1563 769 
L 2278 3500 
L 2956 3500 
L 3675 769 
L 4391 3500 
L 4966 3500 
L 4050 0 
L 3372 0 
L 2619 2869 
L 1863 0 
L 1184 0 
L 269 3500 
z
" transform="scale(0.015625)"/>
       </defs>
       <use xlink:href="#DejaVuSans-4a"/>
       <use xlink:href="#DejaVuSans-61" transform="translate(29.492188 0)"/>
       <use xlink:href="#DejaVuSans-79" transform="translate(90.771484 0)"/>
       <use xlink:href="#DejaVuSans-6c" transform="translate(149.951172 0)"/>
       <use xlink:href="#DejaVuSans-65" transform="translate(177.734375 0)"/>
       <use xlink:href="#DejaVuSans-6e" transform="translate(239.257812 0)"/>
       <use xlink:href="#DejaVuSans-20" transform="translate(302.636719 0)"/>
       <use xlink:href="#DejaVuSans-42" transform="translate(334.423828 0)"/>
       <use xlink:href="#DejaVuSans-72" transform="translate(403.027344 0)"/>
       <use xlink:href="#DejaVuSans-6f" transform="translate(441.890625 0)"/>
       <use xlink:href="#DejaVuSans-77" transform="translate(503.072266 0)"/>
       <use xlink:href="#DejaVuSans-6e" transform="translate(584.859375 0)"/>
      </g>
     </g>
    </g>
    <g id="ytick_4">
     <g id="line2d_21">
      <g>
       <use xlink:href="#m494a4f49f6" x="118.085938" y="235.449199" style="stroke: #000000; stroke-width: 0.8"/>
      </g>
     </g>
     <g id="text_13">
      <!-- Chet Holmgren -->
      <g style="fill: #888780" transform="translate(46.949453 238.678535) scale(0.085 -0.085)">
       <defs>
        <path id="DejaVuSans-43" d="M 4122 4306 
L 4122 3641 
Q 3803 3938 3442 4084 
Q 3081 4231 2675 4231 
Q 1875 4231 1450 3742 
Q 1025 3253 1025 2328 
Q 1025 1406 1450 917 
Q 1875 428 2675 428 
Q 3081 428 3442 575 
Q 3803 722 4122 1019 
L 4122 359 
Q 3791 134 3420 21 
Q 3050 -91 2638 -91 
Q 1578 -91 968 557 
Q 359 1206 359 2328 
Q 359 3453 968 4101 
Q 1578 4750 2638 4750 
Q 3056 4750 3426 4639 
Q 3797 4528 4122 4306 
z
" transform="scale(0.015625)"/>
        <path id="DejaVuSans-48" d="M 628 4666 
L 1259 4666 
L 1259 2753 
L 3553 2753 
L 3553 4666 
L 4184 4666 
L 4184 0 
L 3553 0 
L 3553 2222 
L 1259 2222 
L 1259 0 
L 628 0 
L 628 4666 
z
" transform="scale(0.015625)"/>
        <path id="DejaVuSans-6d" d="M 3328 2828 
Q 3544 3216 3844 3400 
Q 4144 3584 4550 3584 
Q 5097 3584 5394 3201 
Q 5691 2819 5691 2113 
L 5691 0 
L 5113 0 
L 5113 2094 
Q 5113 2597 4934 2840 
Q 4756 3084 4391 3084 
Q 3944 3084 3684 2787 
Q 3425 2491 3425 1978 
L 3425 0 
L 2847 0 
L 2847 2094 
Q 2847 2600 2669 2842 
Q 2491 3084 2119 3084 
Q 1678 3084 1418 2786 
Q 1159 2488 1159 1978 
L 1159 0 
L 581 0 
L 581 3500 
L 1159 3500 
L 1159 2956 
Q 1356 3278 1631 3431 
Q 1906 3584 2284 3584 
Q 2666 3584 2933 3390 
Q 3200 3197 3328 2828 
z
" transform="scale(0.015625)"/>
       </defs>
       <use xlink:href="#DejaVuSans-43"/>
       <use xlink:href="#DejaVuSans-68" transform="translate(69.824219 0)"/>
       <use xlink:href="#DejaVuSans-65" transform="translate(133.203125 0)"/>
       <use xlink:href="#DejaVuSans-74" transform="translate(194.726562 0)"/>
       <use xlink:href="#DejaVuSans-20" transform="translate(233.935547 0)"/>
       <use xlink:href="#DejaVuSans-48" transform="translate(265.722656 0)"/>
       <use xlink:href="#DejaVuSans-6f" transform="translate(340.917969 0)"/>
       <use xlink:href="#DejaVuSans-6c" transform="translate(402.099609 0)"/>
       <use xlink:href="#DejaVuSans-6d" transform="translate(429.882812 0)"/>
       <use xlink:href="#DejaVuSans-67" transform="translate(527.294922 0)"/>
       <use xlink:href="#DejaVuSans-72" transform="translate(590.771484 0)"/>
       <use xlink:href="#DejaVuSans-65" transform="translate(629.634766 0)"/>
       <use xlink:href="#DejaVuSans-6e" transform="translate(691.158203 0)"/>
      </g>
     </g>
    </g>
    <g id="ytick_5">
     <g id="line2d_22">
      <g>
       <use xlink:href="#m494a4f49f6" x="118.085938" y="212.86077" style="stroke: #000000; stroke-width: 0.8"/>
      </g>
     </g>
     <g id="text_14">
      <!-- Donovan Mitchell -->
      <g style="fill: #888780" transform="translate(37.382969 216.090106) scale(0.085 -0.085)">
       <use xlink:href="#DejaVuSans-44"/>
       <use xlink:href="#DejaVuSans-6f" transform="translate(77.001953 0)"/>
       <use xlink:href="#DejaVuSans-6e" transform="translate(138.183594 0)"/>
       <use xlink:href="#DejaVuSans-6f" transform="translate(201.5625 0)"/>
       <use xlink:href="#DejaVuSans-76" transform="translate(262.744141 0)"/>
       <use xlink:href="#DejaVuSans-61" transform="translate(321.923828 0)"/>
       <use xlink:href="#DejaVuSans-6e" transform="translate(383.203125 0)"/>
       <use xlink:href="#DejaVuSans-20" transform="translate(446.582031 0)"/>
       <use xlink:href="#DejaVuSans-4d" transform="translate(478.369141 0)"/>
       <use xlink:href="#DejaVuSans-69" transform="translate(564.648438 0)"/>
       <use xlink:href="#DejaVuSans-74" transform="translate(592.431641 0)"/>
       <use xlink:href="#DejaVuSans-63" transform="translate(631.640625 0)"/>
       <use xlink:href="#DejaVuSans-68" transform="translate(686.621094 0)"/>
       <use xlink:href="#DejaVuSans-65" transform="translate(750 0)"/>
       <use xlink:href="#DejaVuSans-6c" transform="translate(811.523438 0)"/>
       <use xlink:href="#DejaVuSans-6c" transform="translate(839.306641 0)"/>
      </g>
     </g>
    </g>
    <g id="ytick_6">
     <g id="line2d_23">
      <g>
       <use xlink:href="#m494a4f49f6" x="118.085938" y="190.27234" style="stroke: #000000; stroke-width: 0.8"/>
      </g>
     </g>
     <g id="text_15">
      <!-- Jalen Brunson -->
      <g style="fill: #222222" transform="translate(44.776641 193.501676) scale(0.085 -0.085)">
       <defs>
        <path id="DejaVuSans-Bold-4a" d="M 588 4666 
L 1791 4666 
L 1791 453 
Q 1791 -419 1317 -850 
Q 844 -1281 -116 -1281 
L -359 -1281 
L -359 -372 
L -172 -372 
Q 203 -372 395 -162 
Q 588 47 588 453 
L 588 4666 
z
" transform="scale(0.015625)"/>
        <path id="DejaVuSans-Bold-61" d="M 2106 1575 
Q 1756 1575 1579 1456 
Q 1403 1338 1403 1106 
Q 1403 894 1545 773 
Q 1688 653 1941 653 
Q 2256 653 2472 879 
Q 2688 1106 2688 1447 
L 2688 1575 
L 2106 1575 
z
M 3816 1997 
L 3816 0 
L 2688 0 
L 2688 519 
Q 2463 200 2181 54 
Q 1900 -91 1497 -91 
Q 953 -91 614 226 
Q 275 544 275 1050 
Q 275 1666 698 1953 
Q 1122 2241 2028 2241 
L 2688 2241 
L 2688 2328 
Q 2688 2594 2478 2717 
Q 2269 2841 1825 2841 
Q 1466 2841 1156 2769 
Q 847 2697 581 2553 
L 581 3406 
Q 941 3494 1303 3539 
Q 1666 3584 2028 3584 
Q 2975 3584 3395 3211 
Q 3816 2838 3816 1997 
z
" transform="scale(0.015625)"/>
        <path id="DejaVuSans-Bold-6c" d="M 538 4863 
L 1656 4863 
L 1656 0 
L 538 0 
L 538 4863 
z
" transform="scale(0.015625)"/>
        <path id="DejaVuSans-Bold-65" d="M 4031 1759 
L 4031 1441 
L 1416 1441 
Q 1456 1047 1700 850 
Q 1944 653 2381 653 
Q 2734 653 3104 758 
Q 3475 863 3866 1075 
L 3866 213 
Q 3469 63 3072 -14 
Q 2675 -91 2278 -91 
Q 1328 -91 801 392 
Q 275 875 275 1747 
Q 275 2603 792 3093 
Q 1309 3584 2216 3584 
Q 3041 3584 3536 3087 
Q 4031 2591 4031 1759 
z
M 2881 2131 
Q 2881 2450 2695 2645 
Q 2509 2841 2209 2841 
Q 1884 2841 1681 2658 
Q 1478 2475 1428 2131 
L 2881 2131 
z
" transform="scale(0.015625)"/>
        <path id="DejaVuSans-Bold-6e" d="M 4056 2131 
L 4056 0 
L 2931 0 
L 2931 347 
L 2931 1631 
Q 2931 2084 2911 2256 
Q 2891 2428 2841 2509 
Q 2775 2619 2662 2680 
Q 2550 2741 2406 2741 
Q 2056 2741 1856 2470 
Q 1656 2200 1656 1722 
L 1656 0 
L 538 0 
L 538 3500 
L 1656 3500 
L 1656 2988 
Q 1909 3294 2193 3439 
Q 2478 3584 2822 3584 
Q 3428 3584 3742 3212 
Q 4056 2841 4056 2131 
z
" transform="scale(0.015625)"/>
        <path id="DejaVuSans-Bold-20" transform="scale(0.015625)"/>
        <path id="DejaVuSans-Bold-42" d="M 2456 2859 
Q 2741 2859 2887 2984 
Q 3034 3109 3034 3353 
Q 3034 3594 2887 3720 
Q 2741 3847 2456 3847 
L 1791 3847 
L 1791 2859 
L 2456 2859 
z
M 2497 819 
Q 2859 819 3042 972 
Q 3225 1125 3225 1434 
Q 3225 1738 3044 1889 
Q 2863 2041 2497 2041 
L 1791 2041 
L 1791 819 
L 2497 819 
z
M 3616 2497 
Q 4003 2384 4215 2081 
Q 4428 1778 4428 1338 
Q 4428 663 3972 331 
Q 3516 0 2584 0 
L 588 0 
L 588 4666 
L 2394 4666 
Q 3366 4666 3802 4372 
Q 4238 4078 4238 3431 
Q 4238 3091 4078 2852 
Q 3919 2613 3616 2497 
z
" transform="scale(0.015625)"/>
        <path id="DejaVuSans-Bold-72" d="M 3138 2547 
Q 2991 2616 2845 2648 
Q 2700 2681 2553 2681 
Q 2122 2681 1889 2404 
Q 1656 2128 1656 1613 
L 1656 0 
L 538 0 
L 538 3500 
L 1656 3500 
L 1656 2925 
Q 1872 3269 2151 3426 
Q 2431 3584 2822 3584 
Q 2878 3584 2943 3579 
Q 3009 3575 3134 3559 
L 3138 2547 
z
" transform="scale(0.015625)"/>
        <path id="DejaVuSans-Bold-75" d="M 500 1363 
L 500 3500 
L 1625 3500 
L 1625 3150 
Q 1625 2866 1622 2436 
Q 1619 2006 1619 1863 
Q 1619 1441 1641 1255 
Q 1663 1069 1716 984 
Q 1784 875 1895 815 
Q 2006 756 2150 756 
Q 2500 756 2700 1025 
Q 2900 1294 2900 1772 
L 2900 3500 
L 4019 3500 
L 4019 0 
L 2900 0 
L 2900 506 
Q 2647 200 2364 54 
Q 2081 -91 1741 -91 
Q 1134 -91 817 281 
Q 500 653 500 1363 
z
" transform="scale(0.015625)"/>
        <path id="DejaVuSans-Bold-73" d="M 3272 3391 
L 3272 2541 
Q 2913 2691 2578 2766 
Q 2244 2841 1947 2841 
Q 1628 2841 1473 2761 
Q 1319 2681 1319 2516 
Q 1319 2381 1436 2309 
Q 1553 2238 1856 2203 
L 2053 2175 
Q 2913 2066 3209 1816 
Q 3506 1566 3506 1031 
Q 3506 472 3093 190 
Q 2681 -91 1863 -91 
Q 1516 -91 1145 -36 
Q 775 19 384 128 
L 384 978 
Q 719 816 1070 734 
Q 1422 653 1784 653 
Q 2113 653 2278 743 
Q 2444 834 2444 1013 
Q 2444 1163 2330 1236 
Q 2216 1309 1875 1350 
L 1678 1375 
Q 931 1469 631 1722 
Q 331 1975 331 2491 
Q 331 3047 712 3315 
Q 1094 3584 1881 3584 
Q 2191 3584 2531 3537 
Q 2872 3491 3272 3391 
z
" transform="scale(0.015625)"/>
        <path id="DejaVuSans-Bold-6f" d="M 2203 2784 
Q 1831 2784 1636 2517 
Q 1441 2250 1441 1747 
Q 1441 1244 1636 976 
Q 1831 709 2203 709 
Q 2569 709 2762 976 
Q 2956 1244 2956 1747 
Q 2956 2250 2762 2517 
Q 2569 2784 2203 2784 
z
M 2203 3584 
Q 3106 3584 3614 3096 
Q 4122 2609 4122 1747 
Q 4122 884 3614 396 
Q 3106 -91 2203 -91 
Q 1297 -91 786 396 
Q 275 884 275 1747 
Q 275 2609 786 3096 
Q 1297 3584 2203 3584 
z
" transform="scale(0.015625)"/>
       </defs>
       <use xlink:href="#DejaVuSans-Bold-4a"/>
       <use xlink:href="#DejaVuSans-Bold-61" transform="translate(37.207031 0)"/>
       <use xlink:href="#DejaVuSans-Bold-6c" transform="translate(104.6875 0)"/>
       <use xlink:href="#DejaVuSans-Bold-65" transform="translate(138.964844 0)"/>
       <use xlink:href="#DejaVuSans-Bold-6e" transform="translate(206.787109 0)"/>
       <use xlink:href="#DejaVuSans-Bold-20" transform="translate(277.978516 0)"/>
       <use xlink:href="#DejaVuSans-Bold-42" transform="translate(312.792969 0)"/>
       <use xlink:href="#DejaVuSans-Bold-72" transform="translate(389.013672 0)"/>
       <use xlink:href="#DejaVuSans-Bold-75" transform="translate(438.330078 0)"/>
       <use xlink:href="#DejaVuSans-Bold-6e" transform="translate(509.521484 0)"/>
       <use xlink:href="#DejaVuSans-Bold-73" transform="translate(580.712891 0)"/>
       <use xlink:href="#DejaVuSans-Bold-6f" transform="translate(640.234375 0)"/>
       <use xlink:href="#DejaVuSans-Bold-6e" transform="translate(708.935547 0)"/>
      </g>
     </g>
    </g>
    <g id="ytick_7">
     <g id="line2d_24">
      <g>
       <use xlink:href="#m494a4f49f6" x="118.085938" y="167.68391" style="stroke: #000000; stroke-width: 0.8"/>
      </g>
     </g>
     <g id="text_16">
      <!-- Jayson Tatum -->
      <g style="fill: #888780" transform="translate(54.624688 170.913246) scale(0.085 -0.085)">
       <defs>
        <path id="DejaVuSans-54" d="M -19 4666 
L 3928 4666 
L 3928 4134 
L 2272 4134 
L 2272 0 
L 1638 0 
L 1638 4134 
L -19 4134 
L -19 4666 
z
" transform="scale(0.015625)"/>
       </defs>
       <use xlink:href="#DejaVuSans-4a"/>
       <use xlink:href="#DejaVuSans-61" transform="translate(29.492188 0)"/>
       <use xlink:href="#DejaVuSans-79" transform="translate(90.771484 0)"/>
       <use xlink:href="#DejaVuSans-73" transform="translate(149.951172 0)"/>
       <use xlink:href="#DejaVuSans-6f" transform="translate(202.050781 0)"/>
       <use xlink:href="#DejaVuSans-6e" transform="translate(263.232422 0)"/>
       <use xlink:href="#DejaVuSans-20" transform="translate(326.611328 0)"/>
       <use xlink:href="#DejaVuSans-54" transform="translate(358.398438 0)"/>
       <use xlink:href="#DejaVuSans-61" transform="translate(402.982422 0)"/>
       <use xlink:href="#DejaVuSans-74" transform="translate(464.261719 0)"/>
       <use xlink:href="#DejaVuSans-75" transform="translate(503.470703 0)"/>
       <use xlink:href="#DejaVuSans-6d" transform="translate(566.849609 0)"/>
      </g>
     </g>
    </g>
    <g id="ytick_8">
     <g id="line2d_25">
      <g>
       <use xlink:href="#m494a4f49f6" x="118.085938" y="145.09548" style="stroke: #000000; stroke-width: 0.8"/>
      </g>
     </g>
     <g id="text_17">
      <!-- Cade Cunningham -->
      <g style="fill: #888780" transform="translate(32.498125 148.324816) scale(0.085 -0.085)">
       <defs>
        <path id="DejaVuSans-64" d="M 2906 2969 
L 2906 4863 
L 3481 4863 
L 3481 0 
L 2906 0 
L 2906 525 
Q 2725 213 2448 61 
Q 2172 -91 1784 -91 
Q 1150 -91 751 415 
Q 353 922 353 1747 
Q 353 2572 751 3078 
Q 1150 3584 1784 3584 
Q 2172 3584 2448 3432 
Q 2725 3281 2906 2969 
z
M 947 1747 
Q 947 1113 1208 752 
Q 1469 391 1925 391 
Q 2381 391 2643 752 
Q 2906 1113 2906 1747 
Q 2906 2381 2643 2742 
Q 2381 3103 1925 3103 
Q 1469 3103 1208 2742 
Q 947 2381 947 1747 
z
" transform="scale(0.015625)"/>
       </defs>
       <use xlink:href="#DejaVuSans-43"/>
       <use xlink:href="#DejaVuSans-61" transform="translate(69.824219 0)"/>
       <use xlink:href="#DejaVuSans-64" transform="translate(131.103516 0)"/>
       <use xlink:href="#DejaVuSans-65" transform="translate(194.580078 0)"/>
       <use xlink:href="#DejaVuSans-20" transform="translate(256.103516 0)"/>
       <use xlink:href="#DejaVuSans-43" transform="translate(287.890625 0)"/>
       <use xlink:href="#DejaVuSans-75" transform="translate(357.714844 0)"/>
       <use xlink:href="#DejaVuSans-6e" transform="translate(421.09375 0)"/>
       <use xlink:href="#DejaVuSans-6e" transform="translate(484.472656 0)"/>
       <use xlink:href="#DejaVuSans-69" transform="translate(547.851562 0)"/>
       <use xlink:href="#DejaVuSans-6e" transform="translate(575.634766 0)"/>
       <use xlink:href="#DejaVuSans-67" transform="translate(639.013672 0)"/>
       <use xlink:href="#DejaVuSans-68" transform="translate(702.490234 0)"/>
       <use xlink:href="#DejaVuSans-61" transform="translate(765.869141 0)"/>
       <use xlink:href="#DejaVuSans-6d" transform="translate(827.148438 0)"/>
      </g>
     </g>
    </g>
    <g id="ytick_9">
     <g id="line2d_26">
      <g>
       <use xlink:href="#m494a4f49f6" x="118.085938" y="122.507051" style="stroke: #000000; stroke-width: 0.8"/>
      </g>
     </g>
     <g id="text_18">
      <!-- Karl-Anthony Towns -->
      <g style="fill: #888780" transform="translate(27.766016 125.736387) scale(0.085 -0.085)">
       <defs>
        <path id="DejaVuSans-4b" d="M 628 4666 
L 1259 4666 
L 1259 2694 
L 3353 4666 
L 4166 4666 
L 1850 2491 
L 4331 0 
L 3500 0 
L 1259 2247 
L 1259 0 
L 628 0 
L 628 4666 
z
" transform="scale(0.015625)"/>
        <path id="DejaVuSans-2d" d="M 313 2009 
L 1997 2009 
L 1997 1497 
L 313 1497 
L 313 2009 
z
" transform="scale(0.015625)"/>
        <path id="DejaVuSans-41" d="M 2188 4044 
L 1331 1722 
L 3047 1722 
L 2188 4044 
z
M 1831 4666 
L 2547 4666 
L 4325 0 
L 3669 0 
L 3244 1197 
L 1141 1197 
L 716 0 
L 50 0 
L 1831 4666 
z
" transform="scale(0.015625)"/>
       </defs>
       <use xlink:href="#DejaVuSans-4b"/>
       <use xlink:href="#DejaVuSans-61" transform="translate(63.826172 0)"/>
       <use xlink:href="#DejaVuSans-72" transform="translate(125.105469 0)"/>
       <use xlink:href="#DejaVuSans-6c" transform="translate(166.21875 0)"/>
       <use xlink:href="#DejaVuSans-2d" transform="translate(194.001953 0)"/>
       <use xlink:href="#DejaVuSans-41" transform="translate(227.835938 0)"/>
       <use xlink:href="#DejaVuSans-6e" transform="translate(296.244141 0)"/>
       <use xlink:href="#DejaVuSans-74" transform="translate(359.623047 0)"/>
       <use xlink:href="#DejaVuSans-68" transform="translate(398.832031 0)"/>
       <use xlink:href="#DejaVuSans-6f" transform="translate(462.210938 0)"/>
       <use xlink:href="#DejaVuSans-6e" transform="translate(523.392578 0)"/>
       <use xlink:href="#DejaVuSans-79" transform="translate(586.771484 0)"/>
       <use xlink:href="#DejaVuSans-20" transform="translate(645.951172 0)"/>
       <use xlink:href="#DejaVuSans-54" transform="translate(677.738281 0)"/>
       <use xlink:href="#DejaVuSans-6f" transform="translate(721.822266 0)"/>
       <use xlink:href="#DejaVuSans-77" transform="translate(783.003906 0)"/>
       <use xlink:href="#DejaVuSans-6e" transform="translate(864.791016 0)"/>
       <use xlink:href="#DejaVuSans-73" transform="translate(928.169922 0)"/>
      </g>
     </g>
    </g>
    <g id="ytick_10">
     <g id="line2d_27">
      <g>
       <use xlink:href="#m494a4f49f6" x="118.085938" y="99.918621" style="stroke: #000000; stroke-width: 0.8"/>
      </g>
     </g>
     <g id="text_19">
      <!-- Shai Gilgeous-Alexander -->
      <g style="fill: #888780" transform="translate(7.2 103.147957) scale(0.085 -0.085)">
       <defs>
        <path id="DejaVuSans-53" d="M 3425 4513 
L 3425 3897 
Q 3066 4069 2747 4153 
Q 2428 4238 2131 4238 
Q 1616 4238 1336 4038 
Q 1056 3838 1056 3469 
Q 1056 3159 1242 3001 
Q 1428 2844 1947 2747 
L 2328 2669 
Q 3034 2534 3370 2195 
Q 3706 1856 3706 1288 
Q 3706 609 3251 259 
Q 2797 -91 1919 -91 
Q 1588 -91 1214 -16 
Q 841 59 441 206 
L 441 856 
Q 825 641 1194 531 
Q 1563 422 1919 422 
Q 2459 422 2753 634 
Q 3047 847 3047 1241 
Q 3047 1584 2836 1778 
Q 2625 1972 2144 2069 
L 1759 2144 
Q 1053 2284 737 2584 
Q 422 2884 422 3419 
Q 422 4038 858 4394 
Q 1294 4750 2059 4750 
Q 2388 4750 2728 4690 
Q 3069 4631 3425 4513 
z
" transform="scale(0.015625)"/>
        <path id="DejaVuSans-47" d="M 3809 666 
L 3809 1919 
L 2778 1919 
L 2778 2438 
L 4434 2438 
L 4434 434 
Q 4069 175 3628 42 
Q 3188 -91 2688 -91 
Q 1594 -91 976 548 
Q 359 1188 359 2328 
Q 359 3472 976 4111 
Q 1594 4750 2688 4750 
Q 3144 4750 3555 4637 
Q 3966 4525 4313 4306 
L 4313 3634 
Q 3963 3931 3569 4081 
Q 3175 4231 2741 4231 
Q 1884 4231 1454 3753 
Q 1025 3275 1025 2328 
Q 1025 1384 1454 906 
Q 1884 428 2741 428 
Q 3075 428 3337 486 
Q 3600 544 3809 666 
z
" transform="scale(0.015625)"/>
        <path id="DejaVuSans-78" d="M 3513 3500 
L 2247 1797 
L 3578 0 
L 2900 0 
L 1881 1375 
L 863 0 
L 184 0 
L 1544 1831 
L 300 3500 
L 978 3500 
L 1906 2253 
L 2834 3500 
L 3513 3500 
z
" transform="scale(0.015625)"/>
       </defs>
       <use xlink:href="#DejaVuSans-53"/>
       <use xlink:href="#DejaVuSans-68" transform="translate(63.476562 0)"/>
       <use xlink:href="#DejaVuSans-61" transform="translate(126.855469 0)"/>
       <use xlink:href="#DejaVuSans-69" transform="translate(188.134766 0)"/>
       <use xlink:href="#DejaVuSans-20" transform="translate(215.917969 0)"/>
       <use xlink:href="#DejaVuSans-47" transform="translate(247.705078 0)"/>
       <use xlink:href="#DejaVuSans-69" transform="translate(325.195312 0)"/>
       <use xlink:href="#DejaVuSans-6c" transform="translate(352.978516 0)"/>
       <use xlink:href="#DejaVuSans-67" transform="translate(380.761719 0)"/>
       <use xlink:href="#DejaVuSans-65" transform="translate(444.238281 0)"/>
       <use xlink:href="#DejaVuSans-6f" transform="translate(505.761719 0)"/>
       <use xlink:href="#DejaVuSans-75" transform="translate(566.943359 0)"/>
       <use xlink:href="#DejaVuSans-73" transform="translate(630.322266 0)"/>
       <use xlink:href="#DejaVuSans-2d" transform="translate(682.421875 0)"/>
       <use xlink:href="#DejaVuSans-41" transform="translate(716.255859 0)"/>
       <use xlink:href="#DejaVuSans-6c" transform="translate(784.664062 0)"/>
       <use xlink:href="#DejaVuSans-65" transform="translate(812.447266 0)"/>
       <use xlink:href="#DejaVuSans-78" transform="translate(872.220703 0)"/>
       <use xlink:href="#DejaVuSans-61" transform="translate(931.400391 0)"/>
       <use xlink:href="#DejaVuSans-6e" transform="translate(992.679688 0)"/>
       <use xlink:href="#DejaVuSans-64" transform="translate(1056.058594 0)"/>
       <use xlink:href="#DejaVuSans-65" transform="translate(1119.535156 0)"/>
       <use xlink:href="#DejaVuSans-72" transform="translate(1181.058594 0)"/>
      </g>
     </g>
    </g>
    <g id="ytick_11">
     <g id="line2d_28">
      <g>
       <use xlink:href="#m494a4f49f6" x="118.085938" y="77.330191" style="stroke: #000000; stroke-width: 0.8"/>
      </g>
     </g>
     <g id="text_20">
      <!-- Victor Wembanyama -->
      <g style="fill: #888780" transform="translate(22.56375 80.559527) scale(0.085 -0.085)">
       <defs>
        <path id="DejaVuSans-56" d="M 1831 0 
L 50 4666 
L 709 4666 
L 2188 738 
L 3669 4666 
L 4325 4666 
L 2547 0 
L 1831 0 
z
" transform="scale(0.015625)"/>
        <path id="DejaVuSans-57" d="M 213 4666 
L 850 4666 
L 1831 722 
L 2809 4666 
L 3519 4666 
L 4500 722 
L 5478 4666 
L 6119 4666 
L 4947 0 
L 4153 0 
L 3169 4050 
L 2175 0 
L 1381 0 
L 213 4666 
z
" transform="scale(0.015625)"/>
       </defs>
       <use xlink:href="#DejaVuSans-56"/>
       <use xlink:href="#DejaVuSans-69" transform="translate(66.158203 0)"/>
       <use xlink:href="#DejaVuSans-63" transform="translate(93.941406 0)"/>
       <use xlink:href="#DejaVuSans-74" transform="translate(148.921875 0)"/>
       <use xlink:href="#DejaVuSans-6f" transform="translate(188.130859 0)"/>
       <use xlink:href="#DejaVuSans-72" transform="translate(249.3125 0)"/>
       <use xlink:href="#DejaVuSans-20" transform="translate(290.425781 0)"/>
       <use xlink:href="#DejaVuSans-57" transform="translate(322.212891 0)"/>
       <use xlink:href="#DejaVuSans-65" transform="translate(415.214844 0)"/>
       <use xlink:href="#DejaVuSans-6d" transform="translate(476.738281 0)"/>
       <use xlink:href="#DejaVuSans-62" transform="translate(574.150391 0)"/>
       <use xlink:href="#DejaVuSans-61" transform="translate(637.626953 0)"/>
       <use xlink:href="#DejaVuSans-6e" transform="translate(698.90625 0)"/>
       <use xlink:href="#DejaVuSans-79" transform="translate(762.285156 0)"/>
       <use xlink:href="#DejaVuSans-61" transform="translate(821.464844 0)"/>
       <use xlink:href="#DejaVuSans-6d" transform="translate(882.744141 0)"/>
       <use xlink:href="#DejaVuSans-61" transform="translate(980.15625 0)"/>
      </g>
     </g>
    </g>
    <g id="ytick_12">
     <g id="line2d_29">
      <g>
       <use xlink:href="#m494a4f49f6" x="118.085938" y="54.741761" style="stroke: #000000; stroke-width: 0.8"/>
      </g>
     </g>
     <g id="text_21">
      <!-- Nikola Jokić -->
      <g style="fill: #888780" transform="translate(62.613359 58.107894) scale(0.085 -0.085)">
       <defs>
        <path id="DejaVuSans-4e" d="M 628 4666 
L 1478 4666 
L 3547 763 
L 3547 4666 
L 4159 4666 
L 4159 0 
L 3309 0 
L 1241 3903 
L 1241 0 
L 628 0 
L 628 4666 
z
" transform="scale(0.015625)"/>
        <path id="DejaVuSans-6b" d="M 581 4863 
L 1159 4863 
L 1159 1991 
L 2875 3500 
L 3609 3500 
L 1753 1863 
L 3688 0 
L 2938 0 
L 1159 1709 
L 1159 0 
L 581 0 
L 581 4863 
z
" transform="scale(0.015625)"/>
        <path id="DejaVuSans-107" d="M 3122 3366 
L 3122 2828 
Q 2878 2963 2633 3030 
Q 2388 3097 2138 3097 
Q 1578 3097 1268 2742 
Q 959 2388 959 1747 
Q 959 1106 1268 751 
Q 1578 397 2138 397 
Q 2388 397 2633 464 
Q 2878 531 3122 666 
L 3122 134 
Q 2881 22 2623 -34 
Q 2366 -91 2075 -91 
Q 1284 -91 818 406 
Q 353 903 353 1747 
Q 353 2603 823 3093 
Q 1294 3584 2113 3584 
Q 2378 3584 2631 3529 
Q 2884 3475 3122 3366 
z
M 2463 5119 
L 3084 5119 
L 2066 3944 
L 1588 3944 
L 2463 5119 
z
" transform="scale(0.015625)"/>
       </defs>
       <use xlink:href="#DejaVuSans-4e"/>
       <use xlink:href="#DejaVuSans-69" transform="translate(74.804688 0)"/>
       <use xlink:href="#DejaVuSans-6b" transform="translate(102.587891 0)"/>
       <use xlink:href="#DejaVuSans-6f" transform="translate(156.873047 0)"/>
       <use xlink:href="#DejaVuSans-6c" transform="translate(218.054688 0)"/>
       <use xlink:href="#DejaVuSans-61" transform="translate(245.837891 0)"/>
       <use xlink:href="#DejaVuSans-20" transform="translate(307.117188 0)"/>
       <use xlink:href="#DejaVuSans-4a" transform="translate(338.904297 0)"/>
       <use xlink:href="#DejaVuSans-6f" transform="translate(368.396484 0)"/>
       <use xlink:href="#DejaVuSans-6b" transform="translate(429.578125 0)"/>
       <use xlink:href="#DejaVuSans-69" transform="translate(487.488281 0)"/>
       <use xlink:href="#DejaVuSans-107" transform="translate(515.271484 0)"/>
      </g>
     </g>
    </g>
   </g>
   <g id="line2d_30">
    <path d="M 272.457116 303.214489 
L 266.447874 303.214489 
" clip-path="url(#pf77d786231)" style="fill: none; stroke: #888780; stroke-opacity: 0.6; stroke-width: 1.6; stroke-linecap: square"/>
   </g>
   <g id="line2d_31">
    <path d="M 330.519143 280.626059 
L 134.963892 280.626059 
" clip-path="url(#pf77d786231)" style="fill: none; stroke: #888780; stroke-opacity: 0.6; stroke-width: 1.6; stroke-linecap: square"/>
   </g>
   <g id="line2d_32">
    <path d="M 282.717991 258.037629 
L 231.18103 258.037629 
" clip-path="url(#pf77d786231)" style="fill: none; stroke: #888780; stroke-opacity: 0.6; stroke-width: 1.6; stroke-linecap: square"/>
   </g>
   <g id="line2d_33">
    <path d="M 286.589322 235.449199 
L 252.590068 235.449199 
" clip-path="url(#pf77d786231)" style="fill: none; stroke: #888780; stroke-opacity: 0.6; stroke-width: 1.6; stroke-linecap: square"/>
   </g>
   <g id="line2d_34">
    <path d="M 312.466964 212.86077 
L 212.855647 212.86077 
" clip-path="url(#pf77d786231)" style="fill: none; stroke: #888780; stroke-opacity: 0.6; stroke-width: 1.6; stroke-linecap: square"/>
   </g>
   <g id="line2d_35">
    <path d="M 267.588883 190.27234 
L 298.896104 190.27234 
" clip-path="url(#pf77d786231)" style="fill: none; stroke: #888780; stroke-opacity: 0.6; stroke-width: 1.6; stroke-linecap: square"/>
   </g>
   <g id="line2d_36">
    <path d="M 257.695417 167.68391 
L 324.802017 167.68391 
" clip-path="url(#pf77d786231)" style="fill: none; stroke: #888780; stroke-opacity: 0.6; stroke-width: 1.6; stroke-linecap: square"/>
   </g>
   <g id="line2d_37">
    <path d="M 315.871231 145.09548 
L 238.042407 145.09548 
" clip-path="url(#pf77d786231)" style="fill: none; stroke: #888780; stroke-opacity: 0.6; stroke-width: 1.6; stroke-linecap: square"/>
   </g>
   <g id="line2d_38">
    <path d="M 279.323343 122.507051 
L 384.431121 122.507051 
" clip-path="url(#pf77d786231)" style="fill: none; stroke: #888780; stroke-opacity: 0.6; stroke-width: 1.6; stroke-linecap: square"/>
   </g>
   <g id="line2d_39">
    <path d="M 447.391755 99.918621 
L 298.97246 99.918621 
" clip-path="url(#pf77d786231)" style="fill: none; stroke: #888780; stroke-opacity: 0.6; stroke-width: 1.6; stroke-linecap: square"/>
   </g>
   <g id="line2d_40">
    <path d="M 406.918138 77.330191 
L 405.124847 77.330191 
" clip-path="url(#pf77d786231)" style="fill: none; stroke: #888780; stroke-opacity: 0.6; stroke-width: 1.6; stroke-linecap: square"/>
   </g>
   <g id="line2d_41">
    <path d="M 472.522983 54.741761 
L 289.985047 54.741761 
" clip-path="url(#pf77d786231)" style="fill: none; stroke: #888780; stroke-opacity: 0.6; stroke-width: 1.6; stroke-linecap: square"/>
   </g>
   <g id="patch_3">
    <path d="M 118.085938 315.638125 
L 489.400938 315.638125 
" style="fill: none; stroke: #000000; stroke-width: 0.8; stroke-linejoin: miter; stroke-linecap: square"/>
   </g>
   <g id="PathCollection_1">
    <defs>
     <path id="mff497275cf" d="M 0 3.708099 
C 0.983399 3.708099 1.926654 3.317391 2.622022 2.622022 
C 3.317391 1.926654 3.708099 0.983399 3.708099 0 
C 3.708099 -0.983399 3.317391 -1.926654 2.622022 -2.622022 
C 1.926654 -3.317391 0.983399 -3.708099 0 -3.708099 
C -0.983399 -3.708099 -1.926654 -3.317391 -2.622022 -2.622022 
C -3.317391 -1.926654 -3.708099 -0.983399 -3.708099 0 
C -3.708099 0.983399 -3.317391 1.926654 -2.622022 2.622022 
C -1.926654 3.317391 -0.983399 3.708099 0 3.708099 
z
" style="stroke: #378add"/>
    </defs>
    <g clip-path="url(#pf77d786231)">
     <use xlink:href="#mff497275cf" x="272.457116" y="303.214489" style="fill: #378add; stroke: #378add"/>
     <use xlink:href="#mff497275cf" x="330.519143" y="280.626059" style="fill: #378add; stroke: #378add"/>
     <use xlink:href="#mff497275cf" x="282.717991" y="258.037629" style="fill: #378add; stroke: #378add"/>
     <use xlink:href="#mff497275cf" x="286.589322" y="235.449199" style="fill: #378add; stroke: #378add"/>
     <use xlink:href="#mff497275cf" x="312.466964" y="212.86077" style="fill: #378add; stroke: #378add"/>
     <use xlink:href="#mff497275cf" x="267.588883" y="190.27234" style="fill: #378add; stroke: #378add"/>
     <use xlink:href="#mff497275cf" x="257.695417" y="167.68391" style="fill: #378add; stroke: #378add"/>
     <use xlink:href="#mff497275cf" x="315.871231" y="145.09548" style="fill: #378add; stroke: #378add"/>
     <use xlink:href="#mff497275cf" x="279.323343" y="122.507051" style="fill: #378add; stroke: #378add"/>
     <use xlink:href="#mff497275cf" x="447.391755" y="99.918621" style="fill: #378add; stroke: #378add"/>
     <use xlink:href="#mff497275cf" x="406.918138" y="77.330191" style="fill: #378add; stroke: #378add"/>
     <use xlink:href="#mff497275cf" x="472.522983" y="54.741761" style="fill: #378add; stroke: #378add"/>
    </g>
   </g>
   <g id="PathCollection_2">
    <defs>
     <path id="mc2407f3299" d="M 0 3.708099 
C 0.983399 3.708099 1.926654 3.317391 2.622022 2.622022 
C 3.317391 1.926654 3.708099 0.983399 3.708099 0 
C 3.708099 -0.983399 3.317391 -1.926654 2.622022 -2.622022 
C 1.926654 -3.317391 0.983399 -3.708099 0 -3.708099 
C -0.983399 -3.708099 -1.926654 -3.317391 -2.622022 -2.622022 
C -3.317391 -1.926654 -3.708099 -0.983399 -3.708099 0 
C -3.708099 0.983399 -3.317391 1.926654 -2.622022 2.622022 
C -1.926654 3.317391 -0.983399 3.708099 0 3.708099 
z
" style="stroke: #1d9e75"/>
    </defs>
    <g clip-path="url(#pf77d786231)">
     <use xlink:href="#mc2407f3299" x="266.447874" y="303.214489" style="fill: #1d9e75; stroke: #1d9e75"/>
     <use xlink:href="#mc2407f3299" x="134.963892" y="280.626059" style="fill: #1d9e75; stroke: #1d9e75"/>
     <use xlink:href="#mc2407f3299" x="231.18103" y="258.037629" style="fill: #1d9e75; stroke: #1d9e75"/>
     <use xlink:href="#mc2407f3299" x="252.590068" y="235.449199" style="fill: #1d9e75; stroke: #1d9e75"/>
     <use xlink:href="#mc2407f3299" x="212.855647" y="212.86077" style="fill: #1d9e75; stroke: #1d9e75"/>
     <use xlink:href="#mc2407f3299" x="298.896104" y="190.27234" style="fill: #1d9e75; stroke: #1d9e75"/>
     <use xlink:href="#mc2407f3299" x="324.802017" y="167.68391" style="fill: #1d9e75; stroke: #1d9e75"/>
     <use xlink:href="#mc2407f3299" x="238.042407" y="145.09548" style="fill: #1d9e75; stroke: #1d9e75"/>
     <use xlink:href="#mc2407f3299" x="384.431121" y="122.507051" style="fill: #1d9e75; stroke: #1d9e75"/>
     <use xlink:href="#mc2407f3299" x="298.97246" y="99.918621" style="fill: #1d9e75; stroke: #1d9e75"/>
     <use xlink:href="#mc2407f3299" x="405.124847" y="77.330191" style="fill: #1d9e75; stroke: #1d9e75"/>
     <use xlink:href="#mc2407f3299" x="289.985047" y="54.741761" style="fill: #1d9e75; stroke: #1d9e75"/>
    </g>
   </g>
   <g id="text_22">
    <!-- Regular-season vs playoff BPM, top 12 players by playoff-weighted value (postseason minutes count 2x toward the blend) -->
    <g style="fill: #888780" transform="translate(59.354688 37.921175) scale(0.08 -0.08)">
     <defs>
      <path id="DejaVuSans-66" d="M 2375 4863 
L 2375 4384 
L 1825 4384 
Q 1516 4384 1395 4259 
Q 1275 4134 1275 3809 
L 1275 3500 
L 2222 3500 
L 2222 3053 
L 1275 3053 
L 1275 0 
L 697 0 
L 697 3053 
L 147 3053 
L 147 3500 
L 697 3500 
L 697 3744 
Q 697 4328 969 4595 
Q 1241 4863 1831 4863 
L 2375 4863 
z
" transform="scale(0.015625)"/>
      <path id="DejaVuSans-2c" d="M 750 794 
L 1409 794 
L 1409 256 
L 897 -744 
L 494 -744 
L 750 256 
L 750 794 
z
" transform="scale(0.015625)"/>
     </defs>
     <use xlink:href="#DejaVuSans-52"/>
     <use xlink:href="#DejaVuSans-65" transform="translate(64.982422 0)"/>
     <use xlink:href="#DejaVuSans-67" transform="translate(126.505859 0)"/>
     <use xlink:href="#DejaVuSans-75" transform="translate(189.982422 0)"/>
     <use xlink:href="#DejaVuSans-6c" transform="translate(253.361328 0)"/>
     <use xlink:href="#DejaVuSans-61" transform="translate(281.144531 0)"/>
     <use xlink:href="#DejaVuSans-72" transform="translate(342.423828 0)"/>
     <use xlink:href="#DejaVuSans-2d" transform="translate(377.162109 0)"/>
     <use xlink:href="#DejaVuSans-73" transform="translate(413.246094 0)"/>
     <use xlink:href="#DejaVuSans-65" transform="translate(465.345703 0)"/>
     <use xlink:href="#DejaVuSans-61" transform="translate(526.869141 0)"/>
     <use xlink:href="#DejaVuSans-73" transform="translate(588.148438 0)"/>
     <use xlink:href="#DejaVuSans-6f" transform="translate(640.248047 0)"/>
     <use xlink:href="#DejaVuSans-6e" transform="translate(701.429688 0)"/>
     <use xlink:href="#DejaVuSans-20" transform="translate(764.808594 0)"/>
     <use xlink:href="#DejaVuSans-76" transform="translate(796.595703 0)"/>
     <use xlink:href="#DejaVuSans-73" transform="translate(855.775391 0)"/>
     <use xlink:href="#DejaVuSans-20" transform="translate(907.875 0)"/>
     <use xlink:href="#DejaVuSans-70" transform="translate(939.662109 0)"/>
     <use xlink:href="#DejaVuSans-6c" transform="translate(1003.138672 0)"/>
     <use xlink:href="#DejaVuSans-61" transform="translate(1030.921875 0)"/>
     <use xlink:href="#DejaVuSans-79" transform="translate(1092.201172 0)"/>
     <use xlink:href="#DejaVuSans-6f" transform="translate(1151.380859 0)"/>
     <use xlink:href="#DejaVuSans-66" transform="translate(1212.5625 0)"/>
     <use xlink:href="#DejaVuSans-66" transform="translate(1247.767578 0)"/>
     <use xlink:href="#DejaVuSans-20" transform="translate(1282.972656 0)"/>
     <use xlink:href="#DejaVuSans-42" transform="translate(1314.759766 0)"/>
     <use xlink:href="#DejaVuSans-50" transform="translate(1383.363281 0)"/>
     <use xlink:href="#DejaVuSans-4d" transform="translate(1443.666016 0)"/>
     <use xlink:href="#DejaVuSans-2c" transform="translate(1529.945312 0)"/>
     <use xlink:href="#DejaVuSans-20" transform="translate(1561.732422 0)"/>
     <use xlink:href="#DejaVuSans-74" transform="translate(1593.519531 0)"/>
     <use xlink:href="#DejaVuSans-6f" transform="translate(1632.728516 0)"/>
     <use xlink:href="#DejaVuSans-70" transform="translate(1693.910156 0)"/>
     <use xlink:href="#DejaVuSans-20" transform="translate(1757.386719 0)"/>
     <use xlink:href="#DejaVuSans-31" transform="translate(1789.173828 0)"/>
     <use xlink:href="#DejaVuSans-32" transform="translate(1852.796875 0)"/>
     <use xlink:href="#DejaVuSans-20" transform="translate(1916.419922 0)"/>
     <use xlink:href="#DejaVuSans-70" transform="translate(1948.207031 0)"/>
     <use xlink:href="#DejaVuSans-6c" transform="translate(2011.683594 0)"/>
     <use xlink:href="#DejaVuSans-61" transform="translate(2039.466797 0)"/>
     <use xlink:href="#DejaVuSans-79" transform="translate(2100.746094 0)"/>
     <use xlink:href="#DejaVuSans-65" transform="translate(2159.925781 0)"/>
     <use xlink:href="#DejaVuSans-72" transform="translate(2221.449219 0)"/>
     <use xlink:href="#DejaVuSans-73" transform="translate(2262.5625 0)"/>
     <use xlink:href="#DejaVuSans-20" transform="translate(2314.662109 0)"/>
     <use xlink:href="#DejaVuSans-62" transform="translate(2346.449219 0)"/>
     <use xlink:href="#DejaVuSans-79" transform="translate(2409.925781 0)"/>
     <use xlink:href="#DejaVuSans-20" transform="translate(2469.105469 0)"/>
     <use xlink:href="#DejaVuSans-70" transform="translate(2500.892578 0)"/>
     <use xlink:href="#DejaVuSans-6c" transform="translate(2564.369141 0)"/>
     <use xlink:href="#DejaVuSans-61" transform="translate(2592.152344 0)"/>
     <use xlink:href="#DejaVuSans-79" transform="translate(2653.431641 0)"/>
     <use xlink:href="#DejaVuSans-6f" transform="translate(2712.611328 0)"/>
     <use xlink:href="#DejaVuSans-66" transform="translate(2773.792969 0)"/>
     <use xlink:href="#DejaVuSans-66" transform="translate(2808.998047 0)"/>
     <use xlink:href="#DejaVuSans-2d" transform="translate(2838.703125 0)"/>
     <use xlink:href="#DejaVuSans-77" transform="translate(2874.787109 0)"/>
     <use xlink:href="#DejaVuSans-65" transform="translate(2956.574219 0)"/>
     <use xlink:href="#DejaVuSans-69" transform="translate(3018.097656 0)"/>
     <use xlink:href="#DejaVuSans-67" transform="translate(3045.880859 0)"/>
     <use xlink:href="#DejaVuSans-68" transform="translate(3109.357422 0)"/>
     <use xlink:href="#DejaVuSans-74" transform="translate(3172.736328 0)"/>
     <use xlink:href="#DejaVuSans-65" transform="translate(3211.945312 0)"/>
     <use xlink:href="#DejaVuSans-64" transform="translate(3273.46875 0)"/>
     <use xlink:href="#DejaVuSans-20" transform="translate(3336.945312 0)"/>
     <use xlink:href="#DejaVuSans-76" transform="translate(3368.732422 0)"/>
     <use xlink:href="#DejaVuSans-61" transform="translate(3427.912109 0)"/>
     <use xlink:href="#DejaVuSans-6c" transform="translate(3489.191406 0)"/>
     <use xlink:href="#DejaVuSans-75" transform="translate(3516.974609 0)"/>
     <use xlink:href="#DejaVuSans-65" transform="translate(3580.353516 0)"/>
     <use xlink:href="#DejaVuSans-20" transform="translate(3641.876953 0)"/>
     <use xlink:href="#DejaVuSans-28" transform="translate(3673.664062 0)"/>
     <use xlink:href="#DejaVuSans-70" transform="translate(3712.677734 0)"/>
     <use xlink:href="#DejaVuSans-6f" transform="translate(3776.154297 0)"/>
     <use xlink:href="#DejaVuSans-73" transform="translate(3837.335938 0)"/>
     <use xlink:href="#DejaVuSans-74" transform="translate(3889.435547 0)"/>
     <use xlink:href="#DejaVuSans-73" transform="translate(3928.644531 0)"/>
     <use xlink:href="#DejaVuSans-65" transform="translate(3980.744141 0)"/>
     <use xlink:href="#DejaVuSans-61" transform="translate(4042.267578 0)"/>
     <use xlink:href="#DejaVuSans-73" transform="translate(4103.546875 0)"/>
     <use xlink:href="#DejaVuSans-6f" transform="translate(4155.646484 0)"/>
     <use xlink:href="#DejaVuSans-6e" transform="translate(4216.828125 0)"/>
     <use xlink:href="#DejaVuSans-20" transform="translate(4280.207031 0)"/>
     <use xlink:href="#DejaVuSans-6d" transform="translate(4311.994141 0)"/>
     <use xlink:href="#DejaVuSans-69" transform="translate(4409.40625 0)"/>
     <use xlink:href="#DejaVuSans-6e" transform="translate(4437.189453 0)"/>
     <use xlink:href="#DejaVuSans-75" transform="translate(4500.568359 0)"/>
     <use xlink:href="#DejaVuSans-74" transform="translate(4563.947266 0)"/>
     <use xlink:href="#DejaVuSans-65" transform="translate(4603.15625 0)"/>
     <use xlink:href="#DejaVuSans-73" transform="translate(4664.679688 0)"/>
     <use xlink:href="#DejaVuSans-20" transform="translate(4716.779297 0)"/>
     <use xlink:href="#DejaVuSans-63" transform="translate(4748.566406 0)"/>
     <use xlink:href="#DejaVuSans-6f" transform="translate(4803.546875 0)"/>
     <use xlink:href="#DejaVuSans-75" transform="translate(4864.728516 0)"/>
     <use xlink:href="#DejaVuSans-6e" transform="translate(4928.107422 0)"/>
     <use xlink:href="#DejaVuSans-74" transform="translate(4991.486328 0)"/>
     <use xlink:href="#DejaVuSans-20" transform="translate(5030.695312 0)"/>
     <use xlink:href="#DejaVuSans-32" transform="translate(5062.482422 0)"/>
     <use xlink:href="#DejaVuSans-78" transform="translate(5126.105469 0)"/>
     <use xlink:href="#DejaVuSans-20" transform="translate(5185.285156 0)"/>
     <use xlink:href="#DejaVuSans-74" transform="translate(5217.072266 0)"/>
     <use xlink:href="#DejaVuSans-6f" transform="translate(5256.28125 0)"/>
     <use xlink:href="#DejaVuSans-77" transform="translate(5317.462891 0)"/>
     <use xlink:href="#DejaVuSans-61" transform="translate(5399.25 0)"/>
     <use xlink:href="#DejaVuSans-72" transform="translate(5460.529297 0)"/>
     <use xlink:href="#DejaVuSans-64" transform="translate(5499.892578 0)"/>
     <use xlink:href="#DejaVuSans-20" transform="translate(5563.369141 0)"/>
     <use xlink:href="#DejaVuSans-74" transform="translate(5595.15625 0)"/>
     <use xlink:href="#DejaVuSans-68" transform="translate(5634.365234 0)"/>
     <use xlink:href="#DejaVuSans-65" transform="translate(5697.744141 0)"/>
     <use xlink:href="#DejaVuSans-20" transform="translate(5759.267578 0)"/>
     <use xlink:href="#DejaVuSans-62" transform="translate(5791.054688 0)"/>
     <use xlink:href="#DejaVuSans-6c" transform="translate(5854.53125 0)"/>
     <use xlink:href="#DejaVuSans-65" transform="translate(5882.314453 0)"/>
     <use xlink:href="#DejaVuSans-6e" transform="translate(5943.837891 0)"/>
     <use xlink:href="#DejaVuSans-64" transform="translate(6007.216797 0)"/>
     <use xlink:href="#DejaVuSans-29" transform="translate(6070.693359 0)"/>
    </g>
   </g>
   <g id="text_23">
    <!-- Brunson raised his game in the playoffs, but not into the top five -->
    <g style="fill: #222222" transform="translate(109.0875 16.318125) scale(0.12 -0.12)">
     <use xlink:href="#DejaVuSans-42"/>
     <use xlink:href="#DejaVuSans-72" transform="translate(68.603516 0)"/>
     <use xlink:href="#DejaVuSans-75" transform="translate(109.716797 0)"/>
     <use xlink:href="#DejaVuSans-6e" transform="translate(173.095703 0)"/>
     <use xlink:href="#DejaVuSans-73" transform="translate(236.474609 0)"/>
     <use xlink:href="#DejaVuSans-6f" transform="translate(288.574219 0)"/>
     <use xlink:href="#DejaVuSans-6e" transform="translate(349.755859 0)"/>
     <use xlink:href="#DejaVuSans-20" transform="translate(413.134766 0)"/>
     <use xlink:href="#DejaVuSans-72" transform="translate(444.921875 0)"/>
     <use xlink:href="#DejaVuSans-61" transform="translate(486.035156 0)"/>
     <use xlink:href="#DejaVuSans-69" transform="translate(547.314453 0)"/>
     <use xlink:href="#DejaVuSans-73" transform="translate(575.097656 0)"/>
     <use xlink:href="#DejaVuSans-65" transform="translate(627.197266 0)"/>
     <use xlink:href="#DejaVuSans-64" transform="translate(688.720703 0)"/>
     <use xlink:href="#DejaVuSans-20" transform="translate(752.197266 0)"/>
     <use xlink:href="#DejaVuSans-68" transform="translate(783.984375 0)"/>
     <use xlink:href="#DejaVuSans-69" transform="translate(847.363281 0)"/>
     <use xlink:href="#DejaVuSans-73" transform="translate(875.146484 0)"/>
     <use xlink:href="#DejaVuSans-20" transform="translate(927.246094 0)"/>
     <use xlink:href="#DejaVuSans-67" transform="translate(959.033203 0)"/>
     <use xlink:href="#DejaVuSans-61" transform="translate(1022.509766 0)"/>
     <use xlink:href="#DejaVuSans-6d" transform="translate(1083.789062 0)"/>
     <use xlink:href="#DejaVuSans-65" transform="translate(1181.201172 0)"/>
     <use xlink:href="#DejaVuSans-20" transform="translate(1242.724609 0)"/>
     <use xlink:href="#DejaVuSans-69" transform="translate(1274.511719 0)"/>
     <use xlink:href="#DejaVuSans-6e" transform="translate(1302.294922 0)"/>
     <use xlink:href="#DejaVuSans-20" transform="translate(1365.673828 0)"/>
     <use xlink:href="#DejaVuSans-74" transform="translate(1397.460938 0)"/>
     <use xlink:href="#DejaVuSans-68" transform="translate(1436.669922 0)"/>
     <use xlink:href="#DejaVuSans-65" transform="translate(1500.048828 0)"/>
     <use xlink:href="#DejaVuSans-20" transform="translate(1561.572266 0)"/>
     <use xlink:href="#DejaVuSans-70" transform="translate(1593.359375 0)"/>
     <use xlink:href="#DejaVuSans-6c" transform="translate(1656.835938 0)"/>
     <use xlink:href="#DejaVuSans-61" transform="translate(1684.619141 0)"/>
     <use xlink:href="#DejaVuSans-79" transform="translate(1745.898438 0)"/>
     <use xlink:href="#DejaVuSans-6f" transform="translate(1805.078125 0)"/>
     <use xlink:href="#DejaVuSans-66" transform="translate(1866.259766 0)"/>
     <use xlink:href="#DejaVuSans-66" transform="translate(1901.464844 0)"/>
     <use xlink:href="#DejaVuSans-73" transform="translate(1936.669922 0)"/>
     <use xlink:href="#DejaVuSans-2c" transform="translate(1988.769531 0)"/>
     <use xlink:href="#DejaVuSans-20" transform="translate(2020.556641 0)"/>
     <use xlink:href="#DejaVuSans-62" transform="translate(2052.34375 0)"/>
     <use xlink:href="#DejaVuSans-75" transform="translate(2115.820312 0)"/>
     <use xlink:href="#DejaVuSans-74" transform="translate(2179.199219 0)"/>
     <use xlink:href="#DejaVuSans-20" transform="translate(2218.408203 0)"/>
     <use xlink:href="#DejaVuSans-6e" transform="translate(2250.195312 0)"/>
     <use xlink:href="#DejaVuSans-6f" transform="translate(2313.574219 0)"/>
     <use xlink:href="#DejaVuSans-74" transform="translate(2374.755859 0)"/>
     <use xlink:href="#DejaVuSans-20" transform="translate(2413.964844 0)"/>
     <use xlink:href="#DejaVuSans-69" transform="translate(2445.751953 0)"/>
     <use xlink:href="#DejaVuSans-6e" transform="translate(2473.535156 0)"/>
     <use xlink:href="#DejaVuSans-74" transform="translate(2536.914062 0)"/>
     <use xlink:href="#DejaVuSans-6f" transform="translate(2576.123047 0)"/>
     <use xlink:href="#DejaVuSans-20" transform="translate(2637.304688 0)"/>
     <use xlink:href="#DejaVuSans-74" transform="translate(2669.091797 0)"/>
     <use xlink:href="#DejaVuSans-68" transform="translate(2708.300781 0)"/>
     <use xlink:href="#DejaVuSans-65" transform="translate(2771.679688 0)"/>
     <use xlink:href="#DejaVuSans-20" transform="translate(2833.203125 0)"/>
     <use xlink:href="#DejaVuSans-74" transform="translate(2864.990234 0)"/>
     <use xlink:href="#DejaVuSans-6f" transform="translate(2904.199219 0)"/>
     <use xlink:href="#DejaVuSans-70" transform="translate(2965.380859 0)"/>
     <use xlink:href="#DejaVuSans-20" transform="translate(3028.857422 0)"/>
     <use xlink:href="#DejaVuSans-66" transform="translate(3060.644531 0)"/>
     <use xlink:href="#DejaVuSans-69" transform="translate(3095.849609 0)"/>
     <use xlink:href="#DejaVuSans-76" transform="translate(3123.632812 0)"/>
     <use xlink:href="#DejaVuSans-65" transform="translate(3182.8125 0)"/>
    </g>
   </g>
   <g id="legend_1">
    <g id="PathCollection_3">
     <g>
      <use xlink:href="#mff497275cf" x="386.858438" y="292.931875" style="fill: #378add; stroke: #378add"/>
     </g>
    </g>
    <g id="text_24">
     <!-- Regular-season BPM -->
     <g transform="translate(401.258438 295.031875) scale(0.08 -0.08)">
      <use xlink:href="#DejaVuSans-52"/>
      <use xlink:href="#DejaVuSans-65" transform="translate(64.982422 0)"/>
      <use xlink:href="#DejaVuSans-67" transform="translate(126.505859 0)"/>
      <use xlink:href="#DejaVuSans-75" transform="translate(189.982422 0)"/>
      <use xlink:href="#DejaVuSans-6c" transform="translate(253.361328 0)"/>
      <use xlink:href="#DejaVuSans-61" transform="translate(281.144531 0)"/>
      <use xlink:href="#DejaVuSans-72" transform="translate(342.423828 0)"/>
      <use xlink:href="#DejaVuSans-2d" transform="translate(377.162109 0)"/>
      <use xlink:href="#DejaVuSans-73" transform="translate(413.246094 0)"/>
      <use xlink:href="#DejaVuSans-65" transform="translate(465.345703 0)"/>
      <use xlink:href="#DejaVuSans-61" transform="translate(526.869141 0)"/>
      <use xlink:href="#DejaVuSans-73" transform="translate(588.148438 0)"/>
      <use xlink:href="#DejaVuSans-6f" transform="translate(640.248047 0)"/>
      <use xlink:href="#DejaVuSans-6e" transform="translate(701.429688 0)"/>
      <use xlink:href="#DejaVuSans-20" transform="translate(764.808594 0)"/>
      <use xlink:href="#DejaVuSans-42" transform="translate(796.595703 0)"/>
      <use xlink:href="#DejaVuSans-50" transform="translate(865.199219 0)"/>
      <use xlink:href="#DejaVuSans-4d" transform="translate(925.501953 0)"/>
     </g>
    </g>
    <g id="PathCollection_4">
     <g>
      <use xlink:href="#mc2407f3299" x="386.858438" y="304.674375" style="fill: #1d9e75; stroke: #1d9e75"/>
     </g>
    </g>
    <g id="text_25">
     <!-- Playoff BPM -->
     <g transform="translate(401.258438 306.774375) scale(0.08 -0.08)">
      <use xlink:href="#DejaVuSans-50"/>
      <use xlink:href="#DejaVuSans-6c" transform="translate(60.302734 0)"/>
      <use xlink:href="#DejaVuSans-61" transform="translate(88.085938 0)"/>
      <use xlink:href="#DejaVuSans-79" transform="translate(149.365234 0)"/>
      <use xlink:href="#DejaVuSans-6f" transform="translate(208.544922 0)"/>
      <use xlink:href="#DejaVuSans-66" transform="translate(269.726562 0)"/>
      <use xlink:href="#DejaVuSans-66" transform="translate(304.931641 0)"/>
      <use xlink:href="#DejaVuSans-20" transform="translate(340.136719 0)"/>
      <use xlink:href="#DejaVuSans-42" transform="translate(371.923828 0)"/>
      <use xlink:href="#DejaVuSans-50" transform="translate(440.527344 0)"/>
      <use xlink:href="#DejaVuSans-4d" transform="translate(500.830078 0)"/>
     </g>
    </g>
   </g>
  </g>
 </g>
 <defs>
  <clipPath id="pf77d786231">
   <rect x="118.085938" y="42.318125" width="371.315" height="273.32"/>
  </clipPath>
 </defs>
</svg>
