<?xml version="1.0" encoding="utf-8" standalone="no"?>
<!DOCTYPE svg PUBLIC "-//W3C//DTD SVG 1.1//EN"
  "http://www.w3.org/Graphics/SVG/1.1/DTD/svg11.dtd">
<svg xmlns:xlink="http://www.w3.org/1999/xlink" width="712.119375pt" height="423.256313pt" viewBox="0 0 712.119375 423.256313" xmlns="http://www.w3.org/2000/svg" version="1.1">
 <metadata>
  <rdf:RDF xmlns:dc="http://purl.org/dc/elements/1.1/" xmlns:cc="http://creativecommons.org/ns#" xmlns:rdf="http://www.w3.org/1999/02/22-rdf-syntax-ns#">
   <cc:Work>
    <dc:type rdf:resource="http://purl.org/dc/dcmitype/StillImage"/>
    <dc:date>2026-07-02T11:15:13.826315</dc:date>
    <dc:format>image/svg+xml</dc:format>
    <dc:creator>
     <cc:Agent>
      <dc:title>Matplotlib v3.10.9, https://matplotlib.org/</dc:title>
     </cc:Agent>
    </dc:creator>
   </cc:Work>
  </rdf:RDF>
 </metadata>
 <defs>
  <style type="text/css">*{stroke-linejoin: round; stroke-linecap: butt}</style>
 </defs>
 <g id="figure_1">
  <g id="patch_1">
   <path d="M 0 423.256313 
L 712.119375 423.256313 
L 712.119375 0 
L 0 0 
z
" style="fill: #f9f9f7"/>
  </g>
  <g id="axes_1">
   <g id="patch_2">
    <path d="M 55.499375 386.667875 
L 704.919375 386.667875 
L 704.919375 33.875875 
L 55.499375 33.875875 
z
" style="fill: #ffffff"/>
   </g>
   <g id="matplotlib.axis_1">
    <g id="xtick_1">
     <g id="line2d_1">
      <defs>
       <path id="mdb85598747" d="M 0 0 
L 0 3.5 
" style="stroke: #000000; stroke-width: 0.8"/>
      </defs>
      <g>
       <use xlink:href="#mdb85598747" x="72.969857" y="386.667875" style="stroke: #000000; stroke-width: 0.8"/>
      </g>
     </g>
     <g id="text_1">
      <!-- 0 -->
      <g transform="translate(69.788607 401.266313) scale(0.1 -0.1)">
       <defs>
        <path id="DejaVuSans-30" d="M 2034 4250 
Q 1547 4250 1301 3770 
Q 1056 3291 1056 2328 
Q 1056 1369 1301 889 
Q 1547 409 2034 409 
Q 2525 409 2770 889 
Q 3016 1369 3016 2328 
Q 3016 3291 2770 3770 
Q 2525 4250 2034 4250 
z
M 2034 4750 
Q 2819 4750 3233 4129 
Q 3647 3509 3647 2328 
Q 3647 1150 3233 529 
Q 2819 -91 2034 -91 
Q 1250 -91 836 529 
Q 422 1150 422 2328 
Q 422 3509 836 4129 
Q 1250 4750 2034 4750 
z
" transform="scale(0.015625)"/>
       </defs>
       <use xlink:href="#DejaVuSans-30"/>
      </g>
     </g>
    </g>
    <g id="xtick_2">
     <g id="line2d_2">
      <g>
       <use xlink:href="#mdb85598747" x="193.455943" y="386.667875" style="stroke: #000000; stroke-width: 0.8"/>
      </g>
     </g>
     <g id="text_2">
      <!-- 10 -->
      <g transform="translate(187.093443 401.266313) scale(0.1 -0.1)">
       <defs>
        <path id="DejaVuSans-31" d="M 794 531 
L 1825 531 
L 1825 4091 
L 703 3866 
L 703 4441 
L 1819 4666 
L 2450 4666 
L 2450 531 
L 3481 531 
L 3481 0 
L 794 0 
L 794 531 
z
" transform="scale(0.015625)"/>
       </defs>
       <use xlink:href="#DejaVuSans-31"/>
       <use xlink:href="#DejaVuSans-30" transform="translate(63.623047 0)"/>
      </g>
     </g>
    </g>
    <g id="xtick_3">
     <g id="line2d_3">
      <g>
       <use xlink:href="#mdb85598747" x="313.942028" y="386.667875" style="stroke: #000000; stroke-width: 0.8"/>
      </g>
     </g>
     <g id="text_3">
      <!-- 20 -->
      <g transform="translate(307.579528 401.266313) scale(0.1 -0.1)">
       <defs>
        <path id="DejaVuSans-32" d="M 1228 531 
L 3431 531 
L 3431 0 
L 469 0 
L 469 531 
Q 828 903 1448 1529 
Q 2069 2156 2228 2338 
Q 2531 2678 2651 2914 
Q 2772 3150 2772 3378 
Q 2772 3750 2511 3984 
Q 2250 4219 1831 4219 
Q 1534 4219 1204 4116 
Q 875 4013 500 3803 
L 500 4441 
Q 881 4594 1212 4672 
Q 1544 4750 1819 4750 
Q 2544 4750 2975 4387 
Q 3406 4025 3406 3419 
Q 3406 3131 3298 2873 
Q 3191 2616 2906 2266 
Q 2828 2175 2409 1742 
Q 1991 1309 1228 531 
z
" transform="scale(0.015625)"/>
       </defs>
       <use xlink:href="#DejaVuSans-32"/>
       <use xlink:href="#DejaVuSans-30" transform="translate(63.623047 0)"/>
      </g>
     </g>
    </g>
    <g id="xtick_4">
     <g id="line2d_4">
      <g>
       <use xlink:href="#mdb85598747" x="434.428113" y="386.667875" style="stroke: #000000; stroke-width: 0.8"/>
      </g>
     </g>
     <g id="text_4">
      <!-- 30 -->
      <g transform="translate(428.065613 401.266313) scale(0.1 -0.1)">
       <defs>
        <path id="DejaVuSans-33" d="M 2597 2516 
Q 3050 2419 3304 2112 
Q 3559 1806 3559 1356 
Q 3559 666 3084 287 
Q 2609 -91 1734 -91 
Q 1441 -91 1130 -33 
Q 819 25 488 141 
L 488 750 
Q 750 597 1062 519 
Q 1375 441 1716 441 
Q 2309 441 2620 675 
Q 2931 909 2931 1356 
Q 2931 1769 2642 2001 
Q 2353 2234 1838 2234 
L 1294 2234 
L 1294 2753 
L 1863 2753 
Q 2328 2753 2575 2939 
Q 2822 3125 2822 3475 
Q 2822 3834 2567 4026 
Q 2313 4219 1838 4219 
Q 1578 4219 1281 4162 
Q 984 4106 628 3988 
L 628 4550 
Q 988 4650 1302 4700 
Q 1616 4750 1894 4750 
Q 2613 4750 3031 4423 
Q 3450 4097 3450 3541 
Q 3450 3153 3228 2886 
Q 3006 2619 2597 2516 
z
" transform="scale(0.015625)"/>
       </defs>
       <use xlink:href="#DejaVuSans-33"/>
       <use xlink:href="#DejaVuSans-30" transform="translate(63.623047 0)"/>
      </g>
     </g>
    </g>
    <g id="xtick_5">
     <g id="line2d_5">
      <g>
       <use xlink:href="#mdb85598747" x="554.914199" y="386.667875" style="stroke: #000000; stroke-width: 0.8"/>
      </g>
     </g>
     <g id="text_5">
      <!-- 40 -->
      <g transform="translate(548.551699 401.266313) scale(0.1 -0.1)">
       <defs>
        <path id="DejaVuSans-34" d="M 2419 4116 
L 825 1625 
L 2419 1625 
L 2419 4116 
z
M 2253 4666 
L 3047 4666 
L 3047 1625 
L 3713 1625 
L 3713 1100 
L 3047 1100 
L 3047 0 
L 2419 0 
L 2419 1100 
L 313 1100 
L 313 1709 
L 2253 4666 
z
" transform="scale(0.015625)"/>
       </defs>
       <use xlink:href="#DejaVuSans-34"/>
       <use xlink:href="#DejaVuSans-30" transform="translate(63.623047 0)"/>
      </g>
     </g>
    </g>
    <g id="xtick_6">
     <g id="line2d_6">
      <g>
       <use xlink:href="#mdb85598747" x="675.400284" y="386.667875" style="stroke: #000000; stroke-width: 0.8"/>
      </g>
     </g>
     <g id="text_6">
      <!-- 50 -->
      <g transform="translate(669.037784 401.266313) scale(0.1 -0.1)">
       <defs>
        <path id="DejaVuSans-35" d="M 691 4666 
L 3169 4666 
L 3169 4134 
L 1269 4134 
L 1269 2991 
Q 1406 3038 1543 3061 
Q 1681 3084 1819 3084 
Q 2600 3084 3056 2656 
Q 3513 2228 3513 1497 
Q 3513 744 3044 326 
Q 2575 -91 1722 -91 
Q 1428 -91 1123 -41 
Q 819 9 494 109 
L 494 744 
Q 775 591 1075 516 
Q 1375 441 1709 441 
Q 2250 441 2565 725 
Q 2881 1009 2881 1497 
Q 2881 1984 2565 2268 
Q 2250 2553 1709 2553 
Q 1456 2553 1204 2497 
Q 953 2441 691 2322 
L 691 4666 
z
" transform="scale(0.015625)"/>
       </defs>
       <use xlink:href="#DejaVuSans-35"/>
       <use xlink:href="#DejaVuSans-30" transform="translate(63.623047 0)"/>
      </g>
     </g>
    </g>
    <g id="text_7">
     <!-- Player rank (1 = best, up to 50) -->
     <g style="fill: #888780" transform="translate(308.8675 414.184594) scale(0.09 -0.09)">
      <defs>
       <path id="DejaVuSans-50" d="M 1259 4147 
L 1259 2394 
L 2053 2394 
Q 2494 2394 2734 2622 
Q 2975 2850 2975 3272 
Q 2975 3691 2734 3919 
Q 2494 4147 2053 4147 
L 1259 4147 
z
M 628 4666 
L 2053 4666 
Q 2838 4666 3239 4311 
Q 3641 3956 3641 3272 
Q 3641 2581 3239 2228 
Q 2838 1875 2053 1875 
L 1259 1875 
L 1259 0 
L 628 0 
L 628 4666 
z
" transform="scale(0.015625)"/>
       <path id="DejaVuSans-6c" d="M 603 4863 
L 1178 4863 
L 1178 0 
L 603 0 
L 603 4863 
z
" transform="scale(0.015625)"/>
       <path id="DejaVuSans-61" d="M 2194 1759 
Q 1497 1759 1228 1600 
Q 959 1441 959 1056 
Q 959 750 1161 570 
Q 1363 391 1709 391 
Q 2188 391 2477 730 
Q 2766 1069 2766 1631 
L 2766 1759 
L 2194 1759 
z
M 3341 1997 
L 3341 0 
L 2766 0 
L 2766 531 
Q 2569 213 2275 61 
Q 1981 -91 1556 -91 
Q 1019 -91 701 211 
Q 384 513 384 1019 
Q 384 1609 779 1909 
Q 1175 2209 1959 2209 
L 2766 2209 
L 2766 2266 
Q 2766 2663 2505 2880 
Q 2244 3097 1772 3097 
Q 1472 3097 1187 3025 
Q 903 2953 641 2809 
L 641 3341 
Q 956 3463 1253 3523 
Q 1550 3584 1831 3584 
Q 2591 3584 2966 3190 
Q 3341 2797 3341 1997 
z
" transform="scale(0.015625)"/>
       <path id="DejaVuSans-79" d="M 2059 -325 
Q 1816 -950 1584 -1140 
Q 1353 -1331 966 -1331 
L 506 -1331 
L 506 -850 
L 844 -850 
Q 1081 -850 1212 -737 
Q 1344 -625 1503 -206 
L 1606 56 
L 191 3500 
L 800 3500 
L 1894 763 
L 2988 3500 
L 3597 3500 
L 2059 -325 
z
" transform="scale(0.015625)"/>
       <path id="DejaVuSans-65" d="M 3597 1894 
L 3597 1613 
L 953 1613 
Q 991 1019 1311 708 
Q 1631 397 2203 397 
Q 2534 397 2845 478 
Q 3156 559 3463 722 
L 3463 178 
Q 3153 47 2828 -22 
Q 2503 -91 2169 -91 
Q 1331 -91 842 396 
Q 353 884 353 1716 
Q 353 2575 817 3079 
Q 1281 3584 2069 3584 
Q 2775 3584 3186 3129 
Q 3597 2675 3597 1894 
z
M 3022 2063 
Q 3016 2534 2758 2815 
Q 2500 3097 2075 3097 
Q 1594 3097 1305 2825 
Q 1016 2553 972 2059 
L 3022 2063 
z
" transform="scale(0.015625)"/>
       <path id="DejaVuSans-72" d="M 2631 2963 
Q 2534 3019 2420 3045 
Q 2306 3072 2169 3072 
Q 1681 3072 1420 2755 
Q 1159 2438 1159 1844 
L 1159 0 
L 581 0 
L 581 3500 
L 1159 3500 
L 1159 2956 
Q 1341 3275 1631 3429 
Q 1922 3584 2338 3584 
Q 2397 3584 2469 3576 
Q 2541 3569 2628 3553 
L 2631 2963 
z
" transform="scale(0.015625)"/>
       <path id="DejaVuSans-20" transform="scale(0.015625)"/>
       <path id="DejaVuSans-6e" d="M 3513 2113 
L 3513 0 
L 2938 0 
L 2938 2094 
Q 2938 2591 2744 2837 
Q 2550 3084 2163 3084 
Q 1697 3084 1428 2787 
Q 1159 2491 1159 1978 
L 1159 0 
L 581 0 
L 581 3500 
L 1159 3500 
L 1159 2956 
Q 1366 3272 1645 3428 
Q 1925 3584 2291 3584 
Q 2894 3584 3203 3211 
Q 3513 2838 3513 2113 
z
" transform="scale(0.015625)"/>
       <path id="DejaVuSans-6b" d="M 581 4863 
L 1159 4863 
L 1159 1991 
L 2875 3500 
L 3609 3500 
L 1753 1863 
L 3688 0 
L 2938 0 
L 1159 1709 
L 1159 0 
L 581 0 
L 581 4863 
z
" transform="scale(0.015625)"/>
       <path id="DejaVuSans-28" d="M 1984 4856 
Q 1566 4138 1362 3434 
Q 1159 2731 1159 2009 
Q 1159 1288 1364 580 
Q 1569 -128 1984 -844 
L 1484 -844 
Q 1016 -109 783 600 
Q 550 1309 550 2009 
Q 550 2706 781 3412 
Q 1013 4119 1484 4856 
L 1984 4856 
z
" transform="scale(0.015625)"/>
       <path id="DejaVuSans-3d" d="M 678 2906 
L 4684 2906 
L 4684 2381 
L 678 2381 
L 678 2906 
z
M 678 1631 
L 4684 1631 
L 4684 1100 
L 678 1100 
L 678 1631 
z
" transform="scale(0.015625)"/>
       <path id="DejaVuSans-62" d="M 3116 1747 
Q 3116 2381 2855 2742 
Q 2594 3103 2138 3103 
Q 1681 3103 1420 2742 
Q 1159 2381 1159 1747 
Q 1159 1113 1420 752 
Q 1681 391 2138 391 
Q 2594 391 2855 752 
Q 3116 1113 3116 1747 
z
M 1159 2969 
Q 1341 3281 1617 3432 
Q 1894 3584 2278 3584 
Q 2916 3584 3314 3078 
Q 3713 2572 3713 1747 
Q 3713 922 3314 415 
Q 2916 -91 2278 -91 
Q 1894 -91 1617 61 
Q 1341 213 1159 525 
L 1159 0 
L 581 0 
L 581 4863 
L 1159 4863 
L 1159 2969 
z
" transform="scale(0.015625)"/>
       <path id="DejaVuSans-73" d="M 2834 3397 
L 2834 2853 
Q 2591 2978 2328 3040 
Q 2066 3103 1784 3103 
Q 1356 3103 1142 2972 
Q 928 2841 928 2578 
Q 928 2378 1081 2264 
Q 1234 2150 1697 2047 
L 1894 2003 
Q 2506 1872 2764 1633 
Q 3022 1394 3022 966 
Q 3022 478 2636 193 
Q 2250 -91 1575 -91 
Q 1294 -91 989 -36 
Q 684 19 347 128 
L 347 722 
Q 666 556 975 473 
Q 1284 391 1588 391 
Q 1994 391 2212 530 
Q 2431 669 2431 922 
Q 2431 1156 2273 1281 
Q 2116 1406 1581 1522 
L 1381 1569 
Q 847 1681 609 1914 
Q 372 2147 372 2553 
Q 372 3047 722 3315 
Q 1072 3584 1716 3584 
Q 2034 3584 2315 3537 
Q 2597 3491 2834 3397 
z
" transform="scale(0.015625)"/>
       <path id="DejaVuSans-74" d="M 1172 4494 
L 1172 3500 
L 2356 3500 
L 2356 3053 
L 1172 3053 
L 1172 1153 
Q 1172 725 1289 603 
Q 1406 481 1766 481 
L 2356 481 
L 2356 0 
L 1766 0 
Q 1100 0 847 248 
Q 594 497 594 1153 
L 594 3053 
L 172 3053 
L 172 3500 
L 594 3500 
L 594 4494 
L 1172 4494 
z
" transform="scale(0.015625)"/>
       <path id="DejaVuSans-2c" d="M 750 794 
L 1409 794 
L 1409 256 
L 897 -744 
L 494 -744 
L 750 256 
L 750 794 
z
" transform="scale(0.015625)"/>
       <path id="DejaVuSans-75" d="M 544 1381 
L 544 3500 
L 1119 3500 
L 1119 1403 
Q 1119 906 1312 657 
Q 1506 409 1894 409 
Q 2359 409 2629 706 
Q 2900 1003 2900 1516 
L 2900 3500 
L 3475 3500 
L 3475 0 
L 2900 0 
L 2900 538 
Q 2691 219 2414 64 
Q 2138 -91 1772 -91 
Q 1169 -91 856 284 
Q 544 659 544 1381 
z
M 1991 3584 
L 1991 3584 
z
" transform="scale(0.015625)"/>
       <path id="DejaVuSans-70" d="M 1159 525 
L 1159 -1331 
L 581 -1331 
L 581 3500 
L 1159 3500 
L 1159 2969 
Q 1341 3281 1617 3432 
Q 1894 3584 2278 3584 
Q 2916 3584 3314 3078 
Q 3713 2572 3713 1747 
Q 3713 922 3314 415 
Q 2916 -91 2278 -91 
Q 1894 -91 1617 61 
Q 1341 213 1159 525 
z
M 3116 1747 
Q 3116 2381 2855 2742 
Q 2594 3103 2138 3103 
Q 1681 3103 1420 2742 
Q 1159 2381 1159 1747 
Q 1159 1113 1420 752 
Q 1681 391 2138 391 
Q 2594 391 2855 752 
Q 3116 1113 3116 1747 
z
" transform="scale(0.015625)"/>
       <path id="DejaVuSans-6f" d="M 1959 3097 
Q 1497 3097 1228 2736 
Q 959 2375 959 1747 
Q 959 1119 1226 758 
Q 1494 397 1959 397 
Q 2419 397 2687 759 
Q 2956 1122 2956 1747 
Q 2956 2369 2687 2733 
Q 2419 3097 1959 3097 
z
M 1959 3584 
Q 2709 3584 3137 3096 
Q 3566 2609 3566 1747 
Q 3566 888 3137 398 
Q 2709 -91 1959 -91 
Q 1206 -91 779 398 
Q 353 888 353 1747 
Q 353 2609 779 3096 
Q 1206 3584 1959 3584 
z
" transform="scale(0.015625)"/>
       <path id="DejaVuSans-29" d="M 513 4856 
L 1013 4856 
Q 1481 4119 1714 3412 
Q 1947 2706 1947 2009 
Q 1947 1309 1714 600 
Q 1481 -109 1013 -844 
L 513 -844 
Q 928 -128 1133 580 
Q 1338 1288 1338 2009 
Q 1338 2731 1133 3434 
Q 928 4138 513 4856 
z
" transform="scale(0.015625)"/>
      </defs>
      <use xlink:href="#DejaVuSans-50"/>
      <use xlink:href="#DejaVuSans-6c" transform="translate(60.302734 0)"/>
      <use xlink:href="#DejaVuSans-61" transform="translate(88.085938 0)"/>
      <use xlink:href="#DejaVuSans-79" transform="translate(149.365234 0)"/>
      <use xlink:href="#DejaVuSans-65" transform="translate(208.544922 0)"/>
      <use xlink:href="#DejaVuSans-72" transform="translate(270.068359 0)"/>
      <use xlink:href="#DejaVuSans-20" transform="translate(311.181641 0)"/>
      <use xlink:href="#DejaVuSans-72" transform="translate(342.96875 0)"/>
      <use xlink:href="#DejaVuSans-61" transform="translate(384.082031 0)"/>
      <use xlink:href="#DejaVuSans-6e" transform="translate(445.361328 0)"/>
      <use xlink:href="#DejaVuSans-6b" transform="translate(508.740234 0)"/>
      <use xlink:href="#DejaVuSans-20" transform="translate(566.650391 0)"/>
      <use xlink:href="#DejaVuSans-28" transform="translate(598.4375 0)"/>
      <use xlink:href="#DejaVuSans-31" transform="translate(637.451172 0)"/>
      <use xlink:href="#DejaVuSans-20" transform="translate(701.074219 0)"/>
      <use xlink:href="#DejaVuSans-3d" transform="translate(732.861328 0)"/>
      <use xlink:href="#DejaVuSans-20" transform="translate(816.650391 0)"/>
      <use xlink:href="#DejaVuSans-62" transform="translate(848.4375 0)"/>
      <use xlink:href="#DejaVuSans-65" transform="translate(911.914062 0)"/>
      <use xlink:href="#DejaVuSans-73" transform="translate(973.4375 0)"/>
      <use xlink:href="#DejaVuSans-74" transform="translate(1025.537109 0)"/>
      <use xlink:href="#DejaVuSans-2c" transform="translate(1064.746094 0)"/>
      <use xlink:href="#DejaVuSans-20" transform="translate(1096.533203 0)"/>
      <use xlink:href="#DejaVuSans-75" transform="translate(1128.320312 0)"/>
      <use xlink:href="#DejaVuSans-70" transform="translate(1191.699219 0)"/>
      <use xlink:href="#DejaVuSans-20" transform="translate(1255.175781 0)"/>
      <use xlink:href="#DejaVuSans-74" transform="translate(1286.962891 0)"/>
      <use xlink:href="#DejaVuSans-6f" transform="translate(1326.171875 0)"/>
      <use xlink:href="#DejaVuSans-20" transform="translate(1387.353516 0)"/>
      <use xlink:href="#DejaVuSans-35" transform="translate(1419.140625 0)"/>
      <use xlink:href="#DejaVuSans-30" transform="translate(1482.763672 0)"/>
      <use xlink:href="#DejaVuSans-29" transform="translate(1546.386719 0)"/>
     </g>
    </g>
   </g>
   <g id="matplotlib.axis_2">
    <g id="ytick_1">
     <g id="line2d_7">
      <path d="M 55.499375 371.725363 
L 704.919375 371.725363 
" clip-path="url(#p121d213402)" style="fill: none; stroke: #e0dfd8; stroke-width: 0.7; stroke-linecap: square"/>
     </g>
     <g id="line2d_8">
      <defs>
       <path id="m20790598d4" d="M 0 0 
L -3.5 0 
" style="stroke: #000000; stroke-width: 0.8"/>
      </defs>
      <g>
       <use xlink:href="#m20790598d4" x="55.499375" y="371.725363" style="stroke: #000000; stroke-width: 0.8"/>
      </g>
     </g>
     <g id="text_8">
      <!-- 20% -->
      <g transform="translate(26.272813 375.524582) scale(0.1 -0.1)">
       <defs>
        <path id="DejaVuSans-25" d="M 4653 2053 
Q 4381 2053 4226 1822 
Q 4072 1591 4072 1178 
Q 4072 772 4226 539 
Q 4381 306 4653 306 
Q 4919 306 5073 539 
Q 5228 772 5228 1178 
Q 5228 1588 5073 1820 
Q 4919 2053 4653 2053 
z
M 4653 2450 
Q 5147 2450 5437 2106 
Q 5728 1763 5728 1178 
Q 5728 594 5436 251 
Q 5144 -91 4653 -91 
Q 4153 -91 3862 251 
Q 3572 594 3572 1178 
Q 3572 1766 3864 2108 
Q 4156 2450 4653 2450 
z
M 1428 4353 
Q 1159 4353 1004 4120 
Q 850 3888 850 3481 
Q 850 3069 1003 2837 
Q 1156 2606 1428 2606 
Q 1700 2606 1854 2837 
Q 2009 3069 2009 3481 
Q 2009 3884 1853 4118 
Q 1697 4353 1428 4353 
z
M 4250 4750 
L 4750 4750 
L 1831 -91 
L 1331 -91 
L 4250 4750 
z
M 1428 4750 
Q 1922 4750 2215 4408 
Q 2509 4066 2509 3481 
Q 2509 2891 2217 2550 
Q 1925 2209 1428 2209 
Q 931 2209 642 2551 
Q 353 2894 353 3481 
Q 353 4063 643 4406 
Q 934 4750 1428 4750 
z
" transform="scale(0.015625)"/>
       </defs>
       <use xlink:href="#DejaVuSans-32"/>
       <use xlink:href="#DejaVuSans-30" transform="translate(63.623047 0)"/>
       <use xlink:href="#DejaVuSans-25" transform="translate(127.246094 0)"/>
      </g>
     </g>
    </g>
    <g id="ytick_2">
     <g id="line2d_9">
      <path d="M 55.499375 331.498677 
L 704.919375 331.498677 
" clip-path="url(#p121d213402)" style="fill: none; stroke: #e0dfd8; stroke-width: 0.7; stroke-linecap: square"/>
     </g>
     <g id="line2d_10">
      <g>
       <use xlink:href="#m20790598d4" x="55.499375" y="331.498677" style="stroke: #000000; stroke-width: 0.8"/>
      </g>
     </g>
     <g id="text_9">
      <!-- 30% -->
      <g transform="translate(26.272813 335.297896) scale(0.1 -0.1)">
       <use xlink:href="#DejaVuSans-33"/>
       <use xlink:href="#DejaVuSans-30" transform="translate(63.623047 0)"/>
       <use xlink:href="#DejaVuSans-25" transform="translate(127.246094 0)"/>
      </g>
     </g>
    </g>
    <g id="ytick_3">
     <g id="line2d_11">
      <path d="M 55.499375 291.271991 
L 704.919375 291.271991 
" clip-path="url(#p121d213402)" style="fill: none; stroke: #e0dfd8; stroke-width: 0.7; stroke-linecap: square"/>
     </g>
     <g id="line2d_12">
      <g>
       <use xlink:href="#m20790598d4" x="55.499375" y="291.271991" style="stroke: #000000; stroke-width: 0.8"/>
      </g>
     </g>
     <g id="text_10">
      <!-- 40% -->
      <g transform="translate(26.272813 295.07121) scale(0.1 -0.1)">
       <use xlink:href="#DejaVuSans-34"/>
       <use xlink:href="#DejaVuSans-30" transform="translate(63.623047 0)"/>
       <use xlink:href="#DejaVuSans-25" transform="translate(127.246094 0)"/>
      </g>
     </g>
    </g>
    <g id="ytick_4">
     <g id="line2d_13">
      <path d="M 55.499375 251.045305 
L 704.919375 251.045305 
" clip-path="url(#p121d213402)" style="fill: none; stroke: #e0dfd8; stroke-width: 0.7; stroke-linecap: square"/>
     </g>
     <g id="line2d_14">
      <g>
       <use xlink:href="#m20790598d4" x="55.499375" y="251.045305" style="stroke: #000000; stroke-width: 0.8"/>
      </g>
     </g>
     <g id="text_11">
      <!-- 50% -->
      <g transform="translate(26.272813 254.844524) scale(0.1 -0.1)">
       <use xlink:href="#DejaVuSans-35"/>
       <use xlink:href="#DejaVuSans-30" transform="translate(63.623047 0)"/>
       <use xlink:href="#DejaVuSans-25" transform="translate(127.246094 0)"/>
      </g>
     </g>
    </g>
    <g id="ytick_5">
     <g id="line2d_15">
      <path d="M 55.499375 210.818619 
L 704.919375 210.818619 
" clip-path="url(#p121d213402)" style="fill: none; stroke: #e0dfd8; stroke-width: 0.7; stroke-linecap: square"/>
     </g>
     <g id="line2d_16">
      <g>
       <use xlink:href="#m20790598d4" x="55.499375" y="210.818619" style="stroke: #000000; stroke-width: 0.8"/>
      </g>
     </g>
     <g id="text_12">
      <!-- 60% -->
      <g transform="translate(26.272813 214.617838) scale(0.1 -0.1)">
       <defs>
        <path id="DejaVuSans-36" d="M 2113 2584 
Q 1688 2584 1439 2293 
Q 1191 2003 1191 1497 
Q 1191 994 1439 701 
Q 1688 409 2113 409 
Q 2538 409 2786 701 
Q 3034 994 3034 1497 
Q 3034 2003 2786 2293 
Q 2538 2584 2113 2584 
z
M 3366 4563 
L 3366 3988 
Q 3128 4100 2886 4159 
Q 2644 4219 2406 4219 
Q 1781 4219 1451 3797 
Q 1122 3375 1075 2522 
Q 1259 2794 1537 2939 
Q 1816 3084 2150 3084 
Q 2853 3084 3261 2657 
Q 3669 2231 3669 1497 
Q 3669 778 3244 343 
Q 2819 -91 2113 -91 
Q 1303 -91 875 529 
Q 447 1150 447 2328 
Q 447 3434 972 4092 
Q 1497 4750 2381 4750 
Q 2619 4750 2861 4703 
Q 3103 4656 3366 4563 
z
" transform="scale(0.015625)"/>
       </defs>
       <use xlink:href="#DejaVuSans-36"/>
       <use xlink:href="#DejaVuSans-30" transform="translate(63.623047 0)"/>
       <use xlink:href="#DejaVuSans-25" transform="translate(127.246094 0)"/>
      </g>
     </g>
    </g>
    <g id="ytick_6">
     <g id="line2d_17">
      <path d="M 55.499375 170.591933 
L 704.919375 170.591933 
" clip-path="url(#p121d213402)" style="fill: none; stroke: #e0dfd8; stroke-width: 0.7; stroke-linecap: square"/>
     </g>
     <g id="line2d_18">
      <g>
       <use xlink:href="#m20790598d4" x="55.499375" y="170.591933" style="stroke: #000000; stroke-width: 0.8"/>
      </g>
     </g>
     <g id="text_13">
      <!-- 70% -->
      <g transform="translate(26.272813 174.391152) scale(0.1 -0.1)">
       <defs>
        <path id="DejaVuSans-37" d="M 525 4666 
L 3525 4666 
L 3525 4397 
L 1831 0 
L 1172 0 
L 2766 4134 
L 525 4134 
L 525 4666 
z
" transform="scale(0.015625)"/>
       </defs>
       <use xlink:href="#DejaVuSans-37"/>
       <use xlink:href="#DejaVuSans-30" transform="translate(63.623047 0)"/>
       <use xlink:href="#DejaVuSans-25" transform="translate(127.246094 0)"/>
      </g>
     </g>
    </g>
    <g id="ytick_7">
     <g id="line2d_19">
      <path d="M 55.499375 130.365247 
L 704.919375 130.365247 
" clip-path="url(#p121d213402)" style="fill: none; stroke: #e0dfd8; stroke-width: 0.7; stroke-linecap: square"/>
     </g>
     <g id="line2d_20">
      <g>
       <use xlink:href="#m20790598d4" x="55.499375" y="130.365247" style="stroke: #000000; stroke-width: 0.8"/>
      </g>
     </g>
     <g id="text_14">
      <!-- 80% -->
      <g transform="translate(26.272813 134.164466) scale(0.1 -0.1)">
       <defs>
        <path id="DejaVuSans-38" d="M 2034 2216 
Q 1584 2216 1326 1975 
Q 1069 1734 1069 1313 
Q 1069 891 1326 650 
Q 1584 409 2034 409 
Q 2484 409 2743 651 
Q 3003 894 3003 1313 
Q 3003 1734 2745 1975 
Q 2488 2216 2034 2216 
z
M 1403 2484 
Q 997 2584 770 2862 
Q 544 3141 544 3541 
Q 544 4100 942 4425 
Q 1341 4750 2034 4750 
Q 2731 4750 3128 4425 
Q 3525 4100 3525 3541 
Q 3525 3141 3298 2862 
Q 3072 2584 2669 2484 
Q 3125 2378 3379 2068 
Q 3634 1759 3634 1313 
Q 3634 634 3220 271 
Q 2806 -91 2034 -91 
Q 1263 -91 848 271 
Q 434 634 434 1313 
Q 434 1759 690 2068 
Q 947 2378 1403 2484 
z
M 1172 3481 
Q 1172 3119 1398 2916 
Q 1625 2713 2034 2713 
Q 2441 2713 2670 2916 
Q 2900 3119 2900 3481 
Q 2900 3844 2670 4047 
Q 2441 4250 2034 4250 
Q 1625 4250 1398 4047 
Q 1172 3844 1172 3481 
z
" transform="scale(0.015625)"/>
       </defs>
       <use xlink:href="#DejaVuSans-38"/>
       <use xlink:href="#DejaVuSans-30" transform="translate(63.623047 0)"/>
       <use xlink:href="#DejaVuSans-25" transform="translate(127.246094 0)"/>
      </g>
     </g>
    </g>
    <g id="ytick_8">
     <g id="line2d_21">
      <path d="M 55.499375 90.138561 
L 704.919375 90.138561 
" clip-path="url(#p121d213402)" style="fill: none; stroke: #e0dfd8; stroke-width: 0.7; stroke-linecap: square"/>
     </g>
     <g id="line2d_22">
      <g>
       <use xlink:href="#m20790598d4" x="55.499375" y="90.138561" style="stroke: #000000; stroke-width: 0.8"/>
      </g>
     </g>
     <g id="text_15">
      <!-- 90% -->
      <g transform="translate(26.272813 93.93778) scale(0.1 -0.1)">
       <defs>
        <path id="DejaVuSans-39" d="M 703 97 
L 703 672 
Q 941 559 1184 500 
Q 1428 441 1663 441 
Q 2288 441 2617 861 
Q 2947 1281 2994 2138 
Q 2813 1869 2534 1725 
Q 2256 1581 1919 1581 
Q 1219 1581 811 2004 
Q 403 2428 403 3163 
Q 403 3881 828 4315 
Q 1253 4750 1959 4750 
Q 2769 4750 3195 4129 
Q 3622 3509 3622 2328 
Q 3622 1225 3098 567 
Q 2575 -91 1691 -91 
Q 1453 -91 1209 -44 
Q 966 3 703 97 
z
M 1959 2075 
Q 2384 2075 2632 2365 
Q 2881 2656 2881 3163 
Q 2881 3666 2632 3958 
Q 2384 4250 1959 4250 
Q 1534 4250 1286 3958 
Q 1038 3666 1038 3163 
Q 1038 2656 1286 2365 
Q 1534 2075 1959 2075 
z
" transform="scale(0.015625)"/>
       </defs>
       <use xlink:href="#DejaVuSans-39"/>
       <use xlink:href="#DejaVuSans-30" transform="translate(63.623047 0)"/>
       <use xlink:href="#DejaVuSans-25" transform="translate(127.246094 0)"/>
      </g>
     </g>
    </g>
    <g id="ytick_9">
     <g id="line2d_23">
      <path d="M 55.499375 49.911875 
L 704.919375 49.911875 
" clip-path="url(#p121d213402)" style="fill: none; stroke: #e0dfd8; stroke-width: 0.7; stroke-linecap: square"/>
     </g>
     <g id="line2d_24">
      <g>
       <use xlink:href="#m20790598d4" x="55.499375" y="49.911875" style="stroke: #000000; stroke-width: 0.8"/>
      </g>
     </g>
     <g id="text_16">
      <!-- 100% -->
      <g transform="translate(19.910312 53.711094) scale(0.1 -0.1)">
       <use xlink:href="#DejaVuSans-31"/>
       <use xlink:href="#DejaVuSans-30" transform="translate(63.623047 0)"/>
       <use xlink:href="#DejaVuSans-30" transform="translate(127.246094 0)"/>
       <use xlink:href="#DejaVuSans-25" transform="translate(190.869141 0)"/>
      </g>
     </g>
    </g>
    <g id="text_17">
     <!-- Value as % of rank-1 player -->
     <g style="fill: #888780" transform="translate(14.038594 272.194687) rotate(-90) scale(0.09 -0.09)">
      <defs>
       <path id="DejaVuSans-56" d="M 1831 0 
L 50 4666 
L 709 4666 
L 2188 738 
L 3669 4666 
L 4325 4666 
L 2547 0 
L 1831 0 
z
" transform="scale(0.015625)"/>
       <path id="DejaVuSans-66" d="M 2375 4863 
L 2375 4384 
L 1825 4384 
Q 1516 4384 1395 4259 
Q 1275 4134 1275 3809 
L 1275 3500 
L 2222 3500 
L 2222 3053 
L 1275 3053 
L 1275 0 
L 697 0 
L 697 3053 
L 147 3053 
L 147 3500 
L 697 3500 
L 697 3744 
Q 697 4328 969 4595 
Q 1241 4863 1831 4863 
L 2375 4863 
z
" transform="scale(0.015625)"/>
       <path id="DejaVuSans-2d" d="M 313 2009 
L 1997 2009 
L 1997 1497 
L 313 1497 
L 313 2009 
z
" transform="scale(0.015625)"/>
      </defs>
      <use xlink:href="#DejaVuSans-56"/>
      <use xlink:href="#DejaVuSans-61" transform="translate(60.658203 0)"/>
      <use xlink:href="#DejaVuSans-6c" transform="translate(121.9375 0)"/>
      <use xlink:href="#DejaVuSans-75" transform="translate(149.720703 0)"/>
      <use xlink:href="#DejaVuSans-65" transform="translate(213.099609 0)"/>
      <use xlink:href="#DejaVuSans-20" transform="translate(274.623047 0)"/>
      <use xlink:href="#DejaVuSans-61" transform="translate(306.410156 0)"/>
      <use xlink:href="#DejaVuSans-73" transform="translate(367.689453 0)"/>
      <use xlink:href="#DejaVuSans-20" transform="translate(419.789062 0)"/>
      <use xlink:href="#DejaVuSans-25" transform="translate(451.576172 0)"/>
      <use xlink:href="#DejaVuSans-20" transform="translate(546.595703 0)"/>
      <use xlink:href="#DejaVuSans-6f" transform="translate(578.382812 0)"/>
      <use xlink:href="#DejaVuSans-66" transform="translate(639.564453 0)"/>
      <use xlink:href="#DejaVuSans-20" transform="translate(674.769531 0)"/>
      <use xlink:href="#DejaVuSans-72" transform="translate(706.556641 0)"/>
      <use xlink:href="#DejaVuSans-61" transform="translate(747.669922 0)"/>
      <use xlink:href="#DejaVuSans-6e" transform="translate(808.949219 0)"/>
      <use xlink:href="#DejaVuSans-6b" transform="translate(872.328125 0)"/>
      <use xlink:href="#DejaVuSans-2d" transform="translate(930.238281 0)"/>
      <use xlink:href="#DejaVuSans-31" transform="translate(966.322266 0)"/>
      <use xlink:href="#DejaVuSans-20" transform="translate(1029.945312 0)"/>
      <use xlink:href="#DejaVuSans-70" transform="translate(1061.732422 0)"/>
      <use xlink:href="#DejaVuSans-6c" transform="translate(1125.208984 0)"/>
      <use xlink:href="#DejaVuSans-61" transform="translate(1152.992188 0)"/>
      <use xlink:href="#DejaVuSans-79" transform="translate(1214.271484 0)"/>
      <use xlink:href="#DejaVuSans-65" transform="translate(1273.451172 0)"/>
      <use xlink:href="#DejaVuSans-72" transform="translate(1334.974609 0)"/>
     </g>
    </g>
   </g>
   <g id="line2d_25">
    <path d="M 85.018466 49.911875 
L 97.067074 81.365272 
L 109.115683 81.664357 
L 121.164292 118.281033 
L 133.2129 136.87333 
L 145.261509 138.21457 
L 157.310117 142.543858 
L 169.358726 158.413322 
L 181.407334 162.506495 
L 193.455943 162.725539 
L 205.504551 162.793454 
L 217.55316 169.186657 
L 229.601768 172.271552 
L 241.650377 172.84623 
L 253.698985 175.416172 
L 265.747594 175.88548 
L 277.796202 181.280429 
L 289.844811 183.319564 
L 301.89342 183.7646 
L 313.942028 186.536888 
L 325.990637 189.445483 
L 338.039245 193.442107 
L 350.087854 193.71455 
L 362.136462 195.281773 
L 374.185071 199.102199 
L 386.233679 203.398324 
L 398.282288 204.210016 
L 410.330896 207.003536 
L 422.379505 209.098393 
L 434.428113 209.759032 
L 446.476722 210.175579 
L 458.52533 210.681978 
L 470.573939 211.510571 
L 482.622548 211.895118 
L 494.671156 213.034734 
L 506.719765 213.210059 
L 518.768373 216.925519 
L 530.816982 217.295144 
L 542.86559 221.672289 
L 554.914199 222.799016 
L 566.962807 223.033297 
L 579.011416 225.476352 
L 591.060024 227.282239 
L 603.108633 233.537506 
L 615.157241 235.303615 
L 627.20585 237.058825 
L 639.254458 237.835325 
L 651.303067 238.600381 
L 663.351676 238.675021 
L 675.400284 241.763072 
" clip-path="url(#p121d213402)" style="fill: none; stroke: #2196f3; stroke-opacity: 0.85; stroke-width: 1.8; stroke-linecap: square"/>
   </g>
   <g id="line2d_26">
    <path d="M 85.018466 49.911875 
L 97.067074 62.749423 
L 109.115683 64.155854 
L 121.164292 75.555465 
L 133.2129 93.094951 
L 145.261509 103.594342 
L 157.310117 119.818042 
L 169.358726 149.758648 
L 181.407334 152.427384 
L 193.455943 159.324918 
L 205.504551 160.956077 
L 217.55316 161.26579 
L 229.601768 163.850717 
L 241.650377 169.517997 
L 253.698985 170.105401 
L 265.747594 170.436875 
L 277.796202 170.950998 
L 289.844811 171.139331 
L 301.89342 171.935233 
L 313.942028 174.041434 
L 325.990637 178.082609 
L 338.039245 179.181373 
L 350.087854 180.189688 
L 362.136462 181.435547 
L 374.185071 182.591618 
L 386.233679 183.006381 
L 398.282288 184.563215 
L 410.330896 184.731162 
L 422.379505 187.096912 
L 434.428113 188.40024 
L 446.476722 188.560032 
L 458.52533 191.545403 
L 470.573939 192.151376 
L 482.622548 192.837502 
L 494.671156 192.914194 
L 506.719765 193.458262 
L 518.768373 193.666445 
L 530.816982 194.152745 
L 542.86559 194.264529 
L 554.914199 194.426029 
L 566.962807 195.564616 
L 579.011416 196.924647 
L 591.060024 200.451647 
L 603.108633 201.191625 
L 615.157241 201.989788 
L 627.20585 203.880742 
L 639.254458 205.587846 
L 651.303067 205.696696 
L 663.351676 207.722942 
L 675.400284 208.419547 
" clip-path="url(#p121d213402)" style="fill: none; stroke: #f44336; stroke-opacity: 0.85; stroke-width: 1.8; stroke-linecap: square"/>
   </g>
   <g id="line2d_27">
    <path d="M 85.018466 49.911875 
L 97.067074 114.505878 
L 109.115683 121.119089 
L 121.164292 153.978255 
L 133.2129 157.999175 
L 145.261509 167.359681 
L 157.310117 175.270073 
L 169.358726 178.820353 
L 181.407334 182.733826 
L 193.455943 183.729957 
L 205.504551 187.075436 
L 217.55316 188.869495 
L 229.601768 209.921413 
L 241.650377 212.275884 
L 253.698985 227.640346 
L 265.747594 228.209053 
L 277.796202 231.756286 
L 289.844811 237.256977 
L 301.89342 239.161049 
L 313.942028 240.857984 
L 325.990637 241.042129 
L 338.039245 241.644888 
L 350.087854 242.483357 
L 362.136462 244.858303 
L 374.185071 245.953093 
L 386.233679 248.192246 
L 398.282288 248.360509 
L 410.330896 250.629651 
L 422.379505 252.110519 
L 434.428113 252.167683 
L 446.476722 257.691816 
L 458.52533 260.051952 
L 470.573939 260.218531 
L 482.622548 260.306624 
L 494.671156 260.663381 
L 506.719765 261.00641 
L 518.768373 261.067424 
L 530.816982 262.220022 
L 542.86559 266.590594 
L 554.914199 266.987578 
L 566.962807 267.01035 
L 579.011416 268.186539 
L 591.060024 269.436304 
L 603.108633 270.735124 
L 615.157241 272.300378 
L 627.20585 273.348586 
L 639.254458 276.292488 
L 651.303067 276.376625 
L 663.351676 276.463073 
L 675.400284 276.806786 
" clip-path="url(#p121d213402)" style="fill: none; stroke: #4caf50; stroke-opacity: 0.85; stroke-width: 1.8; stroke-linecap: square"/>
   </g>
   <g id="line2d_28">
    <path d="M 85.018466 49.911875 
L 97.067074 71.476065 
L 109.115683 103.944304 
L 121.164292 112.173731 
L 133.2129 113.24328 
L 145.261509 122.174066 
L 157.310117 123.040089 
L 169.358726 125.103978 
L 181.407334 132.919134 
L 193.455943 133.047098 
L 205.504551 134.016218 
L 217.55316 137.29336 
L 229.601768 137.90827 
L 241.650377 139.618621 
L 253.698985 143.082011 
L 265.747594 150.334777 
L 277.796202 157.17717 
L 289.844811 157.788176 
L 301.89342 167.934725 
L 313.942028 171.218328 
L 325.990637 185.599406 
L 338.039245 185.768081 
L 350.087854 192.79754 
L 362.136462 195.063854 
L 374.185071 195.673852 
L 386.233679 197.297937 
L 398.282288 200.158197 
L 410.330896 200.437834 
L 422.379505 201.634596 
L 434.428113 202.191897 
L 446.476722 204.349736 
L 458.52533 206.685694 
L 470.573939 206.829406 
L 482.622548 207.090358 
L 494.671156 207.468147 
L 506.719765 208.181883 
L 518.768373 208.512481 
L 530.816982 213.325774 
L 542.86559 215.394211 
L 554.914199 218.391229 
L 566.962807 219.030308 
L 579.011416 219.204348 
L 591.060024 220.52374 
L 603.108633 220.618962 
L 615.157241 220.715409 
L 627.20585 222.171495 
L 639.254458 222.954361 
L 651.303067 226.108715 
L 663.351676 227.291018 
L 675.400284 227.341198 
" clip-path="url(#p121d213402)" style="fill: none; stroke: #ff9800; stroke-opacity: 0.85; stroke-width: 1.8; stroke-linecap: square"/>
   </g>
   <g id="line2d_29">
    <path d="M 85.018466 49.911875 
L 97.067074 84.567802 
L 109.115683 101.836063 
L 121.164292 140.380863 
L 133.2129 172.201713 
L 145.261509 180.977759 
L 157.310117 207.416832 
L 169.358726 245.734968 
L 181.407334 265.934418 
L 193.455943 266.341797 
L 205.504551 270.628898 
L 217.55316 276.063516 
L 229.601768 291.277957 
L 241.650377 297.816601 
L 253.698985 302.092312 
L 265.747594 306.314129 
L 277.796202 310.179583 
L 289.844811 310.183434 
L 301.89342 311.490951 
L 313.942028 311.652689 
L 325.990637 311.786076 
L 338.039245 315.182804 
L 350.087854 316.333904 
L 362.136462 319.893766 
L 374.185071 325.083554 
L 386.233679 325.802421 
L 398.282288 327.144428 
L 410.330896 328.277862 
L 422.379505 332.515708 
L 434.428113 333.572655 
L 446.476722 334.869647 
L 458.52533 335.32402 
L 470.573939 336.973428 
L 482.622548 338.830481 
L 494.671156 339.613186 
L 506.719765 340.230561 
L 518.768373 343.995802 
L 530.816982 346.158783 
L 542.86559 347.422597 
L 554.914199 349.886065 
L 566.962807 350.518497 
L 579.011416 351.250349 
L 591.060024 352.576834 
L 603.108633 355.843873 
L 615.157241 356.496043 
L 627.20585 358.774753 
L 639.254458 359.110751 
L 651.303067 360.311467 
L 663.351676 360.600694 
L 675.400284 360.892245 
" clip-path="url(#p121d213402)" style="fill: none; stroke: #9c27b0; stroke-opacity: 0.85; stroke-width: 1.8; stroke-linecap: square"/>
   </g>
   <g id="line2d_30">
    <path d="M 85.018466 49.911875 
L 97.067074 63.260707 
L 109.115683 94.979957 
L 121.164292 161.786659 
L 133.2129 192.492821 
L 145.261509 237.475287 
L 157.310117 251.083937 
L 169.358726 253.528971 
L 181.407334 255.30352 
L 193.455943 260.821243 
L 205.504551 271.382757 
L 217.55316 283.492971 
L 229.601768 290.095522 
L 241.650377 290.995082 
L 253.698985 293.101487 
L 265.747594 294.26986 
L 277.796202 295.717102 
L 289.844811 303.395965 
L 301.89342 306.498763 
L 313.942028 308.636794 
L 325.990637 309.30329 
L 338.039245 309.862589 
L 350.087854 312.274851 
L 362.136462 318.224881 
L 374.185071 321.941929 
L 386.233679 325.037823 
L 398.282288 328.113624 
L 410.330896 329.375955 
L 422.379505 330.756313 
L 434.428113 332.642831 
L 446.476722 334.483284 
L 458.52533 338.52314 
L 470.573939 338.859262 
L 482.622548 339.737441 
L 494.671156 341.383335 
L 506.719765 342.69309 
L 518.768373 343.053507 
L 530.816982 345.936941 
L 542.86559 346.436617 
L 554.914199 354.240671 
L 566.962807 358.915206 
L 579.011416 359.608298 
L 591.060024 361.834087 
L 603.108633 362.542361 
L 615.157241 363.471929 
L 627.20585 365.444323 
L 639.254458 367.619425 
L 651.303067 367.791989 
L 663.351676 367.851432 
L 675.400284 368.015126 
" clip-path="url(#p121d213402)" style="fill: none; stroke: #00bcd4; stroke-opacity: 0.85; stroke-width: 1.8; stroke-linecap: square"/>
   </g>
   <g id="line2d_31">
    <path d="M 85.018466 49.911875 
L 97.067074 72.952862 
L 109.115683 85.750334 
L 121.164292 138.487151 
L 133.2129 147.930251 
L 145.261509 148.509297 
L 157.310117 161.704984 
L 169.358726 175.899585 
L 181.407334 186.111199 
L 193.455943 208.682044 
L 205.504551 219.716307 
L 217.55316 221.732959 
L 229.601768 235.103483 
L 241.650377 236.674849 
L 253.698985 248.682924 
L 265.747594 255.285132 
L 277.796202 258.979386 
L 289.844811 259.405484 
L 301.89342 265.356188 
L 313.942028 267.193207 
L 325.990637 277.704344 
L 338.039245 280.58299 
L 350.087854 287.020921 
L 362.136462 287.309952 
L 374.185071 290.056094 
L 386.233679 292.86201 
L 398.282288 297.737601 
L 410.330896 298.705256 
L 422.379505 298.899939 
L 434.428113 299.686069 
L 446.476722 304.343007 
L 458.52533 308.361202 
L 470.573939 308.733182 
L 482.622548 310.276128 
L 494.671156 310.398053 
L 506.719765 311.10226 
L 518.768373 311.573862 
L 530.816982 313.328872 
L 542.86559 316.40318 
L 554.914199 317.769076 
L 566.962807 318.538991 
L 579.011416 318.623616 
L 591.060024 319.84587 
L 603.108633 320.141352 
L 615.157241 320.289227 
L 627.20585 324.468962 
L 639.254458 325.353621 
L 651.303067 326.840877 
L 663.351676 326.993384 
L 675.400284 327.991653 
" clip-path="url(#p121d213402)" style="fill: none; stroke: #795548; stroke-opacity: 0.85; stroke-width: 1.8; stroke-linecap: square"/>
   </g>
   <g id="line2d_32">
    <path d="M 85.018466 49.911875 
L 97.067074 80.380369 
L 109.115683 150.867696 
L 121.164292 184.2432 
L 133.2129 184.584443 
L 145.261509 227.440966 
L 157.310117 230.457334 
L 169.358726 232.481165 
L 181.407334 242.757052 
L 193.455943 244.856516 
L 205.504551 246.642246 
L 217.55316 257.938342 
L 229.601768 258.576699 
L 241.650377 265.335183 
L 253.698985 267.233441 
L 265.747594 272.255169 
L 277.796202 272.395788 
L 289.844811 280.946811 
L 301.89342 282.717644 
L 313.942028 287.876458 
L 325.990637 289.694236 
L 338.039245 289.882536 
L 350.087854 303.510044 
L 362.136462 307.415717 
L 374.185071 309.106428 
L 386.233679 314.278212 
L 398.282288 314.395456 
L 410.330896 316.326861 
L 422.379505 317.406153 
L 434.428113 318.238935 
L 446.476722 319.462902 
L 458.52533 323.591299 
L 470.573939 324.445139 
L 482.622548 324.524474 
L 494.671156 326.114195 
L 506.719765 326.379706 
L 518.768373 329.102641 
L 530.816982 334.547317 
L 542.86559 337.570118 
L 554.914199 338.870716 
L 566.962807 339.525217 
L 579.011416 339.823002 
L 591.060024 340.074967 
L 603.108633 341.729601 
L 615.157241 344.119604 
L 627.20585 344.290664 
L 639.254458 344.874909 
L 651.303067 345.414681 
L 663.351676 345.522945 
L 675.400284 346.477445 
" clip-path="url(#p121d213402)" style="fill: none; stroke: #607d8b; stroke-opacity: 0.85; stroke-width: 1.8; stroke-linecap: square"/>
   </g>
   <g id="line2d_33">
    <path d="M 85.018466 49.911875 
L 97.067074 81.903786 
L 109.115683 95.262644 
L 121.164292 98.331328 
L 133.2129 117.807697 
L 145.261509 131.658288 
L 157.310117 158.538714 
L 169.358726 174.633335 
L 181.407334 175.48702 
L 193.455943 183.082702 
L 205.504551 187.995938 
L 217.55316 191.17734 
L 229.601768 201.170407 
L 241.650377 210.235976 
L 253.698985 211.471516 
L 265.747594 212.179876 
L 277.796202 217.695448 
L 289.844811 220.487097 
L 301.89342 225.341582 
L 313.942028 226.986215 
L 325.990637 231.034827 
L 338.039245 231.232837 
L 350.087854 234.316393 
L 362.136462 237.055147 
L 374.185071 238.462578 
L 386.233679 239.484769 
L 398.282288 244.2497 
L 410.330896 252.931985 
L 422.379505 252.986854 
L 434.428113 254.893069 
L 446.476722 257.517275 
L 458.52533 258.188864 
L 470.573939 258.404359 
L 482.622548 262.131356 
L 494.671156 263.243459 
L 506.719765 265.643372 
L 518.768373 266.755858 
L 530.816982 267.244632 
L 542.86559 270.826734 
L 554.914199 273.459207 
L 566.962807 273.485547 
L 579.011416 275.778471 
L 591.060024 279.836093 
L 603.108633 280.772093 
L 615.157241 281.663052 
L 627.20585 281.944288 
L 639.254458 290.427716 
L 651.303067 290.663686 
L 663.351676 291.498238 
L 675.400284 291.949627 
" clip-path="url(#p121d213402)" style="fill: none; stroke: #2196f3; stroke-opacity: 0.85; stroke-width: 1.8; stroke-linecap: square"/>
   </g>
   <g id="line2d_34">
    <path d="M 85.018466 49.911875 
L 97.067074 99.554971 
L 109.115683 108.408743 
L 121.164292 130.559277 
L 133.2129 153.070621 
L 145.261509 158.237183 
L 157.310117 165.877739 
L 169.358726 176.93244 
L 181.407334 201.670987 
L 193.455943 204.89565 
L 205.504551 206.596474 
L 217.55316 209.83279 
L 229.601768 221.618708 
L 241.650377 224.285303 
L 253.698985 229.473004 
L 265.747594 236.90463 
L 277.796202 241.987562 
L 289.844811 242.537269 
L 301.89342 242.613404 
L 313.942028 254.335078 
L 325.990637 264.582796 
L 338.039245 264.691745 
L 350.087854 265.608717 
L 362.136462 269.517227 
L 374.185071 272.335746 
L 386.233679 274.858974 
L 398.282288 278.239556 
L 410.330896 279.119328 
L 422.379505 281.793038 
L 434.428113 283.38306 
L 446.476722 284.095314 
L 458.52533 285.718681 
L 470.573939 287.42258 
L 482.622548 293.059649 
L 494.671156 295.321128 
L 506.719765 301.392413 
L 518.768373 302.159987 
L 530.816982 303.10725 
L 542.86559 304.32744 
L 554.914199 306.352166 
L 566.962807 307.768594 
L 579.011416 307.835361 
L 591.060024 309.5022 
L 603.108633 311.895923 
L 615.157241 314.786547 
L 627.20585 314.893082 
L 639.254458 315.183422 
L 651.303067 315.524826 
L 663.351676 315.925068 
L 675.400284 317.21209 
" clip-path="url(#p121d213402)" style="fill: none; stroke: #f44336; stroke-opacity: 0.85; stroke-width: 1.8; stroke-linecap: square"/>
   </g>
   <g id="line2d_35">
    <path d="M 85.018466 49.911875 
L 97.067074 72.749055 
L 109.115683 151.031763 
L 121.164292 183.187892 
L 133.2129 192.901852 
L 145.261509 209.260465 
L 157.310117 233.902948 
L 169.358726 233.951409 
L 181.407334 241.447423 
L 193.455943 245.878101 
L 205.504551 249.491916 
L 217.55316 254.129116 
L 229.601768 258.073796 
L 241.650377 258.360572 
L 253.698985 263.368894 
L 265.747594 266.403661 
L 277.796202 268.456205 
L 289.844811 276.959737 
L 301.89342 277.066107 
L 313.942028 279.864124 
L 325.990637 281.909889 
L 338.039245 287.363097 
L 350.087854 291.691567 
L 362.136462 298.680934 
L 374.185071 299.60578 
L 386.233679 301.096697 
L 398.282288 302.35344 
L 410.330896 303.621507 
L 422.379505 304.3015 
L 434.428113 304.310937 
L 446.476722 304.74042 
L 458.52533 305.356235 
L 470.573939 305.554924 
L 482.622548 306.324628 
L 494.671156 308.981845 
L 506.719765 309.047236 
L 518.768373 309.980908 
L 530.816982 312.824869 
L 542.86559 317.105288 
L 554.914199 317.422042 
L 566.962807 318.124259 
L 579.011416 321.435924 
L 591.060024 321.852569 
L 603.108633 321.905132 
L 615.157241 322.462938 
L 627.20585 323.654462 
L 639.254458 326.064528 
L 651.303067 327.33068 
L 663.351676 330.269999 
L 675.400284 332.460857 
" clip-path="url(#p121d213402)" style="fill: none; stroke: #4caf50; stroke-opacity: 0.85; stroke-width: 1.8; stroke-linecap: square"/>
   </g>
   <g id="line2d_36">
    <path d="M 85.018466 49.911875 
L 97.067074 55.12201 
L 109.115683 83.371285 
L 121.164292 113.800896 
L 133.2129 155.449854 
L 145.261509 157.213976 
L 157.310117 222.057503 
L 169.358726 244.948665 
L 181.407334 250.91591 
L 193.455943 252.997413 
L 205.504551 264.291305 
L 217.55316 272.02789 
L 229.601768 281.847402 
L 241.650377 282.849229 
L 253.698985 287.543832 
L 265.747594 288.702927 
L 277.796202 295.688299 
L 289.844811 298.857386 
L 301.89342 305.10478 
L 313.942028 305.996538 
L 325.990637 310.245869 
L 338.039245 311.512716 
L 350.087854 317.368576 
L 362.136462 318.067692 
L 374.185071 321.057338 
L 386.233679 323.049638 
L 398.282288 323.619633 
L 410.330896 324.220644 
L 422.379505 324.689261 
L 434.428113 324.840495 
L 446.476722 328.872498 
L 458.52533 329.201578 
L 470.573939 329.649372 
L 482.622548 332.231939 
L 494.671156 333.302555 
L 506.719765 334.056984 
L 518.768373 334.401746 
L 530.816982 336.100987 
L 542.86559 336.533263 
L 554.914199 338.041541 
L 566.962807 338.744368 
L 579.011416 339.80104 
L 591.060024 340.143489 
L 603.108633 341.948471 
L 615.157241 346.479516 
L 627.20585 347.173393 
L 639.254458 347.718876 
L 651.303067 349.344084 
L 663.351676 349.473944 
L 675.400284 349.865043 
" clip-path="url(#p121d213402)" style="fill: none; stroke: #ff9800; stroke-opacity: 0.85; stroke-width: 1.8; stroke-linecap: square"/>
   </g>
   <g id="line2d_37">
    <path d="M 85.018466 49.911875 
L 97.067074 105.967051 
L 109.115683 110.326399 
L 121.164292 166.739018 
L 133.2129 187.324893 
L 145.261509 195.77052 
L 157.310117 264.433062 
L 169.358726 266.401573 
L 181.407334 284.60261 
L 193.455943 287.919389 
L 205.504551 296.23159 
L 217.55316 297.233943 
L 229.601768 302.660348 
L 241.650377 304.155558 
L 253.698985 304.359292 
L 265.747594 309.042663 
L 277.796202 309.926946 
L 289.844811 310.706508 
L 301.89342 317.564761 
L 313.942028 321.359448 
L 325.990637 322.699496 
L 338.039245 323.982604 
L 350.087854 326.660317 
L 362.136462 327.718877 
L 374.185071 327.741947 
L 386.233679 329.04154 
L 398.282288 332.460235 
L 410.330896 332.588671 
L 422.379505 334.683653 
L 434.428113 335.698433 
L 446.476722 336.495469 
L 458.52533 336.968094 
L 470.573939 339.279031 
L 482.622548 340.049615 
L 494.671156 341.474337 
L 506.719765 343.94013 
L 518.768373 345.854484 
L 530.816982 347.140119 
L 542.86559 350.898116 
L 554.914199 352.477077 
L 566.962807 353.464347 
L 579.011416 353.563326 
L 591.060024 353.92968 
L 603.108633 355.403487 
L 615.157241 356.163884 
L 627.20585 356.896164 
L 639.254458 363.956856 
L 651.303067 364.603726 
L 663.351676 365.816532 
L 675.400284 370.631875 
" clip-path="url(#p121d213402)" style="fill: none; stroke: #9c27b0; stroke-opacity: 0.85; stroke-width: 1.8; stroke-linecap: square"/>
   </g>
   <g id="line2d_38">
    <path d="M 85.018466 49.911875 
L 97.067074 172.08156 
L 109.115683 178.044799 
L 121.164292 207.152139 
L 133.2129 210.68825 
L 145.261509 228.968288 
L 157.310117 236.177257 
L 169.358726 238.154275 
L 181.407334 242.827482 
L 193.455943 243.189824 
L 205.504551 248.076804 
L 217.55316 249.66166 
L 229.601768 253.52591 
L 241.650377 262.842141 
L 253.698985 264.048841 
L 265.747594 270.133628 
L 277.796202 270.842208 
L 289.844811 271.651795 
L 301.89342 274.174053 
L 313.942028 275.09024 
L 325.990637 276.247324 
L 338.039245 277.094144 
L 350.087854 279.07137 
L 362.136462 281.630812 
L 374.185071 287.411153 
L 386.233679 288.692175 
L 398.282288 296.953771 
L 410.330896 297.38711 
L 422.379505 301.288454 
L 434.428113 305.789633 
L 446.476722 312.15187 
L 458.52533 313.090843 
L 470.573939 316.732186 
L 482.622548 321.247655 
L 494.671156 321.710373 
L 506.719765 323.289754 
L 518.768373 326.431311 
L 530.816982 326.574045 
L 542.86559 329.657426 
L 554.914199 331.074926 
L 566.962807 333.129747 
L 579.011416 333.397248 
L 591.060024 334.052895 
L 603.108633 334.109636 
L 615.157241 334.301117 
L 627.20585 338.656253 
L 639.254458 339.645228 
L 651.303067 340.427033 
L 663.351676 341.393742 
L 675.400284 341.78764 
" clip-path="url(#p121d213402)" style="fill: none; stroke: #00bcd4; stroke-opacity: 0.85; stroke-width: 1.8; stroke-linecap: square"/>
   </g>
   <g id="patch_3">
    <path d="M 55.499375 386.667875 
L 55.499375 33.875875 
" style="fill: none; stroke: #000000; stroke-width: 0.8; stroke-linejoin: miter; stroke-linecap: square"/>
   </g>
   <g id="patch_4">
    <path d="M 55.499375 386.667875 
L 704.919375 386.667875 
" style="fill: none; stroke: #000000; stroke-width: 0.8; stroke-linejoin: miter; stroke-linecap: square"/>
   </g>
   <g id="text_18">
    <!-- Cumulative metrics (Win Shares, VORP) plunge steeply; -->
    <g style="fill: #222222" transform="translate(226.734453 15.558281) scale(0.11 -0.11)">
     <defs>
      <path id="DejaVuSans-43" d="M 4122 4306 
L 4122 3641 
Q 3803 3938 3442 4084 
Q 3081 4231 2675 4231 
Q 1875 4231 1450 3742 
Q 1025 3253 1025 2328 
Q 1025 1406 1450 917 
Q 1875 428 2675 428 
Q 3081 428 3442 575 
Q 3803 722 4122 1019 
L 4122 359 
Q 3791 134 3420 21 
Q 3050 -91 2638 -91 
Q 1578 -91 968 557 
Q 359 1206 359 2328 
Q 359 3453 968 4101 
Q 1578 4750 2638 4750 
Q 3056 4750 3426 4639 
Q 3797 4528 4122 4306 
z
" transform="scale(0.015625)"/>
      <path id="DejaVuSans-6d" d="M 3328 2828 
Q 3544 3216 3844 3400 
Q 4144 3584 4550 3584 
Q 5097 3584 5394 3201 
Q 5691 2819 5691 2113 
L 5691 0 
L 5113 0 
L 5113 2094 
Q 5113 2597 4934 2840 
Q 4756 3084 4391 3084 
Q 3944 3084 3684 2787 
Q 3425 2491 3425 1978 
L 3425 0 
L 2847 0 
L 2847 2094 
Q 2847 2600 2669 2842 
Q 2491 3084 2119 3084 
Q 1678 3084 1418 2786 
Q 1159 2488 1159 1978 
L 1159 0 
L 581 0 
L 581 3500 
L 1159 3500 
L 1159 2956 
Q 1356 3278 1631 3431 
Q 1906 3584 2284 3584 
Q 2666 3584 2933 3390 
Q 3200 3197 3328 2828 
z
" transform="scale(0.015625)"/>
      <path id="DejaVuSans-69" d="M 603 3500 
L 1178 3500 
L 1178 0 
L 603 0 
L 603 3500 
z
M 603 4863 
L 1178 4863 
L 1178 4134 
L 603 4134 
L 603 4863 
z
" transform="scale(0.015625)"/>
      <path id="DejaVuSans-76" d="M 191 3500 
L 800 3500 
L 1894 563 
L 2988 3500 
L 3597 3500 
L 2284 0 
L 1503 0 
L 191 3500 
z
" transform="scale(0.015625)"/>
      <path id="DejaVuSans-63" d="M 3122 3366 
L 3122 2828 
Q 2878 2963 2633 3030 
Q 2388 3097 2138 3097 
Q 1578 3097 1268 2742 
Q 959 2388 959 1747 
Q 959 1106 1268 751 
Q 1578 397 2138 397 
Q 2388 397 2633 464 
Q 2878 531 3122 666 
L 3122 134 
Q 2881 22 2623 -34 
Q 2366 -91 2075 -91 
Q 1284 -91 818 406 
Q 353 903 353 1747 
Q 353 2603 823 3093 
Q 1294 3584 2113 3584 
Q 2378 3584 2631 3529 
Q 2884 3475 3122 3366 
z
" transform="scale(0.015625)"/>
      <path id="DejaVuSans-57" d="M 213 4666 
L 850 4666 
L 1831 722 
L 2809 4666 
L 3519 4666 
L 4500 722 
L 5478 4666 
L 6119 4666 
L 4947 0 
L 4153 0 
L 3169 4050 
L 2175 0 
L 1381 0 
L 213 4666 
z
" transform="scale(0.015625)"/>
      <path id="DejaVuSans-53" d="M 3425 4513 
L 3425 3897 
Q 3066 4069 2747 4153 
Q 2428 4238 2131 4238 
Q 1616 4238 1336 4038 
Q 1056 3838 1056 3469 
Q 1056 3159 1242 3001 
Q 1428 2844 1947 2747 
L 2328 2669 
Q 3034 2534 3370 2195 
Q 3706 1856 3706 1288 
Q 3706 609 3251 259 
Q 2797 -91 1919 -91 
Q 1588 -91 1214 -16 
Q 841 59 441 206 
L 441 856 
Q 825 641 1194 531 
Q 1563 422 1919 422 
Q 2459 422 2753 634 
Q 3047 847 3047 1241 
Q 3047 1584 2836 1778 
Q 2625 1972 2144 2069 
L 1759 2144 
Q 1053 2284 737 2584 
Q 422 2884 422 3419 
Q 422 4038 858 4394 
Q 1294 4750 2059 4750 
Q 2388 4750 2728 4690 
Q 3069 4631 3425 4513 
z
" transform="scale(0.015625)"/>
      <path id="DejaVuSans-68" d="M 3513 2113 
L 3513 0 
L 2938 0 
L 2938 2094 
Q 2938 2591 2744 2837 
Q 2550 3084 2163 3084 
Q 1697 3084 1428 2787 
Q 1159 2491 1159 1978 
L 1159 0 
L 581 0 
L 581 4863 
L 1159 4863 
L 1159 2956 
Q 1366 3272 1645 3428 
Q 1925 3584 2291 3584 
Q 2894 3584 3203 3211 
Q 3513 2838 3513 2113 
z
" transform="scale(0.015625)"/>
      <path id="DejaVuSans-4f" d="M 2522 4238 
Q 1834 4238 1429 3725 
Q 1025 3213 1025 2328 
Q 1025 1447 1429 934 
Q 1834 422 2522 422 
Q 3209 422 3611 934 
Q 4013 1447 4013 2328 
Q 4013 3213 3611 3725 
Q 3209 4238 2522 4238 
z
M 2522 4750 
Q 3503 4750 4090 4092 
Q 4678 3434 4678 2328 
Q 4678 1225 4090 567 
Q 3503 -91 2522 -91 
Q 1538 -91 948 565 
Q 359 1222 359 2328 
Q 359 3434 948 4092 
Q 1538 4750 2522 4750 
z
" transform="scale(0.015625)"/>
      <path id="DejaVuSans-52" d="M 2841 2188 
Q 3044 2119 3236 1894 
Q 3428 1669 3622 1275 
L 4263 0 
L 3584 0 
L 2988 1197 
Q 2756 1666 2539 1819 
Q 2322 1972 1947 1972 
L 1259 1972 
L 1259 0 
L 628 0 
L 628 4666 
L 2053 4666 
Q 2853 4666 3247 4331 
Q 3641 3997 3641 3322 
Q 3641 2881 3436 2590 
Q 3231 2300 2841 2188 
z
M 1259 4147 
L 1259 2491 
L 2053 2491 
Q 2509 2491 2742 2702 
Q 2975 2913 2975 3322 
Q 2975 3731 2742 3939 
Q 2509 4147 2053 4147 
L 1259 4147 
z
" transform="scale(0.015625)"/>
      <path id="DejaVuSans-67" d="M 2906 1791 
Q 2906 2416 2648 2759 
Q 2391 3103 1925 3103 
Q 1463 3103 1205 2759 
Q 947 2416 947 1791 
Q 947 1169 1205 825 
Q 1463 481 1925 481 
Q 2391 481 2648 825 
Q 2906 1169 2906 1791 
z
M 3481 434 
Q 3481 -459 3084 -895 
Q 2688 -1331 1869 -1331 
Q 1566 -1331 1297 -1286 
Q 1028 -1241 775 -1147 
L 775 -588 
Q 1028 -725 1275 -790 
Q 1522 -856 1778 -856 
Q 2344 -856 2625 -561 
Q 2906 -266 2906 331 
L 2906 616 
Q 2728 306 2450 153 
Q 2172 0 1784 0 
Q 1141 0 747 490 
Q 353 981 353 1791 
Q 353 2603 747 3093 
Q 1141 3584 1784 3584 
Q 2172 3584 2450 3431 
Q 2728 3278 2906 2969 
L 2906 3500 
L 3481 3500 
L 3481 434 
z
" transform="scale(0.015625)"/>
      <path id="DejaVuSans-3b" d="M 750 3309 
L 1409 3309 
L 1409 2516 
L 750 2516 
L 750 3309 
z
M 750 794 
L 1409 794 
L 1409 256 
L 897 -744 
L 494 -744 
L 750 256 
L 750 794 
z
" transform="scale(0.015625)"/>
     </defs>
     <use xlink:href="#DejaVuSans-43"/>
     <use xlink:href="#DejaVuSans-75" transform="translate(69.824219 0)"/>
     <use xlink:href="#DejaVuSans-6d" transform="translate(133.203125 0)"/>
     <use xlink:href="#DejaVuSans-75" transform="translate(230.615234 0)"/>
     <use xlink:href="#DejaVuSans-6c" transform="translate(293.994141 0)"/>
     <use xlink:href="#DejaVuSans-61" transform="translate(321.777344 0)"/>
     <use xlink:href="#DejaVuSans-74" transform="translate(383.056641 0)"/>
     <use xlink:href="#DejaVuSans-69" transform="translate(422.265625 0)"/>
     <use xlink:href="#DejaVuSans-76" transform="translate(450.048828 0)"/>
     <use xlink:href="#DejaVuSans-65" transform="translate(509.228516 0)"/>
     <use xlink:href="#DejaVuSans-20" transform="translate(570.751953 0)"/>
     <use xlink:href="#DejaVuSans-6d" transform="translate(602.539062 0)"/>
     <use xlink:href="#DejaVuSans-65" transform="translate(699.951172 0)"/>
     <use xlink:href="#DejaVuSans-74" transform="translate(761.474609 0)"/>
     <use xlink:href="#DejaVuSans-72" transform="translate(800.683594 0)"/>
     <use xlink:href="#DejaVuSans-69" transform="translate(841.796875 0)"/>
     <use xlink:href="#DejaVuSans-63" transform="translate(869.580078 0)"/>
     <use xlink:href="#DejaVuSans-73" transform="translate(924.560547 0)"/>
     <use xlink:href="#DejaVuSans-20" transform="translate(976.660156 0)"/>
     <use xlink:href="#DejaVuSans-28" transform="translate(1008.447266 0)"/>
     <use xlink:href="#DejaVuSans-57" transform="translate(1047.460938 0)"/>
     <use xlink:href="#DejaVuSans-69" transform="translate(1144.087891 0)"/>
     <use xlink:href="#DejaVuSans-6e" transform="translate(1171.871094 0)"/>
     <use xlink:href="#DejaVuSans-20" transform="translate(1235.25 0)"/>
     <use xlink:href="#DejaVuSans-53" transform="translate(1267.037109 0)"/>
     <use xlink:href="#DejaVuSans-68" transform="translate(1330.513672 0)"/>
     <use xlink:href="#DejaVuSans-61" transform="translate(1393.892578 0)"/>
     <use xlink:href="#DejaVuSans-72" transform="translate(1455.171875 0)"/>
     <use xlink:href="#DejaVuSans-65" transform="translate(1494.035156 0)"/>
     <use xlink:href="#DejaVuSans-73" transform="translate(1555.558594 0)"/>
     <use xlink:href="#DejaVuSans-2c" transform="translate(1607.658203 0)"/>
     <use xlink:href="#DejaVuSans-20" transform="translate(1639.445312 0)"/>
     <use xlink:href="#DejaVuSans-56" transform="translate(1671.232422 0)"/>
     <use xlink:href="#DejaVuSans-4f" transform="translate(1737.890625 0)"/>
     <use xlink:href="#DejaVuSans-52" transform="translate(1816.601562 0)"/>
     <use xlink:href="#DejaVuSans-50" transform="translate(1886.083984 0)"/>
     <use xlink:href="#DejaVuSans-29" transform="translate(1946.386719 0)"/>
     <use xlink:href="#DejaVuSans-20" transform="translate(1985.400391 0)"/>
     <use xlink:href="#DejaVuSans-70" transform="translate(2017.1875 0)"/>
     <use xlink:href="#DejaVuSans-6c" transform="translate(2080.664062 0)"/>
     <use xlink:href="#DejaVuSans-75" transform="translate(2108.447266 0)"/>
     <use xlink:href="#DejaVuSans-6e" transform="translate(2171.826172 0)"/>
     <use xlink:href="#DejaVuSans-67" transform="translate(2235.205078 0)"/>
     <use xlink:href="#DejaVuSans-65" transform="translate(2298.681641 0)"/>
     <use xlink:href="#DejaVuSans-20" transform="translate(2360.205078 0)"/>
     <use xlink:href="#DejaVuSans-73" transform="translate(2391.992188 0)"/>
     <use xlink:href="#DejaVuSans-74" transform="translate(2444.091797 0)"/>
     <use xlink:href="#DejaVuSans-65" transform="translate(2483.300781 0)"/>
     <use xlink:href="#DejaVuSans-65" transform="translate(2544.824219 0)"/>
     <use xlink:href="#DejaVuSans-70" transform="translate(2606.347656 0)"/>
     <use xlink:href="#DejaVuSans-6c" transform="translate(2669.824219 0)"/>
     <use xlink:href="#DejaVuSans-79" transform="translate(2697.607422 0)"/>
     <use xlink:href="#DejaVuSans-3b" transform="translate(2756.787109 0)"/>
    </g>
    <!-- rate metrics stay much flatter -->
    <g style="fill: #222222" transform="translate(297.677578 27.875875) scale(0.11 -0.11)">
     <use xlink:href="#DejaVuSans-72"/>
     <use xlink:href="#DejaVuSans-61" transform="translate(41.113281 0)"/>
     <use xlink:href="#DejaVuSans-74" transform="translate(102.392578 0)"/>
     <use xlink:href="#DejaVuSans-65" transform="translate(141.601562 0)"/>
     <use xlink:href="#DejaVuSans-20" transform="translate(203.125 0)"/>
     <use xlink:href="#DejaVuSans-6d" transform="translate(234.912109 0)"/>
     <use xlink:href="#DejaVuSans-65" transform="translate(332.324219 0)"/>
     <use xlink:href="#DejaVuSans-74" transform="translate(393.847656 0)"/>
     <use xlink:href="#DejaVuSans-72" transform="translate(433.056641 0)"/>
     <use xlink:href="#DejaVuSans-69" transform="translate(474.169922 0)"/>
     <use xlink:href="#DejaVuSans-63" transform="translate(501.953125 0)"/>
     <use xlink:href="#DejaVuSans-73" transform="translate(556.933594 0)"/>
     <use xlink:href="#DejaVuSans-20" transform="translate(609.033203 0)"/>
     <use xlink:href="#DejaVuSans-73" transform="translate(640.820312 0)"/>
     <use xlink:href="#DejaVuSans-74" transform="translate(692.919922 0)"/>
     <use xlink:href="#DejaVuSans-61" transform="translate(732.128906 0)"/>
     <use xlink:href="#DejaVuSans-79" transform="translate(793.408203 0)"/>
     <use xlink:href="#DejaVuSans-20" transform="translate(852.587891 0)"/>
     <use xlink:href="#DejaVuSans-6d" transform="translate(884.375 0)"/>
     <use xlink:href="#DejaVuSans-75" transform="translate(981.787109 0)"/>
     <use xlink:href="#DejaVuSans-63" transform="translate(1045.166016 0)"/>
     <use xlink:href="#DejaVuSans-68" transform="translate(1100.146484 0)"/>
     <use xlink:href="#DejaVuSans-20" transform="translate(1163.525391 0)"/>
     <use xlink:href="#DejaVuSans-66" transform="translate(1195.3125 0)"/>
     <use xlink:href="#DejaVuSans-6c" transform="translate(1230.517578 0)"/>
     <use xlink:href="#DejaVuSans-61" transform="translate(1258.300781 0)"/>
     <use xlink:href="#DejaVuSans-74" transform="translate(1319.580078 0)"/>
     <use xlink:href="#DejaVuSans-74" transform="translate(1358.789062 0)"/>
     <use xlink:href="#DejaVuSans-65" transform="translate(1397.998047 0)"/>
     <use xlink:href="#DejaVuSans-72" transform="translate(1459.521484 0)"/>
    </g>
   </g>
   <g id="legend_1">
    <g id="line2d_39">
     <path d="M 530.838125 44.354625 
L 538.838125 44.354625 
L 546.838125 44.354625 
" style="fill: none; stroke: #2196f3; stroke-opacity: 0.85; stroke-width: 1.8; stroke-linecap: square"/>
    </g>
    <g id="text_19">
     <!-- Game Score -->
     <g transform="translate(553.238125 47.154625) scale(0.08 -0.08)">
      <defs>
       <path id="DejaVuSans-47" d="M 3809 666 
L 3809 1919 
L 2778 1919 
L 2778 2438 
L 4434 2438 
L 4434 434 
Q 4069 175 3628 42 
Q 3188 -91 2688 -91 
Q 1594 -91 976 548 
Q 359 1188 359 2328 
Q 359 3472 976 4111 
Q 1594 4750 2688 4750 
Q 3144 4750 3555 4637 
Q 3966 4525 4313 4306 
L 4313 3634 
Q 3963 3931 3569 4081 
Q 3175 4231 2741 4231 
Q 1884 4231 1454 3753 
Q 1025 3275 1025 2328 
Q 1025 1384 1454 906 
Q 1884 428 2741 428 
Q 3075 428 3337 486 
Q 3600 544 3809 666 
z
" transform="scale(0.015625)"/>
      </defs>
      <use xlink:href="#DejaVuSans-47"/>
      <use xlink:href="#DejaVuSans-61" transform="translate(77.490234 0)"/>
      <use xlink:href="#DejaVuSans-6d" transform="translate(138.769531 0)"/>
      <use xlink:href="#DejaVuSans-65" transform="translate(236.181641 0)"/>
      <use xlink:href="#DejaVuSans-20" transform="translate(297.705078 0)"/>
      <use xlink:href="#DejaVuSans-53" transform="translate(329.492188 0)"/>
      <use xlink:href="#DejaVuSans-63" transform="translate(392.96875 0)"/>
      <use xlink:href="#DejaVuSans-6f" transform="translate(447.949219 0)"/>
      <use xlink:href="#DejaVuSans-72" transform="translate(509.130859 0)"/>
      <use xlink:href="#DejaVuSans-65" transform="translate(547.994141 0)"/>
     </g>
    </g>
    <g id="line2d_40">
     <path d="M 530.838125 56.097125 
L 538.838125 56.097125 
L 546.838125 56.097125 
" style="fill: none; stroke: #f44336; stroke-opacity: 0.85; stroke-width: 1.8; stroke-linecap: square"/>
    </g>
    <g id="text_20">
     <!-- PER -->
     <g transform="translate(553.238125 58.897125) scale(0.08 -0.08)">
      <defs>
       <path id="DejaVuSans-45" d="M 628 4666 
L 3578 4666 
L 3578 4134 
L 1259 4134 
L 1259 2753 
L 3481 2753 
L 3481 2222 
L 1259 2222 
L 1259 531 
L 3634 531 
L 3634 0 
L 628 0 
L 628 4666 
z
" transform="scale(0.015625)"/>
      </defs>
      <use xlink:href="#DejaVuSans-50"/>
      <use xlink:href="#DejaVuSans-45" transform="translate(60.302734 0)"/>
      <use xlink:href="#DejaVuSans-52" transform="translate(123.486328 0)"/>
     </g>
    </g>
    <g id="line2d_41">
     <path d="M 530.838125 67.839625 
L 538.838125 67.839625 
L 546.838125 67.839625 
" style="fill: none; stroke: #4caf50; stroke-opacity: 0.85; stroke-width: 1.8; stroke-linecap: square"/>
    </g>
    <g id="text_21">
     <!-- Win Shares -->
     <g transform="translate(553.238125 70.639625) scale(0.08 -0.08)">
      <use xlink:href="#DejaVuSans-57"/>
      <use xlink:href="#DejaVuSans-69" transform="translate(96.626953 0)"/>
      <use xlink:href="#DejaVuSans-6e" transform="translate(124.410156 0)"/>
      <use xlink:href="#DejaVuSans-20" transform="translate(187.789062 0)"/>
      <use xlink:href="#DejaVuSans-53" transform="translate(219.576172 0)"/>
      <use xlink:href="#DejaVuSans-68" transform="translate(283.052734 0)"/>
      <use xlink:href="#DejaVuSans-61" transform="translate(346.431641 0)"/>
      <use xlink:href="#DejaVuSans-72" transform="translate(407.710938 0)"/>
      <use xlink:href="#DejaVuSans-65" transform="translate(446.574219 0)"/>
      <use xlink:href="#DejaVuSans-73" transform="translate(508.097656 0)"/>
     </g>
    </g>
    <g id="line2d_42">
     <path d="M 530.838125 79.582125 
L 538.838125 79.582125 
L 546.838125 79.582125 
" style="fill: none; stroke: #ff9800; stroke-opacity: 0.85; stroke-width: 1.8; stroke-linecap: square"/>
    </g>
    <g id="text_22">
     <!-- WS/48 -->
     <g transform="translate(553.238125 82.382125) scale(0.08 -0.08)">
      <defs>
       <path id="DejaVuSans-2f" d="M 1625 4666 
L 2156 4666 
L 531 -594 
L 0 -594 
L 1625 4666 
z
" transform="scale(0.015625)"/>
      </defs>
      <use xlink:href="#DejaVuSans-57"/>
      <use xlink:href="#DejaVuSans-53" transform="translate(98.876953 0)"/>
      <use xlink:href="#DejaVuSans-2f" transform="translate(162.353516 0)"/>
      <use xlink:href="#DejaVuSans-34" transform="translate(196.044922 0)"/>
      <use xlink:href="#DejaVuSans-38" transform="translate(259.667969 0)"/>
     </g>
    </g>
    <g id="line2d_43">
     <path d="M 530.838125 91.324625 
L 538.838125 91.324625 
L 546.838125 91.324625 
" style="fill: none; stroke: #9c27b0; stroke-opacity: 0.85; stroke-width: 1.8; stroke-linecap: square"/>
    </g>
    <g id="text_23">
     <!-- BPM -->
     <g transform="translate(553.238125 94.124625) scale(0.08 -0.08)">
      <defs>
       <path id="DejaVuSans-42" d="M 1259 2228 
L 1259 519 
L 2272 519 
Q 2781 519 3026 730 
Q 3272 941 3272 1375 
Q 3272 1813 3026 2020 
Q 2781 2228 2272 2228 
L 1259 2228 
z
M 1259 4147 
L 1259 2741 
L 2194 2741 
Q 2656 2741 2882 2914 
Q 3109 3088 3109 3444 
Q 3109 3797 2882 3972 
Q 2656 4147 2194 4147 
L 1259 4147 
z
M 628 4666 
L 2241 4666 
Q 2963 4666 3353 4366 
Q 3744 4066 3744 3513 
Q 3744 3084 3544 2831 
Q 3344 2578 2956 2516 
Q 3422 2416 3680 2098 
Q 3938 1781 3938 1306 
Q 3938 681 3513 340 
Q 3088 0 2303 0 
L 628 0 
L 628 4666 
z
" transform="scale(0.015625)"/>
       <path id="DejaVuSans-4d" d="M 628 4666 
L 1569 4666 
L 2759 1491 
L 3956 4666 
L 4897 4666 
L 4897 0 
L 4281 0 
L 4281 4097 
L 3078 897 
L 2444 897 
L 1241 4097 
L 1241 0 
L 628 0 
L 628 4666 
z
" transform="scale(0.015625)"/>
      </defs>
      <use xlink:href="#DejaVuSans-42"/>
      <use xlink:href="#DejaVuSans-50" transform="translate(68.603516 0)"/>
      <use xlink:href="#DejaVuSans-4d" transform="translate(128.90625 0)"/>
     </g>
    </g>
    <g id="line2d_44">
     <path d="M 530.838125 103.067125 
L 538.838125 103.067125 
L 546.838125 103.067125 
" style="fill: none; stroke: #00bcd4; stroke-opacity: 0.85; stroke-width: 1.8; stroke-linecap: square"/>
    </g>
    <g id="text_24">
     <!-- Off BPM -->
     <g transform="translate(553.238125 105.867125) scale(0.08 -0.08)">
      <use xlink:href="#DejaVuSans-4f"/>
      <use xlink:href="#DejaVuSans-66" transform="translate(78.710938 0)"/>
      <use xlink:href="#DejaVuSans-66" transform="translate(113.916016 0)"/>
      <use xlink:href="#DejaVuSans-20" transform="translate(149.121094 0)"/>
      <use xlink:href="#DejaVuSans-42" transform="translate(180.908203 0)"/>
      <use xlink:href="#DejaVuSans-50" transform="translate(249.511719 0)"/>
      <use xlink:href="#DejaVuSans-4d" transform="translate(309.814453 0)"/>
     </g>
    </g>
    <g id="line2d_45">
     <path d="M 530.838125 114.809625 
L 538.838125 114.809625 
L 546.838125 114.809625 
" style="fill: none; stroke: #795548; stroke-opacity: 0.85; stroke-width: 1.8; stroke-linecap: square"/>
    </g>
    <g id="text_25">
     <!-- Def BPM -->
     <g transform="translate(553.238125 117.609625) scale(0.08 -0.08)">
      <defs>
       <path id="DejaVuSans-44" d="M 1259 4147 
L 1259 519 
L 2022 519 
Q 2988 519 3436 956 
Q 3884 1394 3884 2338 
Q 3884 3275 3436 3711 
Q 2988 4147 2022 4147 
L 1259 4147 
z
M 628 4666 
L 1925 4666 
Q 3281 4666 3915 4102 
Q 4550 3538 4550 2338 
Q 4550 1131 3912 565 
Q 3275 0 1925 0 
L 628 0 
L 628 4666 
z
" transform="scale(0.015625)"/>
      </defs>
      <use xlink:href="#DejaVuSans-44"/>
      <use xlink:href="#DejaVuSans-65" transform="translate(77.001953 0)"/>
      <use xlink:href="#DejaVuSans-66" transform="translate(138.525391 0)"/>
      <use xlink:href="#DejaVuSans-20" transform="translate(173.730469 0)"/>
      <use xlink:href="#DejaVuSans-42" transform="translate(205.517578 0)"/>
      <use xlink:href="#DejaVuSans-50" transform="translate(274.121094 0)"/>
      <use xlink:href="#DejaVuSans-4d" transform="translate(334.423828 0)"/>
     </g>
    </g>
    <g id="line2d_46">
     <path d="M 618.000625 44.354625 
L 626.000625 44.354625 
L 634.000625 44.354625 
" style="fill: none; stroke: #607d8b; stroke-opacity: 0.85; stroke-width: 1.8; stroke-linecap: square"/>
    </g>
    <g id="text_26">
     <!-- VORP -->
     <g transform="translate(640.400625 47.154625) scale(0.08 -0.08)">
      <use xlink:href="#DejaVuSans-56"/>
      <use xlink:href="#DejaVuSans-4f" transform="translate(66.658203 0)"/>
      <use xlink:href="#DejaVuSans-52" transform="translate(145.369141 0)"/>
      <use xlink:href="#DejaVuSans-50" transform="translate(214.851562 0)"/>
     </g>
    </g>
    <g id="line2d_47">
     <path d="M 618.000625 56.097125 
L 626.000625 56.097125 
L 634.000625 56.097125 
" style="fill: none; stroke: #2196f3; stroke-opacity: 0.85; stroke-width: 1.8; stroke-linecap: square"/>
    </g>
    <g id="text_27">
     <!-- RAPM -->
     <g transform="translate(640.400625 58.897125) scale(0.08 -0.08)">
      <defs>
       <path id="DejaVuSans-41" d="M 2188 4044 
L 1331 1722 
L 3047 1722 
L 2188 4044 
z
M 1831 4666 
L 2547 4666 
L 4325 0 
L 3669 0 
L 3244 1197 
L 1141 1197 
L 716 0 
L 50 0 
L 1831 4666 
z
" transform="scale(0.015625)"/>
      </defs>
      <use xlink:href="#DejaVuSans-52"/>
      <use xlink:href="#DejaVuSans-41" transform="translate(65.482422 0)"/>
      <use xlink:href="#DejaVuSans-50" transform="translate(133.890625 0)"/>
      <use xlink:href="#DejaVuSans-4d" transform="translate(194.193359 0)"/>
     </g>
    </g>
    <g id="line2d_48">
     <path d="M 618.000625 67.839625 
L 626.000625 67.839625 
L 634.000625 67.839625 
" style="fill: none; stroke: #f44336; stroke-opacity: 0.85; stroke-width: 1.8; stroke-linecap: square"/>
    </g>
    <g id="text_28">
     <!-- O-RAPM -->
     <g transform="translate(640.400625 70.639625) scale(0.08 -0.08)">
      <use xlink:href="#DejaVuSans-4f"/>
      <use xlink:href="#DejaVuSans-2d" transform="translate(81.460938 0)"/>
      <use xlink:href="#DejaVuSans-52" transform="translate(117.544922 0)"/>
      <use xlink:href="#DejaVuSans-41" transform="translate(183.027344 0)"/>
      <use xlink:href="#DejaVuSans-50" transform="translate(251.435547 0)"/>
      <use xlink:href="#DejaVuSans-4d" transform="translate(311.738281 0)"/>
     </g>
    </g>
    <g id="line2d_49">
     <path d="M 618.000625 79.582125 
L 626.000625 79.582125 
L 634.000625 79.582125 
" style="fill: none; stroke: #4caf50; stroke-opacity: 0.85; stroke-width: 1.8; stroke-linecap: square"/>
    </g>
    <g id="text_29">
     <!-- D-RAPM -->
     <g transform="translate(640.400625 82.382125) scale(0.08 -0.08)">
      <use xlink:href="#DejaVuSans-44"/>
      <use xlink:href="#DejaVuSans-2d" transform="translate(77.001953 0)"/>
      <use xlink:href="#DejaVuSans-52" transform="translate(113.085938 0)"/>
      <use xlink:href="#DejaVuSans-41" transform="translate(178.568359 0)"/>
      <use xlink:href="#DejaVuSans-50" transform="translate(246.976562 0)"/>
      <use xlink:href="#DejaVuSans-4d" transform="translate(307.279297 0)"/>
     </g>
    </g>
    <g id="line2d_50">
     <path d="M 618.000625 91.324625 
L 626.000625 91.324625 
L 634.000625 91.324625 
" style="fill: none; stroke: #ff9800; stroke-opacity: 0.85; stroke-width: 1.8; stroke-linecap: square"/>
    </g>
    <g id="text_30">
     <!-- RAPM+prior -->
     <g transform="translate(640.400625 94.124625) scale(0.08 -0.08)">
      <defs>
       <path id="DejaVuSans-2b" d="M 2944 4013 
L 2944 2272 
L 4684 2272 
L 4684 1741 
L 2944 1741 
L 2944 0 
L 2419 0 
L 2419 1741 
L 678 1741 
L 678 2272 
L 2419 2272 
L 2419 4013 
L 2944 4013 
z
" transform="scale(0.015625)"/>
      </defs>
      <use xlink:href="#DejaVuSans-52"/>
      <use xlink:href="#DejaVuSans-41" transform="translate(65.482422 0)"/>
      <use xlink:href="#DejaVuSans-50" transform="translate(133.890625 0)"/>
      <use xlink:href="#DejaVuSans-4d" transform="translate(194.193359 0)"/>
      <use xlink:href="#DejaVuSans-2b" transform="translate(280.472656 0)"/>
      <use xlink:href="#DejaVuSans-70" transform="translate(364.261719 0)"/>
      <use xlink:href="#DejaVuSans-72" transform="translate(427.738281 0)"/>
      <use xlink:href="#DejaVuSans-69" transform="translate(468.851562 0)"/>
      <use xlink:href="#DejaVuSans-6f" transform="translate(496.634766 0)"/>
      <use xlink:href="#DejaVuSans-72" transform="translate(557.816406 0)"/>
     </g>
    </g>
    <g id="line2d_51">
     <path d="M 618.000625 103.067125 
L 626.000625 103.067125 
L 634.000625 103.067125 
" style="fill: none; stroke: #9c27b0; stroke-opacity: 0.85; stroke-width: 1.8; stroke-linecap: square"/>
    </g>
    <g id="text_31">
     <!-- O-RAPM+prior -->
     <g transform="translate(640.400625 105.867125) scale(0.08 -0.08)">
      <use xlink:href="#DejaVuSans-4f"/>
      <use xlink:href="#DejaVuSans-2d" transform="translate(81.460938 0)"/>
      <use xlink:href="#DejaVuSans-52" transform="translate(117.544922 0)"/>
      <use xlink:href="#DejaVuSans-41" transform="translate(183.027344 0)"/>
      <use xlink:href="#DejaVuSans-50" transform="translate(251.435547 0)"/>
      <use xlink:href="#DejaVuSans-4d" transform="translate(311.738281 0)"/>
      <use xlink:href="#DejaVuSans-2b" transform="translate(398.017578 0)"/>
      <use xlink:href="#DejaVuSans-70" transform="translate(481.806641 0)"/>
      <use xlink:href="#DejaVuSans-72" transform="translate(545.283203 0)"/>
      <use xlink:href="#DejaVuSans-69" transform="translate(586.396484 0)"/>
      <use xlink:href="#DejaVuSans-6f" transform="translate(614.179688 0)"/>
      <use xlink:href="#DejaVuSans-72" transform="translate(675.361328 0)"/>
     </g>
    </g>
    <g id="line2d_52">
     <path d="M 618.000625 114.809625 
L 626.000625 114.809625 
L 634.000625 114.809625 
" style="fill: none; stroke: #00bcd4; stroke-opacity: 0.85; stroke-width: 1.8; stroke-linecap: square"/>
    </g>
    <g id="text_32">
     <!-- D-RAPM+prior -->
     <g transform="translate(640.400625 117.609625) scale(0.08 -0.08)">
      <use xlink:href="#DejaVuSans-44"/>
      <use xlink:href="#DejaVuSans-2d" transform="translate(77.001953 0)"/>
      <use xlink:href="#DejaVuSans-52" transform="translate(113.085938 0)"/>
      <use xlink:href="#DejaVuSans-41" transform="translate(178.568359 0)"/>
      <use xlink:href="#DejaVuSans-50" transform="translate(246.976562 0)"/>
      <use xlink:href="#DejaVuSans-4d" transform="translate(307.279297 0)"/>
      <use xlink:href="#DejaVuSans-2b" transform="translate(393.558594 0)"/>
      <use xlink:href="#DejaVuSans-70" transform="translate(477.347656 0)"/>
      <use xlink:href="#DejaVuSans-72" transform="translate(540.824219 0)"/>
      <use xlink:href="#DejaVuSans-69" transform="translate(581.9375 0)"/>
      <use xlink:href="#DejaVuSans-6f" transform="translate(609.720703 0)"/>
      <use xlink:href="#DejaVuSans-72" transform="translate(670.902344 0)"/>
     </g>
    </g>
   </g>
  </g>
 </g>
 <defs>
  <clipPath id="p121d213402">
   <rect x="55.499375" y="33.875875" width="649.42" height="352.792"/>
  </clipPath>
 </defs>
</svg>
