<?xml version="1.0" encoding="utf-8" standalone="no"?>
<!DOCTYPE svg PUBLIC "-//W3C//DTD SVG 1.1//EN"
  "http://www.w3.org/Graphics/SVG/1.1/DTD/svg11.dtd">
<svg xmlns:xlink="http://www.w3.org/1999/xlink" width="1197.92125pt" height="358.758828pt" viewBox="0 0 1197.92125 358.758828" xmlns="http://www.w3.org/2000/svg" version="1.1">
 <metadata>
  <rdf:RDF xmlns:dc="http://purl.org/dc/elements/1.1/" xmlns:cc="http://creativecommons.org/ns#" xmlns:rdf="http://www.w3.org/1999/02/22-rdf-syntax-ns#">
   <cc:Work>
    <dc:type rdf:resource="http://purl.org/dc/dcmitype/StillImage"/>
    <dc:date>2026-07-02T10:27:37.306786</dc:date>
    <dc:format>image/svg+xml</dc:format>
    <dc:creator>
     <cc:Agent>
      <dc:title>Matplotlib v3.10.9, https://matplotlib.org/</dc:title>
     </cc:Agent>
    </dc:creator>
   </cc:Work>
  </rdf:RDF>
 </metadata>
 <defs>
  <style type="text/css">*{stroke-linejoin: round; stroke-linecap: butt}</style>
 </defs>
 <g id="figure_1">
  <g id="patch_1">
   <path d="M 0 358.758828 
L 1197.92125 358.758828 
L 1197.92125 -0 
L 0 -0 
z
" style="fill: #f9f9f7"/>
  </g>
  <g id="axes_1">
   <g id="patch_2">
    <path d="M 361.810625 323.138203 
L 836.110625 323.138203 
L 836.110625 45.938203 
L 361.810625 45.938203 
z
" style="fill: #ffffff"/>
   </g>
   <g id="line2d_1">
    <path d="M 361.810625 297.938203 
L 836.110625 297.938203 
" clip-path="url(#p2234ec13c1)" style="fill: none; stroke: #cccccc; stroke-width: 0.8; stroke-linecap: square"/>
   </g>
   <g id="matplotlib.axis_1">
    <g id="xtick_1">
     <g id="line2d_2">
      <defs>
       <path id="m6925943d0e" d="M 0 0 
L 0 3.5 
" style="stroke: #555555; stroke-width: 0.8"/>
      </defs>
      <g>
       <use xlink:href="#m6925943d0e" x="383.369716" y="323.138203" style="fill: #555555; stroke: #555555; stroke-width: 0.8"/>
      </g>
     </g>
     <g id="text_1">
      <!-- 0-500 -->
      <g style="fill: #555555" transform="translate(370.2937 336.976797) scale(0.09 -0.09)">
       <defs>
        <path id="DejaVuSans-30" d="M 2034 4250 
Q 1547 4250 1301 3770 
Q 1056 3291 1056 2328 
Q 1056 1369 1301 889 
Q 1547 409 2034 409 
Q 2525 409 2770 889 
Q 3016 1369 3016 2328 
Q 3016 3291 2770 3770 
Q 2525 4250 2034 4250 
z
M 2034 4750 
Q 2819 4750 3233 4129 
Q 3647 3509 3647 2328 
Q 3647 1150 3233 529 
Q 2819 -91 2034 -91 
Q 1250 -91 836 529 
Q 422 1150 422 2328 
Q 422 3509 836 4129 
Q 1250 4750 2034 4750 
z
" transform="scale(0.015625)"/>
        <path id="DejaVuSans-2d" d="M 313 2009 
L 1997 2009 
L 1997 1497 
L 313 1497 
L 313 2009 
z
" transform="scale(0.015625)"/>
        <path id="DejaVuSans-35" d="M 691 4666 
L 3169 4666 
L 3169 4134 
L 1269 4134 
L 1269 2991 
Q 1406 3038 1543 3061 
Q 1681 3084 1819 3084 
Q 2600 3084 3056 2656 
Q 3513 2228 3513 1497 
Q 3513 744 3044 326 
Q 2575 -91 1722 -91 
Q 1428 -91 1123 -41 
Q 819 9 494 109 
L 494 744 
Q 775 591 1075 516 
Q 1375 441 1709 441 
Q 2250 441 2565 725 
Q 2881 1009 2881 1497 
Q 2881 1984 2565 2268 
Q 2250 2553 1709 2553 
Q 1456 2553 1204 2497 
Q 953 2441 691 2322 
L 691 4666 
z
" transform="scale(0.015625)"/>
       </defs>
       <use xlink:href="#DejaVuSans-30"/>
       <use xlink:href="#DejaVuSans-2d" transform="translate(63.623047 0)"/>
       <use xlink:href="#DejaVuSans-35" transform="translate(99.707031 0)"/>
       <use xlink:href="#DejaVuSans-30" transform="translate(163.330078 0)"/>
       <use xlink:href="#DejaVuSans-30" transform="translate(226.953125 0)"/>
      </g>
     </g>
    </g>
    <g id="xtick_2">
     <g id="line2d_3">
      <g>
       <use xlink:href="#m6925943d0e" x="491.16517" y="323.138203" style="fill: #555555; stroke: #555555; stroke-width: 0.8"/>
      </g>
     </g>
     <g id="text_2">
      <!-- 500-1000 -->
      <g style="fill: #555555" transform="translate(469.49978 336.976797) scale(0.09 -0.09)">
       <defs>
        <path id="DejaVuSans-31" d="M 794 531 
L 1825 531 
L 1825 4091 
L 703 3866 
L 703 4441 
L 1819 4666 
L 2450 4666 
L 2450 531 
L 3481 531 
L 3481 0 
L 794 0 
L 794 531 
z
" transform="scale(0.015625)"/>
       </defs>
       <use xlink:href="#DejaVuSans-35"/>
       <use xlink:href="#DejaVuSans-30" transform="translate(63.623047 0)"/>
       <use xlink:href="#DejaVuSans-30" transform="translate(127.246094 0)"/>
       <use xlink:href="#DejaVuSans-2d" transform="translate(190.869141 0)"/>
       <use xlink:href="#DejaVuSans-31" transform="translate(226.953125 0)"/>
       <use xlink:href="#DejaVuSans-30" transform="translate(290.576172 0)"/>
       <use xlink:href="#DejaVuSans-30" transform="translate(354.199219 0)"/>
       <use xlink:href="#DejaVuSans-30" transform="translate(417.822266 0)"/>
      </g>
     </g>
    </g>
    <g id="xtick_3">
     <g id="line2d_4">
      <g>
       <use xlink:href="#m6925943d0e" x="598.960625" y="323.138203" style="fill: #555555; stroke: #555555; stroke-width: 0.8"/>
      </g>
     </g>
     <g id="text_3">
      <!-- 1000-1500 -->
      <g style="fill: #555555" transform="translate(574.432109 336.976797) scale(0.09 -0.09)">
       <use xlink:href="#DejaVuSans-31"/>
       <use xlink:href="#DejaVuSans-30" transform="translate(63.623047 0)"/>
       <use xlink:href="#DejaVuSans-30" transform="translate(127.246094 0)"/>
       <use xlink:href="#DejaVuSans-30" transform="translate(190.869141 0)"/>
       <use xlink:href="#DejaVuSans-2d" transform="translate(254.492188 0)"/>
       <use xlink:href="#DejaVuSans-31" transform="translate(290.576172 0)"/>
       <use xlink:href="#DejaVuSans-35" transform="translate(354.199219 0)"/>
       <use xlink:href="#DejaVuSans-30" transform="translate(417.822266 0)"/>
       <use xlink:href="#DejaVuSans-30" transform="translate(481.445312 0)"/>
      </g>
     </g>
    </g>
    <g id="xtick_4">
     <g id="line2d_5">
      <g>
       <use xlink:href="#m6925943d0e" x="706.75608" y="323.138203" style="fill: #555555; stroke: #555555; stroke-width: 0.8"/>
      </g>
     </g>
     <g id="text_4">
      <!-- 1500-2000 -->
      <g style="fill: #555555" transform="translate(682.227564 336.976797) scale(0.09 -0.09)">
       <defs>
        <path id="DejaVuSans-32" d="M 1228 531 
L 3431 531 
L 3431 0 
L 469 0 
L 469 531 
Q 828 903 1448 1529 
Q 2069 2156 2228 2338 
Q 2531 2678 2651 2914 
Q 2772 3150 2772 3378 
Q 2772 3750 2511 3984 
Q 2250 4219 1831 4219 
Q 1534 4219 1204 4116 
Q 875 4013 500 3803 
L 500 4441 
Q 881 4594 1212 4672 
Q 1544 4750 1819 4750 
Q 2544 4750 2975 4387 
Q 3406 4025 3406 3419 
Q 3406 3131 3298 2873 
Q 3191 2616 2906 2266 
Q 2828 2175 2409 1742 
Q 1991 1309 1228 531 
z
" transform="scale(0.015625)"/>
       </defs>
       <use xlink:href="#DejaVuSans-31"/>
       <use xlink:href="#DejaVuSans-35" transform="translate(63.623047 0)"/>
       <use xlink:href="#DejaVuSans-30" transform="translate(127.246094 0)"/>
       <use xlink:href="#DejaVuSans-30" transform="translate(190.869141 0)"/>
       <use xlink:href="#DejaVuSans-2d" transform="translate(254.492188 0)"/>
       <use xlink:href="#DejaVuSans-32" transform="translate(290.576172 0)"/>
       <use xlink:href="#DejaVuSans-30" transform="translate(354.199219 0)"/>
       <use xlink:href="#DejaVuSans-30" transform="translate(417.822266 0)"/>
       <use xlink:href="#DejaVuSans-30" transform="translate(481.445312 0)"/>
      </g>
     </g>
    </g>
    <g id="xtick_5">
     <g id="line2d_6">
      <g>
       <use xlink:href="#m6925943d0e" x="814.551534" y="323.138203" style="fill: #555555; stroke: #555555; stroke-width: 0.8"/>
      </g>
     </g>
     <g id="text_5">
      <!-- 2000-3500 -->
      <g style="fill: #555555" transform="translate(790.023018 336.976797) scale(0.09 -0.09)">
       <defs>
        <path id="DejaVuSans-33" d="M 2597 2516 
Q 3050 2419 3304 2112 
Q 3559 1806 3559 1356 
Q 3559 666 3084 287 
Q 2609 -91 1734 -91 
Q 1441 -91 1130 -33 
Q 819 25 488 141 
L 488 750 
Q 750 597 1062 519 
Q 1375 441 1716 441 
Q 2309 441 2620 675 
Q 2931 909 2931 1356 
Q 2931 1769 2642 2001 
Q 2353 2234 1838 2234 
L 1294 2234 
L 1294 2753 
L 1863 2753 
Q 2328 2753 2575 2939 
Q 2822 3125 2822 3475 
Q 2822 3834 2567 4026 
Q 2313 4219 1838 4219 
Q 1578 4219 1281 4162 
Q 984 4106 628 3988 
L 628 4550 
Q 988 4650 1302 4700 
Q 1616 4750 1894 4750 
Q 2613 4750 3031 4423 
Q 3450 4097 3450 3541 
Q 3450 3153 3228 2886 
Q 3006 2619 2597 2516 
z
" transform="scale(0.015625)"/>
       </defs>
       <use xlink:href="#DejaVuSans-32"/>
       <use xlink:href="#DejaVuSans-30" transform="translate(63.623047 0)"/>
       <use xlink:href="#DejaVuSans-30" transform="translate(127.246094 0)"/>
       <use xlink:href="#DejaVuSans-30" transform="translate(190.869141 0)"/>
       <use xlink:href="#DejaVuSans-2d" transform="translate(254.492188 0)"/>
       <use xlink:href="#DejaVuSans-33" transform="translate(290.576172 0)"/>
       <use xlink:href="#DejaVuSans-35" transform="translate(354.199219 0)"/>
       <use xlink:href="#DejaVuSans-30" transform="translate(417.822266 0)"/>
       <use xlink:href="#DejaVuSans-30" transform="translate(481.445312 0)"/>
      </g>
     </g>
    </g>
    <g id="text_6">
     <!-- season minutes played -->
     <g style="fill: #888780" transform="translate(546.911797 349.687109) scale(0.09 -0.09)">
      <defs>
       <path id="DejaVuSans-73" d="M 2834 3397 
L 2834 2853 
Q 2591 2978 2328 3040 
Q 2066 3103 1784 3103 
Q 1356 3103 1142 2972 
Q 928 2841 928 2578 
Q 928 2378 1081 2264 
Q 1234 2150 1697 2047 
L 1894 2003 
Q 2506 1872 2764 1633 
Q 3022 1394 3022 966 
Q 3022 478 2636 193 
Q 2250 -91 1575 -91 
Q 1294 -91 989 -36 
Q 684 19 347 128 
L 347 722 
Q 666 556 975 473 
Q 1284 391 1588 391 
Q 1994 391 2212 530 
Q 2431 669 2431 922 
Q 2431 1156 2273 1281 
Q 2116 1406 1581 1522 
L 1381 1569 
Q 847 1681 609 1914 
Q 372 2147 372 2553 
Q 372 3047 722 3315 
Q 1072 3584 1716 3584 
Q 2034 3584 2315 3537 
Q 2597 3491 2834 3397 
z
" transform="scale(0.015625)"/>
       <path id="DejaVuSans-65" d="M 3597 1894 
L 3597 1613 
L 953 1613 
Q 991 1019 1311 708 
Q 1631 397 2203 397 
Q 2534 397 2845 478 
Q 3156 559 3463 722 
L 3463 178 
Q 3153 47 2828 -22 
Q 2503 -91 2169 -91 
Q 1331 -91 842 396 
Q 353 884 353 1716 
Q 353 2575 817 3079 
Q 1281 3584 2069 3584 
Q 2775 3584 3186 3129 
Q 3597 2675 3597 1894 
z
M 3022 2063 
Q 3016 2534 2758 2815 
Q 2500 3097 2075 3097 
Q 1594 3097 1305 2825 
Q 1016 2553 972 2059 
L 3022 2063 
z
" transform="scale(0.015625)"/>
       <path id="DejaVuSans-61" d="M 2194 1759 
Q 1497 1759 1228 1600 
Q 959 1441 959 1056 
Q 959 750 1161 570 
Q 1363 391 1709 391 
Q 2188 391 2477 730 
Q 2766 1069 2766 1631 
L 2766 1759 
L 2194 1759 
z
M 3341 1997 
L 3341 0 
L 2766 0 
L 2766 531 
Q 2569 213 2275 61 
Q 1981 -91 1556 -91 
Q 1019 -91 701 211 
Q 384 513 384 1019 
Q 384 1609 779 1909 
Q 1175 2209 1959 2209 
L 2766 2209 
L 2766 2266 
Q 2766 2663 2505 2880 
Q 2244 3097 1772 3097 
Q 1472 3097 1187 3025 
Q 903 2953 641 2809 
L 641 3341 
Q 956 3463 1253 3523 
Q 1550 3584 1831 3584 
Q 2591 3584 2966 3190 
Q 3341 2797 3341 1997 
z
" transform="scale(0.015625)"/>
       <path id="DejaVuSans-6f" d="M 1959 3097 
Q 1497 3097 1228 2736 
Q 959 2375 959 1747 
Q 959 1119 1226 758 
Q 1494 397 1959 397 
Q 2419 397 2687 759 
Q 2956 1122 2956 1747 
Q 2956 2369 2687 2733 
Q 2419 3097 1959 3097 
z
M 1959 3584 
Q 2709 3584 3137 3096 
Q 3566 2609 3566 1747 
Q 3566 888 3137 398 
Q 2709 -91 1959 -91 
Q 1206 -91 779 398 
Q 353 888 353 1747 
Q 353 2609 779 3096 
Q 1206 3584 1959 3584 
z
" transform="scale(0.015625)"/>
       <path id="DejaVuSans-6e" d="M 3513 2113 
L 3513 0 
L 2938 0 
L 2938 2094 
Q 2938 2591 2744 2837 
Q 2550 3084 2163 3084 
Q 1697 3084 1428 2787 
Q 1159 2491 1159 1978 
L 1159 0 
L 581 0 
L 581 3500 
L 1159 3500 
L 1159 2956 
Q 1366 3272 1645 3428 
Q 1925 3584 2291 3584 
Q 2894 3584 3203 3211 
Q 3513 2838 3513 2113 
z
" transform="scale(0.015625)"/>
       <path id="DejaVuSans-20" transform="scale(0.015625)"/>
       <path id="DejaVuSans-6d" d="M 3328 2828 
Q 3544 3216 3844 3400 
Q 4144 3584 4550 3584 
Q 5097 3584 5394 3201 
Q 5691 2819 5691 2113 
L 5691 0 
L 5113 0 
L 5113 2094 
Q 5113 2597 4934 2840 
Q 4756 3084 4391 3084 
Q 3944 3084 3684 2787 
Q 3425 2491 3425 1978 
L 3425 0 
L 2847 0 
L 2847 2094 
Q 2847 2600 2669 2842 
Q 2491 3084 2119 3084 
Q 1678 3084 1418 2786 
Q 1159 2488 1159 1978 
L 1159 0 
L 581 0 
L 581 3500 
L 1159 3500 
L 1159 2956 
Q 1356 3278 1631 3431 
Q 1906 3584 2284 3584 
Q 2666 3584 2933 3390 
Q 3200 3197 3328 2828 
z
" transform="scale(0.015625)"/>
       <path id="DejaVuSans-69" d="M 603 3500 
L 1178 3500 
L 1178 0 
L 603 0 
L 603 3500 
z
M 603 4863 
L 1178 4863 
L 1178 4134 
L 603 4134 
L 603 4863 
z
" transform="scale(0.015625)"/>
       <path id="DejaVuSans-75" d="M 544 1381 
L 544 3500 
L 1119 3500 
L 1119 1403 
Q 1119 906 1312 657 
Q 1506 409 1894 409 
Q 2359 409 2629 706 
Q 2900 1003 2900 1516 
L 2900 3500 
L 3475 3500 
L 3475 0 
L 2900 0 
L 2900 538 
Q 2691 219 2414 64 
Q 2138 -91 1772 -91 
Q 1169 -91 856 284 
Q 544 659 544 1381 
z
M 1991 3584 
L 1991 3584 
z
" transform="scale(0.015625)"/>
       <path id="DejaVuSans-74" d="M 1172 4494 
L 1172 3500 
L 2356 3500 
L 2356 3053 
L 1172 3053 
L 1172 1153 
Q 1172 725 1289 603 
Q 1406 481 1766 481 
L 2356 481 
L 2356 0 
L 1766 0 
Q 1100 0 847 248 
Q 594 497 594 1153 
L 594 3053 
L 172 3053 
L 172 3500 
L 594 3500 
L 594 4494 
L 1172 4494 
z
" transform="scale(0.015625)"/>
       <path id="DejaVuSans-70" d="M 1159 525 
L 1159 -1331 
L 581 -1331 
L 581 3500 
L 1159 3500 
L 1159 2969 
Q 1341 3281 1617 3432 
Q 1894 3584 2278 3584 
Q 2916 3584 3314 3078 
Q 3713 2572 3713 1747 
Q 3713 922 3314 415 
Q 2916 -91 2278 -91 
Q 1894 -91 1617 61 
Q 1341 213 1159 525 
z
M 3116 1747 
Q 3116 2381 2855 2742 
Q 2594 3103 2138 3103 
Q 1681 3103 1420 2742 
Q 1159 2381 1159 1747 
Q 1159 1113 1420 752 
Q 1681 391 2138 391 
Q 2594 391 2855 752 
Q 3116 1113 3116 1747 
z
" transform="scale(0.015625)"/>
       <path id="DejaVuSans-6c" d="M 603 4863 
L 1178 4863 
L 1178 0 
L 603 0 
L 603 4863 
z
" transform="scale(0.015625)"/>
       <path id="DejaVuSans-79" d="M 2059 -325 
Q 1816 -950 1584 -1140 
Q 1353 -1331 966 -1331 
L 506 -1331 
L 506 -850 
L 844 -850 
Q 1081 -850 1212 -737 
Q 1344 -625 1503 -206 
L 1606 56 
L 191 3500 
L 800 3500 
L 1894 763 
L 2988 3500 
L 3597 3500 
L 2059 -325 
z
" transform="scale(0.015625)"/>
       <path id="DejaVuSans-64" d="M 2906 2969 
L 2906 4863 
L 3481 4863 
L 3481 0 
L 2906 0 
L 2906 525 
Q 2725 213 2448 61 
Q 2172 -91 1784 -91 
Q 1150 -91 751 415 
Q 353 922 353 1747 
Q 353 2572 751 3078 
Q 1150 3584 1784 3584 
Q 2172 3584 2448 3432 
Q 2725 3281 2906 2969 
z
M 947 1747 
Q 947 1113 1208 752 
Q 1469 391 1925 391 
Q 2381 391 2643 752 
Q 2906 1113 2906 1747 
Q 2906 2381 2643 2742 
Q 2381 3103 1925 3103 
Q 1469 3103 1208 2742 
Q 947 2381 947 1747 
z
" transform="scale(0.015625)"/>
      </defs>
      <use xlink:href="#DejaVuSans-73"/>
      <use xlink:href="#DejaVuSans-65" transform="translate(52.099609 0)"/>
      <use xlink:href="#DejaVuSans-61" transform="translate(113.623047 0)"/>
      <use xlink:href="#DejaVuSans-73" transform="translate(174.902344 0)"/>
      <use xlink:href="#DejaVuSans-6f" transform="translate(227.001953 0)"/>
      <use xlink:href="#DejaVuSans-6e" transform="translate(288.183594 0)"/>
      <use xlink:href="#DejaVuSans-20" transform="translate(351.5625 0)"/>
      <use xlink:href="#DejaVuSans-6d" transform="translate(383.349609 0)"/>
      <use xlink:href="#DejaVuSans-69" transform="translate(480.761719 0)"/>
      <use xlink:href="#DejaVuSans-6e" transform="translate(508.544922 0)"/>
      <use xlink:href="#DejaVuSans-75" transform="translate(571.923828 0)"/>
      <use xlink:href="#DejaVuSans-74" transform="translate(635.302734 0)"/>
      <use xlink:href="#DejaVuSans-65" transform="translate(674.511719 0)"/>
      <use xlink:href="#DejaVuSans-73" transform="translate(736.035156 0)"/>
      <use xlink:href="#DejaVuSans-20" transform="translate(788.134766 0)"/>
      <use xlink:href="#DejaVuSans-70" transform="translate(819.921875 0)"/>
      <use xlink:href="#DejaVuSans-6c" transform="translate(883.398438 0)"/>
      <use xlink:href="#DejaVuSans-61" transform="translate(911.181641 0)"/>
      <use xlink:href="#DejaVuSans-79" transform="translate(972.460938 0)"/>
      <use xlink:href="#DejaVuSans-65" transform="translate(1031.640625 0)"/>
      <use xlink:href="#DejaVuSans-64" transform="translate(1093.164062 0)"/>
     </g>
    </g>
   </g>
   <g id="matplotlib.axis_2">
    <g id="ytick_1">
     <g id="line2d_7">
      <path d="M 361.810625 297.938203 
L 836.110625 297.938203 
" clip-path="url(#p2234ec13c1)" style="fill: none; stroke: #e0dfd8; stroke-width: 0.7; stroke-linecap: square"/>
     </g>
     <g id="line2d_8">
      <defs>
       <path id="m51c67ff907" d="M 0 0 
L -3.5 0 
" style="stroke: #555555; stroke-width: 0.8"/>
      </defs>
      <g>
       <use xlink:href="#m51c67ff907" x="361.810625" y="297.938203" style="fill: #555555; stroke: #555555; stroke-width: 0.8"/>
      </g>
     </g>
     <g id="text_7">
      <!-- 0.0 -->
      <g style="fill: #555555" transform="translate(338.9075 301.737422) scale(0.1 -0.1)">
       <defs>
        <path id="DejaVuSans-2e" d="M 684 794 
L 1344 794 
L 1344 0 
L 684 0 
L 684 794 
z
" transform="scale(0.015625)"/>
       </defs>
       <use xlink:href="#DejaVuSans-30"/>
       <use xlink:href="#DejaVuSans-2e" transform="translate(63.623047 0)"/>
       <use xlink:href="#DejaVuSans-30" transform="translate(95.410156 0)"/>
      </g>
     </g>
    </g>
    <g id="ytick_2">
     <g id="line2d_9">
      <path d="M 361.810625 247.538203 
L 836.110625 247.538203 
" clip-path="url(#p2234ec13c1)" style="fill: none; stroke: #e0dfd8; stroke-width: 0.7; stroke-linecap: square"/>
     </g>
     <g id="line2d_10">
      <g>
       <use xlink:href="#m51c67ff907" x="361.810625" y="247.538203" style="fill: #555555; stroke: #555555; stroke-width: 0.8"/>
      </g>
     </g>
     <g id="text_8">
      <!-- 0.2 -->
      <g style="fill: #555555" transform="translate(338.9075 251.337422) scale(0.1 -0.1)">
       <use xlink:href="#DejaVuSans-30"/>
       <use xlink:href="#DejaVuSans-2e" transform="translate(63.623047 0)"/>
       <use xlink:href="#DejaVuSans-32" transform="translate(95.410156 0)"/>
      </g>
     </g>
    </g>
    <g id="ytick_3">
     <g id="line2d_11">
      <path d="M 361.810625 197.138203 
L 836.110625 197.138203 
" clip-path="url(#p2234ec13c1)" style="fill: none; stroke: #e0dfd8; stroke-width: 0.7; stroke-linecap: square"/>
     </g>
     <g id="line2d_12">
      <g>
       <use xlink:href="#m51c67ff907" x="361.810625" y="197.138203" style="fill: #555555; stroke: #555555; stroke-width: 0.8"/>
      </g>
     </g>
     <g id="text_9">
      <!-- 0.4 -->
      <g style="fill: #555555" transform="translate(338.9075 200.937422) scale(0.1 -0.1)">
       <defs>
        <path id="DejaVuSans-34" d="M 2419 4116 
L 825 1625 
L 2419 1625 
L 2419 4116 
z
M 2253 4666 
L 3047 4666 
L 3047 1625 
L 3713 1625 
L 3713 1100 
L 3047 1100 
L 3047 0 
L 2419 0 
L 2419 1100 
L 313 1100 
L 313 1709 
L 2253 4666 
z
" transform="scale(0.015625)"/>
       </defs>
       <use xlink:href="#DejaVuSans-30"/>
       <use xlink:href="#DejaVuSans-2e" transform="translate(63.623047 0)"/>
       <use xlink:href="#DejaVuSans-34" transform="translate(95.410156 0)"/>
      </g>
     </g>
    </g>
    <g id="ytick_4">
     <g id="line2d_13">
      <path d="M 361.810625 146.738203 
L 836.110625 146.738203 
" clip-path="url(#p2234ec13c1)" style="fill: none; stroke: #e0dfd8; stroke-width: 0.7; stroke-linecap: square"/>
     </g>
     <g id="line2d_14">
      <g>
       <use xlink:href="#m51c67ff907" x="361.810625" y="146.738203" style="fill: #555555; stroke: #555555; stroke-width: 0.8"/>
      </g>
     </g>
     <g id="text_10">
      <!-- 0.6 -->
      <g style="fill: #555555" transform="translate(338.9075 150.537422) scale(0.1 -0.1)">
       <defs>
        <path id="DejaVuSans-36" d="M 2113 2584 
Q 1688 2584 1439 2293 
Q 1191 2003 1191 1497 
Q 1191 994 1439 701 
Q 1688 409 2113 409 
Q 2538 409 2786 701 
Q 3034 994 3034 1497 
Q 3034 2003 2786 2293 
Q 2538 2584 2113 2584 
z
M 3366 4563 
L 3366 3988 
Q 3128 4100 2886 4159 
Q 2644 4219 2406 4219 
Q 1781 4219 1451 3797 
Q 1122 3375 1075 2522 
Q 1259 2794 1537 2939 
Q 1816 3084 2150 3084 
Q 2853 3084 3261 2657 
Q 3669 2231 3669 1497 
Q 3669 778 3244 343 
Q 2819 -91 2113 -91 
Q 1303 -91 875 529 
Q 447 1150 447 2328 
Q 447 3434 972 4092 
Q 1497 4750 2381 4750 
Q 2619 4750 2861 4703 
Q 3103 4656 3366 4563 
z
" transform="scale(0.015625)"/>
       </defs>
       <use xlink:href="#DejaVuSans-30"/>
       <use xlink:href="#DejaVuSans-2e" transform="translate(63.623047 0)"/>
       <use xlink:href="#DejaVuSans-36" transform="translate(95.410156 0)"/>
      </g>
     </g>
    </g>
    <g id="ytick_5">
     <g id="line2d_15">
      <path d="M 361.810625 96.338203 
L 836.110625 96.338203 
" clip-path="url(#p2234ec13c1)" style="fill: none; stroke: #e0dfd8; stroke-width: 0.7; stroke-linecap: square"/>
     </g>
     <g id="line2d_16">
      <g>
       <use xlink:href="#m51c67ff907" x="361.810625" y="96.338203" style="fill: #555555; stroke: #555555; stroke-width: 0.8"/>
      </g>
     </g>
     <g id="text_11">
      <!-- 0.8 -->
      <g style="fill: #555555" transform="translate(338.9075 100.137422) scale(0.1 -0.1)">
       <defs>
        <path id="DejaVuSans-38" d="M 2034 2216 
Q 1584 2216 1326 1975 
Q 1069 1734 1069 1313 
Q 1069 891 1326 650 
Q 1584 409 2034 409 
Q 2484 409 2743 651 
Q 3003 894 3003 1313 
Q 3003 1734 2745 1975 
Q 2488 2216 2034 2216 
z
M 1403 2484 
Q 997 2584 770 2862 
Q 544 3141 544 3541 
Q 544 4100 942 4425 
Q 1341 4750 2034 4750 
Q 2731 4750 3128 4425 
Q 3525 4100 3525 3541 
Q 3525 3141 3298 2862 
Q 3072 2584 2669 2484 
Q 3125 2378 3379 2068 
Q 3634 1759 3634 1313 
Q 3634 634 3220 271 
Q 2806 -91 2034 -91 
Q 1263 -91 848 271 
Q 434 634 434 1313 
Q 434 1759 690 2068 
Q 947 2378 1403 2484 
z
M 1172 3481 
Q 1172 3119 1398 2916 
Q 1625 2713 2034 2713 
Q 2441 2713 2670 2916 
Q 2900 3119 2900 3481 
Q 2900 3844 2670 4047 
Q 2441 4250 2034 4250 
Q 1625 4250 1398 4047 
Q 1172 3844 1172 3481 
z
" transform="scale(0.015625)"/>
       </defs>
       <use xlink:href="#DejaVuSans-30"/>
       <use xlink:href="#DejaVuSans-2e" transform="translate(63.623047 0)"/>
       <use xlink:href="#DejaVuSans-38" transform="translate(95.410156 0)"/>
      </g>
     </g>
    </g>
    <g id="ytick_6">
     <g id="line2d_17">
      <path d="M 361.810625 45.938203 
L 836.110625 45.938203 
" clip-path="url(#p2234ec13c1)" style="fill: none; stroke: #e0dfd8; stroke-width: 0.7; stroke-linecap: square"/>
     </g>
     <g id="line2d_18">
      <g>
       <use xlink:href="#m51c67ff907" x="361.810625" y="45.938203" style="fill: #555555; stroke: #555555; stroke-width: 0.8"/>
      </g>
     </g>
     <g id="text_12">
      <!-- 1.0 -->
      <g style="fill: #555555" transform="translate(338.9075 49.737422) scale(0.1 -0.1)">
       <use xlink:href="#DejaVuSans-31"/>
       <use xlink:href="#DejaVuSans-2e" transform="translate(63.623047 0)"/>
       <use xlink:href="#DejaVuSans-30" transform="translate(95.410156 0)"/>
      </g>
     </g>
    </g>
    <g id="text_13">
     <!-- split-half reliability (r) -->
     <g style="fill: #888780" transform="translate(333.035781 233.103047) rotate(-90) scale(0.09 -0.09)">
      <defs>
       <path id="DejaVuSans-68" d="M 3513 2113 
L 3513 0 
L 2938 0 
L 2938 2094 
Q 2938 2591 2744 2837 
Q 2550 3084 2163 3084 
Q 1697 3084 1428 2787 
Q 1159 2491 1159 1978 
L 1159 0 
L 581 0 
L 581 4863 
L 1159 4863 
L 1159 2956 
Q 1366 3272 1645 3428 
Q 1925 3584 2291 3584 
Q 2894 3584 3203 3211 
Q 3513 2838 3513 2113 
z
" transform="scale(0.015625)"/>
       <path id="DejaVuSans-66" d="M 2375 4863 
L 2375 4384 
L 1825 4384 
Q 1516 4384 1395 4259 
Q 1275 4134 1275 3809 
L 1275 3500 
L 2222 3500 
L 2222 3053 
L 1275 3053 
L 1275 0 
L 697 0 
L 697 3053 
L 147 3053 
L 147 3500 
L 697 3500 
L 697 3744 
Q 697 4328 969 4595 
Q 1241 4863 1831 4863 
L 2375 4863 
z
" transform="scale(0.015625)"/>
       <path id="DejaVuSans-72" d="M 2631 2963 
Q 2534 3019 2420 3045 
Q 2306 3072 2169 3072 
Q 1681 3072 1420 2755 
Q 1159 2438 1159 1844 
L 1159 0 
L 581 0 
L 581 3500 
L 1159 3500 
L 1159 2956 
Q 1341 3275 1631 3429 
Q 1922 3584 2338 3584 
Q 2397 3584 2469 3576 
Q 2541 3569 2628 3553 
L 2631 2963 
z
" transform="scale(0.015625)"/>
       <path id="DejaVuSans-62" d="M 3116 1747 
Q 3116 2381 2855 2742 
Q 2594 3103 2138 3103 
Q 1681 3103 1420 2742 
Q 1159 2381 1159 1747 
Q 1159 1113 1420 752 
Q 1681 391 2138 391 
Q 2594 391 2855 752 
Q 3116 1113 3116 1747 
z
M 1159 2969 
Q 1341 3281 1617 3432 
Q 1894 3584 2278 3584 
Q 2916 3584 3314 3078 
Q 3713 2572 3713 1747 
Q 3713 922 3314 415 
Q 2916 -91 2278 -91 
Q 1894 -91 1617 61 
Q 1341 213 1159 525 
L 1159 0 
L 581 0 
L 581 4863 
L 1159 4863 
L 1159 2969 
z
" transform="scale(0.015625)"/>
       <path id="DejaVuSans-28" d="M 1984 4856 
Q 1566 4138 1362 3434 
Q 1159 2731 1159 2009 
Q 1159 1288 1364 580 
Q 1569 -128 1984 -844 
L 1484 -844 
Q 1016 -109 783 600 
Q 550 1309 550 2009 
Q 550 2706 781 3412 
Q 1013 4119 1484 4856 
L 1984 4856 
z
" transform="scale(0.015625)"/>
       <path id="DejaVuSans-29" d="M 513 4856 
L 1013 4856 
Q 1481 4119 1714 3412 
Q 1947 2706 1947 2009 
Q 1947 1309 1714 600 
Q 1481 -109 1013 -844 
L 513 -844 
Q 928 -128 1133 580 
Q 1338 1288 1338 2009 
Q 1338 2731 1133 3434 
Q 928 4138 513 4856 
z
" transform="scale(0.015625)"/>
      </defs>
      <use xlink:href="#DejaVuSans-73"/>
      <use xlink:href="#DejaVuSans-70" transform="translate(52.099609 0)"/>
      <use xlink:href="#DejaVuSans-6c" transform="translate(115.576172 0)"/>
      <use xlink:href="#DejaVuSans-69" transform="translate(143.359375 0)"/>
      <use xlink:href="#DejaVuSans-74" transform="translate(171.142578 0)"/>
      <use xlink:href="#DejaVuSans-2d" transform="translate(210.351562 0)"/>
      <use xlink:href="#DejaVuSans-68" transform="translate(246.435547 0)"/>
      <use xlink:href="#DejaVuSans-61" transform="translate(309.814453 0)"/>
      <use xlink:href="#DejaVuSans-6c" transform="translate(371.09375 0)"/>
      <use xlink:href="#DejaVuSans-66" transform="translate(398.876953 0)"/>
      <use xlink:href="#DejaVuSans-20" transform="translate(434.082031 0)"/>
      <use xlink:href="#DejaVuSans-72" transform="translate(465.869141 0)"/>
      <use xlink:href="#DejaVuSans-65" transform="translate(504.732422 0)"/>
      <use xlink:href="#DejaVuSans-6c" transform="translate(566.255859 0)"/>
      <use xlink:href="#DejaVuSans-69" transform="translate(594.039062 0)"/>
      <use xlink:href="#DejaVuSans-61" transform="translate(621.822266 0)"/>
      <use xlink:href="#DejaVuSans-62" transform="translate(683.101562 0)"/>
      <use xlink:href="#DejaVuSans-69" transform="translate(746.578125 0)"/>
      <use xlink:href="#DejaVuSans-6c" transform="translate(774.361328 0)"/>
      <use xlink:href="#DejaVuSans-69" transform="translate(802.144531 0)"/>
      <use xlink:href="#DejaVuSans-74" transform="translate(829.927734 0)"/>
      <use xlink:href="#DejaVuSans-79" transform="translate(869.136719 0)"/>
      <use xlink:href="#DejaVuSans-20" transform="translate(928.316406 0)"/>
      <use xlink:href="#DejaVuSans-28" transform="translate(960.103516 0)"/>
      <use xlink:href="#DejaVuSans-72" transform="translate(999.117188 0)"/>
      <use xlink:href="#DejaVuSans-29" transform="translate(1040.230469 0)"/>
     </g>
    </g>
   </g>
   <g id="line2d_19">
    <path d="M 361.810625 171.938203 
L 836.110625 171.938203 
" clip-path="url(#p2234ec13c1)" style="fill: none; stroke-dasharray: 4.44,1.92; stroke-dashoffset: 0; stroke: #888780; stroke-width: 1.2"/>
   </g>
   <g id="patch_3">
    <path d="M 361.810625 323.138203 
L 361.810625 45.938203 
" style="fill: none; stroke: #dddddd; stroke-width: 0.8; stroke-linejoin: miter; stroke-linecap: square"/>
   </g>
   <g id="patch_4">
    <path d="M 361.810625 323.138203 
L 836.110625 323.138203 
" style="fill: none; stroke: #dddddd; stroke-width: 0.8; stroke-linejoin: miter; stroke-linecap: square"/>
   </g>
   <g id="text_14">
    <!-- what a reliable metric looks like -->
    <g style="fill: #888780" transform="translate(687.399034 165.234453) scale(0.08 -0.08)">
     <defs>
      <path id="DejaVuSans-77" d="M 269 3500 
L 844 3500 
L 1563 769 
L 2278 3500 
L 2956 3500 
L 3675 769 
L 4391 3500 
L 4966 3500 
L 4050 0 
L 3372 0 
L 2619 2869 
L 1863 0 
L 1184 0 
L 269 3500 
z
" transform="scale(0.015625)"/>
      <path id="DejaVuSans-63" d="M 3122 3366 
L 3122 2828 
Q 2878 2963 2633 3030 
Q 2388 3097 2138 3097 
Q 1578 3097 1268 2742 
Q 959 2388 959 1747 
Q 959 1106 1268 751 
Q 1578 397 2138 397 
Q 2388 397 2633 464 
Q 2878 531 3122 666 
L 3122 134 
Q 2881 22 2623 -34 
Q 2366 -91 2075 -91 
Q 1284 -91 818 406 
Q 353 903 353 1747 
Q 353 2603 823 3093 
Q 1294 3584 2113 3584 
Q 2378 3584 2631 3529 
Q 2884 3475 3122 3366 
z
" transform="scale(0.015625)"/>
      <path id="DejaVuSans-6b" d="M 581 4863 
L 1159 4863 
L 1159 1991 
L 2875 3500 
L 3609 3500 
L 1753 1863 
L 3688 0 
L 2938 0 
L 1159 1709 
L 1159 0 
L 581 0 
L 581 4863 
z
" transform="scale(0.015625)"/>
     </defs>
     <use xlink:href="#DejaVuSans-77"/>
     <use xlink:href="#DejaVuSans-68" transform="translate(81.787109 0)"/>
     <use xlink:href="#DejaVuSans-61" transform="translate(145.166016 0)"/>
     <use xlink:href="#DejaVuSans-74" transform="translate(206.445312 0)"/>
     <use xlink:href="#DejaVuSans-20" transform="translate(245.654297 0)"/>
     <use xlink:href="#DejaVuSans-61" transform="translate(277.441406 0)"/>
     <use xlink:href="#DejaVuSans-20" transform="translate(338.720703 0)"/>
     <use xlink:href="#DejaVuSans-72" transform="translate(370.507812 0)"/>
     <use xlink:href="#DejaVuSans-65" transform="translate(409.371094 0)"/>
     <use xlink:href="#DejaVuSans-6c" transform="translate(470.894531 0)"/>
     <use xlink:href="#DejaVuSans-69" transform="translate(498.677734 0)"/>
     <use xlink:href="#DejaVuSans-61" transform="translate(526.460938 0)"/>
     <use xlink:href="#DejaVuSans-62" transform="translate(587.740234 0)"/>
     <use xlink:href="#DejaVuSans-6c" transform="translate(651.216797 0)"/>
     <use xlink:href="#DejaVuSans-65" transform="translate(679 0)"/>
     <use xlink:href="#DejaVuSans-20" transform="translate(740.523438 0)"/>
     <use xlink:href="#DejaVuSans-6d" transform="translate(772.310547 0)"/>
     <use xlink:href="#DejaVuSans-65" transform="translate(869.722656 0)"/>
     <use xlink:href="#DejaVuSans-74" transform="translate(931.246094 0)"/>
     <use xlink:href="#DejaVuSans-72" transform="translate(970.455078 0)"/>
     <use xlink:href="#DejaVuSans-69" transform="translate(1011.568359 0)"/>
     <use xlink:href="#DejaVuSans-63" transform="translate(1039.351562 0)"/>
     <use xlink:href="#DejaVuSans-20" transform="translate(1094.332031 0)"/>
     <use xlink:href="#DejaVuSans-6c" transform="translate(1126.119141 0)"/>
     <use xlink:href="#DejaVuSans-6f" transform="translate(1153.902344 0)"/>
     <use xlink:href="#DejaVuSans-6f" transform="translate(1215.083984 0)"/>
     <use xlink:href="#DejaVuSans-6b" transform="translate(1276.265625 0)"/>
     <use xlink:href="#DejaVuSans-73" transform="translate(1334.175781 0)"/>
     <use xlink:href="#DejaVuSans-20" transform="translate(1386.275391 0)"/>
     <use xlink:href="#DejaVuSans-6c" transform="translate(1418.0625 0)"/>
     <use xlink:href="#DejaVuSans-69" transform="translate(1445.845703 0)"/>
     <use xlink:href="#DejaVuSans-6b" transform="translate(1473.628906 0)"/>
     <use xlink:href="#DejaVuSans-65" transform="translate(1527.914062 0)"/>
    </g>
   </g>
   <g id="line2d_20">
    <path d="M 383.369716 260.537032 
L 491.16517 268.598664 
L 598.960625 216.44904 
L 706.75608 194.781689 
L 814.551534 194.310955 
" clip-path="url(#p2234ec13c1)" style="fill: none; stroke: #378add; stroke-width: 2; stroke-linecap: square"/>
    <defs>
     <path id="mdc5914cc78" d="M 0 3 
C 0.795609 3 1.55874 2.683901 2.12132 2.12132 
C 2.683901 1.55874 3 0.795609 3 0 
C 3 -0.795609 2.683901 -1.55874 2.12132 -2.12132 
C 1.55874 -2.683901 0.795609 -3 0 -3 
C -0.795609 -3 -1.55874 -2.683901 -2.12132 -2.12132 
C -2.683901 -1.55874 -3 -0.795609 -3 0 
C -3 0.795609 -2.683901 1.55874 -2.12132 2.12132 
C -1.55874 2.683901 -0.795609 3 0 3 
z
" style="stroke: #378add"/>
    </defs>
    <g clip-path="url(#p2234ec13c1)">
     <use xlink:href="#mdc5914cc78" x="383.369716" y="260.537032" style="fill: #378add; stroke: #378add"/>
     <use xlink:href="#mdc5914cc78" x="491.16517" y="268.598664" style="fill: #378add; stroke: #378add"/>
     <use xlink:href="#mdc5914cc78" x="598.960625" y="216.44904" style="fill: #378add; stroke: #378add"/>
     <use xlink:href="#mdc5914cc78" x="706.75608" y="194.781689" style="fill: #378add; stroke: #378add"/>
     <use xlink:href="#mdc5914cc78" x="814.551534" y="194.310955" style="fill: #378add; stroke: #378add"/>
    </g>
   </g>
   <g id="text_15">
    <!-- 0.15 -->
    <g style="fill: #378add" transform="translate(374.463466 281.735782) scale(0.08 -0.08)">
     <use xlink:href="#DejaVuSans-30"/>
     <use xlink:href="#DejaVuSans-2e" transform="translate(63.623047 0)"/>
     <use xlink:href="#DejaVuSans-31" transform="translate(95.410156 0)"/>
     <use xlink:href="#DejaVuSans-35" transform="translate(159.033203 0)"/>
    </g>
   </g>
   <g id="text_16">
    <!-- 0.12 -->
    <g style="fill: #378add" transform="translate(482.25892 289.797414) scale(0.08 -0.08)">
     <use xlink:href="#DejaVuSans-30"/>
     <use xlink:href="#DejaVuSans-2e" transform="translate(63.623047 0)"/>
     <use xlink:href="#DejaVuSans-31" transform="translate(95.410156 0)"/>
     <use xlink:href="#DejaVuSans-32" transform="translate(159.033203 0)"/>
    </g>
   </g>
   <g id="text_17">
    <!-- 0.32 -->
    <g style="fill: #378add" transform="translate(590.054375 237.64779) scale(0.08 -0.08)">
     <use xlink:href="#DejaVuSans-30"/>
     <use xlink:href="#DejaVuSans-2e" transform="translate(63.623047 0)"/>
     <use xlink:href="#DejaVuSans-33" transform="translate(95.410156 0)"/>
     <use xlink:href="#DejaVuSans-32" transform="translate(159.033203 0)"/>
    </g>
   </g>
   <g id="text_18">
    <!-- 0.41 -->
    <g style="fill: #378add" transform="translate(697.84983 215.980439) scale(0.08 -0.08)">
     <use xlink:href="#DejaVuSans-30"/>
     <use xlink:href="#DejaVuSans-2e" transform="translate(63.623047 0)"/>
     <use xlink:href="#DejaVuSans-34" transform="translate(95.410156 0)"/>
     <use xlink:href="#DejaVuSans-31" transform="translate(159.033203 0)"/>
    </g>
   </g>
   <g id="text_19">
    <!-- 0.41 -->
    <g style="fill: #378add" transform="translate(805.645284 215.509705) scale(0.08 -0.08)">
     <use xlink:href="#DejaVuSans-30"/>
     <use xlink:href="#DejaVuSans-2e" transform="translate(63.623047 0)"/>
     <use xlink:href="#DejaVuSans-34" transform="translate(95.410156 0)"/>
     <use xlink:href="#DejaVuSans-31" transform="translate(159.033203 0)"/>
    </g>
   </g>
   <g id="text_20">
    <!-- Two independent halves of the same possession data, correlation of the resulting player ratings; single-season bars stay under the line, pooling seasons carries it over. Year over year, RAPM now tracks itself at r=0.40 (near zero before the fix), and RAPM+prior at r=0.84, matching BPM's r=0.79. -->
    <g style="fill: #888780" transform="translate(7.2 41.502453) scale(0.08 -0.08)">
     <defs>
      <path id="DejaVuSans-54" d="M -19 4666 
L 3928 4666 
L 3928 4134 
L 2272 4134 
L 2272 0 
L 1638 0 
L 1638 4134 
L -19 4134 
L -19 4666 
z
" transform="scale(0.015625)"/>
      <path id="DejaVuSans-76" d="M 191 3500 
L 800 3500 
L 1894 563 
L 2988 3500 
L 3597 3500 
L 2284 0 
L 1503 0 
L 191 3500 
z
" transform="scale(0.015625)"/>
      <path id="DejaVuSans-2c" d="M 750 794 
L 1409 794 
L 1409 256 
L 897 -744 
L 494 -744 
L 750 256 
L 750 794 
z
" transform="scale(0.015625)"/>
      <path id="DejaVuSans-67" d="M 2906 1791 
Q 2906 2416 2648 2759 
Q 2391 3103 1925 3103 
Q 1463 3103 1205 2759 
Q 947 2416 947 1791 
Q 947 1169 1205 825 
Q 1463 481 1925 481 
Q 2391 481 2648 825 
Q 2906 1169 2906 1791 
z
M 3481 434 
Q 3481 -459 3084 -895 
Q 2688 -1331 1869 -1331 
Q 1566 -1331 1297 -1286 
Q 1028 -1241 775 -1147 
L 775 -588 
Q 1028 -725 1275 -790 
Q 1522 -856 1778 -856 
Q 2344 -856 2625 -561 
Q 2906 -266 2906 331 
L 2906 616 
Q 2728 306 2450 153 
Q 2172 0 1784 0 
Q 1141 0 747 490 
Q 353 981 353 1791 
Q 353 2603 747 3093 
Q 1141 3584 1784 3584 
Q 2172 3584 2450 3431 
Q 2728 3278 2906 2969 
L 2906 3500 
L 3481 3500 
L 3481 434 
z
" transform="scale(0.015625)"/>
      <path id="DejaVuSans-3b" d="M 750 3309 
L 1409 3309 
L 1409 2516 
L 750 2516 
L 750 3309 
z
M 750 794 
L 1409 794 
L 1409 256 
L 897 -744 
L 494 -744 
L 750 256 
L 750 794 
z
" transform="scale(0.015625)"/>
      <path id="DejaVuSans-59" d="M -13 4666 
L 666 4666 
L 1959 2747 
L 3244 4666 
L 3922 4666 
L 2272 2222 
L 2272 0 
L 1638 0 
L 1638 2222 
L -13 4666 
z
" transform="scale(0.015625)"/>
      <path id="DejaVuSans-52" d="M 2841 2188 
Q 3044 2119 3236 1894 
Q 3428 1669 3622 1275 
L 4263 0 
L 3584 0 
L 2988 1197 
Q 2756 1666 2539 1819 
Q 2322 1972 1947 1972 
L 1259 1972 
L 1259 0 
L 628 0 
L 628 4666 
L 2053 4666 
Q 2853 4666 3247 4331 
Q 3641 3997 3641 3322 
Q 3641 2881 3436 2590 
Q 3231 2300 2841 2188 
z
M 1259 4147 
L 1259 2491 
L 2053 2491 
Q 2509 2491 2742 2702 
Q 2975 2913 2975 3322 
Q 2975 3731 2742 3939 
Q 2509 4147 2053 4147 
L 1259 4147 
z
" transform="scale(0.015625)"/>
      <path id="DejaVuSans-41" d="M 2188 4044 
L 1331 1722 
L 3047 1722 
L 2188 4044 
z
M 1831 4666 
L 2547 4666 
L 4325 0 
L 3669 0 
L 3244 1197 
L 1141 1197 
L 716 0 
L 50 0 
L 1831 4666 
z
" transform="scale(0.015625)"/>
      <path id="DejaVuSans-50" d="M 1259 4147 
L 1259 2394 
L 2053 2394 
Q 2494 2394 2734 2622 
Q 2975 2850 2975 3272 
Q 2975 3691 2734 3919 
Q 2494 4147 2053 4147 
L 1259 4147 
z
M 628 4666 
L 2053 4666 
Q 2838 4666 3239 4311 
Q 3641 3956 3641 3272 
Q 3641 2581 3239 2228 
Q 2838 1875 2053 1875 
L 1259 1875 
L 1259 0 
L 628 0 
L 628 4666 
z
" transform="scale(0.015625)"/>
      <path id="DejaVuSans-4d" d="M 628 4666 
L 1569 4666 
L 2759 1491 
L 3956 4666 
L 4897 4666 
L 4897 0 
L 4281 0 
L 4281 4097 
L 3078 897 
L 2444 897 
L 1241 4097 
L 1241 0 
L 628 0 
L 628 4666 
z
" transform="scale(0.015625)"/>
      <path id="DejaVuSans-3d" d="M 678 2906 
L 4684 2906 
L 4684 2381 
L 678 2381 
L 678 2906 
z
M 678 1631 
L 4684 1631 
L 4684 1100 
L 678 1100 
L 678 1631 
z
" transform="scale(0.015625)"/>
      <path id="DejaVuSans-7a" d="M 353 3500 
L 3084 3500 
L 3084 2975 
L 922 459 
L 3084 459 
L 3084 0 
L 275 0 
L 275 525 
L 2438 3041 
L 353 3041 
L 353 3500 
z
" transform="scale(0.015625)"/>
      <path id="DejaVuSans-78" d="M 3513 3500 
L 2247 1797 
L 3578 0 
L 2900 0 
L 1881 1375 
L 863 0 
L 184 0 
L 1544 1831 
L 300 3500 
L 978 3500 
L 1906 2253 
L 2834 3500 
L 3513 3500 
z
" transform="scale(0.015625)"/>
      <path id="DejaVuSans-2b" d="M 2944 4013 
L 2944 2272 
L 4684 2272 
L 4684 1741 
L 2944 1741 
L 2944 0 
L 2419 0 
L 2419 1741 
L 678 1741 
L 678 2272 
L 2419 2272 
L 2419 4013 
L 2944 4013 
z
" transform="scale(0.015625)"/>
      <path id="DejaVuSans-42" d="M 1259 2228 
L 1259 519 
L 2272 519 
Q 2781 519 3026 730 
Q 3272 941 3272 1375 
Q 3272 1813 3026 2020 
Q 2781 2228 2272 2228 
L 1259 2228 
z
M 1259 4147 
L 1259 2741 
L 2194 2741 
Q 2656 2741 2882 2914 
Q 3109 3088 3109 3444 
Q 3109 3797 2882 3972 
Q 2656 4147 2194 4147 
L 1259 4147 
z
M 628 4666 
L 2241 4666 
Q 2963 4666 3353 4366 
Q 3744 4066 3744 3513 
Q 3744 3084 3544 2831 
Q 3344 2578 2956 2516 
Q 3422 2416 3680 2098 
Q 3938 1781 3938 1306 
Q 3938 681 3513 340 
Q 3088 0 2303 0 
L 628 0 
L 628 4666 
z
" transform="scale(0.015625)"/>
      <path id="DejaVuSans-27" d="M 1147 4666 
L 1147 2931 
L 616 2931 
L 616 4666 
L 1147 4666 
z
" transform="scale(0.015625)"/>
      <path id="DejaVuSans-37" d="M 525 4666 
L 3525 4666 
L 3525 4397 
L 1831 0 
L 1172 0 
L 2766 4134 
L 525 4134 
L 525 4666 
z
" transform="scale(0.015625)"/>
      <path id="DejaVuSans-39" d="M 703 97 
L 703 672 
Q 941 559 1184 500 
Q 1428 441 1663 441 
Q 2288 441 2617 861 
Q 2947 1281 2994 2138 
Q 2813 1869 2534 1725 
Q 2256 1581 1919 1581 
Q 1219 1581 811 2004 
Q 403 2428 403 3163 
Q 403 3881 828 4315 
Q 1253 4750 1959 4750 
Q 2769 4750 3195 4129 
Q 3622 3509 3622 2328 
Q 3622 1225 3098 567 
Q 2575 -91 1691 -91 
Q 1453 -91 1209 -44 
Q 966 3 703 97 
z
M 1959 2075 
Q 2384 2075 2632 2365 
Q 2881 2656 2881 3163 
Q 2881 3666 2632 3958 
Q 2384 4250 1959 4250 
Q 1534 4250 1286 3958 
Q 1038 3666 1038 3163 
Q 1038 2656 1286 2365 
Q 1534 2075 1959 2075 
z
" transform="scale(0.015625)"/>
     </defs>
     <use xlink:href="#DejaVuSans-54"/>
     <use xlink:href="#DejaVuSans-77" transform="translate(44.583984 0)"/>
     <use xlink:href="#DejaVuSans-6f" transform="translate(126.371094 0)"/>
     <use xlink:href="#DejaVuSans-20" transform="translate(187.552734 0)"/>
     <use xlink:href="#DejaVuSans-69" transform="translate(219.339844 0)"/>
     <use xlink:href="#DejaVuSans-6e" transform="translate(247.123047 0)"/>
     <use xlink:href="#DejaVuSans-64" transform="translate(310.501953 0)"/>
     <use xlink:href="#DejaVuSans-65" transform="translate(373.978516 0)"/>
     <use xlink:href="#DejaVuSans-70" transform="translate(435.501953 0)"/>
     <use xlink:href="#DejaVuSans-65" transform="translate(498.978516 0)"/>
     <use xlink:href="#DejaVuSans-6e" transform="translate(560.501953 0)"/>
     <use xlink:href="#DejaVuSans-64" transform="translate(623.880859 0)"/>
     <use xlink:href="#DejaVuSans-65" transform="translate(687.357422 0)"/>
     <use xlink:href="#DejaVuSans-6e" transform="translate(748.880859 0)"/>
     <use xlink:href="#DejaVuSans-74" transform="translate(812.259766 0)"/>
     <use xlink:href="#DejaVuSans-20" transform="translate(851.46875 0)"/>
     <use xlink:href="#DejaVuSans-68" transform="translate(883.255859 0)"/>
     <use xlink:href="#DejaVuSans-61" transform="translate(946.634766 0)"/>
     <use xlink:href="#DejaVuSans-6c" transform="translate(1007.914062 0)"/>
     <use xlink:href="#DejaVuSans-76" transform="translate(1035.697266 0)"/>
     <use xlink:href="#DejaVuSans-65" transform="translate(1094.876953 0)"/>
     <use xlink:href="#DejaVuSans-73" transform="translate(1156.400391 0)"/>
     <use xlink:href="#DejaVuSans-20" transform="translate(1208.5 0)"/>
     <use xlink:href="#DejaVuSans-6f" transform="translate(1240.287109 0)"/>
     <use xlink:href="#DejaVuSans-66" transform="translate(1301.46875 0)"/>
     <use xlink:href="#DejaVuSans-20" transform="translate(1336.673828 0)"/>
     <use xlink:href="#DejaVuSans-74" transform="translate(1368.460938 0)"/>
     <use xlink:href="#DejaVuSans-68" transform="translate(1407.669922 0)"/>
     <use xlink:href="#DejaVuSans-65" transform="translate(1471.048828 0)"/>
     <use xlink:href="#DejaVuSans-20" transform="translate(1532.572266 0)"/>
     <use xlink:href="#DejaVuSans-73" transform="translate(1564.359375 0)"/>
     <use xlink:href="#DejaVuSans-61" transform="translate(1616.458984 0)"/>
     <use xlink:href="#DejaVuSans-6d" transform="translate(1677.738281 0)"/>
     <use xlink:href="#DejaVuSans-65" transform="translate(1775.150391 0)"/>
     <use xlink:href="#DejaVuSans-20" transform="translate(1836.673828 0)"/>
     <use xlink:href="#DejaVuSans-70" transform="translate(1868.460938 0)"/>
     <use xlink:href="#DejaVuSans-6f" transform="translate(1931.9375 0)"/>
     <use xlink:href="#DejaVuSans-73" transform="translate(1993.119141 0)"/>
     <use xlink:href="#DejaVuSans-73" transform="translate(2045.21875 0)"/>
     <use xlink:href="#DejaVuSans-65" transform="translate(2097.318359 0)"/>
     <use xlink:href="#DejaVuSans-73" transform="translate(2158.841797 0)"/>
     <use xlink:href="#DejaVuSans-73" transform="translate(2210.941406 0)"/>
     <use xlink:href="#DejaVuSans-69" transform="translate(2263.041016 0)"/>
     <use xlink:href="#DejaVuSans-6f" transform="translate(2290.824219 0)"/>
     <use xlink:href="#DejaVuSans-6e" transform="translate(2352.005859 0)"/>
     <use xlink:href="#DejaVuSans-20" transform="translate(2415.384766 0)"/>
     <use xlink:href="#DejaVuSans-64" transform="translate(2447.171875 0)"/>
     <use xlink:href="#DejaVuSans-61" transform="translate(2510.648438 0)"/>
     <use xlink:href="#DejaVuSans-74" transform="translate(2571.927734 0)"/>
     <use xlink:href="#DejaVuSans-61" transform="translate(2611.136719 0)"/>
     <use xlink:href="#DejaVuSans-2c" transform="translate(2672.416016 0)"/>
     <use xlink:href="#DejaVuSans-20" transform="translate(2704.203125 0)"/>
     <use xlink:href="#DejaVuSans-63" transform="translate(2735.990234 0)"/>
     <use xlink:href="#DejaVuSans-6f" transform="translate(2790.970703 0)"/>
     <use xlink:href="#DejaVuSans-72" transform="translate(2852.152344 0)"/>
     <use xlink:href="#DejaVuSans-72" transform="translate(2891.515625 0)"/>
     <use xlink:href="#DejaVuSans-65" transform="translate(2930.378906 0)"/>
     <use xlink:href="#DejaVuSans-6c" transform="translate(2991.902344 0)"/>
     <use xlink:href="#DejaVuSans-61" transform="translate(3019.685547 0)"/>
     <use xlink:href="#DejaVuSans-74" transform="translate(3080.964844 0)"/>
     <use xlink:href="#DejaVuSans-69" transform="translate(3120.173828 0)"/>
     <use xlink:href="#DejaVuSans-6f" transform="translate(3147.957031 0)"/>
     <use xlink:href="#DejaVuSans-6e" transform="translate(3209.138672 0)"/>
     <use xlink:href="#DejaVuSans-20" transform="translate(3272.517578 0)"/>
     <use xlink:href="#DejaVuSans-6f" transform="translate(3304.304688 0)"/>
     <use xlink:href="#DejaVuSans-66" transform="translate(3365.486328 0)"/>
     <use xlink:href="#DejaVuSans-20" transform="translate(3400.691406 0)"/>
     <use xlink:href="#DejaVuSans-74" transform="translate(3432.478516 0)"/>
     <use xlink:href="#DejaVuSans-68" transform="translate(3471.6875 0)"/>
     <use xlink:href="#DejaVuSans-65" transform="translate(3535.066406 0)"/>
     <use xlink:href="#DejaVuSans-20" transform="translate(3596.589844 0)"/>
     <use xlink:href="#DejaVuSans-72" transform="translate(3628.376953 0)"/>
     <use xlink:href="#DejaVuSans-65" transform="translate(3667.240234 0)"/>
     <use xlink:href="#DejaVuSans-73" transform="translate(3728.763672 0)"/>
     <use xlink:href="#DejaVuSans-75" transform="translate(3780.863281 0)"/>
     <use xlink:href="#DejaVuSans-6c" transform="translate(3844.242188 0)"/>
     <use xlink:href="#DejaVuSans-74" transform="translate(3872.025391 0)"/>
     <use xlink:href="#DejaVuSans-69" transform="translate(3911.234375 0)"/>
     <use xlink:href="#DejaVuSans-6e" transform="translate(3939.017578 0)"/>
     <use xlink:href="#DejaVuSans-67" transform="translate(4002.396484 0)"/>
     <use xlink:href="#DejaVuSans-20" transform="translate(4065.873047 0)"/>
     <use xlink:href="#DejaVuSans-70" transform="translate(4097.660156 0)"/>
     <use xlink:href="#DejaVuSans-6c" transform="translate(4161.136719 0)"/>
     <use xlink:href="#DejaVuSans-61" transform="translate(4188.919922 0)"/>
     <use xlink:href="#DejaVuSans-79" transform="translate(4250.199219 0)"/>
     <use xlink:href="#DejaVuSans-65" transform="translate(4309.378906 0)"/>
     <use xlink:href="#DejaVuSans-72" transform="translate(4370.902344 0)"/>
     <use xlink:href="#DejaVuSans-20" transform="translate(4412.015625 0)"/>
     <use xlink:href="#DejaVuSans-72" transform="translate(4443.802734 0)"/>
     <use xlink:href="#DejaVuSans-61" transform="translate(4484.916016 0)"/>
     <use xlink:href="#DejaVuSans-74" transform="translate(4546.195312 0)"/>
     <use xlink:href="#DejaVuSans-69" transform="translate(4585.404297 0)"/>
     <use xlink:href="#DejaVuSans-6e" transform="translate(4613.1875 0)"/>
     <use xlink:href="#DejaVuSans-67" transform="translate(4676.566406 0)"/>
     <use xlink:href="#DejaVuSans-73" transform="translate(4740.042969 0)"/>
     <use xlink:href="#DejaVuSans-3b" transform="translate(4792.142578 0)"/>
     <use xlink:href="#DejaVuSans-20" transform="translate(4825.833984 0)"/>
     <use xlink:href="#DejaVuSans-73" transform="translate(4857.621094 0)"/>
     <use xlink:href="#DejaVuSans-69" transform="translate(4909.720703 0)"/>
     <use xlink:href="#DejaVuSans-6e" transform="translate(4937.503906 0)"/>
     <use xlink:href="#DejaVuSans-67" transform="translate(5000.882812 0)"/>
     <use xlink:href="#DejaVuSans-6c" transform="translate(5064.359375 0)"/>
     <use xlink:href="#DejaVuSans-65" transform="translate(5092.142578 0)"/>
     <use xlink:href="#DejaVuSans-2d" transform="translate(5153.666016 0)"/>
     <use xlink:href="#DejaVuSans-73" transform="translate(5189.75 0)"/>
     <use xlink:href="#DejaVuSans-65" transform="translate(5241.849609 0)"/>
     <use xlink:href="#DejaVuSans-61" transform="translate(5303.373047 0)"/>
     <use xlink:href="#DejaVuSans-73" transform="translate(5364.652344 0)"/>
     <use xlink:href="#DejaVuSans-6f" transform="translate(5416.751953 0)"/>
     <use xlink:href="#DejaVuSans-6e" transform="translate(5477.933594 0)"/>
     <use xlink:href="#DejaVuSans-20" transform="translate(5541.3125 0)"/>
     <use xlink:href="#DejaVuSans-62" transform="translate(5573.099609 0)"/>
     <use xlink:href="#DejaVuSans-61" transform="translate(5636.576172 0)"/>
     <use xlink:href="#DejaVuSans-72" transform="translate(5697.855469 0)"/>
     <use xlink:href="#DejaVuSans-73" transform="translate(5738.96875 0)"/>
     <use xlink:href="#DejaVuSans-20" transform="translate(5791.068359 0)"/>
     <use xlink:href="#DejaVuSans-73" transform="translate(5822.855469 0)"/>
     <use xlink:href="#DejaVuSans-74" transform="translate(5874.955078 0)"/>
     <use xlink:href="#DejaVuSans-61" transform="translate(5914.164062 0)"/>
     <use xlink:href="#DejaVuSans-79" transform="translate(5975.443359 0)"/>
     <use xlink:href="#DejaVuSans-20" transform="translate(6034.623047 0)"/>
     <use xlink:href="#DejaVuSans-75" transform="translate(6066.410156 0)"/>
     <use xlink:href="#DejaVuSans-6e" transform="translate(6129.789062 0)"/>
     <use xlink:href="#DejaVuSans-64" transform="translate(6193.167969 0)"/>
     <use xlink:href="#DejaVuSans-65" transform="translate(6256.644531 0)"/>
     <use xlink:href="#DejaVuSans-72" transform="translate(6318.167969 0)"/>
     <use xlink:href="#DejaVuSans-20" transform="translate(6359.28125 0)"/>
     <use xlink:href="#DejaVuSans-74" transform="translate(6391.068359 0)"/>
     <use xlink:href="#DejaVuSans-68" transform="translate(6430.277344 0)"/>
     <use xlink:href="#DejaVuSans-65" transform="translate(6493.65625 0)"/>
     <use xlink:href="#DejaVuSans-20" transform="translate(6555.179688 0)"/>
     <use xlink:href="#DejaVuSans-6c" transform="translate(6586.966797 0)"/>
     <use xlink:href="#DejaVuSans-69" transform="translate(6614.75 0)"/>
     <use xlink:href="#DejaVuSans-6e" transform="translate(6642.533203 0)"/>
     <use xlink:href="#DejaVuSans-65" transform="translate(6705.912109 0)"/>
     <use xlink:href="#DejaVuSans-2c" transform="translate(6767.435547 0)"/>
     <use xlink:href="#DejaVuSans-20" transform="translate(6799.222656 0)"/>
     <use xlink:href="#DejaVuSans-70" transform="translate(6831.009766 0)"/>
     <use xlink:href="#DejaVuSans-6f" transform="translate(6894.486328 0)"/>
     <use xlink:href="#DejaVuSans-6f" transform="translate(6955.667969 0)"/>
     <use xlink:href="#DejaVuSans-6c" transform="translate(7016.849609 0)"/>
     <use xlink:href="#DejaVuSans-69" transform="translate(7044.632812 0)"/>
     <use xlink:href="#DejaVuSans-6e" transform="translate(7072.416016 0)"/>
     <use xlink:href="#DejaVuSans-67" transform="translate(7135.794922 0)"/>
     <use xlink:href="#DejaVuSans-20" transform="translate(7199.271484 0)"/>
     <use xlink:href="#DejaVuSans-73" transform="translate(7231.058594 0)"/>
     <use xlink:href="#DejaVuSans-65" transform="translate(7283.158203 0)"/>
     <use xlink:href="#DejaVuSans-61" transform="translate(7344.681641 0)"/>
     <use xlink:href="#DejaVuSans-73" transform="translate(7405.960938 0)"/>
     <use xlink:href="#DejaVuSans-6f" transform="translate(7458.060547 0)"/>
     <use xlink:href="#DejaVuSans-6e" transform="translate(7519.242188 0)"/>
     <use xlink:href="#DejaVuSans-73" transform="translate(7582.621094 0)"/>
     <use xlink:href="#DejaVuSans-20" transform="translate(7634.720703 0)"/>
     <use xlink:href="#DejaVuSans-63" transform="translate(7666.507812 0)"/>
     <use xlink:href="#DejaVuSans-61" transform="translate(7721.488281 0)"/>
     <use xlink:href="#DejaVuSans-72" transform="translate(7782.767578 0)"/>
     <use xlink:href="#DejaVuSans-72" transform="translate(7822.130859 0)"/>
     <use xlink:href="#DejaVuSans-69" transform="translate(7863.244141 0)"/>
     <use xlink:href="#DejaVuSans-65" transform="translate(7891.027344 0)"/>
     <use xlink:href="#DejaVuSans-73" transform="translate(7952.550781 0)"/>
     <use xlink:href="#DejaVuSans-20" transform="translate(8004.650391 0)"/>
     <use xlink:href="#DejaVuSans-69" transform="translate(8036.4375 0)"/>
     <use xlink:href="#DejaVuSans-74" transform="translate(8064.220703 0)"/>
     <use xlink:href="#DejaVuSans-20" transform="translate(8103.429688 0)"/>
     <use xlink:href="#DejaVuSans-6f" transform="translate(8135.216797 0)"/>
     <use xlink:href="#DejaVuSans-76" transform="translate(8196.398438 0)"/>
     <use xlink:href="#DejaVuSans-65" transform="translate(8255.578125 0)"/>
     <use xlink:href="#DejaVuSans-72" transform="translate(8317.101562 0)"/>
     <use xlink:href="#DejaVuSans-2e" transform="translate(8349.089844 0)"/>
     <use xlink:href="#DejaVuSans-20" transform="translate(8380.876953 0)"/>
     <use xlink:href="#DejaVuSans-59" transform="translate(8412.664062 0)"/>
     <use xlink:href="#DejaVuSans-65" transform="translate(8460.498047 0)"/>
     <use xlink:href="#DejaVuSans-61" transform="translate(8522.021484 0)"/>
     <use xlink:href="#DejaVuSans-72" transform="translate(8583.300781 0)"/>
     <use xlink:href="#DejaVuSans-20" transform="translate(8624.414062 0)"/>
     <use xlink:href="#DejaVuSans-6f" transform="translate(8656.201172 0)"/>
     <use xlink:href="#DejaVuSans-76" transform="translate(8717.382812 0)"/>
     <use xlink:href="#DejaVuSans-65" transform="translate(8776.5625 0)"/>
     <use xlink:href="#DejaVuSans-72" transform="translate(8838.085938 0)"/>
     <use xlink:href="#DejaVuSans-20" transform="translate(8879.199219 0)"/>
     <use xlink:href="#DejaVuSans-79" transform="translate(8910.986328 0)"/>
     <use xlink:href="#DejaVuSans-65" transform="translate(8970.166016 0)"/>
     <use xlink:href="#DejaVuSans-61" transform="translate(9031.689453 0)"/>
     <use xlink:href="#DejaVuSans-72" transform="translate(9092.96875 0)"/>
     <use xlink:href="#DejaVuSans-2c" transform="translate(9134.082031 0)"/>
     <use xlink:href="#DejaVuSans-20" transform="translate(9165.869141 0)"/>
     <use xlink:href="#DejaVuSans-52" transform="translate(9197.65625 0)"/>
     <use xlink:href="#DejaVuSans-41" transform="translate(9263.138672 0)"/>
     <use xlink:href="#DejaVuSans-50" transform="translate(9331.546875 0)"/>
     <use xlink:href="#DejaVuSans-4d" transform="translate(9391.849609 0)"/>
     <use xlink:href="#DejaVuSans-20" transform="translate(9478.128906 0)"/>
     <use xlink:href="#DejaVuSans-6e" transform="translate(9509.916016 0)"/>
     <use xlink:href="#DejaVuSans-6f" transform="translate(9573.294922 0)"/>
     <use xlink:href="#DejaVuSans-77" transform="translate(9634.476562 0)"/>
     <use xlink:href="#DejaVuSans-20" transform="translate(9716.263672 0)"/>
     <use xlink:href="#DejaVuSans-74" transform="translate(9748.050781 0)"/>
     <use xlink:href="#DejaVuSans-72" transform="translate(9787.259766 0)"/>
     <use xlink:href="#DejaVuSans-61" transform="translate(9828.373047 0)"/>
     <use xlink:href="#DejaVuSans-63" transform="translate(9889.652344 0)"/>
     <use xlink:href="#DejaVuSans-6b" transform="translate(9944.632812 0)"/>
     <use xlink:href="#DejaVuSans-73" transform="translate(10002.542969 0)"/>
     <use xlink:href="#DejaVuSans-20" transform="translate(10054.642578 0)"/>
     <use xlink:href="#DejaVuSans-69" transform="translate(10086.429688 0)"/>
     <use xlink:href="#DejaVuSans-74" transform="translate(10114.212891 0)"/>
     <use xlink:href="#DejaVuSans-73" transform="translate(10153.421875 0)"/>
     <use xlink:href="#DejaVuSans-65" transform="translate(10205.521484 0)"/>
     <use xlink:href="#DejaVuSans-6c" transform="translate(10267.044922 0)"/>
     <use xlink:href="#DejaVuSans-66" transform="translate(10294.828125 0)"/>
     <use xlink:href="#DejaVuSans-20" transform="translate(10330.033203 0)"/>
     <use xlink:href="#DejaVuSans-61" transform="translate(10361.820312 0)"/>
     <use xlink:href="#DejaVuSans-74" transform="translate(10423.099609 0)"/>
     <use xlink:href="#DejaVuSans-20" transform="translate(10462.308594 0)"/>
     <use xlink:href="#DejaVuSans-72" transform="translate(10494.095703 0)"/>
     <use xlink:href="#DejaVuSans-3d" transform="translate(10535.208984 0)"/>
     <use xlink:href="#DejaVuSans-30" transform="translate(10618.998047 0)"/>
     <use xlink:href="#DejaVuSans-2e" transform="translate(10682.621094 0)"/>
     <use xlink:href="#DejaVuSans-34" transform="translate(10714.408203 0)"/>
     <use xlink:href="#DejaVuSans-30" transform="translate(10778.03125 0)"/>
     <use xlink:href="#DejaVuSans-20" transform="translate(10841.654297 0)"/>
     <use xlink:href="#DejaVuSans-28" transform="translate(10873.441406 0)"/>
     <use xlink:href="#DejaVuSans-6e" transform="translate(10912.455078 0)"/>
     <use xlink:href="#DejaVuSans-65" transform="translate(10975.833984 0)"/>
     <use xlink:href="#DejaVuSans-61" transform="translate(11037.357422 0)"/>
     <use xlink:href="#DejaVuSans-72" transform="translate(11098.636719 0)"/>
     <use xlink:href="#DejaVuSans-20" transform="translate(11139.75 0)"/>
     <use xlink:href="#DejaVuSans-7a" transform="translate(11171.537109 0)"/>
     <use xlink:href="#DejaVuSans-65" transform="translate(11224.027344 0)"/>
     <use xlink:href="#DejaVuSans-72" transform="translate(11285.550781 0)"/>
     <use xlink:href="#DejaVuSans-6f" transform="translate(11324.414062 0)"/>
     <use xlink:href="#DejaVuSans-20" transform="translate(11385.595703 0)"/>
     <use xlink:href="#DejaVuSans-62" transform="translate(11417.382812 0)"/>
     <use xlink:href="#DejaVuSans-65" transform="translate(11480.859375 0)"/>
     <use xlink:href="#DejaVuSans-66" transform="translate(11542.382812 0)"/>
     <use xlink:href="#DejaVuSans-6f" transform="translate(11577.587891 0)"/>
     <use xlink:href="#DejaVuSans-72" transform="translate(11638.769531 0)"/>
     <use xlink:href="#DejaVuSans-65" transform="translate(11677.632812 0)"/>
     <use xlink:href="#DejaVuSans-20" transform="translate(11739.15625 0)"/>
     <use xlink:href="#DejaVuSans-74" transform="translate(11770.943359 0)"/>
     <use xlink:href="#DejaVuSans-68" transform="translate(11810.152344 0)"/>
     <use xlink:href="#DejaVuSans-65" transform="translate(11873.53125 0)"/>
     <use xlink:href="#DejaVuSans-20" transform="translate(11935.054688 0)"/>
     <use xlink:href="#DejaVuSans-66" transform="translate(11966.841797 0)"/>
     <use xlink:href="#DejaVuSans-69" transform="translate(12002.046875 0)"/>
     <use xlink:href="#DejaVuSans-78" transform="translate(12029.830078 0)"/>
     <use xlink:href="#DejaVuSans-29" transform="translate(12089.009766 0)"/>
     <use xlink:href="#DejaVuSans-2c" transform="translate(12128.023438 0)"/>
     <use xlink:href="#DejaVuSans-20" transform="translate(12159.810547 0)"/>
     <use xlink:href="#DejaVuSans-61" transform="translate(12191.597656 0)"/>
     <use xlink:href="#DejaVuSans-6e" transform="translate(12252.876953 0)"/>
     <use xlink:href="#DejaVuSans-64" transform="translate(12316.255859 0)"/>
     <use xlink:href="#DejaVuSans-20" transform="translate(12379.732422 0)"/>
     <use xlink:href="#DejaVuSans-52" transform="translate(12411.519531 0)"/>
     <use xlink:href="#DejaVuSans-41" transform="translate(12477.001953 0)"/>
     <use xlink:href="#DejaVuSans-50" transform="translate(12545.410156 0)"/>
     <use xlink:href="#DejaVuSans-4d" transform="translate(12605.712891 0)"/>
     <use xlink:href="#DejaVuSans-2b" transform="translate(12691.992188 0)"/>
     <use xlink:href="#DejaVuSans-70" transform="translate(12775.78125 0)"/>
     <use xlink:href="#DejaVuSans-72" transform="translate(12839.257812 0)"/>
     <use xlink:href="#DejaVuSans-69" transform="translate(12880.371094 0)"/>
     <use xlink:href="#DejaVuSans-6f" transform="translate(12908.154297 0)"/>
     <use xlink:href="#DejaVuSans-72" transform="translate(12969.335938 0)"/>
     <use xlink:href="#DejaVuSans-20" transform="translate(13010.449219 0)"/>
     <use xlink:href="#DejaVuSans-61" transform="translate(13042.236328 0)"/>
     <use xlink:href="#DejaVuSans-74" transform="translate(13103.515625 0)"/>
     <use xlink:href="#DejaVuSans-20" transform="translate(13142.724609 0)"/>
     <use xlink:href="#DejaVuSans-72" transform="translate(13174.511719 0)"/>
     <use xlink:href="#DejaVuSans-3d" transform="translate(13215.625 0)"/>
     <use xlink:href="#DejaVuSans-30" transform="translate(13299.414062 0)"/>
     <use xlink:href="#DejaVuSans-2e" transform="translate(13363.037109 0)"/>
     <use xlink:href="#DejaVuSans-38" transform="translate(13394.824219 0)"/>
     <use xlink:href="#DejaVuSans-34" transform="translate(13458.447266 0)"/>
     <use xlink:href="#DejaVuSans-2c" transform="translate(13522.070312 0)"/>
     <use xlink:href="#DejaVuSans-20" transform="translate(13553.857422 0)"/>
     <use xlink:href="#DejaVuSans-6d" transform="translate(13585.644531 0)"/>
     <use xlink:href="#DejaVuSans-61" transform="translate(13683.056641 0)"/>
     <use xlink:href="#DejaVuSans-74" transform="translate(13744.335938 0)"/>
     <use xlink:href="#DejaVuSans-63" transform="translate(13783.544922 0)"/>
     <use xlink:href="#DejaVuSans-68" transform="translate(13838.525391 0)"/>
     <use xlink:href="#DejaVuSans-69" transform="translate(13901.904297 0)"/>
     <use xlink:href="#DejaVuSans-6e" transform="translate(13929.6875 0)"/>
     <use xlink:href="#DejaVuSans-67" transform="translate(13993.066406 0)"/>
     <use xlink:href="#DejaVuSans-20" transform="translate(14056.542969 0)"/>
     <use xlink:href="#DejaVuSans-42" transform="translate(14088.330078 0)"/>
     <use xlink:href="#DejaVuSans-50" transform="translate(14156.933594 0)"/>
     <use xlink:href="#DejaVuSans-4d" transform="translate(14217.236328 0)"/>
     <use xlink:href="#DejaVuSans-27" transform="translate(14303.515625 0)"/>
     <use xlink:href="#DejaVuSans-73" transform="translate(14331.005859 0)"/>
     <use xlink:href="#DejaVuSans-20" transform="translate(14383.105469 0)"/>
     <use xlink:href="#DejaVuSans-72" transform="translate(14414.892578 0)"/>
     <use xlink:href="#DejaVuSans-3d" transform="translate(14456.005859 0)"/>
     <use xlink:href="#DejaVuSans-30" transform="translate(14539.794922 0)"/>
     <use xlink:href="#DejaVuSans-2e" transform="translate(14603.417969 0)"/>
     <use xlink:href="#DejaVuSans-37" transform="translate(14635.205078 0)"/>
     <use xlink:href="#DejaVuSans-39" transform="translate(14698.828125 0)"/>
     <use xlink:href="#DejaVuSans-2e" transform="translate(14762.451172 0)"/>
    </g>
   </g>
   <g id="text_21">
    <!-- The reconstruction fix revived RAPM: split-half reliability roughly tripled, and pooling seasons carries it over the usable line -->
    <g style="fill: #222222" transform="translate(245.411992 15.938203) scale(0.115 -0.115)">
     <defs>
      <path id="DejaVuSans-3a" d="M 750 794 
L 1409 794 
L 1409 0 
L 750 0 
L 750 794 
z
M 750 3309 
L 1409 3309 
L 1409 2516 
L 750 2516 
L 750 3309 
z
" transform="scale(0.015625)"/>
     </defs>
     <use xlink:href="#DejaVuSans-54"/>
     <use xlink:href="#DejaVuSans-68" transform="translate(61.083984 0)"/>
     <use xlink:href="#DejaVuSans-65" transform="translate(124.462891 0)"/>
     <use xlink:href="#DejaVuSans-20" transform="translate(185.986328 0)"/>
     <use xlink:href="#DejaVuSans-72" transform="translate(217.773438 0)"/>
     <use xlink:href="#DejaVuSans-65" transform="translate(256.636719 0)"/>
     <use xlink:href="#DejaVuSans-63" transform="translate(318.160156 0)"/>
     <use xlink:href="#DejaVuSans-6f" transform="translate(373.140625 0)"/>
     <use xlink:href="#DejaVuSans-6e" transform="translate(434.322266 0)"/>
     <use xlink:href="#DejaVuSans-73" transform="translate(497.701172 0)"/>
     <use xlink:href="#DejaVuSans-74" transform="translate(549.800781 0)"/>
     <use xlink:href="#DejaVuSans-72" transform="translate(589.009766 0)"/>
     <use xlink:href="#DejaVuSans-75" transform="translate(630.123047 0)"/>
     <use xlink:href="#DejaVuSans-63" transform="translate(693.501953 0)"/>
     <use xlink:href="#DejaVuSans-74" transform="translate(748.482422 0)"/>
     <use xlink:href="#DejaVuSans-69" transform="translate(787.691406 0)"/>
     <use xlink:href="#DejaVuSans-6f" transform="translate(815.474609 0)"/>
     <use xlink:href="#DejaVuSans-6e" transform="translate(876.65625 0)"/>
     <use xlink:href="#DejaVuSans-20" transform="translate(940.035156 0)"/>
     <use xlink:href="#DejaVuSans-66" transform="translate(971.822266 0)"/>
     <use xlink:href="#DejaVuSans-69" transform="translate(1007.027344 0)"/>
     <use xlink:href="#DejaVuSans-78" transform="translate(1034.810547 0)"/>
     <use xlink:href="#DejaVuSans-20" transform="translate(1093.990234 0)"/>
     <use xlink:href="#DejaVuSans-72" transform="translate(1125.777344 0)"/>
     <use xlink:href="#DejaVuSans-65" transform="translate(1164.640625 0)"/>
     <use xlink:href="#DejaVuSans-76" transform="translate(1226.164062 0)"/>
     <use xlink:href="#DejaVuSans-69" transform="translate(1285.34375 0)"/>
     <use xlink:href="#DejaVuSans-76" transform="translate(1313.126953 0)"/>
     <use xlink:href="#DejaVuSans-65" transform="translate(1372.306641 0)"/>
     <use xlink:href="#DejaVuSans-64" transform="translate(1433.830078 0)"/>
     <use xlink:href="#DejaVuSans-20" transform="translate(1497.306641 0)"/>
     <use xlink:href="#DejaVuSans-52" transform="translate(1529.09375 0)"/>
     <use xlink:href="#DejaVuSans-41" transform="translate(1594.576172 0)"/>
     <use xlink:href="#DejaVuSans-50" transform="translate(1662.984375 0)"/>
     <use xlink:href="#DejaVuSans-4d" transform="translate(1723.287109 0)"/>
     <use xlink:href="#DejaVuSans-3a" transform="translate(1809.566406 0)"/>
     <use xlink:href="#DejaVuSans-20" transform="translate(1843.257812 0)"/>
     <use xlink:href="#DejaVuSans-73" transform="translate(1875.044922 0)"/>
     <use xlink:href="#DejaVuSans-70" transform="translate(1927.144531 0)"/>
     <use xlink:href="#DejaVuSans-6c" transform="translate(1990.621094 0)"/>
     <use xlink:href="#DejaVuSans-69" transform="translate(2018.404297 0)"/>
     <use xlink:href="#DejaVuSans-74" transform="translate(2046.1875 0)"/>
     <use xlink:href="#DejaVuSans-2d" transform="translate(2085.396484 0)"/>
     <use xlink:href="#DejaVuSans-68" transform="translate(2121.480469 0)"/>
     <use xlink:href="#DejaVuSans-61" transform="translate(2184.859375 0)"/>
     <use xlink:href="#DejaVuSans-6c" transform="translate(2246.138672 0)"/>
     <use xlink:href="#DejaVuSans-66" transform="translate(2273.921875 0)"/>
     <use xlink:href="#DejaVuSans-20" transform="translate(2309.126953 0)"/>
     <use xlink:href="#DejaVuSans-72" transform="translate(2340.914062 0)"/>
     <use xlink:href="#DejaVuSans-65" transform="translate(2379.777344 0)"/>
     <use xlink:href="#DejaVuSans-6c" transform="translate(2441.300781 0)"/>
     <use xlink:href="#DejaVuSans-69" transform="translate(2469.083984 0)"/>
     <use xlink:href="#DejaVuSans-61" transform="translate(2496.867188 0)"/>
     <use xlink:href="#DejaVuSans-62" transform="translate(2558.146484 0)"/>
     <use xlink:href="#DejaVuSans-69" transform="translate(2621.623047 0)"/>
     <use xlink:href="#DejaVuSans-6c" transform="translate(2649.40625 0)"/>
     <use xlink:href="#DejaVuSans-69" transform="translate(2677.189453 0)"/>
     <use xlink:href="#DejaVuSans-74" transform="translate(2704.972656 0)"/>
     <use xlink:href="#DejaVuSans-79" transform="translate(2744.181641 0)"/>
     <use xlink:href="#DejaVuSans-20" transform="translate(2803.361328 0)"/>
     <use xlink:href="#DejaVuSans-72" transform="translate(2835.148438 0)"/>
     <use xlink:href="#DejaVuSans-6f" transform="translate(2874.011719 0)"/>
     <use xlink:href="#DejaVuSans-75" transform="translate(2935.193359 0)"/>
     <use xlink:href="#DejaVuSans-67" transform="translate(2998.572266 0)"/>
     <use xlink:href="#DejaVuSans-68" transform="translate(3062.048828 0)"/>
     <use xlink:href="#DejaVuSans-6c" transform="translate(3125.427734 0)"/>
     <use xlink:href="#DejaVuSans-79" transform="translate(3153.210938 0)"/>
     <use xlink:href="#DejaVuSans-20" transform="translate(3212.390625 0)"/>
     <use xlink:href="#DejaVuSans-74" transform="translate(3244.177734 0)"/>
     <use xlink:href="#DejaVuSans-72" transform="translate(3283.386719 0)"/>
     <use xlink:href="#DejaVuSans-69" transform="translate(3324.5 0)"/>
     <use xlink:href="#DejaVuSans-70" transform="translate(3352.283203 0)"/>
     <use xlink:href="#DejaVuSans-6c" transform="translate(3415.759766 0)"/>
     <use xlink:href="#DejaVuSans-65" transform="translate(3443.542969 0)"/>
     <use xlink:href="#DejaVuSans-64" transform="translate(3505.066406 0)"/>
     <use xlink:href="#DejaVuSans-2c" transform="translate(3568.542969 0)"/>
     <use xlink:href="#DejaVuSans-20" transform="translate(3600.330078 0)"/>
     <use xlink:href="#DejaVuSans-61" transform="translate(3632.117188 0)"/>
     <use xlink:href="#DejaVuSans-6e" transform="translate(3693.396484 0)"/>
     <use xlink:href="#DejaVuSans-64" transform="translate(3756.775391 0)"/>
     <use xlink:href="#DejaVuSans-20" transform="translate(3820.251953 0)"/>
     <use xlink:href="#DejaVuSans-70" transform="translate(3852.039062 0)"/>
     <use xlink:href="#DejaVuSans-6f" transform="translate(3915.515625 0)"/>
     <use xlink:href="#DejaVuSans-6f" transform="translate(3976.697266 0)"/>
     <use xlink:href="#DejaVuSans-6c" transform="translate(4037.878906 0)"/>
     <use xlink:href="#DejaVuSans-69" transform="translate(4065.662109 0)"/>
     <use xlink:href="#DejaVuSans-6e" transform="translate(4093.445312 0)"/>
     <use xlink:href="#DejaVuSans-67" transform="translate(4156.824219 0)"/>
     <use xlink:href="#DejaVuSans-20" transform="translate(4220.300781 0)"/>
     <use xlink:href="#DejaVuSans-73" transform="translate(4252.087891 0)"/>
     <use xlink:href="#DejaVuSans-65" transform="translate(4304.1875 0)"/>
     <use xlink:href="#DejaVuSans-61" transform="translate(4365.710938 0)"/>
     <use xlink:href="#DejaVuSans-73" transform="translate(4426.990234 0)"/>
     <use xlink:href="#DejaVuSans-6f" transform="translate(4479.089844 0)"/>
     <use xlink:href="#DejaVuSans-6e" transform="translate(4540.271484 0)"/>
     <use xlink:href="#DejaVuSans-73" transform="translate(4603.650391 0)"/>
     <use xlink:href="#DejaVuSans-20" transform="translate(4655.75 0)"/>
     <use xlink:href="#DejaVuSans-63" transform="translate(4687.537109 0)"/>
     <use xlink:href="#DejaVuSans-61" transform="translate(4742.517578 0)"/>
     <use xlink:href="#DejaVuSans-72" transform="translate(4803.796875 0)"/>
     <use xlink:href="#DejaVuSans-72" transform="translate(4843.160156 0)"/>
     <use xlink:href="#DejaVuSans-69" transform="translate(4884.273438 0)"/>
     <use xlink:href="#DejaVuSans-65" transform="translate(4912.056641 0)"/>
     <use xlink:href="#DejaVuSans-73" transform="translate(4973.580078 0)"/>
     <use xlink:href="#DejaVuSans-20" transform="translate(5025.679688 0)"/>
     <use xlink:href="#DejaVuSans-69" transform="translate(5057.466797 0)"/>
     <use xlink:href="#DejaVuSans-74" transform="translate(5085.25 0)"/>
     <use xlink:href="#DejaVuSans-20" transform="translate(5124.458984 0)"/>
     <use xlink:href="#DejaVuSans-6f" transform="translate(5156.246094 0)"/>
     <use xlink:href="#DejaVuSans-76" transform="translate(5217.427734 0)"/>
     <use xlink:href="#DejaVuSans-65" transform="translate(5276.607422 0)"/>
     <use xlink:href="#DejaVuSans-72" transform="translate(5338.130859 0)"/>
     <use xlink:href="#DejaVuSans-20" transform="translate(5379.244141 0)"/>
     <use xlink:href="#DejaVuSans-74" transform="translate(5411.03125 0)"/>
     <use xlink:href="#DejaVuSans-68" transform="translate(5450.240234 0)"/>
     <use xlink:href="#DejaVuSans-65" transform="translate(5513.619141 0)"/>
     <use xlink:href="#DejaVuSans-20" transform="translate(5575.142578 0)"/>
     <use xlink:href="#DejaVuSans-75" transform="translate(5606.929688 0)"/>
     <use xlink:href="#DejaVuSans-73" transform="translate(5670.308594 0)"/>
     <use xlink:href="#DejaVuSans-61" transform="translate(5722.408203 0)"/>
     <use xlink:href="#DejaVuSans-62" transform="translate(5783.6875 0)"/>
     <use xlink:href="#DejaVuSans-6c" transform="translate(5847.164062 0)"/>
     <use xlink:href="#DejaVuSans-65" transform="translate(5874.947266 0)"/>
     <use xlink:href="#DejaVuSans-20" transform="translate(5936.470703 0)"/>
     <use xlink:href="#DejaVuSans-6c" transform="translate(5968.257812 0)"/>
     <use xlink:href="#DejaVuSans-69" transform="translate(5996.041016 0)"/>
     <use xlink:href="#DejaVuSans-6e" transform="translate(6023.824219 0)"/>
     <use xlink:href="#DejaVuSans-65" transform="translate(6087.203125 0)"/>
    </g>
   </g>
  </g>
 </g>
 <defs>
  <clipPath id="p2234ec13c1">
   <rect x="361.810625" y="45.938203" width="474.3" height="277.2"/>
  </clipPath>
 </defs>
</svg>
