<?xml version="1.0" encoding="utf-8" standalone="no"?>
<!DOCTYPE svg PUBLIC "-//W3C//DTD SVG 1.1//EN"
  "http://www.w3.org/Graphics/SVG/1.1/DTD/svg11.dtd">
<svg xmlns:xlink="http://www.w3.org/1999/xlink" width="532.701336pt" height="383.906562pt" viewBox="0 0 532.701336 383.906562" xmlns="http://www.w3.org/2000/svg" version="1.1">
 <metadata>
  <rdf:RDF xmlns:dc="http://purl.org/dc/elements/1.1/" xmlns:cc="http://creativecommons.org/ns#" xmlns:rdf="http://www.w3.org/1999/02/22-rdf-syntax-ns#">
   <cc:Work>
    <dc:type rdf:resource="http://purl.org/dc/dcmitype/StillImage"/>
    <dc:date>2026-07-01T20:08:24.078636</dc:date>
    <dc:format>image/svg+xml</dc:format>
    <dc:creator>
     <cc:Agent>
      <dc:title>Matplotlib v3.10.9, https://matplotlib.org/</dc:title>
     </cc:Agent>
    </dc:creator>
   </cc:Work>
  </rdf:RDF>
 </metadata>
 <defs>
  <style type="text/css">*{stroke-linejoin: round; stroke-linecap: butt}</style>
 </defs>
 <g id="figure_1">
  <g id="patch_1">
   <path d="M 0 383.906562 
L 532.701336 383.906562 
L 532.701336 0 
L 0 0 
z
" style="fill: #f9f9f7"/>
  </g>
  <g id="axes_1">
   <g id="patch_2">
    <path d="M 97.515 347.318125 
L 524.831193 347.318125 
L 524.831193 40.318125 
L 97.515 40.318125 
z
" style="fill: #ffffff"/>
   </g>
   <g id="matplotlib.axis_1">
    <g id="xtick_1">
     <g id="line2d_1">
      <path d="M 127.08203 347.318125 
L 127.08203 40.318125 
" clip-path="url(#p6d7a4a2324)" style="fill: none; stroke: #e0dfd8; stroke-width: 0.7; stroke-linecap: square"/>
     </g>
     <g id="line2d_2">
      <defs>
       <path id="mb78351ae17" d="M 0 0 
L 0 3.5 
" style="stroke: #000000; stroke-width: 0.8"/>
      </defs>
      <g>
       <use xlink:href="#mb78351ae17" x="127.08203" y="347.318125" style="stroke: #000000; stroke-width: 0.8"/>
      </g>
     </g>
     <g id="text_1">
      <!-- −1.5 -->
      <g transform="translate(114.940624 361.916562) scale(0.1 -0.1)">
       <defs>
        <path id="DejaVuSans-2212" d="M 678 2272 
L 4684 2272 
L 4684 1741 
L 678 1741 
L 678 2272 
z
" transform="scale(0.015625)"/>
        <path id="DejaVuSans-31" d="M 794 531 
L 1825 531 
L 1825 4091 
L 703 3866 
L 703 4441 
L 1819 4666 
L 2450 4666 
L 2450 531 
L 3481 531 
L 3481 0 
L 794 0 
L 794 531 
z
" transform="scale(0.015625)"/>
        <path id="DejaVuSans-2e" d="M 684 794 
L 1344 794 
L 1344 0 
L 684 0 
L 684 794 
z
" transform="scale(0.015625)"/>
        <path id="DejaVuSans-35" d="M 691 4666 
L 3169 4666 
L 3169 4134 
L 1269 4134 
L 1269 2991 
Q 1406 3038 1543 3061 
Q 1681 3084 1819 3084 
Q 2600 3084 3056 2656 
Q 3513 2228 3513 1497 
Q 3513 744 3044 326 
Q 2575 -91 1722 -91 
Q 1428 -91 1123 -41 
Q 819 9 494 109 
L 494 744 
Q 775 591 1075 516 
Q 1375 441 1709 441 
Q 2250 441 2565 725 
Q 2881 1009 2881 1497 
Q 2881 1984 2565 2268 
Q 2250 2553 1709 2553 
Q 1456 2553 1204 2497 
Q 953 2441 691 2322 
L 691 4666 
z
" transform="scale(0.015625)"/>
       </defs>
       <use xlink:href="#DejaVuSans-2212"/>
       <use xlink:href="#DejaVuSans-31" transform="translate(83.789062 0)"/>
       <use xlink:href="#DejaVuSans-2e" transform="translate(147.412109 0)"/>
       <use xlink:href="#DejaVuSans-35" transform="translate(179.199219 0)"/>
      </g>
     </g>
    </g>
    <g id="xtick_2">
     <g id="line2d_3">
      <path d="M 192.159987 347.318125 
L 192.159987 40.318125 
" clip-path="url(#p6d7a4a2324)" style="fill: none; stroke: #e0dfd8; stroke-width: 0.7; stroke-linecap: square"/>
     </g>
     <g id="line2d_4">
      <g>
       <use xlink:href="#mb78351ae17" x="192.159987" y="347.318125" style="stroke: #000000; stroke-width: 0.8"/>
      </g>
     </g>
     <g id="text_2">
      <!-- −1.0 -->
      <g transform="translate(180.018581 361.916562) scale(0.1 -0.1)">
       <defs>
        <path id="DejaVuSans-30" d="M 2034 4250 
Q 1547 4250 1301 3770 
Q 1056 3291 1056 2328 
Q 1056 1369 1301 889 
Q 1547 409 2034 409 
Q 2525 409 2770 889 
Q 3016 1369 3016 2328 
Q 3016 3291 2770 3770 
Q 2525 4250 2034 4250 
z
M 2034 4750 
Q 2819 4750 3233 4129 
Q 3647 3509 3647 2328 
Q 3647 1150 3233 529 
Q 2819 -91 2034 -91 
Q 1250 -91 836 529 
Q 422 1150 422 2328 
Q 422 3509 836 4129 
Q 1250 4750 2034 4750 
z
" transform="scale(0.015625)"/>
       </defs>
       <use xlink:href="#DejaVuSans-2212"/>
       <use xlink:href="#DejaVuSans-31" transform="translate(83.789062 0)"/>
       <use xlink:href="#DejaVuSans-2e" transform="translate(147.412109 0)"/>
       <use xlink:href="#DejaVuSans-30" transform="translate(179.199219 0)"/>
      </g>
     </g>
    </g>
    <g id="xtick_3">
     <g id="line2d_5">
      <path d="M 257.237945 347.318125 
L 257.237945 40.318125 
" clip-path="url(#p6d7a4a2324)" style="fill: none; stroke: #e0dfd8; stroke-width: 0.7; stroke-linecap: square"/>
     </g>
     <g id="line2d_6">
      <g>
       <use xlink:href="#mb78351ae17" x="257.237945" y="347.318125" style="stroke: #000000; stroke-width: 0.8"/>
      </g>
     </g>
     <g id="text_3">
      <!-- −0.5 -->
      <g transform="translate(245.096538 361.916562) scale(0.1 -0.1)">
       <use xlink:href="#DejaVuSans-2212"/>
       <use xlink:href="#DejaVuSans-30" transform="translate(83.789062 0)"/>
       <use xlink:href="#DejaVuSans-2e" transform="translate(147.412109 0)"/>
       <use xlink:href="#DejaVuSans-35" transform="translate(179.199219 0)"/>
      </g>
     </g>
    </g>
    <g id="xtick_4">
     <g id="line2d_7">
      <path d="M 322.315902 347.318125 
L 322.315902 40.318125 
" clip-path="url(#p6d7a4a2324)" style="fill: none; stroke: #e0dfd8; stroke-width: 0.7; stroke-linecap: square"/>
     </g>
     <g id="line2d_8">
      <g>
       <use xlink:href="#mb78351ae17" x="322.315902" y="347.318125" style="stroke: #000000; stroke-width: 0.8"/>
      </g>
     </g>
     <g id="text_4">
      <!-- 0.0 -->
      <g transform="translate(314.364339 361.916562) scale(0.1 -0.1)">
       <use xlink:href="#DejaVuSans-30"/>
       <use xlink:href="#DejaVuSans-2e" transform="translate(63.623047 0)"/>
       <use xlink:href="#DejaVuSans-30" transform="translate(95.410156 0)"/>
      </g>
     </g>
    </g>
    <g id="xtick_5">
     <g id="line2d_9">
      <path d="M 387.393859 347.318125 
L 387.393859 40.318125 
" clip-path="url(#p6d7a4a2324)" style="fill: none; stroke: #e0dfd8; stroke-width: 0.7; stroke-linecap: square"/>
     </g>
     <g id="line2d_10">
      <g>
       <use xlink:href="#mb78351ae17" x="387.393859" y="347.318125" style="stroke: #000000; stroke-width: 0.8"/>
      </g>
     </g>
     <g id="text_5">
      <!-- 0.5 -->
      <g transform="translate(379.442296 361.916562) scale(0.1 -0.1)">
       <use xlink:href="#DejaVuSans-30"/>
       <use xlink:href="#DejaVuSans-2e" transform="translate(63.623047 0)"/>
       <use xlink:href="#DejaVuSans-35" transform="translate(95.410156 0)"/>
      </g>
     </g>
    </g>
    <g id="xtick_6">
     <g id="line2d_11">
      <path d="M 452.471816 347.318125 
L 452.471816 40.318125 
" clip-path="url(#p6d7a4a2324)" style="fill: none; stroke: #e0dfd8; stroke-width: 0.7; stroke-linecap: square"/>
     </g>
     <g id="line2d_12">
      <g>
       <use xlink:href="#mb78351ae17" x="452.471816" y="347.318125" style="stroke: #000000; stroke-width: 0.8"/>
      </g>
     </g>
     <g id="text_6">
      <!-- 1.0 -->
      <g transform="translate(444.520253 361.916562) scale(0.1 -0.1)">
       <use xlink:href="#DejaVuSans-31"/>
       <use xlink:href="#DejaVuSans-2e" transform="translate(63.623047 0)"/>
       <use xlink:href="#DejaVuSans-30" transform="translate(95.410156 0)"/>
      </g>
     </g>
    </g>
    <g id="xtick_7">
     <g id="line2d_13">
      <path d="M 517.549773 347.318125 
L 517.549773 40.318125 
" clip-path="url(#p6d7a4a2324)" style="fill: none; stroke: #e0dfd8; stroke-width: 0.7; stroke-linecap: square"/>
     </g>
     <g id="line2d_14">
      <g>
       <use xlink:href="#mb78351ae17" x="517.549773" y="347.318125" style="stroke: #000000; stroke-width: 0.8"/>
      </g>
     </g>
     <g id="text_7">
      <!-- 1.5 -->
      <g transform="translate(509.598211 361.916562) scale(0.1 -0.1)">
       <use xlink:href="#DejaVuSans-31"/>
       <use xlink:href="#DejaVuSans-2e" transform="translate(63.623047 0)"/>
       <use xlink:href="#DejaVuSans-35" transform="translate(95.410156 0)"/>
      </g>
     </g>
    </g>
    <g id="text_8">
     <!-- Change in consensus rating (z-score), 2024-25 → 2025-26 -->
     <g style="fill: #888780" transform="translate(180.523331 374.834844) scale(0.09 -0.09)">
      <defs>
       <path id="DejaVuSans-43" d="M 4122 4306 
L 4122 3641 
Q 3803 3938 3442 4084 
Q 3081 4231 2675 4231 
Q 1875 4231 1450 3742 
Q 1025 3253 1025 2328 
Q 1025 1406 1450 917 
Q 1875 428 2675 428 
Q 3081 428 3442 575 
Q 3803 722 4122 1019 
L 4122 359 
Q 3791 134 3420 21 
Q 3050 -91 2638 -91 
Q 1578 -91 968 557 
Q 359 1206 359 2328 
Q 359 3453 968 4101 
Q 1578 4750 2638 4750 
Q 3056 4750 3426 4639 
Q 3797 4528 4122 4306 
z
" transform="scale(0.015625)"/>
       <path id="DejaVuSans-68" d="M 3513 2113 
L 3513 0 
L 2938 0 
L 2938 2094 
Q 2938 2591 2744 2837 
Q 2550 3084 2163 3084 
Q 1697 3084 1428 2787 
Q 1159 2491 1159 1978 
L 1159 0 
L 581 0 
L 581 4863 
L 1159 4863 
L 1159 2956 
Q 1366 3272 1645 3428 
Q 1925 3584 2291 3584 
Q 2894 3584 3203 3211 
Q 3513 2838 3513 2113 
z
" transform="scale(0.015625)"/>
       <path id="DejaVuSans-61" d="M 2194 1759 
Q 1497 1759 1228 1600 
Q 959 1441 959 1056 
Q 959 750 1161 570 
Q 1363 391 1709 391 
Q 2188 391 2477 730 
Q 2766 1069 2766 1631 
L 2766 1759 
L 2194 1759 
z
M 3341 1997 
L 3341 0 
L 2766 0 
L 2766 531 
Q 2569 213 2275 61 
Q 1981 -91 1556 -91 
Q 1019 -91 701 211 
Q 384 513 384 1019 
Q 384 1609 779 1909 
Q 1175 2209 1959 2209 
L 2766 2209 
L 2766 2266 
Q 2766 2663 2505 2880 
Q 2244 3097 1772 3097 
Q 1472 3097 1187 3025 
Q 903 2953 641 2809 
L 641 3341 
Q 956 3463 1253 3523 
Q 1550 3584 1831 3584 
Q 2591 3584 2966 3190 
Q 3341 2797 3341 1997 
z
" transform="scale(0.015625)"/>
       <path id="DejaVuSans-6e" d="M 3513 2113 
L 3513 0 
L 2938 0 
L 2938 2094 
Q 2938 2591 2744 2837 
Q 2550 3084 2163 3084 
Q 1697 3084 1428 2787 
Q 1159 2491 1159 1978 
L 1159 0 
L 581 0 
L 581 3500 
L 1159 3500 
L 1159 2956 
Q 1366 3272 1645 3428 
Q 1925 3584 2291 3584 
Q 2894 3584 3203 3211 
Q 3513 2838 3513 2113 
z
" transform="scale(0.015625)"/>
       <path id="DejaVuSans-67" d="M 2906 1791 
Q 2906 2416 2648 2759 
Q 2391 3103 1925 3103 
Q 1463 3103 1205 2759 
Q 947 2416 947 1791 
Q 947 1169 1205 825 
Q 1463 481 1925 481 
Q 2391 481 2648 825 
Q 2906 1169 2906 1791 
z
M 3481 434 
Q 3481 -459 3084 -895 
Q 2688 -1331 1869 -1331 
Q 1566 -1331 1297 -1286 
Q 1028 -1241 775 -1147 
L 775 -588 
Q 1028 -725 1275 -790 
Q 1522 -856 1778 -856 
Q 2344 -856 2625 -561 
Q 2906 -266 2906 331 
L 2906 616 
Q 2728 306 2450 153 
Q 2172 0 1784 0 
Q 1141 0 747 490 
Q 353 981 353 1791 
Q 353 2603 747 3093 
Q 1141 3584 1784 3584 
Q 2172 3584 2450 3431 
Q 2728 3278 2906 2969 
L 2906 3500 
L 3481 3500 
L 3481 434 
z
" transform="scale(0.015625)"/>
       <path id="DejaVuSans-65" d="M 3597 1894 
L 3597 1613 
L 953 1613 
Q 991 1019 1311 708 
Q 1631 397 2203 397 
Q 2534 397 2845 478 
Q 3156 559 3463 722 
L 3463 178 
Q 3153 47 2828 -22 
Q 2503 -91 2169 -91 
Q 1331 -91 842 396 
Q 353 884 353 1716 
Q 353 2575 817 3079 
Q 1281 3584 2069 3584 
Q 2775 3584 3186 3129 
Q 3597 2675 3597 1894 
z
M 3022 2063 
Q 3016 2534 2758 2815 
Q 2500 3097 2075 3097 
Q 1594 3097 1305 2825 
Q 1016 2553 972 2059 
L 3022 2063 
z
" transform="scale(0.015625)"/>
       <path id="DejaVuSans-20" transform="scale(0.015625)"/>
       <path id="DejaVuSans-69" d="M 603 3500 
L 1178 3500 
L 1178 0 
L 603 0 
L 603 3500 
z
M 603 4863 
L 1178 4863 
L 1178 4134 
L 603 4134 
L 603 4863 
z
" transform="scale(0.015625)"/>
       <path id="DejaVuSans-63" d="M 3122 3366 
L 3122 2828 
Q 2878 2963 2633 3030 
Q 2388 3097 2138 3097 
Q 1578 3097 1268 2742 
Q 959 2388 959 1747 
Q 959 1106 1268 751 
Q 1578 397 2138 397 
Q 2388 397 2633 464 
Q 2878 531 3122 666 
L 3122 134 
Q 2881 22 2623 -34 
Q 2366 -91 2075 -91 
Q 1284 -91 818 406 
Q 353 903 353 1747 
Q 353 2603 823 3093 
Q 1294 3584 2113 3584 
Q 2378 3584 2631 3529 
Q 2884 3475 3122 3366 
z
" transform="scale(0.015625)"/>
       <path id="DejaVuSans-6f" d="M 1959 3097 
Q 1497 3097 1228 2736 
Q 959 2375 959 1747 
Q 959 1119 1226 758 
Q 1494 397 1959 397 
Q 2419 397 2687 759 
Q 2956 1122 2956 1747 
Q 2956 2369 2687 2733 
Q 2419 3097 1959 3097 
z
M 1959 3584 
Q 2709 3584 3137 3096 
Q 3566 2609 3566 1747 
Q 3566 888 3137 398 
Q 2709 -91 1959 -91 
Q 1206 -91 779 398 
Q 353 888 353 1747 
Q 353 2609 779 3096 
Q 1206 3584 1959 3584 
z
" transform="scale(0.015625)"/>
       <path id="DejaVuSans-73" d="M 2834 3397 
L 2834 2853 
Q 2591 2978 2328 3040 
Q 2066 3103 1784 3103 
Q 1356 3103 1142 2972 
Q 928 2841 928 2578 
Q 928 2378 1081 2264 
Q 1234 2150 1697 2047 
L 1894 2003 
Q 2506 1872 2764 1633 
Q 3022 1394 3022 966 
Q 3022 478 2636 193 
Q 2250 -91 1575 -91 
Q 1294 -91 989 -36 
Q 684 19 347 128 
L 347 722 
Q 666 556 975 473 
Q 1284 391 1588 391 
Q 1994 391 2212 530 
Q 2431 669 2431 922 
Q 2431 1156 2273 1281 
Q 2116 1406 1581 1522 
L 1381 1569 
Q 847 1681 609 1914 
Q 372 2147 372 2553 
Q 372 3047 722 3315 
Q 1072 3584 1716 3584 
Q 2034 3584 2315 3537 
Q 2597 3491 2834 3397 
z
" transform="scale(0.015625)"/>
       <path id="DejaVuSans-75" d="M 544 1381 
L 544 3500 
L 1119 3500 
L 1119 1403 
Q 1119 906 1312 657 
Q 1506 409 1894 409 
Q 2359 409 2629 706 
Q 2900 1003 2900 1516 
L 2900 3500 
L 3475 3500 
L 3475 0 
L 2900 0 
L 2900 538 
Q 2691 219 2414 64 
Q 2138 -91 1772 -91 
Q 1169 -91 856 284 
Q 544 659 544 1381 
z
M 1991 3584 
L 1991 3584 
z
" transform="scale(0.015625)"/>
       <path id="DejaVuSans-72" d="M 2631 2963 
Q 2534 3019 2420 3045 
Q 2306 3072 2169 3072 
Q 1681 3072 1420 2755 
Q 1159 2438 1159 1844 
L 1159 0 
L 581 0 
L 581 3500 
L 1159 3500 
L 1159 2956 
Q 1341 3275 1631 3429 
Q 1922 3584 2338 3584 
Q 2397 3584 2469 3576 
Q 2541 3569 2628 3553 
L 2631 2963 
z
" transform="scale(0.015625)"/>
       <path id="DejaVuSans-74" d="M 1172 4494 
L 1172 3500 
L 2356 3500 
L 2356 3053 
L 1172 3053 
L 1172 1153 
Q 1172 725 1289 603 
Q 1406 481 1766 481 
L 2356 481 
L 2356 0 
L 1766 0 
Q 1100 0 847 248 
Q 594 497 594 1153 
L 594 3053 
L 172 3053 
L 172 3500 
L 594 3500 
L 594 4494 
L 1172 4494 
z
" transform="scale(0.015625)"/>
       <path id="DejaVuSans-28" d="M 1984 4856 
Q 1566 4138 1362 3434 
Q 1159 2731 1159 2009 
Q 1159 1288 1364 580 
Q 1569 -128 1984 -844 
L 1484 -844 
Q 1016 -109 783 600 
Q 550 1309 550 2009 
Q 550 2706 781 3412 
Q 1013 4119 1484 4856 
L 1984 4856 
z
" transform="scale(0.015625)"/>
       <path id="DejaVuSans-7a" d="M 353 3500 
L 3084 3500 
L 3084 2975 
L 922 459 
L 3084 459 
L 3084 0 
L 275 0 
L 275 525 
L 2438 3041 
L 353 3041 
L 353 3500 
z
" transform="scale(0.015625)"/>
       <path id="DejaVuSans-2d" d="M 313 2009 
L 1997 2009 
L 1997 1497 
L 313 1497 
L 313 2009 
z
" transform="scale(0.015625)"/>
       <path id="DejaVuSans-29" d="M 513 4856 
L 1013 4856 
Q 1481 4119 1714 3412 
Q 1947 2706 1947 2009 
Q 1947 1309 1714 600 
Q 1481 -109 1013 -844 
L 513 -844 
Q 928 -128 1133 580 
Q 1338 1288 1338 2009 
Q 1338 2731 1133 3434 
Q 928 4138 513 4856 
z
" transform="scale(0.015625)"/>
       <path id="DejaVuSans-2c" d="M 750 794 
L 1409 794 
L 1409 256 
L 897 -744 
L 494 -744 
L 750 256 
L 750 794 
z
" transform="scale(0.015625)"/>
       <path id="DejaVuSans-32" d="M 1228 531 
L 3431 531 
L 3431 0 
L 469 0 
L 469 531 
Q 828 903 1448 1529 
Q 2069 2156 2228 2338 
Q 2531 2678 2651 2914 
Q 2772 3150 2772 3378 
Q 2772 3750 2511 3984 
Q 2250 4219 1831 4219 
Q 1534 4219 1204 4116 
Q 875 4013 500 3803 
L 500 4441 
Q 881 4594 1212 4672 
Q 1544 4750 1819 4750 
Q 2544 4750 2975 4387 
Q 3406 4025 3406 3419 
Q 3406 3131 3298 2873 
Q 3191 2616 2906 2266 
Q 2828 2175 2409 1742 
Q 1991 1309 1228 531 
z
" transform="scale(0.015625)"/>
       <path id="DejaVuSans-34" d="M 2419 4116 
L 825 1625 
L 2419 1625 
L 2419 4116 
z
M 2253 4666 
L 3047 4666 
L 3047 1625 
L 3713 1625 
L 3713 1100 
L 3047 1100 
L 3047 0 
L 2419 0 
L 2419 1100 
L 313 1100 
L 313 1709 
L 2253 4666 
z
" transform="scale(0.015625)"/>
       <path id="DejaVuSans-2192" d="M 5050 2147 
L 5050 1866 
L 3822 638 
L 3447 1013 
L 4175 1741 
L 366 1741 
L 366 2272 
L 4175 2272 
L 3447 3000 
L 3822 3375 
L 5050 2147 
z
" transform="scale(0.015625)"/>
       <path id="DejaVuSans-36" d="M 2113 2584 
Q 1688 2584 1439 2293 
Q 1191 2003 1191 1497 
Q 1191 994 1439 701 
Q 1688 409 2113 409 
Q 2538 409 2786 701 
Q 3034 994 3034 1497 
Q 3034 2003 2786 2293 
Q 2538 2584 2113 2584 
z
M 3366 4563 
L 3366 3988 
Q 3128 4100 2886 4159 
Q 2644 4219 2406 4219 
Q 1781 4219 1451 3797 
Q 1122 3375 1075 2522 
Q 1259 2794 1537 2939 
Q 1816 3084 2150 3084 
Q 2853 3084 3261 2657 
Q 3669 2231 3669 1497 
Q 3669 778 3244 343 
Q 2819 -91 2113 -91 
Q 1303 -91 875 529 
Q 447 1150 447 2328 
Q 447 3434 972 4092 
Q 1497 4750 2381 4750 
Q 2619 4750 2861 4703 
Q 3103 4656 3366 4563 
z
" transform="scale(0.015625)"/>
      </defs>
      <use xlink:href="#DejaVuSans-43"/>
      <use xlink:href="#DejaVuSans-68" transform="translate(69.824219 0)"/>
      <use xlink:href="#DejaVuSans-61" transform="translate(133.203125 0)"/>
      <use xlink:href="#DejaVuSans-6e" transform="translate(194.482422 0)"/>
      <use xlink:href="#DejaVuSans-67" transform="translate(257.861328 0)"/>
      <use xlink:href="#DejaVuSans-65" transform="translate(321.337891 0)"/>
      <use xlink:href="#DejaVuSans-20" transform="translate(382.861328 0)"/>
      <use xlink:href="#DejaVuSans-69" transform="translate(414.648438 0)"/>
      <use xlink:href="#DejaVuSans-6e" transform="translate(442.431641 0)"/>
      <use xlink:href="#DejaVuSans-20" transform="translate(505.810547 0)"/>
      <use xlink:href="#DejaVuSans-63" transform="translate(537.597656 0)"/>
      <use xlink:href="#DejaVuSans-6f" transform="translate(592.578125 0)"/>
      <use xlink:href="#DejaVuSans-6e" transform="translate(653.759766 0)"/>
      <use xlink:href="#DejaVuSans-73" transform="translate(717.138672 0)"/>
      <use xlink:href="#DejaVuSans-65" transform="translate(769.238281 0)"/>
      <use xlink:href="#DejaVuSans-6e" transform="translate(830.761719 0)"/>
      <use xlink:href="#DejaVuSans-73" transform="translate(894.140625 0)"/>
      <use xlink:href="#DejaVuSans-75" transform="translate(946.240234 0)"/>
      <use xlink:href="#DejaVuSans-73" transform="translate(1009.619141 0)"/>
      <use xlink:href="#DejaVuSans-20" transform="translate(1061.71875 0)"/>
      <use xlink:href="#DejaVuSans-72" transform="translate(1093.505859 0)"/>
      <use xlink:href="#DejaVuSans-61" transform="translate(1134.619141 0)"/>
      <use xlink:href="#DejaVuSans-74" transform="translate(1195.898438 0)"/>
      <use xlink:href="#DejaVuSans-69" transform="translate(1235.107422 0)"/>
      <use xlink:href="#DejaVuSans-6e" transform="translate(1262.890625 0)"/>
      <use xlink:href="#DejaVuSans-67" transform="translate(1326.269531 0)"/>
      <use xlink:href="#DejaVuSans-20" transform="translate(1389.746094 0)"/>
      <use xlink:href="#DejaVuSans-28" transform="translate(1421.533203 0)"/>
      <use xlink:href="#DejaVuSans-7a" transform="translate(1460.546875 0)"/>
      <use xlink:href="#DejaVuSans-2d" transform="translate(1513.037109 0)"/>
      <use xlink:href="#DejaVuSans-73" transform="translate(1549.121094 0)"/>
      <use xlink:href="#DejaVuSans-63" transform="translate(1601.220703 0)"/>
      <use xlink:href="#DejaVuSans-6f" transform="translate(1656.201172 0)"/>
      <use xlink:href="#DejaVuSans-72" transform="translate(1717.382812 0)"/>
      <use xlink:href="#DejaVuSans-65" transform="translate(1756.246094 0)"/>
      <use xlink:href="#DejaVuSans-29" transform="translate(1817.769531 0)"/>
      <use xlink:href="#DejaVuSans-2c" transform="translate(1856.783203 0)"/>
      <use xlink:href="#DejaVuSans-20" transform="translate(1888.570312 0)"/>
      <use xlink:href="#DejaVuSans-32" transform="translate(1920.357422 0)"/>
      <use xlink:href="#DejaVuSans-30" transform="translate(1983.980469 0)"/>
      <use xlink:href="#DejaVuSans-32" transform="translate(2047.603516 0)"/>
      <use xlink:href="#DejaVuSans-34" transform="translate(2111.226562 0)"/>
      <use xlink:href="#DejaVuSans-2d" transform="translate(2174.849609 0)"/>
      <use xlink:href="#DejaVuSans-32" transform="translate(2210.933594 0)"/>
      <use xlink:href="#DejaVuSans-35" transform="translate(2274.556641 0)"/>
      <use xlink:href="#DejaVuSans-20" transform="translate(2338.179688 0)"/>
      <use xlink:href="#DejaVuSans-2192" transform="translate(2369.966797 0)"/>
      <use xlink:href="#DejaVuSans-20" transform="translate(2453.755859 0)"/>
      <use xlink:href="#DejaVuSans-32" transform="translate(2485.542969 0)"/>
      <use xlink:href="#DejaVuSans-30" transform="translate(2549.166016 0)"/>
      <use xlink:href="#DejaVuSans-32" transform="translate(2612.789062 0)"/>
      <use xlink:href="#DejaVuSans-35" transform="translate(2676.412109 0)"/>
      <use xlink:href="#DejaVuSans-2d" transform="translate(2740.035156 0)"/>
      <use xlink:href="#DejaVuSans-32" transform="translate(2776.119141 0)"/>
      <use xlink:href="#DejaVuSans-36" transform="translate(2839.742188 0)"/>
     </g>
    </g>
   </g>
   <g id="matplotlib.axis_2">
    <g id="ytick_1">
     <g id="line2d_15">
      <defs>
       <path id="mf0999813a0" d="M 0 0 
L -3.5 0 
" style="stroke: #000000; stroke-width: 0.8"/>
      </defs>
      <g>
       <use xlink:href="#mf0999813a0" x="97.515" y="326.297987" style="stroke: #000000; stroke-width: 0.8"/>
      </g>
     </g>
     <g id="text_9">
      <!-- Ivica Zubac -->
      <g transform="translate(44.42375 329.337362) scale(0.08 -0.08)">
       <defs>
        <path id="DejaVuSans-49" d="M 628 4666 
L 1259 4666 
L 1259 0 
L 628 0 
L 628 4666 
z
" transform="scale(0.015625)"/>
        <path id="DejaVuSans-76" d="M 191 3500 
L 800 3500 
L 1894 563 
L 2988 3500 
L 3597 3500 
L 2284 0 
L 1503 0 
L 191 3500 
z
" transform="scale(0.015625)"/>
        <path id="DejaVuSans-5a" d="M 359 4666 
L 4025 4666 
L 4025 4184 
L 1075 531 
L 4097 531 
L 4097 0 
L 288 0 
L 288 481 
L 3238 4134 
L 359 4134 
L 359 4666 
z
" transform="scale(0.015625)"/>
        <path id="DejaVuSans-62" d="M 3116 1747 
Q 3116 2381 2855 2742 
Q 2594 3103 2138 3103 
Q 1681 3103 1420 2742 
Q 1159 2381 1159 1747 
Q 1159 1113 1420 752 
Q 1681 391 2138 391 
Q 2594 391 2855 752 
Q 3116 1113 3116 1747 
z
M 1159 2969 
Q 1341 3281 1617 3432 
Q 1894 3584 2278 3584 
Q 2916 3584 3314 3078 
Q 3713 2572 3713 1747 
Q 3713 922 3314 415 
Q 2916 -91 2278 -91 
Q 1894 -91 1617 61 
Q 1341 213 1159 525 
L 1159 0 
L 581 0 
L 581 4863 
L 1159 4863 
L 1159 2969 
z
" transform="scale(0.015625)"/>
       </defs>
       <use xlink:href="#DejaVuSans-49"/>
       <use xlink:href="#DejaVuSans-76" transform="translate(29.492188 0)"/>
       <use xlink:href="#DejaVuSans-69" transform="translate(88.671875 0)"/>
       <use xlink:href="#DejaVuSans-63" transform="translate(116.455078 0)"/>
       <use xlink:href="#DejaVuSans-61" transform="translate(171.435547 0)"/>
       <use xlink:href="#DejaVuSans-20" transform="translate(232.714844 0)"/>
       <use xlink:href="#DejaVuSans-5a" transform="translate(264.501953 0)"/>
       <use xlink:href="#DejaVuSans-75" transform="translate(333.007812 0)"/>
       <use xlink:href="#DejaVuSans-62" transform="translate(396.386719 0)"/>
       <use xlink:href="#DejaVuSans-61" transform="translate(459.863281 0)"/>
       <use xlink:href="#DejaVuSans-63" transform="translate(521.142578 0)"/>
      </g>
     </g>
    </g>
    <g id="ytick_2">
     <g id="line2d_16">
      <g>
       <use xlink:href="#mf0999813a0" x="97.515" y="308.634005" style="stroke: #000000; stroke-width: 0.8"/>
      </g>
     </g>
     <g id="text_10">
      <!-- Domantas Sabonis -->
      <g transform="translate(15.53125 311.67338) scale(0.08 -0.08)">
       <defs>
        <path id="DejaVuSans-44" d="M 1259 4147 
L 1259 519 
L 2022 519 
Q 2988 519 3436 956 
Q 3884 1394 3884 2338 
Q 3884 3275 3436 3711 
Q 2988 4147 2022 4147 
L 1259 4147 
z
M 628 4666 
L 1925 4666 
Q 3281 4666 3915 4102 
Q 4550 3538 4550 2338 
Q 4550 1131 3912 565 
Q 3275 0 1925 0 
L 628 0 
L 628 4666 
z
" transform="scale(0.015625)"/>
        <path id="DejaVuSans-6d" d="M 3328 2828 
Q 3544 3216 3844 3400 
Q 4144 3584 4550 3584 
Q 5097 3584 5394 3201 
Q 5691 2819 5691 2113 
L 5691 0 
L 5113 0 
L 5113 2094 
Q 5113 2597 4934 2840 
Q 4756 3084 4391 3084 
Q 3944 3084 3684 2787 
Q 3425 2491 3425 1978 
L 3425 0 
L 2847 0 
L 2847 2094 
Q 2847 2600 2669 2842 
Q 2491 3084 2119 3084 
Q 1678 3084 1418 2786 
Q 1159 2488 1159 1978 
L 1159 0 
L 581 0 
L 581 3500 
L 1159 3500 
L 1159 2956 
Q 1356 3278 1631 3431 
Q 1906 3584 2284 3584 
Q 2666 3584 2933 3390 
Q 3200 3197 3328 2828 
z
" transform="scale(0.015625)"/>
        <path id="DejaVuSans-53" d="M 3425 4513 
L 3425 3897 
Q 3066 4069 2747 4153 
Q 2428 4238 2131 4238 
Q 1616 4238 1336 4038 
Q 1056 3838 1056 3469 
Q 1056 3159 1242 3001 
Q 1428 2844 1947 2747 
L 2328 2669 
Q 3034 2534 3370 2195 
Q 3706 1856 3706 1288 
Q 3706 609 3251 259 
Q 2797 -91 1919 -91 
Q 1588 -91 1214 -16 
Q 841 59 441 206 
L 441 856 
Q 825 641 1194 531 
Q 1563 422 1919 422 
Q 2459 422 2753 634 
Q 3047 847 3047 1241 
Q 3047 1584 2836 1778 
Q 2625 1972 2144 2069 
L 1759 2144 
Q 1053 2284 737 2584 
Q 422 2884 422 3419 
Q 422 4038 858 4394 
Q 1294 4750 2059 4750 
Q 2388 4750 2728 4690 
Q 3069 4631 3425 4513 
z
" transform="scale(0.015625)"/>
       </defs>
       <use xlink:href="#DejaVuSans-44"/>
       <use xlink:href="#DejaVuSans-6f" transform="translate(77.001953 0)"/>
       <use xlink:href="#DejaVuSans-6d" transform="translate(138.183594 0)"/>
       <use xlink:href="#DejaVuSans-61" transform="translate(235.595703 0)"/>
       <use xlink:href="#DejaVuSans-6e" transform="translate(296.875 0)"/>
       <use xlink:href="#DejaVuSans-74" transform="translate(360.253906 0)"/>
       <use xlink:href="#DejaVuSans-61" transform="translate(399.462891 0)"/>
       <use xlink:href="#DejaVuSans-73" transform="translate(460.742188 0)"/>
       <use xlink:href="#DejaVuSans-20" transform="translate(512.841797 0)"/>
       <use xlink:href="#DejaVuSans-53" transform="translate(544.628906 0)"/>
       <use xlink:href="#DejaVuSans-61" transform="translate(608.105469 0)"/>
       <use xlink:href="#DejaVuSans-62" transform="translate(669.384766 0)"/>
       <use xlink:href="#DejaVuSans-6f" transform="translate(732.861328 0)"/>
       <use xlink:href="#DejaVuSans-6e" transform="translate(794.042969 0)"/>
       <use xlink:href="#DejaVuSans-69" transform="translate(857.421875 0)"/>
       <use xlink:href="#DejaVuSans-73" transform="translate(885.205078 0)"/>
      </g>
     </g>
    </g>
    <g id="ytick_3">
     <g id="line2d_17">
      <g>
       <use xlink:href="#mf0999813a0" x="97.515" y="290.970024" style="stroke: #000000; stroke-width: 0.8"/>
      </g>
     </g>
     <g id="text_11">
      <!-- Jaren Jackson Jr. -->
      <g transform="translate(27.17875 294.009399) scale(0.08 -0.08)">
       <defs>
        <path id="DejaVuSans-4a" d="M 628 4666 
L 1259 4666 
L 1259 325 
Q 1259 -519 939 -900 
Q 619 -1281 -91 -1281 
L -331 -1281 
L -331 -750 
L -134 -750 
Q 284 -750 456 -515 
Q 628 -281 628 325 
L 628 4666 
z
" transform="scale(0.015625)"/>
        <path id="DejaVuSans-6b" d="M 581 4863 
L 1159 4863 
L 1159 1991 
L 2875 3500 
L 3609 3500 
L 1753 1863 
L 3688 0 
L 2938 0 
L 1159 1709 
L 1159 0 
L 581 0 
L 581 4863 
z
" transform="scale(0.015625)"/>
       </defs>
       <use xlink:href="#DejaVuSans-4a"/>
       <use xlink:href="#DejaVuSans-61" transform="translate(29.492188 0)"/>
       <use xlink:href="#DejaVuSans-72" transform="translate(90.771484 0)"/>
       <use xlink:href="#DejaVuSans-65" transform="translate(129.634766 0)"/>
       <use xlink:href="#DejaVuSans-6e" transform="translate(191.158203 0)"/>
       <use xlink:href="#DejaVuSans-20" transform="translate(254.537109 0)"/>
       <use xlink:href="#DejaVuSans-4a" transform="translate(286.324219 0)"/>
       <use xlink:href="#DejaVuSans-61" transform="translate(315.816406 0)"/>
       <use xlink:href="#DejaVuSans-63" transform="translate(377.095703 0)"/>
       <use xlink:href="#DejaVuSans-6b" transform="translate(432.076172 0)"/>
       <use xlink:href="#DejaVuSans-73" transform="translate(489.986328 0)"/>
       <use xlink:href="#DejaVuSans-6f" transform="translate(542.085938 0)"/>
       <use xlink:href="#DejaVuSans-6e" transform="translate(603.267578 0)"/>
       <use xlink:href="#DejaVuSans-20" transform="translate(666.646484 0)"/>
       <use xlink:href="#DejaVuSans-4a" transform="translate(698.433594 0)"/>
       <use xlink:href="#DejaVuSans-72" transform="translate(727.925781 0)"/>
       <use xlink:href="#DejaVuSans-2e" transform="translate(759.914062 0)"/>
      </g>
     </g>
    </g>
    <g id="ytick_4">
     <g id="line2d_18">
      <g>
       <use xlink:href="#mf0999813a0" x="97.515" y="273.306042" style="stroke: #000000; stroke-width: 0.8"/>
      </g>
     </g>
     <g id="text_12">
      <!-- Anthony Davis -->
      <g transform="translate(32.33625 276.345417) scale(0.08 -0.08)">
       <defs>
        <path id="DejaVuSans-41" d="M 2188 4044 
L 1331 1722 
L 3047 1722 
L 2188 4044 
z
M 1831 4666 
L 2547 4666 
L 4325 0 
L 3669 0 
L 3244 1197 
L 1141 1197 
L 716 0 
L 50 0 
L 1831 4666 
z
" transform="scale(0.015625)"/>
        <path id="DejaVuSans-79" d="M 2059 -325 
Q 1816 -950 1584 -1140 
Q 1353 -1331 966 -1331 
L 506 -1331 
L 506 -850 
L 844 -850 
Q 1081 -850 1212 -737 
Q 1344 -625 1503 -206 
L 1606 56 
L 191 3500 
L 800 3500 
L 1894 763 
L 2988 3500 
L 3597 3500 
L 2059 -325 
z
" transform="scale(0.015625)"/>
       </defs>
       <use xlink:href="#DejaVuSans-41"/>
       <use xlink:href="#DejaVuSans-6e" transform="translate(68.408203 0)"/>
       <use xlink:href="#DejaVuSans-74" transform="translate(131.787109 0)"/>
       <use xlink:href="#DejaVuSans-68" transform="translate(170.996094 0)"/>
       <use xlink:href="#DejaVuSans-6f" transform="translate(234.375 0)"/>
       <use xlink:href="#DejaVuSans-6e" transform="translate(295.556641 0)"/>
       <use xlink:href="#DejaVuSans-79" transform="translate(358.935547 0)"/>
       <use xlink:href="#DejaVuSans-20" transform="translate(418.115234 0)"/>
       <use xlink:href="#DejaVuSans-44" transform="translate(449.902344 0)"/>
       <use xlink:href="#DejaVuSans-61" transform="translate(526.904297 0)"/>
       <use xlink:href="#DejaVuSans-76" transform="translate(588.183594 0)"/>
       <use xlink:href="#DejaVuSans-69" transform="translate(647.363281 0)"/>
       <use xlink:href="#DejaVuSans-73" transform="translate(675.146484 0)"/>
      </g>
     </g>
    </g>
    <g id="ytick_5">
     <g id="line2d_19">
      <g>
       <use xlink:href="#mf0999813a0" x="97.515" y="255.642061" style="stroke: #000000; stroke-width: 0.8"/>
      </g>
     </g>
     <g id="text_13">
      <!-- De'Andre Hunter -->
      <g transform="translate(23.535 258.681436) scale(0.08 -0.08)">
       <defs>
        <path id="DejaVuSans-27" d="M 1147 4666 
L 1147 2931 
L 616 2931 
L 616 4666 
L 1147 4666 
z
" transform="scale(0.015625)"/>
        <path id="DejaVuSans-64" d="M 2906 2969 
L 2906 4863 
L 3481 4863 
L 3481 0 
L 2906 0 
L 2906 525 
Q 2725 213 2448 61 
Q 2172 -91 1784 -91 
Q 1150 -91 751 415 
Q 353 922 353 1747 
Q 353 2572 751 3078 
Q 1150 3584 1784 3584 
Q 2172 3584 2448 3432 
Q 2725 3281 2906 2969 
z
M 947 1747 
Q 947 1113 1208 752 
Q 1469 391 1925 391 
Q 2381 391 2643 752 
Q 2906 1113 2906 1747 
Q 2906 2381 2643 2742 
Q 2381 3103 1925 3103 
Q 1469 3103 1208 2742 
Q 947 2381 947 1747 
z
" transform="scale(0.015625)"/>
        <path id="DejaVuSans-48" d="M 628 4666 
L 1259 4666 
L 1259 2753 
L 3553 2753 
L 3553 4666 
L 4184 4666 
L 4184 0 
L 3553 0 
L 3553 2222 
L 1259 2222 
L 1259 0 
L 628 0 
L 628 4666 
z
" transform="scale(0.015625)"/>
       </defs>
       <use xlink:href="#DejaVuSans-44"/>
       <use xlink:href="#DejaVuSans-65" transform="translate(77.001953 0)"/>
       <use xlink:href="#DejaVuSans-27" transform="translate(138.525391 0)"/>
       <use xlink:href="#DejaVuSans-41" transform="translate(166.015625 0)"/>
       <use xlink:href="#DejaVuSans-6e" transform="translate(234.423828 0)"/>
       <use xlink:href="#DejaVuSans-64" transform="translate(297.802734 0)"/>
       <use xlink:href="#DejaVuSans-72" transform="translate(361.279297 0)"/>
       <use xlink:href="#DejaVuSans-65" transform="translate(400.142578 0)"/>
       <use xlink:href="#DejaVuSans-20" transform="translate(461.666016 0)"/>
       <use xlink:href="#DejaVuSans-48" transform="translate(493.453125 0)"/>
       <use xlink:href="#DejaVuSans-75" transform="translate(568.648438 0)"/>
       <use xlink:href="#DejaVuSans-6e" transform="translate(632.027344 0)"/>
       <use xlink:href="#DejaVuSans-74" transform="translate(695.40625 0)"/>
       <use xlink:href="#DejaVuSans-65" transform="translate(734.615234 0)"/>
       <use xlink:href="#DejaVuSans-72" transform="translate(796.138672 0)"/>
      </g>
     </g>
    </g>
    <g id="ytick_6">
     <g id="line2d_20">
      <g>
       <use xlink:href="#mf0999813a0" x="97.515" y="237.978079" style="stroke: #000000; stroke-width: 0.8"/>
      </g>
     </g>
     <g id="text_14">
      <!-- Jordan Poole -->
      <g transform="translate(41.04875 241.017454) scale(0.08 -0.08)">
       <defs>
        <path id="DejaVuSans-50" d="M 1259 4147 
L 1259 2394 
L 2053 2394 
Q 2494 2394 2734 2622 
Q 2975 2850 2975 3272 
Q 2975 3691 2734 3919 
Q 2494 4147 2053 4147 
L 1259 4147 
z
M 628 4666 
L 2053 4666 
Q 2838 4666 3239 4311 
Q 3641 3956 3641 3272 
Q 3641 2581 3239 2228 
Q 2838 1875 2053 1875 
L 1259 1875 
L 1259 0 
L 628 0 
L 628 4666 
z
" transform="scale(0.015625)"/>
        <path id="DejaVuSans-6c" d="M 603 4863 
L 1178 4863 
L 1178 0 
L 603 0 
L 603 4863 
z
" transform="scale(0.015625)"/>
       </defs>
       <use xlink:href="#DejaVuSans-4a"/>
       <use xlink:href="#DejaVuSans-6f" transform="translate(29.492188 0)"/>
       <use xlink:href="#DejaVuSans-72" transform="translate(90.673828 0)"/>
       <use xlink:href="#DejaVuSans-64" transform="translate(130.037109 0)"/>
       <use xlink:href="#DejaVuSans-61" transform="translate(193.513672 0)"/>
       <use xlink:href="#DejaVuSans-6e" transform="translate(254.792969 0)"/>
       <use xlink:href="#DejaVuSans-20" transform="translate(318.171875 0)"/>
       <use xlink:href="#DejaVuSans-50" transform="translate(349.958984 0)"/>
       <use xlink:href="#DejaVuSans-6f" transform="translate(406.636719 0)"/>
       <use xlink:href="#DejaVuSans-6f" transform="translate(467.818359 0)"/>
       <use xlink:href="#DejaVuSans-6c" transform="translate(529 0)"/>
       <use xlink:href="#DejaVuSans-65" transform="translate(556.783203 0)"/>
      </g>
     </g>
    </g>
    <g id="ytick_7">
     <g id="line2d_21">
      <g>
       <use xlink:href="#mf0999813a0" x="97.515" y="220.314097" style="stroke: #000000; stroke-width: 0.8"/>
      </g>
     </g>
     <g id="text_15">
      <!-- Jonathan Isaac -->
      <g transform="translate(31.835 223.353472) scale(0.08 -0.08)">
       <use xlink:href="#DejaVuSans-4a"/>
       <use xlink:href="#DejaVuSans-6f" transform="translate(29.492188 0)"/>
       <use xlink:href="#DejaVuSans-6e" transform="translate(90.673828 0)"/>
       <use xlink:href="#DejaVuSans-61" transform="translate(154.052734 0)"/>
       <use xlink:href="#DejaVuSans-74" transform="translate(215.332031 0)"/>
       <use xlink:href="#DejaVuSans-68" transform="translate(254.541016 0)"/>
       <use xlink:href="#DejaVuSans-61" transform="translate(317.919922 0)"/>
       <use xlink:href="#DejaVuSans-6e" transform="translate(379.199219 0)"/>
       <use xlink:href="#DejaVuSans-20" transform="translate(442.578125 0)"/>
       <use xlink:href="#DejaVuSans-49" transform="translate(474.365234 0)"/>
       <use xlink:href="#DejaVuSans-73" transform="translate(503.857422 0)"/>
       <use xlink:href="#DejaVuSans-61" transform="translate(555.957031 0)"/>
       <use xlink:href="#DejaVuSans-61" transform="translate(617.236328 0)"/>
       <use xlink:href="#DejaVuSans-63" transform="translate(678.515625 0)"/>
      </g>
     </g>
    </g>
    <g id="ytick_8">
     <g id="line2d_22">
      <g>
       <use xlink:href="#mf0999813a0" x="97.515" y="202.650116" style="stroke: #000000; stroke-width: 0.8"/>
      </g>
     </g>
     <g id="text_16">
      <!-- Cam Thomas -->
      <g transform="translate(37.9775 205.689491) scale(0.08 -0.08)">
       <defs>
        <path id="DejaVuSans-54" d="M -19 4666 
L 3928 4666 
L 3928 4134 
L 2272 4134 
L 2272 0 
L 1638 0 
L 1638 4134 
L -19 4134 
L -19 4666 
z
" transform="scale(0.015625)"/>
       </defs>
       <use xlink:href="#DejaVuSans-43"/>
       <use xlink:href="#DejaVuSans-61" transform="translate(69.824219 0)"/>
       <use xlink:href="#DejaVuSans-6d" transform="translate(131.103516 0)"/>
       <use xlink:href="#DejaVuSans-20" transform="translate(228.515625 0)"/>
       <use xlink:href="#DejaVuSans-54" transform="translate(260.302734 0)"/>
       <use xlink:href="#DejaVuSans-68" transform="translate(321.386719 0)"/>
       <use xlink:href="#DejaVuSans-6f" transform="translate(384.765625 0)"/>
       <use xlink:href="#DejaVuSans-6d" transform="translate(445.947266 0)"/>
       <use xlink:href="#DejaVuSans-61" transform="translate(543.359375 0)"/>
       <use xlink:href="#DejaVuSans-73" transform="translate(604.638672 0)"/>
      </g>
     </g>
    </g>
    <g id="ytick_9">
     <g id="line2d_23">
      <g>
       <use xlink:href="#mf0999813a0" x="97.515" y="184.986134" style="stroke: #000000; stroke-width: 0.8"/>
      </g>
     </g>
     <g id="text_17">
      <!-- Tidjane Salaün -->
      <g transform="translate(31.67125 188.025509) scale(0.08 -0.08)">
       <defs>
        <path id="DejaVuSans-6a" d="M 603 3500 
L 1178 3500 
L 1178 -63 
Q 1178 -731 923 -1031 
Q 669 -1331 103 -1331 
L -116 -1331 
L -116 -844 
L 38 -844 
Q 366 -844 484 -692 
Q 603 -541 603 -63 
L 603 3500 
z
M 603 4863 
L 1178 4863 
L 1178 4134 
L 603 4134 
L 603 4863 
z
" transform="scale(0.015625)"/>
        <path id="DejaVuSans-fc" d="M 544 1381 
L 544 3500 
L 1119 3500 
L 1119 1403 
Q 1119 906 1312 657 
Q 1506 409 1894 409 
Q 2359 409 2629 706 
Q 2900 1003 2900 1516 
L 2900 3500 
L 3475 3500 
L 3475 0 
L 2900 0 
L 2900 538 
Q 2691 219 2414 64 
Q 2138 -91 1772 -91 
Q 1169 -91 856 284 
Q 544 659 544 1381 
z
M 1991 3584 
L 1991 3584 
z
M 2278 4850 
L 2913 4850 
L 2913 4219 
L 2278 4219 
L 2278 4850 
z
M 1056 4850 
L 1691 4850 
L 1691 4219 
L 1056 4219 
L 1056 4850 
z
" transform="scale(0.015625)"/>
       </defs>
       <use xlink:href="#DejaVuSans-54"/>
       <use xlink:href="#DejaVuSans-69" transform="translate(57.958984 0)"/>
       <use xlink:href="#DejaVuSans-64" transform="translate(85.742188 0)"/>
       <use xlink:href="#DejaVuSans-6a" transform="translate(149.21875 0)"/>
       <use xlink:href="#DejaVuSans-61" transform="translate(177.001953 0)"/>
       <use xlink:href="#DejaVuSans-6e" transform="translate(238.28125 0)"/>
       <use xlink:href="#DejaVuSans-65" transform="translate(301.660156 0)"/>
       <use xlink:href="#DejaVuSans-20" transform="translate(363.183594 0)"/>
       <use xlink:href="#DejaVuSans-53" transform="translate(394.970703 0)"/>
       <use xlink:href="#DejaVuSans-61" transform="translate(458.447266 0)"/>
       <use xlink:href="#DejaVuSans-6c" transform="translate(519.726562 0)"/>
       <use xlink:href="#DejaVuSans-61" transform="translate(547.509766 0)"/>
       <use xlink:href="#DejaVuSans-fc" transform="translate(608.789062 0)"/>
       <use xlink:href="#DejaVuSans-6e" transform="translate(672.167969 0)"/>
      </g>
     </g>
    </g>
    <g id="ytick_10">
     <g id="line2d_24">
      <g>
       <use xlink:href="#mf0999813a0" x="97.515" y="167.322153" style="stroke: #000000; stroke-width: 0.8"/>
      </g>
     </g>
     <g id="text_18">
      <!-- Jalen Johnson -->
      <g transform="translate(36.9675 170.361528) scale(0.08 -0.08)">
       <use xlink:href="#DejaVuSans-4a"/>
       <use xlink:href="#DejaVuSans-61" transform="translate(29.492188 0)"/>
       <use xlink:href="#DejaVuSans-6c" transform="translate(90.771484 0)"/>
       <use xlink:href="#DejaVuSans-65" transform="translate(118.554688 0)"/>
       <use xlink:href="#DejaVuSans-6e" transform="translate(180.078125 0)"/>
       <use xlink:href="#DejaVuSans-20" transform="translate(243.457031 0)"/>
       <use xlink:href="#DejaVuSans-4a" transform="translate(275.244141 0)"/>
       <use xlink:href="#DejaVuSans-6f" transform="translate(304.736328 0)"/>
       <use xlink:href="#DejaVuSans-68" transform="translate(365.917969 0)"/>
       <use xlink:href="#DejaVuSans-6e" transform="translate(429.296875 0)"/>
       <use xlink:href="#DejaVuSans-73" transform="translate(492.675781 0)"/>
       <use xlink:href="#DejaVuSans-6f" transform="translate(544.775391 0)"/>
       <use xlink:href="#DejaVuSans-6e" transform="translate(605.957031 0)"/>
      </g>
     </g>
    </g>
    <g id="ytick_11">
     <g id="line2d_25">
      <g>
       <use xlink:href="#mf0999813a0" x="97.515" y="149.658171" style="stroke: #000000; stroke-width: 0.8"/>
      </g>
     </g>
     <g id="text_19">
      <!-- Reed Sheppard -->
      <g transform="translate(29.49125 152.697546) scale(0.08 -0.08)">
       <defs>
        <path id="DejaVuSans-52" d="M 2841 2188 
Q 3044 2119 3236 1894 
Q 3428 1669 3622 1275 
L 4263 0 
L 3584 0 
L 2988 1197 
Q 2756 1666 2539 1819 
Q 2322 1972 1947 1972 
L 1259 1972 
L 1259 0 
L 628 0 
L 628 4666 
L 2053 4666 
Q 2853 4666 3247 4331 
Q 3641 3997 3641 3322 
Q 3641 2881 3436 2590 
Q 3231 2300 2841 2188 
z
M 1259 4147 
L 1259 2491 
L 2053 2491 
Q 2509 2491 2742 2702 
Q 2975 2913 2975 3322 
Q 2975 3731 2742 3939 
Q 2509 4147 2053 4147 
L 1259 4147 
z
" transform="scale(0.015625)"/>
        <path id="DejaVuSans-70" d="M 1159 525 
L 1159 -1331 
L 581 -1331 
L 581 3500 
L 1159 3500 
L 1159 2969 
Q 1341 3281 1617 3432 
Q 1894 3584 2278 3584 
Q 2916 3584 3314 3078 
Q 3713 2572 3713 1747 
Q 3713 922 3314 415 
Q 2916 -91 2278 -91 
Q 1894 -91 1617 61 
Q 1341 213 1159 525 
z
M 3116 1747 
Q 3116 2381 2855 2742 
Q 2594 3103 2138 3103 
Q 1681 3103 1420 2742 
Q 1159 2381 1159 1747 
Q 1159 1113 1420 752 
Q 1681 391 2138 391 
Q 2594 391 2855 752 
Q 3116 1113 3116 1747 
z
" transform="scale(0.015625)"/>
       </defs>
       <use xlink:href="#DejaVuSans-52"/>
       <use xlink:href="#DejaVuSans-65" transform="translate(64.982422 0)"/>
       <use xlink:href="#DejaVuSans-65" transform="translate(126.505859 0)"/>
       <use xlink:href="#DejaVuSans-64" transform="translate(188.029297 0)"/>
       <use xlink:href="#DejaVuSans-20" transform="translate(251.505859 0)"/>
       <use xlink:href="#DejaVuSans-53" transform="translate(283.292969 0)"/>
       <use xlink:href="#DejaVuSans-68" transform="translate(346.769531 0)"/>
       <use xlink:href="#DejaVuSans-65" transform="translate(410.148438 0)"/>
       <use xlink:href="#DejaVuSans-70" transform="translate(471.671875 0)"/>
       <use xlink:href="#DejaVuSans-70" transform="translate(535.148438 0)"/>
       <use xlink:href="#DejaVuSans-61" transform="translate(598.625 0)"/>
       <use xlink:href="#DejaVuSans-72" transform="translate(659.904297 0)"/>
       <use xlink:href="#DejaVuSans-64" transform="translate(699.267578 0)"/>
      </g>
     </g>
    </g>
    <g id="ytick_12">
     <g id="line2d_26">
      <g>
       <use xlink:href="#mf0999813a0" x="97.515" y="131.994189" style="stroke: #000000; stroke-width: 0.8"/>
      </g>
     </g>
     <g id="text_20">
      <!-- Neemias Queta -->
      <g transform="translate(28.72875 135.033564) scale(0.08 -0.08)">
       <defs>
        <path id="DejaVuSans-4e" d="M 628 4666 
L 1478 4666 
L 3547 763 
L 3547 4666 
L 4159 4666 
L 4159 0 
L 3309 0 
L 1241 3903 
L 1241 0 
L 628 0 
L 628 4666 
z
" transform="scale(0.015625)"/>
        <path id="DejaVuSans-51" d="M 2522 4238 
Q 1834 4238 1429 3725 
Q 1025 3213 1025 2328 
Q 1025 1447 1429 934 
Q 1834 422 2522 422 
Q 3209 422 3611 934 
Q 4013 1447 4013 2328 
Q 4013 3213 3611 3725 
Q 3209 4238 2522 4238 
z
M 3406 84 
L 4238 -825 
L 3475 -825 
L 2784 -78 
Q 2681 -84 2626 -87 
Q 2572 -91 2522 -91 
Q 1538 -91 948 567 
Q 359 1225 359 2328 
Q 359 3434 948 4092 
Q 1538 4750 2522 4750 
Q 3503 4750 4090 4092 
Q 4678 3434 4678 2328 
Q 4678 1516 4351 937 
Q 4025 359 3406 84 
z
" transform="scale(0.015625)"/>
       </defs>
       <use xlink:href="#DejaVuSans-4e"/>
       <use xlink:href="#DejaVuSans-65" transform="translate(74.804688 0)"/>
       <use xlink:href="#DejaVuSans-65" transform="translate(136.328125 0)"/>
       <use xlink:href="#DejaVuSans-6d" transform="translate(197.851562 0)"/>
       <use xlink:href="#DejaVuSans-69" transform="translate(295.263672 0)"/>
       <use xlink:href="#DejaVuSans-61" transform="translate(323.046875 0)"/>
       <use xlink:href="#DejaVuSans-73" transform="translate(384.326172 0)"/>
       <use xlink:href="#DejaVuSans-20" transform="translate(436.425781 0)"/>
       <use xlink:href="#DejaVuSans-51" transform="translate(468.212891 0)"/>
       <use xlink:href="#DejaVuSans-75" transform="translate(546.923828 0)"/>
       <use xlink:href="#DejaVuSans-65" transform="translate(610.302734 0)"/>
       <use xlink:href="#DejaVuSans-74" transform="translate(671.826172 0)"/>
       <use xlink:href="#DejaVuSans-61" transform="translate(711.035156 0)"/>
      </g>
     </g>
    </g>
    <g id="ytick_13">
     <g id="line2d_27">
      <g>
       <use xlink:href="#mf0999813a0" x="97.515" y="114.330208" style="stroke: #000000; stroke-width: 0.8"/>
      </g>
     </g>
     <g id="text_21">
      <!-- Victor Wembanyama -->
      <g transform="translate(7.2 117.369583) scale(0.08 -0.08)">
       <defs>
        <path id="DejaVuSans-56" d="M 1831 0 
L 50 4666 
L 709 4666 
L 2188 738 
L 3669 4666 
L 4325 4666 
L 2547 0 
L 1831 0 
z
" transform="scale(0.015625)"/>
        <path id="DejaVuSans-57" d="M 213 4666 
L 850 4666 
L 1831 722 
L 2809 4666 
L 3519 4666 
L 4500 722 
L 5478 4666 
L 6119 4666 
L 4947 0 
L 4153 0 
L 3169 4050 
L 2175 0 
L 1381 0 
L 213 4666 
z
" transform="scale(0.015625)"/>
       </defs>
       <use xlink:href="#DejaVuSans-56"/>
       <use xlink:href="#DejaVuSans-69" transform="translate(66.158203 0)"/>
       <use xlink:href="#DejaVuSans-63" transform="translate(93.941406 0)"/>
       <use xlink:href="#DejaVuSans-74" transform="translate(148.921875 0)"/>
       <use xlink:href="#DejaVuSans-6f" transform="translate(188.130859 0)"/>
       <use xlink:href="#DejaVuSans-72" transform="translate(249.3125 0)"/>
       <use xlink:href="#DejaVuSans-20" transform="translate(290.425781 0)"/>
       <use xlink:href="#DejaVuSans-57" transform="translate(322.212891 0)"/>
       <use xlink:href="#DejaVuSans-65" transform="translate(415.214844 0)"/>
       <use xlink:href="#DejaVuSans-6d" transform="translate(476.738281 0)"/>
       <use xlink:href="#DejaVuSans-62" transform="translate(574.150391 0)"/>
       <use xlink:href="#DejaVuSans-61" transform="translate(637.626953 0)"/>
       <use xlink:href="#DejaVuSans-6e" transform="translate(698.90625 0)"/>
       <use xlink:href="#DejaVuSans-79" transform="translate(762.285156 0)"/>
       <use xlink:href="#DejaVuSans-61" transform="translate(821.464844 0)"/>
       <use xlink:href="#DejaVuSans-6d" transform="translate(882.744141 0)"/>
       <use xlink:href="#DejaVuSans-61" transform="translate(980.15625 0)"/>
      </g>
     </g>
    </g>
    <g id="ytick_14">
     <g id="line2d_28">
      <g>
       <use xlink:href="#mf0999813a0" x="97.515" y="96.666226" style="stroke: #000000; stroke-width: 0.8"/>
      </g>
     </g>
     <g id="text_22">
      <!-- Kawhi Leonard -->
      <g transform="translate(31.79375 99.705601) scale(0.08 -0.08)">
       <defs>
        <path id="DejaVuSans-4b" d="M 628 4666 
L 1259 4666 
L 1259 2694 
L 3353 4666 
L 4166 4666 
L 1850 2491 
L 4331 0 
L 3500 0 
L 1259 2247 
L 1259 0 
L 628 0 
L 628 4666 
z
" transform="scale(0.015625)"/>
        <path id="DejaVuSans-77" d="M 269 3500 
L 844 3500 
L 1563 769 
L 2278 3500 
L 2956 3500 
L 3675 769 
L 4391 3500 
L 4966 3500 
L 4050 0 
L 3372 0 
L 2619 2869 
L 1863 0 
L 1184 0 
L 269 3500 
z
" transform="scale(0.015625)"/>
        <path id="DejaVuSans-4c" d="M 628 4666 
L 1259 4666 
L 1259 531 
L 3531 531 
L 3531 0 
L 628 0 
L 628 4666 
z
" transform="scale(0.015625)"/>
       </defs>
       <use xlink:href="#DejaVuSans-4b"/>
       <use xlink:href="#DejaVuSans-61" transform="translate(63.826172 0)"/>
       <use xlink:href="#DejaVuSans-77" transform="translate(125.105469 0)"/>
       <use xlink:href="#DejaVuSans-68" transform="translate(206.892578 0)"/>
       <use xlink:href="#DejaVuSans-69" transform="translate(270.271484 0)"/>
       <use xlink:href="#DejaVuSans-20" transform="translate(298.054688 0)"/>
       <use xlink:href="#DejaVuSans-4c" transform="translate(329.841797 0)"/>
       <use xlink:href="#DejaVuSans-65" transform="translate(383.804688 0)"/>
       <use xlink:href="#DejaVuSans-6f" transform="translate(445.328125 0)"/>
       <use xlink:href="#DejaVuSans-6e" transform="translate(506.509766 0)"/>
       <use xlink:href="#DejaVuSans-61" transform="translate(569.888672 0)"/>
       <use xlink:href="#DejaVuSans-72" transform="translate(631.167969 0)"/>
       <use xlink:href="#DejaVuSans-64" transform="translate(670.53125 0)"/>
      </g>
     </g>
    </g>
    <g id="ytick_15">
     <g id="line2d_29">
      <g>
       <use xlink:href="#mf0999813a0" x="97.515" y="79.002245" style="stroke: #000000; stroke-width: 0.8"/>
      </g>
     </g>
     <g id="text_23">
      <!-- Micah Potter -->
      <g transform="translate(40.56375 82.04162) scale(0.08 -0.08)">
       <defs>
        <path id="DejaVuSans-4d" d="M 628 4666 
L 1569 4666 
L 2759 1491 
L 3956 4666 
L 4897 4666 
L 4897 0 
L 4281 0 
L 4281 4097 
L 3078 897 
L 2444 897 
L 1241 4097 
L 1241 0 
L 628 0 
L 628 4666 
z
" transform="scale(0.015625)"/>
       </defs>
       <use xlink:href="#DejaVuSans-4d"/>
       <use xlink:href="#DejaVuSans-69" transform="translate(86.279297 0)"/>
       <use xlink:href="#DejaVuSans-63" transform="translate(114.0625 0)"/>
       <use xlink:href="#DejaVuSans-61" transform="translate(169.042969 0)"/>
       <use xlink:href="#DejaVuSans-68" transform="translate(230.322266 0)"/>
       <use xlink:href="#DejaVuSans-20" transform="translate(293.701172 0)"/>
       <use xlink:href="#DejaVuSans-50" transform="translate(325.488281 0)"/>
       <use xlink:href="#DejaVuSans-6f" transform="translate(382.166016 0)"/>
       <use xlink:href="#DejaVuSans-74" transform="translate(443.347656 0)"/>
       <use xlink:href="#DejaVuSans-74" transform="translate(482.556641 0)"/>
       <use xlink:href="#DejaVuSans-65" transform="translate(521.765625 0)"/>
       <use xlink:href="#DejaVuSans-72" transform="translate(583.289062 0)"/>
      </g>
     </g>
    </g>
    <g id="ytick_16">
     <g id="line2d_30">
      <g>
       <use xlink:href="#mf0999813a0" x="97.515" y="61.338263" style="stroke: #000000; stroke-width: 0.8"/>
      </g>
     </g>
     <g id="text_24">
      <!-- Stephon Castle -->
      <g transform="translate(29.78375 64.377638) scale(0.08 -0.08)">
       <use xlink:href="#DejaVuSans-53"/>
       <use xlink:href="#DejaVuSans-74" transform="translate(63.476562 0)"/>
       <use xlink:href="#DejaVuSans-65" transform="translate(102.685547 0)"/>
       <use xlink:href="#DejaVuSans-70" transform="translate(164.208984 0)"/>
       <use xlink:href="#DejaVuSans-68" transform="translate(227.685547 0)"/>
       <use xlink:href="#DejaVuSans-6f" transform="translate(291.064453 0)"/>
       <use xlink:href="#DejaVuSans-6e" transform="translate(352.246094 0)"/>
       <use xlink:href="#DejaVuSans-20" transform="translate(415.625 0)"/>
       <use xlink:href="#DejaVuSans-43" transform="translate(447.412109 0)"/>
       <use xlink:href="#DejaVuSans-61" transform="translate(517.236328 0)"/>
       <use xlink:href="#DejaVuSans-73" transform="translate(578.515625 0)"/>
       <use xlink:href="#DejaVuSans-74" transform="translate(630.615234 0)"/>
       <use xlink:href="#DejaVuSans-6c" transform="translate(669.824219 0)"/>
       <use xlink:href="#DejaVuSans-65" transform="translate(697.607422 0)"/>
      </g>
     </g>
    </g>
   </g>
   <g id="patch_3">
    <path d="M 97.515 347.318125 
L 524.831193 347.318125 
" style="fill: none; stroke: #000000; stroke-width: 0.8; stroke-linejoin: miter; stroke-linecap: square"/>
   </g>
   <g id="patch_4">
    <path d="M 322.315902 333.36358 
L 116.938463 333.36358 
L 116.938463 319.232394 
L 322.315902 319.232394 
z
" clip-path="url(#p6d7a4a2324)" style="fill: #e24b4a; opacity: 0.85"/>
   </g>
   <g id="patch_5">
    <path d="M 322.315902 315.699598 
L 129.697081 315.699598 
L 129.697081 301.568413 
L 322.315902 301.568413 
z
" clip-path="url(#p6d7a4a2324)" style="fill: #e24b4a; opacity: 0.85"/>
   </g>
   <g id="patch_6">
    <path d="M 322.315902 298.035616 
L 155.906843 298.035616 
L 155.906843 283.904431 
L 322.315902 283.904431 
z
" clip-path="url(#p6d7a4a2324)" style="fill: #e24b4a; opacity: 0.85"/>
   </g>
   <g id="patch_7">
    <path d="M 322.315902 280.371635 
L 158.682296 280.371635 
L 158.682296 266.24045 
L 322.315902 266.24045 
z
" clip-path="url(#p6d7a4a2324)" style="fill: #e24b4a; opacity: 0.85"/>
   </g>
   <g id="patch_8">
    <path d="M 322.315902 262.707653 
L 163.929992 262.707653 
L 163.929992 248.576468 
L 322.315902 248.576468 
z
" clip-path="url(#p6d7a4a2324)" style="fill: #e24b4a; opacity: 0.85"/>
   </g>
   <g id="patch_9">
    <path d="M 322.315902 245.043672 
L 164.856678 245.043672 
L 164.856678 230.912486 
L 322.315902 230.912486 
z
" clip-path="url(#p6d7a4a2324)" style="fill: #e24b4a; opacity: 0.85"/>
   </g>
   <g id="patch_10">
    <path d="M 322.315902 227.37969 
L 170.457276 227.37969 
L 170.457276 213.248505 
L 322.315902 213.248505 
z
" clip-path="url(#p6d7a4a2324)" style="fill: #e24b4a; opacity: 0.85"/>
   </g>
   <g id="patch_11">
    <path d="M 322.315902 209.715708 
L 171.233582 209.715708 
L 171.233582 195.584523 
L 322.315902 195.584523 
z
" clip-path="url(#p6d7a4a2324)" style="fill: #e24b4a; opacity: 0.85"/>
   </g>
   <g id="patch_12">
    <path d="M 322.315902 192.051727 
L 460.561685 192.051727 
L 460.561685 177.920542 
L 322.315902 177.920542 
z
" clip-path="url(#p6d7a4a2324)" style="fill: #1d9e75; opacity: 0.85"/>
   </g>
   <g id="patch_13">
    <path d="M 322.315902 174.387745 
L 463.133207 174.387745 
L 463.133207 160.25656 
L 322.315902 160.25656 
z
" clip-path="url(#p6d7a4a2324)" style="fill: #1d9e75; opacity: 0.85"/>
   </g>
   <g id="patch_14">
    <path d="M 322.315902 156.723764 
L 473.263869 156.723764 
L 473.263869 142.592578 
L 322.315902 142.592578 
z
" clip-path="url(#p6d7a4a2324)" style="fill: #1d9e75; opacity: 0.85"/>
   </g>
   <g id="patch_15">
    <path d="M 322.315902 139.059782 
L 478.753792 139.059782 
L 478.753792 124.928597 
L 322.315902 124.928597 
z
" clip-path="url(#p6d7a4a2324)" style="fill: #1d9e75; opacity: 0.85"/>
   </g>
   <g id="patch_16">
    <path d="M 322.315902 121.3958 
L 489.117947 121.3958 
L 489.117947 107.264615 
L 322.315902 107.264615 
z
" clip-path="url(#p6d7a4a2324)" style="fill: #1d9e75; opacity: 0.85"/>
   </g>
   <g id="patch_17">
    <path d="M 322.315902 103.731819 
L 495.503201 103.731819 
L 495.503201 89.600634 
L 322.315902 89.600634 
z
" clip-path="url(#p6d7a4a2324)" style="fill: #1d9e75; opacity: 0.85"/>
   </g>
   <g id="patch_18">
    <path d="M 322.315902 86.067837 
L 500.769983 86.067837 
L 500.769983 71.936652 
L 322.315902 71.936652 
z
" clip-path="url(#p6d7a4a2324)" style="fill: #1d9e75; opacity: 0.85"/>
   </g>
   <g id="patch_19">
    <path d="M 322.315902 68.403856 
L 505.407729 68.403856 
L 505.407729 54.27267 
L 322.315902 54.27267 
z
" clip-path="url(#p6d7a4a2324)" style="fill: #1d9e75; opacity: 0.85"/>
   </g>
   <g id="text_25">
    <!-- Players qualified in both seasons; change in standardized consensus standing -->
    <g style="fill: #888780" transform="translate(155.053721 35.584375) scale(0.08 -0.08)">
     <defs>
      <path id="DejaVuSans-71" d="M 947 1747 
Q 947 1113 1208 752 
Q 1469 391 1925 391 
Q 2381 391 2643 752 
Q 2906 1113 2906 1747 
Q 2906 2381 2643 2742 
Q 2381 3103 1925 3103 
Q 1469 3103 1208 2742 
Q 947 2381 947 1747 
z
M 2906 525 
Q 2725 213 2448 61 
Q 2172 -91 1784 -91 
Q 1150 -91 751 415 
Q 353 922 353 1747 
Q 353 2572 751 3078 
Q 1150 3584 1784 3584 
Q 2172 3584 2448 3432 
Q 2725 3281 2906 2969 
L 2906 3500 
L 3481 3500 
L 3481 -1331 
L 2906 -1331 
L 2906 525 
z
" transform="scale(0.015625)"/>
      <path id="DejaVuSans-66" d="M 2375 4863 
L 2375 4384 
L 1825 4384 
Q 1516 4384 1395 4259 
Q 1275 4134 1275 3809 
L 1275 3500 
L 2222 3500 
L 2222 3053 
L 1275 3053 
L 1275 0 
L 697 0 
L 697 3053 
L 147 3053 
L 147 3500 
L 697 3500 
L 697 3744 
Q 697 4328 969 4595 
Q 1241 4863 1831 4863 
L 2375 4863 
z
" transform="scale(0.015625)"/>
      <path id="DejaVuSans-3b" d="M 750 3309 
L 1409 3309 
L 1409 2516 
L 750 2516 
L 750 3309 
z
M 750 794 
L 1409 794 
L 1409 256 
L 897 -744 
L 494 -744 
L 750 256 
L 750 794 
z
" transform="scale(0.015625)"/>
     </defs>
     <use xlink:href="#DejaVuSans-50"/>
     <use xlink:href="#DejaVuSans-6c" transform="translate(60.302734 0)"/>
     <use xlink:href="#DejaVuSans-61" transform="translate(88.085938 0)"/>
     <use xlink:href="#DejaVuSans-79" transform="translate(149.365234 0)"/>
     <use xlink:href="#DejaVuSans-65" transform="translate(208.544922 0)"/>
     <use xlink:href="#DejaVuSans-72" transform="translate(270.068359 0)"/>
     <use xlink:href="#DejaVuSans-73" transform="translate(311.181641 0)"/>
     <use xlink:href="#DejaVuSans-20" transform="translate(363.28125 0)"/>
     <use xlink:href="#DejaVuSans-71" transform="translate(395.068359 0)"/>
     <use xlink:href="#DejaVuSans-75" transform="translate(458.544922 0)"/>
     <use xlink:href="#DejaVuSans-61" transform="translate(521.923828 0)"/>
     <use xlink:href="#DejaVuSans-6c" transform="translate(583.203125 0)"/>
     <use xlink:href="#DejaVuSans-69" transform="translate(610.986328 0)"/>
     <use xlink:href="#DejaVuSans-66" transform="translate(638.769531 0)"/>
     <use xlink:href="#DejaVuSans-69" transform="translate(673.974609 0)"/>
     <use xlink:href="#DejaVuSans-65" transform="translate(701.757812 0)"/>
     <use xlink:href="#DejaVuSans-64" transform="translate(763.28125 0)"/>
     <use xlink:href="#DejaVuSans-20" transform="translate(826.757812 0)"/>
     <use xlink:href="#DejaVuSans-69" transform="translate(858.544922 0)"/>
     <use xlink:href="#DejaVuSans-6e" transform="translate(886.328125 0)"/>
     <use xlink:href="#DejaVuSans-20" transform="translate(949.707031 0)"/>
     <use xlink:href="#DejaVuSans-62" transform="translate(981.494141 0)"/>
     <use xlink:href="#DejaVuSans-6f" transform="translate(1044.970703 0)"/>
     <use xlink:href="#DejaVuSans-74" transform="translate(1106.152344 0)"/>
     <use xlink:href="#DejaVuSans-68" transform="translate(1145.361328 0)"/>
     <use xlink:href="#DejaVuSans-20" transform="translate(1208.740234 0)"/>
     <use xlink:href="#DejaVuSans-73" transform="translate(1240.527344 0)"/>
     <use xlink:href="#DejaVuSans-65" transform="translate(1292.626953 0)"/>
     <use xlink:href="#DejaVuSans-61" transform="translate(1354.150391 0)"/>
     <use xlink:href="#DejaVuSans-73" transform="translate(1415.429688 0)"/>
     <use xlink:href="#DejaVuSans-6f" transform="translate(1467.529297 0)"/>
     <use xlink:href="#DejaVuSans-6e" transform="translate(1528.710938 0)"/>
     <use xlink:href="#DejaVuSans-73" transform="translate(1592.089844 0)"/>
     <use xlink:href="#DejaVuSans-3b" transform="translate(1644.189453 0)"/>
     <use xlink:href="#DejaVuSans-20" transform="translate(1677.880859 0)"/>
     <use xlink:href="#DejaVuSans-63" transform="translate(1709.667969 0)"/>
     <use xlink:href="#DejaVuSans-68" transform="translate(1764.648438 0)"/>
     <use xlink:href="#DejaVuSans-61" transform="translate(1828.027344 0)"/>
     <use xlink:href="#DejaVuSans-6e" transform="translate(1889.306641 0)"/>
     <use xlink:href="#DejaVuSans-67" transform="translate(1952.685547 0)"/>
     <use xlink:href="#DejaVuSans-65" transform="translate(2016.162109 0)"/>
     <use xlink:href="#DejaVuSans-20" transform="translate(2077.685547 0)"/>
     <use xlink:href="#DejaVuSans-69" transform="translate(2109.472656 0)"/>
     <use xlink:href="#DejaVuSans-6e" transform="translate(2137.255859 0)"/>
     <use xlink:href="#DejaVuSans-20" transform="translate(2200.634766 0)"/>
     <use xlink:href="#DejaVuSans-73" transform="translate(2232.421875 0)"/>
     <use xlink:href="#DejaVuSans-74" transform="translate(2284.521484 0)"/>
     <use xlink:href="#DejaVuSans-61" transform="translate(2323.730469 0)"/>
     <use xlink:href="#DejaVuSans-6e" transform="translate(2385.009766 0)"/>
     <use xlink:href="#DejaVuSans-64" transform="translate(2448.388672 0)"/>
     <use xlink:href="#DejaVuSans-61" transform="translate(2511.865234 0)"/>
     <use xlink:href="#DejaVuSans-72" transform="translate(2573.144531 0)"/>
     <use xlink:href="#DejaVuSans-64" transform="translate(2612.507812 0)"/>
     <use xlink:href="#DejaVuSans-69" transform="translate(2675.984375 0)"/>
     <use xlink:href="#DejaVuSans-7a" transform="translate(2703.767578 0)"/>
     <use xlink:href="#DejaVuSans-65" transform="translate(2756.257812 0)"/>
     <use xlink:href="#DejaVuSans-64" transform="translate(2817.78125 0)"/>
     <use xlink:href="#DejaVuSans-20" transform="translate(2881.257812 0)"/>
     <use xlink:href="#DejaVuSans-63" transform="translate(2913.044922 0)"/>
     <use xlink:href="#DejaVuSans-6f" transform="translate(2968.025391 0)"/>
     <use xlink:href="#DejaVuSans-6e" transform="translate(3029.207031 0)"/>
     <use xlink:href="#DejaVuSans-73" transform="translate(3092.585938 0)"/>
     <use xlink:href="#DejaVuSans-65" transform="translate(3144.685547 0)"/>
     <use xlink:href="#DejaVuSans-6e" transform="translate(3206.208984 0)"/>
     <use xlink:href="#DejaVuSans-73" transform="translate(3269.587891 0)"/>
     <use xlink:href="#DejaVuSans-75" transform="translate(3321.6875 0)"/>
     <use xlink:href="#DejaVuSans-73" transform="translate(3385.066406 0)"/>
     <use xlink:href="#DejaVuSans-20" transform="translate(3437.166016 0)"/>
     <use xlink:href="#DejaVuSans-73" transform="translate(3468.953125 0)"/>
     <use xlink:href="#DejaVuSans-74" transform="translate(3521.052734 0)"/>
     <use xlink:href="#DejaVuSans-61" transform="translate(3560.261719 0)"/>
     <use xlink:href="#DejaVuSans-6e" transform="translate(3621.541016 0)"/>
     <use xlink:href="#DejaVuSans-64" transform="translate(3684.919922 0)"/>
     <use xlink:href="#DejaVuSans-69" transform="translate(3748.396484 0)"/>
     <use xlink:href="#DejaVuSans-6e" transform="translate(3776.179688 0)"/>
     <use xlink:href="#DejaVuSans-67" transform="translate(3839.558594 0)"/>
    </g>
   </g>
   <g id="text_26">
    <!-- Who climbed and who slid in the consensus, 2024-25 to 2025-26 -->
    <g style="fill: #222222" transform="translate(116.141221 16.318125) scale(0.12 -0.12)">
     <use xlink:href="#DejaVuSans-57"/>
     <use xlink:href="#DejaVuSans-68" transform="translate(98.876953 0)"/>
     <use xlink:href="#DejaVuSans-6f" transform="translate(162.255859 0)"/>
     <use xlink:href="#DejaVuSans-20" transform="translate(223.4375 0)"/>
     <use xlink:href="#DejaVuSans-63" transform="translate(255.224609 0)"/>
     <use xlink:href="#DejaVuSans-6c" transform="translate(310.205078 0)"/>
     <use xlink:href="#DejaVuSans-69" transform="translate(337.988281 0)"/>
     <use xlink:href="#DejaVuSans-6d" transform="translate(365.771484 0)"/>
     <use xlink:href="#DejaVuSans-62" transform="translate(463.183594 0)"/>
     <use xlink:href="#DejaVuSans-65" transform="translate(526.660156 0)"/>
     <use xlink:href="#DejaVuSans-64" transform="translate(588.183594 0)"/>
     <use xlink:href="#DejaVuSans-20" transform="translate(651.660156 0)"/>
     <use xlink:href="#DejaVuSans-61" transform="translate(683.447266 0)"/>
     <use xlink:href="#DejaVuSans-6e" transform="translate(744.726562 0)"/>
     <use xlink:href="#DejaVuSans-64" transform="translate(808.105469 0)"/>
     <use xlink:href="#DejaVuSans-20" transform="translate(871.582031 0)"/>
     <use xlink:href="#DejaVuSans-77" transform="translate(903.369141 0)"/>
     <use xlink:href="#DejaVuSans-68" transform="translate(985.15625 0)"/>
     <use xlink:href="#DejaVuSans-6f" transform="translate(1048.535156 0)"/>
     <use xlink:href="#DejaVuSans-20" transform="translate(1109.716797 0)"/>
     <use xlink:href="#DejaVuSans-73" transform="translate(1141.503906 0)"/>
     <use xlink:href="#DejaVuSans-6c" transform="translate(1193.603516 0)"/>
     <use xlink:href="#DejaVuSans-69" transform="translate(1221.386719 0)"/>
     <use xlink:href="#DejaVuSans-64" transform="translate(1249.169922 0)"/>
     <use xlink:href="#DejaVuSans-20" transform="translate(1312.646484 0)"/>
     <use xlink:href="#DejaVuSans-69" transform="translate(1344.433594 0)"/>
     <use xlink:href="#DejaVuSans-6e" transform="translate(1372.216797 0)"/>
     <use xlink:href="#DejaVuSans-20" transform="translate(1435.595703 0)"/>
     <use xlink:href="#DejaVuSans-74" transform="translate(1467.382812 0)"/>
     <use xlink:href="#DejaVuSans-68" transform="translate(1506.591797 0)"/>
     <use xlink:href="#DejaVuSans-65" transform="translate(1569.970703 0)"/>
     <use xlink:href="#DejaVuSans-20" transform="translate(1631.494141 0)"/>
     <use xlink:href="#DejaVuSans-63" transform="translate(1663.28125 0)"/>
     <use xlink:href="#DejaVuSans-6f" transform="translate(1718.261719 0)"/>
     <use xlink:href="#DejaVuSans-6e" transform="translate(1779.443359 0)"/>
     <use xlink:href="#DejaVuSans-73" transform="translate(1842.822266 0)"/>
     <use xlink:href="#DejaVuSans-65" transform="translate(1894.921875 0)"/>
     <use xlink:href="#DejaVuSans-6e" transform="translate(1956.445312 0)"/>
     <use xlink:href="#DejaVuSans-73" transform="translate(2019.824219 0)"/>
     <use xlink:href="#DejaVuSans-75" transform="translate(2071.923828 0)"/>
     <use xlink:href="#DejaVuSans-73" transform="translate(2135.302734 0)"/>
     <use xlink:href="#DejaVuSans-2c" transform="translate(2187.402344 0)"/>
     <use xlink:href="#DejaVuSans-20" transform="translate(2219.189453 0)"/>
     <use xlink:href="#DejaVuSans-32" transform="translate(2250.976562 0)"/>
     <use xlink:href="#DejaVuSans-30" transform="translate(2314.599609 0)"/>
     <use xlink:href="#DejaVuSans-32" transform="translate(2378.222656 0)"/>
     <use xlink:href="#DejaVuSans-34" transform="translate(2441.845703 0)"/>
     <use xlink:href="#DejaVuSans-2d" transform="translate(2505.46875 0)"/>
     <use xlink:href="#DejaVuSans-32" transform="translate(2541.552734 0)"/>
     <use xlink:href="#DejaVuSans-35" transform="translate(2605.175781 0)"/>
     <use xlink:href="#DejaVuSans-20" transform="translate(2668.798828 0)"/>
     <use xlink:href="#DejaVuSans-74" transform="translate(2700.585938 0)"/>
     <use xlink:href="#DejaVuSans-6f" transform="translate(2739.794922 0)"/>
     <use xlink:href="#DejaVuSans-20" transform="translate(2800.976562 0)"/>
     <use xlink:href="#DejaVuSans-32" transform="translate(2832.763672 0)"/>
     <use xlink:href="#DejaVuSans-30" transform="translate(2896.386719 0)"/>
     <use xlink:href="#DejaVuSans-32" transform="translate(2960.009766 0)"/>
     <use xlink:href="#DejaVuSans-35" transform="translate(3023.632812 0)"/>
     <use xlink:href="#DejaVuSans-2d" transform="translate(3087.255859 0)"/>
     <use xlink:href="#DejaVuSans-32" transform="translate(3123.339844 0)"/>
     <use xlink:href="#DejaVuSans-36" transform="translate(3186.962891 0)"/>
    </g>
   </g>
   <g id="line2d_31">
    <path d="M 322.315902 347.318125 
L 322.315902 40.318125 
" clip-path="url(#p6d7a4a2324)" style="fill: none; stroke: #444444; stroke-width: 0.9; stroke-linecap: square"/>
   </g>
  </g>
 </g>
 <defs>
  <clipPath id="p6d7a4a2324">
   <rect x="97.515" y="40.318125" width="427.316193" height="307"/>
  </clipPath>
 </defs>
</svg>
